<?xml version="1.0" encoding="UTF-8" standalone="no"?>
<!-- Created with Inkscape (http://www.inkscape.org/) -->

<svg
   xmlns:dc="http://purl.org/dc/elements/1.1/"
   xmlns:cc="http://creativecommons.org/ns#"
   xmlns:rdf="http://www.w3.org/1999/02/22-rdf-syntax-ns#"
   xmlns:svg="http://www.w3.org/2000/svg"
   xmlns="http://www.w3.org/2000/svg"
   xmlns:sodipodi="http://sodipodi.sourceforge.net/DTD/sodipodi-0.dtd"
   xmlns:inkscape="http://www.inkscape.org/namespaces/inkscape"
   sodipodi:docname="BPSK.svg"
   width="23.98889cm"
   height="9.0924187cm"
   viewBox="0 0 850.00006 322.1723"
   id="svg2"
   version="1.1"
   inkscape:version="0.91 r13725">
  <sodipodi:namedview
     units="cm"
     fit-margin-bottom="0"
     fit-margin-right="0"
     fit-margin-left="0"
     fit-margin-top="0"
     id="base"
     pagecolor="#ffffff"
     bordercolor="#666666"
     borderopacity="1.0"
     inkscape:pageopacity="0.0"
     inkscape:pageshadow="2"
     inkscape:zoom="1.0835294"
     inkscape:cx="425.00001"
     inkscape:cy="161.08616"
     inkscape:document-units="px"
     inkscape:current-layer="layer1"
     showgrid="false"
     inkscape:window-width="1366"
     inkscape:window-height="719"
     inkscape:window-x="0"
     inkscape:window-y="25"
     inkscape:window-maximized="1" />
  <defs
     id="defs4" />
  <metadata
     id="metadata7">
    <rdf:RDF>
      <cc:Work
         rdf:about="">
        <dc:format>image/svg+xml</dc:format>
        <dc:type
           rdf:resource="http://purl.org/dc/dcmitype/StillImage" />
        <dc:title></dc:title>
      </cc:Work>
    </rdf:RDF>
  </metadata>
  <g
     inkscape:label="Layer 1"
     inkscape:groupmode="layer"
     id="layer1"
     transform="translate(246.82745,-1379.5535)">
    <path
       id="path4312"
       title="sin(x)"
       d="m -76.709373,1552.6031 c 0.716984,-15.8476 1.433951,-31.6875 2.150934,-46.2996 0.716984,-14.6121 1.433951,-27.9775 2.150935,-39.0737 0.716983,-11.0962 1.43395,-19.9011 2.150934,-25.7497 0.716967,-5.8485 1.43395,-8.7187 2.150934,-8.4068 0.716967,0.3119 1.433951,3.8242 2.150934,10.2479 0.716967,6.4238 1.433951,15.7705 2.150918,27.3034 0.716983,11.533 1.433967,25.2554 2.150929,40.0976 0.716984,14.8423 1.433967,30.7987 2.150934,46.6339 0.716984,15.8353 1.433951,31.5354 2.150934,45.8921 0.716984,14.3568 1.433951,27.3504 2.150935,37.988 0.716983,10.6376 1.43395,18.8969 2.150934,24.1552 0.716967,5.2583 1.433951,7.4941 2.150933,6.5525 0.716968,-0.9416 1.433952,-5.0782 2.150935,-12.0728 0.716967,-6.9946 1.43395,-16.858 2.150931,-28.814 0.716967,-11.9559 1.43395,-26.0068 2.150918,-41.0581 0.716983,-15.0514 1.433967,-31.0967 2.150933,-46.8944 0.716984,-15.7978 1.433968,-31.3335 2.150935,-45.412 0.716983,-14.0787 1.43395,-26.6801 2.150934,-36.8423 0.716984,-10.1622 1.433951,-17.8627 2.150934,-22.5225 0.716983,-4.6599 1.433951,-6.2576 2.150935,-4.6878 0.716966,1.5698 1.43395,6.3241 2.150933,13.8786 0.716968,7.5545 1.433951,17.9189 2.150934,30.2789 0.716968,12.3602 1.433951,26.7171 2.150934,41.9537 0.716968,15.2368 1.433951,31.3456 2.150919,47.0809 0.716982,15.7354 1.433966,31.0819 2.150934,44.8601 0.716983,13.7783 1.433966,25.9675 2.150933,35.6382 0.716984,9.6708 1.433952,16.8004 2.150935,20.8543 0.716983,4.054 1.43395,5.0112 2.150934,2.8157 0.716984,-2.1955 1.43395,-7.5601 2.150934,-15.6624 0.716967,-8.1024 1.433951,-18.9516 2.150934,-31.6961 0.716967,-12.7447 1.433951,-27.3852 2.150934,-42.783 0.7169675,-15.3979 1.4339509,-31.5448 2.1509181,-47.1928 0.7169835,-15.6481 1.4339669,-30.7813 2.1509342,-44.2374 0.7169834,-13.456 1.4339667,-25.2138 2.1509341,-34.3778 0.7169834,-9.164 1.4339667,-15.7114 2.1509341,-19.153 0.71698334,-3.4417 1.43395066,-3.7568 2.15093405,-0.9391 0.71698335,2.8178 1.43395075,8.7841 2.15093405,17.4216 0.7169834,8.6373 1.4339508,19.954 2.1509341,33.063 0.7169674,13.1091 1.4339507,28.0099 2.1509341,43.5446 0.7169674,15.5348 1.4339507,31.6942 2.1509342,47.2302 0.716967,15.5359 1.433951,30.432 2.150918,43.5446 0.716983,13.1125 1.433967,24.4203 2.150934,33.0631 0.716983,8.6426 1.433967,14.5975 2.150934,17.4214 0.716984,2.824 1.433951,2.4965 2.150934,-0.939 0.716984,-3.4355 1.433951,-9.9942 2.150935,-19.1531 0.716982,-9.1587 1.43395,-20.9251 2.150934,-34.3777 0.716983,-13.4528 1.43395,-28.5903 2.150933,-44.2373 0.716968,-15.6471 1.433952,-31.7935 2.150934,-47.1929 0.716968,-15.3994 1.433951,-30.0346 2.150935,-42.783 0.716967,-12.7483 1.43395,-23.5883 2.150918,-31.696 0.716983,-8.1078 1.433967,-13.4608 2.150934,-15.6625 0.716983,-2.2017 1.433967,-1.2322 2.150934,2.8156 0.716983,4.0479 1.433951,11.1885 2.150934,20.8543 0.716984,9.6657 1.43395,21.8631 2.150934,35.6382 0.716984,13.7751 1.433951,29.1255 2.150934,44.8602 0.716967,15.7345 1.433951,31.8423 2.150935,47.0808 0.716966,15.2384 1.43395,29.5898 2.150933,41.9537 0.716968,12.364 1.433951,22.7189 2.150934,30.279 0.716968,7.56 1.433951,12.3025 2.150919,13.8786 0.716983,1.576 1.433966,-0.034 2.150934,-4.6878 0.716983,-4.6538 1.433966,-12.3651 2.150934,-22.5226 0.716983,-10.1573 1.433951,-22.7664 2.150933,-36.8422 0.716984,-14.0757 1.433952,-29.6147 2.150935,-45.412 0.716983,-15.7972 1.43395,-31.8411 2.150934,-46.8944 0.716968,-15.0533 1.43395,-29.0981 2.150934,-41.0582 0.716967,-11.96 1.433951,-21.8136 2.150934,-28.8139 0.716967,-7.0003 1.433951,-11.1249 2.150918,-12.0728 0.716984,-0.9479 1.433967,1.3001 2.150934,6.5525 0.716984,5.2524 1.433968,13.5223 2.150934,24.1552 0.716984,10.6329 1.433967,23.6339 2.150935,37.988 0.716983,14.354 1.43395,30.0572 2.150934,45.8921 0.716983,15.8349 1.43395,31.7894 2.150934,46.6338 0.716983,14.8445 1.433951,28.5604 2.150933,40.0977 0.716968,11.5372 1.433952,20.8739 2.150935,27.3034 0.716967,6.4294 1.43395,9.9296 2.150934,10.2479 0.716968,0.3182 1.433951,-2.5642 2.150918,-8.4069 0.716983,-5.8426 1.433967,-14.6579 2.150935,-25.7496 0.716982,-11.0918 1.433966,-24.4639 2.150933,-39.0738 0.716984,-14.6096 1.433951,-30.452 2.150934,-46.2995"
       style="opacity:0.706;fill:none;fill-opacity:1;stroke:#0000d1;stroke-width:1.60000014;stroke-miterlimit:4;stroke-dasharray:none;stroke-dashoffset:0;stroke-opacity:1"
       inkscape:connector-curvature="0" />
    <path
       inkscape:connector-curvature="0"
       style="opacity:0.706;fill:none;fill-opacity:1;stroke:#0000d1;stroke-width:1.60000014;stroke-miterlimit:4;stroke-dasharray:none;stroke-dashoffset:0;stroke-opacity:1"
       d="m 93.206044,1552.6034 c 0.716981,-15.8476 1.433947,-31.6874 2.150929,-46.2995 0.716981,-14.6121 1.433947,-27.9774 2.150928,-39.0736 0.716982,-11.0962 1.433948,-19.901 2.150929,-25.7496 0.71697,-5.8485 1.43395,-8.7187 2.15093,-8.4068 0.71696,0.3119 1.43395,3.8242 2.15093,10.2479 0.71696,6.4237 1.43395,15.7704 2.15091,27.3033 0.71698,11.533 1.43396,25.2553 2.15093,40.0975 0.71698,14.8423 1.43396,30.7986 2.15093,46.6338 0.71698,15.8352 1.43395,31.5353 2.15093,45.892 0.71698,14.3567 1.43394,27.3503 2.15093,37.9879 0.71698,10.6376 1.43394,18.8968 2.15092,24.1551 0.71697,5.2583 1.43395,7.4941 2.15093,6.5525 0.71697,-0.9416 1.43395,-5.0782 2.15093,-12.0728 0.71697,-6.9946 1.43395,-16.8579 2.15092,-28.8139 0.71696,-11.9559 1.43394,-26.0067 2.15091,-41.058 0.71698,-15.0514 1.43396,-31.0966 2.15093,-46.8943 0.71698,-15.7977 1.43396,-31.3334 2.15093,-45.4119 0.71698,-14.0786 1.43394,-26.68 2.15092,-36.8422 0.71699,-10.1622 1.43395,-17.8626 2.15093,-22.5224 0.71698,-4.6599 1.43395,-6.2576 2.15093,-4.6878 0.71697,1.5698 1.43395,6.3241 2.15093,13.8786 0.71697,7.5544 1.43395,17.9188 2.15093,30.2788 0.71697,12.3601 1.43395,26.717 2.15093,41.9536 0.71696,15.2367 1.43395,31.3455 2.15091,47.0808 0.71698,15.7353 1.43396,31.0818 2.15093,44.86 0.71698,13.7782 1.43396,25.9674 2.15093,35.6381 0.71698,9.6707 1.43395,16.8003 2.15093,20.8542 0.71698,4.054 1.43394,5.0112 2.15093,2.8157 0.71698,-2.1955 1.43394,-7.5601 2.15093,-15.6624 0.71696,-8.1023 1.43394,-18.9515 2.15092,-31.696 0.71697,-12.7446 1.43395,-27.3851 2.15093,-42.7829 0.71697,-15.3978 1.43395,-31.5447 2.15092,-47.1927 0.71698,-15.648 1.43396,-30.7812 2.15092,-44.2372 0.71699,-13.456 1.43397,-25.2138 2.15093,-34.3778 0.71698,-9.1639 1.43397,-15.7113 2.15093,-19.1529 0.71698,-3.4417 1.43395,-3.7568 2.15093,-0.9391 0.71698,2.8178 1.43395,8.7841 2.15093,17.4215 0.71698,8.6373 1.43395,19.954 2.15093,33.063 0.71696,13.109 1.43395,28.0098 2.15093,43.5445 0.71696,15.5347 1.43394,31.6941 2.15093,47.23 0.71696,15.5359 1.43394,30.432 2.15091,43.5445 0.71698,13.1125 1.43396,24.4203 2.15093,33.063 0.71698,8.6426 1.43396,14.5975 2.15093,17.4214 0.71698,2.824 1.43394,2.4965 2.15093,-0.939 0.71698,-3.4355 1.43394,-9.9942 2.15092,-19.153 0.71699,-9.1587 1.43395,-20.9251 2.15093,-34.3777 0.71698,-13.4527 1.43395,-28.5902 2.15093,-44.2372 0.71697,-15.647 1.43395,-31.7934 2.15093,-47.1927 0.71697,-15.3994 1.43395,-30.0346 2.15093,-42.7829 0.71696,-12.7483 1.43395,-23.5883 2.15091,-31.696 0.71698,-8.1077 1.43397,-13.4607 2.15093,-15.6624 0.71698,-2.2017 1.43396,-1.2322 2.15093,2.8156 0.71698,4.0479 1.43395,11.1885 2.15093,20.8542 0.71698,9.6657 1.43395,21.8631 2.15093,35.6381 0.71698,13.7751 1.43394,29.1255 2.15093,44.8601 0.71696,15.7345 1.43394,31.8423 2.15093,47.0807 0.71696,15.2384 1.43394,29.5897 2.15092,41.9536 0.71697,12.364 1.43395,22.7189 2.15093,30.2789 0.71697,7.56 1.43395,12.3025 2.15092,13.8786 0.71698,1.576 1.43396,-0.034 2.15092,-4.6878 0.71699,-4.6538 1.43397,-12.3651 2.15093,-22.5225 0.71698,-10.1573 1.43395,-22.7664 2.15093,-36.8421 0.71698,-14.0757 1.43395,-29.6147 2.15093,-45.4119 0.71698,-15.7972 1.43395,-31.841 2.15093,-46.8943 0.71697,-15.0533 1.43395,-29.098 2.15093,-41.0581 0.71696,-11.96 1.43395,-21.8136 2.15093,-28.8138 0.71696,-7.0003 1.43394,-11.1249 2.15091,-12.0728 0.71698,-0.9479 1.43396,1.3001 2.15093,6.5525 0.71698,5.2524 1.43396,13.5222 2.15093,24.1551 0.71698,10.6329 1.43396,23.6339 2.15093,37.9879 0.71698,14.354 1.43394,30.0571 2.15093,45.892 0.71698,15.8349 1.43394,31.7893 2.15092,46.6337 0.71699,14.8445 1.43395,28.5603 2.15093,40.0976 0.71697,11.5372 1.43395,20.8738 2.15093,27.3033 0.71697,6.4294 1.43395,9.9296 2.15093,10.2479 0.71697,0.3182 1.43395,-2.5642 2.15091,-8.4069 0.71698,-5.8426 1.43397,-14.6578 2.15093,-25.7495 0.71698,-11.0918 1.43397,-24.4639 2.15093,-39.0737 0.71698,-14.6096 1.43395,-30.4519 2.15093,-46.2994"
       title="sin(x)"
       id="path4319" />
    <path
       id="path4323"
       title="sin(x)"
       d="m 433.05249,1552.6034 c 0.71698,-15.8476 1.43395,-31.6874 2.15093,-46.2995 0.71698,-14.6121 1.43395,-27.9774 2.15093,-39.0736 0.71698,-11.0962 1.43395,-19.901 2.15093,-25.7496 0.71696,-5.8485 1.43394,-8.7187 2.15093,-8.4068 0.71696,0.3119 1.43394,3.8242 2.15093,10.2479 0.71696,6.4237 1.43394,15.7704 2.15091,27.3033 0.71698,11.533 1.43396,25.2553 2.15093,40.0975 0.71698,14.8423 1.43396,30.7986 2.15093,46.6338 0.71698,15.8352 1.43394,31.5353 2.15092,45.892 0.71699,14.3567 1.43395,27.3503 2.15093,37.9879 0.71698,10.6376 1.43395,18.8968 2.15093,24.1551 0.71697,5.2583 1.43395,7.4941 2.15093,6.5525 0.71697,-0.9416 1.43395,-5.0782 2.15093,-12.0728 0.71697,-6.9946 1.43395,-16.8579 2.15091,-28.8139 0.71697,-11.9559 1.43395,-26.0067 2.15092,-41.058 0.71698,-15.0514 1.43396,-31.0966 2.15092,-46.8943 0.71699,-15.7977 1.43397,-31.3334 2.15093,-45.4119 0.71698,-14.0786 1.43395,-26.68 2.15093,-36.8422 0.71698,-10.1622 1.43395,-17.8626 2.15093,-22.5224 0.71698,-4.6599 1.43395,-6.2576 2.15093,-4.6878 0.71696,1.5698 1.43395,6.3241 2.15093,13.8786 0.71696,7.5544 1.43395,17.9188 2.15093,30.2788 0.71696,12.3601 1.43394,26.717 2.15093,41.9536 0.71696,15.2367 1.43394,31.3455 2.15091,47.0808 0.71698,15.7353 1.43396,31.0818 2.15093,44.86 0.71698,13.7782 1.43396,25.9674 2.15093,35.6381 0.71698,9.6707 1.43394,16.8003 2.15093,20.8542 0.71698,4.054 1.43394,5.0112 2.15092,2.8157 0.71699,-2.1955 1.43395,-7.5601 2.15093,-15.6624 0.71697,-8.1023 1.43395,-18.9515 2.15093,-31.696 0.71697,-12.7446 1.43395,-27.3851 2.15093,-42.7829 0.71697,-15.3978 1.43395,-31.5447 2.15091,-47.1927 0.71698,-15.648 1.43397,-30.7812 2.15093,-44.2372 0.71698,-13.456 1.43397,-25.2138 2.15093,-34.3778 0.71698,-9.1639 1.43396,-15.7113 2.15093,-19.1529 0.71698,-3.4417 1.43395,-3.7568 2.15093,-0.9391 0.71698,2.8178 1.43395,8.7841 2.15093,17.4215 0.71698,8.6373 1.43394,19.954 2.15093,33.063 0.71696,13.109 1.43394,28.0098 2.15092,43.5445 0.71697,15.5347 1.43395,31.6941 2.15093,47.23 0.71697,15.5359 1.43395,30.432 2.15092,43.5445 0.71698,13.1125 1.43396,24.4203 2.15093,33.063 0.71698,8.6426 1.43396,14.5975 2.15092,17.4214 0.71699,2.824 1.43395,2.4965 2.15093,-0.939 0.71698,-3.4355 1.43395,-9.9942 2.15093,-19.153 0.71698,-9.1587 1.43395,-20.9251 2.15093,-34.3777 0.71698,-13.4527 1.43395,-28.5902 2.15093,-44.2372 0.71696,-15.647 1.43395,-31.7934 2.15093,-47.1927 0.71696,-15.3994 1.43395,-30.0346 2.15093,-42.7829 0.71696,-12.7483 1.43394,-23.5883 2.15091,-31.696 0.71698,-8.1077 1.43396,-13.4607 2.15093,-15.6624 0.71698,-2.2017 1.43396,-1.2322 2.15093,2.8156 0.71698,4.0479 1.43394,11.1885 2.15093,20.8542 0.71698,9.6657 1.43394,21.8631 2.15092,35.6381 0.71699,13.7751 1.43395,29.1255 2.15093,44.8601 0.71697,15.7345 1.43395,31.8423 2.15093,47.0807 0.71697,15.2384 1.43395,29.5897 2.15093,41.9536 0.71697,12.364 1.43395,22.7189 2.15093,30.2789 0.71697,7.56 1.43395,12.3025 2.15091,13.8786 0.71698,1.576 1.43397,-0.034 2.15093,-4.6878 0.71698,-4.6538 1.43396,-12.3651 2.15093,-22.5225 0.71698,-10.1573 1.43395,-22.7664 2.15093,-36.8421 0.71698,-14.0757 1.43395,-29.6147 2.15093,-45.4119 0.71698,-15.7972 1.43395,-31.841 2.15093,-46.8943 0.71696,-15.0533 1.43394,-29.098 2.15093,-41.0581 0.71696,-11.96 1.43394,-21.8136 2.15092,-28.8138 0.71697,-7.0003 1.43395,-11.1249 2.15092,-12.0728 0.71698,-0.9479 1.43396,1.3001 2.15093,6.5525 0.71698,5.2524 1.43396,13.5222 2.15092,24.1551 0.71699,10.6329 1.43397,23.6339 2.15093,37.9879 0.71699,14.354 1.43395,30.0571 2.15093,45.892 0.71698,15.8349 1.43395,31.7893 2.15093,46.6337 0.71698,14.8445 1.43395,28.5603 2.15093,40.0976 0.71697,11.5372 1.43395,20.8738 2.15093,27.3033 0.71696,6.4294 1.43395,9.9296 2.15093,10.2479 0.71696,0.3182 1.43394,-2.5642 2.15091,-8.4069 0.71698,-5.8426 1.43396,-14.6578 2.15093,-25.7495 0.71698,-11.0918 1.43396,-24.4639 2.15093,-39.0737 0.71698,-14.6096 1.43395,-30.4519 2.15093,-46.2994"
       style="opacity:0.706;fill:none;fill-opacity:1;stroke:#0000d1;stroke-width:1.60000014;stroke-miterlimit:4;stroke-dasharray:none;stroke-dashoffset:0;stroke-opacity:1"
       inkscape:connector-curvature="0" />
    <path
       style="fill:none;fill-rule:evenodd;stroke:#000000;stroke-width:1.60000016;stroke-linecap:butt;stroke-linejoin:miter;stroke-miterlimit:4;stroke-dasharray:12.80000133,12.80000133;stroke-dashoffset:0;stroke-opacity:1"
       d="m -245.87985,1407.9688 0,293.757"
       id="path4327"
       inkscape:connector-curvature="0"
       sodipodi:nodetypes="cc" />
    <path
       sodipodi:nodetypes="cc"
       inkscape:connector-curvature="0"
       id="path4329"
       d="m -76.709093,1407.9688 0,293.757"
       style="fill:none;fill-rule:evenodd;stroke:#000000;stroke-width:1.60000016;stroke-linecap:butt;stroke-linejoin:miter;stroke-miterlimit:4;stroke-dasharray:12.80000133,12.80000133;stroke-dashoffset:0;stroke-opacity:1" />
    <path
       style="fill:none;fill-rule:evenodd;stroke:#000000;stroke-width:1.60000016;stroke-linecap:butt;stroke-linejoin:miter;stroke-miterlimit:4;stroke-dasharray:12.80000133,12.80000133;stroke-dashoffset:0;stroke-opacity:1"
       d="m 92.911867,1407.9688 0,293.757"
       id="path4331"
       inkscape:connector-curvature="0"
       sodipodi:nodetypes="cc" />
    <path
       sodipodi:nodetypes="cc"
       inkscape:connector-curvature="0"
       id="path4333"
       d="m 264.42804,1407.9688 0,293.757"
       style="fill:none;fill-rule:evenodd;stroke:#000000;stroke-width:1.60000016;stroke-linecap:butt;stroke-linejoin:miter;stroke-miterlimit:4;stroke-dasharray:12.80000133,12.80000133;stroke-dashoffset:0;stroke-opacity:1" />
    <path
       style="fill:none;fill-rule:evenodd;stroke:#000000;stroke-width:1.60000016;stroke-linecap:butt;stroke-linejoin:miter;stroke-miterlimit:4;stroke-dasharray:12.80000133,12.80000133;stroke-dashoffset:0;stroke-opacity:1"
       d="m 434.99661,1407.9688 0,293.757"
       id="path4335"
       inkscape:connector-curvature="0"
       sodipodi:nodetypes="cc" />
    <path
       sodipodi:nodetypes="cc"
       inkscape:connector-curvature="0"
       id="path4337"
       d="m 601.77476,1407.9688 0,293.757"
       style="fill:none;fill-rule:evenodd;stroke:#000000;stroke-width:1.60000016;stroke-linecap:butt;stroke-linejoin:miter;stroke-miterlimit:4;stroke-dasharray:12.80000133,12.80000133;stroke-dashoffset:0;stroke-opacity:1" />
    <text
       xml:space="preserve"
       style="font-style:normal;font-variant:normal;font-weight:normal;font-stretch:normal;font-size:2.40905046px;line-height:125%;font-family:'Latin Modern Roman';-inkscape-font-specification:'Latin Modern Roman, Normal';text-align:start;letter-spacing:0px;word-spacing:0px;writing-mode:lr-tb;text-anchor:start;fill:#000000;fill-opacity:1;stroke:none;stroke-width:1px;stroke-linecap:butt;stroke-linejoin:miter;stroke-opacity:1"
       x="-169.12399"
       y="1400.3881"
       id="text4339"
       sodipodi:linespacing="125%"><tspan
         sodipodi:role="line"
         id="tspan4341"
         x="-169.12399"
         y="1400.3881"
         style="font-style:normal;font-variant:normal;font-weight:normal;font-stretch:normal;font-size:28.90860748px;font-family:Roboto;-inkscape-font-specification:Roboto">0</tspan></text>
    <text
       sodipodi:linespacing="125%"
       id="text4343"
       y="1400.3881"
       x="6.1825833"
       style="font-style:normal;font-variant:normal;font-weight:normal;font-stretch:normal;font-size:2.40905046px;line-height:125%;font-family:'Latin Modern Roman';-inkscape-font-specification:'Latin Modern Roman, Normal';text-align:start;letter-spacing:0px;word-spacing:0px;writing-mode:lr-tb;text-anchor:start;fill:#000000;fill-opacity:1;stroke:none;stroke-width:1px;stroke-linecap:butt;stroke-linejoin:miter;stroke-opacity:1"
       xml:space="preserve"><tspan
         style="font-style:normal;font-variant:normal;font-weight:normal;font-stretch:normal;font-size:28.90860748px;font-family:Roboto;-inkscape-font-specification:Roboto"
         y="1400.3881"
         x="6.1825833"
         id="tspan4345"
         sodipodi:role="line">1</tspan></text>
    <text
       xml:space="preserve"
       style="font-style:normal;font-variant:normal;font-weight:normal;font-stretch:normal;font-size:2.40905046px;line-height:125%;font-family:'Latin Modern Roman';-inkscape-font-specification:'Latin Modern Roman, Normal';text-align:start;letter-spacing:0px;word-spacing:0px;writing-mode:lr-tb;text-anchor:start;fill:#000000;fill-opacity:1;stroke:none;stroke-width:1px;stroke-linecap:butt;stroke-linejoin:miter;stroke-opacity:1"
       x="174.85596"
       y="1400.3881"
       id="text4347"
       sodipodi:linespacing="125%"><tspan
         sodipodi:role="line"
         id="tspan4349"
         x="174.85596"
         y="1400.3881"
         style="font-style:normal;font-variant:normal;font-weight:normal;font-stretch:normal;font-size:28.90860748px;font-family:Roboto;-inkscape-font-specification:Roboto">1</tspan></text>
    <text
       sodipodi:linespacing="125%"
       id="text4351"
       y="1400.3881"
       x="342.58173"
       style="font-style:normal;font-variant:normal;font-weight:normal;font-stretch:normal;font-size:2.40905046px;line-height:125%;font-family:'Latin Modern Roman';-inkscape-font-specification:'Latin Modern Roman, Normal';text-align:start;letter-spacing:0px;word-spacing:0px;writing-mode:lr-tb;text-anchor:start;fill:#000000;fill-opacity:1;stroke:none;stroke-width:1px;stroke-linecap:butt;stroke-linejoin:miter;stroke-opacity:1"
       xml:space="preserve"><tspan
         style="font-style:normal;font-variant:normal;font-weight:normal;font-stretch:normal;font-size:28.90860748px;font-family:Roboto;-inkscape-font-specification:Roboto"
         y="1400.3881"
         x="342.58173"
         id="tspan4353"
         sodipodi:role="line">0</tspan></text>
    <text
       xml:space="preserve"
       style="font-style:normal;font-variant:normal;font-weight:normal;font-stretch:normal;font-size:2.40905046px;line-height:125%;font-family:'Latin Modern Roman';-inkscape-font-specification:'Latin Modern Roman, Normal';text-align:start;letter-spacing:0px;word-spacing:0px;writing-mode:lr-tb;text-anchor:start;fill:#000000;fill-opacity:1;stroke:none;stroke-width:1px;stroke-linecap:butt;stroke-linejoin:miter;stroke-opacity:1"
       x="516.94067"
       y="1400.3881"
       id="text4355"
       sodipodi:linespacing="125%"><tspan
         sodipodi:role="line"
         id="tspan4357"
         x="516.94067"
         y="1400.3881"
         style="font-style:normal;font-variant:normal;font-weight:normal;font-stretch:normal;font-size:28.90860748px;font-family:Roboto;-inkscape-font-specification:Roboto">1</tspan></text>
    <path
       style="fill:none;fill-rule:evenodd;stroke:#000000;stroke-width:1.60000014;stroke-linecap:butt;stroke-linejoin:miter;stroke-miterlimit:4;stroke-dasharray:none;stroke-opacity:1"
       d="m -251.36445,1552.5228 861.07495,0"
       id="path4382"
       inkscape:connector-curvature="0" />
    <path
       inkscape:connector-curvature="0"
       style="opacity:0.706;fill:none;fill-opacity:1;stroke:#0000d1;stroke-width:1.60000014;stroke-miterlimit:4;stroke-dasharray:none;stroke-dashoffset:0;stroke-opacity:1"
       d="m -246.92493,1552.604 c 0.71698,15.8476 1.43395,31.6875 2.15093,46.2996 0.71698,14.6121 1.43395,27.9775 2.15093,39.0737 0.71699,11.0962 1.43395,19.9011 2.15094,25.7497 0.71697,5.8485 1.43395,8.7187 2.15093,8.4068 0.71697,-0.3119 1.43395,-3.8242 2.15094,-10.2479 0.71696,-6.4238 1.43395,-15.7705 2.15091,-27.3034 0.71699,-11.533 1.43397,-25.2554 2.15093,-40.0976 0.71699,-14.8423 1.43397,-30.7987 2.15094,-46.6339 0.71698,-15.8353 1.43395,-31.5354 2.15093,-45.8921 0.71699,-14.3568 1.43395,-27.3504 2.15094,-37.988 0.71698,-10.6376 1.43395,-18.8969 2.15093,-24.1552 0.71697,-5.2583 1.43395,-7.4941 2.15093,-6.5525 0.71697,0.9416 1.43396,5.0782 2.15094,12.0728 0.71697,6.9946 1.43395,16.858 2.15093,28.814 0.71697,11.9559 1.43395,26.0068 2.15092,41.0581 0.71698,15.0514 1.43396,31.0967 2.15093,46.8944 0.71698,15.7978 1.43397,31.3335 2.15094,45.412 0.71698,14.0787 1.43395,26.6801 2.15093,36.8423 0.71698,10.1622 1.43395,17.8627 2.15093,22.5225 0.71699,4.6599 1.43395,6.2576 2.15094,4.6878 0.71696,-1.5698 1.43395,-6.3241 2.15093,-13.8786 0.71697,-7.5545 1.43395,-17.9189 2.15094,-30.2789 0.71696,-12.3602 1.43395,-26.7171 2.15093,-41.9537 0.71697,-15.2368 1.43395,-31.3456 2.15092,-47.0809 0.71698,-15.7354 1.43396,-31.0819 2.15093,-44.8601 0.71699,-13.7783 1.43397,-25.9675 2.15094,-35.6382 0.71698,-9.6708 1.43395,-16.8004 2.15093,-20.8543 0.71698,-4.054 1.43395,-5.0112 2.15093,-2.8157 0.71699,2.1955 1.43395,7.5601 2.15094,15.6624 0.71697,8.1024 1.43395,18.9516 2.15093,31.6961 0.71697,12.7447 1.43395,27.3852 2.15094,42.783 0.71696,15.3979 1.43395,31.5448 2.15092,47.1928 0.71698,15.6481 1.43396,30.7813 2.15093,44.2374 0.71698,13.456 1.43397,25.2138 2.15093,34.3778 0.71699,9.164 1.43397,15.7114 2.15094,19.153 0.71698,3.4417 1.43395,3.7568 2.15093,0.9391 0.71698,-2.8178 1.43395,-8.7841 2.15094,-17.4216 0.71698,-8.6373 1.43395,-19.954 2.15093,-33.063 0.71697,-13.1091 1.43395,-28.0099 2.15093,-43.5446 0.71697,-15.5348 1.43395,-31.6942 2.15094,-47.2302 0.71696,-15.5359 1.43395,-30.432 2.15092,-43.5446 0.71698,-13.1125 1.43396,-24.4203 2.15093,-33.0631 0.71698,-8.6426 1.43397,-14.5975 2.15093,-17.4214 0.71699,-2.824 1.43395,-2.4965 2.15094,0.939 0.71698,3.4355 1.43395,9.9942 2.15093,19.1531 0.71698,9.1587 1.43395,20.9251 2.15094,34.3777 0.71698,13.4528 1.43395,28.5903 2.15093,44.2373 0.71697,15.6471 1.43395,31.7935 2.15093,47.1929 0.71697,15.3994 1.43395,30.0346 2.15094,42.783 0.71697,12.7483 1.43395,23.5883 2.15092,31.696 0.71698,8.1078 1.43396,13.4608 2.15093,15.6625 0.71698,2.2017 1.43397,1.2322 2.15093,-2.8156 0.71699,-4.0479 1.43396,-11.1885 2.15094,-20.8543 0.71698,-9.6657 1.43395,-21.8631 2.15093,-35.6382 0.71699,-13.7751 1.43395,-29.1255 2.15094,-44.8602 0.71696,-15.7345 1.43395,-31.8423 2.15093,-47.0808 0.71697,-15.2384 1.43395,-29.5898 2.15093,-41.9537 0.71697,-12.364 1.43396,-22.7189 2.15094,-30.279 0.71697,-7.56 1.43395,-12.3025 2.15092,-13.8786 0.71698,-1.576 1.43396,0.034 2.15093,4.6878 0.71698,4.6538 1.43397,12.3651 2.15094,22.5226 0.71698,10.1573 1.43395,22.7664 2.15093,36.8422 0.71698,14.0757 1.43395,29.6147 2.15093,45.412 0.71699,15.7972 1.43395,31.8411 2.15094,46.8944 0.71697,15.0533 1.43395,29.0981 2.15093,41.0582 0.71697,11.96 1.43395,21.8136 2.15094,28.8139 0.71696,7.0003 1.43395,11.1249 2.15091,12.0728 0.71699,0.9479 1.43397,-1.3001 2.15094,-6.5525 0.716982,-5.2524 1.433966,-13.5223 2.150932,-24.1552 0.716984,-10.6329 1.433967,-23.6339 2.150935,-37.988 0.716983,-14.354 1.43395,-30.0572 2.150934,-45.8921 0.716983,-15.8349 1.43395,-31.7894 2.150934,-46.6338 0.716983,-14.8445 1.433951,-28.5604 2.150933,-40.0977 0.716968,-11.5372 1.433952,-20.8739 2.150935,-27.3034 0.716967,-6.4294 1.43395,-9.9296 2.150934,-10.2479 0.716968,-0.3182 1.433951,2.5642 2.150918,8.4069 0.716983,5.8426 1.433967,14.6579 2.150935,25.7496 0.716982,11.0918 1.433966,24.4639 2.150933,39.0738 0.716984,14.6096 1.433951,30.452 2.150934,46.2995"
       title="sin(x)"
       id="path4838" />
    <path
       id="path4840"
       title="sin(x)"
       d="m 263.09516,1552.604 c 0.71698,15.8476 1.43395,31.6875 2.15093,46.2996 0.71698,14.6121 1.43395,27.9775 2.15093,39.0737 0.71699,11.0962 1.43395,19.9011 2.15094,25.7497 0.71697,5.8485 1.43395,8.7187 2.15093,8.4068 0.71697,-0.3119 1.43395,-3.8242 2.15094,-10.2479 0.71696,-6.4238 1.43395,-15.7705 2.15091,-27.3034 0.71699,-11.533 1.43397,-25.2554 2.15093,-40.0976 0.71699,-14.8423 1.43397,-30.7987 2.15094,-46.6339 0.71698,-15.8353 1.43395,-31.5354 2.15093,-45.8921 0.71699,-14.3568 1.43395,-27.3504 2.15094,-37.988 0.71698,-10.6376 1.43395,-18.8969 2.15093,-24.1552 0.71697,-5.2583 1.43395,-7.4941 2.15093,-6.5525 0.71697,0.9416 1.43396,5.0782 2.15094,12.0728 0.71697,6.9946 1.43395,16.858 2.15093,28.814 0.71697,11.9559 1.43395,26.0068 2.15092,41.0581 0.71698,15.0514 1.43396,31.0967 2.15093,46.8944 0.71698,15.7978 1.43397,31.3335 2.15094,45.412 0.71698,14.0787 1.43395,26.6801 2.15093,36.8423 0.71698,10.1622 1.43395,17.8627 2.15093,22.5225 0.71699,4.6599 1.43395,6.2576 2.15094,4.6878 0.71696,-1.5698 1.43395,-6.3241 2.15093,-13.8786 0.71697,-7.5545 1.43395,-17.9189 2.15094,-30.2789 0.71696,-12.3602 1.43395,-26.7171 2.15093,-41.9537 0.71697,-15.2368 1.43395,-31.3456 2.15092,-47.0809 0.71698,-15.7354 1.43396,-31.0819 2.15093,-44.8601 0.71699,-13.7783 1.43397,-25.9675 2.15094,-35.6382 0.71698,-9.6708 1.43395,-16.8004 2.15093,-20.8543 0.71698,-4.054 1.43395,-5.0112 2.15093,-2.8157 0.71699,2.1955 1.43395,7.5601 2.15094,15.6624 0.71697,8.1024 1.43395,18.9516 2.15093,31.6961 0.71697,12.7447 1.43395,27.3852 2.15094,42.783 0.71696,15.3979 1.43395,31.5448 2.15092,47.1928 0.71698,15.6481 1.43396,30.7813 2.15093,44.2374 0.71698,13.456 1.43397,25.2138 2.15093,34.3778 0.71699,9.164 1.43397,15.7114 2.15094,19.153 0.71698,3.4417 1.43395,3.7568 2.15093,0.9391 0.71698,-2.8178 1.43395,-8.7841 2.15094,-17.4216 0.71698,-8.6373 1.43395,-19.954 2.15093,-33.063 0.71697,-13.1091 1.43395,-28.0099 2.15093,-43.5446 0.71697,-15.5348 1.43395,-31.6942 2.15094,-47.2302 0.71696,-15.5359 1.43395,-30.432 2.15092,-43.5446 0.71698,-13.1125 1.43396,-24.4203 2.15093,-33.0631 0.71698,-8.6426 1.43397,-14.5975 2.15093,-17.4214 0.71699,-2.824 1.43395,-2.4965 2.15094,0.939 0.71698,3.4355 1.43395,9.9942 2.15093,19.1531 0.71698,9.1587 1.43395,20.9251 2.15094,34.3777 0.71698,13.4528 1.43395,28.5903 2.15093,44.2373 0.71697,15.6471 1.43395,31.7935 2.15093,47.1929 0.71697,15.3994 1.43395,30.0346 2.15094,42.783 0.71697,12.7483 1.43395,23.5883 2.15092,31.696 0.71698,8.1078 1.43396,13.4608 2.15093,15.6625 0.71698,2.2017 1.43397,1.2322 2.15093,-2.8156 0.71699,-4.0479 1.43396,-11.1885 2.15094,-20.8543 0.71698,-9.6657 1.43395,-21.8631 2.15093,-35.6382 0.71699,-13.7751 1.43395,-29.1255 2.15094,-44.8602 0.71696,-15.7345 1.43395,-31.8423 2.15093,-47.0808 0.71697,-15.2384 1.43395,-29.5898 2.15093,-41.9537 0.71697,-12.364 1.43396,-22.7189 2.15094,-30.279 0.71697,-7.56 1.43395,-12.3025 2.15092,-13.8786 0.71698,-1.576 1.43396,0.034 2.15093,4.6878 0.71698,4.6538 1.43397,12.3651 2.15094,22.5226 0.71698,10.1573 1.43395,22.7664 2.15093,36.8422 0.71698,14.0757 1.43395,29.6147 2.15093,45.412 0.71699,15.7972 1.43395,31.8411 2.15094,46.8944 0.71697,15.0533 1.43395,29.0981 2.15093,41.0582 0.71697,11.96 1.43395,21.8136 2.15094,28.8139 0.71696,7.0003 1.43395,11.1249 2.15091,12.0728 0.71699,0.9479 1.43397,-1.3001 2.15094,-6.5525 0.71698,-5.2524 1.43397,-13.5223 2.15093,-24.1552 0.71699,-10.6329 1.43397,-23.6339 2.15094,-37.988 0.71698,-14.354 1.43395,-30.0572 2.15093,-45.8921 0.71699,-15.8349 1.43395,-31.7894 2.15094,-46.6338 0.71698,-14.8445 1.43395,-28.5604 2.15093,-40.0977 0.71697,-11.5372 1.43395,-20.8739 2.15094,-27.3034 0.71696,-6.4294 1.43395,-9.9296 2.15093,-10.2479 0.71697,-0.3182 1.43395,2.5642 2.15092,8.4069 0.71698,5.8426 1.43396,14.6579 2.15093,25.7496 0.71698,11.0918 1.43397,24.4639 2.15094,39.0738 0.71698,14.6096 1.43395,30.452 2.15093,46.2995"
       style="opacity:0.706;fill:none;fill-opacity:1;stroke:#0000d1;stroke-width:1.60000014;stroke-miterlimit:4;stroke-dasharray:none;stroke-dashoffset:0;stroke-opacity:1"
       inkscape:connector-curvature="0" />
  </g>
</svg>
