<?xml version="1.0" encoding="UTF-8" standalone="no"?>
<!-- Created with Inkscape (http://www.inkscape.org/) -->

<svg
   xmlns:dc="http://purl.org/dc/elements/1.1/"
   xmlns:cc="http://creativecommons.org/ns#"
   xmlns:rdf="http://www.w3.org/1999/02/22-rdf-syntax-ns#"
   xmlns:svg="http://www.w3.org/2000/svg"
   xmlns="http://www.w3.org/2000/svg"
   xmlns:sodipodi="http://sodipodi.sourceforge.net/DTD/sodipodi-0.dtd"
   xmlns:inkscape="http://www.inkscape.org/namespaces/inkscape"
   sodipodi:docname="FM.svg"
   width="23.98889cm"
   height="9.0924187cm"
   viewBox="0 0 850.00006 322.1723"
   id="svg2"
   version="1.1"
   inkscape:version="0.91 r13725">
  <sodipodi:namedview
     units="cm"
     fit-margin-bottom="0"
     fit-margin-right="0"
     fit-margin-left="0"
     fit-margin-top="0"
     id="base"
     pagecolor="#ffffff"
     bordercolor="#666666"
     borderopacity="1.0"
     inkscape:pageopacity="0.0"
     inkscape:pageshadow="2"
     inkscape:zoom="0.76617097"
     inkscape:cx="464.91422"
     inkscape:cy="165.27331"
     inkscape:document-units="px"
     inkscape:current-layer="svg2"
     showgrid="false"
     inkscape:window-width="1366"
     inkscape:window-height="719"
     inkscape:window-x="0"
     inkscape:window-y="25"
     inkscape:window-maximized="1" />
  <defs
     id="defs4" />
  <metadata
     id="metadata7">
    <rdf:RDF>
      <cc:Work
         rdf:about="">
        <dc:format>image/svg+xml</dc:format>
        <dc:type
           rdf:resource="http://purl.org/dc/dcmitype/StillImage" />
        <dc:title></dc:title>
      </cc:Work>
    </rdf:RDF>
  </metadata>
  <path
     id="path4600"
     title="sin(x/2.5)"
     d="M 0.95173426,172.94397 C 1.6654983,166.5859 2.3792613,160.22798 3.0930253,153.9501 c 0.713764,-6.27788 1.427528,-12.47511 2.141292,-18.51429 0.713763,-6.03918 1.427527,-11.91924 2.141291,-17.56724 0.713764,-5.64799 1.427527,-11.06242 2.141291,-16.17662 0.7137637,-5.114196 1.4275277,-9.926266 2.1412907,-14.377546 0.713764,-4.45128 1.427528,-8.5395 2.141292,-12.215473 0.713763,-3.67596 1.427527,-6.93711 2.141291,-9.74494 0.713764,-2.80783 1.427528,-5.15957 2.141291,-7.02837 0.713764,-1.86881 1.427528,-3.25175 2.141292,-4.13434 0.713763,-0.88259 1.427527,-1.26182 2.141291,-1.13591 0.713764,0.1259 1.427527,0.75996 2.141291,1.89119 0.713764,1.13122 1.427528,2.76256 2.141291,4.87054 0.713764,2.10799 1.427528,4.69541 2.141292,7.72693 0.713763,3.03151 1.427527,6.5097 2.141291,10.388203 0.713764,3.8785 1.427528,8.15962 2.141291,12.78718 0.713764,4.62755 1.427528,9.603516 2.141292,14.863286 0.713763,5.25977 1.427527,10.80494 2.141291,16.56412 0.713764,5.75918 1.427527,11.73354 2.141291,17.84671 0.713764,6.11318 1.427528,12.36588 2.141291,18.67869 0.713764,6.31282 1.427528,12.68598 2.141292,19.03904 0.713763,6.35307 1.427527,12.68578 2.141291,18.91868 0.713764,6.23289 1.427528,12.36525 2.141291,18.32061 0.713764,5.95536 1.427528,11.73253 2.141292,17.25998 0.713763,5.52745 1.427527,10.80356 2.141291,15.76354 0.713764,4.95997 1.427527,9.60181 2.141291,13.86908 0.713764,4.26726 1.427528,8.15762 2.141291,11.62443 0.713764,3.46681 1.427528,6.50747 2.141292,9.08629 0.713764,2.57882 1.427527,4.69299 2.141289,6.31871 0.71377,1.62571 1.42753,2.76002 2.14129,3.39159 0.71377,0.63156 1.42753,0.75737 2.14129,0.37883 0.71377,-0.37853 1.42753,-1.2644 2.1413,-2.64348 0.71376,-1.37907 1.42752,-3.25426 2.14129,-5.59905 0.71376,-2.34479 1.42752,-5.16195 2.14129,-8.41326 0.71376,-3.2513 1.42753,-6.93929 2.14129,-11.01502 0.71376,-4.07573 1.42753,-8.54143 2.14129,-13.33868 0.71376,-4.79724 1.42753,-9.9279 2.14129,-15.32553 0.71377,-5.39763 1.42753,-11.0637 2.14129,-16.92543 0.71377,-5.86173 1.42753,-11.92015 2.14129,-18.09797 0.71377,-6.17783 1.42753,-12.47563 2.1413,-18.81356 0.71376,-6.33793 1.42752,-12.71609 2.14129,-19.0541 0.71376,-6.33801 1.42753,-12.6355 2.14129,-18.81356 0.71376,-6.17806 1.42753,-12.23585 2.14129,-18.09797 0.71376,-5.86212 1.42753,-11.52727 2.14129,-16.92543 0.71377,-5.39816 1.42753,-10.527626 2.14129,-15.325526 0.71377,-4.79791 1.42753,-9.26217 2.14129,-13.33868 0.71377,-4.07651 1.42753,-7.762853 2.1413,-11.015033 0.713762,-3.25217 1.427522,-6.06752 2.141292,-8.41325 0.71376,-2.34573 1.42752,-4.21899 2.14129,-5.59905 0.71376,-1.38006 1.42753,-2.26394 2.14129,-2.64349 0.71376,-0.37954 1.42753,-0.25172 2.14129,0.37884 0.71376,0.63056 1.42753,1.76685 2.14129,3.39159 0.71377,1.62474 1.42753,3.74082 2.14129,6.31871 0.71377,2.5779 1.42753,5.62032 2.14129,9.08629 0.71377,3.465963 1.42753,7.357923 2.1413,11.624433 0.71376,4.26652 1.42752,8.90974 2.14129,13.86908 0.71376,4.959336 1.42752,10.236586 2.14129,15.763536 0.71376,5.52695 1.42753,11.30497 2.14129,17.25998 0.71376,5.955 1.42753,12.08791 2.14129,18.32061 0.71376,6.2327 1.42753,12.56565 2.14129,18.91867 0.71377,6.35303 1.42753,12.72611 2.14129,19.03905 0.71377,6.31293 1.42753,12.56523 2.14129,18.67868 0.71377,6.11346 1.42753,12.08711 2.1413,17.84672 0.71376,5.75961 1.42752,11.30378 2.14129,16.56412 0.71376,5.26034 1.42752,10.23504 2.14129,14.86329 0.71376,4.62825 1.42753,8.90788 2.14129,12.78718 0.71376,3.8793 1.42753,7.3558 2.14129,10.3882 0.71376,3.0324 1.42753,5.61799 2.14129,7.72692 0.71377,2.10894 1.42753,3.73833 2.14129,4.87055 0.71377,1.13222 1.42753,1.76427 2.14129,1.89119 0.71377,0.12692 1.42753,-0.25432 2.1413,-1.13591 0.71376,-0.88159 1.42752,-2.2665 2.14129,-4.13434 0.71376,-1.86783 1.42752,-4.22145 2.14129,-7.02837 0.71376,-2.80692 1.42753,-6.06981 2.14129,-9.74494 0.71376,-3.67514 1.42753,-7.76492 2.14129,-12.21547 0.71377,-4.45056 1.42753,-9.26395 2.14129,-14.37755 0.71377,-5.1136 1.42753,-10.52909 2.14129,-16.17662 0.71377,-5.64753 1.42753,-11.52837 2.1413,-17.56724 0.71376,-6.03886 1.42752,-12.23657 2.14129,-18.51429 0.71376,-6.27772 1.42752,-12.6358 2.14129,-18.99387"
     style="opacity:0.706;fill:none;fill-opacity:1;stroke:#0000d1;stroke-width:1.60000014;stroke-miterlimit:4;stroke-dasharray:none;stroke-dashoffset:0;stroke-opacity:1"
     inkscape:connector-curvature="0" />
  <g
     transform="translate(246.82745,-1379.5535)"
     id="layer1"
     inkscape:groupmode="layer"
     inkscape:label="Layer 1">
    <path
       inkscape:connector-curvature="0"
       style="opacity:0.706;fill:none;fill-opacity:1;stroke:#0000d1;stroke-width:1.60000014;stroke-miterlimit:4;stroke-dasharray:none;stroke-dashoffset:0;stroke-opacity:1"
       d="m -76.709375,1552.6034 c 0.716982,-15.8476 1.433948,-31.6874 2.150929,-46.2995 0.716982,-14.6121 1.433947,-27.9774 2.150929,-39.0736 0.716982,-11.0962 1.433947,-19.901 2.150929,-25.7496 0.716965,-5.8485 1.433947,-8.7187 2.150929,-8.4068 0.716965,0.3119 1.433947,3.8242 2.150929,10.2479 0.716965,6.4237 1.433947,15.7704 2.150912,27.3033 0.716982,11.533 1.433964,25.2553 2.150924,40.0975 0.716982,14.8423 1.433964,30.7986 2.150929,46.6338 0.716982,15.8352 1.433947,31.5353 2.150929,45.892 0.716982,14.3567 1.433947,27.3503 2.150929,37.9879 0.716981,10.6376 1.433947,18.8968 2.150929,24.1551 0.716965,5.2583 1.433947,7.4941 2.150928,6.5525 0.716966,-0.9416 1.433948,-5.0782 2.150929,-12.0728 0.716966,-6.9946 1.433947,-16.8579 2.150926,-28.8139 0.716965,-11.9559 1.433947,-26.0067 2.150913,-41.058 0.716981,-15.0514 1.433963,-31.0966 2.150928,-46.8943 0.716982,-15.7977 1.433964,-31.3334 2.150929,-45.4119 0.716982,-14.0786 1.433947,-26.68 2.150929,-36.8422 0.716982,-10.1622 1.433947,-17.8626 2.150929,-22.5224 0.716981,-4.6599 1.433947,-6.2576 2.150929,-4.6878 0.716965,1.5698 1.433947,6.3241 2.150928,13.8786 0.716966,7.5544 1.433948,17.9188 2.150929,30.2788 0.716966,12.3601 1.433947,26.717 2.150929,41.9536 0.716966,15.2367 1.433947,31.3455 2.150913,47.0808 0.716981,15.7353 1.433963,31.0818 2.150929,44.86 0.716981,13.7782 1.433963,25.9674 2.150928,35.6381 0.716982,9.6707 1.433948,16.8003 2.150929,20.8542 0.716982,4.054 1.433947,5.0112 2.150929,2.8157 0.716982,-2.1955 1.433947,-7.5601 2.150929,-15.6624 0.716965,-8.1023 1.433947,-18.9515 2.150929,-31.696 0.716965,-12.7446 1.433947,-27.3851 2.150928,-42.7829 0.7169661,-15.3978 1.4339477,-31.5447 2.1509132,-47.1927 0.7169817,-15.648 1.4339633,-30.7812 2.1509289,-44.2372 0.7169816,-13.456 1.4339632,-25.2138 2.1509288,-34.3778 0.7169816,-9.1639 1.4339632,-15.7113 2.1509288,-19.1529 0.71698161,-3.4417 1.43394717,-3.7568 2.1509288,-0.9391 0.7169816,2.8178 1.4339472,8.7841 2.1509288,17.4215 0.7169816,8.6373 1.4339472,19.954 2.1509288,33.063 0.7169656,13.109 1.4339472,28.0098 2.1509288,43.5445 0.7169656,15.5347 1.4339472,31.6941 2.1509289,47.23 0.7169652,15.5359 1.4339472,30.432 2.1509132,43.5445 0.716981,13.1125 1.433963,24.4203 2.150928,33.063 0.716982,8.6426 1.433964,14.5975 2.150929,17.4214 0.716982,2.824 1.433947,2.4965 2.150929,-0.939 0.716982,-3.4355 1.433947,-9.9942 2.150929,-19.153 0.716981,-9.1587 1.433947,-20.9251 2.150929,-34.3777 0.716981,-13.4527 1.433947,-28.5902 2.150928,-44.2372 0.716966,-15.647 1.433948,-31.7934 2.150929,-47.1927 0.716966,-15.3994 1.433947,-30.0346 2.150929,-42.7829 0.716966,-12.7483 1.433947,-23.5883 2.150913,-31.696 0.716981,-8.1077 1.433963,-13.4607 2.150929,-15.6624 0.716981,-2.2017 1.433963,-1.2322 2.150928,2.8156 0.716982,4.0479 1.433948,11.1885 2.150929,20.8542 0.716982,9.6657 1.433947,21.8631 2.150929,35.6381 0.716982,13.7751 1.433947,29.1255 2.150929,44.8601 0.716965,15.7345 1.433947,31.8423 2.150929,47.0807 0.716965,15.2384 1.433947,29.5897 2.150928,41.9536 0.716966,12.364 1.433948,22.7189 2.150929,30.2789 0.716966,7.56 1.433947,12.3025 2.150913,13.8786 0.716982,1.576 1.433963,-0.034 2.150929,-4.6878 0.716981,-4.6538 1.433963,-12.3651 2.150929,-22.5225 0.716981,-10.1573 1.433947,-22.7664 2.150928,-36.8421 0.716982,-14.0757 1.433948,-29.6147 2.150929,-45.4119 0.716982,-15.7972 1.433947,-31.841 2.150929,-46.8943 0.716966,-15.0533 1.433947,-29.098 2.150929,-41.0581 0.716965,-11.96 1.433947,-21.8136 2.150929,-28.8138 0.716965,-7.0003 1.433947,-11.1249 2.150912,-12.0728 0.716982,-0.9479 1.433964,1.3001 2.150929,6.5525 0.716982,5.2524 1.433964,13.5222 2.150929,24.1551 0.716982,10.6329 1.433963,23.6339 2.150929,37.9879 0.716982,14.354 1.433947,30.0571 2.150929,45.892 0.716981,15.8349 1.433947,31.7893 2.150929,46.6337 0.716981,14.8445 1.433947,28.5603 2.150928,40.0976 0.716966,11.5372 1.433948,20.8738 2.150929,27.3033 0.716966,6.4294 1.433947,9.9296 2.150929,10.2479 0.716966,0.3182 1.433947,-2.5642 2.150913,-8.4069 0.716981,-5.8426 1.433963,-14.6578 2.150929,-25.7495 0.716981,-11.0918 1.433963,-24.4639 2.150928,-39.0737 0.716982,-14.6096 1.433948,-30.4519 2.150929,-46.2994"
       title="sin(x)"
       id="path4312" />
    <path
       id="path4319"
       title="sin(x)"
       d="m 93.206044,1552.6034 c 0.716981,-15.8476 1.433947,-31.6874 2.150929,-46.2995 0.716981,-14.6121 1.433947,-27.9774 2.150928,-39.0736 0.716982,-11.0962 1.433948,-19.901 2.150929,-25.7496 0.71697,-5.8485 1.43395,-8.7187 2.15093,-8.4068 0.71696,0.3119 1.43395,3.8242 2.15093,10.2479 0.71696,6.4237 1.43395,15.7704 2.15091,27.3033 0.71698,11.533 1.43396,25.2553 2.15093,40.0975 0.71698,14.8423 1.43396,30.7986 2.15093,46.6338 0.71698,15.8352 1.43395,31.5353 2.15093,45.892 0.71698,14.3567 1.43394,27.3503 2.15093,37.9879 0.71698,10.6376 1.43394,18.8968 2.15092,24.1551 0.71697,5.2583 1.43395,7.4941 2.15093,6.5525 0.71697,-0.9416 1.43395,-5.0782 2.15093,-12.0728 0.71697,-6.9946 1.43395,-16.8579 2.15092,-28.8139 0.71696,-11.9559 1.43394,-26.0067 2.15091,-41.058 0.71698,-15.0514 1.43396,-31.0966 2.15093,-46.8943 0.71698,-15.7977 1.43396,-31.3334 2.15093,-45.4119 0.71698,-14.0786 1.43394,-26.68 2.15092,-36.8422 0.71699,-10.1622 1.43395,-17.8626 2.15093,-22.5224 0.71698,-4.6599 1.43395,-6.2576 2.15093,-4.6878 0.71697,1.5698 1.43395,6.3241 2.15093,13.8786 0.71697,7.5544 1.43395,17.9188 2.15093,30.2788 0.71697,12.3601 1.43395,26.717 2.15093,41.9536 0.71696,15.2367 1.43395,31.3455 2.15091,47.0808 0.71698,15.7353 1.43396,31.0818 2.15093,44.86 0.71698,13.7782 1.43396,25.9674 2.15093,35.6381 0.71698,9.6707 1.43395,16.8003 2.15093,20.8542 0.71698,4.054 1.43394,5.0112 2.15093,2.8157 0.71698,-2.1955 1.43394,-7.5601 2.15093,-15.6624 0.71696,-8.1023 1.43394,-18.9515 2.15092,-31.696 0.71697,-12.7446 1.43395,-27.3851 2.15093,-42.7829 0.71697,-15.3978 1.43395,-31.5447 2.15092,-47.1927 0.71698,-15.648 1.43396,-30.7812 2.15092,-44.2372 0.71699,-13.456 1.43397,-25.2138 2.15093,-34.3778 0.71698,-9.1639 1.43397,-15.7113 2.15093,-19.1529 0.71698,-3.4417 1.43395,-3.7568 2.15093,-0.9391 0.71698,2.8178 1.43395,8.7841 2.15093,17.4215 0.71698,8.6373 1.43395,19.954 2.15093,33.063 0.71696,13.109 1.43395,28.0098 2.15093,43.5445 0.71696,15.5347 1.43394,31.6941 2.15093,47.23 0.71696,15.5359 1.43394,30.432 2.15091,43.5445 0.71698,13.1125 1.43396,24.4203 2.15093,33.063 0.71698,8.6426 1.43396,14.5975 2.15093,17.4214 0.71698,2.824 1.43394,2.4965 2.15093,-0.939 0.71698,-3.4355 1.43394,-9.9942 2.15092,-19.153 0.71699,-9.1587 1.43395,-20.9251 2.15093,-34.3777 0.71698,-13.4527 1.43395,-28.5902 2.15093,-44.2372 0.71697,-15.647 1.43395,-31.7934 2.15093,-47.1927 0.71697,-15.3994 1.43395,-30.0346 2.15093,-42.7829 0.71696,-12.7483 1.43395,-23.5883 2.15091,-31.696 0.71698,-8.1077 1.43397,-13.4607 2.15093,-15.6624 0.71698,-2.2017 1.43396,-1.2322 2.15093,2.8156 0.71698,4.0479 1.43395,11.1885 2.15093,20.8542 0.71698,9.6657 1.43395,21.8631 2.15093,35.6381 0.71698,13.7751 1.43394,29.1255 2.15093,44.8601 0.71696,15.7345 1.43394,31.8423 2.15093,47.0807 0.71696,15.2384 1.43394,29.5897 2.15092,41.9536 0.71697,12.364 1.43395,22.7189 2.15093,30.2789 0.71697,7.56 1.43395,12.3025 2.15092,13.8786 0.71698,1.576 1.43396,-0.034 2.15092,-4.6878 0.71699,-4.6538 1.43397,-12.3651 2.15093,-22.5225 0.71698,-10.1573 1.43395,-22.7664 2.15093,-36.8421 0.71698,-14.0757 1.43395,-29.6147 2.15093,-45.4119 0.71698,-15.7972 1.43395,-31.841 2.15093,-46.8943 0.71697,-15.0533 1.43395,-29.098 2.15093,-41.0581 0.71696,-11.96 1.43395,-21.8136 2.15093,-28.8138 0.71696,-7.0003 1.43394,-11.1249 2.15091,-12.0728 0.71698,-0.9479 1.43396,1.3001 2.15093,6.5525 0.71698,5.2524 1.43396,13.5222 2.15093,24.1551 0.71698,10.6329 1.43396,23.6339 2.15093,37.9879 0.71698,14.354 1.43394,30.0571 2.15093,45.892 0.71698,15.8349 1.43394,31.7893 2.15092,46.6337 0.71699,14.8445 1.43395,28.5603 2.15093,40.0976 0.71697,11.5372 1.43395,20.8738 2.15093,27.3033 0.71697,6.4294 1.43395,9.9296 2.15093,10.2479 0.71697,0.3182 1.43395,-2.5642 2.15091,-8.4069 0.71698,-5.8426 1.43397,-14.6578 2.15093,-25.7495 0.71698,-11.0918 1.43397,-24.4639 2.15093,-39.0737 0.71698,-14.6096 1.43395,-30.4519 2.15093,-46.2994"
       style="opacity:0.706;fill:none;fill-opacity:1;stroke:#0000d1;stroke-width:1.60000014;stroke-miterlimit:4;stroke-dasharray:none;stroke-dashoffset:0;stroke-opacity:1"
       inkscape:connector-curvature="0" />
    <path
       inkscape:connector-curvature="0"
       style="opacity:0.706;fill:none;fill-opacity:1;stroke:#0000d1;stroke-width:1.60000014;stroke-miterlimit:4;stroke-dasharray:none;stroke-dashoffset:0;stroke-opacity:1"
       d="m 433.05249,1552.6034 c 0.71698,-15.8476 1.43395,-31.6874 2.15093,-46.2995 0.71698,-14.6121 1.43395,-27.9774 2.15093,-39.0736 0.71698,-11.0962 1.43395,-19.901 2.15093,-25.7496 0.71696,-5.8485 1.43394,-8.7187 2.15093,-8.4068 0.71696,0.3119 1.43394,3.8242 2.15093,10.2479 0.71696,6.4237 1.43394,15.7704 2.15091,27.3033 0.71698,11.533 1.43396,25.2553 2.15093,40.0975 0.71698,14.8423 1.43396,30.7986 2.15093,46.6338 0.71698,15.8352 1.43394,31.5353 2.15092,45.892 0.71699,14.3567 1.43395,27.3503 2.15093,37.9879 0.71698,10.6376 1.43395,18.8968 2.15093,24.1551 0.71697,5.2583 1.43395,7.4941 2.15093,6.5525 0.71697,-0.9416 1.43395,-5.0782 2.15093,-12.0728 0.71697,-6.9946 1.43395,-16.8579 2.15091,-28.8139 0.71697,-11.9559 1.43395,-26.0067 2.15092,-41.058 0.71698,-15.0514 1.43396,-31.0966 2.15092,-46.8943 0.71699,-15.7977 1.43397,-31.3334 2.15093,-45.4119 0.71698,-14.0786 1.43395,-26.68 2.15093,-36.8422 0.71698,-10.1622 1.43395,-17.8626 2.15093,-22.5224 0.71698,-4.6599 1.43395,-6.2576 2.15093,-4.6878 0.71696,1.5698 1.43395,6.3241 2.15093,13.8786 0.71696,7.5544 1.43395,17.9188 2.15093,30.2788 0.71696,12.3601 1.43394,26.717 2.15093,41.9536 0.71696,15.2367 1.43394,31.3455 2.15091,47.0808 0.71698,15.7353 1.43396,31.0818 2.15093,44.86 0.71698,13.7782 1.43396,25.9674 2.15093,35.6381 0.71698,9.6707 1.43394,16.8003 2.15093,20.8542 0.71698,4.054 1.43394,5.0112 2.15092,2.8157 0.71699,-2.1955 1.43395,-7.5601 2.15093,-15.6624 0.71697,-8.1023 1.43395,-18.9515 2.15093,-31.696 0.71697,-12.7446 1.43395,-27.3851 2.15093,-42.7829 0.71697,-15.3978 1.43395,-31.5447 2.15091,-47.1927 0.71698,-15.648 1.43397,-30.7812 2.15093,-44.2372 0.71698,-13.456 1.43397,-25.2138 2.15093,-34.3778 0.71698,-9.1639 1.43396,-15.7113 2.15093,-19.1529 0.71698,-3.4417 1.43395,-3.7568 2.15093,-0.9391 0.71698,2.8178 1.43395,8.7841 2.15093,17.4215 0.71698,8.6373 1.43394,19.954 2.15093,33.063 0.71696,13.109 1.43394,28.0098 2.15092,43.5445 0.71697,15.5347 1.43395,31.6941 2.15093,47.23 0.71697,15.5359 1.43395,30.432 2.15092,43.5445 0.71698,13.1125 1.43396,24.4203 2.15093,33.063 0.71698,8.6426 1.43396,14.5975 2.15092,17.4214 0.71699,2.824 1.43395,2.4965 2.15093,-0.939 0.71698,-3.4355 1.43395,-9.9942 2.15093,-19.153 0.71698,-9.1587 1.43395,-20.9251 2.15093,-34.3777 0.71698,-13.4527 1.43395,-28.5902 2.15093,-44.2372 0.71696,-15.647 1.43395,-31.7934 2.15093,-47.1927 0.71696,-15.3994 1.43395,-30.0346 2.15093,-42.7829 0.71696,-12.7483 1.43394,-23.5883 2.15091,-31.696 0.71698,-8.1077 1.43396,-13.4607 2.15093,-15.6624 0.71698,-2.2017 1.43396,-1.2322 2.15093,2.8156 0.71698,4.0479 1.43394,11.1885 2.15093,20.8542 0.71698,9.6657 1.43394,21.8631 2.15092,35.6381 0.71699,13.7751 1.43395,29.1255 2.15093,44.8601 0.71697,15.7345 1.43395,31.8423 2.15093,47.0807 0.71697,15.2384 1.43395,29.5897 2.15093,41.9536 0.71697,12.364 1.43395,22.7189 2.15093,30.2789 0.71697,7.56 1.43395,12.3025 2.15091,13.8786 0.71698,1.576 1.43397,-0.034 2.15093,-4.6878 0.71698,-4.6538 1.43396,-12.3651 2.15093,-22.5225 0.71698,-10.1573 1.43395,-22.7664 2.15093,-36.8421 0.71698,-14.0757 1.43395,-29.6147 2.15093,-45.4119 0.71698,-15.7972 1.43395,-31.841 2.15093,-46.8943 0.71696,-15.0533 1.43394,-29.098 2.15093,-41.0581 0.71696,-11.96 1.43394,-21.8136 2.15092,-28.8138 0.71697,-7.0003 1.43395,-11.1249 2.15092,-12.0728 0.71698,-0.9479 1.43396,1.3001 2.15093,6.5525 0.71698,5.2524 1.43396,13.5222 2.15092,24.1551 0.71699,10.6329 1.43397,23.6339 2.15093,37.9879 0.71699,14.354 1.43395,30.0571 2.15093,45.892 0.71698,15.8349 1.43395,31.7893 2.15093,46.6337 0.71698,14.8445 1.43395,28.5603 2.15093,40.0976 0.71697,11.5372 1.43395,20.8738 2.15093,27.3033 0.71696,6.4294 1.43395,9.9296 2.15093,10.2479 0.71696,0.3182 1.43394,-2.5642 2.15091,-8.4069 0.71698,-5.8426 1.43396,-14.6578 2.15093,-25.7495 0.71698,-11.0918 1.43396,-24.4639 2.15093,-39.0737 0.71698,-14.6096 1.43395,-30.4519 2.15093,-46.2994"
       title="sin(x)"
       id="path4323" />
    <path
       sodipodi:nodetypes="cc"
       inkscape:connector-curvature="0"
       id="path4327"
       d="m -245.87985,1407.9688 0,293.757"
       style="fill:none;fill-rule:evenodd;stroke:#000000;stroke-width:1.60000016;stroke-linecap:butt;stroke-linejoin:miter;stroke-miterlimit:4;stroke-dasharray:12.80000133,12.80000133;stroke-dashoffset:0;stroke-opacity:1" />
    <path
       style="fill:none;fill-rule:evenodd;stroke:#000000;stroke-width:1.60000016;stroke-linecap:butt;stroke-linejoin:miter;stroke-miterlimit:4;stroke-dasharray:12.80000133,12.80000133;stroke-dashoffset:0;stroke-opacity:1"
       d="m -76.709093,1407.9688 0,293.757"
       id="path4329"
       inkscape:connector-curvature="0"
       sodipodi:nodetypes="cc" />
    <path
       sodipodi:nodetypes="cc"
       inkscape:connector-curvature="0"
       id="path4331"
       d="m 92.911867,1407.9688 0,293.757"
       style="fill:none;fill-rule:evenodd;stroke:#000000;stroke-width:1.60000016;stroke-linecap:butt;stroke-linejoin:miter;stroke-miterlimit:4;stroke-dasharray:12.80000133,12.80000133;stroke-dashoffset:0;stroke-opacity:1" />
    <path
       style="fill:none;fill-rule:evenodd;stroke:#000000;stroke-width:1.60000016;stroke-linecap:butt;stroke-linejoin:miter;stroke-miterlimit:4;stroke-dasharray:12.80000133,12.80000133;stroke-dashoffset:0;stroke-opacity:1"
       d="m 264.42804,1407.9688 0,293.757"
       id="path4333"
       inkscape:connector-curvature="0"
       sodipodi:nodetypes="cc" />
    <path
       sodipodi:nodetypes="cc"
       inkscape:connector-curvature="0"
       id="path4335"
       d="m 434.99661,1407.9688 0,293.757"
       style="fill:none;fill-rule:evenodd;stroke:#000000;stroke-width:1.60000016;stroke-linecap:butt;stroke-linejoin:miter;stroke-miterlimit:4;stroke-dasharray:12.80000133,12.80000133;stroke-dashoffset:0;stroke-opacity:1" />
    <path
       style="fill:none;fill-rule:evenodd;stroke:#000000;stroke-width:1.60000016;stroke-linecap:butt;stroke-linejoin:miter;stroke-miterlimit:4;stroke-dasharray:12.80000133,12.80000133;stroke-dashoffset:0;stroke-opacity:1"
       d="m 601.77476,1407.9688 0,293.757"
       id="path4337"
       inkscape:connector-curvature="0"
       sodipodi:nodetypes="cc" />
    <text
       sodipodi:linespacing="125%"
       id="text4339"
       y="1400.3881"
       x="-169.12399"
       style="font-style:normal;font-variant:normal;font-weight:normal;font-stretch:normal;font-size:2.40905046px;line-height:125%;font-family:'Latin Modern Roman';-inkscape-font-specification:'Latin Modern Roman, Normal';text-align:start;letter-spacing:0px;word-spacing:0px;writing-mode:lr-tb;text-anchor:start;fill:#000000;fill-opacity:1;stroke:none;stroke-width:1px;stroke-linecap:butt;stroke-linejoin:miter;stroke-opacity:1"
       xml:space="preserve"><tspan
         style="font-style:normal;font-variant:normal;font-weight:normal;font-stretch:normal;font-size:28.90860748px;font-family:Roboto;-inkscape-font-specification:Roboto"
         y="1400.3881"
         x="-169.12399"
         id="tspan4341"
         sodipodi:role="line">0</tspan></text>
    <text
       xml:space="preserve"
       style="font-style:normal;font-variant:normal;font-weight:normal;font-stretch:normal;font-size:2.40905046px;line-height:125%;font-family:'Latin Modern Roman';-inkscape-font-specification:'Latin Modern Roman, Normal';text-align:start;letter-spacing:0px;word-spacing:0px;writing-mode:lr-tb;text-anchor:start;fill:#000000;fill-opacity:1;stroke:none;stroke-width:1px;stroke-linecap:butt;stroke-linejoin:miter;stroke-opacity:1"
       x="6.1825833"
       y="1400.3881"
       id="text4343"
       sodipodi:linespacing="125%"><tspan
         sodipodi:role="line"
         id="tspan4345"
         x="6.1825833"
         y="1400.3881"
         style="font-style:normal;font-variant:normal;font-weight:normal;font-stretch:normal;font-size:28.90860748px;font-family:Roboto;-inkscape-font-specification:Roboto">1</tspan></text>
    <text
       sodipodi:linespacing="125%"
       id="text4347"
       y="1400.3881"
       x="174.85596"
       style="font-style:normal;font-variant:normal;font-weight:normal;font-stretch:normal;font-size:2.40905046px;line-height:125%;font-family:'Latin Modern Roman';-inkscape-font-specification:'Latin Modern Roman, Normal';text-align:start;letter-spacing:0px;word-spacing:0px;writing-mode:lr-tb;text-anchor:start;fill:#000000;fill-opacity:1;stroke:none;stroke-width:1px;stroke-linecap:butt;stroke-linejoin:miter;stroke-opacity:1"
       xml:space="preserve"><tspan
         style="font-style:normal;font-variant:normal;font-weight:normal;font-stretch:normal;font-size:28.90860748px;font-family:Roboto;-inkscape-font-specification:Roboto"
         y="1400.3881"
         x="174.85596"
         id="tspan4349"
         sodipodi:role="line">1</tspan></text>
    <text
       xml:space="preserve"
       style="font-style:normal;font-variant:normal;font-weight:normal;font-stretch:normal;font-size:2.40905046px;line-height:125%;font-family:'Latin Modern Roman';-inkscape-font-specification:'Latin Modern Roman, Normal';text-align:start;letter-spacing:0px;word-spacing:0px;writing-mode:lr-tb;text-anchor:start;fill:#000000;fill-opacity:1;stroke:none;stroke-width:1px;stroke-linecap:butt;stroke-linejoin:miter;stroke-opacity:1"
       x="342.58173"
       y="1400.3881"
       id="text4351"
       sodipodi:linespacing="125%"><tspan
         sodipodi:role="line"
         id="tspan4353"
         x="342.58173"
         y="1400.3881"
         style="font-style:normal;font-variant:normal;font-weight:normal;font-stretch:normal;font-size:28.90860748px;font-family:Roboto;-inkscape-font-specification:Roboto">0</tspan></text>
    <text
       sodipodi:linespacing="125%"
       id="text4355"
       y="1400.3881"
       x="516.94067"
       style="font-style:normal;font-variant:normal;font-weight:normal;font-stretch:normal;font-size:2.40905046px;line-height:125%;font-family:'Latin Modern Roman';-inkscape-font-specification:'Latin Modern Roman, Normal';text-align:start;letter-spacing:0px;word-spacing:0px;writing-mode:lr-tb;text-anchor:start;fill:#000000;fill-opacity:1;stroke:none;stroke-width:1px;stroke-linecap:butt;stroke-linejoin:miter;stroke-opacity:1"
       xml:space="preserve"><tspan
         style="font-style:normal;font-variant:normal;font-weight:normal;font-stretch:normal;font-size:28.90860748px;font-family:Roboto;-inkscape-font-specification:Roboto"
         y="1400.3881"
         x="516.94067"
         id="tspan4357"
         sodipodi:role="line">1</tspan></text>
    <path
       inkscape:connector-curvature="0"
       id="path4382"
       d="m -251.36445,1554.5228 861.07495,0"
       style="fill:none;fill-rule:evenodd;stroke:#000000;stroke-width:1.60000014;stroke-linecap:butt;stroke-linejoin:miter;stroke-miterlimit:4;stroke-dasharray:none;stroke-opacity:1" />
  </g>
  <path
     inkscape:connector-curvature="0"
     style="opacity:0.706;fill:none;fill-opacity:1;stroke:#0000d1;stroke-width:1.60000014;stroke-miterlimit:4;stroke-dasharray:none;stroke-dashoffset:0;stroke-opacity:1"
     d="m 509.97653,173.10712 c 0.71377,-6.35807 1.42753,-12.71599 2.14129,-18.99387 0.71377,-6.27788 1.42753,-12.47511 2.1413,-18.51429 0.71376,-6.03918 1.42752,-11.91924 2.14129,-17.56724 0.71376,-5.64799 1.42752,-11.06242 2.14129,-16.17662 0.71376,-5.114197 1.42753,-9.926267 2.14129,-14.377547 0.71376,-4.45128 1.42753,-8.5395 2.14129,-12.215473 0.71376,-3.67596 1.42753,-6.93711 2.14129,-9.74494 0.71377,-2.80783 1.42753,-5.15957 2.14129,-7.02837 0.71377,-1.86881 1.42753,-3.25175 2.14129,-4.13434 0.71377,-0.88259 1.42753,-1.26182 2.1413,-1.13591 0.71376,0.1259 1.42752,0.75996 2.14129,1.89119 0.71376,1.13122 1.42752,2.76256 2.14129,4.87054 0.71376,2.10799 1.42753,4.69541 2.14129,7.72693 0.71376,3.03151 1.42753,6.5097 2.14129,10.388203 0.71376,3.8785 1.42753,8.15962 2.14129,12.78718 0.71377,4.62755 1.42753,9.603517 2.14129,14.863287 0.71377,5.25977 1.42753,10.80494 2.14129,16.56412 0.71377,5.75918 1.42753,11.73354 2.1413,17.84671 0.71376,6.11318 1.42752,12.36588 2.14129,18.67869 0.71376,6.31282 1.42752,12.68598 2.14129,19.03904 0.71376,6.35307 1.42753,12.68578 2.14129,18.91868 0.71376,6.23289 1.42753,12.36525 2.14129,18.32061 0.71376,5.95536 1.42753,11.73253 2.14129,17.25998 0.71377,5.52745 1.42753,10.80356 2.14129,15.76354 0.71377,4.95997 1.42753,9.60181 2.14129,13.86908 0.71377,4.26726 1.42753,8.15762 2.1413,11.62443 0.71376,3.46681 1.42752,6.50747 2.14129,9.08629 0.71376,2.57882 1.42752,4.69299 2.14129,6.31871 0.71377,1.62571 1.42753,2.76002 2.14129,3.39159 0.71377,0.63156 1.42753,0.75737 2.14129,0.37883 0.71377,-0.37853 1.42753,-1.2644 2.1413,-2.64348 0.71376,-1.37907 1.42752,-3.25426 2.14129,-5.59905 0.71376,-2.34479 1.42752,-5.16195 2.14129,-8.41326 0.71376,-3.2513 1.42753,-6.93929 2.14129,-11.01502 0.71376,-4.07573 1.42753,-8.54143 2.14129,-13.33868 0.71376,-4.79724 1.42753,-9.9279 2.14129,-15.32553 0.71377,-5.39763 1.42753,-11.0637 2.14129,-16.92543 0.71377,-5.86173 1.42753,-11.92015 2.14129,-18.09797 0.71377,-6.17783 1.42753,-12.47563 2.1413,-18.81356 0.71376,-6.33793 1.42752,-12.71609 2.14129,-19.0541 0.71376,-6.33801 1.42753,-12.6355 2.14129,-18.81356 0.71376,-6.17806 1.42753,-12.23585 2.14129,-18.09797 0.71376,-5.86212 1.42753,-11.52727 2.14129,-16.92543 0.71377,-5.39816 1.42753,-10.527627 2.14129,-15.325527 0.71377,-4.79791 1.42753,-9.26217 2.14129,-13.33868 0.71377,-4.07651 1.42753,-7.762853 2.1413,-11.015033 0.71376,-3.25217 1.42752,-6.06752 2.14129,-8.41325 0.71376,-2.34573 1.42752,-4.21899 2.14129,-5.59905 0.71376,-1.38006 1.42753,-2.26394 2.14129,-2.64349 0.71376,-0.37954 1.42753,-0.25172 2.14129,0.37884 0.71376,0.63056 1.42753,1.76685 2.14129,3.39159 0.71377,1.62474 1.42753,3.74082 2.14129,6.31871 0.71377,2.5779 1.42753,5.62032 2.14129,9.08629 0.71377,3.465963 1.42753,7.357923 2.1413,11.624433 0.71376,4.26652 1.42752,8.90974 2.14129,13.86908 0.71376,4.959337 1.42752,10.236587 2.14129,15.763537 0.71376,5.52695 1.42753,11.30497 2.14129,17.25998 0.71376,5.955 1.42753,12.08791 2.14129,18.32061 0.71376,6.2327 1.42753,12.56565 2.14129,18.91867 0.71377,6.35303 1.42753,12.72611 2.14129,19.03905 0.71377,6.31293 1.42753,12.56523 2.14129,18.67868 0.71377,6.11346 1.42753,12.08711 2.1413,17.84672 0.71376,5.75961 1.42752,11.30378 2.14129,16.56412 0.71376,5.26034 1.42752,10.23504 2.14129,14.86329 0.71376,4.62825 1.42753,8.90788 2.14129,12.78718 0.71376,3.8793 1.42753,7.3558 2.14129,10.3882 0.71376,3.0324 1.42753,5.61799 2.14129,7.72692 0.71377,2.10894 1.42753,3.73833 2.14129,4.87055 0.71377,1.13222 1.42753,1.76427 2.14129,1.89119 0.71377,0.12692 1.42753,-0.25432 2.1413,-1.13591 0.71376,-0.88159 1.42752,-2.2665 2.14129,-4.13434 0.71376,-1.86783 1.42752,-4.22145 2.14129,-7.02837 0.71376,-2.80692 1.42753,-6.06981 2.14129,-9.74494 0.71376,-3.67514 1.42753,-7.76492 2.14129,-12.21547 0.71377,-4.45056 1.42753,-9.26395 2.14129,-14.37755 0.71377,-5.1136 1.42753,-10.52909 2.14129,-16.17662 0.71377,-5.64753 1.42753,-11.52837 2.1413,-17.56724 0.71376,-6.03886 1.42752,-12.23657 2.14129,-18.51429 0.71376,-6.27772 1.42752,-12.6358 2.14129,-18.99387"
     title="sin(x/2.5)"
     id="path4628" />
</svg>
