<?xml version="1.0" encoding="UTF-8" standalone="no"?>
<!-- Created with Inkscape (http://www.inkscape.org/) -->

<svg
   xmlns:dc="http://purl.org/dc/elements/1.1/"
   xmlns:cc="http://creativecommons.org/ns#"
   xmlns:rdf="http://www.w3.org/1999/02/22-rdf-syntax-ns#"
   xmlns:svg="http://www.w3.org/2000/svg"
   xmlns="http://www.w3.org/2000/svg"
   xmlns:sodipodi="http://sodipodi.sourceforge.net/DTD/sodipodi-0.dtd"
   xmlns:inkscape="http://www.inkscape.org/namespaces/inkscape"
   width="169.33334mm"
   height="25.006649mm"
   viewBox="0 0 600.00008 88.606236"
   id="svg2"
   version="1.1"
   inkscape:version="0.91 r13725"
   sodipodi:docname="AnimacaoPropagacaoVsTransmissao.svg">
  <defs
     id="defs4" />
  <sodipodi:namedview
     id="base"
     pagecolor="#ffffff"
     bordercolor="#666666"
     borderopacity="1.0"
     inkscape:pageopacity="0.0"
     inkscape:pageshadow="2"
     inkscape:zoom="1.979899"
     inkscape:cx="237.14201"
     inkscape:cy="66.266418"
     inkscape:document-units="px"
     inkscape:current-layer="layer1"
     showgrid="false"
     inkscape:window-width="1360"
     inkscape:window-height="719"
     inkscape:window-x="0"
     inkscape:window-y="25"
     inkscape:window-maximized="1"
     fit-margin-top="0"
     fit-margin-left="0"
     fit-margin-right="0"
     fit-margin-bottom="0" />
  <metadata
     id="metadata7">
    <rdf:RDF>
      <cc:Work
         rdf:about="">
        <dc:format>image/svg+xml</dc:format>
        <dc:type
           rdf:resource="http://purl.org/dc/dcmitype/StillImage" />
        <dc:title></dc:title>
      </cc:Work>
    </rdf:RDF>
  </metadata>
  <g
     inkscape:label="Layer 1"
     inkscape:groupmode="layer"
     id="layer1"
     transform="translate(-126.96481,-69.938182)">
    <g
       id="g4275"
       transform="matrix(1.6493927,0,0,1.6493927,-82.450016,-102.95758)">
      <rect
         id="link"
         y="121.71446"
         x="198.18056"
         height="18.687822"
         width="219.70818"
         id="rect4233"
         style="opacity:0.93999999;fill:#cccccc;fill-opacity:1;stroke:#000000;stroke-width:0.50000006;stroke-miterlimit:4;stroke-dasharray:none;stroke-opacity:1" />
      <g
         transform="translate(-204.05081,31.819805)"
         id="g4164">
        <g
           id="g3344"
           style="fill:#008000">
          <path
             inkscape:connector-curvature="0"
             id="ellipse3338"
             d="m 372.04688,90.869141 a 40.406101,17.67767 0 0 0 -11.41211,0.730468 l -29.11915,0 0,16.289061 0.20118,0 a 40.406101,17.67767 0 0 0 -0.0762,0.65821 40.406101,17.67767 0 0 0 40.40626,17.67773 40.406101,17.67767 0 0 0 40.40624,-17.67773 40.406101,17.67767 0 0 0 -0.0527,-0.65821 l 0.0527,0 0,-16.289061 -28.98828,0 a 40.406101,17.67767 0 0 0 -11.41796,-0.730468 z"
             style="fill:#008000;fill-opacity:1;stroke:#000000;stroke-opacity:1" />
          <ellipse
             ry="17.67767"
             rx="40.406101"
             cy="91.181755"
             cx="372.04724"
             id="path3336"
             style="fill:#008000;fill-opacity:1;stroke:#000000;stroke-opacity:1" />
        </g>
        <path
           style="fill:#005700;fill-opacity:1;stroke:#000000;stroke-width:0.31442434;stroke-opacity:1"
           d="m 371.74713,77.134779 -4.74126,3.789206 2.69624,0 0,6.642913 4.3023,0 0,-6.642913 2.48467,0 -4.74195,-3.789206 z"
           id="rect3348"
           inkscape:connector-curvature="0" />
        <path
           inkscape:connector-curvature="0"
           id="path4158"
           d="m 372.10427,104.65577 -4.71538,-4.56358 2.68152,0 0,-8.000484 4.27882,0 0,8.000484 2.47111,0 -4.71607,4.56358 z"
           style="fill:#005700;fill-opacity:1;stroke:#000000;stroke-width:0.34411734;stroke-opacity:1" />
        <path
           style="fill:#005700;fill-opacity:1;stroke:#000000;stroke-width:0.39098823;stroke-opacity:1"
           d="m 337.42282,89.576965 8.80769,-3.154094 0,1.793655 15.44089,0 0,2.862083 -15.44089,0 0,1.652913 -8.80769,-3.154557 z"
           id="path4160"
           inkscape:connector-curvature="0" />
        <path
           inkscape:connector-curvature="0"
           id="path4162"
           d="m 405.57279,89.576965 -8.80769,-3.154094 0,1.793655 -15.44089,0 0,2.862083 15.44089,0 0,1.652913 8.80769,-3.154557 z"
           style="fill:#005700;fill-opacity:1;stroke:#000000;stroke-width:0.39098823;stroke-opacity:1" />
      </g>
      <g
         id="g4173"
         transform="translate(77.78175,31.819805)">
        <g
           style="fill:#008000"
           id="g4175">
          <path
             style="fill:#008000;fill-opacity:1;stroke:#000000;stroke-opacity:1"
             d="m 372.04688,90.869141 a 40.406101,17.67767 0 0 0 -11.41211,0.730468 l -29.11915,0 0,16.289061 0.20118,0 a 40.406101,17.67767 0 0 0 -0.0762,0.65821 40.406101,17.67767 0 0 0 40.40626,17.67773 40.406101,17.67767 0 0 0 40.40624,-17.67773 40.406101,17.67767 0 0 0 -0.0527,-0.65821 l 0.0527,0 0,-16.289061 -28.98828,0 a 40.406101,17.67767 0 0 0 -11.41796,-0.730468 z"
             id="path4177"
             inkscape:connector-curvature="0" />
          <ellipse
             style="fill:#008000;fill-opacity:1;stroke:#000000;stroke-opacity:1"
             id="ellipse4179"
             cx="372.04724"
             cy="91.181755"
             rx="40.406101"
             ry="17.67767" />
        </g>
        <path
           inkscape:connector-curvature="0"
           id="path4181"
           d="m 371.74713,77.134779 -4.74126,3.789206 2.69624,0 0,6.642913 4.3023,0 0,-6.642913 2.48467,0 -4.74195,-3.789206 z"
           style="fill:#005700;fill-opacity:1;stroke:#000000;stroke-width:0.31442434;stroke-opacity:1" />
        <path
           style="fill:#005700;fill-opacity:1;stroke:#000000;stroke-width:0.34411734;stroke-opacity:1"
           d="m 372.10427,104.65577 -4.71538,-4.56358 2.68152,0 0,-8.000484 4.27882,0 0,8.000484 2.47111,0 -4.71607,4.56358 z"
           id="path4183"
           inkscape:connector-curvature="0" />
        <path
           inkscape:connector-curvature="0"
           id="path4185"
           d="m 337.42282,89.576965 8.80769,-3.154094 0,1.793655 15.44089,0 0,2.862083 -15.44089,0 0,1.652913 -8.80769,-3.154557 z"
           style="fill:#005700;fill-opacity:1;stroke:#000000;stroke-width:0.39098823;stroke-opacity:1" />
        <path
           style="fill:#005700;fill-opacity:1;stroke:#000000;stroke-width:0.39098823;stroke-opacity:1"
           d="m 405.57279,89.576965 -8.80769,-3.154094 0,1.793655 -15.44089,0 0,2.862083 15.44089,0 0,1.652913 8.80769,-3.154557 z"
           id="path4187"
           inkscape:connector-curvature="0" />
      </g>
    </g>
  </g>
</svg>
