<?xml version="1.0" encoding="UTF-8" standalone="no"?>
<!-- Created with Inkscape (http://www.inkscape.org/) -->

<svg
   xmlns:dc="http://purl.org/dc/elements/1.1/"
   xmlns:cc="http://creativecommons.org/ns#"
   xmlns:rdf="http://www.w3.org/1999/02/22-rdf-syntax-ns#"
   xmlns:svg="http://www.w3.org/2000/svg"
   xmlns="http://www.w3.org/2000/svg"
   xmlns:sodipodi="http://sodipodi.sourceforge.net/DTD/sodipodi-0.dtd"
   xmlns:inkscape="http://www.inkscape.org/namespaces/inkscape"
   width="29.430336mm"
   height="27.962667mm"
   viewBox="0 0 104.28072 99.080317"
   id="svg14671"
   version="1.1"
   inkscape:version="0.91 r13725"
   sodipodi:docname="icLogo.svg">
  <defs
     id="defs14673" />
  <sodipodi:namedview
     id="base"
     pagecolor="#ffffff"
     bordercolor="#666666"
     borderopacity="1.0"
     inkscape:pageopacity="0.0"
     inkscape:pageshadow="2"
     inkscape:zoom="0.35"
     inkscape:cx="-457.14535"
     inkscape:cy="-41.888415"
     inkscape:document-units="px"
     inkscape:current-layer="layer1"
     showgrid="false"
     fit-margin-top="0"
     fit-margin-left="0"
     fit-margin-right="0"
     fit-margin-bottom="0"
     inkscape:window-width="1920"
     inkscape:window-height="1031"
     inkscape:window-x="0"
     inkscape:window-y="25"
     inkscape:window-maximized="1" />
  <metadata
     id="metadata14676">
    <rdf:RDF>
      <cc:Work
         rdf:about="">
        <dc:format>image/svg+xml</dc:format>
        <dc:type
           rdf:resource="http://purl.org/dc/dcmitype/StillImage" />
        <dc:title></dc:title>
      </cc:Work>
    </rdf:RDF>
  </metadata>
  <g
     inkscape:label="Layer 1"
     inkscape:groupmode="layer"
     id="layer1"
     transform="translate(-362.14535,-391.39347)">
    <path
       inkscape:connector-curvature="0"
       id="path7246"
       style="display:inline;fill:#ffffff;fill-opacity:1;fill-rule:evenodd;stroke:none"
       d="m 466.42603,474.72699 0,15.74652 c -11.31422,-2.88815 -22.78863,-4.86439 -34.18276,-5.77157 l 0.0799,-0.0826 0.24991,-0.08 0.24617,-0.0874 0.24991,-0.0826 0.16491,-0.0786 0.0826,-0.0826 0.0826,-0.084 0.24585,-0.0809 0.0836,-0.085 0.16763,-0.0799 0.0803,-0.08 0.0836,-0.0887 0.16593,-0.0813 0.0813,-0.0803 0.083,-0.0813 0.0823,-0.085 0.0836,-0.16457 0.16356,-0.0813 0.0813,-0.084 0.0836,-0.0813 0.083,-0.16355 0.16593,-0.085 0.0826,-0.16288 0.0823,-0.0836 0.08,-0.16491 0.084,-0.0823 0.0836,-0.16289 0.084,-0.0823 0.0799,-0.0826 0.0836,-0.40974 0.0823,-0.085 0.0826,-0.1649 0.0816,-0.2489 0.0836,-0.0826 0.16491,-0.4111 0.0847,-0.33084 0.0813,-0.33015 0.0803,-0.49271 0,-4.61786 1.81707,0 0,9.97494 4.12923,0 0,-9.97494 7.84363,0 0,9.97494 4.12685,0 0,-9.97494 11.97421,0 z M 362.14535,391.39347 c 9.49478,3.21358 18.4955,5.68827 26.99911,7.50162 -30.21979,34.28942 -7.26525,66.1905 31.53943,82.6759 -56.5579,-61.90348 2.06223,-61.49474 45.74214,-90.17752 l 0,79.29539 -11.97421,0 0.0826,-4.36965 0.086,-0.24483 0.0813,-0.32881 0.0799,-0.085 0.085,-0.0813 0.0813,-0.0826 0.0813,-0.16492 0.0826,-0.0836 0.16728,-0.0823 0.16728,-0.0803 0.08,-0.0863 0.24652,-0.0823 0.24991,-0.0803 0.82354,0 0.24753,0.0803 0.16526,0.0823 0.0823,0.0863 0.16727,0.0803 0.16491,0.0823 0.0823,0.0836 0.083,0.0826 0.0813,0.16491 0.0836,0.0813 0.0823,0.16356 0.0826,0.25024 0.0813,0.16593 0.0826,2.5546 4.0466,0 0,-3.29822 -0.0836,-0.33084 -0.0803,-0.2489 -0.0813,-0.16389 -0.0887,-0.16593 -0.0799,-0.32779 -0.0823,-0.16356 -0.0799,-0.16491 -0.0864,-0.085 -0.0803,-0.0803 -0.0823,-0.2472 -0.0836,-0.0826 -0.0826,-0.16491 -0.0809,-0.0826 -0.0813,-0.0836 -0.0863,-0.1649 -0.0803,-0.0826 -0.0836,-0.0823 -0.0836,-0.0789 -0.16356,0 0,-0.16492 -0.0813,-0.084 -0.086,-0.16593 -0.16289,-0.0826 -0.16863,0 0,-0.16356 -0.16118,-0.0803 -0.085,-0.086 -0.0826,-0.0799 -0.16492,-0.0826 -0.16491,-0.0836 -0.0813,-0.084 -0.0836,-0.0823 -0.1639,-0.0803 -0.32982,-0.0836 -0.084,-0.0813 -0.16355,-0.0836 -0.16729,-0.0826 -0.24753,-0.0813 -0.1639,-0.085 -0.66236,-0.0786 -0.49473,-0.085 -0.98981,0 -0.65999,0.085 -0.57736,0.0786 -0.16727,0.085 -0.24416,0.0813 -0.16863,0.0826 -0.16356,0.0836 -0.16525,0.0813 -0.24584,0.0836 -0.16729,0.0803 0,0.16627 -0.16423,0 -0.16729,0.0836 -0.0813,0.0826 -0.16729,0.0799 -0.0803,0.086 -0.0826,0.0803 -0.0823,0.0836 -0.16627,0.0799 -0.0809,0.0826 -0.085,0.16593 -0.0826,0.084 0,0.16492 -0.16389,0 -0.0836,0.0789 -0.0813,0.0823 -0.0823,0.16525 -0.085,0.0823 -0.0803,0.0837 -0.0836,0.16525 -0.0813,0.0823 -0.085,0.0826 -0.0809,0.0823 -0.0813,0.33016 -0.0836,0.0836 -0.084,0.1649 -0.0813,0.16356 -0.16491,0.0826 -0.0836,0.41109 -0.0826,0.24888 -0.0813,0.24619 -0.0836,0.3288 0,0.49373 -0.0813,0 0,-0.82253 -0.0799,-0.24619 -0.085,-0.24888 -0.0826,-0.16458 -0.0823,-0.24651 -0.085,-0.2462 -0.0789,-0.1649 -0.0863,-0.0836 -0.0799,-0.16524 -0.0836,-0.16492 -0.0836,-0.16491 -0.0789,-0.0823 -0.0863,-0.16525 -0.0823,-0.0837 -0.16355,0 0,-0.24753 -0.0826,-0.0823 -0.0823,-0.0789 -0.16863,-0.0836 -0.083,-0.16525 -0.0786,-0.16593 -0.0826,-0.0826 -0.16728,-0.0799 -0.0789,-0.1639 -0.16728,-0.086 -0.084,-0.0799 -0.24584,0 0,-0.16628 -0.16524,-0.084 -0.0836,-0.0823 -0.16356,-0.0803 -0.24788,-0.0836 -0.16728,-0.0813 -0.0786,-0.0837 -0.25025,-0.0826 -0.0813,-0.0813 -0.24855,-0.085 -0.65863,-0.0786 -0.33354,-0.085 -1.73242,0 -0.41381,0.085 -0.49609,0.0786 -0.16355,0.085 -0.2472,0.0813 -0.16525,0.0826 -0.16356,0.0837 -0.0864,0.0813 -0.33016,0.0836 -0.0809,0.0803 -0.0826,0.0823 -0.16492,0.084 -0.16525,0.0837 -0.16356,0.0826 -0.0823,0.0799 -0.0864,0.086 -0.16492,0.0803 -0.0826,0.0836 -0.0813,0.08 -0.0823,0.0826 -0.0836,0.16593 -0.0813,0.084 -0.0826,0.0813 -0.0826,0.0836 -0.0813,0.0789 -0.0874,0.0823 -0.0786,0.16525 -0.0826,0.0823 -0.085,0.16627 -0.0789,0.0826 -0.086,0.0823 -0.0826,0.0826 -0.0799,0.16254 -0.0823,0.2499 -0.085,0.0837 -0.0826,0.1649 -0.0823,0.16356 -0.0816,0.16289 -0.0823,0.33083 -0.0826,0.32915 -0.0823,0.24855 -0.0836,0.33118 -0.0826,0.8249 0,4.11838 -3.29924,0 -2.64468,0.0809 -0.085,1.73242 -0.0799,7.00417 -0.0826,0.25126 -0.0826,0.0799 -0.085,0.0816 -0.0823,0.16864 -0.0799,0.0799 -0.0826,0.0823 -0.1639,0.0864 -0.0823,0.08 -0.16763,0.0823 -0.33083,0.0826 -0.16288,0.0799 -0.82828,0 -0.24653,-0.0799 -0.32948,-0.0826 -0.16525,0 0,-0.1622 -0.0826,-0.0864 -0.16728,-0.0823 -0.0786,-0.08 -0.0863,-0.16863 -0.0816,-0.16153 -0.0823,-0.0826 -0.0826,-0.24889 -0.0836,-0.24855 -0.0809,-8.48872 -9.90722,0 0,4.03813 5.86164,0 0,4.53185 0.0823,0.57872 0.0826,0.66099 0.085,0.24653 0.0799,0.16457 0.0809,0.16762 0.085,0.1639 0.0803,0.32982 0.0836,0.24516 0.085,0.0847 0.0826,0.0826 0.0823,0.16254 0.0792,0.16491 0.0847,0.0813 0.0826,0.0836 0.0823,0.16526 0.0826,0.0813 0.16491,0 0,0.16729 0.0823,0.16254 0.084,0.084 0.16254,0.0813 0.0847,0.0836 0.0803,0.0809 0.0847,0.085 0.0816,0.0813 0.16628,0.0803 0.1649,0.0813 0.0809,0.0887 0.0836,0.08 0.16763,0 0,0.16491 0.3261,0.0809 0.0836,0.084 0.083,0.0826 0.0823,0.0786 c -21.71348,-1.39854 -43.59253,0.74498 -65.63854,6.10409 l 0,-99.08003 z m 80.41827,75.09065 0.0813,-0.40974 0.083,-0.32881 0.0836,-0.085 0.0823,-0.0813 0.0826,-0.0826 0.0836,-0.0823 0.0809,-0.16626 0.16661,-0.0823 0.16355,-0.0803 0.0836,-0.0863 0.16389,-0.0823 0.16728,-0.0803 0.98981,0 0.32881,0.0803 0.0826,0.0823 0.16592,0.0863 0.083,0.0803 0.16458,0.0823 0.0813,0.0836 0.0826,0.16492 0.0847,0.0826 0.16627,0.16626 0.0816,0.16356 0.0823,0.16525 0.0813,0.40974 0.0813,2.31079 3.88305,0 0,1.89395 -7.84363,0 0.0823,-4.20474 z" />
  </g>
</svg>
