<?xml version="1.0" encoding="UTF-8" standalone="no"?>
<!-- Created with Inkscape (http://www.inkscape.org/) -->

<svg
   xmlns:dc="http://purl.org/dc/elements/1.1/"
   xmlns:cc="http://creativecommons.org/ns#"
   xmlns:rdf="http://www.w3.org/1999/02/22-rdf-syntax-ns#"
   xmlns:svg="http://www.w3.org/2000/svg"
   xmlns="http://www.w3.org/2000/svg"
   xmlns:sodipodi="http://sodipodi.sourceforge.net/DTD/sodipodi-0.dtd"
   xmlns:inkscape="http://www.inkscape.org/namespaces/inkscape"
   id="svg2"
   version="1.1"
   inkscape:version="0.48.5 r10040"
   width="304.95001"
   height="220.05"
   xml:space="preserve"
   sodipodi:docname="VazaoVsHops.pdf"><metadata
     id="metadata8"><rdf:RDF><cc:Work
         rdf:about=""><dc:format>image/svg+xml</dc:format><dc:type
           rdf:resource="http://purl.org/dc/dcmitype/StillImage" /><dc:title></dc:title></cc:Work></rdf:RDF></metadata><defs
     id="defs6"><clipPath
       clipPathUnits="userSpaceOnUse"
       id="clipPath24"><path
         d="m 4710,6416 1,0 0,-94 -1,0 0,94 z"
         id="path26"
         inkscape:connector-curvature="0" /></clipPath><clipPath
       clipPathUnits="userSpaceOnUse"
       id="clipPath76"><path
         d="m 707,3573 1728,0 0,-2 -1728,0 0,2 z"
         id="path78"
         inkscape:connector-curvature="0" /></clipPath><clipPath
       clipPathUnits="userSpaceOnUse"
       id="clipPath86"><path
         d="m 707,3775 1728,0 0,-2 -1728,0 0,2 z"
         id="path88"
         inkscape:connector-curvature="0" /></clipPath><clipPath
       clipPathUnits="userSpaceOnUse"
       id="clipPath96"><path
         d="m 707,3976 1728,0 0,-2 -1728,0 0,2 z"
         id="path98"
         inkscape:connector-curvature="0" /></clipPath><clipPath
       clipPathUnits="userSpaceOnUse"
       id="clipPath106"><path
         d="m 707,4178 1728,0 0,-2 -1728,0 0,2 z"
         id="path108"
         inkscape:connector-curvature="0" /></clipPath><clipPath
       clipPathUnits="userSpaceOnUse"
       id="clipPath116"><path
         d="m 707,4585 0,-1218 1728,0 0,1218 -1728,0 z m 1118,-77 0,-170 545,0 0,170 -545,0 z"
         clip-rule="evenodd"
         id="path118"
         inkscape:connector-curvature="0" /></clipPath><clipPath
       clipPathUnits="userSpaceOnUse"
       id="clipPath126"><path
         d="m 707,4582 1728,0 0,-2 -1728,0 0,2 z"
         id="path128"
         inkscape:connector-curvature="0" /></clipPath><clipPath
       clipPathUnits="userSpaceOnUse"
       id="clipPath176"><path
         d="m 989,4594 300,0 0,-360 -300,0 0,360 z"
         id="path178"
         inkscape:connector-curvature="0" /></clipPath><clipPath
       clipPathUnits="userSpaceOnUse"
       id="clipPath194"><path
         d="m 1231,4594 11,0 0,-3 -11,0 0,3 z"
         id="path196"
         inkscape:connector-curvature="0" /></clipPath><clipPath
       clipPathUnits="userSpaceOnUse"
       id="clipPath308"><path
         d="m 2417,3446 32,0 0,-38 -32,0 0,38 z"
         id="path310"
         inkscape:connector-curvature="0" /></clipPath><clipPath
       clipPathUnits="userSpaceOnUse"
       id="clipPath336"><path
         d="m 2372,3504 77,0 0,-127 -77,0 0,127 z"
         id="path338"
         inkscape:connector-curvature="0" /></clipPath><clipPath
       clipPathUnits="userSpaceOnUse"
       id="clipPath402"><path
         d="m 1899,4446 127,0 0,-107 -127,0 0,107 z"
         id="path404"
         inkscape:connector-curvature="0" /></clipPath></defs><sodipodi:namedview
     pagecolor="#ffffff"
     bordercolor="#666666"
     borderopacity="1"
     objecttolerance="10"
     gridtolerance="10"
     guidetolerance="10"
     inkscape:pageopacity="0"
     inkscape:pageshadow="2"
     inkscape:window-width="1920"
     inkscape:window-height="1027"
     id="namedview4"
     showgrid="false"
     fit-margin-top="0"
     fit-margin-left="0"
     fit-margin-right="0"
     fit-margin-bottom="0"
     inkscape:zoom="3.6900704"
     inkscape:cx="152.47501"
     inkscape:cy="110.025"
     inkscape:window-x="0"
     inkscape:window-y="31"
     inkscape:window-maximized="1"
     inkscape:current-layer="g10" /><g
     id="g10"
     inkscape:groupmode="layer"
     inkscape:label="i2ts06"
     transform="matrix(1.25,0,0,-1.25,-161.54276,658.09322)"><g
       id="g22"
       clip-path="url(#clipPath24)"
       transform="scale(0.12,0.12)"><g
         id="g28"
         transform="scale(8.33333,8.33333)" /></g><g
       id="g6380"
       transform="translate(417.81356,-28.525424)"><path
         d="m -288.57935,378.96 243.960004,0 0,176.04 -243.960004,0 0,-176.04 z"
         style="fill:#ffffff;fill-opacity:1;fill-rule:nonzero;stroke:none"
         id="path70"
         inkscape:connector-curvature="0" /><g
         transform="matrix(0.12,0,0,0.12,-339.33935,0)"
         clip-path="url(#clipPath76)"
         id="g74"><path
           inkscape:connector-curvature="0"
           id="path80"
           style="fill:none;stroke:#000000;stroke-width:1;stroke-linecap:butt;stroke-linejoin:miter;stroke-miterlimit:10;stroke-opacity:1;stroke-dasharray:none"
           d="m 706,3573 1729,0" /></g><g
         transform="matrix(0.12,0,0,0.12,-339.33935,0)"
         clip-path="url(#clipPath86)"
         id="g84"><path
           inkscape:connector-curvature="0"
           id="path90"
           style="fill:none;stroke:#000000;stroke-width:1;stroke-linecap:butt;stroke-linejoin:miter;stroke-miterlimit:10;stroke-opacity:1;stroke-dasharray:none"
           d="m 706,3775 1729,0" /></g><g
         transform="matrix(0.12,0,0,0.12,-339.33935,0)"
         clip-path="url(#clipPath96)"
         id="g94"><path
           inkscape:connector-curvature="0"
           id="path100"
           style="fill:none;stroke:#000000;stroke-width:1;stroke-linecap:butt;stroke-linejoin:miter;stroke-miterlimit:10;stroke-opacity:1;stroke-dasharray:none"
           d="m 706,3976 1729,0" /></g><g
         transform="matrix(0.12,0,0,0.12,-339.33935,0)"
         clip-path="url(#clipPath106)"
         id="g104"><path
           inkscape:connector-curvature="0"
           id="path110"
           style="fill:none;stroke:#000000;stroke-width:1;stroke-linecap:butt;stroke-linejoin:miter;stroke-miterlimit:10;stroke-opacity:1;stroke-dasharray:none"
           d="m 706,4178 1729,0" /></g><g
         transform="matrix(0.12,0,0,0.12,-339.33935,0)"
         clip-path="url(#clipPath116)"
         id="g114"><path
           inkscape:connector-curvature="0"
           id="path120"
           style="fill:none;stroke:#000000;stroke-width:1;stroke-linecap:butt;stroke-linejoin:miter;stroke-miterlimit:10;stroke-opacity:1;stroke-dasharray:none"
           d="m 706,4380 1729,0" /></g><g
         transform="matrix(0.12,0,0,0.12,-339.33935,0)"
         clip-path="url(#clipPath126)"
         id="g124"><path
           inkscape:connector-curvature="0"
           id="path130"
           style="fill:none;stroke:#000000;stroke-width:1;stroke-linecap:butt;stroke-linejoin:miter;stroke-miterlimit:10;stroke-opacity:1;stroke-dasharray:none"
           d="m 706,4582 1729,0" /></g><path
         d="m -254.61935,549.84 207.480004,0"
         style="fill:none;stroke:#808080;stroke-width:0.95616001;stroke-linecap:round;stroke-linejoin:round;stroke-miterlimit:10;stroke-opacity:1;stroke-dasharray:none"
         id="path132"
         inkscape:connector-curvature="0" /><path
         d="m -47.139346,549.84 0,-145.32"
         style="fill:none;stroke:#808080;stroke-width:0.95616001;stroke-linecap:round;stroke-linejoin:round;stroke-miterlimit:10;stroke-opacity:1;stroke-dasharray:none"
         id="path134"
         inkscape:connector-curvature="0" /><path
         d="m -47.139346,404.52 -207.480004,0"
         style="fill:none;stroke:#808080;stroke-width:0.95616001;stroke-linecap:round;stroke-linejoin:round;stroke-miterlimit:10;stroke-opacity:1;stroke-dasharray:none"
         id="path136"
         inkscape:connector-curvature="0" /><path
         d="m -254.61935,404.52 0,145.32"
         style="fill:none;stroke:#808080;stroke-width:0.95616001;stroke-linecap:round;stroke-linejoin:round;stroke-miterlimit:10;stroke-opacity:1;stroke-dasharray:none"
         id="path138"
         inkscape:connector-curvature="0" /><path
         d="m -254.61935,549.84 0,-145.32"
         style="fill:none;stroke:#000000;stroke-width:0.12;stroke-linecap:round;stroke-linejoin:round;stroke-miterlimit:10;stroke-opacity:1;stroke-dasharray:none"
         id="path140"
         inkscape:connector-curvature="0" /><path
         d="m -256.53935,404.52 1.92,0"
         style="fill:none;stroke:#000000;stroke-width:0.12;stroke-linecap:round;stroke-linejoin:round;stroke-miterlimit:10;stroke-opacity:1;stroke-dasharray:none"
         id="path142"
         inkscape:connector-curvature="0" /><path
         d="m -256.53935,428.76 1.92,0"
         style="fill:none;stroke:#000000;stroke-width:0.12;stroke-linecap:round;stroke-linejoin:round;stroke-miterlimit:10;stroke-opacity:1;stroke-dasharray:none"
         id="path144"
         inkscape:connector-curvature="0" /><path
         d="m -256.53935,453 1.92,0"
         style="fill:none;stroke:#000000;stroke-width:0.12;stroke-linecap:round;stroke-linejoin:round;stroke-miterlimit:10;stroke-opacity:1;stroke-dasharray:none"
         id="path146"
         inkscape:connector-curvature="0" /><path
         d="m -256.53935,477.12 1.92,0"
         style="fill:none;stroke:#000000;stroke-width:0.12;stroke-linecap:round;stroke-linejoin:round;stroke-miterlimit:10;stroke-opacity:1;stroke-dasharray:none"
         id="path148"
         inkscape:connector-curvature="0" /><path
         d="m -256.53935,501.36 1.92,0"
         style="fill:none;stroke:#000000;stroke-width:0.12;stroke-linecap:round;stroke-linejoin:round;stroke-miterlimit:10;stroke-opacity:1;stroke-dasharray:none"
         id="path150"
         inkscape:connector-curvature="0" /><path
         d="m -256.53935,525.6 1.92,0"
         style="fill:none;stroke:#000000;stroke-width:0.12;stroke-linecap:round;stroke-linejoin:round;stroke-miterlimit:10;stroke-opacity:1;stroke-dasharray:none"
         id="path152"
         inkscape:connector-curvature="0" /><path
         d="m -256.53935,549.84 1.92,0"
         style="fill:none;stroke:#000000;stroke-width:0.12;stroke-linecap:round;stroke-linejoin:round;stroke-miterlimit:10;stroke-opacity:1;stroke-dasharray:none"
         id="path154"
         inkscape:connector-curvature="0" /><path
         d="m -254.61935,404.52 207.480004,0"
         style="fill:none;stroke:#000000;stroke-width:0.12;stroke-linecap:round;stroke-linejoin:round;stroke-miterlimit:10;stroke-opacity:1;stroke-dasharray:none"
         id="path156"
         inkscape:connector-curvature="0" /><path
         d="m -254.61935,402.6 0,1.92"
         style="fill:none;stroke:#000000;stroke-width:0.12;stroke-linecap:round;stroke-linejoin:round;stroke-miterlimit:10;stroke-opacity:1;stroke-dasharray:none"
         id="path158"
         inkscape:connector-curvature="0" /><path
         d="m -220.05935,402.6 0,1.92"
         style="fill:none;stroke:#000000;stroke-width:0.12;stroke-linecap:round;stroke-linejoin:round;stroke-miterlimit:10;stroke-opacity:1;stroke-dasharray:none"
         id="path160"
         inkscape:connector-curvature="0" /><path
         d="m -185.49935,402.6 0,1.92"
         style="fill:none;stroke:#000000;stroke-width:0.12;stroke-linecap:round;stroke-linejoin:round;stroke-miterlimit:10;stroke-opacity:1;stroke-dasharray:none"
         id="path162"
         inkscape:connector-curvature="0" /><path
         d="m -150.93935,402.6 0,1.92"
         style="fill:none;stroke:#000000;stroke-width:0.12;stroke-linecap:round;stroke-linejoin:round;stroke-miterlimit:10;stroke-opacity:1;stroke-dasharray:none"
         id="path164"
         inkscape:connector-curvature="0" /><path
         d="m -116.25935,402.6 0,1.92"
         style="fill:none;stroke:#000000;stroke-width:0.12;stroke-linecap:round;stroke-linejoin:round;stroke-miterlimit:10;stroke-opacity:1;stroke-dasharray:none"
         id="path166"
         inkscape:connector-curvature="0" /><path
         d="m -81.699346,402.6 0,1.92"
         style="fill:none;stroke:#000000;stroke-width:0.12;stroke-linecap:round;stroke-linejoin:round;stroke-miterlimit:10;stroke-opacity:1;stroke-dasharray:none"
         id="path168"
         inkscape:connector-curvature="0" /><path
         d="m -47.139346,402.6 0,1.92"
         style="fill:none;stroke:#000000;stroke-width:0.12;stroke-linecap:round;stroke-linejoin:round;stroke-miterlimit:10;stroke-opacity:1;stroke-dasharray:none"
         id="path170"
         inkscape:connector-curvature="0" /><g
         transform="matrix(0.12,0,0,0.12,-339.33935,0)"
         clip-path="url(#clipPath176)"
         id="g174"><path
           inkscape:connector-curvature="0"
           id="path180"
           style="fill:none;stroke:#000080;stroke-width:7.96799994;stroke-linecap:round;stroke-linejoin:round;stroke-miterlimit:10;stroke-opacity:1;stroke-dasharray:none"
           d="M 994,6245 1282,4241" /></g><path
         d="m -185.49935,508.92 34.68,-70.08"
         style="fill:none;stroke:#000080;stroke-width:0.95616001;stroke-linecap:round;stroke-linejoin:round;stroke-miterlimit:10;stroke-opacity:1;stroke-dasharray:none"
         id="path182"
         inkscape:connector-curvature="0" /><path
         d="m -150.81935,438.84 34.56,-18.24"
         style="fill:none;stroke:#000080;stroke-width:0.95616001;stroke-linecap:round;stroke-linejoin:round;stroke-miterlimit:10;stroke-opacity:1;stroke-dasharray:none"
         id="path184"
         inkscape:connector-curvature="0" /><path
         d="m -116.25935,420.6 34.560004,-6.84"
         style="fill:none;stroke:#000080;stroke-width:0.95616001;stroke-linecap:round;stroke-linejoin:round;stroke-miterlimit:10;stroke-opacity:1;stroke-dasharray:none"
         id="path186"
         inkscape:connector-curvature="0" /><path
         d="m -81.699346,413.76 34.56,-2.4"
         style="fill:none;stroke:#000080;stroke-width:0.95616001;stroke-linecap:round;stroke-linejoin:round;stroke-miterlimit:10;stroke-opacity:1;stroke-dasharray:none"
         id="path188"
         inkscape:connector-curvature="0" /><g
         transform="matrix(0.12,0,0,0.12,-339.33935,0)"
         clip-path="url(#clipPath194)"
         id="g192"><path
           inkscape:connector-curvature="0"
           id="path198"
           style="fill:#333399;fill-opacity:1;fill-rule:evenodd;stroke:none"
           d="m 1239,4609 1,-16 -8,0 -1,16" /></g><path
         d="m -190.05935,547.32 0.12,-1.92 -0.96,0 -0.12,1.92"
         style="fill:#333399;fill-opacity:1;fill-rule:evenodd;stroke:none"
         id="path200"
         inkscape:connector-curvature="0" /><path
         d="m -189.45935,541.68 0.24,-1.92 -0.96,-0.12 -0.24,1.92"
         style="fill:#333399;fill-opacity:1;fill-rule:evenodd;stroke:none"
         id="path202"
         inkscape:connector-curvature="0" /><path
         d="m -188.85935,535.92 0.24,-1.92 -0.96,-0.12 -0.24,1.92"
         style="fill:#333399;fill-opacity:1;fill-rule:evenodd;stroke:none"
         id="path204"
         inkscape:connector-curvature="0" /><path
         d="m -188.25935,530.28 0.24,-1.92 -0.96,-0.12 -0.24,1.92"
         style="fill:#333399;fill-opacity:1;fill-rule:evenodd;stroke:none"
         id="path206"
         inkscape:connector-curvature="0" /><path
         d="m -187.65935,524.52 0.24,-1.92 -0.96,-0.12 -0.24,1.92"
         style="fill:#333399;fill-opacity:1;fill-rule:evenodd;stroke:none"
         id="path208"
         inkscape:connector-curvature="0" /><path
         d="m -187.05935,518.76 0.24,-1.92 -0.96,-0.12 -0.24,1.92"
         style="fill:#333399;fill-opacity:1;fill-rule:evenodd;stroke:none"
         id="path210"
         inkscape:connector-curvature="0" /><path
         d="m -186.45935,513 0.24,-1.92 -0.96,-0.12 -0.24,1.92"
         style="fill:#333399;fill-opacity:1;fill-rule:evenodd;stroke:none"
         id="path212"
         inkscape:connector-curvature="0" /><path
         d="m -185.85935,507.36 0.24,-1.92 -0.96,-0.12 -0.24,1.92"
         style="fill:#333399;fill-opacity:1;fill-rule:evenodd;stroke:none"
         id="path214"
         inkscape:connector-curvature="0" /><path
         d="m -185.13935,501.6 0.12,-1.56 -0.96,-0.12 -0.12,1.56"
         style="fill:#333399;fill-opacity:1;fill-rule:evenodd;stroke:none"
         id="path216"
         inkscape:connector-curvature="0" /><path
         d="m -185.01935,500.16 0.12,-0.36 -0.96,-0.36 -0.12,0.36"
         style="fill:#333399;fill-opacity:1;fill-rule:evenodd;stroke:none"
         id="path218"
         inkscape:connector-curvature="0" /><path
         d="m -183.09935,496.44 0.84,-1.8 -0.84,-0.36 -0.84,1.8"
         style="fill:#333399;fill-opacity:1;fill-rule:evenodd;stroke:none"
         id="path220"
         inkscape:connector-curvature="0" /><path
         d="m -180.57935,491.28 0.84,-1.8 -0.84,-0.36 -0.84,1.8"
         style="fill:#333399;fill-opacity:1;fill-rule:evenodd;stroke:none"
         id="path222"
         inkscape:connector-curvature="0" /><path
         d="m -178.05935,486.12 0.96,-1.8 -0.84,-0.48 -0.96,1.8"
         style="fill:#333399;fill-opacity:1;fill-rule:evenodd;stroke:none"
         id="path224"
         inkscape:connector-curvature="0" /><path
         d="m -175.41935,480.96 0.84,-1.8 -0.84,-0.36 -0.84,1.8"
         style="fill:#333399;fill-opacity:1;fill-rule:evenodd;stroke:none"
         id="path226"
         inkscape:connector-curvature="0" /><path
         d="m -172.89935,475.8 0.84,-1.8 -0.84,-0.36 -0.84,1.8"
         style="fill:#333399;fill-opacity:1;fill-rule:evenodd;stroke:none"
         id="path228"
         inkscape:connector-curvature="0" /><path
         d="m -170.25935,470.64 0.84,-1.68 -0.84,-0.48 -0.84,1.68"
         style="fill:#333399;fill-opacity:1;fill-rule:evenodd;stroke:none"
         id="path230"
         inkscape:connector-curvature="0" /><path
         d="m -167.73935,465.48 0.84,-1.68 -0.84,-0.48 -0.84,1.68"
         style="fill:#333399;fill-opacity:1;fill-rule:evenodd;stroke:none"
         id="path232"
         inkscape:connector-curvature="0" /><path
         d="m -165.21935,460.32 0.96,-1.68 -0.84,-0.48 -0.96,1.68"
         style="fill:#333399;fill-opacity:1;fill-rule:evenodd;stroke:none"
         id="path234"
         inkscape:connector-curvature="0" /><path
         d="m -162.57935,455.16 0.84,-1.68 -0.84,-0.48 -0.84,1.68"
         style="fill:#333399;fill-opacity:1;fill-rule:evenodd;stroke:none"
         id="path236"
         inkscape:connector-curvature="0" /><path
         d="m -160.05935,450 0.84,-1.68 -0.84,-0.48 -0.84,1.68"
         style="fill:#333399;fill-opacity:1;fill-rule:evenodd;stroke:none"
         id="path238"
         inkscape:connector-curvature="0" /><path
         d="m -157.41935,444.84 0.84,-1.68 -0.84,-0.48 -0.84,1.68"
         style="fill:#333399;fill-opacity:1;fill-rule:evenodd;stroke:none"
         id="path240"
         inkscape:connector-curvature="0" /><path
         d="m -154.89935,439.68 0.84,-1.68 -0.84,-0.48 -0.84,1.68"
         style="fill:#333399;fill-opacity:1;fill-rule:evenodd;stroke:none"
         id="path242"
         inkscape:connector-curvature="0" /><path
         d="m -152.37935,434.52 0.96,-1.68 -0.84,-0.48 -0.96,1.68"
         style="fill:#333399;fill-opacity:1;fill-rule:evenodd;stroke:none"
         id="path244"
         inkscape:connector-curvature="0" /><path
         d="m -149.37935,430.32 1.8,-0.84 -0.36,-0.84 -1.8,0.84"
         style="fill:#333399;fill-opacity:1;fill-rule:evenodd;stroke:none"
         id="path246"
         inkscape:connector-curvature="0" /><path
         d="m -144.09935,427.92 1.8,-0.72 -0.36,-0.84 -1.8,0.72"
         style="fill:#333399;fill-opacity:1;fill-rule:evenodd;stroke:none"
         id="path248"
         inkscape:connector-curvature="0" /><path
         d="m -138.81935,425.64 1.8,-0.72 -0.36,-0.84 -1.8,0.72"
         style="fill:#333399;fill-opacity:1;fill-rule:evenodd;stroke:none"
         id="path250"
         inkscape:connector-curvature="0" /><path
         d="m -133.41935,423.36 1.68,-0.72 -0.36,-0.84 -1.68,0.72"
         style="fill:#333399;fill-opacity:1;fill-rule:evenodd;stroke:none"
         id="path252"
         inkscape:connector-curvature="0" /><path
         d="m -128.13935,421.08 1.8,-0.72 -0.36,-0.84 -1.8,0.72"
         style="fill:#333399;fill-opacity:1;fill-rule:evenodd;stroke:none"
         id="path254"
         inkscape:connector-curvature="0" /><path
         d="m -122.85935,418.8 1.8,-0.84 -0.36,-0.84 -1.8,0.84"
         style="fill:#333399;fill-opacity:1;fill-rule:evenodd;stroke:none"
         id="path256"
         inkscape:connector-curvature="0" /><path
         d="m -117.57935,416.52 1.56,-0.72 -0.36,-0.84 -1.56,0.72"
         style="fill:#333399;fill-opacity:1;fill-rule:evenodd;stroke:none"
         id="path258"
         inkscape:connector-curvature="0" /><path
         d="m -116.25935,414.84 0.24,0 0,0.96 -0.24,0 0,-0.96 z"
         style="fill:#333399;fill-opacity:1;fill-rule:evenodd;stroke:none"
         id="path260"
         inkscape:connector-curvature="0" /><path
         d="m -112.17935,415.56 1.92,-0.12 0,-0.96 -1.92,0.12"
         style="fill:#333399;fill-opacity:1;fill-rule:evenodd;stroke:none"
         id="path262"
         inkscape:connector-curvature="0" /><path
         d="m -106.41935,415.2 1.92,-0.12 0,-0.96 -1.92,0.12"
         style="fill:#333399;fill-opacity:1;fill-rule:evenodd;stroke:none"
         id="path264"
         inkscape:connector-curvature="0" /><path
         d="m -100.65935,414.84 1.920004,-0.12 0,-0.96 -1.920004,0.12"
         style="fill:#333399;fill-opacity:1;fill-rule:evenodd;stroke:none"
         id="path266"
         inkscape:connector-curvature="0" /><path
         d="m -94.899346,414.48 1.92,-0.12 0,-0.96 -1.92,0.12"
         style="fill:#333399;fill-opacity:1;fill-rule:evenodd;stroke:none"
         id="path268"
         inkscape:connector-curvature="0" /><path
         d="m -89.139346,414.12 1.92,-0.12 0,-0.96 -1.92,0.12"
         style="fill:#333399;fill-opacity:1;fill-rule:evenodd;stroke:none"
         id="path270"
         inkscape:connector-curvature="0" /><path
         d="m -83.259346,413.76 1.68,-0.12 -0.12,-0.96 -1.68,0.12"
         style="fill:#333399;fill-opacity:1;fill-rule:evenodd;stroke:none"
         id="path272"
         inkscape:connector-curvature="0" /><path
         d="m -81.699346,412.68 0.24,0 0,0.96 -0.24,0 0,-0.96 z"
         style="fill:#333399;fill-opacity:1;fill-rule:evenodd;stroke:none"
         id="path274"
         inkscape:connector-curvature="0" /><path
         d="m -77.619346,412.68 1.92,0 0,0.96 -1.92,0 0,-0.96 z"
         style="fill:#333399;fill-opacity:1;fill-rule:evenodd;stroke:none"
         id="path276"
         inkscape:connector-curvature="0" /><path
         d="m -71.859346,412.56 1.92,0 0,0.96 -1.92,0 0,-0.96 z"
         style="fill:#333399;fill-opacity:1;fill-rule:evenodd;stroke:none"
         id="path278"
         inkscape:connector-curvature="0" /><path
         d="m -66.099346,412.56 1.92,0 0,0.96 -1.92,0 0,-0.96 z"
         style="fill:#333399;fill-opacity:1;fill-rule:evenodd;stroke:none"
         id="path280"
         inkscape:connector-curvature="0" /><path
         d="m -60.339346,412.56 1.92,0 0,0.96 -1.92,0 0,-0.96 z"
         style="fill:#333399;fill-opacity:1;fill-rule:evenodd;stroke:none"
         id="path282"
         inkscape:connector-curvature="0" /><path
         d="m -54.579346,412.44 1.92,0 0,0.96 -1.92,0 0,-0.96 z"
         style="fill:#333399;fill-opacity:1;fill-rule:evenodd;stroke:none"
         id="path284"
         inkscape:connector-curvature="0" /><path
         d="m -48.819346,412.44 1.68,0 0,0.96 -1.68,0 0,-0.96 z"
         style="fill:#333399;fill-opacity:1;fill-rule:evenodd;stroke:none"
         id="path286"
         inkscape:connector-curvature="0" /><path
         d="m -185.49935,510.48 1.56,-1.56 -1.56,-1.56 -1.56,1.56 1.56,1.56"
         style="fill:#000080;fill-opacity:1;fill-rule:evenodd;stroke:none"
         id="path288"
         inkscape:connector-curvature="0" /><path
         d="m -185.49935,510.48 1.56,-1.56 -1.56,-1.56 -1.56,1.56 1.56,1.56 z"
         style="fill:none;stroke:#000080;stroke-width:0.95616001;stroke-linecap:round;stroke-linejoin:round;stroke-miterlimit:10;stroke-opacity:1;stroke-dasharray:none"
         id="path290"
         inkscape:connector-curvature="0" /><path
         d="m -150.81935,440.4 1.56,-1.56 -1.56,-1.56 -1.56,1.56 1.56,1.56"
         style="fill:#000080;fill-opacity:1;fill-rule:evenodd;stroke:none"
         id="path292"
         inkscape:connector-curvature="0" /><path
         d="m -150.81935,440.4 1.56,-1.56 -1.56,-1.56 -1.56,1.56 1.56,1.56 z"
         style="fill:none;stroke:#000080;stroke-width:0.95616001;stroke-linecap:round;stroke-linejoin:round;stroke-miterlimit:10;stroke-opacity:1;stroke-dasharray:none"
         id="path294"
         inkscape:connector-curvature="0" /><path
         d="m -116.25935,422.16 1.56,-1.56 -1.56,-1.56 -1.56,1.56 1.56,1.56"
         style="fill:#000080;fill-opacity:1;fill-rule:evenodd;stroke:none"
         id="path296"
         inkscape:connector-curvature="0" /><path
         d="m -116.25935,422.16 1.56,-1.56 -1.56,-1.56 -1.56,1.56 1.56,1.56 z"
         style="fill:none;stroke:#000080;stroke-width:0.95616001;stroke-linecap:round;stroke-linejoin:round;stroke-miterlimit:10;stroke-opacity:1;stroke-dasharray:none"
         id="path298"
         inkscape:connector-curvature="0" /><path
         d="m -81.699346,415.32 1.56,-1.56 -1.56,-1.56 -1.56,1.56 1.56,1.56"
         style="fill:#000080;fill-opacity:1;fill-rule:evenodd;stroke:none"
         id="path300"
         inkscape:connector-curvature="0" /><path
         d="m -81.699346,415.32 1.56,-1.56 -1.56,-1.56 -1.56,1.56 1.56,1.56 z"
         style="fill:none;stroke:#000080;stroke-width:0.95616001;stroke-linecap:round;stroke-linejoin:round;stroke-miterlimit:10;stroke-opacity:1;stroke-dasharray:none"
         id="path302"
         inkscape:connector-curvature="0" /><g
         transform="matrix(0.12,0,0,0.12,-339.33935,0)"
         clip-path="url(#clipPath308)"
         id="g306"><path
           inkscape:connector-curvature="0"
           id="path312"
           style="fill:#000080;fill-opacity:1;fill-rule:evenodd;stroke:none"
           d="m 2435,3441 13,-13 -13,-13 -13,13 13,13" /><path
           inkscape:connector-curvature="0"
           id="path314"
           style="fill:none;stroke:#000080;stroke-width:7.96799994;stroke-linecap:round;stroke-linejoin:round;stroke-miterlimit:10;stroke-opacity:1;stroke-dasharray:none"
           d="m 2435,3441 13,-13 -13,-13 -13,13 13,13 z" /></g><path
         d="m -187.05935,498.48 3,0 0,3 -3,0 0,-3 z"
         style="fill:#333399;fill-opacity:1;fill-rule:evenodd;stroke:none"
         id="path316"
         inkscape:connector-curvature="0" /><path
         d="m -187.05935,498.48 3,0 0,3 -3,0 0,-3 z"
         style="fill:none;stroke:#333399;stroke-width:0.95616001;stroke-linecap:round;stroke-linejoin:miter;stroke-miterlimit:10;stroke-opacity:1;stroke-dasharray:none"
         id="path318"
         inkscape:connector-curvature="0" /><path
         d="m -152.37935,428.88 3,0 0,3 -3,0 0,-3 z"
         style="fill:#333399;fill-opacity:1;fill-rule:evenodd;stroke:none"
         id="path320"
         inkscape:connector-curvature="0" /><path
         d="m -152.37935,428.88 3,0 0,3 -3,0 0,-3 z"
         style="fill:none;stroke:#333399;stroke-width:0.95616001;stroke-linecap:round;stroke-linejoin:miter;stroke-miterlimit:10;stroke-opacity:1;stroke-dasharray:none"
         id="path322"
         inkscape:connector-curvature="0" /><path
         d="m -117.81935,413.88 3,0 0,3 -3,0 0,-3 z"
         style="fill:#333399;fill-opacity:1;fill-rule:evenodd;stroke:none"
         id="path324"
         inkscape:connector-curvature="0" /><path
         d="m -117.81935,413.88 3,0 0,3 -3,0 0,-3 z"
         style="fill:none;stroke:#333399;stroke-width:0.95616001;stroke-linecap:round;stroke-linejoin:miter;stroke-miterlimit:10;stroke-opacity:1;stroke-dasharray:none"
         id="path326"
         inkscape:connector-curvature="0" /><path
         d="m -83.259346,411.72 3,0 0,3 -3,0 0,-3 z"
         style="fill:#333399;fill-opacity:1;fill-rule:evenodd;stroke:none"
         id="path328"
         inkscape:connector-curvature="0" /><path
         d="m -83.259346,411.72 3,0 0,3 -3,0 0,-3 z"
         style="fill:none;stroke:#333399;stroke-width:0.95616001;stroke-linecap:round;stroke-linejoin:miter;stroke-miterlimit:10;stroke-opacity:1;stroke-dasharray:none"
         id="path330"
         inkscape:connector-curvature="0" /><g
         transform="matrix(0.12,0,0,0.12,-339.33935,0)"
         clip-path="url(#clipPath336)"
         id="g334"><path
           inkscape:connector-curvature="0"
           id="path340"
           style="fill:#333399;fill-opacity:1;fill-rule:evenodd;stroke:none"
           d="m 2422,3429 25,0 0,25 -25,0 0,-25 z" /><path
           inkscape:connector-curvature="0"
           id="path342"
           style="fill:none;stroke:#333399;stroke-width:7.96799994;stroke-linecap:round;stroke-linejoin:miter;stroke-miterlimit:10;stroke-opacity:1;stroke-dasharray:none"
           d="m 2422,3429 25,0 0,25 -25,0 0,-25 z" /></g><text
         style="font-size:11.9887085px"
         y="-402.34106"
         x="-262.78662"
         id="text346"
         transform="scale(0.99905907,-1.0009418)"><tspan
           id="tspan348"
           y="-402.34106"
           x="-262.78662"
           style="font-size:5.99015808px;font-variant:normal;font-weight:normal;writing-mode:lr-tb;fill:#000000;fill-opacity:1;fill-rule:nonzero;stroke:none;font-family:Helvetica;-inkscape-font-specification:Helvetica">0</tspan><tspan
           id="tspan350"
           sodipodi:role="line"
           y="-426.55826"
           x="-272.8761 -269.51294 -266.14978 -262.78659"
           style="font-size:5.99015808px;font-variant:normal;font-weight:normal;writing-mode:lr-tb;fill:#000000;fill-opacity:1;fill-rule:nonzero;stroke:none;font-family:Helvetica;-inkscape-font-specification:Helvetica">1000</tspan><tspan
           id="tspan352"
           sodipodi:role="line"
           y="-450.77545"
           x="-272.8761 -269.51294 -266.14978 -262.78659"
           style="font-size:5.99015808px;font-variant:normal;font-weight:normal;writing-mode:lr-tb;fill:#000000;fill-opacity:1;fill-rule:nonzero;stroke:none;font-family:Helvetica;-inkscape-font-specification:Helvetica">2000</tspan><tspan
           id="tspan354"
           sodipodi:role="line"
           y="-474.75287"
           x="-272.8761 -269.51294 -266.14978 -262.78659"
           style="font-size:5.99015808px;font-variant:normal;font-weight:normal;writing-mode:lr-tb;fill:#000000;fill-opacity:1;fill-rule:nonzero;stroke:none;font-family:Helvetica;-inkscape-font-specification:Helvetica">3000</tspan><tspan
           id="tspan356"
           sodipodi:role="line"
           y="-498.97006"
           x="-272.8761 -269.51294 -266.14978 -262.78659"
           style="font-size:5.99015808px;font-variant:normal;font-weight:normal;writing-mode:lr-tb;fill:#000000;fill-opacity:1;fill-rule:nonzero;stroke:none;font-family:Helvetica;-inkscape-font-specification:Helvetica">4000</tspan><tspan
           id="tspan358"
           sodipodi:role="line"
           y="-523.18726"
           x="-272.8761 -269.51294 -266.14978 -262.78659"
           style="font-size:5.99015808px;font-variant:normal;font-weight:normal;writing-mode:lr-tb;fill:#000000;fill-opacity:1;fill-rule:nonzero;stroke:none;font-family:Helvetica;-inkscape-font-specification:Helvetica">5000</tspan><tspan
           id="tspan360"
           sodipodi:role="line"
           y="-547.40442"
           x="-272.8761 -269.51294 -266.14978 -262.78659"
           style="font-size:5.99015808px;font-variant:normal;font-weight:normal;writing-mode:lr-tb;fill:#000000;fill-opacity:1;fill-rule:nonzero;stroke:none;font-family:Helvetica;-inkscape-font-specification:Helvetica">6000</tspan><tspan
           id="tspan362"
           sodipodi:role="line"
           y="-393.22964"
           x="-256.42059 -221.82803 -187.23547 -152.763 -118.05033 -83.457771 -48.865211"
           style="font-size:5.99015808px;font-variant:normal;font-weight:normal;writing-mode:lr-tb;fill:#000000;fill-opacity:1;fill-rule:nonzero;stroke:none;font-family:Helvetica;-inkscape-font-specification:Helvetica">1234567</tspan></text>
<text
         style="font-size:11.9887867px"
         y="-384.00085"
         x="-186.03319"
         id="text364"
         transform="scale(0.99906557,-1.0009353)"><tspan
           id="tspan366"
           sodipodi:role="line"
           y="-384.00085"
           x="-186.03319 -179.54712 -174.02196 -165.97444 -160.56938 -155.52467 -152.04141 -149.51906 -143.99388 -140.99107 -138.46872 -131.98265 -126.45748 -120.9323"
           style="font-size:8.98547649px;font-variant:normal;font-weight:bold;writing-mode:lr-tb;fill:#000000;fill-opacity:1;fill-rule:nonzero;stroke:none;font-family:Helvetica;-inkscape-font-specification:Helvetica-Bold">Number of Hops</tspan></text>
<text
         style="font-size:11.98879242px"
         y="-278.23926"
         x="441.8927"
         id="text368"
         transform="matrix(0,0.99906607,1.0009348,0,0,0)"><tspan
           id="tspan370"
           sodipodi:role="line"
           y="-278.23926"
           x="441.8927 446.81732 451.74191 454.86438 459.66888 464.59348 469.5181 474.44272 479.36734 484.29193 486.93442 489.21655 491.85904 496.30319 501.22778 506.15237 510.59653"
           style="font-size:8.02685642px;font-variant:normal;font-weight:bold;writing-mode:lr-tb;fill:#000000;fill-opacity:1;fill-rule:nonzero;stroke:none;font-family:Helvetica;-inkscape-font-specification:Helvetica-Bold">Throughput (kbps)</tspan></text>
<path
         d="m -120.09935,520.56 65.160004,0 0,20.28 -65.160004,0 0,-20.28 z"
         style="fill:#ffffff;fill-opacity:1;fill-rule:nonzero;stroke:none"
         id="path372"
         inkscape:connector-curvature="0" /><path
         d="m -120.21935,520.56 65.280004,0 0,20.4 -65.280004,0 0,-20.4 z"
         style="fill:none;stroke:#000000;stroke-width:0.12;stroke-linecap:round;stroke-linejoin:miter;stroke-miterlimit:10;stroke-opacity:1;stroke-dasharray:none"
         id="path374"
         inkscape:connector-curvature="0" /><path
         d="m -117.81935,536.16 27.960004,0"
         style="fill:none;stroke:#000080;stroke-width:0.95616001;stroke-linecap:round;stroke-linejoin:round;stroke-miterlimit:10;stroke-opacity:1;stroke-dasharray:none"
         id="path376"
         inkscape:connector-curvature="0" /><path
         d="m -103.89935,537.72 1.56,-1.56 -1.56,-1.56 -1.56,1.56 1.56,1.56"
         style="fill:#000080;fill-opacity:1;fill-rule:evenodd;stroke:none"
         id="path378"
         inkscape:connector-curvature="0" /><path
         d="m -103.89935,537.72 1.56,-1.56 -1.56,-1.56 -1.56,1.56 1.56,1.56 z"
         style="fill:none;stroke:#000080;stroke-width:0.95616001;stroke-linecap:round;stroke-linejoin:round;stroke-miterlimit:10;stroke-opacity:1;stroke-dasharray:none"
         id="path380"
         inkscape:connector-curvature="0" /><text
         style="font-size:11.9887085px"
         y="-533.25775"
         x="-88.502617"
         id="text384"
         transform="scale(0.99905907,-1.0009418)"><tspan
           id="tspan386"
           sodipodi:role="line"
           y="-533.25775"
           x="-88.502617 -83.818199 -80.455025 -76.49131 -72.167213 -70.125282 -65.200661"
           style="font-size:5.99015808px;font-variant:normal;font-weight:normal;writing-mode:lr-tb;fill:#000000;fill-opacity:1;fill-rule:nonzero;stroke:none;font-family:Helvetica;-inkscape-font-specification:Helvetica">OLSR-ML</tspan></text>
<path
         d="m -117.81935,525.48 1.92,0 0,0.96 -1.92,0 0,-0.96 z"
         style="fill:#333399;fill-opacity:1;fill-rule:evenodd;stroke:none"
         id="path388"
         inkscape:connector-curvature="0" /><path
         d="m -112.05935,525.48 1.92,0 0,0.96 -1.92,0 0,-0.96 z"
         style="fill:#333399;fill-opacity:1;fill-rule:evenodd;stroke:none"
         id="path390"
         inkscape:connector-curvature="0" /><path
         d="m -106.29935,525.48 1.92,0 0,0.96 -1.92,0 0,-0.96 z"
         style="fill:#333399;fill-opacity:1;fill-rule:evenodd;stroke:none"
         id="path392"
         inkscape:connector-curvature="0" /><path
         d="m -100.53935,525.48 1.920004,0 0,0.96 -1.920004,0 0,-0.96 z"
         style="fill:#333399;fill-opacity:1;fill-rule:evenodd;stroke:none"
         id="path394"
         inkscape:connector-curvature="0" /><path
         d="m -94.779346,525.48 1.92,0 0,0.96 -1.92,0 0,-0.96 z"
         style="fill:#333399;fill-opacity:1;fill-rule:evenodd;stroke:none"
         id="path396"
         inkscape:connector-curvature="0" /><g
         transform="matrix(0.12,0,0,0.12,-339.33935,0)"
         clip-path="url(#clipPath402)"
         id="g400"><path
           inkscape:connector-curvature="0"
           id="path406"
           style="fill:#333399;fill-opacity:1;fill-rule:evenodd;stroke:none"
           d="m 1949,4371 25,0 0,25 -25,0 0,-25 z" /><path
           inkscape:connector-curvature="0"
           id="path408"
           style="fill:none;stroke:#333399;stroke-width:7.96799994;stroke-linecap:round;stroke-linejoin:miter;stroke-miterlimit:10;stroke-opacity:1;stroke-dasharray:none"
           d="m 1949,4371 25,0 0,25 -25,0 0,-25 z" /></g><text
         style="font-size:11.9887085px"
         y="-523.06738"
         x="-88.502617"
         id="text412"
         transform="scale(0.99905907,-1.0009418)"><tspan
           id="tspan414"
           sodipodi:role="line"
           y="-523.06738"
           x="-88.502617 -83.818199 -80.455025 -76.49131 -72.167213 -70.125282 -66.161568 -62.438057"
           style="font-size:5.99015808px;font-variant:normal;font-weight:normal;writing-mode:lr-tb;fill:#000000;fill-opacity:1;fill-rule:nonzero;stroke:none;font-family:Helvetica;-inkscape-font-specification:Helvetica">OLSR-ETX</tspan></text>
</g></g></svg>