<!-- Created with Inkscape (http://www.inkscape.org/) -->
<svg id="svg15774" xmlns:rdf="http://www.w3.org/1999/02/22-rdf-syntax-ns#" xmlns="http://www.w3.org/2000/svg" height="230.14" width="743.74" version="1.1" xmlns:cc="http://creativecommons.org/ns#" xmlns:xlink="http://www.w3.org/1999/xlink" xmlns:dc="http://purl.org/dc/elements/1.1/" viewBox="0 0 743.74 230.14">
<defs><style type="text/css">@import url(https://fonts.googleapis.com/css?family=Lora:400,400italic,700,700italic)</style></defs>
<defs id="defs15776">
<clipPath id="clipPath24568" clipPathUnits="userSpaceOnUse">
<path id="path24570" clip-rule="evenodd" d="M0.000010729,0,720,0v540h-720v-540z"/>
</clipPath>
<linearGradient id="linearGradient24542" y2="122.64" gradientUnits="userSpaceOnUse" x2="74.556" gradientTransform="translate(22.810015,-319.9)" y1="172.08" x1="74.556">
<stop id="stop24544" stop-color="#000" offset="0"/>
<stop id="stop24546" stop-color="#000" offset="1"/>
</linearGradient>
<linearGradient id="linearGradient24528" y2="137.04" gradientUnits="userSpaceOnUse" x2="206.88" gradientTransform="translate(22.810015,-319.9)" y1="137.04" x1="113.04">
<stop id="stop24530" stop-color="#FFF" offset="0"/>
<stop id="stop24532" stop-color="#FFF" offset="1"/>
</linearGradient>
<clipPath id="clipPath24520" clipPathUnits="userSpaceOnUse">
<path id="path24522" clip-rule="evenodd" d="M-0.000011166,540,720,540,720,0.000061035h-720"/>
</clipPath>
<clipPath id="clipPath24508" clipPathUnits="userSpaceOnUse">
<path id="path24510" clip-rule="evenodd" d="M0.000010729,0,720,0v540h-720v-540z"/>
</clipPath>
</defs>
<metadata id="metadata15779">
<rdf:RDF>
<cc:Work rdf:about="">
<dc:format>image/svg+xml</dc:format>
<dc:type rdf:resource="http://purl.org/dc/dcmitype/StillImage"/>
<dc:title/>
</cc:Work>
</rdf:RDF>
</metadata>
<g id="layer1" transform="translate(8.4130829,-307.01966)">
<path id="path24466" d="m418.55,536.17,61.8,0,0-221.55-61.8,0,0,221.55z" fill-rule="evenodd" fill="#FFF"/>
<path id="path24468" stroke-linejoin="miter" d="m418.55,536.17,61.8,0,0-221.55-61.8,0,0,221.55z" stroke="#000" stroke-linecap="butt" stroke-miterlimit="10" stroke-dasharray="none" stroke-width="1.94999993" fill="none"/>
<path id="path24470" stroke-linejoin="round" d="m418.4,423.52,61.35-0.15" stroke="#000" stroke-linecap="butt" stroke-miterlimit="10" stroke-dasharray="none" stroke-width="1.94999993" fill="none"/>
<path id="path24472" stroke-linejoin="round" d="m417.95,462.52,62.25-0.6" stroke="#000" stroke-linecap="butt" stroke-miterlimit="10" stroke-dasharray="none" stroke-width="1.94999993" fill="none"/>
<path id="path24474" stroke-linejoin="round" d="m418.4,500.02,61.8-0.15" stroke="#000" stroke-linecap="butt" stroke-miterlimit="10" stroke-dasharray="none" stroke-width="1.94999993" fill="none"/>
<path id="path24476" stroke-linejoin="round" d="m417.95,386.02,62.25-0.6" stroke="#000" stroke-linecap="butt" stroke-miterlimit="10" stroke-dasharray="none" stroke-width="1.94999993" fill="none"/>
<path id="path24478" stroke-linejoin="round" d="m418.4,348.07,62.25-0.75" stroke="#000" stroke-linecap="butt" stroke-miterlimit="10" stroke-dasharray="none" stroke-width="1.94999993" fill="none"/>
<path id="path24480" d="m489.35,340.49,213.2,0,0,1.95-213.2,0,0-1.95zm211.95-2.775,7.5,3.75-7.5,3.75,0-7.5z" fill-rule="nonzero" fill="#000"/>
<path id="path24482" d="m503.9,341.02,0-10.788,170.25-0.4625,0,11.25" fill-rule="evenodd" fill="#33C"/>
<path id="path24484" stroke-linejoin="round" d="m503.9,341.02,0-10.788,170.25-0.4625,0,11.25" stroke="#000" stroke-linecap="butt" stroke-miterlimit="10" stroke-dasharray="none" stroke-width="1.94999993" fill="none"/>
<path id="path24486" d="m494.15,380.09,213.05,0,0,1.95-213.05,0,0-1.95zm211.8-2.775,7.5,3.75-7.5,3.75,0-7.5z" fill-rule="nonzero" fill="#000"/>
<path id="path24488" d="m494.15,419.39,213.05,0,0,1.95-213.05,0,0-1.95zm211.8-2.775,7.5,3.75-7.5,3.75,0-7.5z" fill-rule="nonzero" fill="#000"/>
<path id="path24490" d="m508.55,419.92,0-10.788,170.25-0.4625,0,11.25" fill-rule="evenodd" fill="#F00"/>
<path id="path24492" stroke-linejoin="round" d="m508.55,419.92,0-10.788,170.25-0.4625,0,11.25" stroke="#000" stroke-linecap="butt" stroke-miterlimit="10" stroke-dasharray="none" stroke-width="1.94999993" fill="none"/>
<path id="path24494" d="m495.8,459.14,213.2,0,0,1.95-213.2,0,0-1.95zm211.95-2.775,7.5,3.75-7.5,3.75,0-7.5z" fill-rule="nonzero" fill="#000"/>
<path id="path24496" d="m510.35,459.67,0-10.788,170.1-0.4625,0,11.25" fill-rule="evenodd" fill="#0C6"/>
<path id="path24498" stroke-linejoin="round" d="m510.35,459.67,0-10.788,170.1-0.4625,0,11.25" stroke="#000" stroke-linecap="butt" stroke-miterlimit="10" stroke-dasharray="none" stroke-width="1.94999993" fill="none"/>
<path id="path24500" d="m498.8,499.19,213.05,0,0,1.95-213.05,0,0-1.95zm211.8-2.775,7.5,3.75-7.5,3.75,0-7.5z" fill-rule="nonzero" fill="#000"/>
<path id="path24502" d="m499.4,531.74,213.2,0,0,1.95-213.2,0,0-1.95zm211.95-2.775,7.5,3.75-7.5,3.75,0-7.5z" fill-rule="nonzero" fill="#000"/>
<g id="g24504" transform="matrix(1.25,0,0,-1.25,-36.925601,582.14466)">
<g id="g24506" clip-path="url(#clipPath24508)">
<text id="text24512" transform="matrix(-4.4e-8,1,1,4.4e-8,350.06,63.696)">
<tspan id="tspan24514" style="writing-mode:lr-tb;" font-weight="normal" fill-rule="nonzero" font-size="18px" font-variant="normal" y="0" x="0 5.0040002 10.998 21.006001 31.014 41.021999 50.976002 60.984001 69.984001 78.767998 84.150002 94.157997 104.166 114.102 124.11" font-family="Lora" fill="#000000">frequency bands</tspan>
</text>
</g>
</g>
<g id="g24516" transform="matrix(1.25,0,0,-1.25,-36.925601,582.14466)">
<g id="g24518" clip-path="url(#clipPath24520)">
<path id="path24524" d="m589.11,208.67,0.21-1.41c-0.45-0.08-0.85-0.12-1.2-0.11-0.58,0.01-1.02,0.11-1.33,0.3-0.32,0.18-0.53,0.43-0.66,0.72-0.12,0.3-0.17,0.93-0.15,1.88l0.1,5.37-1.16,0.02,0.03,1.23,1.16-0.02,0.04,2.31,1.59,0.91-0.06-3.26,1.59-0.03-0.02-1.23-1.59,0.03-0.11-5.45c-0.01-0.45,0.01-0.74,0.06-0.87,0.06-0.13,0.15-0.24,0.27-0.32,0.13-0.08,0.3-0.12,0.54-0.12,0.17-0.01,0.41,0.01,0.69,0.05zm1.79,9.61,0.03,1.82,1.59-0.03-0.04-1.82-1.58,0.03zm-0.22-11.06,0.18,9.33,1.59-0.03-0.19-9.33-1.58,0.03zm3.95-0.08,0.19,9.33,1.41-0.02-0.03-1.31c0.31,0.45,0.7,0.81,1.19,1.08,0.5,0.26,1.05,0.39,1.67,0.38,0.69-0.01,1.26-0.17,1.7-0.46,0.43-0.3,0.74-0.71,0.91-1.23,0.76,1.08,1.73,1.61,2.91,1.58,0.93-0.02,1.63-0.29,2.12-0.81s0.72-1.32,0.7-2.38l-0.12-6.41-1.58,0.03,0.12,5.88c0.01,0.63-0.03,1.09-0.13,1.37-0.09,0.28-0.28,0.51-0.54,0.68-0.27,0.18-0.58,0.27-0.95,0.28-0.65,0.01-1.2-0.2-1.64-0.62-0.45-0.43-0.68-1.13-0.7-2.09l-0.1-5.42-1.58,0.03,0.12,6.07c0.01,0.7-0.11,1.23-0.36,1.58-0.25,0.36-0.67,0.55-1.25,0.56-0.45,0.01-0.86-0.1-1.25-0.33-0.38-0.23-0.66-0.56-0.84-1.01s-0.27-1.1-0.29-1.95l-0.1-4.84-1.58,0.03zm21.45,2.59,1.63-0.24c-0.28-0.95-0.77-1.68-1.48-2.19-0.71-0.52-1.6-0.76-2.69-0.74-1.36,0.02-2.44,0.47-3.22,1.32-0.78,0.86-1.16,2.05-1.13,3.56,0.03,1.57,0.46,2.78,1.29,3.63,0.82,0.86,1.88,1.27,3.17,1.24,1.25-0.02,2.26-0.47,3.03-1.33,0.77-0.87,1.15-2.07,1.12-3.61-0.01-0.09-0.01-0.23-0.02-0.42l-6.96,0.14c0.04-1.03,0.31-1.82,0.82-2.38,0.51-0.55,1.16-0.84,1.94-0.85,0.58-0.01,1.08,0.13,1.49,0.43,0.42,0.29,0.75,0.77,1.01,1.44zm-5.15,2.65,5.21-0.1c-0.05,0.79-0.24,1.38-0.56,1.78-0.49,0.62-1.14,0.94-1.94,0.95-0.73,0.02-1.34-0.21-1.85-0.69-0.5-0.48-0.79-1.12-0.86-1.94z" fill-rule="nonzero" fill="#000"/>
</g>
</g>
<g id="g24526" transform="matrix(1.25,0,0,-1.25,-36.925601,582.14466)">
<path id="path24534" d="m206.88,197.64-46.92-60.66,46.92-60.54,0,121.2z" fill-rule="evenodd" fill="url(#linearGradient24528)"/>
</g>
<path id="path24536" d="m108.27,425.99,26.25,0,0-27.15-26.25,0,0,27.15z" fill-rule="evenodd" fill="#FFF"/>
<path id="path24538" stroke-linejoin="miter" d="m108.27,425.99,26.25,0,0-27.15-26.25,0,0,27.15z" stroke="#000" stroke-linecap="butt" stroke-miterlimit="8" stroke-dasharray="none" stroke-width="0.90000004" fill="none"/>
<g id="g24540" transform="matrix(1.25,0,0,-1.25,-36.925601,582.14466)">
<path id="path24548" d="m25.409,147.36-2.249-11.99,2.249-12.73,94.471,0c15.24,2.25-3,9.36-3,13.48s18.24,9.37,3,11.24h-94.471z" fill-rule="evenodd" fill="url(#linearGradient24542)"/>
</g>
<path id="path24550" stroke-linejoin="round" d="m-5.1644,397.94-2.8112,14.988,2.8112,15.912,118.09,0c19.05-2.8125-3.75-11.7-3.75-16.85s22.8-11.712,3.75-14.05h-118.09z" stroke="#000" stroke-linecap="butt" stroke-miterlimit="8" stroke-dasharray="none" stroke-width="0.90000004" fill="none"/>
<path id="path24552" d="m130.77,412.87c0-7.25,2.15-13.125,4.8-13.125s4.8,5.875,4.8,13.125-2.15,13.125-4.8,13.125-4.8-5.875-4.8-13.125z" fill-rule="evenodd" fill="#FFF"/>
<path id="path24554" stroke-linejoin="round" d="m130.77,412.87c0-7.25,2.15-13.125,4.8-13.125s4.8,5.875,4.8,13.125-2.15,13.125-4.8,13.125-4.8-5.875-4.8-13.125z" stroke="#000" stroke-linecap="butt" stroke-miterlimit="8" stroke-dasharray="none" stroke-width="0.90000004" fill="none"/>
<path id="path24556" stroke-linejoin="round" d="m134.6,412.12,21.45,0" stroke="#000" stroke-linecap="butt" stroke-miterlimit="8" stroke-dasharray="none" stroke-width="2.8499999" fill="none"/>
<path id="path24558" stroke-linejoin="round" d="m239.7,420.17c0-3.35-0.625-16.712,7.5-16.588,8.425-0.125,0.925,16.712,8.7375,16.712s2.8125-17.1,10.3-17.1c7.5,0,1.5625,17.1,8.4375,16.975,6.875-0.1375,2.5-16.462,9.3625-16.462,6.875,0,2.5,16.588,10.312,16.588,7.8,0-2.8125-16.588,7.4875-16.588,10.312,0,2.1875,16.588,9.6875,16.462,7.4875-0.1375-2.1875-16.712,6.55-16.588,8.75,0.125,6.25,11.95,7.8125,16.712" stroke="#000" stroke-linecap="butt" stroke-miterlimit="8" stroke-dasharray="none" stroke-width="0.90000004" fill="none"/>
<path id="path24560" stroke-linejoin="round" d="m243.57,348.88c0-4.225-0.3-21.112,3.5875-20.95,4.0375-0.1625,0.45,21.112,4.1875,21.112s1.3375-21.6,4.925-21.6,0.75,21.6,4.0375,21.438c3.2875-0.1625,1.2-20.788,4.4875-20.788s1.2,20.95,4.925,20.95c3.7375,0-1.3375-20.95,3.5875-20.95,4.9375,0,1.05,20.95,4.6375,20.788,3.5875-0.1625-1.05-21.112,3.1375-20.95,4.1875,0.1625,2.9875,15.1,3.7375,21.112" stroke="#000" stroke-linecap="butt" stroke-miterlimit="8" stroke-dasharray="none" stroke-width="0.90000004" fill="none"/>
<path id="path24562" stroke-linejoin="round" d="m237.4,522.12c3.75-7.0375-3.125-17.518,14.688-17.361,18.6-0.15625,4.6875,17.519,22.188,17.519s5-17.831,21.562-17.831,4.225,18.3,20,18.144c15.788-0.15625,7.5-8.1338,14.688-15.954" stroke="#000" stroke-linecap="butt" stroke-miterlimit="8" stroke-dasharray="none" stroke-width="0.90000004" fill="none"/>
<g id="g24564" transform="matrix(1.25,0,0,-1.25,-36.925601,582.14466)">
<g id="g24566" clip-path="url(#clipPath24568)">
<text id="text24572" transform="matrix(1,0,0,-1,42.072,70.008)">
<tspan id="tspan24574" style="writing-mode:lr-tb;" font-weight="normal" fill-rule="nonzero" font-size="18px" font-variant="normal" y="0" x="0 11.052 24.048 39.042 44.046001 53.099998 63.108002 73.115997 77.022003" font-family="Lora" fill="#000000">FDM cable</tspan>
</text>
</g>
</g>
</g>
</svg>
