<!-- Created with Inkscape (http://www.inkscape.org/) -->
<svg id="svg15774" xmlns:rdf="http://www.w3.org/1999/02/22-rdf-syntax-ns#" xmlns="http://www.w3.org/2000/svg" height="86.705" width="616.5" version="1.1" xmlns:cc="http://creativecommons.org/ns#" xmlns:xlink="http://www.w3.org/1999/xlink" xmlns:dc="http://purl.org/dc/elements/1.1/" viewBox="0 0 616.5 86.705">
<defs><style type="text/css">@import url(https://fonts.googleapis.com/css?family=Lora:400,400italic,700,700italic)</style></defs>
<defs id="defs15776">
<clipPath id="clipPath60509" clipPathUnits="userSpaceOnUse">
<path id="path60511" clip-rule="evenodd" d="M0.000010729,0,720,0v540h-720v-540z"/>
</clipPath>
<clipPath id="clipPath60497" clipPathUnits="userSpaceOnUse">
<path id="path60499" clip-rule="evenodd" d="M0.000010729,0,720,0v540h-720v-540z"/>
</clipPath>
<clipPath id="clipPath60485" clipPathUnits="userSpaceOnUse">
<path id="path60487" clip-rule="evenodd" d="M0.000010729,0,720,0v540h-720v-540z"/>
</clipPath>
<clipPath id="clipPath60473" clipPathUnits="userSpaceOnUse">
<path id="path60475" clip-rule="evenodd" d="M0.000010729,0,720,0v540h-720v-540z"/>
</clipPath>
<clipPath id="clipPath60461" clipPathUnits="userSpaceOnUse">
<path id="path60463" clip-rule="evenodd" d="M0.000010729,0,720,0v540h-720v-540z"/>
</clipPath>
<clipPath id="clipPath60449" clipPathUnits="userSpaceOnUse">
<path id="path60451" clip-rule="evenodd" d="M0.000010729,0,720,0v540h-720v-540z"/>
</clipPath>
<clipPath id="clipPath60437" clipPathUnits="userSpaceOnUse">
<path id="path60439" clip-rule="evenodd" d="M0.000010729,0,720,0v540h-720v-540z"/>
</clipPath>
<clipPath id="clipPath60425" clipPathUnits="userSpaceOnUse">
<path id="path60427" clip-rule="evenodd" d="M0.000010729,0,720,0v540h-720v-540z"/>
</clipPath>
<clipPath id="clipPath60413" clipPathUnits="userSpaceOnUse">
<path id="path60415" clip-rule="evenodd" d="M0.000010729,0,720,0v540h-720v-540z"/>
</clipPath>
</defs>
<metadata id="metadata15779">
<rdf:RDF>
<cc:Work rdf:about="">
<dc:format>image/svg+xml</dc:format>
<dc:type rdf:resource="http://purl.org/dc/dcmitype/StillImage"/>
<dc:title/>
</cc:Work>
</rdf:RDF>
</metadata>
<g id="layer1" transform="translate(42.907331,-289.38832)">
<path id="path60393" stroke-linejoin="round" d="m212.83,307.41,0,20.25" stroke="#000" stroke-linecap="butt" stroke-miterlimit="10" stroke-dasharray="none" stroke-width="0.90000004" fill="none"/>
<path id="path60395" d="m-42.468,368.61,615.6,0,0-54-615.6,0,0,54z" fill-rule="evenodd" fill="#00b050"/>
<path id="path60397" stroke-linejoin="round" d="m-42.468,368.61,615.6,0,0-54-615.6,0,0,54z" stroke="#FFF" stroke-linecap="butt" stroke-miterlimit="10" stroke-dasharray="none" stroke-width="0.90000004" fill="none"/>
<path id="path60399" stroke-linejoin="round" d="m55.407,313.79,0,54.225" stroke="#FFF" stroke-linecap="butt" stroke-miterlimit="10" stroke-dasharray="none" stroke-width="1.94999993" fill="none"/>
<path id="path60401" stroke-linejoin="round" d="m127.26,314.09,0,57.5" stroke="#FFF" stroke-linecap="butt" stroke-miterlimit="10" stroke-dasharray="none" stroke-width="1.94999993" fill="none"/>
<path id="path60403" stroke-linejoin="round" d="m198.96,314.54,0,54.062" stroke="#FFF" stroke-linecap="butt" stroke-miterlimit="10" stroke-dasharray="none" stroke-width="1.94999993" fill="none"/>
<path id="path60405" stroke-linejoin="round" d="m224.01,314.09,0,57.188" stroke="#FFF" stroke-linecap="butt" stroke-miterlimit="10" stroke-dasharray="none" stroke-width="1.94999993" fill="none"/>
<path id="path60407" stroke-linejoin="round" d="m417.51,314.69,0,61.412" stroke="#FFF" stroke-linecap="butt" stroke-miterlimit="10" stroke-dasharray="none" stroke-width="1.94999993" fill="none"/>
<g id="g60409" transform="matrix(1.25,0,0,-1.25,-195.31789,719.61068)">
<g id="g60411" clip-path="url(#clipPath60413)">
<text id="text60417" transform="matrix(1,0,0,-1,213.72,306.6)">
<tspan id="tspan60419" style="writing-mode:lr-tb;" font-weight="normal" fill-rule="nonzero" font-size="14.03999996px" font-style="italic" font-variant="normal" y="0" x="0 7.8062401 15.61248 22.660561 26.605801" font-family="Lora" fill="#ffffff">dest.</tspan>
</text>
</g>
</g>
<g id="g60421" transform="matrix(1.25,0,0,-1.25,-195.31789,719.61068)">
<g id="g60423" clip-path="url(#clipPath60425)">
<text id="text60429" transform="matrix(1,0,0,-1,203.98,294.6)">
<tspan id="tspan60431" style="writing-mode:lr-tb;" font-weight="normal" fill-rule="nonzero" font-size="14.03999996px" font-style="italic" font-variant="normal" y="0" x="0 7.8062401 15.61248 23.41872 28.09404 35.90028 42.92028" font-family="Lora" fill="#ffffff">address</tspan>
</text>
</g>
</g>
<g id="g60433" transform="matrix(1.25,0,0,-1.25,-195.31789,719.61068)">
<g id="g60435" clip-path="url(#clipPath60437)">
<text id="text60441" transform="matrix(1,0,0,-1,267.94,305.93)">
<tspan id="tspan60443" style="writing-mode:lr-tb;" font-weight="normal" fill-rule="nonzero" font-size="14.03999996px" font-style="italic" font-variant="normal" y="0" x="0 7.06212 14.86836 22.674601 27.34992 34.412041" font-family="Lora" fill="#ffffff">source</tspan>
</text>
</g>
</g>
<g id="g60445" transform="matrix(1.25,0,0,-1.25,-195.31789,719.61068)">
<g id="g60447" clip-path="url(#clipPath60449)">
<text id="text60453" transform="matrix(1,0,0,-1,264.1,293.93)">
<tspan id="tspan60455" style="writing-mode:lr-tb;" font-weight="normal" fill-rule="nonzero" font-size="14.03999996px" font-style="italic" font-variant="normal" y="0" x="0 7.8062401 15.61248 23.41872 28.09404 35.90028 42.92028" font-family="Lora" fill="#ffffff">address</tspan>
</text>
</g>
</g>
<g id="g60457" transform="matrix(1.25,0,0,-1.25,-195.31789,719.61068)">
<g id="g60459" clip-path="url(#clipPath60461)">
<text id="text60465" transform="matrix(1,0,0,-1,403.22,304.94)">
<tspan id="tspan60467" style="writing-mode:lr-tb;" font-weight="normal" fill-rule="nonzero" font-size="15.98400021px" font-style="italic" font-variant="normal" y="0" x="0 8.8800039 17.760008 22.196461 31.076464" font-family="Lora" fill="#ffffff">data</tspan>
</text>
</g>
</g>
<g id="g60469" transform="matrix(1.25,0,0,-1.25,-195.31789,719.61068)">
<g id="g60471" clip-path="url(#clipPath60473)">
<text id="text60477" transform="matrix(1,0,0,-1,385.46,292.92)">
<tspan id="tspan60479" style="writing-mode:lr-tb;" font-weight="normal" fill-rule="nonzero" font-size="15.96000004px" font-style="italic" font-variant="normal" y="0" x="0 5.3146801 14.18844 23.062201 31.0422 34.665119 43.538879 52.41264 61.2864" font-family="Lora" fill="#ffffff">(payload)</tspan>
</text>
</g>
</g>
<g id="g60481" transform="matrix(1.25,0,0,-1.25,-195.31789,719.61068)">
<g id="g60483" clip-path="url(#clipPath60485)">
<text id="text60489" transform="matrix(1,0,0,-1,529.58,298.8)">
<tspan id="tspan60491" style="writing-mode:lr-tb;" font-weight="normal" fill-rule="nonzero" font-size="15.96000004px" font-style="italic" font-variant="normal" y="0" x="0 11.52 23.040001" font-family="Lora" fill="#ffffff">CRC</tspan>
</text>
</g>
</g>
<g id="g60493" transform="matrix(1.25,0,0,-1.25,-195.31789,719.61068)">
<g id="g60495" clip-path="url(#clipPath60497)">
<text id="text60501" transform="matrix(1,0,0,-1,128.21,297.77)">
<tspan id="tspan60503" style="writing-mode:lr-tb;" font-weight="normal" fill-rule="nonzero" font-size="15.96000004px" font-style="italic" font-variant="normal" y="0" x="0 8.8737602 14.18844 23.062201 31.935961 45.118919 53.99268 57.583679" font-family="Lora" fill="#ffffff">preamble</tspan>
</text>
</g>
</g>
<g id="g60505" transform="matrix(1.25,0,0,-1.25,-195.31789,719.61068)">
<g id="g60507" clip-path="url(#clipPath60509)">
<text id="text60513" transform="matrix(1,0,0,-1,314.11,333.86)">
<tspan id="tspan60515" style="writing-mode:lr-tb;" font-weight="normal" fill-rule="nonzero" font-size="15.96000004px" font-style="italic" font-variant="normal" y="0" x="0 4.4368801 12.46476 21.33852" font-family="Lora" fill="#000000">type</tspan>
</text>
</g>
</g>
</g>
</svg>
