<!-- Created with Inkscape (http://www.inkscape.org/) -->
<svg id="svg15774" xmlns:rdf="http://www.w3.org/1999/02/22-rdf-syntax-ns#" xmlns="http://www.w3.org/2000/svg" height="178.6" width="585.61" version="1.1" xmlns:cc="http://creativecommons.org/ns#" xmlns:xlink="http://www.w3.org/1999/xlink" xmlns:dc="http://purl.org/dc/elements/1.1/" viewBox="0 0 585.61 178.6">
<defs><style type="text/css">@import url(https://fonts.googleapis.com/css?family=Lora:400,400italic,700,700italic)</style></defs>
<defs id="defs15776">
<clipPath id="clipPath25529" clipPathUnits="userSpaceOnUse">
<path id="path25531" clip-rule="evenodd" d="M0.000010729,0,720,0v540h-720v-540z"/>
</clipPath>
<clipPath id="clipPath25517" clipPathUnits="userSpaceOnUse">
<path id="path25519" clip-rule="evenodd" d="M0.000010729,0,720,0v540h-720v-540z"/>
</clipPath>
<clipPath id="clipPath25505" clipPathUnits="userSpaceOnUse">
<path id="path25507" clip-rule="evenodd" d="M0.000010729,0,720,0v540h-720v-540z"/>
</clipPath>
<clipPath id="clipPath25493" clipPathUnits="userSpaceOnUse">
<path id="path25495" clip-rule="evenodd" d="M0.000010729,0,720,0v540h-720v-540z"/>
</clipPath>
<clipPath id="clipPath25481" clipPathUnits="userSpaceOnUse">
<path id="path25483" clip-rule="evenodd" d="M0.000010729,0,720,0v540h-720v-540z"/>
</clipPath>
<clipPath id="clipPath25469" clipPathUnits="userSpaceOnUse">
<path id="path25471" clip-rule="evenodd" d="M0.000010729,0,720,0v540h-720v-540z"/>
</clipPath>
<clipPath id="clipPath25457" clipPathUnits="userSpaceOnUse">
<path id="path25459" clip-rule="evenodd" d="M0.000010729,0,720,0v540h-720v-540z"/>
</clipPath>
<clipPath id="clipPath25445" clipPathUnits="userSpaceOnUse">
<path id="path25447" clip-rule="evenodd" d="M0.000010729,0,720,0v540h-720v-540z"/>
</clipPath>
<clipPath id="clipPath25433" clipPathUnits="userSpaceOnUse">
<path id="path25435" clip-rule="evenodd" d="M0.000010729,0,720,0v540h-720v-540z"/>
</clipPath>
<clipPath id="clipPath25399" clipPathUnits="userSpaceOnUse">
<path id="path25401" clip-rule="evenodd" d="M0.000010729,0,720,0v540h-720v-540z"/>
</clipPath>
<clipPath id="clipPath25387" clipPathUnits="userSpaceOnUse">
<path id="path25389" clip-rule="evenodd" d="M0.000010729,0,720,0v540h-720v-540z"/>
</clipPath>
<clipPath id="clipPath25375" clipPathUnits="userSpaceOnUse">
<path id="path25377" clip-rule="evenodd" d="M0.000010729,0,720,0v540h-720v-540z"/>
</clipPath>
<clipPath id="clipPath25363" clipPathUnits="userSpaceOnUse">
<path id="path25365" clip-rule="evenodd" d="M0.000010729,0,720,0v540h-720v-540z"/>
</clipPath>
<clipPath id="clipPath25347" clipPathUnits="userSpaceOnUse">
<path id="path25349" clip-rule="evenodd" d="M0.000010729,0,720,0v540h-720v-540z"/>
</clipPath>
<clipPath id="clipPath25331" clipPathUnits="userSpaceOnUse">
<path id="path25333" clip-rule="evenodd" d="M0.000010729,0,720,0v540h-720v-540z"/>
</clipPath>
<clipPath id="clipPath25315" clipPathUnits="userSpaceOnUse">
<path id="path25317" clip-rule="evenodd" d="M0.000010729,0,720,0v540h-720v-540z"/>
</clipPath>
<clipPath id="clipPath25299" clipPathUnits="userSpaceOnUse">
<path id="path25301" clip-rule="evenodd" d="M0.000010729,0,720,0v540h-720v-540z"/>
</clipPath>
<clipPath id="clipPath25283" clipPathUnits="userSpaceOnUse">
<path id="path25285" clip-rule="evenodd" d="M0.000010729,0,720,0v540h-720v-540z"/>
</clipPath>
<clipPath id="clipPath25267" clipPathUnits="userSpaceOnUse">
<path id="path25269" clip-rule="evenodd" d="M0.000010729,0,720,0v540h-720v-540z"/>
</clipPath>
<clipPath id="clipPath25251" clipPathUnits="userSpaceOnUse">
<path id="path25253" clip-rule="evenodd" d="M0.000010729,0,720,0v540h-720v-540z"/>
</clipPath>
<clipPath id="clipPath25235" clipPathUnits="userSpaceOnUse">
<path id="path25237" clip-rule="evenodd" d="M0.000010729,0,720,0v540h-720v-540z"/>
</clipPath>
<clipPath id="clipPath25219" clipPathUnits="userSpaceOnUse">
<path id="path25221" clip-rule="evenodd" d="M0.000010729,0,720,0v540h-720v-540z"/>
</clipPath>
</defs>
<metadata id="metadata15779">
<rdf:RDF>
<cc:Work rdf:about="">
<dc:format>image/svg+xml</dc:format>
<dc:type rdf:resource="http://purl.org/dc/dcmitype/StillImage"/>
<dc:title/>
</cc:Work>
</rdf:RDF>
</metadata>
<g id="layer1" transform="translate(-89.488667,-328.65625)">
<path id="path25211" d="m164.49,355.51,44.25,0,0-26.4-44.25,0,0,26.4z" fill-rule="evenodd" fill="#FF0"/>
<path id="path25213" stroke-linejoin="miter" d="m164.49,355.51,44.25,0,0-26.4-44.25,0,0,26.4z" stroke="#000" stroke-linecap="butt" stroke-miterlimit="10" stroke-dasharray="none" stroke-width="0.90000004" fill="none"/>
<g id="g25215" transform="matrix(1.25,0,0,-1.25,-21.956763,867.91089)">
<g id="g25217" clip-path="url(#clipPath25219)">
<text id="text25223" transform="matrix(1,0,0,-1,162.72,416.42)">
<tspan id="tspan25225" style="writing-mode:lr-tb;" font-weight="bold" fill-rule="nonzero" font-size="14.03999996px" font-variant="normal" y="0" x="0" font-family="Lora" fill="#000000">1</tspan>
</text>
</g>
</g>
<path id="path25227" d="m260.94,355.81,44.25,0,0-26.4-44.25,0,0,26.4z" fill-rule="evenodd" fill="#FF0"/>
<path id="path25229" stroke-linejoin="miter" d="m260.94,355.81,44.25,0,0-26.4-44.25,0,0,26.4z" stroke="#000" stroke-linecap="butt" stroke-miterlimit="10" stroke-dasharray="none" stroke-width="0.90000004" fill="none"/>
<g id="g25231" transform="matrix(1.25,0,0,-1.25,-21.956763,867.91089)">
<g id="g25233" clip-path="url(#clipPath25235)">
<text id="text25239" transform="matrix(1,0,0,-1,240,416.18)">
<tspan id="tspan25241" style="writing-mode:lr-tb;" font-weight="bold" fill-rule="nonzero" font-size="14.03999996px" font-variant="normal" y="0" x="0" font-family="Lora" fill="#000000">1</tspan>
</text>
</g>
</g>
<path id="path25243" d="m412.29,356.11,44.25,0,0-26.55-44.25,0,0,26.55z" fill-rule="evenodd" fill="#FF0"/>
<path id="path25245" stroke-linejoin="miter" d="m412.29,356.11,44.25,0,0-26.55-44.25,0,0,26.55z" stroke="#000" stroke-linecap="butt" stroke-miterlimit="10" stroke-dasharray="none" stroke-width="0.90000004" fill="none"/>
<g id="g25247" transform="matrix(1.25,0,0,-1.25,-21.956763,867.91089)">
<g id="g25249" clip-path="url(#clipPath25251)">
<text id="text25255" transform="matrix(1,0,0,-1,361.01,416.06)">
<tspan id="tspan25257" style="writing-mode:lr-tb;" font-weight="bold" fill-rule="nonzero" font-size="14.03999996px" font-variant="normal" y="0" x="0" font-family="Lora" fill="#000000">1</tspan>
</text>
</g>
</g>
<path id="path25259" d="m512.19,355.51,44.25,0,0-26.4-44.25,0,0,26.4z" fill-rule="evenodd" fill="#FF0"/>
<path id="path25261" stroke-linejoin="miter" d="m512.19,355.51,44.25,0,0-26.4-44.25,0,0,26.4z" stroke="#000" stroke-linecap="butt" stroke-miterlimit="10" stroke-dasharray="none" stroke-width="0.90000004" fill="none"/>
<g id="g25263" transform="matrix(1.25,0,0,-1.25,-21.956763,867.91089)">
<g id="g25265" clip-path="url(#clipPath25267)">
<text id="text25271" transform="matrix(1,0,0,-1,441.02,416.42)">
<tspan id="tspan25273" style="writing-mode:lr-tb;" font-weight="bold" fill-rule="nonzero" font-size="14.03999996px" font-variant="normal" y="0" x="0" font-family="Lora" fill="#000000">1</tspan>
</text>
</g>
</g>
<path id="path25275" d="m164.64,406.06,44.25,0,0-26.4-44.25,0,0,26.4z" fill-rule="evenodd" fill="#3C3"/>
<path id="path25277" stroke-linejoin="miter" d="m164.64,406.06,44.25,0,0-26.4-44.25,0,0,26.4z" stroke="#000" stroke-linecap="butt" stroke-miterlimit="10" stroke-dasharray="none" stroke-width="0.90000004" fill="none"/>
<g id="g25279" transform="matrix(1.25,0,0,-1.25,-21.956763,867.91089)">
<g id="g25281" clip-path="url(#clipPath25283)">
<text id="text25287" transform="matrix(1,0,0,-1,162.98,375.67)">
<tspan id="tspan25289" style="writing-mode:lr-tb;" font-weight="bold" fill-rule="nonzero" font-size="14.03999996px" font-variant="normal" y="0" x="0" font-family="Lora" fill="#000000">2</tspan>
</text>
</g>
</g>
<path id="path25291" d="m164.79,456.16,44.25,0,0-26.4-44.25,0,0,26.4z" fill-rule="evenodd" fill="#d60093"/>
<path id="path25293" stroke-linejoin="miter" d="m164.79,456.16,44.25,0,0-26.4-44.25,0,0,26.4z" stroke="#000" stroke-linecap="butt" stroke-miterlimit="10" stroke-dasharray="none" stroke-width="0.90000004" fill="none"/>
<g id="g25295" transform="matrix(1.25,0,0,-1.25,-21.956763,867.91089)">
<g id="g25297" clip-path="url(#clipPath25299)">
<text id="text25303" transform="matrix(1,0,0,-1,162.24,335.54)">
<tspan id="tspan25305" style="writing-mode:lr-tb;" font-weight="bold" fill-rule="nonzero" font-size="14.03999996px" font-variant="normal" y="0" x="0" font-family="Lora" fill="#000000">3</tspan>
</text>
</g>
</g>
<path id="path25307" d="m261.99,406.21,44.25,0,0-26.4-44.25,0,0,26.4z" fill-rule="evenodd" fill="#3C3"/>
<path id="path25309" stroke-linejoin="miter" d="m261.99,406.21,44.25,0,0-26.4-44.25,0,0,26.4z" stroke="#000" stroke-linecap="butt" stroke-miterlimit="10" stroke-dasharray="none" stroke-width="0.90000004" fill="none"/>
<g id="g25311" transform="matrix(1.25,0,0,-1.25,-21.956763,867.91089)">
<g id="g25313" clip-path="url(#clipPath25315)">
<text id="text25319" transform="matrix(1,0,0,-1,240.86,375.55)">
<tspan id="tspan25321" style="writing-mode:lr-tb;" font-weight="bold" fill-rule="nonzero" font-size="14.03999996px" font-variant="normal" y="0" x="0" font-family="Lora" fill="#000000">2</tspan>
</text>
</g>
</g>
<path id="path25323" d="m312.84,406.36,44.25,0,0-26.4-44.25,0,0,26.4z" fill-rule="evenodd" fill="#3C3"/>
<path id="path25325" stroke-linejoin="miter" d="m312.84,406.36,44.25,0,0-26.4-44.25,0,0,26.4z" stroke="#000" stroke-linecap="butt" stroke-miterlimit="10" stroke-dasharray="none" stroke-width="0.90000004" fill="none"/>
<g id="g25327" transform="matrix(1.25,0,0,-1.25,-21.956763,867.91089)">
<g id="g25329" clip-path="url(#clipPath25331)">
<text id="text25335" transform="matrix(1,0,0,-1,281.62,375.43)">
<tspan id="tspan25337" style="writing-mode:lr-tb;" font-weight="bold" fill-rule="nonzero" font-size="14.03999996px" font-variant="normal" y="0" x="0" font-family="Lora" fill="#000000">2</tspan>
</text>
</g>
</g>
<path id="path25339" d="m412.44,456.31,44.25,0,0-26.4-44.25,0,0,26.4z" fill-rule="evenodd" fill="#d60093"/>
<path id="path25341" stroke-linejoin="miter" d="m412.44,456.31,44.25,0,0-26.4-44.25,0,0,26.4z" stroke="#000" stroke-linecap="butt" stroke-miterlimit="10" stroke-dasharray="none" stroke-width="0.90000004" fill="none"/>
<g id="g25343" transform="matrix(1.25,0,0,-1.25,-21.956763,867.91089)">
<g id="g25345" clip-path="url(#clipPath25347)">
<text id="text25351" transform="matrix(1,0,0,-1,360.38,335.42)">
<tspan id="tspan25353" style="writing-mode:lr-tb;" font-weight="bold" fill-rule="nonzero" font-size="14.06400013px" font-variant="normal" y="0" x="0" font-family="Lora" fill="#000000">3</tspan>
</text>
</g>
</g>
<path id="path25355" d="m561.24,456.46,44.1,0,0-26.4-44.1,0,0,26.4z" fill-rule="evenodd" fill="#d60093"/>
<path id="path25357" stroke-linejoin="miter" d="m561.24,456.46,44.1,0,0-26.4-44.1,0,0,26.4z" stroke="#000" stroke-linecap="butt" stroke-miterlimit="10" stroke-dasharray="none" stroke-width="0.90000004" fill="none"/>
<g id="g25359" transform="matrix(1.25,0,0,-1.25,-21.956763,867.91089)">
<g id="g25361" clip-path="url(#clipPath25363)">
<text id="text25367" transform="matrix(1,0,0,-1,479.4,335.28)">
<tspan id="tspan25369" style="writing-mode:lr-tb;" font-weight="bold" fill-rule="nonzero" font-size="14.03999996px" font-variant="normal" y="0" x="0" font-family="Lora" fill="#000000">3</tspan>
</text>
</g>
</g>
<g id="g25371" transform="matrix(1.25,0,0,-1.25,-21.956763,867.91089)">
<g id="g25373" clip-path="url(#clipPath25375)">
<text id="text25379" transform="matrix(1,0,0,-1,89.592,413.69)">
<tspan id="tspan25381" style="writing-mode:lr-tb;" font-weight="normal" fill-rule="nonzero" font-size="14.03999996px" font-variant="normal" y="0" x="0 7.8062401 15.61248 23.41872 31.22496 34.91748" font-family="Lora" fill="#000000">node 1</tspan>
</text>
</g>
</g>
<g id="g25383" transform="matrix(1.25,0,0,-1.25,-21.956763,867.91089)">
<g id="g25385" clip-path="url(#clipPath25387)">
<text id="text25391" transform="matrix(1,0,0,-1,88.224,373.18)">
<tspan id="tspan25393" style="writing-mode:lr-tb;" font-weight="normal" fill-rule="nonzero" font-size="14.03999996px" font-variant="normal" y="0" x="0 7.8062401 15.61248 23.41872 31.22496 34.91748" font-family="Lora" fill="#000000">node 2</tspan>
</text>
</g>
</g>
<g id="g25395" transform="matrix(1.25,0,0,-1.25,-21.956763,867.91089)">
<g id="g25397" clip-path="url(#clipPath25399)">
<text id="text25403" transform="matrix(1,0,0,-1,91.848,333.53)">
<tspan id="tspan25405" style="writing-mode:lr-tb;" font-weight="normal" fill-rule="nonzero" font-size="14.03999996px" font-variant="normal" y="0" x="0 7.8062401 15.61248 23.41872 31.22496 34.91748" font-family="Lora" fill="#000000">node 3</tspan>
</text>
</g>
</g>
<path id="path25407" stroke-linejoin="round" d="m162.24,479.41,512.85,0" stroke="#000" stroke-linecap="butt" stroke-miterlimit="10" stroke-dasharray="none" stroke-width="0.90000004" fill="none"/>
<path id="path25409" stroke-linejoin="round" d="m162.62,469.74,0,20.85" stroke="#000" stroke-linecap="butt" stroke-miterlimit="10" stroke-dasharray="none" stroke-width="1.94999993" fill="none"/>
<path id="path25411" stroke-linejoin="round" d="m211.82,469.74,0,20.85" stroke="#000" stroke-linecap="butt" stroke-miterlimit="10" stroke-dasharray="none" stroke-width="1.94999993" fill="none"/>
<path id="path25413" stroke-linejoin="round" d="m261.47,469.44,0,20.85" stroke="#000" stroke-linecap="butt" stroke-miterlimit="10" stroke-dasharray="none" stroke-width="1.94999993" fill="none"/>
<path id="path25415" stroke-linejoin="round" d="m311.27,469.74,0,20.85" stroke="#000" stroke-linecap="butt" stroke-miterlimit="10" stroke-dasharray="none" stroke-width="1.94999993" fill="none"/>
<path id="path25417" stroke-linejoin="round" d="m360.92,469.44,0,20.85" stroke="#000" stroke-linecap="butt" stroke-miterlimit="10" stroke-dasharray="none" stroke-width="1.94999993" fill="none"/>
<path id="path25419" stroke-linejoin="round" d="m410.87,469.74,0,20.85" stroke="#000" stroke-linecap="butt" stroke-miterlimit="10" stroke-dasharray="none" stroke-width="1.94999993" fill="none"/>
<path id="path25421" stroke-linejoin="round" d="m460.67,469.74,0,20.85" stroke="#000" stroke-linecap="butt" stroke-miterlimit="10" stroke-dasharray="none" stroke-width="1.94999993" fill="none"/>
<path id="path25423" stroke-linejoin="round" d="m510.32,469.44,0,20.85" stroke="#000" stroke-linecap="butt" stroke-miterlimit="10" stroke-dasharray="none" stroke-width="1.94999993" fill="none"/>
<path id="path25425" stroke-linejoin="round" d="m560.27,469.14,0,20.85" stroke="#000" stroke-linecap="butt" stroke-miterlimit="10" stroke-dasharray="none" stroke-width="1.94999993" fill="none"/>
<path id="path25427" stroke-linejoin="round" d="m608.42,468.84,0,20.85" stroke="#000" stroke-linecap="butt" stroke-miterlimit="10" stroke-dasharray="none" stroke-width="1.94999993" fill="none"/>
<g id="g25429" transform="matrix(1.25,0,0,-1.25,-21.956763,867.91089)">
<g id="g25431" clip-path="url(#clipPath25433)">
<text id="text25437" transform="matrix(1,0,0,-1,159.72,289.44)">
<tspan id="tspan25439" style="writing-mode:lr-tb;" font-weight="bold" fill-rule="nonzero" font-size="18px" font-variant="normal" y="0" x="0" font-family="Lora" fill="#000099">C</tspan>
</text>
</g>
</g>
<g id="g25441" transform="matrix(1.25,0,0,-1.25,-21.956763,867.91089)">
<g id="g25443" clip-path="url(#clipPath25445)">
<text id="text25449" transform="matrix(1,0,0,-1,240,288.7)">
<tspan id="tspan25451" style="writing-mode:lr-tb;" font-weight="bold" fill-rule="nonzero" font-size="18px" font-variant="normal" y="0" x="0" font-family="Lora" fill="#000099">C</tspan>
</text>
</g>
</g>
<g id="g25453" transform="matrix(1.25,0,0,-1.25,-21.956763,867.91089)">
<g id="g25455" clip-path="url(#clipPath25457)">
<text id="text25461" transform="matrix(1,0,0,-1,359.26,288.7)">
<tspan id="tspan25463" style="writing-mode:lr-tb;" font-weight="bold" fill-rule="nonzero" font-size="18px" font-variant="normal" y="0" x="0" font-family="Lora" fill="#000099">C</tspan>
</text>
</g>
</g>
<g id="g25465" transform="matrix(1.25,0,0,-1.25,-21.956763,867.91089)">
<g id="g25467" clip-path="url(#clipPath25469)">
<text id="text25473" transform="matrix(1,0,0,-1,280.49,288.7)">
<tspan id="tspan25475" style="writing-mode:lr-tb;" font-weight="bold" fill-rule="nonzero" font-size="18px" font-variant="normal" y="0" x="0" font-family="Lora" fill="#000099">S</tspan>
</text>
</g>
</g>
<g id="g25477" transform="matrix(1.25,0,0,-1.25,-21.956763,867.91089)">
<g id="g25479" clip-path="url(#clipPath25481)">
<text id="text25485" transform="matrix(1,0,0,-1,438.02,288.7)">
<tspan id="tspan25487" style="writing-mode:lr-tb;" font-weight="bold" fill-rule="nonzero" font-size="18px" font-variant="normal" y="0" x="0" font-family="Lora" fill="#000099">S</tspan>
</text>
</g>
</g>
<g id="g25489" transform="matrix(1.25,0,0,-1.25,-21.956763,867.91089)">
<g id="g25491" clip-path="url(#clipPath25493)">
<text id="text25497" transform="matrix(1,0,0,-1,476.28,289.44)">
<tspan id="tspan25499" style="writing-mode:lr-tb;" font-weight="bold" fill-rule="nonzero" font-size="18px" font-variant="normal" y="0" x="0" font-family="Lora" fill="#000099">S</tspan>
</text>
</g>
</g>
<g id="g25501" transform="matrix(1.25,0,0,-1.25,-21.956763,867.91089)">
<g id="g25503" clip-path="url(#clipPath25505)">
<text id="text25509" transform="matrix(1,0,0,-1,200.23,289.44)">
<tspan id="tspan25511" style="writing-mode:lr-tb;" font-weight="bold" fill-rule="nonzero" font-size="18px" font-variant="normal" y="0" x="0" font-family="Lora" fill="#000099">E</tspan>
</text>
</g>
</g>
<g id="g25513" transform="matrix(1.25,0,0,-1.25,-21.956763,867.91089)">
<g id="g25515" clip-path="url(#clipPath25517)">
<text id="text25521" transform="matrix(1,0,0,-1,320.26,288.7)">
<tspan id="tspan25523" style="writing-mode:lr-tb;" font-weight="bold" fill-rule="nonzero" font-size="18px" font-variant="normal" y="0" x="0" font-family="Lora" fill="#000099">E</tspan>
</text>
</g>
</g>
<g id="g25525" transform="matrix(1.25,0,0,-1.25,-21.956763,867.91089)">
<g id="g25527" clip-path="url(#clipPath25529)">
<text id="text25533" transform="matrix(1,0,0,-1,399.02,288.7)">
<tspan id="tspan25535" style="writing-mode:lr-tb;" font-weight="bold" fill-rule="nonzero" font-size="18px" font-variant="normal" y="0" x="0" font-family="Lora" fill="#000099">E</tspan>
</text>
</g>
</g>
</g>
</svg>
