<!-- Created with Inkscape (http://www.inkscape.org/) -->
<svg id="svg15774" xmlns:rdf="http://www.w3.org/1999/02/22-rdf-syntax-ns#" xmlns="http://www.w3.org/2000/svg" height="78.354" width="598.78" version="1.1" xmlns:cc="http://creativecommons.org/ns#" xmlns:xlink="http://www.w3.org/1999/xlink" xmlns:dc="http://purl.org/dc/elements/1.1/" viewBox="0 0 598.78 78.354">
<defs><style type="text/css">@import url(https://fonts.googleapis.com/css?family=Lora:400,400italic,700,700italic)</style></defs>
<defs id="defs15776">
<clipPath id="clipPath23829" clipPathUnits="userSpaceOnUse">
<path id="path23831" clip-rule="evenodd" d="M0.000010729,0,720,0v540h-720v-540z"/>
</clipPath>
<clipPath id="clipPath23817" clipPathUnits="userSpaceOnUse">
<path id="path23819" clip-rule="evenodd" d="M0.000010729,0,720,0v540h-720v-540z"/>
</clipPath>
<clipPath id="clipPath23805" clipPathUnits="userSpaceOnUse">
<path id="path23807" clip-rule="evenodd" d="M0.000010729,0,720,0v540h-720v-540z"/>
</clipPath>
<clipPath id="clipPath23793" clipPathUnits="userSpaceOnUse">
<path id="path23795" clip-rule="evenodd" d="M0.000010729,0,720,0v540h-720v-540z"/>
</clipPath>
<clipPath id="clipPath23769" clipPathUnits="userSpaceOnUse">
<path id="path23771" clip-rule="evenodd" d="M0.000010729,0,720,0v540h-720v-540z"/>
</clipPath>
<clipPath id="clipPath23757" clipPathUnits="userSpaceOnUse">
<path id="path23759" clip-rule="evenodd" d="M0.000010729,0,720,0v540h-720v-540z"/>
</clipPath>
<clipPath id="clipPath23745" clipPathUnits="userSpaceOnUse">
<path id="path23747" clip-rule="evenodd" d="M0.000010729,0,720,0v540h-720v-540z"/>
</clipPath>
<clipPath id="clipPath23733" clipPathUnits="userSpaceOnUse">
<path id="path23735" clip-rule="evenodd" d="M0.000010729,0,720,0v540h-720v-540z"/>
</clipPath>
<clipPath id="clipPath23699" clipPathUnits="userSpaceOnUse">
<path id="path23701" clip-rule="evenodd" d="M0.000010729,0,720,0v540h-720v-540z"/>
</clipPath>
<clipPath id="clipPath23687" clipPathUnits="userSpaceOnUse">
<path id="path23689" clip-rule="evenodd" d="M0.000010729,0,720,0v540h-720v-540z"/>
</clipPath>
<clipPath id="clipPath23675" clipPathUnits="userSpaceOnUse">
<path id="path23677" clip-rule="evenodd" d="M0.000010729,0,720,0v540h-720v-540z"/>
</clipPath>
<clipPath id="clipPath23649" clipPathUnits="userSpaceOnUse">
<path id="path23651" clip-rule="evenodd" d="M0.000010729,0,720,0v540h-720v-540z"/>
</clipPath>
<clipPath id="clipPath23637" clipPathUnits="userSpaceOnUse">
<path id="path23639" clip-rule="evenodd" d="M0.000010729,0,720,0v540h-720v-540z"/>
</clipPath>
<clipPath id="clipPath23625" clipPathUnits="userSpaceOnUse">
<path id="path23627" clip-rule="evenodd" d="M0.000010729,0,720,0v540h-720v-540z"/>
</clipPath>
</defs>
<metadata id="metadata15779">
<rdf:RDF>
<cc:Work rdf:about="">
<dc:format>image/svg+xml</dc:format>
<dc:type rdf:resource="http://purl.org/dc/dcmitype/StillImage"/>
<dc:title/>
</cc:Work>
</rdf:RDF>
</metadata>
<g id="layer1" transform="translate(-54.34375,-379.08395)">
<path id="path23603" stroke-linejoin="round" d="m54.336,456.63,598.8,0" stroke="#000" stroke-linecap="butt" stroke-miterlimit="10" stroke-dasharray="none" stroke-width="0.90000004" fill="none"/>
<path id="path23605" d="m76.086,456.93,47.25,0,0-22.65-47.25,0,0,22.65z" fill-rule="evenodd" fill="#33C"/>
<path id="path23607" stroke-linejoin="miter" d="m76.086,456.93,47.25,0,0-22.65-47.25,0,0,22.65z" stroke="#000" stroke-linecap="butt" stroke-miterlimit="8" stroke-dasharray="none" stroke-width="0.90000004" fill="none"/>
<path id="path23609" d="m170.59,456.93,47.1,0,0-22.65-47.1,0,0,22.65z" fill-rule="evenodd" fill="#F00"/>
<path id="path23611" stroke-linejoin="miter" d="m170.59,456.93,47.1,0,0-22.65-47.1,0,0,22.65z" stroke="#000" stroke-linecap="butt" stroke-miterlimit="8" stroke-dasharray="none" stroke-width="0.90000004" fill="none"/>
<path id="path23613" d="m217.24,456.93,47.25,0,0-22.65-47.25,0,0,22.65z" fill-rule="evenodd" fill="#0C9"/>
<path id="path23615" stroke-linejoin="miter" d="m217.24,456.93,47.25,0,0-22.65-47.25,0,0,22.65z" stroke="#000" stroke-linecap="butt" stroke-miterlimit="8" stroke-dasharray="none" stroke-width="0.90000004" fill="none"/>
<path id="path23617" stroke-linejoin="round" d="m76.461,423.25,0,33.3" stroke="#000" stroke-linecap="butt" stroke-miterlimit="8" stroke-dasharray="none" stroke-width="2.8499999" fill="none"/>
<path id="path23619" stroke-linejoin="round" d="m358.39,423.48,0,33.3" stroke="#000" stroke-linecap="butt" stroke-miterlimit="8" stroke-dasharray="none" stroke-width="0.90000004" fill="none"/>
<g id="g23621" transform="matrix(1.25,0,0,-1.25,-49.313746,596.12741)">
<g id="g23623" clip-path="url(#clipPath23625)">
<text id="text23629" transform="matrix(1,0,0,-1,115.46,112.82)">
<tspan id="tspan23631" style="writing-mode:lr-tb;" font-weight="bold" fill-rule="nonzero" font-size="15.96000004px" font-variant="normal" y="0" x="0" font-family="Lora" fill="#ffffff">1</tspan>
</text>
</g>
</g>
<g id="g23633" transform="matrix(1.25,0,0,-1.25,-49.313746,596.12741)">
<g id="g23635" clip-path="url(#clipPath23637)">
<text id="text23641" transform="matrix(1,0,0,-1,189.98,113.95)">
<tspan id="tspan23643" style="writing-mode:lr-tb;" font-weight="bold" fill-rule="nonzero" font-size="15.96000004px" font-variant="normal" y="0" x="0" font-family="Lora" fill="#ffffff">3</tspan>
</text>
</g>
</g>
<g id="g23645" transform="matrix(1.25,0,0,-1.25,-49.313746,596.12741)">
<g id="g23647" clip-path="url(#clipPath23649)">
<text id="text23653" transform="matrix(1,0,0,-1,226.61,113.45)">
<tspan id="tspan23655" style="writing-mode:lr-tb;" font-weight="bold" fill-rule="nonzero" font-size="15.96000004px" font-variant="normal" y="0" x="0" font-family="Lora" fill="#ffffff">4</tspan>
</text>
</g>
</g>
<path id="path23657" d="m357.34,456.48,47.25,0,0-22.65-47.25,0,0,22.65z" fill-rule="evenodd" fill="#33C"/>
<path id="path23659" stroke-linejoin="miter" d="m357.34,456.48,47.25,0,0-22.65-47.25,0,0,22.65z" stroke="#000" stroke-linecap="butt" stroke-miterlimit="8" stroke-dasharray="none" stroke-width="0.90000004" fill="none"/>
<path id="path23661" d="m451.84,456.48,47.1,0,0-22.65-47.1,0,0,22.65z" fill-rule="evenodd" fill="#F00"/>
<path id="path23663" stroke-linejoin="miter" d="m451.84,456.48,47.1,0,0-22.65-47.1,0,0,22.65z" stroke="#000" stroke-linecap="butt" stroke-miterlimit="8" stroke-dasharray="none" stroke-width="0.90000004" fill="none"/>
<path id="path23665" d="m498.49,456.48,47.25,0,0-22.65-47.25,0,0,22.65z" fill-rule="evenodd" fill="#0C9"/>
<path id="path23667" stroke-linejoin="miter" d="m498.49,456.48,47.25,0,0-22.65-47.25,0,0,22.65z" stroke="#000" stroke-linecap="butt" stroke-miterlimit="8" stroke-dasharray="none" stroke-width="0.90000004" fill="none"/>
<path id="path23669" stroke-linejoin="round" d="m357.71,422.8,0,33.3" stroke="#000" stroke-linecap="butt" stroke-miterlimit="8" stroke-dasharray="none" stroke-width="3.75" fill="none"/>
<g id="g23671" transform="matrix(1.25,0,0,-1.25,-49.313746,596.12741)">
<g id="g23673" clip-path="url(#clipPath23675)">
<text id="text23679" transform="matrix(1,0,0,-1,340.51,113.18)">
<tspan id="tspan23681" style="writing-mode:lr-tb;" font-weight="bold" fill-rule="nonzero" font-size="15.96000004px" font-variant="normal" y="0" x="0" font-family="Lora" fill="#ffffff">1</tspan>
</text>
</g>
</g>
<g id="g23683" transform="matrix(1.25,0,0,-1.25,-49.313746,596.12741)">
<g id="g23685" clip-path="url(#clipPath23687)">
<text id="text23691" transform="matrix(1,0,0,-1,415.03,114.31)">
<tspan id="tspan23693" style="writing-mode:lr-tb;" font-weight="bold" fill-rule="nonzero" font-size="15.96000004px" font-variant="normal" y="0" x="0" font-family="Lora" fill="#ffffff">3</tspan>
</text>
</g>
</g>
<g id="g23695" transform="matrix(1.25,0,0,-1.25,-49.313746,596.12741)">
<g id="g23697" clip-path="url(#clipPath23699)">
<text id="text23703" transform="matrix(1,0,0,-1,451.66,113.81)">
<tspan id="tspan23705" style="writing-mode:lr-tb;" font-weight="bold" fill-rule="nonzero" font-size="15.96000004px" font-variant="normal" y="0" x="0" font-family="Lora" fill="#ffffff">4</tspan>
</text>
</g>
</g>
<path id="path23707" stroke-linejoin="round" d="m123.71,433.6,0,23.4" stroke="#000" stroke-linecap="butt" stroke-miterlimit="8" stroke-dasharray="none" stroke-width="2.8499999" fill="none"/>
<path id="path23709" stroke-linejoin="round" d="m170.66,434.05,0,23.4" stroke="#000" stroke-linecap="butt" stroke-miterlimit="8" stroke-dasharray="none" stroke-width="2.8499999" fill="none"/>
<path id="path23711" stroke-linejoin="round" d="m217.46,434.05,0,23.4" stroke="#000" stroke-linecap="butt" stroke-miterlimit="8" stroke-dasharray="none" stroke-width="2.8499999" fill="none"/>
<path id="path23713" stroke-linejoin="round" d="m264.41,434.05,0,23.4" stroke="#000" stroke-linecap="butt" stroke-miterlimit="8" stroke-dasharray="none" stroke-width="2.8499999" fill="none"/>
<path id="path23715" stroke-linejoin="round" d="m311.66,433.15,0,23.4" stroke="#000" stroke-linecap="butt" stroke-miterlimit="8" stroke-dasharray="none" stroke-width="2.8499999" fill="none"/>
<path id="path23717" stroke-linejoin="round" d="m404.96,433.6,0,23.4" stroke="#000" stroke-linecap="butt" stroke-miterlimit="8" stroke-dasharray="none" stroke-width="2.8499999" fill="none"/>
<path id="path23719" stroke-linejoin="round" d="m498.26,433.15,0,23.4" stroke="#000" stroke-linecap="butt" stroke-miterlimit="8" stroke-dasharray="none" stroke-width="2.8499999" fill="none"/>
<path id="path23721" stroke-linejoin="round" d="m591.56,432.55,0,23.55" stroke="#000" stroke-linecap="butt" stroke-miterlimit="8" stroke-dasharray="none" stroke-width="2.8499999" fill="none"/>
<path id="path23723" stroke-linejoin="round" d="m545.66,433.6,0,23.4" stroke="#000" stroke-linecap="butt" stroke-miterlimit="8" stroke-dasharray="none" stroke-width="2.8499999" fill="none"/>
<path id="path23725" stroke-linejoin="round" d="m638.96,424.15,0,33.3" stroke="#000" stroke-linecap="butt" stroke-miterlimit="8" stroke-dasharray="none" stroke-width="3.75" fill="none"/>
<path id="path23727" stroke-linejoin="round" d="m451.91,433.6,0,23.4" stroke="#000" stroke-linecap="butt" stroke-miterlimit="8" stroke-dasharray="none" stroke-width="2.8499999" fill="none"/>
<g id="g23729" transform="matrix(1.25,0,0,-1.25,-49.313746,596.12741)">
<g id="g23731" clip-path="url(#clipPath23733)">
<text id="text23737" transform="matrix(1,0,0,-1,189.98,159.96)">
<tspan id="tspan23739" style="writing-mode:lr-tb;" font-weight="normal" fill-rule="nonzero" font-size="15.96000004px" font-variant="normal" y="0" x="0" font-family="Lora" fill="#000000">6</tspan>
</text>
</g>
</g>
<g id="g23741" transform="matrix(1.25,0,0,-1.25,-49.313746,596.12741)">
<g id="g23743" clip-path="url(#clipPath23745)">
<text id="text23749" transform="matrix(1,0,0,-1,198.86,159.96)">
<tspan id="tspan23751" style="writing-mode:lr-tb;" font-weight="normal" fill-rule="nonzero" font-size="15.96000004px" font-variant="normal" y="0" x="0" font-family="Lora" fill="#000000">-</tspan>
</text>
</g>
</g>
<g id="g23753" transform="matrix(1.25,0,0,-1.25,-49.313746,596.12741)">
<g id="g23755" clip-path="url(#clipPath23757)">
<text id="text23761" transform="matrix(1,0,0,-1,204.14,159.96)">
<tspan id="tspan23763" style="writing-mode:lr-tb;" font-weight="normal" fill-rule="nonzero" font-size="15.96000004px" font-variant="normal" y="0" x="0 8.0278797 11.61888 20.49264" font-family="Lora" fill="#000000">slot</tspan>
</text>
</g>
</g>
<g id="g23765" transform="matrix(1.25,0,0,-1.25,-49.313746,596.12741)">
<g id="g23767" clip-path="url(#clipPath23769)">
<text id="text23773" transform="matrix(1,0,0,-1,189.98,140.76)">
<tspan id="tspan23775" style="writing-mode:lr-tb;" font-weight="normal" fill-rule="nonzero" font-size="15.96000004px" font-variant="normal" y="0" x="0 4.4368801 9.7515602 18.62532 31.92" font-family="Lora" fill="#000000">frame</tspan>
</text>
</g>
</g>
<path id="path23777" d="m258.94,404.55,91.1,0,0,1.25-91.1,0,0-1.25zm89.85-3.125,7.5,3.75-7.5,3.75,0-7.5z" fill-rule="nonzero" fill="#000"/>
<path id="path23779" d="m174.79,404.1-91.1,0,0,1.25,91.1,0,0-1.25zm-89.85-3.125-7.5,3.75,7.5,3.75,0-7.5z" fill-rule="nonzero" fill="#000"/>
<g id="g23781" transform="matrix(1.25,0,0,-1.25,-49.313746,596.12741)">
<path id="path23783" stroke-linejoin="round" d="m99.72,159.96,0-24" stroke-dashoffset="0" stroke="#000" stroke-linecap="butt" stroke-miterlimit="8" stroke-dasharray="2.88, 2.16" stroke-width="0.72000003" fill="none"/>
</g>
<g id="g23785" transform="matrix(1.25,0,0,-1.25,-49.313746,596.12741)">
<path id="path23787" stroke-linejoin="round" d="m324.84,160.8,0-24" stroke-dashoffset="0" stroke="#000" stroke-linecap="butt" stroke-miterlimit="8" stroke-dasharray="2.88, 2.16" stroke-width="0.72000003" fill="none"/>
</g>
<g id="g23789" transform="matrix(1.25,0,0,-1.25,-49.313746,596.12741)">
<g id="g23791" clip-path="url(#clipPath23793)">
<text id="text23797" transform="matrix(1,0,0,-1,415.51,162.07)">
<tspan id="tspan23799" style="writing-mode:lr-tb;" font-weight="normal" fill-rule="nonzero" font-size="15.96000004px" font-variant="normal" y="0" x="0" font-family="Lora" fill="#000000">6</tspan>
</text>
</g>
</g>
<g id="g23801" transform="matrix(1.25,0,0,-1.25,-49.313746,596.12741)">
<g id="g23803" clip-path="url(#clipPath23805)">
<text id="text23809" transform="matrix(1,0,0,-1,424.39,162.07)">
<tspan id="tspan23811" style="writing-mode:lr-tb;" font-weight="normal" fill-rule="nonzero" font-size="15.96000004px" font-variant="normal" y="0" x="0" font-family="Lora" fill="#000000">-</tspan>
</text>
</g>
</g>
<g id="g23813" transform="matrix(1.25,0,0,-1.25,-49.313746,596.12741)">
<g id="g23815" clip-path="url(#clipPath23817)">
<text id="text23821" transform="matrix(1,0,0,-1,429.7,162.07)">
<tspan id="tspan23823" style="writing-mode:lr-tb;" font-weight="normal" fill-rule="nonzero" font-size="15.96000004px" font-variant="normal" y="0" x="0 8.0278797 11.61888 20.49264" font-family="Lora" fill="#000000">slot</tspan>
</text>
</g>
</g>
<g id="g23825" transform="matrix(1.25,0,0,-1.25,-49.313746,596.12741)">
<g id="g23827" clip-path="url(#clipPath23829)">
<text id="text23833" transform="matrix(1,0,0,-1,415.51,142.87)">
<tspan id="tspan23835" style="writing-mode:lr-tb;" font-weight="normal" fill-rule="nonzero" font-size="15.96000004px" font-variant="normal" y="0" x="0 4.4368801 9.7515602 18.62532 31.92" font-family="Lora" fill="#000000">frame</tspan>
</text>
</g>
</g>
<path id="path23837" d="m540.79,405.15,91.1,0,0,1.25-91.1,0,0-1.25zm89.85-3.125,7.5,3.75-7.5,3.75,0-7.5z" fill-rule="nonzero" fill="#000"/>
<path id="path23839" d="m456.64,404.7-91.1,0,0,1.25,91.1,0,0-1.25zm-89.85-3.125-7.5,3.75,7.5,3.75,0-7.5z" fill-rule="nonzero" fill="#000"/>
<g id="g23841" transform="matrix(1.25,0,0,-1.25,-49.313746,596.12741)">
<path id="path23843" stroke-linejoin="round" d="m550.32,162.84,0-24" stroke-dashoffset="0" stroke="#000" stroke-linecap="butt" stroke-miterlimit="8" stroke-dasharray="2.88, 2.16" stroke-width="0.72000003" fill="none"/>
</g>
</g>
</svg>
