<!-- Created with Inkscape (http://www.inkscape.org/) -->
<svg id="svg3671" xmlns:rdf="http://www.w3.org/1999/02/22-rdf-syntax-ns#" xmlns="http://www.w3.org/2000/svg" height="65.625" width="398.53" version="1.1" xmlns:cc="http://creativecommons.org/ns#" xmlns:xlink="http://www.w3.org/1999/xlink" xmlns:dc="http://purl.org/dc/elements/1.1/">
<defs id="defs3673">
<clipPath id="clipPath56574" clipPathUnits="userSpaceOnUse">
<path id="path56576" clip-rule="evenodd" d="M0.000010729,0,720,0v540h-720v-540z"/>
</clipPath>
<clipPath id="clipPath56562" clipPathUnits="userSpaceOnUse">
<path id="path56564" clip-rule="evenodd" d="M0.000010729,0,720,0v540h-720v-540z"/>
</clipPath>
</defs>
<metadata id="metadata3676">
<rdf:RDF>
<cc:Work rdf:about="">
<dc:format>image/svg+xml</dc:format>
<dc:type rdf:resource="http://purl.org/dc/dcmitype/StillImage"/>
<dc:title/>
</cc:Work>
</rdf:RDF>
</metadata>
<g id="layer1" transform="translate(578.65625,-316.875)">
<path id="path56528" d="m-577.92,380.85,397.05,0,0-62.4-397.05,0,0,62.4z" fill-rule="evenodd" fill="#3C6"/>
<path id="path56530" stroke-linejoin="miter" d="m-577.92,380.85,397.05,0,0-62.4-397.05,0,0,62.4z" stroke="#000" stroke-linecap="butt" stroke-miterlimit="10" stroke-dasharray="none" stroke-width="1.5" fill="none"/>
<path id="path56532" stroke-linejoin="round" d="m-529.25,318.52,0,11.075" stroke="#FFF" stroke-linecap="butt" stroke-miterlimit="10" stroke-dasharray="none" stroke-width="3.75" fill="none"/>
<path id="path56534" stroke-linejoin="round" d="m-529.4,370.42,0,11.075" stroke="#FFF" stroke-linecap="butt" stroke-miterlimit="10" stroke-dasharray="none" stroke-width="3.75" fill="none"/>
<path id="path56536" stroke-linejoin="round" d="m-479.6,318.37,0,11.075" stroke="#FFF" stroke-linecap="butt" stroke-miterlimit="10" stroke-dasharray="none" stroke-width="3.75" fill="none"/>
<path id="path56538" stroke-linejoin="round" d="m-479.9,370.27,0,11.075" stroke="#FFF" stroke-linecap="butt" stroke-miterlimit="10" stroke-dasharray="none" stroke-width="3.75" fill="none"/>
<path id="path56540" stroke-linejoin="round" d="m-429.05,317.77,0,11.075" stroke="#FFF" stroke-linecap="butt" stroke-miterlimit="10" stroke-dasharray="none" stroke-width="3.75" fill="none"/>
<path id="path56542" stroke-linejoin="round" d="m-429.2,369.67,0,11.075" stroke="#FFF" stroke-linecap="butt" stroke-miterlimit="10" stroke-dasharray="none" stroke-width="3.75" fill="none"/>
<path id="path56544" stroke-linejoin="round" d="m-379.25,318.37,0,11.075" stroke="#FFF" stroke-linecap="butt" stroke-miterlimit="10" stroke-dasharray="none" stroke-width="3.75" fill="none"/>
<path id="path56546" stroke-linejoin="round" d="m-379.55,370.27,0,11.075" stroke="#FFF" stroke-linecap="butt" stroke-miterlimit="10" stroke-dasharray="none" stroke-width="3.75" fill="none"/>
<path id="path56548" stroke-linejoin="round" d="m-328.7,318.37,0,11.075" stroke="#FFF" stroke-linecap="butt" stroke-miterlimit="10" stroke-dasharray="none" stroke-width="3.75" fill="none"/>
<path id="path56550" stroke-linejoin="round" d="m-328.85,370.27,0,11.075" stroke="#FFF" stroke-linecap="butt" stroke-miterlimit="10" stroke-dasharray="none" stroke-width="3.75" fill="none"/>
<path id="path56552" stroke-linejoin="round" d="m-279.05,316.87,0,65.625" stroke="#FFF" stroke-linecap="butt" stroke-miterlimit="10" stroke-dasharray="none" stroke-width="3.75" fill="none"/>
<path id="path56554" stroke-linejoin="round" d="m-228.35,318.52,0,11.075" stroke="#FFF" stroke-linecap="butt" stroke-miterlimit="10" stroke-dasharray="none" stroke-width="3.75" fill="none"/>
<path id="path56556" stroke-linejoin="round" d="m-228.5,370.42,0,11.075" stroke="#FFF" stroke-linecap="butt" stroke-miterlimit="10" stroke-dasharray="none" stroke-width="3.75" fill="none"/>
<g id="g56558" transform="matrix(1.25,0,0,-1.25,-786.57056,586.19642)">
<g id="g56560" clip-path="url(#clipPath56562)">
<text id="text56566" transform="matrix(1,0,0,-1,255.62,180.29)">
<tspan id="tspan56568" style="writing-mode:lr-tb;" font-weight="normal" fill-rule="nonzero" font-size="24px" font-variant="normal" y="0" x="0 17.280001 33.240002 50.52" font-family="Arial" fill="#000000">DSCP</tspan>
</text>
</g>
</g>
<g id="g56570" transform="matrix(1.25,0,0,-1.25,-786.57056,586.19642)">
<g id="g56572" clip-path="url(#clipPath56574)">
<text id="text56578" transform="matrix(1,0,0,-1,414.77,182.04)">
<tspan id="tspan56580" style="writing-mode:lr-tb;" font-weight="normal" fill-rule="nonzero" font-size="18px" font-variant="normal" y="0" x="0 10.008 19.926001 29.934 38.933998 48.852001" font-family="Arial" fill="#000000">unused</tspan>
</text>
</g>
</g>
</g>
</svg>
