<?xml version="1.0" encoding="UTF-8" standalone="no"?>
<!-- Created with Inkscape (http://www.inkscape.org/) -->

<svg
   xmlns:dc="http://purl.org/dc/elements/1.1/"
   xmlns:cc="http://creativecommons.org/ns#"
   xmlns:rdf="http://www.w3.org/1999/02/22-rdf-syntax-ns#"
   xmlns:svg="http://www.w3.org/2000/svg"
   xmlns="http://www.w3.org/2000/svg"
   xmlns:sodipodi="http://sodipodi.sourceforge.net/DTD/sodipodi-0.dtd"
   xmlns:inkscape="http://www.inkscape.org/namespaces/inkscape"
   width="228.16626mm"
   height="127.94589mm"
   viewBox="0 0 808.46311 453.35158"
   id="svg3991"
   version="1.1"
   inkscape:version="0.91 r13725"
   sodipodi:docname="RIPExemplo.svg">
  <defs
     id="defs3993">
    <linearGradient
       x1="289.84"
       y1="323.98001"
       x2="289.84"
       y2="227.83"
       gradientUnits="userSpaceOnUse"
       spreadMethod="pad"
       id="linearGradient258">
      <stop
         style="stop-opacity:1;stop-color:#5f5f5f"
         offset="0"
         id="stop260" />
      <stop
         style="stop-opacity:1;stop-color:#5f5f5f"
         offset="1"
         id="stop262" />
    </linearGradient>
    <linearGradient
       x1="196.63"
       y1="95.535004"
       x2="-56.278"
       y2="95.535004"
       gradientUnits="userSpaceOnUse"
       spreadMethod="pad"
       id="linearGradient4792">
      <stop
         style="stop-opacity:1;stop-color:#ffffff"
         offset="0"
         id="stop4794" />
      <stop
         style="stop-opacity:1;stop-color:#66ccff"
         offset="1"
         id="stop4796" />
    </linearGradient>
    <linearGradient
       x1="491.62"
       y1="112.04"
       x2="744.53003"
       y2="112.04"
       gradientUnits="userSpaceOnUse"
       spreadMethod="pad"
       id="linearGradient4528">
      <stop
         style="stop-opacity:1;stop-color:#ffffff"
         offset="0"
         id="stop4530" />
      <stop
         style="stop-opacity:1;stop-color:#66ccff"
         offset="1"
         id="stop4532" />
    </linearGradient>
    <clipPath
       clipPathUnits="userSpaceOnUse"
       id="clipPath5727">
      <path
         d="M -5.27e-7,540 720,540 720,6.104e-6 -2.089e-6,6.104e-6"
         id="path5729"
         inkscape:connector-curvature="0"
         style="clip-rule:evenodd" />
    </clipPath>
    <clipPath
       clipPathUnits="userSpaceOnUse"
       id="clipPath6261">
      <path
         d="M -4.301e-6,540 720,540 720,6.104e-6 l -720.000005662,0"
         id="path6263"
         inkscape:connector-curvature="0"
         style="clip-rule:evenodd" />
    </clipPath>
    <clipPath
       clipPathUnits="userSpaceOnUse"
       id="clipPath6595">
      <path
         d="m 0,1.2207e-4 720,0 0,539.99999793 -720,0 L 0,1.2207e-4 Z"
         id="path6597"
         inkscape:connector-curvature="0"
         style="clip-rule:evenodd" />
    </clipPath>
    <linearGradient
       x1="94.022003"
       y1="348.88"
       x2="199.98"
       y2="348.88"
       gradientUnits="userSpaceOnUse"
       spreadMethod="pad"
       id="linearGradient7444">
      <stop
         style="stop-opacity:1;stop-color:#ffffff"
         offset="0"
         id="stop7446" />
      <stop
         style="stop-opacity:1;stop-color:#ffffff"
         offset="1"
         id="stop7448" />
    </linearGradient>
    <linearGradient
       x1="94.100998"
       y1="343.26001"
       x2="200.38"
       y2="343.26001"
       gradientUnits="userSpaceOnUse"
       spreadMethod="pad"
       id="linearGradient7434">
      <stop
         style="stop-opacity:1;stop-color:#ffffff"
         offset="0"
         id="stop7436" />
      <stop
         style="stop-opacity:1;stop-color:#ffffff"
         offset="1"
         id="stop7438" />
    </linearGradient>
    <linearGradient
       x1="94.339996"
       y1="339.04999"
       x2="200.14"
       y2="339.04999"
       gradientUnits="userSpaceOnUse"
       spreadMethod="pad"
       id="linearGradient7422">
      <stop
         style="stop-opacity:1;stop-color:#ffffff"
         offset="0"
         id="stop7424" />
      <stop
         style="stop-opacity:1;stop-color:#ffffff"
         offset="1"
         id="stop7426" />
    </linearGradient>
    <linearGradient
       x1="231.27"
       y1="295.88"
       x2="337.23001"
       y2="295.88"
       gradientUnits="userSpaceOnUse"
       spreadMethod="pad"
       id="linearGradient7402">
      <stop
         style="stop-opacity:1;stop-color:#ffffff"
         offset="0"
         id="stop7404" />
      <stop
         style="stop-opacity:1;stop-color:#ffffff"
         offset="1"
         id="stop7406" />
    </linearGradient>
    <linearGradient
       x1="231.35001"
       y1="290.26001"
       x2="337.63"
       y2="290.26001"
       gradientUnits="userSpaceOnUse"
       spreadMethod="pad"
       id="linearGradient7392">
      <stop
         style="stop-opacity:1;stop-color:#ffffff"
         offset="0"
         id="stop7394" />
      <stop
         style="stop-opacity:1;stop-color:#ffffff"
         offset="1"
         id="stop7396" />
    </linearGradient>
    <linearGradient
       x1="284.48999"
       y1="286.04999"
       x2="337.39001"
       y2="286.04999"
       gradientUnits="userSpaceOnUse"
       spreadMethod="pad"
       id="linearGradient7380">
      <stop
         style="stop-opacity:1;stop-color:#ccccff"
         offset="0"
         id="stop7382" />
      <stop
         style="stop-opacity:1;stop-color:#ffffff"
         offset="1"
         id="stop7384" />
    </linearGradient>
    <linearGradient
       x1="532.90002"
       y1="350.75"
       x2="638.84998"
       y2="350.75"
       gradientUnits="userSpaceOnUse"
       spreadMethod="pad"
       id="linearGradient7360">
      <stop
         style="stop-opacity:1;stop-color:#ffffff"
         offset="0"
         id="stop7362" />
      <stop
         style="stop-opacity:1;stop-color:#ffffff"
         offset="1"
         id="stop7364" />
    </linearGradient>
    <linearGradient
       x1="532.97998"
       y1="345.13"
       x2="639.25"
       y2="345.13"
       gradientUnits="userSpaceOnUse"
       spreadMethod="pad"
       id="linearGradient7350">
      <stop
         style="stop-opacity:1;stop-color:#ffffff"
         offset="0"
         id="stop7352" />
      <stop
         style="stop-opacity:1;stop-color:#ffffff"
         offset="1"
         id="stop7354" />
    </linearGradient>
    <linearGradient
       x1="533.21002"
       y1="340.92001"
       x2="639.01001"
       y2="340.92001"
       gradientUnits="userSpaceOnUse"
       spreadMethod="pad"
       id="linearGradient7338">
      <stop
         style="stop-opacity:1;stop-color:#ffffff"
         offset="0"
         id="stop7340" />
      <stop
         style="stop-opacity:1;stop-color:#ffffff"
         offset="1"
         id="stop7342" />
    </linearGradient>
    <linearGradient
       x1="372.51999"
       y1="350.38"
       x2="478.48001"
       y2="350.38"
       gradientUnits="userSpaceOnUse"
       spreadMethod="pad"
       id="linearGradient7318">
      <stop
         style="stop-opacity:1;stop-color:#ffffff"
         offset="0"
         id="stop7320" />
      <stop
         style="stop-opacity:1;stop-color:#ffffff"
         offset="1"
         id="stop7322" />
    </linearGradient>
    <linearGradient
       x1="372.60001"
       y1="344.76001"
       x2="478.88"
       y2="344.76001"
       gradientUnits="userSpaceOnUse"
       spreadMethod="pad"
       id="linearGradient7308">
      <stop
         style="stop-opacity:1;stop-color:#ffffff"
         offset="0"
         id="stop7310" />
      <stop
         style="stop-opacity:1;stop-color:#ffffff"
         offset="1"
         id="stop7312" />
    </linearGradient>
    <linearGradient
       x1="372.84"
       y1="340.54999"
       x2="478.64001"
       y2="340.54999"
       gradientUnits="userSpaceOnUse"
       spreadMethod="pad"
       id="linearGradient7296">
      <stop
         style="stop-opacity:1;stop-color:#ffffff"
         offset="0"
         id="stop7298" />
      <stop
         style="stop-opacity:1;stop-color:#ffffff"
         offset="1"
         id="stop7300" />
    </linearGradient>
    <linearGradient
       x1="232.39999"
       y1="351.75"
       x2="338.35001"
       y2="351.75"
       gradientUnits="userSpaceOnUse"
       spreadMethod="pad"
       id="linearGradient7276">
      <stop
         style="stop-opacity:1;stop-color:#ffffff"
         offset="0"
         id="stop7278" />
      <stop
         style="stop-opacity:1;stop-color:#ffffff"
         offset="1"
         id="stop7280" />
    </linearGradient>
    <linearGradient
       x1="232.48"
       y1="346.13"
       x2="338.75"
       y2="346.13"
       gradientUnits="userSpaceOnUse"
       spreadMethod="pad"
       id="linearGradient7266">
      <stop
         style="stop-opacity:1;stop-color:#ffffff"
         offset="0"
         id="stop7268" />
      <stop
         style="stop-opacity:1;stop-color:#ffffff"
         offset="1"
         id="stop7270" />
    </linearGradient>
    <linearGradient
       x1="232.71001"
       y1="341.92001"
       x2="338.51001"
       y2="341.92001"
       gradientUnits="userSpaceOnUse"
       spreadMethod="pad"
       id="linearGradient7254">
      <stop
         style="stop-opacity:1;stop-color:#ffffff"
         offset="0"
         id="stop7256" />
      <stop
         style="stop-opacity:1;stop-color:#ffffff"
         offset="1"
         id="stop7258" />
    </linearGradient>
    <mask
       maskUnits="userSpaceOnUse"
       x="0"
       y="0"
       width="1"
       height="1"
       id="mask7234">
      <g
         id="g7236">
        <g
           clip-path="url(#clipPath7224)"
           id="g7238">
          <path
             d="m 95.75,99.25 535.63,0 0,24.625 -535.63,0 0,-24.625 z"
             style="fill:url(#linearGradient7228);fill-opacity:1;fill-rule:evenodd;stroke:none"
             id="path7240"
             inkscape:connector-curvature="0" />
        </g>
      </g>
    </mask>
    <clipPath
       clipPathUnits="userSpaceOnUse"
       id="clipPath7224">
      <path
         d="m 95.75,99.25 535.62,0 0,24.62 -535.62,0 0,-24.62 z"
         id="path7226"
         inkscape:connector-curvature="0" />
    </clipPath>
    <linearGradient
       x1="363.56"
       y1="148.5"
       x2="363.56"
       y2="99.25"
       gradientUnits="userSpaceOnUse"
       spreadMethod="pad"
       id="linearGradient7228">
      <stop
         style="stop-opacity:0.25098039;stop-color:#ffffff"
         offset="0"
         id="stop7230" />
      <stop
         style="stop-opacity:0.25098039;stop-color:#ffffff"
         offset="1"
         id="stop7232" />
    </linearGradient>
    <linearGradient
       x1="363.56"
       y1="148.5"
       x2="363.56"
       y2="99.25"
       gradientUnits="userSpaceOnUse"
       spreadMethod="pad"
       id="linearGradient7244">
      <stop
         style="stop-opacity:1;stop-color:#00cc99"
         offset="0"
         id="stop7246" />
      <stop
         style="stop-opacity:1;stop-color:#00cc99"
         offset="1"
         id="stop7248" />
    </linearGradient>
  </defs>
  <sodipodi:namedview
     id="base"
     pagecolor="#ffffff"
     bordercolor="#666666"
     borderopacity="1.0"
     inkscape:pageopacity="0.0"
     inkscape:pageshadow="2"
     inkscape:zoom="0.86726115"
     inkscape:cx="512.28094"
     inkscape:cy="254.77187"
     inkscape:document-units="px"
     inkscape:current-layer="layer1"
     showgrid="false"
     fit-margin-top="0"
     fit-margin-left="0"
     fit-margin-right="0"
     fit-margin-bottom="0"
     inkscape:window-width="1116"
     inkscape:window-height="1062"
     inkscape:window-x="2161"
     inkscape:window-y="0"
     inkscape:window-maximized="0" />
  <metadata
     id="metadata3996">
    <rdf:RDF>
      <cc:Work
         rdf:about="">
        <dc:format>image/svg+xml</dc:format>
        <dc:type
           rdf:resource="http://purl.org/dc/dcmitype/StillImage" />
        <dc:title></dc:title>
      </cc:Work>
    </rdf:RDF>
  </metadata>
  <g
     inkscape:label="Layer 1"
     inkscape:groupmode="layer"
     id="layer1"
     transform="translate(72.831497,-346.05209)">
    <path
       d="m 463.106,421.12868 96.4125,0"
       style="fill:none;stroke:#000000;stroke-width:0.9375;stroke-linecap:butt;stroke-linejoin:round;stroke-miterlimit:10;stroke-dasharray:none;stroke-opacity:1"
       id="path7054"
       inkscape:connector-curvature="0" />
    <path
       d="m -14.862747,797.99743 667.337497,0 0,-206.5625 -667.337497,0 0,206.5625 z"
       style="fill:none;stroke:#cc0000;stroke-width:2.8125;stroke-linecap:butt;stroke-linejoin:miter;stroke-miterlimit:8;stroke-dasharray:none;stroke-opacity:1"
       id="path7060"
       inkscape:connector-curvature="0" />
    <text
       y="650.86615"
       x="75.206009"
       style="font-variant:normal;font-weight:normal;font-size:30.03125px;font-family:Arial;-inkscape-font-specification:Arial;writing-mode:lr-tb;fill:#cc0000;fill-opacity:1;fill-rule:nonzero;stroke:none"
       id="text7070">
      <tspan
         x="75.206009"
         y="650.86615"
         id="tspan7072">w</tspan>
    </text>
    <text
       y="650.86615"
       x="345.26849"
       style="font-variant:normal;font-weight:normal;font-size:30.03125px;font-family:Arial;-inkscape-font-specification:Arial;writing-mode:lr-tb;fill:#000000;fill-opacity:1;fill-rule:nonzero;stroke:none"
       id="text7074">
      <tspan
         x="345.26849"
         y="650.86615"
         id="tspan7076">A</tspan>
    </text>
    <text
       y="650.86615"
       x="525.33099"
       style="font-variant:normal;font-weight:normal;font-size:30.03125px;font-family:Arial;-inkscape-font-specification:Arial;writing-mode:lr-tb;fill:#000000;fill-opacity:1;fill-rule:nonzero;stroke:none"
       id="text7078">
      <tspan
         x="525.33099"
         y="650.86615"
         id="tspan7080">2</tspan>
    </text>
    <text
       y="686.87866"
       x="75.206009"
       style="font-variant:normal;font-weight:normal;font-size:30px;font-family:Arial;-inkscape-font-specification:Arial;writing-mode:lr-tb;fill:#cc0000;fill-opacity:1;fill-rule:nonzero;stroke:none"
       id="text7082">
      <tspan
         x="75.206009"
         y="686.87866"
         id="tspan7084">y</tspan>
    </text>
    <text
       y="686.87866"
       x="345.26849"
       style="font-variant:normal;font-weight:normal;font-size:30px;font-family:Arial;-inkscape-font-specification:Arial;writing-mode:lr-tb;fill:#000000;fill-opacity:1;fill-rule:nonzero;stroke:none"
       id="text7086">
      <tspan
         x="345.26849"
         y="686.87866"
         id="tspan7088">B</tspan>
    </text>
    <text
       y="686.87866"
       x="525.33099"
       style="font-variant:normal;font-weight:normal;font-size:30px;font-family:Arial;-inkscape-font-specification:Arial;writing-mode:lr-tb;fill:#000000;fill-opacity:1;fill-rule:nonzero;stroke:none"
       id="text7090">
      <tspan
         x="525.33099"
         y="686.87866"
         id="tspan7092">2</tspan>
    </text>
    <text
       y="722.90363"
       x="75.206009"
       style="font-variant:normal;font-weight:normal;font-size:30.03125px;font-family:Arial;-inkscape-font-specification:Arial;writing-mode:lr-tb;fill:#cc0000;fill-opacity:1;fill-rule:nonzero;stroke:none"
       id="text7094">
      <tspan
         x="75.206009"
         y="722.90363"
         id="tspan7096">z</tspan>
    </text>
    <text
       y="722.90363"
       x="345.26849"
       style="font-variant:normal;font-weight:normal;font-size:30.03125px;font-family:Arial;-inkscape-font-specification:Arial;writing-mode:lr-tb;fill:#000000;fill-opacity:1;fill-rule:nonzero;stroke:none"
       id="text7098">
      <tspan
         x="345.26849"
         y="722.90363"
         id="tspan7100">B</tspan>
    </text>
    <text
       y="722.90363"
       x="525.33099"
       style="font-variant:normal;font-weight:normal;font-size:30.03125px;font-family:Arial;-inkscape-font-specification:Arial;writing-mode:lr-tb;fill:#000000;fill-opacity:1;fill-rule:nonzero;stroke:none"
       id="text7102">
      <tspan
         x="525.33099"
         y="722.90363"
         id="tspan7104">7</tspan>
    </text>
    <text
       y="758.90363"
       x="75.206009"
       style="font-variant:normal;font-weight:normal;font-size:30px;font-family:Arial;-inkscape-font-specification:Arial;writing-mode:lr-tb;fill:#cc0000;fill-opacity:1;fill-rule:nonzero;stroke:none"
       id="text7106">
      <tspan
         x="75.206009"
         y="758.90363"
         id="tspan7108">x</tspan>
    </text>
    <text
       y="758.90363"
       x="345.26849"
       style="font-variant:normal;font-weight:normal;font-size:30px;font-family:Arial;-inkscape-font-specification:Arial;writing-mode:lr-tb;fill:#000000;fill-opacity:1;fill-rule:nonzero;stroke:none"
       id="text7110">
      <tspan
         x="345.26849 355.26849"
         y="758.90363"
         sodipodi:role="line"
         id="tspan7112">--</tspan>
    </text>
    <text
       y="758.90363"
       x="525.33099"
       style="font-variant:normal;font-weight:normal;font-size:30px;font-family:Arial;-inkscape-font-specification:Arial;writing-mode:lr-tb;fill:#000000;fill-opacity:1;fill-rule:nonzero;stroke:none"
       id="text7114">
      <tspan
         x="525.33099"
         y="758.90363"
         id="tspan7116">1</tspan>
    </text>
    <text
       y="789.90363"
       x="75.206009"
       style="font-variant:normal;font-weight:normal;font-size:25px;font-family:Arial;-inkscape-font-specification:Arial;writing-mode:lr-tb;fill:#000000;fill-opacity:1;fill-rule:nonzero;stroke:none"
       id="text7118">
      <tspan
         x="75.206009 100.206"
         y="789.90363"
         sodipodi:role="line"
         id="tspan7120">….</tspan>
    </text>
    <text
       y="789.90363"
       x="345.26849"
       style="font-variant:normal;font-weight:normal;font-size:25px;font-family:Arial;-inkscape-font-specification:Arial;writing-mode:lr-tb;fill:#000000;fill-opacity:1;fill-rule:nonzero;stroke:none"
       id="text7122">
      <tspan
         x="345.26849 370.26849"
         y="789.90363"
         sodipodi:role="line"
         id="tspan7124">….</tspan>
    </text>
    <text
       y="789.90363"
       x="525.33099"
       style="font-variant:normal;font-weight:normal;font-size:25px;font-family:Arial;-inkscape-font-specification:Arial;writing-mode:lr-tb;fill:#000000;fill-opacity:1;fill-rule:nonzero;stroke:none"
       id="text7126">
      <tspan
         x="525.33099 532.33099 539.33099 546.33099"
         y="789.90363"
         sodipodi:role="line"
         id="tspan7128">....</tspan>
    </text>
    <path
       d="m 113.8935,422.21618 122.1875,0.1625"
       style="fill:none;stroke:#000000;stroke-width:1.25;stroke-linecap:butt;stroke-linejoin:round;stroke-miterlimit:8;stroke-dasharray:none;stroke-opacity:1"
       id="path7134"
       inkscape:connector-curvature="0" />
    <path
       d="m 173.456,408.81618 c -14.2875,-1.1125 -40.725,-8.3125 -48.325,-4.1625 -7.5875,4.1625 -11.0875,23.8375 2.2875,28.825 13.3625,4.9875 63.8125,4.7125 77.6375,0.975 13.8375,-3.75 10.95,-19.2625 5.625,-23.5625 -5.3125,-4.3 -22.9375,-0.975 -37.225,-2.075 z"
       style="fill:#66ccff;fill-opacity:1;fill-rule:evenodd;stroke:none"
       id="path7136"
       inkscape:connector-curvature="0" />
    <path
       d="m 290.456,422.21618 122.3375,0.1625"
       style="fill:none;stroke:#000000;stroke-width:1.25;stroke-linecap:butt;stroke-linejoin:round;stroke-miterlimit:8;stroke-dasharray:none;stroke-opacity:1"
       id="path7138"
       inkscape:connector-curvature="0" />
    <path
       d="m -72.831497,423.46618 122.35,0"
       style="fill:none;stroke:#000000;stroke-width:1.25;stroke-linecap:butt;stroke-linejoin:round;stroke-miterlimit:8;stroke-dasharray:none;stroke-opacity:1"
       id="path7140"
       inkscape:connector-curvature="0" />
    <path
       d="m 661.3935,406.90368 59.525,-34.8375"
       style="fill:none;stroke:#000000;stroke-width:0.9375;stroke-linecap:butt;stroke-linejoin:round;stroke-miterlimit:8;stroke-dasharray:none;stroke-opacity:1"
       id="path7142"
       inkscape:connector-curvature="0" />
    <path
       d="m 656.856,435.34118 59.5375,34.8375"
       style="fill:none;stroke:#000000;stroke-width:0.9375;stroke-linecap:butt;stroke-linejoin:round;stroke-miterlimit:8;stroke-dasharray:none;stroke-opacity:1"
       id="path7144"
       inkscape:connector-curvature="0" />
    <path
       d="m 98.106002,434.56618 123.599998,53.9"
       style="fill:none;stroke:#000000;stroke-width:0.9375;stroke-linecap:butt;stroke-linejoin:round;stroke-miterlimit:8;stroke-dasharray:none;stroke-opacity:1"
       id="path7146"
       inkscape:connector-curvature="0" />
    <path
       d="m 174.9185,459.75368 c -13.175,-5.5875 -36.2625,-19.5125 -44.45,-19.1875 -8.1875,0.3125 -16.3625,12.775 -5.025,20.75 11.35,7.975 58.9,24.8125 72.85,26.8875 13.9375,2.075 15.0875,-9.6625 11.15,-14.4375 -3.9375,-4.775 -21.3625,-8.425 -34.525,-14.0125 z"
       style="fill:#66ccff;fill-opacity:1;fill-rule:evenodd;stroke:none"
       id="path7148"
       inkscape:connector-curvature="0" />
    <path
       d="m -13.263997,410.02868 c -14.2825,-1.1 -40.72125,-8.275 -48.31875,-4.1375 -7.5975,4.1375 -11.0925,23.7375 2.27875,28.7 13.37125,4.975 63.8225002,4.6875 77.6475,0.9625 13.825,-3.725 10.9375,-19.175 5.625,-23.45 -5.325,-4.2875 -22.9499998,-0.975 -37.2325,-2.075 z"
       style="fill:#66ccff;fill-opacity:1;fill-rule:evenodd;stroke:none"
       id="path7150"
       inkscape:connector-curvature="0" />
    <path
       d="m 350.0185,409.90368 c -14.2875,-1.1125 -40.725,-8.3125 -48.325,-4.15 -7.5875,4.15 -11.0875,23.825 2.2875,28.8125 13.3625,5 63.8125,4.7125 77.6375,0.975 13.8375,-3.7375 10.95,-19.2625 5.625,-23.5625 -5.3125,-4.2875 -22.9375,-0.9625 -37.225,-2.075 z"
       style="fill:#66ccff;fill-opacity:1;fill-rule:evenodd;stroke:none"
       id="path7152"
       inkscape:connector-curvature="0" />
    <path
       d="m 512.5935,408.96618 c -11.4125,-1.1125 -32.525,-8.3125 -38.6,-4.15 -6.0625,4.15 -8.85,23.825 1.825,28.8125 10.675,5 50.975,4.7125 62.025,0.975 11.05,-3.7375 8.7375,-19.2625 4.4875,-23.5625 -4.25,-4.2875 -18.325,-0.9625 -29.7375,-2.075 z"
       style="fill:#66ccff;fill-opacity:1;fill-rule:evenodd;stroke:none"
       id="path7154"
       inkscape:connector-curvature="0" />
    <path
       d="m 697.856,365.30368 c -9.25,7.15 -29.9,16.6375 -31.575,23.9125 -1.675,7.2625 9.7,23.5625 21.0625,19.75 11.3625,-3.8125 41.175,-32.15 46.8375,-42.5875 5.6625,-10.4375 -6.6625,-20.15 -12.7625,-20.325 -6.1,-0.1625 -14.3125,12.0875 -23.5625,19.25 z"
       style="fill:#66ccff;fill-opacity:1;fill-rule:evenodd;stroke:none"
       id="path7156"
       inkscape:connector-curvature="0" />
    <text
       y="431.37869"
       x="-35.518997"
       style="font-variant:normal;font-weight:normal;font-size:30px;font-family:Arial;-inkscape-font-specification:Arial;writing-mode:lr-tb;fill:#cc0000;fill-opacity:1;fill-rule:nonzero;stroke:none"
       id="text7158">
      <tspan
         x="-35.518997"
         y="431.37869"
         id="tspan7160">w</tspan>
    </text>
    <text
       y="435.59122"
       x="156.881"
       style="font-variant:normal;font-weight:normal;font-size:30px;font-family:Arial;-inkscape-font-specification:Arial;writing-mode:lr-tb;fill:#cc0000;fill-opacity:1;fill-rule:nonzero;stroke:none"
       id="text7162">
      <tspan
         x="156.881"
         y="435.59122"
         id="tspan7164">x</tspan>
    </text>
    <text
       y="427.77872"
       x="502.14349"
       style="font-variant:normal;font-weight:normal;font-size:30px;font-family:Arial;-inkscape-font-specification:Arial;writing-mode:lr-tb;fill:#cc0000;fill-opacity:1;fill-rule:nonzero;stroke:none"
       id="text7166">
      <tspan
         x="502.14349"
         y="427.77872"
         id="tspan7168">y</tspan>
    </text>
    <text
       y="390.59122"
       x="690.64349"
       style="font-variant:normal;font-weight:normal;font-size:30.03125px;font-family:Arial;-inkscape-font-specification:Arial;writing-mode:lr-tb;fill:#cc0000;fill-opacity:1;fill-rule:nonzero;stroke:none"
       id="text7170">
      <tspan
         x="690.64349"
         y="390.59122"
         id="tspan7172">z</tspan>
    </text>
    <text
       y="463.09122"
       x="65.768509"
       style="font-variant:normal;font-weight:normal;font-size:30px;font-family:Arial;-inkscape-font-specification:Arial;writing-mode:lr-tb;fill:#000000;fill-opacity:1;fill-rule:nonzero;stroke:none"
       id="text7174">
      <tspan
         x="65.768509"
         y="463.09122"
         id="tspan7176">A</tspan>
    </text>
    <text
       y="532.81616"
       x="245.631"
       style="font-variant:normal;font-weight:normal;font-size:30px;font-family:Arial;-inkscape-font-specification:Arial;writing-mode:lr-tb;fill:#000000;fill-opacity:1;fill-rule:nonzero;stroke:none"
       id="text7178">
      <tspan
         x="245.631"
         y="532.81616"
         id="tspan7180">C</tspan>
    </text>
    <text
       y="459.65372"
       x="245.631"
       style="font-variant:normal;font-weight:normal;font-size:30px;font-family:Arial;-inkscape-font-specification:Arial;writing-mode:lr-tb;fill:#000000;fill-opacity:1;fill-rule:nonzero;stroke:none"
       id="text7182">
      <tspan
         x="245.631"
         y="459.65372"
         id="tspan7184">D</tspan>
    </text>
    <text
       y="459.50369"
       x="421.33099"
       style="font-variant:normal;font-weight:normal;font-size:30px;font-family:Arial;-inkscape-font-specification:Arial;writing-mode:lr-tb;fill:#000000;fill-opacity:1;fill-rule:nonzero;stroke:none"
       id="text7186">
      <tspan
         x="421.33099"
         y="459.50369"
         id="tspan7188">B</tspan>
    </text>
    <g
       transform="matrix(1.25,0,0,-1.25,-135.019,852.52868)"
       id="g7190">
      <path
         d="m 557.75,346 27.13,-0.25"
         style="fill:none;stroke:#000000;stroke-width:0.75;stroke-linecap:butt;stroke-linejoin:round;stroke-miterlimit:8;stroke-dasharray:3, 2.25;stroke-dashoffset:0;stroke-opacity:1"
         id="path7192"
         inkscape:connector-curvature="0" />
    </g>
    <path
       d="m 447.956,410.96618 32.025,-19.2125"
       style="fill:none;stroke:#000000;stroke-width:0.9375;stroke-linecap:butt;stroke-linejoin:round;stroke-miterlimit:8;stroke-dasharray:none;stroke-opacity:1"
       id="path7194"
       inkscape:connector-curvature="0" />
    <g
       transform="matrix(1.25,0,0,-1.25,-135.019,852.52868)"
       id="g7196">
      <path
         d="m 493,369.62 21.88,12.25"
         style="fill:none;stroke:#000000;stroke-width:0.75;stroke-linecap:butt;stroke-linejoin:round;stroke-miterlimit:8;stroke-dasharray:3, 2.25;stroke-dashoffset:0;stroke-opacity:1"
         id="path7198"
         inkscape:connector-curvature="0" />
    </g>
    <path
       d="m 272.956,408.46618 32.025,-19.2125"
       style="fill:none;stroke:#000000;stroke-width:0.9375;stroke-linecap:butt;stroke-linejoin:round;stroke-miterlimit:8;stroke-dasharray:none;stroke-opacity:1"
       id="path7200"
       inkscape:connector-curvature="0" />
    <g
       transform="matrix(1.25,0,0,-1.25,-135.019,852.52868)"
       id="g7202">
      <path
         d="m 353,371.62 21.88,12.25"
         style="fill:none;stroke:#000000;stroke-width:0.75;stroke-linecap:butt;stroke-linejoin:round;stroke-miterlimit:8;stroke-dasharray:3, 2.25;stroke-dashoffset:0;stroke-opacity:1"
         id="path7204"
         inkscape:connector-curvature="0" />
    </g>
    <path
       d="M 97.956002,405.96618 129.981,386.75368"
       style="fill:none;stroke:#000000;stroke-width:0.9375;stroke-linecap:butt;stroke-linejoin:round;stroke-miterlimit:8;stroke-dasharray:none;stroke-opacity:1"
       id="path7206"
       inkscape:connector-curvature="0" />
    <g
       transform="matrix(1.25,0,0,-1.25,-135.019,852.52868)"
       id="g7208">
      <path
         d="m 213,373.62 21.88,12.25"
         style="fill:none;stroke:#000000;stroke-width:0.75;stroke-linecap:butt;stroke-linejoin:round;stroke-miterlimit:8;stroke-dasharray:3, 2.25;stroke-dashoffset:0;stroke-opacity:1"
         id="path7210"
         inkscape:connector-curvature="0" />
    </g>
    <path
       d="m 286.081,490.02868 96.4,0"
       style="fill:none;stroke:#000000;stroke-width:0.9375;stroke-linecap:butt;stroke-linejoin:round;stroke-miterlimit:8;stroke-dasharray:none;stroke-opacity:1"
       id="path7212"
       inkscape:connector-curvature="0" />
    <path
       d="m 335.5685,477.87868 c -11.4125,-1.1125 -32.5375,-8.325 -38.6,-4.1625 -6.075,4.1625 -8.8625,23.8375 1.8125,28.825 10.6875,4.9875 50.9875,4.7125 62.025,0.975 11.05,-3.75 8.75,-19.2625 4.5,-23.5625 -4.25,-4.3 -18.3375,-0.975 -29.7375,-2.075 z"
       style="fill:#66ccff;fill-opacity:1;fill-rule:evenodd;stroke:none"
       id="path7214"
       inkscape:connector-curvature="0" />
    <g
       transform="matrix(1.25,0,0,-1.25,-135.019,852.52868)"
       id="g7216">
      <path
         d="m 416.13,290.88 27.12,-0.25"
         style="fill:none;stroke:#000000;stroke-width:0.75;stroke-linecap:butt;stroke-linejoin:round;stroke-miterlimit:8;stroke-dasharray:3, 2.25;stroke-dashoffset:0;stroke-opacity:1"
         id="path7218"
         inkscape:connector-curvature="0" />
    </g>
    <g
       transform="matrix(1.25,0,0,-1.25,-135.019,852.52868)"
       id="g7220">
      <g
         id="g7222" />
      <g
         id="g7242"
         mask="url(#mask7234)">
        <path
           d="m 95.75,99.25 535.63,0 0,24.625 -535.63,0 0,-24.625 z"
           style="fill:url(#linearGradient7244);fill-opacity:1;fill-rule:evenodd;stroke:none"
           id="path7250"
           inkscape:connector-curvature="0" />
      </g>
    </g>
    <g
       transform="matrix(1.25,0,0,-1.25,-135.019,852.52868)"
       id="g7252">
      <path
         d="m 285.61,341.92 c 0,3.82 11.85,6.92 26.45,6.92 l 0,0 c 14.61,0 26.45,-3.1 26.45,-6.92 0,0 0,0 0,0 l 0,0 c 0,-3.82 -11.84,-6.92 -26.45,-6.92 0,0 0,0 0,0 l 0,0 c -14.61,0 -26.45,3.1 -26.45,6.92 0,0 0,0 0,0 z"
         style="fill:url(#linearGradient7254);fill-opacity:1;fill-rule:evenodd;stroke:none"
         id="path7260"
         inkscape:connector-curvature="0" />
    </g>
    <path
       d="m 221.9935,425.12868 c 0,-4.775 14.8125,-8.65 33.0625,-8.65 l 0,0 c 18.2625,0 33.0625,3.875 33.0625,8.65 0,0 0,0 0,0 l 0,0 c 0,4.775 -14.8,8.65 -33.0625,8.65 0,0 0,0 0,0 l 0,0 c -18.2625,0 -33.0625,-3.875 -33.0625,-8.65 0,0 0,0 0,0 z"
       style="fill:none;stroke:#000000;stroke-width:1.25;stroke-linecap:butt;stroke-linejoin:round;stroke-miterlimit:8;stroke-dasharray:none;stroke-opacity:1"
       id="path7262"
       inkscape:connector-curvature="0" />
    <g
       transform="matrix(1.25,0,0,-1.25,-135.019,852.52868)"
       id="g7264">
      <path
         d="m 285.61,341.82 53.137,0 0,8.626 -53.137,0 0,-8.626 z"
         style="fill:url(#linearGradient7266);fill-opacity:1;fill-rule:evenodd;stroke:none"
         id="path7272"
         inkscape:connector-curvature="0" />
    </g>
    <g
       transform="matrix(1.25,0,0,-1.25,-135.019,852.52868)"
       id="g7274">
      <path
         d="m 285.38,351.75 c 0,4.49 11.85,8.12 26.48,8.12 l 0,0 c 14.63,0 26.49,-3.63 26.49,-8.12 0,0 0,0 0,0 l 0,0 c 0,-4.49 -11.86,-8.12 -26.49,-8.12 0,0 0,0 0,0 l 0,0 c -14.63,0 -26.48,3.63 -26.48,8.12 0,0 0,0 0,0 z"
         style="fill:url(#linearGradient7276);fill-opacity:1;fill-rule:evenodd;stroke:none"
         id="path7282"
         inkscape:connector-curvature="0" />
    </g>
    <path
       d="m 221.706,412.84118 c 0,-5.6125 14.8125,-10.15 33.1,-10.15 l 0,0 c 18.2875,0 33.1125,4.5375 33.1125,10.15 0,0 0,0 0,0 l 0,0 c 0,5.6125 -14.825,10.15 -33.1125,10.15 0,0 0,0 0,0 l 0,0 c -18.2875,0 -33.1,-4.5375 -33.1,-10.15 0,0 0,0 0,0 z"
       style="fill:none;stroke:#000000;stroke-width:1.25;stroke-linecap:butt;stroke-linejoin:round;stroke-miterlimit:8;stroke-dasharray:none;stroke-opacity:1"
       id="path7284"
       inkscape:connector-curvature="0" />
    <path
       d="m 235.006,417.35368 11.5875,0 11.5875,-9.4 14.25,0"
       style="fill:none;stroke:#000000;stroke-width:1.875;stroke-linecap:butt;stroke-linejoin:round;stroke-miterlimit:8;stroke-dasharray:none;stroke-opacity:1"
       id="path7286"
       inkscape:connector-curvature="0" />
    <path
       d="m 236.6935,407.95368 11.5875,0 11.6,9.4 10.8625,0"
       style="fill:none;stroke:#000000;stroke-width:1.875;stroke-linecap:butt;stroke-linejoin:round;stroke-miterlimit:8;stroke-dasharray:none;stroke-opacity:1"
       id="path7288"
       inkscape:connector-curvature="0" />
    <path
       d="m 221.9935,412.21618 0,13.5375"
       style="fill:none;stroke:#000000;stroke-width:1.25;stroke-linecap:butt;stroke-linejoin:round;stroke-miterlimit:8;stroke-dasharray:none;stroke-opacity:1"
       id="path7290"
       inkscape:connector-curvature="0" />
    <path
       d="m 287.9185,412.84118 0,13.4125"
       style="fill:none;stroke:#000000;stroke-width:1.25;stroke-linecap:butt;stroke-linejoin:round;stroke-miterlimit:8;stroke-dasharray:none;stroke-opacity:1"
       id="path7292"
       inkscape:connector-curvature="0" />
    <g
       transform="matrix(1.25,0,0,-1.25,-135.019,852.52868)"
       id="g7294">
      <path
         d="m 425.74,340.55 c 0,3.82 11.84,6.92 26.45,6.92 l 0,0 c 14.61,0 26.45,-3.1 26.45,-6.92 0,0 0,0 0,0 l 0,0 c 0,-3.83 -11.84,-6.93 -26.45,-6.93 0,0 0,0 0,0 l 0,0 c -14.61,0 -26.45,3.1 -26.45,6.93 0,0 0,0 0,0 z"
         style="fill:url(#linearGradient7296);fill-opacity:1;fill-rule:evenodd;stroke:none"
         id="path7302"
         inkscape:connector-curvature="0" />
    </g>
    <path
       d="m 397.156,426.84118 c 0,-4.775 14.8,-8.65 33.0625,-8.65 l 0,0 c 18.2625,0 33.0625,3.875 33.0625,8.65 0,0 0,0 0,0 l 0,0 c 0,4.7875 -14.8,8.6625 -33.0625,8.6625 0,0 0,0 0,0 l 0,0 c -18.2625,0 -33.0625,-3.875 -33.0625,-8.6625 0,0 0,0 0,0 z"
       style="fill:none;stroke:#000000;stroke-width:1.25;stroke-linecap:butt;stroke-linejoin:round;stroke-miterlimit:8;stroke-dasharray:none;stroke-opacity:1"
       id="path7304"
       inkscape:connector-curvature="0" />
    <g
       transform="matrix(1.25,0,0,-1.25,-135.019,852.52868)"
       id="g7306">
      <path
         d="m 425.74,340.45 53.137,0 0,8.626 -53.137,0 0,-8.626 z"
         style="fill:url(#linearGradient7308);fill-opacity:1;fill-rule:evenodd;stroke:none"
         id="path7314"
         inkscape:connector-curvature="0" />
    </g>
    <g
       transform="matrix(1.25,0,0,-1.25,-135.019,852.52868)"
       id="g7316">
      <path
         d="m 425.5,350.38 c 0,4.48 11.86,8.12 26.49,8.12 l 0,0 c 14.63,0 26.49,-3.64 26.49,-8.12 0,0 0,0 0,0 l 0,0 c 0,-4.49 -11.86,-8.13 -26.49,-8.13 0,0 0,0 0,0 l 0,0 c -14.63,0 -26.49,3.64 -26.49,8.13 0,0 0,0 0,0 z"
         style="fill:url(#linearGradient7318);fill-opacity:1;fill-rule:evenodd;stroke:none"
         id="path7324"
         inkscape:connector-curvature="0" />
    </g>
    <path
       d="m 396.856,414.55368 c 0,-5.6 14.825,-10.15 33.1125,-10.15 l 0,0 c 18.2875,0 33.1125,4.55 33.1125,10.15 0,0 0,0 0,0 l 0,0 c 0,5.6125 -14.825,10.1625 -33.1125,10.1625 0,0 0,0 0,0 l 0,0 c -18.2875,0 -33.1125,-4.55 -33.1125,-10.1625 0,0 0,0 0,0 z"
       style="fill:none;stroke:#000000;stroke-width:1.25;stroke-linecap:butt;stroke-linejoin:round;stroke-miterlimit:8;stroke-dasharray:none;stroke-opacity:1"
       id="path7326"
       inkscape:connector-curvature="0" />
    <path
       d="m 410.156,419.07868 11.6,0 11.5875,-9.4125 14.25,0"
       style="fill:none;stroke:#000000;stroke-width:1.875;stroke-linecap:butt;stroke-linejoin:round;stroke-miterlimit:8;stroke-dasharray:none;stroke-opacity:1"
       id="path7328"
       inkscape:connector-curvature="0" />
    <path
       d="m 411.856,409.66618 11.5875,0 11.5875,9.4125 10.8625,0"
       style="fill:none;stroke:#000000;stroke-width:1.875;stroke-linecap:butt;stroke-linejoin:round;stroke-miterlimit:8;stroke-dasharray:none;stroke-opacity:1"
       id="path7330"
       inkscape:connector-curvature="0" />
    <path
       d="m 397.156,413.92868 0,13.55"
       style="fill:none;stroke:#000000;stroke-width:1.25;stroke-linecap:butt;stroke-linejoin:round;stroke-miterlimit:8;stroke-dasharray:none;stroke-opacity:1"
       id="path7332"
       inkscape:connector-curvature="0" />
    <path
       d="m 463.081,414.55368 0,13.425"
       style="fill:none;stroke:#000000;stroke-width:1.25;stroke-linecap:butt;stroke-linejoin:round;stroke-miterlimit:8;stroke-dasharray:none;stroke-opacity:1"
       id="path7334"
       inkscape:connector-curvature="0" />
    <g
       transform="matrix(1.25,0,0,-1.25,-135.019,852.52868)"
       id="g7336">
      <path
         d="m 586.11,340.92 c 0,3.82 11.85,6.92 26.45,6.92 l 0,0 c 14.61,0 26.45,-3.1 26.45,-6.92 0,0 0,0 0,0 l 0,0 c 0,-3.82 -11.84,-6.92 -26.45,-6.92 0,0 0,0 0,0 l 0,0 c -14.6,0 -26.45,3.1 -26.45,6.92 0,0 0,0 0,0 z"
         style="fill:url(#linearGradient7338);fill-opacity:1;fill-rule:evenodd;stroke:none"
         id="path7344"
         inkscape:connector-curvature="0" />
    </g>
    <path
       d="m 597.6185,426.37868 c 0,-4.775 14.8125,-8.65 33.0625,-8.65 l 0,0 c 18.2625,0 33.0625,3.875 33.0625,8.65 0,0 0,0 0,0 l 0,0 c 0,4.775 -14.8,8.65 -33.0625,8.65 0,0 0,0 0,0 l 0,0 c -18.25,0 -33.0625,-3.875 -33.0625,-8.65 0,0 0,0 0,0 z"
       style="fill:none;stroke:#000000;stroke-width:1.25;stroke-linecap:butt;stroke-linejoin:round;stroke-miterlimit:8;stroke-dasharray:none;stroke-opacity:1"
       id="path7346"
       inkscape:connector-curvature="0" />
    <g
       transform="matrix(1.25,0,0,-1.25,-135.019,852.52868)"
       id="g7348">
      <path
         d="m 586.11,340.82 53.137,0 0,8.626 -53.137,0 0,-8.626 z"
         style="fill:url(#linearGradient7350);fill-opacity:1;fill-rule:evenodd;stroke:none"
         id="path7356"
         inkscape:connector-curvature="0" />
    </g>
    <g
       transform="matrix(1.25,0,0,-1.25,-135.019,852.52868)"
       id="g7358">
      <path
         d="m 585.88,350.75 c 0,4.49 11.85,8.12 26.48,8.12 l 0,0 c 14.63,0 26.49,-3.63 26.49,-8.12 0,0 0,0 0,0 l 0,0 c 0,-4.49 -11.86,-8.12 -26.49,-8.12 0,0 0,0 0,0 l 0,0 c -14.63,0 -26.48,3.63 -26.48,8.12 0,0 0,0 0,0 z"
         style="fill:url(#linearGradient7360);fill-opacity:1;fill-rule:evenodd;stroke:none"
         id="path7366"
         inkscape:connector-curvature="0" />
    </g>
    <path
       d="m 597.331,414.09118 c 0,-5.6125 14.8125,-10.15 33.1,-10.15 l 0,0 c 18.2875,0 33.1125,4.5375 33.1125,10.15 0,0 0,0 0,0 l 0,0 c 0,5.6125 -14.825,10.15 -33.1125,10.15 0,0 0,0 0,0 l 0,0 c -18.2875,0 -33.1,-4.5375 -33.1,-10.15 0,0 0,0 0,0 z"
       style="fill:none;stroke:#000000;stroke-width:1.25;stroke-linecap:butt;stroke-linejoin:round;stroke-miterlimit:8;stroke-dasharray:none;stroke-opacity:1"
       id="path7368"
       inkscape:connector-curvature="0" />
    <path
       d="m 610.631,418.60368 11.5875,0 11.5875,-9.4 14.25,0"
       style="fill:none;stroke:#000000;stroke-width:1.875;stroke-linecap:butt;stroke-linejoin:round;stroke-miterlimit:8;stroke-dasharray:none;stroke-opacity:1"
       id="path7370"
       inkscape:connector-curvature="0" />
    <path
       d="m 612.3185,409.20368 11.5875,0 11.6,9.4 10.8625,0"
       style="fill:none;stroke:#000000;stroke-width:1.875;stroke-linecap:butt;stroke-linejoin:round;stroke-miterlimit:8;stroke-dasharray:none;stroke-opacity:1"
       id="path7372"
       inkscape:connector-curvature="0" />
    <path
       d="m 597.6185,413.46618 0,13.5375"
       style="fill:none;stroke:#000000;stroke-width:1.25;stroke-linecap:butt;stroke-linejoin:round;stroke-miterlimit:8;stroke-dasharray:none;stroke-opacity:1"
       id="path7374"
       inkscape:connector-curvature="0" />
    <path
       d="m 663.5435,414.09118 0,13.4125"
       style="fill:none;stroke:#000000;stroke-width:1.25;stroke-linecap:butt;stroke-linejoin:round;stroke-miterlimit:8;stroke-dasharray:none;stroke-opacity:1"
       id="path7376"
       inkscape:connector-curvature="0" />
    <g
       transform="matrix(1.25,0,0,-1.25,-135.019,852.52868)"
       id="g7378">
      <path
         d="m 284.49,286.05 c 0,3.82 11.84,6.92 26.45,6.92 l 0,0 c 14.61,0 26.45,-3.1 26.45,-6.92 0,0 0,0 0,0 l 0,0 c 0,-3.83 -11.84,-6.93 -26.45,-6.93 0,0 0,0 0,0 l 0,0 c -14.61,0 -26.45,3.1 -26.45,6.93 0,0 0,0 0,0 z"
         style="fill:url(#linearGradient7380);fill-opacity:1;fill-rule:evenodd;stroke:none"
         id="path7386"
         inkscape:connector-curvature="0" />
    </g>
    <path
       d="m 220.5935,494.96618 c 0,-4.775 14.8,-8.65 33.0625,-8.65 l 0,0 c 18.2625,0 33.0625,3.875 33.0625,8.65 0,0 0,0 0,0 l 0,0 c 0,4.7875 -14.8,8.6625 -33.0625,8.6625 0,0 0,0 0,0 l 0,0 c -18.2625,0 -33.0625,-3.875 -33.0625,-8.6625 0,0 0,0 0,0 z"
       style="fill:none;stroke:#000000;stroke-width:1.25;stroke-linecap:butt;stroke-linejoin:round;stroke-miterlimit:8;stroke-dasharray:none;stroke-opacity:1"
       id="path7388"
       inkscape:connector-curvature="0" />
    <g
       transform="matrix(1.25,0,0,-1.25,-135.019,852.52868)"
       id="g7390">
      <path
         d="m 284.49,285.95 53.137,0 0,8.626 -53.137,0 0,-8.626 z"
         style="fill:url(#linearGradient7392);fill-opacity:1;fill-rule:evenodd;stroke:none"
         id="path7398"
         inkscape:connector-curvature="0" />
    </g>
    <g
       transform="matrix(1.25,0,0,-1.25,-135.019,852.52868)"
       id="g7400">
      <path
         d="m 284.25,295.88 c 0,4.48 11.86,8.12 26.49,8.12 l 0,0 c 14.63,0 26.49,-3.64 26.49,-8.12 0,0 0,0 0,0 l 0,0 c 0,-4.49 -11.86,-8.13 -26.49,-8.13 0,0 0,0 0,0 l 0,0 c -14.63,0 -26.49,3.64 -26.49,8.13 0,0 0,0 0,0 z"
         style="fill:url(#linearGradient7402);fill-opacity:1;fill-rule:evenodd;stroke:none"
         id="path7408"
         inkscape:connector-curvature="0" />
    </g>
    <path
       d="m 220.2935,482.67868 c 0,-5.6 14.825,-10.15 33.1125,-10.15 l 0,0 c 18.2875,0 33.1125,4.55 33.1125,10.15 0,0 0,0 0,0 l 0,0 c 0,5.6125 -14.825,10.1625 -33.1125,10.1625 0,0 0,0 0,0 l 0,0 c -18.2875,0 -33.1125,-4.55 -33.1125,-10.1625 0,0 0,0 0,0 z"
       style="fill:none;stroke:#000000;stroke-width:1.25;stroke-linecap:butt;stroke-linejoin:round;stroke-miterlimit:8;stroke-dasharray:none;stroke-opacity:1"
       id="path7410"
       inkscape:connector-curvature="0" />
    <path
       d="m 233.5935,487.20368 11.6,0 11.5875,-9.4125 14.25,0"
       style="fill:none;stroke:#000000;stroke-width:1.875;stroke-linecap:butt;stroke-linejoin:round;stroke-miterlimit:8;stroke-dasharray:none;stroke-opacity:1"
       id="path7412"
       inkscape:connector-curvature="0" />
    <path
       d="m 235.2935,477.79118 11.5875,0 11.5875,9.4125 10.8625,0"
       style="fill:none;stroke:#000000;stroke-width:1.875;stroke-linecap:butt;stroke-linejoin:round;stroke-miterlimit:8;stroke-dasharray:none;stroke-opacity:1"
       id="path7414"
       inkscape:connector-curvature="0" />
    <path
       d="m 220.5935,482.05368 0,13.55"
       style="fill:none;stroke:#000000;stroke-width:1.25;stroke-linecap:butt;stroke-linejoin:round;stroke-miterlimit:8;stroke-dasharray:none;stroke-opacity:1"
       id="path7416"
       inkscape:connector-curvature="0" />
    <path
       d="m 286.5185,482.67868 0,13.425"
       style="fill:none;stroke:#000000;stroke-width:1.25;stroke-linecap:butt;stroke-linejoin:round;stroke-miterlimit:8;stroke-dasharray:none;stroke-opacity:1"
       id="path7418"
       inkscape:connector-curvature="0" />
    <g
       transform="matrix(1.25,0,0,-1.25,-135.019,852.52868)"
       id="g7420">
      <path
         d="m 147.24,339.05 c 0,3.82 11.84,6.92 26.45,6.92 l 0,0 c 14.61,0 26.45,-3.1 26.45,-6.92 0,0 0,0 0,0 l 0,0 c 0,-3.83 -11.84,-6.93 -26.45,-6.93 0,0 0,0 0,0 l 0,0 c -14.61,0 -26.45,3.1 -26.45,6.93 0,0 0,0 0,0 z"
         style="fill:url(#linearGradient7422);fill-opacity:1;fill-rule:evenodd;stroke:none"
         id="path7428"
         inkscape:connector-curvature="0" />
    </g>
    <path
       d="m 49.031003,428.71618 c 0,-4.775 14.8,-8.65 33.062499,-8.65 l 0,0 c 18.262498,0 33.062498,3.875 33.062498,8.65 0,0 0,0 0,0 l 0,0 c 0,4.7875 -14.8,8.6625 -33.062498,8.6625 0,0 0,0 0,0 l 0,0 c -18.262499,0 -33.062499,-3.875 -33.062499,-8.6625 0,0 0,0 0,0 z"
       style="fill:none;stroke:#000000;stroke-width:1.25;stroke-linecap:butt;stroke-linejoin:round;stroke-miterlimit:8;stroke-dasharray:none;stroke-opacity:1"
       id="path7430"
       inkscape:connector-curvature="0" />
    <g
       transform="matrix(1.25,0,0,-1.25,-135.019,852.52868)"
       id="g7432">
      <path
         d="m 147.24,338.95 53.137,0 0,8.626 -53.137,0 0,-8.626 z"
         style="fill:url(#linearGradient7434);fill-opacity:1;fill-rule:evenodd;stroke:none"
         id="path7440"
         inkscape:connector-curvature="0" />
    </g>
    <g
       transform="matrix(1.25,0,0,-1.25,-135.019,852.52868)"
       id="g7442">
      <path
         d="m 147,348.88 c 0,4.48 11.86,8.12 26.49,8.12 l 0,0 c 14.63,0 26.49,-3.64 26.49,-8.12 0,0 0,0 0,0 l 0,0 c 0,-4.49 -11.86,-8.13 -26.49,-8.13 0,0 0,0 0,0 l 0,0 c -14.63,0 -26.49,3.64 -26.49,8.13 0,0 0,0 0,0 z"
         style="fill:url(#linearGradient7444);fill-opacity:1;fill-rule:evenodd;stroke:none"
         id="path7450"
         inkscape:connector-curvature="0" />
    </g>
    <path
       d="m 48.731003,416.42868 c 0,-5.6 14.825,-10.15 33.112499,-10.15 l 0,0 c 18.287498,0 33.112498,4.55 33.112498,10.15 0,0 0,0 0,0 l 0,0 c 0,5.6125 -14.825,10.1625 -33.112498,10.1625 0,0 0,0 0,0 l 0,0 c -18.287499,0 -33.112499,-4.55 -33.112499,-10.1625 0,0 0,0 0,0 z"
       style="fill:none;stroke:#000000;stroke-width:1.25;stroke-linecap:butt;stroke-linejoin:round;stroke-miterlimit:8;stroke-dasharray:none;stroke-opacity:1"
       id="path7452"
       inkscape:connector-curvature="0" />
    <path
       d="m 62.031003,420.95368 11.599999,0 11.5875,-9.4125 14.25,0"
       style="fill:none;stroke:#000000;stroke-width:1.875;stroke-linecap:butt;stroke-linejoin:round;stroke-miterlimit:8;stroke-dasharray:none;stroke-opacity:1"
       id="path7454"
       inkscape:connector-curvature="0" />
    <path
       d="m 63.731003,411.54118 11.587499,0 11.5875,9.4125 10.8625,0"
       style="fill:none;stroke:#000000;stroke-width:1.875;stroke-linecap:butt;stroke-linejoin:round;stroke-miterlimit:8;stroke-dasharray:none;stroke-opacity:1"
       id="path7456"
       inkscape:connector-curvature="0" />
    <path
       d="m 49.031003,415.80368 0,13.55"
       style="fill:none;stroke:#000000;stroke-width:1.25;stroke-linecap:butt;stroke-linejoin:round;stroke-miterlimit:8;stroke-dasharray:none;stroke-opacity:1"
       id="path7458"
       inkscape:connector-curvature="0" />
    <path
       d="m 114.956,416.42868 0,13.425"
       style="fill:none;stroke:#000000;stroke-width:1.25;stroke-linecap:butt;stroke-linejoin:round;stroke-miterlimit:8;stroke-dasharray:none;stroke-opacity:1"
       id="path7460"
       inkscape:connector-curvature="0" />
    <text
       xml:space="preserve"
       style="font-style:normal;font-weight:normal;font-size:40px;line-height:125%;font-family:sans-serif;letter-spacing:0px;word-spacing:0px;fill:#000099;fill-opacity:1;stroke:none;stroke-width:1px;stroke-linecap:butt;stroke-linejoin:miter;stroke-opacity:1"
       x="-9.8768711"
       y="616.70203"
       id="text8080"
       sodipodi:linespacing="125%"><tspan
         sodipodi:role="line"
         id="tspan8082"
         x="-9.8768711"
         y="616.70203"
         style="font-style:normal;font-variant:normal;font-weight:bold;font-stretch:normal;font-size:22.5px;font-family:sans-serif;-inkscape-font-specification:'sans-serif Bold';fill:#000099;fill-opacity:1">sub-rede destino</tspan></text>
    <text
       sodipodi:linespacing="125%"
       id="text8084"
       y="616.70203"
       x="280.69305"
       style="font-style:normal;font-weight:normal;font-size:40px;line-height:125%;font-family:sans-serif;letter-spacing:0px;word-spacing:0px;fill:#000099;fill-opacity:1;stroke:none;stroke-width:1px;stroke-linecap:butt;stroke-linejoin:miter;stroke-opacity:1"
       xml:space="preserve"><tspan
         style="font-style:normal;font-variant:normal;font-weight:bold;font-stretch:normal;font-size:22.5px;font-family:sans-serif;-inkscape-font-specification:'sans-serif Bold';fill:#000099;fill-opacity:1"
         y="616.70203"
         x="280.69305"
         id="tspan8086"
         sodipodi:role="line">próx. salto</tspan></text>
    <text
       xml:space="preserve"
       style="font-style:normal;font-weight:normal;font-size:40px;line-height:125%;font-family:sans-serif;letter-spacing:0px;word-spacing:0px;fill:#000099;fill-opacity:1;stroke:none;stroke-width:1px;stroke-linecap:butt;stroke-linejoin:miter;stroke-opacity:1"
       x="479.01855"
       y="617.85504"
       id="text8088"
       sodipodi:linespacing="125%"><tspan
         sodipodi:role="line"
         id="tspan8090"
         x="479.01855"
         y="617.85504"
         style="font-style:normal;font-variant:normal;font-weight:bold;font-stretch:normal;font-size:22.5px;font-family:sans-serif;-inkscape-font-specification:'sans-serif Bold';fill:#000099;fill-opacity:1"># saltos</tspan></text>
    <text
       sodipodi:linespacing="125%"
       id="text8092"
       y="583.26343"
       x="120.41837"
       style="font-style:normal;font-weight:normal;font-size:40px;line-height:125%;font-family:sans-serif;letter-spacing:0px;word-spacing:0px;fill:#000099;fill-opacity:1;stroke:none;stroke-width:1px;stroke-linecap:butt;stroke-linejoin:miter;stroke-opacity:1"
       xml:space="preserve"><tspan
         style="font-style:normal;font-variant:normal;font-weight:normal;font-stretch:normal;font-size:22.5px;font-family:sans-serif;-inkscape-font-specification:sans-serif;fill:#000000;fill-opacity:1"
         y="583.26343"
         x="120.41837"
         id="tspan8094"
         sodipodi:role="line">tabela de roteamento no roteador D</tspan></text>
  </g>
</svg>
