<?xml version="1.0" encoding="UTF-8" standalone="no"?>
<svg width="427.302mm" height="245.798mm"
 xmlns="http://www.w3.org/2000/svg" xmlns:xlink="http://www.w3.org/1999/xlink"  version="1.2" baseProfile="tiny">
<title>Qt Svg Document</title>
<desc>Generated with Qt</desc>
<defs>
</defs>
<g fill="none" stroke="black" stroke-width="1" fill-rule="evenodd" stroke-linecap="square" stroke-linejoin="bevel" >

<g fill="#ffffff" fill-opacity="0" stroke="none" transform="matrix(1,0,0,1,0,0)"
font-family="Ubuntu" font-size="14.6667" font-weight="400" font-style="normal" 
>
<path vector-effect="non-scaling-stroke" fill-rule="evenodd" d="M15,10 L1599,10 L1599,908 L15,908 L15,10"/>
</g>

<g fill="none" stroke="none" transform="matrix(1,0,0,1,0,0)"
font-family="Ubuntu" font-size="14.6667" font-weight="400" font-style="normal" 
>
<path vector-effect="non-scaling-stroke" fill-rule="evenodd" d="M15,10 L1599,10 L1599,908 L15,908 L15,10"/>
</g>

<g fill="none" stroke="#000000" stroke-opacity="1" stroke-width="1" stroke-linecap="square" stroke-linejoin="bevel" transform="matrix(1,0,0,1,0,0)"
font-family="Ubuntu" font-size="14.6667" font-weight="400" font-style="normal" 
>
</g>

<g fill="#ffffff" fill-opacity="0" stroke="none" transform="matrix(1,0,0,1,0,0)"
font-family="Ubuntu" font-size="14.6667" font-weight="400" font-style="normal" 
>
<path vector-effect="non-scaling-stroke" fill-rule="evenodd" d="M159,120 L1564,120 L1564,764 L159,764 L159,120"/>
</g>

<g fill="none" stroke="#000000" stroke-opacity="1" stroke-width="1" stroke-linecap="square" stroke-linejoin="bevel" transform="matrix(1,0,0,1,0,0)"
font-family="Ubuntu" font-size="14.6667" font-weight="400" font-style="normal" 
>
</g>

<g fill="none" stroke="#000000" stroke-opacity="1" stroke-width="1" stroke-linecap="square" stroke-linejoin="bevel" transform="matrix(1,0,0,1,0,0)"
font-family="Ubuntu" font-size="14.6667" font-weight="400" font-style="normal" 
>
</g>

<g fill="none" stroke="#000000" stroke-opacity="1" stroke-width="1" stroke-linecap="square" stroke-linejoin="bevel" transform="matrix(1,0,0,1,0,0)"
font-family="Ubuntu" font-size="14.6667" font-weight="400" font-style="normal" 
>
</g>

<g fill="none" stroke="#000000" stroke-opacity="1" stroke-width="1" stroke-linecap="square" stroke-linejoin="bevel" transform="matrix(1,0,0,1,0,0)"
font-family="Ubuntu" font-size="14.6667" font-weight="400" font-style="normal" 
>
</g>

<g fill="none" stroke="#ff0000" stroke-opacity="1" stroke-width="2" stroke-linecap="square" stroke-linejoin="miter" stroke-miterlimit="2" transform="matrix(1,0,0,1,0,0)"
font-family="Ubuntu" font-size="14.6667" font-weight="400" font-style="normal" 
>
<polyline fill="none" vector-effect="non-scaling-stroke" points="159,764 160.756,764 162.512,764 164.269,764 166.025,764 167.781,764 169.537,764 171.294,764 173.05,764 174.806,764 176.562,764 178.319,764 180.075,764 181.831,764 183.588,764 185.344,764 187.1,764 188.856,764 190.613,764 192.369,764 194.125,764 195.881,764 197.637,764 199.394,764 201.15,764 202.906,764 204.662,764 206.419,764 208.175,764 209.931,764 211.688,764 213.444,764 215.2,764 216.956,764 218.713,764 220.469,764 222.225,764 223.981,764 225.738,764 227.494,764 229.25,764 231.006,764 232.762,764 234.519,764 236.275,764 238.031,764 239.788,764 241.544,764 243.3,764 245.056,764 246.812,764 248.569,764 250.325,764 252.081,764 253.838,764 255.594,764 257.35,764 259.106,764 260.863,764 262.619,764 264.375,764 266.131,764 267.887,764 269.644,764 271.4,764 273.156,764 274.913,764 276.669,764 278.425,764 280.181,764 281.938,764 283.694,764 285.45,764 287.206,764 288.962,764 290.719,764 292.475,764 294.231,764 295.988,764 297.744,764 299.5,764 301.256,764 303.013,764 304.769,764 306.525,764 308.281,764 310.038,764 311.794,764 313.55,764 315.306,764 317.062,764 318.819,764 320.575,764 322.331,764 324.087,764 325.844,764 327.6,764 329.356,764 331.113,764 332.869,764 334.625,120 336.381,120 338.138,120 339.894,120 341.65,120 343.406,120 345.163,120 346.919,120 348.675,120 350.431,120 352.188,120 353.944,120 355.7,120 357.456,120 359.212,120 360.969,120 362.725,120 364.481,120 366.238,120 367.994,120 369.75,120 371.506,120 373.263,120 375.019,120 376.775,120 378.531,120 380.288,120 382.044,120 383.8,120 385.556,120 387.312,120 389.069,120 390.825,120 392.581,120 394.337,120 396.094,120 397.85,120 399.606,120 401.363,120 403.119,120 404.875,120 406.631,120 408.388,120 410.144,120 411.9,120 413.656,120 415.413,120 417.169,120 418.925,120 420.681,120 422.438,120 424.194,120 425.95,120 427.706,120 429.463,120 431.219,120 432.975,120 434.731,120 436.488,120 438.244,120 440,120 441.756,120 443.512,120 445.269,120 447.025,120 448.781,120 450.538,120 452.294,120 454.05,120 455.806,120 457.562,120 459.319,120 461.075,120 462.831,120 464.588,120 466.344,120 468.1,120 469.856,120 471.613,120 473.369,120 475.125,120 476.881,120 478.637,120 480.394,120 482.15,120 483.906,120 485.663,120 487.419,120 489.175,120 490.931,120 492.688,120 494.444,120 496.2,120 497.956,120 499.713,120 501.469,120 503.225,120 504.981,120 506.738,120 508.494,120 510.25,120 512.006,120 513.763,120 515.519,120 517.275,120 519.031,120 520.788,120 522.544,120 524.3,120 526.056,120 527.812,120 529.569,120 531.325,120 533.081,120 534.838,120 536.594,120 538.35,120 540.106,120 541.862,120 543.619,120 545.375,120 547.131,120 548.888,120 550.644,120 552.4,120 554.156,120 555.913,120 557.669,120 559.425,120 561.181,120 562.938,120 564.694,120 566.45,120 568.206,120 569.963,120 571.719,120 573.475,120 575.231,120 576.987,120 578.744,120 580.5,120 582.256,120 584.013,120 585.769,120 587.525,120 589.281,120 591.038,120 592.794,120 594.55,120 596.306,120 598.062,120 599.819,120 601.575,120 603.331,120 605.088,120 606.844,120 608.6,120 610.356,120 612.112,120 613.869,120 615.625,120 617.381,120 619.138,120 620.894,120 622.65,120 624.406,120 626.163,120 627.919,120 629.675,120 631.431,120 633.188,120 634.944,120 636.7,120 638.456,120 640.213,120 641.969,120 643.725,120 645.481,120 647.237,120 648.994,120 650.75,120 652.506,120 654.263,120 656.019,120 657.775,120 659.531,120 661.288,120 663.044,120 664.8,120 666.556,120 668.312,120 670.069,120 671.825,120 673.581,120 675.337,120 677.094,120 678.85,120 680.606,120 682.363,120 684.119,120 685.875,764 687.631,764 689.388,764 691.144,764 692.9,764 694.656,764 696.413,764 698.169,764 699.925,764 701.681,764 703.438,764 705.194,764 706.95,764 708.706,764 710.462,764 712.219,764 713.975,764 715.731,764 717.488,764 719.244,764 721,764 722.756,764 724.513,764 726.269,764 728.025,764 729.781,764 731.538,764 733.294,764 735.05,764 736.806,764 738.562,764 740.319,764 742.075,764 743.831,764 745.587,764 747.344,764 749.1,764 750.856,764 752.613,764 754.369,764 756.125,764 757.881,764 759.638,764 761.394,764 763.15,764 764.906,764 766.663,764 768.419,764 770.175,764 771.931,764 773.688,764 775.444,764 777.2,764 778.956,764 780.712,764 782.469,764 784.225,764 785.981,764 787.738,764 789.494,764 791.25,764 793.006,764 794.763,764 796.519,764 798.275,764 800.031,764 801.788,764 803.544,764 805.3,764 807.056,764 808.812,764 810.569,764 812.325,764 814.081,764 815.837,764 817.594,764 819.35,764 821.106,764 822.863,764 824.619,764 826.375,764 828.131,764 829.888,764 831.644,764 833.4,764 835.156,764 836.913,764 838.669,764 840.425,764 842.181,764 843.938,764 845.694,764 847.45,764 849.206,764 850.963,764 852.719,764 854.475,764 856.231,764 857.988,764 859.744,764 861.5,764 863.256,764 865.013,764 866.769,764 868.525,764 870.281,764 872.038,764 873.794,764 875.55,764 877.306,764 879.062,764 880.819,764 882.575,764 884.331,764 886.088,764 887.844,764 889.6,764 891.356,764 893.113,764 894.869,764 896.625,764 898.381,764 900.138,764 901.894,764 903.65,764 905.406,764 907.163,764 908.919,764 910.675,764 912.431,764 914.188,764 915.944,764 917.7,764 919.456,764 921.213,764 922.969,764 924.725,764 926.481,764 928.238,764 929.994,764 931.75,764 933.506,764 935.263,764 937.019,764 938.775,764 940.531,764 942.288,764 944.044,764 945.8,764 947.556,764 949.312,764 951.069,764 952.825,764 954.581,764 956.338,764 958.094,764 959.85,764 961.606,764 963.363,764 965.119,764 966.875,764 968.631,764 970.388,764 972.144,764 973.9,764 975.656,764 977.413,764 979.169,764 980.925,764 982.681,764 984.438,764 986.194,764 987.95,764 989.706,764 991.463,764 993.219,764 994.975,764 996.731,764 998.488,764 1000.24,764 1002,764 1003.76,764 1005.51,764 1007.27,764 1009.03,764 1010.78,764 1012.54,764 1014.29,764 1016.05,764 1017.81,764 1019.56,764 1021.32,764 1023.08,764 1024.83,764 1026.59,764 1028.34,764 1030.1,764 1031.86,764 1033.61,764 1035.37,764 1037.12,764 1038.88,764 1040.64,764 1042.39,764 1044.15,764 1045.91,764 1047.66,764 1049.42,764 1051.18,764 1052.93,764 1054.69,764 1056.44,764 1058.2,764 1059.96,764 1061.71,764 1063.47,764 1065.22,764 1066.98,764 1068.74,764 1070.49,764 1072.25,764 1074.01,764 1075.76,764 1077.52,764 1079.28,764 1081.03,764 1082.79,764 1084.54,764 1086.3,764 1088.06,764 1089.81,764 1091.57,764 1093.33,764 1095.08,764 1096.84,764 1098.59,764 1100.35,764 1102.11,764 1103.86,764 1105.62,764 1107.38,764 1109.13,764 1110.89,764 1112.64,764 1114.4,764 1116.16,764 1117.91,764 1119.67,764 1121.43,764 1123.18,764 1124.94,764 1126.69,764 1128.45,764 1130.21,764 1131.96,764 1133.72,764 1135.47,764 1137.23,764 1138.99,764 1140.74,764 1142.5,764 1144.26,764 1146.01,764 1147.77,764 1149.53,764 1151.28,764 1153.04,764 1154.79,764 1156.55,764 1158.31,764 1160.06,764 1161.82,764 1163.58,764 1165.33,764 1167.09,764 1168.84,764 1170.6,764 1172.36,764 1174.11,764 1175.87,764 1177.62,764 1179.38,764 1181.14,764 1182.89,764 1184.65,764 1186.41,764 1188.16,764 1189.92,764 1191.67,764 1193.43,764 1195.19,764 1196.94,764 1198.7,764 1200.46,764 1202.21,764 1203.97,764 1205.73,764 1207.48,764 1209.24,764 1210.99,764 1212.75,764 1214.51,764 1216.26,764 1218.02,764 1219.78,764 1221.53,764 1223.29,764 1225.04,764 1226.8,764 1228.56,764 1230.31,764 1232.07,764 1233.83,764 1235.58,764 1237.34,764 1239.09,764 1240.85,764 1242.61,764 1244.36,764 1246.12,764 1247.88,764 1249.63,764 1251.39,764 1253.14,764 1254.9,764 1256.66,764 1258.41,764 1260.17,764 1261.92,764 1263.68,764 1265.44,764 1267.19,764 1268.95,764 1270.71,764 1272.46,764 1274.22,764 1275.98,764 1277.73,764 1279.49,764 1281.24,764 1283,764 1284.76,764 1286.51,764 1288.27,764 1290.03,764 1291.78,764 1293.54,764 1295.29,764 1297.05,764 1298.81,764 1300.56,764 1302.32,764 1304.08,764 1305.83,764 1307.59,764 1309.34,764 1311.1,764 1312.86,764 1314.61,764 1316.37,764 1318.12,764 1319.88,764 1321.64,764 1323.39,764 1325.15,764 1326.91,764 1328.66,764 1330.42,764 1332.17,764 1333.93,764 1335.69,764 1337.44,764 1339.2,764 1340.96,764 1342.71,764 1344.47,764 1346.23,764 1347.98,764 1349.74,764 1351.49,764 1353.25,764 1355.01,764 1356.76,764 1358.52,764 1360.28,764 1362.03,764 1363.79,764 1365.54,764 1367.3,764 1369.06,764 1370.81,764 1372.57,764 1374.33,764 1376.08,764 1377.84,764 1379.59,764 1381.35,764 1383.11,764 1384.86,764 1386.62,764 1388.38,120 1390.13,120 1391.89,120 1393.64,120 1395.4,120 1397.16,120 1398.91,120 1400.67,120 1402.42,120 1404.18,120 1405.94,120 1407.69,120 1409.45,120 1411.21,120 1412.96,120 1414.72,120 1416.48,120 1418.23,120 1419.99,120 1421.74,120 1423.5,120 1425.26,120 1427.01,120 1428.77,120 1430.53,120 1432.28,120 1434.04,120 1435.79,120 1437.55,120 1439.31,120 1441.06,120 1442.82,120 1444.58,120 1446.33,120 1448.09,120 1449.84,120 1451.6,120 1453.36,120 1455.11,120 1456.87,120 1458.62,120 1460.38,120 1462.14,120 1463.89,120 1465.65,120 1467.41,120 1469.16,120 1470.92,120 1472.67,120 1474.43,120 1476.19,120 1477.94,120 1479.7,120 1481.46,120 1483.21,120 1484.97,120 1486.73,120 1488.48,120 1490.24,120 1491.99,120 1493.75,120 1495.51,120 1497.26,120 1499.02,120 1500.78,120 1502.53,120 1504.29,120 1506.04,120 1507.8,120 1509.56,120 1511.31,120 1513.07,120 1514.83,120 1516.58,120 1518.34,120 1520.09,120 1521.85,120 1523.61,120 1525.36,120 1527.12,120 1528.88,120 1530.63,120 1532.39,120 1534.14,120 1535.9,120 1537.66,120 1539.41,120 1541.17,120 1542.93,120 1544.68,120 1546.44,120 1548.19,120 1549.95,120 1551.71,120 1553.46,120 1555.22,120 1556.98,120 1558.73,120 1560.49,120 1562.24,120 " />
</g>

<g fill="none" stroke="#000000" stroke-opacity="1" stroke-width="1" stroke-linecap="square" stroke-linejoin="bevel" transform="matrix(1,0,0,1,0,0)"
font-family="Ubuntu" font-size="14.6667" font-weight="400" font-style="normal" 
>
</g>

<g fill="none" stroke="#000000" stroke-opacity="1" stroke-width="1" stroke-linecap="square" stroke-linejoin="bevel" transform="matrix(1,0,0,1,0,0)"
font-family="Ubuntu" font-size="14.6667" font-weight="400" font-style="normal" 
>
</g>

<g fill="none" stroke="#000000" stroke-opacity="1" stroke-width="1" stroke-linecap="square" stroke-linejoin="bevel" transform="matrix(1,0,0,1,0,0)"
font-family="Ubuntu" font-size="14.6667" font-weight="400" font-style="normal" 
>
</g>

<g fill="none" stroke="#3c3c3c" stroke-opacity="1" stroke-width="1" stroke-linecap="square" stroke-linejoin="bevel" transform="matrix(1,0,0,1,0,0)"
font-family="Ubuntu" font-size="18.6667" font-weight="700" font-style="normal" 
>
</g>

<g fill="none" stroke="#3c3c3c" stroke-opacity="1" stroke-width="1" stroke-linecap="square" stroke-linejoin="bevel" transform="matrix(1,0,0,1,0,0)"
font-family="Gentium" font-size="66.0622" font-weight="400" font-style="normal" 
>
<text fill="#3c3c3c" fill-opacity="1" stroke="none" xml:space="preserve" x="871.5" y="67" font-family="Gentium" font-size="66.0622" font-weight="400" font-style="normal" 
 > </text>
</g>

<g fill="none" stroke="#3c3c3c" stroke-opacity="1" stroke-width="1" stroke-linecap="square" stroke-linejoin="bevel" transform="matrix(1,0,0,1,0,0)"
font-family="Ubuntu" font-size="18.6667" font-weight="700" font-style="normal" 
>
</g>

<g fill="none" stroke="#3c3c3c" stroke-opacity="1" stroke-width="1" stroke-linecap="square" stroke-linejoin="bevel" transform="matrix(0,-1,1,0,15,792)"
font-family="Gentium" font-size="49.5467" font-weight="400" font-style="normal" 
>
</g>

<g fill="none" stroke="#000000" stroke-opacity="1" stroke-width="1" stroke-linecap="square" stroke-linejoin="bevel" transform="matrix(0,-1,1,0,15,792)"
font-family="Gentium" font-size="60.557" font-weight="400" font-style="normal" 
>
<text fill="#000000" fill-opacity="1" stroke="none" xml:space="preserve" x="219" y="53" font-family="Gentium" font-size="60.557" font-weight="400" font-style="normal" 
 >Tensão (V)</text>
</g>

<g fill="none" stroke="#3c3c3c" stroke-opacity="1" stroke-width="1" stroke-linecap="square" stroke-linejoin="bevel" transform="matrix(0,-1,1,0,15,792)"
font-family="Gentium" font-size="49.5467" font-weight="400" font-style="normal" 
>
</g>

<g fill="none" stroke="#3c3c3c" stroke-opacity="1" stroke-width="1" stroke-linecap="square" stroke-linejoin="bevel" transform="matrix(1,0,0,1,0,0)"
font-family="Ubuntu" font-size="18.6667" font-weight="700" font-style="normal" 
>
</g>

<g fill="none" stroke="#3c3c3c" stroke-opacity="1" stroke-width="1" stroke-linecap="square" stroke-linejoin="bevel" transform="matrix(1,0,0,1,0,0)"
font-family="Gentium" font-size="49.5467" font-weight="400" font-style="normal" 
>
</g>

<g fill="none" stroke="#3c3c3c" stroke-opacity="1" stroke-width="1" stroke-linecap="square" stroke-linejoin="bevel" transform="matrix(1,0,0,1,0,0)"
font-family="Gentium" font-size="49.5467" font-weight="400" font-style="normal" 
>
</g>

<g fill="none" stroke="#3c3c3c" stroke-opacity="1" stroke-width="1" stroke-linecap="square" stroke-linejoin="bevel" transform="matrix(1,0,0,1,123,735)"
font-family="Gentium" font-size="49.5467" font-weight="400" font-style="normal" 
>
<text fill="#3c3c3c" fill-opacity="1" stroke="none" xml:space="preserve" x="0" y="43" font-family="Gentium" font-size="49.5467" font-weight="400" font-style="normal" 
 >0</text>
</g>

<g fill="none" stroke="#3c3c3c" stroke-opacity="1" stroke-width="1" stroke-linecap="square" stroke-linejoin="bevel" transform="matrix(1,0,0,1,123,735)"
font-family="Gentium" font-size="49.5467" font-weight="400" font-style="normal" 
>
</g>

<g fill="none" stroke="#3c3c3c" stroke-opacity="1" stroke-width="1" stroke-linecap="square" stroke-linejoin="bevel" transform="matrix(1,0,0,1,0,0)"
font-family="Gentium" font-size="49.5467" font-weight="400" font-style="normal" 
>
</g>

<g fill="none" stroke="#3c3c3c" stroke-opacity="1" stroke-width="1" stroke-linecap="square" stroke-linejoin="bevel" transform="matrix(1,0,0,1,89,606)"
font-family="Gentium" font-size="49.5467" font-weight="400" font-style="normal" 
>
<text fill="#3c3c3c" fill-opacity="1" stroke="none" xml:space="preserve" x="0" y="43" font-family="Gentium" font-size="49.5467" font-weight="400" font-style="normal" 
 >0.2</text>
</g>

<g fill="none" stroke="#3c3c3c" stroke-opacity="1" stroke-width="1" stroke-linecap="square" stroke-linejoin="bevel" transform="matrix(1,0,0,1,89,606)"
font-family="Gentium" font-size="49.5467" font-weight="400" font-style="normal" 
>
</g>

<g fill="none" stroke="#3c3c3c" stroke-opacity="1" stroke-width="1" stroke-linecap="square" stroke-linejoin="bevel" transform="matrix(1,0,0,1,0,0)"
font-family="Gentium" font-size="49.5467" font-weight="400" font-style="normal" 
>
</g>

<g fill="none" stroke="#3c3c3c" stroke-opacity="1" stroke-width="1" stroke-linecap="square" stroke-linejoin="bevel" transform="matrix(1,0,0,1,88,477)"
font-family="Gentium" font-size="49.5467" font-weight="400" font-style="normal" 
>
<text fill="#3c3c3c" fill-opacity="1" stroke="none" xml:space="preserve" x="0" y="43" font-family="Gentium" font-size="49.5467" font-weight="400" font-style="normal" 
 >0.4</text>
</g>

<g fill="none" stroke="#3c3c3c" stroke-opacity="1" stroke-width="1" stroke-linecap="square" stroke-linejoin="bevel" transform="matrix(1,0,0,1,88,477)"
font-family="Gentium" font-size="49.5467" font-weight="400" font-style="normal" 
>
</g>

<g fill="none" stroke="#3c3c3c" stroke-opacity="1" stroke-width="1" stroke-linecap="square" stroke-linejoin="bevel" transform="matrix(1,0,0,1,0,0)"
font-family="Gentium" font-size="49.5467" font-weight="400" font-style="normal" 
>
</g>

<g fill="none" stroke="#3c3c3c" stroke-opacity="1" stroke-width="1" stroke-linecap="square" stroke-linejoin="bevel" transform="matrix(1,0,0,1,89,349)"
font-family="Gentium" font-size="49.5467" font-weight="400" font-style="normal" 
>
<text fill="#3c3c3c" fill-opacity="1" stroke="none" xml:space="preserve" x="0" y="43" font-family="Gentium" font-size="49.5467" font-weight="400" font-style="normal" 
 >0.6</text>
</g>

<g fill="none" stroke="#3c3c3c" stroke-opacity="1" stroke-width="1" stroke-linecap="square" stroke-linejoin="bevel" transform="matrix(1,0,0,1,89,349)"
font-family="Gentium" font-size="49.5467" font-weight="400" font-style="normal" 
>
</g>

<g fill="none" stroke="#3c3c3c" stroke-opacity="1" stroke-width="1" stroke-linecap="square" stroke-linejoin="bevel" transform="matrix(1,0,0,1,0,0)"
font-family="Gentium" font-size="49.5467" font-weight="400" font-style="normal" 
>
</g>

<g fill="none" stroke="#3c3c3c" stroke-opacity="1" stroke-width="1" stroke-linecap="square" stroke-linejoin="bevel" transform="matrix(1,0,0,1,89,220)"
font-family="Gentium" font-size="49.5467" font-weight="400" font-style="normal" 
>
<text fill="#3c3c3c" fill-opacity="1" stroke="none" xml:space="preserve" x="0" y="43" font-family="Gentium" font-size="49.5467" font-weight="400" font-style="normal" 
 >0.8</text>
</g>

<g fill="none" stroke="#3c3c3c" stroke-opacity="1" stroke-width="1" stroke-linecap="square" stroke-linejoin="bevel" transform="matrix(1,0,0,1,89,220)"
font-family="Gentium" font-size="49.5467" font-weight="400" font-style="normal" 
>
</g>

<g fill="none" stroke="#3c3c3c" stroke-opacity="1" stroke-width="1" stroke-linecap="square" stroke-linejoin="bevel" transform="matrix(1,0,0,1,0,0)"
font-family="Gentium" font-size="49.5467" font-weight="400" font-style="normal" 
>
</g>

<g fill="none" stroke="#3c3c3c" stroke-opacity="1" stroke-width="1" stroke-linecap="square" stroke-linejoin="bevel" transform="matrix(1,0,0,1,123,91)"
font-family="Gentium" font-size="49.5467" font-weight="400" font-style="normal" 
>
<text fill="#3c3c3c" fill-opacity="1" stroke="none" xml:space="preserve" x="0" y="43" font-family="Gentium" font-size="49.5467" font-weight="400" font-style="normal" 
 >1</text>
</g>

<g fill="none" stroke="#3c3c3c" stroke-opacity="1" stroke-width="1" stroke-linecap="square" stroke-linejoin="bevel" transform="matrix(1,0,0,1,123,91)"
font-family="Gentium" font-size="49.5467" font-weight="400" font-style="normal" 
>
</g>

<g fill="none" stroke="#3c3c3c" stroke-opacity="1" stroke-width="1" stroke-linecap="square" stroke-linejoin="bevel" transform="matrix(1,0,0,1,0,0)"
font-family="Gentium" font-size="49.5467" font-weight="400" font-style="normal" 
>
</g>

<g fill="none" stroke="#3c3c3c" stroke-opacity="1" stroke-width="1" stroke-linecap="square" stroke-linejoin="bevel" transform="matrix(1,0,0,1,0,0)"
font-family="Gentium" font-size="49.5467" font-weight="400" font-style="normal" 
>
</g>

<g fill="none" stroke="#000000" stroke-opacity="1" stroke-width="1" stroke-linecap="square" stroke-linejoin="bevel" transform="matrix(1,0,0,1,0,0)"
font-family="Gentium" font-size="49.5467" font-weight="400" font-style="normal" 
>
<polyline fill="none" vector-effect="none" points="159,732 154,732 " />
<polyline fill="none" vector-effect="none" points="159,667 154,667 " />
<polyline fill="none" vector-effect="none" points="159,603 154,603 " />
<polyline fill="none" vector-effect="none" points="159,539 154,539 " />
<polyline fill="none" vector-effect="none" points="159,474 154,474 " />
<polyline fill="none" vector-effect="none" points="159,410 154,410 " />
<polyline fill="none" vector-effect="none" points="159,345 154,345 " />
<polyline fill="none" vector-effect="none" points="159,281 154,281 " />
<polyline fill="none" vector-effect="none" points="159,217 154,217 " />
<polyline fill="none" vector-effect="none" points="159,152 154,152 " />
<polyline fill="none" vector-effect="none" points="159,700 154,700 " />
<polyline fill="none" vector-effect="none" points="159,571 154,571 " />
<polyline fill="none" vector-effect="none" points="159,442 154,442 " />
<polyline fill="none" vector-effect="none" points="159,313 154,313 " />
<polyline fill="none" vector-effect="none" points="159,184 154,184 " />
<polyline fill="none" vector-effect="none" points="159,764 150,764 " />
<polyline fill="none" vector-effect="none" points="159,635 150,635 " />
<polyline fill="none" vector-effect="none" points="159,506 150,506 " />
<polyline fill="none" vector-effect="none" points="159,378 150,378 " />
<polyline fill="none" vector-effect="none" points="159,249 150,249 " />
<polyline fill="none" vector-effect="none" points="159,120 150,120 " />
</g>

<g fill="none" stroke="#3c3c3c" stroke-opacity="1" stroke-width="1" stroke-linecap="square" stroke-linejoin="bevel" transform="matrix(1,0,0,1,0,0)"
font-family="Gentium" font-size="49.5467" font-weight="400" font-style="normal" 
>
</g>

<g fill="none" stroke="#000000" stroke-opacity="1" stroke-width="1" stroke-linecap="square" stroke-linejoin="bevel" transform="matrix(1,0,0,1,0,0)"
font-family="Gentium" font-size="49.5467" font-weight="400" font-style="normal" 
>
<polyline fill="none" vector-effect="none" points="159,120 159,764 " />
</g>

<g fill="none" stroke="#3c3c3c" stroke-opacity="1" stroke-width="1" stroke-linecap="square" stroke-linejoin="bevel" transform="matrix(1,0,0,1,0,0)"
font-family="Gentium" font-size="49.5467" font-weight="400" font-style="normal" 
>
</g>

<g fill="none" stroke="#3c3c3c" stroke-opacity="1" stroke-width="1" stroke-linecap="square" stroke-linejoin="bevel" transform="matrix(1,0,0,1,0,0)"
font-family="Gentium" font-size="49.5467" font-weight="400" font-style="normal" 
>
</g>

<g fill="none" stroke="#3c3c3c" stroke-opacity="1" stroke-width="1" stroke-linecap="square" stroke-linejoin="bevel" transform="matrix(1,0,0,1,0,0)"
font-family="Ubuntu" font-size="18.6667" font-weight="700" font-style="normal" 
>
</g>

<g fill="none" stroke="#3c3c3c" stroke-opacity="1" stroke-width="1" stroke-linecap="square" stroke-linejoin="bevel" transform="matrix(1,0,0,1,148,837)"
font-family="Gentium" font-size="49.5467" font-weight="400" font-style="normal" 
>
</g>

<g fill="none" stroke="#000000" stroke-opacity="1" stroke-width="1" stroke-linecap="square" stroke-linejoin="bevel" transform="matrix(1,0,0,1,148,837)"
font-family="Gentium" font-size="60.557" font-weight="400" font-style="normal" 
>
<text fill="#000000" fill-opacity="1" stroke="none" xml:space="preserve" x="578" y="54" font-family="Gentium" font-size="60.557" font-weight="400" font-style="normal" 
 >Tempo (ms)</text>
</g>

<g fill="none" stroke="#3c3c3c" stroke-opacity="1" stroke-width="1" stroke-linecap="square" stroke-linejoin="bevel" transform="matrix(1,0,0,1,148,837)"
font-family="Gentium" font-size="49.5467" font-weight="400" font-style="normal" 
>
</g>

<g fill="none" stroke="#3c3c3c" stroke-opacity="1" stroke-width="1" stroke-linecap="square" stroke-linejoin="bevel" transform="matrix(1,0,0,1,0,0)"
font-family="Ubuntu" font-size="18.6667" font-weight="700" font-style="normal" 
>
</g>

<g fill="none" stroke="#3c3c3c" stroke-opacity="1" stroke-width="1" stroke-linecap="square" stroke-linejoin="bevel" transform="matrix(1,0,0,1,0,0)"
font-family="Gentium" font-size="49.5467" font-weight="400" font-style="normal" 
>
</g>

<g fill="none" stroke="#3c3c3c" stroke-opacity="1" stroke-width="1" stroke-linecap="square" stroke-linejoin="bevel" transform="matrix(1,0,0,1,0,0)"
font-family="Gentium" font-size="49.5467" font-weight="400" font-style="normal" 
>
</g>

<g fill="none" stroke="#3c3c3c" stroke-opacity="1" stroke-width="1" stroke-linecap="square" stroke-linejoin="bevel" transform="matrix(1,0,0,1,148,778)"
font-family="Gentium" font-size="49.5467" font-weight="400" font-style="normal" 
>
<text fill="#3c3c3c" fill-opacity="1" stroke="none" xml:space="preserve" x="0" y="43" font-family="Gentium" font-size="49.5467" font-weight="400" font-style="normal" 
 >0</text>
</g>

<g fill="none" stroke="#3c3c3c" stroke-opacity="1" stroke-width="1" stroke-linecap="square" stroke-linejoin="bevel" transform="matrix(1,0,0,1,148,778)"
font-family="Gentium" font-size="49.5467" font-weight="400" font-style="normal" 
>
</g>

<g fill="none" stroke="#3c3c3c" stroke-opacity="1" stroke-width="1" stroke-linecap="square" stroke-linejoin="bevel" transform="matrix(1,0,0,1,0,0)"
font-family="Gentium" font-size="49.5467" font-weight="400" font-style="normal" 
>
</g>

<g fill="none" stroke="#3c3c3c" stroke-opacity="1" stroke-width="1" stroke-linecap="square" stroke-linejoin="bevel" transform="matrix(1,0,0,1,476,778)"
font-family="Gentium" font-size="49.5467" font-weight="400" font-style="normal" 
>
<text fill="#3c3c3c" fill-opacity="1" stroke="none" xml:space="preserve" x="0" y="43" font-family="Gentium" font-size="49.5467" font-weight="400" font-style="normal" 
 >200</text>
</g>

<g fill="none" stroke="#3c3c3c" stroke-opacity="1" stroke-width="1" stroke-linecap="square" stroke-linejoin="bevel" transform="matrix(1,0,0,1,476,778)"
font-family="Gentium" font-size="49.5467" font-weight="400" font-style="normal" 
>
</g>

<g fill="none" stroke="#3c3c3c" stroke-opacity="1" stroke-width="1" stroke-linecap="square" stroke-linejoin="bevel" transform="matrix(1,0,0,1,0,0)"
font-family="Gentium" font-size="49.5467" font-weight="400" font-style="normal" 
>
</g>

<g fill="none" stroke="#3c3c3c" stroke-opacity="1" stroke-width="1" stroke-linecap="square" stroke-linejoin="bevel" transform="matrix(1,0,0,1,827,778)"
font-family="Gentium" font-size="49.5467" font-weight="400" font-style="normal" 
>
<text fill="#3c3c3c" fill-opacity="1" stroke="none" xml:space="preserve" x="0" y="43" font-family="Gentium" font-size="49.5467" font-weight="400" font-style="normal" 
 >400</text>
</g>

<g fill="none" stroke="#3c3c3c" stroke-opacity="1" stroke-width="1" stroke-linecap="square" stroke-linejoin="bevel" transform="matrix(1,0,0,1,827,778)"
font-family="Gentium" font-size="49.5467" font-weight="400" font-style="normal" 
>
</g>

<g fill="none" stroke="#3c3c3c" stroke-opacity="1" stroke-width="1" stroke-linecap="square" stroke-linejoin="bevel" transform="matrix(1,0,0,1,0,0)"
font-family="Gentium" font-size="49.5467" font-weight="400" font-style="normal" 
>
</g>

<g fill="none" stroke="#3c3c3c" stroke-opacity="1" stroke-width="1" stroke-linecap="square" stroke-linejoin="bevel" transform="matrix(1,0,0,1,1179,778)"
font-family="Gentium" font-size="49.5467" font-weight="400" font-style="normal" 
>
<text fill="#3c3c3c" fill-opacity="1" stroke="none" xml:space="preserve" x="0" y="43" font-family="Gentium" font-size="49.5467" font-weight="400" font-style="normal" 
 >600</text>
</g>

<g fill="none" stroke="#3c3c3c" stroke-opacity="1" stroke-width="1" stroke-linecap="square" stroke-linejoin="bevel" transform="matrix(1,0,0,1,1179,778)"
font-family="Gentium" font-size="49.5467" font-weight="400" font-style="normal" 
>
</g>

<g fill="none" stroke="#3c3c3c" stroke-opacity="1" stroke-width="1" stroke-linecap="square" stroke-linejoin="bevel" transform="matrix(1,0,0,1,0,0)"
font-family="Gentium" font-size="49.5467" font-weight="400" font-style="normal" 
>
</g>

<g fill="none" stroke="#3c3c3c" stroke-opacity="1" stroke-width="1" stroke-linecap="square" stroke-linejoin="bevel" transform="matrix(1,0,0,1,1530,778)"
font-family="Gentium" font-size="49.5467" font-weight="400" font-style="normal" 
>
<text fill="#3c3c3c" fill-opacity="1" stroke="none" xml:space="preserve" x="0" y="43" font-family="Gentium" font-size="49.5467" font-weight="400" font-style="normal" 
 >800</text>
</g>

<g fill="none" stroke="#3c3c3c" stroke-opacity="1" stroke-width="1" stroke-linecap="square" stroke-linejoin="bevel" transform="matrix(1,0,0,1,1530,778)"
font-family="Gentium" font-size="49.5467" font-weight="400" font-style="normal" 
>
</g>

<g fill="none" stroke="#3c3c3c" stroke-opacity="1" stroke-width="1" stroke-linecap="square" stroke-linejoin="bevel" transform="matrix(1,0,0,1,0,0)"
font-family="Gentium" font-size="49.5467" font-weight="400" font-style="normal" 
>
</g>

<g fill="none" stroke="#3c3c3c" stroke-opacity="1" stroke-width="1" stroke-linecap="square" stroke-linejoin="bevel" transform="matrix(1,0,0,1,0,0)"
font-family="Gentium" font-size="49.5467" font-weight="400" font-style="normal" 
>
</g>

<g fill="none" stroke="#000000" stroke-opacity="1" stroke-width="1" stroke-linecap="square" stroke-linejoin="bevel" transform="matrix(1,0,0,1,0,0)"
font-family="Gentium" font-size="49.5467" font-weight="400" font-style="normal" 
>
<polyline fill="none" vector-effect="none" points="247,764 247,769 " />
<polyline fill="none" vector-effect="none" points="422,764 422,769 " />
<polyline fill="none" vector-effect="none" points="598,764 598,769 " />
<polyline fill="none" vector-effect="none" points="774,764 774,769 " />
<polyline fill="none" vector-effect="none" points="949,764 949,769 " />
<polyline fill="none" vector-effect="none" points="1125,764 1125,769 " />
<polyline fill="none" vector-effect="none" points="1301,764 1301,769 " />
<polyline fill="none" vector-effect="none" points="1476,764 1476,769 " />
<polyline fill="none" vector-effect="none" points="335,764 335,769 " />
<polyline fill="none" vector-effect="none" points="686,764 686,769 " />
<polyline fill="none" vector-effect="none" points="1037,764 1037,769 " />
<polyline fill="none" vector-effect="none" points="1388,764 1388,769 " />
<polyline fill="none" vector-effect="none" points="159,764 159,773 " />
<polyline fill="none" vector-effect="none" points="510,764 510,773 " />
<polyline fill="none" vector-effect="none" points="862,764 862,773 " />
<polyline fill="none" vector-effect="none" points="1213,764 1213,773 " />
<polyline fill="none" vector-effect="none" points="1564,764 1564,773 " />
</g>

<g fill="none" stroke="#3c3c3c" stroke-opacity="1" stroke-width="1" stroke-linecap="square" stroke-linejoin="bevel" transform="matrix(1,0,0,1,0,0)"
font-family="Gentium" font-size="49.5467" font-weight="400" font-style="normal" 
>
</g>

<g fill="none" stroke="#000000" stroke-opacity="1" stroke-width="1" stroke-linecap="square" stroke-linejoin="bevel" transform="matrix(1,0,0,1,0,0)"
font-family="Gentium" font-size="49.5467" font-weight="400" font-style="normal" 
>
<polyline fill="none" vector-effect="none" points="159,764 1564,764 " />
</g>

<g fill="none" stroke="#3c3c3c" stroke-opacity="1" stroke-width="1" stroke-linecap="square" stroke-linejoin="bevel" transform="matrix(1,0,0,1,0,0)"
font-family="Gentium" font-size="49.5467" font-weight="400" font-style="normal" 
>
</g>

<g fill="none" stroke="#3c3c3c" stroke-opacity="1" stroke-width="1" stroke-linecap="square" stroke-linejoin="bevel" transform="matrix(1,0,0,1,0,0)"
font-family="Gentium" font-size="49.5467" font-weight="400" font-style="normal" 
>
</g>

<g fill="none" stroke="#3c3c3c" stroke-opacity="1" stroke-width="1" stroke-linecap="square" stroke-linejoin="bevel" transform="matrix(1,0,0,1,0,0)"
font-family="Ubuntu" font-size="18.6667" font-weight="700" font-style="normal" 
>
</g>

<g fill="none" stroke="#000000" stroke-opacity="1" stroke-width="1" stroke-linecap="square" stroke-linejoin="bevel" transform="matrix(1,0,0,1,0,0)"
font-family="Ubuntu" font-size="14.6667" font-weight="400" font-style="normal" 
>
</g>
</g>
</svg>
