<?xml version="1.0" encoding="UTF-8" standalone="no"?>
<svg width="361.421mm" height="155.84mm"
 xmlns="http://www.w3.org/2000/svg" xmlns:xlink="http://www.w3.org/1999/xlink"  version="1.2" baseProfile="tiny">
<title>Qt Svg Document</title>
<desc>Generated with Qt</desc>
<defs>
</defs>
<g fill="none" stroke="black" stroke-width="1" fill-rule="evenodd" stroke-linecap="square" stroke-linejoin="bevel" >

<g fill="#ffffff" fill-opacity="0" stroke="none" transform="matrix(1,0,0,1,0,0)"
font-family="Sans" font-size="13.3333" font-weight="400" font-style="normal" 
>
<path vector-effect="non-scaling-stroke" fill-rule="evenodd" d="M4,2 L1348,2 L1348,573 L4,573 L4,2"/>
</g>

<g fill="none" stroke="none" transform="matrix(1,0,0,1,0,0)"
font-family="Sans" font-size="13.3333" font-weight="400" font-style="normal" 
>
<path vector-effect="non-scaling-stroke" fill-rule="evenodd" d="M4,2 L1348,2 L1348,573 L4,573 L4,2"/>
</g>

<g fill="none" stroke="#000000" stroke-opacity="1" stroke-width="1" stroke-linecap="square" stroke-linejoin="bevel" transform="matrix(1,0,0,1,0,0)"
font-family="Sans" font-size="13.3333" font-weight="400" font-style="normal" 
>
</g>

<g fill="#ffffff" fill-opacity="0" stroke="none" transform="matrix(1,0,0,1,0,0)"
font-family="Sans" font-size="13.3333" font-weight="400" font-style="normal" 
>
<path vector-effect="non-scaling-stroke" fill-rule="evenodd" d="M108,73 L1330,73 L1330,480 L108,480 L108,73"/>
</g>

<g fill="none" stroke="#000000" stroke-opacity="1" stroke-width="1" stroke-linecap="square" stroke-linejoin="bevel" transform="matrix(1,0,0,1,0,0)"
font-family="Sans" font-size="13.3333" font-weight="400" font-style="normal" 
>
</g>

<g fill="none" stroke="#000000" stroke-opacity="1" stroke-width="1" stroke-linecap="square" stroke-linejoin="bevel" transform="matrix(1,0,0,1,0,0)"
font-family="Sans" font-size="13.3333" font-weight="400" font-style="normal" 
>
</g>

<g fill="none" stroke="#000000" stroke-opacity="1" stroke-width="1" stroke-linecap="square" stroke-linejoin="bevel" transform="matrix(1,0,0,1,0,0)"
font-family="Sans" font-size="13.3333" font-weight="400" font-style="normal" 
>
</g>

<g fill="none" stroke="#000000" stroke-opacity="1" stroke-width="1" stroke-linecap="square" stroke-linejoin="bevel" transform="matrix(1,0,0,1,0,0)"
font-family="Sans" font-size="13.3333" font-weight="400" font-style="normal" 
>
</g>

<g fill="none" stroke="#ff0000" stroke-opacity="1" stroke-width="2" stroke-linecap="square" stroke-linejoin="miter" stroke-miterlimit="2" transform="matrix(1,0,0,1,0,0)"
font-family="Sans" font-size="13.3333" font-weight="400" font-style="normal" 
>
<polyline fill="none" vector-effect="non-scaling-stroke" points="108,73 108.612,198.074 109.224,419.551 109.837,465.186 110.449,278.883 111.061,89.6505 111.673,130.099 112.286,350.507 112.898,479.944 113.51,359.302 114.122,136.877 114.734,86.0806 115.347,269.352 115.959,461.41 116.571,426.171 117.183,206.952 117.796,73.2232 118.408,189.367 119.02,412.617 119.632,468.548 120.244,288.408 120.857,93.6304 121.469,123.641 122.081,341.55 122.693,479.498 123.306,367.915 123.918,143.963 124.53,82.9284 125.142,259.838 125.755,457.229 126.367,432.463 126.979,215.984 127.591,73.8923 128.203,180.852 128.816,405.385 129.428,471.489 130.04,297.907 130.652,98.0114 131.265,117.518 131.877,332.45 132.489,478.606 133.101,376.328 133.713,151.339 134.326,80.2007 134.938,250.359 135.55,452.651 136.162,438.413 136.775,225.147 137.387,75.0059 137.999,172.546 138.611,397.869 139.223,474.002 139.836,307.36 140.448,102.784 141.06,111.745 141.672,323.227 142.285,477.271 142.897,384.522 143.509,158.989 144.121,77.9037 144.733,240.938 145.346,447.686 145.958,444.007 146.57,234.424 147.182,76.5615 147.795,164.469 148.407,390.088 149.019,476.082 149.631,316.744 150.243,107.937 150.856,106.332 151.468,313.902 152.08,475.496 152.692,392.479 153.305,166.897 153.917,76.0424 154.529,231.595 155.141,442.346 155.754,449.235 156.366,243.793 156.978,78.5556 157.59,156.637 158.202,382.057 158.815,477.724 159.427,326.04 160.039,113.461 160.651,101.293 161.264,304.495 161.876,473.284 162.488,400.181 163.1,175.046 163.712,74.6208 164.325,222.351 164.937,436.643 165.549,454.083 166.161,253.233 166.774,80.984 167.386,149.068 167.998,373.795 168.61,478.924 169.222,335.228 169.835,119.342 170.447,96.6387 171.059,295.026 171.671,470.641 172.284,407.612 172.896,183.417 173.508,73.642 174.12,213.225 174.732,430.588 175.345,458.541 175.957,262.725 176.569,83.8413 177.181,141.779 177.794,365.319 178.406,479.681 179.018,344.287 179.63,125.568 180.242,92.3786 180.855,285.517 181.467,467.571 182.079,414.756 182.691,191.993 183.304,73.1082 183.916,204.238 184.528,424.195 185.14,462.601 185.753,272.247 186.365,87.1212 186.977,134.785 187.589,356.649 188.201,479.991 188.814,353.197 189.426,132.124 190.038,88.5224 190.65,275.988 191.263,464.083 191.875,421.596 192.487,200.754 193.099,73.0206 193.711,195.41 194.324,417.477 194.936,466.252 195.548,281.778 196.16,90.8165 196.773,128.102 197.385,347.803 197.997,479.856 198.609,361.939 199.221,138.998 199.834,85.0785 200.446,266.46 201.058,460.183 201.67,428.118 202.283,209.681 202.895,73.3794 203.507,186.76 204.119,410.451 204.731,469.486 205.344,291.297 205.956,94.9192 206.568,121.745 207.18,338.8 207.793,479.274 208.405,370.493 209.017,146.173 209.629,82.0546 210.241,256.954 210.854,455.88 211.466,434.307 212.078,218.754 212.69,74.1837 213.303,178.306 213.915,403.131 214.527,472.298 215.139,300.785 215.752,99.4201 216.364,115.727 216.976,329.66 217.588,478.248 218.2,378.841 218.813,153.634 219.425,79.4572 220.037,247.491 220.649,451.183 221.262,440.15 221.874,227.954 222.486,75.4318 223.098,170.068 223.71,395.533 224.323,474.68 224.935,310.218 225.547,104.31 226.159,110.062 226.772,320.404 227.384,476.779 227.996,386.965 228.608,161.365 229.22,77.292 229.833,238.091 230.445,446.103 231.057,445.635 231.669,237.261 232.282,77.121 232.894,162.063 233.506,387.674 234.118,476.627 234.73,319.578 235.343,109.577 235.955,104.762 236.567,311.052 237.179,474.87 237.792,394.846 238.404,169.348 239.016,75.5639 239.628,228.776 240.24,440.652 240.853,450.748 241.465,246.654 242.077,79.2476 242.689,154.309 243.302,379.571 243.914,478.135 244.526,328.844 245.138,115.21 245.751,99.8383 246.363,301.624 246.975,472.527 247.587,402.468 248.199,177.566 248.812,74.2765 249.424,219.565 250.036,434.84 250.648,455.479 251.261,256.112 251.873,81.8069 252.485,146.824 253.097,371.242 253.709,479.201 254.322,337.994 254.934,121.197 255.546,95.3025 256.158,292.141 256.771,469.753 257.383,409.813 257.995,186.001 258.607,73.4327 259.219,210.48 259.832,428.681 260.444,459.817 261.056,265.615 261.668,84.7932 262.281,139.623 262.893,362.705 263.505,479.822 264.117,347.01 264.729,127.525 265.342,91.1641 265.954,282.623 266.566,466.555 267.178,416.866 267.791,194.635 268.403,73.0344 269.015,201.539 269.627,422.188 270.239,463.753 270.852,275.142 271.464,88.2001 272.076,132.722 272.688,353.979 273.301,479.997 273.913,355.871 274.525,134.18 275.137,87.4323 275.749,273.092 276.362,462.941 276.974,423.612 277.586,203.449 278.198,73.0824 278.811,192.763 279.423,415.375 280.035,467.279 280.647,284.672 281.26,92.0201 281.872,126.136 282.484,345.083 283.096,479.726 283.708,364.558 284.321,141.146 284.933,84.1153 285.545,263.569 286.157,458.918 286.77,430.034 287.382,212.422 287.994,73.5766 288.606,184.17 289.218,408.258 289.831,470.385 290.443,294.184 291.055,96.2447 291.667,119.88 292.28,336.037 292.892,479.009 293.504,373.052 294.116,148.41 294.728,81.2202 295.341,254.074 295.953,454.494 296.565,436.119 297.177,221.536 297.79,74.516 298.402,175.78 299.014,400.852 299.626,473.067 300.238,303.657 300.851,100.865 301.463,113.968 302.075,326.86 302.687,477.848 303.3,381.333 303.912,155.955 304.524,78.7536 305.136,244.628 305.748,449.68 306.361,441.855 306.973,230.771 307.585,75.8984 308.197,167.611 308.81,393.173 309.422,475.317 310.034,313.07 310.646,105.87 311.259,108.413 311.871,317.573 312.483,476.245 313.095,389.385 313.707,163.764 314.32,76.7207 314.932,235.252 315.544,444.486 316.156,447.228 316.769,240.106 317.381,77.7209 317.993,159.68 318.605,385.238 319.217,477.132 319.83,322.404 320.442,111.25 321.054,103.226 321.666,308.195 322.279,474.204 322.891,397.19 323.503,171.82 324.115,75.1261 324.727,225.966 325.34,438.924 325.952,452.226 326.564,249.521 327.176,79.9795 327.789,152.006 328.401,377.064 329.013,478.506 329.625,331.636 330.237,116.992 330.85,98.419 331.462,298.748 332.074,471.729 332.686,404.729 333.299,180.106 333.911,73.9732 334.523,216.791 335.135,433.005 335.747,456.838 336.36,258.995 336.972,82.6691 337.584,144.605 338.196,368.67 338.809,479.437 339.421,340.748 340.033,123.084 340.645,94.0029 341.258,289.252 341.87,468.826 342.482,411.988 343.094,188.604 343.706,73.2646 344.319,207.748 344.931,426.743 345.543,461.056 346.155,268.507 346.768,85.784 347.38,137.494 347.992,360.074 348.604,479.923 349.216,349.719 349.829,129.512 350.441,89.9871 351.053,279.728 351.665,465.501 352.278,418.949 352.89,197.294 353.502,73.0018 354.114,198.855 354.726,420.151 355.339,464.868 355.951,278.037 356.563,89.3172 357.175,130.687 357.788,351.294 358.4,479.962 359.012,358.529 359.624,136.263 360.236,86.3805 360.849,270.198 361.461,461.762 362.073,425.597 362.685,206.158 363.298,73.1854 363.91,190.132 364.522,413.245 365.134,468.267 365.746,287.564 366.359,93.261 366.971,124.2 367.583,342.351 368.195,479.556 368.808,367.159 369.42,143.322 370.032,83.1909 370.644,260.68 371.257,457.616 371.869,431.919 372.481,215.177 373.093,73.815 373.705,181.599 374.318,406.038 374.93,471.245 375.542,297.066 376.154,97.6067 376.767,118.048 377.379,333.262 377.991,478.703 378.603,375.591 379.215,150.673 379.828,80.4254 380.44,251.198 381.052,453.073 381.664,437.899 382.277,224.33 382.889,74.8892 383.501,173.274 384.113,398.547 384.725,473.796 385.338,306.524 385.95,102.345 386.562,112.242 387.174,324.05 387.787,477.408 388.399,383.804 389.011,158.3 389.623,78.09 390.235,241.771 390.848,448.142 391.46,443.526 392.072,233.597 392.684,76.4057 393.297,165.176 393.909,390.789 394.521,475.915 395.133,315.915 395.745,107.465 396.358,106.798 396.97,314.733 397.582,475.671 398.194,391.783 398.807,166.186 399.419,76.1898 400.031,232.42 400.643,442.835 401.256,448.786 401.868,242.958 402.48,78.3611 403.092,157.321 403.704,382.779 404.317,477.596 404.929,325.22 405.541,112.956 406.153,101.725 406.766,305.332 407.378,473.498 407.99,399.509 408.602,174.314 409.214,74.729 409.827,223.166 410.439,437.163 411.051,453.668 411.663,252.393 412.276,80.7512 412.888,149.729 413.5,374.537 " />
</g>

<g fill="none" stroke="#000000" stroke-opacity="1" stroke-width="1" stroke-linecap="square" stroke-linejoin="bevel" transform="matrix(1,0,0,1,0,0)"
font-family="Sans" font-size="13.3333" font-weight="400" font-style="normal" 
>
</g>

<g fill="none" stroke="#000000" stroke-opacity="1" stroke-width="1" stroke-linecap="square" stroke-linejoin="bevel" transform="matrix(1,0,0,1,0,0)"
font-family="Sans" font-size="13.3333" font-weight="400" font-style="normal" 
>
</g>

<g fill="none" stroke="#000000" stroke-opacity="1" stroke-width="1" stroke-linecap="square" stroke-linejoin="bevel" transform="matrix(1,0,0,1,0,0)"
font-family="Sans" font-size="13.3333" font-weight="400" font-style="normal" 
>
</g>

<g fill="none" stroke="#008080" stroke-opacity="1" stroke-width="2" stroke-linecap="square" stroke-linejoin="miter" stroke-miterlimit="2" transform="matrix(1,0,0,1,0,0)"
font-family="Sans" font-size="13.3333" font-weight="400" font-style="normal" 
>
<polyline fill="none" vector-effect="non-scaling-stroke" points="413.5,73 414.112,241.443 414.724,467.921 415.337,377.509 415.949,119.88 416.561,121.529 417.173,379.726 417.786,467.037 418.398,238.922 419.01,73.0161 419.622,243.97 420.234,468.776 420.847,375.277 421.459,118.257 422.071,123.202 422.683,381.926 423.296,466.122 423.908,236.407 424.52,73.0645 425.132,246.502 425.744,469.6 426.357,373.029 426.969,116.658 427.581,124.899 428.193,384.109 428.806,465.177 429.418,233.898 430.03,73.1452 430.642,249.038 431.255,470.393 431.867,370.766 432.479,115.085 433.091,126.62 433.703,386.275 434.316,464.202 434.928,231.395 435.54,73.2581 436.152,251.579 436.765,471.156 437.377,368.487 437.989,113.538 438.601,128.366 439.213,388.424 439.826,463.197 440.438,228.9 441.05,73.4032 441.662,254.124 442.275,471.888 442.887,366.194 443.499,112.016 444.111,130.134 444.723,390.555 445.336,462.163 445.948,226.413 446.56,73.5805 447.172,256.673 447.785,472.588 448.397,363.887 449.009,110.52 449.621,131.926 450.233,392.668 450.846,461.099 451.458,223.933 452.07,73.79 452.682,259.225 453.295,473.258 453.907,361.566 454.519,109.051 455.131,133.741 455.743,394.763 456.356,460.006 456.968,221.462 457.58,74.0316 458.192,261.779 458.805,473.896 459.417,359.232 460.029,107.608 460.641,135.578 461.254,396.839 461.866,458.884 462.478,219 463.09,74.3053 463.702,264.336 464.315,474.504 464.927,356.884 465.539,106.192 466.151,137.438 466.764,398.895 467.376,457.732 467.988,216.546 468.6,74.6111 469.212,266.895 469.825,475.079 470.437,354.524 471.049,104.803 471.661,139.319 472.274,400.933 472.886,456.553 473.498,214.103 474.11,74.9489 474.722,269.455 475.335,475.624 475.947,352.151 476.559,103.441 477.171,141.223 477.784,402.95 478.396,455.344 479.008,211.669 479.62,75.3186 480.232,272.016 480.845,476.137 481.457,349.767 482.069,102.107 482.681,143.148 483.294,404.948 483.906,454.108 484.518,209.245 485.13,75.7203 485.742,274.578 486.355,476.618 486.967,347.37 487.579,100.8 488.191,145.094 488.804,406.925 489.416,452.843 490.028,206.832 490.64,76.1537 491.253,277.141 491.865,477.067 492.477,344.963 493.089,99.5212 493.701,147.061 494.314,408.882 494.926,451.55 495.538,204.43 496.15,76.619 496.763,279.703 497.375,477.485 497.987,342.544 498.599,98.2704 499.211,149.048 499.824,410.817 500.436,450.229 501.048,202.04 501.66,77.1159 502.273,282.265 502.885,477.87 503.497,340.116 504.109,97.0479 504.721,151.056 505.334,412.732 505.946,448.881 506.558,199.661 507.17,77.6444 507.783,284.825 508.395,478.224 509.007,337.677 509.619,95.8538 510.231,153.083 510.844,414.624 511.456,447.506 512.068,197.294 512.68,78.2045 513.293,287.385 513.905,478.546 514.517,335.228 515.129,94.6884 515.741,155.131 516.354,416.495 516.966,446.103 517.578,194.94 518.19,78.796 518.803,289.943 519.415,478.836 520.027,332.77 520.639,93.5518 521.252,157.197 521.864,418.343 522.476,444.674 523.088,192.599 523.7,79.4188 524.313,292.498 524.925,479.093 525.537,330.303 526.149,92.4441 526.762,159.282 527.374,420.17 527.986,443.218 528.598,190.271 529.21,80.0729 529.823,295.051 530.435,479.319 531.047,327.828 531.659,91.3657 532.272,161.386 532.884,421.973 533.496,441.735 534.108,187.957 534.72,80.7582 535.333,297.602 535.945,479.512 536.557,325.344 537.169,90.3166 537.782,163.508 538.394,423.753 539.006,440.227 539.618,185.657 540.23,81.4744 540.843,300.148 541.455,479.673 542.067,322.853 542.679,89.2971 543.292,165.648 543.904,425.51 544.516,438.692 545.128,183.372 545.74,82.2216 546.353,302.692 546.965,479.802 547.577,320.354 548.189,88.3072 548.802,167.806 549.414,427.243 550.026,437.132 550.638,181.101 551.251,82.9996 551.863,305.23 552.475,479.899 553.087,317.849 553.699,87.3471 554.312,169.98 554.924,428.953 555.536,435.546 556.148,178.845 556.761,83.8083 557.373,307.765 557.985,479.964 558.597,315.337 559.209,86.4171 559.822,172.172 560.434,430.638 561.046,433.935 561.658,176.605 562.271,84.6475 562.883,310.294 563.495,479.996 564.107,312.818 564.719,85.5172 565.332,174.38 565.944,432.299 566.556,432.299 567.168,174.38 567.781,85.5172 568.393,312.818 569.005,479.996 569.617,310.294 570.229,84.6475 570.842,176.605 571.454,433.935 572.066,430.638 572.678,172.172 573.291,86.4171 573.903,315.337 574.515,479.964 575.127,307.765 575.739,83.8083 576.352,178.845 576.964,435.546 577.576,428.953 578.188,169.98 578.801,87.3471 579.413,317.849 580.025,479.899 580.637,305.23 581.249,82.9996 581.862,181.101 582.474,437.132 583.086,427.243 583.698,167.806 584.311,88.3072 584.923,320.354 585.535,479.802 586.147,302.692 586.76,82.2216 587.372,183.372 587.984,438.692 588.596,425.51 589.208,165.648 589.821,89.2971 590.433,322.853 591.045,479.673 591.657,300.148 592.27,81.4744 592.882,185.657 593.494,440.227 594.106,423.753 594.718,163.508 595.331,90.3166 595.943,325.344 596.555,479.512 597.167,297.602 597.78,80.7582 598.392,187.957 599.004,441.735 599.616,421.973 600.228,161.386 600.841,91.3657 601.453,327.828 602.065,479.319 602.677,295.051 603.29,80.0729 603.902,190.271 604.514,443.218 605.126,420.17 605.738,159.282 606.351,92.4441 606.963,330.303 607.575,479.093 608.187,292.498 608.8,79.4188 609.412,192.599 610.024,444.674 610.636,418.343 611.248,157.197 611.861,93.5518 612.473,332.77 613.085,478.836 613.697,289.943 614.31,78.796 614.922,194.94 615.534,446.103 616.146,416.495 616.759,155.131 617.371,94.6884 617.983,335.228 618.595,478.546 619.207,287.385 619.82,78.2045 620.432,197.294 621.044,447.506 621.656,414.624 622.269,153.083 622.881,95.8538 623.493,337.677 624.105,478.224 624.717,284.825 625.33,77.6444 625.942,199.661 626.554,448.881 627.166,412.732 627.779,151.056 628.391,97.0479 629.003,340.116 629.615,477.87 630.227,282.265 630.84,77.1159 631.452,202.04 632.064,450.229 632.676,410.817 633.289,149.048 633.901,98.2704 634.513,342.544 635.125,477.485 635.737,279.703 636.35,76.619 636.962,204.43 637.574,451.55 638.186,408.882 638.799,147.061 639.411,99.5212 640.023,344.963 640.635,477.067 641.247,277.141 641.86,76.1537 642.472,206.832 643.084,452.843 643.696,406.925 644.309,145.094 644.921,100.8 645.533,347.37 646.145,476.618 646.758,274.578 647.37,75.7203 647.982,209.245 648.594,454.108 649.206,404.948 649.819,143.148 650.431,102.107 651.043,349.767 651.655,476.137 652.268,272.016 652.88,75.3186 653.492,211.669 654.104,455.344 654.716,402.95 655.329,141.223 655.941,103.441 656.553,352.151 657.165,475.624 657.778,269.455 658.39,74.9489 659.002,214.103 659.614,456.553 660.226,400.933 660.839,139.319 661.451,104.803 662.063,354.524 662.675,475.079 663.288,266.895 663.9,74.6111 664.512,216.546 665.124,457.732 665.736,398.895 666.349,137.438 666.961,106.192 667.573,356.884 668.185,474.504 668.798,264.336 669.41,74.3053 670.022,219 670.634,458.884 671.246,396.839 671.859,135.578 672.471,107.608 673.083,359.232 673.695,473.896 674.308,261.779 674.92,74.0316 675.532,221.462 676.144,460.006 676.757,394.763 677.369,133.741 677.981,109.051 678.593,361.566 679.205,473.258 679.818,259.225 680.43,73.79 681.042,223.933 681.654,461.099 682.267,392.668 682.879,131.926 683.491,110.52 684.103,363.887 684.715,472.588 685.328,256.673 685.94,73.5805 686.552,226.413 687.164,462.163 687.777,390.555 688.389,130.134 689.001,112.016 689.613,366.194 690.225,471.888 690.838,254.124 691.45,73.4032 692.062,228.9 692.674,463.197 693.287,388.424 693.899,128.366 694.511,113.538 695.123,368.487 695.735,471.156 696.348,251.579 696.96,73.2581 697.572,231.395 698.184,464.202 698.797,386.275 699.409,126.62 700.021,115.085 700.633,370.766 701.245,470.393 701.858,249.038 702.47,73.1452 703.082,233.898 703.694,465.177 704.307,384.109 704.919,124.899 705.531,116.658 706.143,373.029 706.756,469.6 707.368,246.502 707.98,73.0645 708.592,236.407 709.204,466.122 709.817,381.926 710.429,123.202 711.041,118.257 711.653,375.277 712.266,468.776 712.878,243.97 713.49,73.0161 714.102,238.922 714.714,467.037 715.327,379.726 715.939,121.529 716.551,119.88 717.163,377.509 717.776,467.921 718.388,241.443 719,73 " />
</g>

<g fill="none" stroke="#000000" stroke-opacity="1" stroke-width="1" stroke-linecap="square" stroke-linejoin="bevel" transform="matrix(1,0,0,1,0,0)"
font-family="Sans" font-size="13.3333" font-weight="400" font-style="normal" 
>
</g>

<g fill="none" stroke="#000000" stroke-opacity="1" stroke-width="1" stroke-linecap="square" stroke-linejoin="bevel" transform="matrix(1,0,0,1,0,0)"
font-family="Sans" font-size="13.3333" font-weight="400" font-style="normal" 
>
</g>

<g fill="none" stroke="#000000" stroke-opacity="1" stroke-width="1" stroke-linecap="square" stroke-linejoin="bevel" transform="matrix(1,0,0,1,0,0)"
font-family="Sans" font-size="13.3333" font-weight="400" font-style="normal" 
>
</g>

<g fill="none" stroke="#0000a0" stroke-opacity="1" stroke-width="2" stroke-linecap="square" stroke-linejoin="miter" stroke-miterlimit="2" transform="matrix(1,0,0,1,0,0)"
font-family="Sans" font-size="13.3333" font-weight="400" font-style="normal" 
>
<polyline fill="none" vector-effect="non-scaling-stroke" points="719,79.3933 719.612,125.791 720.224,307.765 720.837,461.613 721.449,448.936 722.061,281.138 722.673,109.167 723.286,87.7276 723.898,236.105 724.51,420.821 725.122,475.708 725.734,351.39 726.347,159.701 726.959,73.0839 727.571,169.457 728.183,362.125 728.796,477.765 729.408,412.35 730.02,224.726 730.632,83.6769 731.244,116.089 731.857,292.805 732.469,454.853 733.081,456.457 733.693,296.174 734.306,118.192 734.918,82.6224 735.53,221.462 736.142,409.813 736.755,478.238 737.367,365.181 737.979,172.348 738.591,73.209 739.203,156.948 739.816,348.234 740.428,474.989 741.04,423.186 741.652,239.426 742.265,89.0169 742.877,107.266 743.489,277.756 744.101,447.116 744.713,462.992 745.326,311.103 745.938,128.085 746.55,78.5794 747.162,207.121 747.775,398.075 748.387,479.662 748.999,378.487 749.611,185.566 750.223,74.4481 750.836,145.094 751.448,333.951 752.06,471.126 752.672,433.218 753.285,254.328 753.897,95.3842 754.509,99.3696 755.121,262.699 755.733,438.444 756.346,468.506 756.958,325.842 757.57,138.79 758.182,75.621 758.795,193.16 759.407,385.671 760.019,479.973 760.631,391.233 761.243,199.281 761.856,76.7942 762.468,133.96 763.08,319.353 763.692,466.196 764.305,442.391 764.917,269.352 765.529,102.744 766.141,92.4441 766.754,247.719 767.366,428.885 767.978,472.967 768.59,340.31 769.202,150.25 769.815,73.7631 770.427,179.655 771.039,372.668 771.651,479.169 772.264,403.352 772.876,213.42 773.488,80.2346 774.1,123.607 774.712,304.52 775.325,460.227 775.937,450.655 776.549,284.416 777.161,111.056 777.774,86.5271 778.386,232.896 778.998,418.49 779.61,476.352 780.222,354.429 780.835,162.402 781.447,73.0161 782.059,166.682 782.671,359.138 783.284,477.255 783.896,414.775 784.508,227.905 785.12,84.7503 785.732,114.092 786.345,289.534 786.957,453.251 787.569,457.965 788.181,299.436 788.794,120.274 789.406,81.651 790.018,218.312 790.63,407.318 791.242,478.642 791.855,368.121 792.467,175.179 793.079,73.3841 793.691,154.309 794.304,345.156 794.916,474.24 795.528,425.44 796.14,242.655 796.753,90.3166 797.365,105.466 797.977,274.476 798.589,445.306 799.201,464.281 799.814,314.33 800.426,130.348 801.038,77.8424 801.65,204.047 802.263,395.429 802.875,479.824 803.487,381.311 804.099,188.511 804.711,74.8649 805.324,142.607 805.936,330.797 806.548,470.143 807.16,435.29 807.773,257.591 808.385,96.9031 808.997,97.778 809.609,259.429 810.221,436.437 810.834,469.567 811.446,329.017 812.058,141.223 812.67,75.1224 813.283,190.179 813.895,382.889 814.507,479.893 815.119,393.927 815.731,202.326 816.344,77.4505 816.956,131.638 817.568,316.141 818.18,464.984 818.793,444.269 819.405,272.631 820.017,104.474 820.629,91.069 821.241,244.476 821.854,426.691 822.466,473.796 823.078,343.416 823.69,152.839 824.303,73.5057 824.915,176.783 825.527,369.765 826.139,478.846 826.752,405.9 827.364,216.546 827.976,81.1268 828.588,121.462 829.2,301.268 829.813,458.793 830.425,452.329 831.037,287.692 831.649,112.987 832.262,85.376 832.874,229.698 833.486,416.123 834.098,476.944 834.71,357.449 835.323,165.133 835.935,73.0013 836.547,163.935 837.159,356.13 837.772,476.692 838.384,417.163 838.996,231.096 839.608,85.8735 840.22,112.137 840.833,286.259 841.445,451.602 842.057,459.426 842.669,302.692 843.282,122.396 843.894,80.7302 844.506,215.177 845.118,404.789 845.73,478.994 846.343,371.038 846.955,178.037 847.567,73.6118 848.179,151.703 848.792,342.06 849.404,473.44 850.016,427.656 850.628,245.894 851.24,91.6647 851.853,103.711 852.465,271.196 853.077,443.453 853.689,465.52 854.302,317.548 854.914,132.649 855.526,77.157 856.138,200.991 856.751,392.752 857.363,479.934 857.975,384.109 858.587,191.48 859.199,75.3341 859.812,140.154 860.424,327.629 861.036,469.109 861.648,437.32 862.261,260.859 862.873,98.4687 863.485,96.2328 864.097,256.163 864.709,434.388 865.322,470.579 865.934,332.179 866.546,143.691 867.158,74.6761 867.771,187.22 868.383,380.079 868.995,479.76 869.607,396.591 870.219,205.389 870.832,78.1585 871.444,129.353 872.056,312.919 872.668,463.723 873.281,446.103 873.893,275.911 874.505,106.248 875.117,89.742 875.729,241.241 876.342,424.459 876.954,474.574 877.566,346.505 878.178,155.46 878.791,73.301 879.403,173.937 880.015,366.838 880.627,478.471 881.239,408.414 881.852,219.688 882.464,82.0697 883.076,119.358 883.688,298.009 884.301,457.311 884.913,453.957 885.525,290.965 886.137,114.96 886.749,84.2745 887.362,226.512 887.974,413.718 888.586,477.485 889.198,360.447 889.811,167.892 890.423,73.0393 891.035,161.217 891.647,353.102 892.26,476.077 892.872,419.515 893.484,234.299 894.096,87.0462 894.708,110.224 895.321,282.982 895.933,449.908 896.545,460.839 897.157,305.941 897.77,124.558 898.382,79.8602 898.994,212.057 899.606,402.226 900.218,479.293 900.831,373.93 901.443,180.92 902.055,73.8923 902.667,149.128 903.28,338.946 903.892,472.588 904.504,429.832 905.116,249.14 905.728,93.0608 906.341,102.001 906.953,267.919 907.565,441.556 908.177,466.711 908.79,320.755 909.402,134.988 910.014,76.5234 910.626,197.956 911.238,390.045 911.851,479.991 912.463,386.879 913.075,194.471 913.687,75.8555 914.3,137.737 914.912,324.448 915.524,468.026 916.136,439.309 916.748,264.131 917.361,100.08 917.973,94.7344 918.585,252.902 919.197,432.299 919.81,471.54 920.422,335.326 921.034,146.193 921.646,74.2822 922.259,184.284 922.871,377.242 923.483,479.574 924.095,399.223 924.707,208.472 925.32,78.9181 925.932,127.107 926.544,309.688 927.156,462.413 927.769,447.894 928.381,279.19 928.993,108.067 929.605,88.4636 930.217,238.016 930.83,422.188 931.442,475.301 932.054,349.575 932.666,158.112 933.279,73.1491 933.891,171.118 934.503,363.887 935.115,478.044 935.727,410.894 936.34,222.845 936.952,83.0632 937.564,117.295 938.176,294.745 938.789,455.783 939.401,455.54 940.013,294.235 940.625,116.976 941.237,83.223 941.85,223.34 942.462,411.279 943.074,477.973 943.686,363.424 944.299,170.68 944.911,73.1301 945.523,158.529 946.135,350.053 946.747,475.41 947.36,421.829 947.972,237.512 948.584,88.2682 949.196,108.355 949.809,279.703 950.421,448.17 951.033,462.204 951.645,309.182 952.258,126.759 952.87,79.0414 953.482,208.955 954.094,399.631 954.706,479.54 955.319,376.797 955.931,183.828 956.543,74.2254 957.155,146.587 957.768,335.817 958.38,471.686 958.992,431.968 959.604,252.393 960.216,94.5046 960.829,100.336 961.441,264.643 962.053,439.616 962.665,467.852 963.278,323.95 963.89,137.363 964.502,75.9417 965.114,194.94 965.726,387.309 966.339,479.995 966.951,389.62 967.563,197.483 968.175,76.4291 968.788,135.356 969.4,321.255 970.012,466.892 970.624,441.255 971.236,267.407 971.849,101.738 972.461,93.2833 973.073,249.648 973.685,430.168 974.298,472.451 974.91,338.458 975.522,148.729 976.134,73.9409 976.746,181.373 977.359,374.38 977.971,479.335 978.583,401.823 979.195,211.572 979.808,79.7289 980.42,124.899 981.032,306.448 981.644,461.056 982.257,449.64 982.869,282.469 983.481,109.929 984.093,87.2339 984.705,234.8 985.318,419.879 985.93,475.976 986.542,352.627 987.154,160.795 987.767,73.05 988.379,168.326 988.991,360.914 989.603,477.564 990.215,413.34 990.828,226.016 991.44,84.1069 992.052,115.273 992.664,291.476 993.277,454.208 993.889,457.075 994.501,297.5 995.113,119.033 995.725,82.2216 996.338,220.181 996.95,408.804 997.562,478.408 998.174,366.378 998.787,173.495 999.399,73.2738 1000.01,155.872 1000.62,346.986 1001.24,474.691 1001.85,424.106 1002.46,240.736 1003.07,89.5391 1003.68,106.529 1004.3,276.423 1004.91,446.386 1005.52,463.522 1006.13,312.415 1006.75,129 1007.36,78.2738 1007.97,205.87 1008.58,397.004 1009.19,479.734 1009.81,379.637 1010.42,186.76 1011.03,74.6111 1011.64,144.079 1012.26,332.672 1012.87,470.733 1013.48,434.064 1014.09,255.653 1014.7,95.9956 1015.32,98.7175 1015.93,261.37 1016.54,437.634 1017.15,468.943 1017.77,327.133 1018.38,139.774 1018.99,75.4121 1019.6,191.946 1020.21,384.544 1020.83,479.947 1021.44,392.331 1022.05,200.516 1022.66,77.0546 1023.28,133.012 1023.89,318.049 1024.5,465.71 " />
</g>

<g fill="none" stroke="#000000" stroke-opacity="1" stroke-width="1" stroke-linecap="square" stroke-linejoin="bevel" transform="matrix(1,0,0,1,0,0)"
font-family="Sans" font-size="13.3333" font-weight="400" font-style="normal" 
>
</g>

<g fill="none" stroke="#000000" stroke-opacity="1" stroke-width="1" stroke-linecap="square" stroke-linejoin="bevel" transform="matrix(1,0,0,1,0,0)"
font-family="Sans" font-size="13.3333" font-weight="400" font-style="normal" 
>
</g>

<g fill="none" stroke="#000000" stroke-opacity="1" stroke-width="1" stroke-linecap="square" stroke-linejoin="bevel" transform="matrix(1,0,0,1,0,0)"
font-family="Sans" font-size="13.3333" font-weight="400" font-style="normal" 
>
</g>

<g fill="none" stroke="#ff0000" stroke-opacity="1" stroke-width="2" stroke-linecap="square" stroke-linejoin="miter" stroke-miterlimit="2" transform="matrix(1,0,0,1,0,0)"
font-family="Sans" font-size="13.3333" font-weight="400" font-style="normal" 
>
<polyline fill="none" vector-effect="non-scaling-stroke" points="1024.5,73.4016 1025.11,186.438 1025.72,410.181 1026.34,469.6 1026.95,291.655 1027.56,95.0814 1028.17,121.512 1028.79,338.458 1029.4,479.244 1030.01,370.811 1030.62,146.449 1031.23,81.9491 1031.85,256.597 1032.46,455.71 1033.07,434.534 1033.68,219.098 1034.3,74.2226 1034.91,177.992 1035.52,402.85 1036.13,472.395 1036.74,301.141 1037.36,99.5972 1037.97,115.507 1038.58,329.314 1039.19,478.2 1039.81,379.151 1040.42,153.92 1041.03,79.3679 1041.64,247.135 1042.25,450.999 1042.87,440.363 1043.48,228.303 1044.09,75.4874 1044.7,169.762 1045.32,395.242 1045.93,474.761 1046.54,310.572 1047.15,104.501 1047.76,109.856 1048.38,320.054 1048.99,476.715 1049.6,387.266 1050.21,161.661 1050.83,77.2191 1051.44,237.739 1052.05,445.905 1052.66,445.834 1053.27,237.613 1053.89,77.1932 1054.5,161.767 1055.11,387.373 1055.72,476.692 1056.34,319.929 1056.95,109.782 1057.56,104.57 1058.17,310.698 1058.78,474.79 1059.4,395.138 1060.01,169.653 1060.62,75.5074 1061.23,228.427 1061.85,440.439 1062.46,450.933 1063.07,247.009 1063.68,79.3361 1064.29,154.023 1064.91,379.262 1065.52,478.183 1066.13,329.19 1066.74,115.429 1067.36,99.6605 1067.97,301.268 1068.58,472.43 1069.19,402.75 1069.8,177.88 1070.42,74.2367 1071.03,219.221 1071.64,434.614 1072.25,455.649 1072.87,256.469 1073.48,81.9116 1074.09,146.547 1074.7,370.925 1075.31,479.232 1075.93,338.336 1076.54,121.429 1077.15,95.1395 1077.76,291.783 1078.38,469.64 1078.99,410.084 1079.6,186.323 1080.21,73.4096 1080.82,210.141 1081.44,428.442 1082.05,459.972 1082.66,265.973 1083.27,84.9139 1083.89,139.357 1084.5,362.38 1085.11,479.837 1085.72,347.346 1086.33,127.77 1086.95,91.0163 1087.56,282.265 1088.17,466.427 1088.78,417.126 1089.4,194.964 1090.01,73.0281 1090.62,201.206 1091.23,421.937 1091.84,463.893 1092.46,275.501 1093.07,88.3364 1093.68,132.468 1094.29,353.648 1094.91,479.995 1095.52,356.201 1096.13,134.436 1096.74,87.2999 1097.35,272.734 1097.97,462.797 1098.58,423.859 1099.19,203.783 1099.8,73.0929 1100.42,192.436 1101.03,415.113 1101.64,467.403 1102.25,285.03 1102.86,92.1718 1103.48,125.895 1104.09,344.746 1104.7,479.707 1105.31,364.881 1105.93,141.414 1106.54,83.9986 1107.15,263.211 1107.76,458.758 1108.37,430.269 1108.99,212.763 1109.6,73.6039 1110.21,183.85 1110.82,407.984 1111.44,470.494 1112.05,294.541 1112.66,96.4115 1113.27,119.652 1113.88,335.694 1114.5,478.974 1115.11,373.367 1115.72,148.689 1116.33,81.1196 1116.95,253.717 1117.56,454.32 1118.17,436.342 1118.78,221.882 1119.39,74.56 1120.01,175.468 1120.62,400.568 1121.23,473.16 1121.84,304.012 1122.46,101.046 1123.07,113.753 1123.68,326.513 1124.29,477.796 1124.9,381.641 1125.52,156.244 1126.13,78.6692 1126.74,244.273 1127.35,449.491 1127.97,442.064 1128.58,231.121 1129.19,75.9591 1129.8,167.308 1130.41,392.879 1131.03,475.394 1131.64,313.423 1132.25,106.066 1132.86,108.211 1133.48,317.221 1134.09,476.176 1134.7,389.684 1135.31,164.063 1135.92,76.6527 1136.54,234.9 1137.15,444.283 1137.76,447.423 1138.37,240.459 1138.99,77.7981 1139.6,159.387 1140.21,384.934 1140.82,477.191 1141.43,322.753 1142.05,111.459 1142.66,103.038 1143.27,307.841 1143.88,474.119 1144.5,397.478 1145.11,172.128 1145.72,75.0747 1146.33,225.619 1146.94,438.707 1147.56,452.406 1148.17,249.877 1148.78,80.0729 1149.39,151.723 1150.01,376.752 1150.62,478.549 1151.23,331.982 1151.84,117.215 1152.45,98.2457 1153.07,298.392 1153.68,471.628 1154.29,405.008 1154.9,180.422 1155.52,73.9384 1156.13,216.449 1156.74,432.776 1157.35,457.004 1157.96,259.352 1158.58,82.7787 1159.19,144.332 1159.8,368.35 1160.41,479.463 1161.03,341.088 1161.64,123.32 1162.25,93.8445 1162.86,288.894 1163.47,468.709 1164.09,412.255 1164.7,188.928 1165.31,73.2466 1165.92,207.41 1166.54,426.501 1167.15,461.206 1167.76,268.866 1168.37,85.9094 1168.98,137.232 1169.6,359.747 1170.21,479.932 1170.82,350.053 1171.43,129.761 1172.05,89.8439 1172.66,279.37 1173.27,465.368 1173.88,419.205 1174.49,197.625 1175.11,73.0006 1175.72,198.523 1176.33,419.897 1176.94,465.003 1177.56,278.396 1178.17,89.4582 1178.78,130.437 1179.39,350.96 1180.01,479.955 1180.62,358.857 1181.23,136.524 1181.84,86.2529 1182.45,269.839 1183.07,461.613 1183.68,425.841 1184.29,206.495 1184.9,73.201 1185.52,189.808 1186.13,412.979 1186.74,468.387 1187.35,287.922 1187.96,93.4173 1188.58,123.963 1189.19,342.011 1189.8,479.532 1190.41,367.48 1191.03,143.594 1191.64,83.0791 1192.25,260.323 1192.86,457.452 1193.47,432.15 1194.09,215.519 1194.7,73.8474 1195.31,181.282 1195.92,405.761 1196.54,471.349 1197.15,297.423 1197.76,97.778 1198.37,117.823 1198.98,332.918 1199.6,478.663 1200.21,375.904 1200.82,150.955 1201.43,80.3297 1202.05,250.842 1202.66,452.894 1203.27,438.118 1203.88,224.676 1204.49,74.9383 1205.11,172.965 1205.72,398.26 1206.33,473.884 1206.94,306.878 1207.56,102.531 1208.17,112.031 1208.78,323.701 1209.39,477.35 1210,384.109 1210.62,158.592 1211.23,78.0105 1211.84,241.418 1212.45,447.949 1213.07,443.731 1213.68,233.948 1214.29,76.4713 1214.9,164.876 1215.51,390.492 1216.13,475.986 1216.74,316.267 1217.35,107.665 1217.96,106.6 1218.58,314.38 1219.19,475.597 1219.8,392.078 1220.41,166.487 1221.02,76.1268 1221.64,232.07 1222.25,442.628 1222.86,448.977 1223.47,243.312 1224.09,78.4432 1224.7,157.031 1225.31,382.473 1225.92,477.65 1226.53,325.568 1227.15,113.17 1227.76,101.542 1228.37,304.977 1228.98,473.408 1229.6,399.794 1230.21,174.624 1230.82,74.6827 1231.43,222.82 1232.04,436.943 1232.66,453.844 1233.27,252.75 1233.88,80.8495 1234.49,149.448 1235.11,374.222 1235.72,478.874 1236.33,334.762 1236.94,119.033 1237.55,96.867 1238.17,295.511 1238.78,470.786 1239.39,407.24 1240,182.985 1240.62,73.6812 1241.23,213.688 1241.84,430.905 1242.45,458.323 1243.06,262.239 1243.68,83.685 1244.29,142.144 1244.9,365.757 1245.51,479.653 1246.13,343.828 1246.74,125.241 1247.35,92.5865 1247.96,286.003 1248.57,467.738 1249.19,414.398 1249.8,191.55 1250.41,73.1247 1251.02,204.694 1251.64,424.529 1252.25,462.403 1252.86,271.76 1253.47,86.9435 1254.08,135.135 1254.7,357.096 1255.31,479.986 1255.92,352.746 1256.53,131.782 1257.15,88.7094 1257.76,276.474 1258.37,464.271 1258.98,421.254 1259.59,200.302 1260.21,73.0143 1260.82,195.857 1261.43,417.828 1262.04,466.075 1262.66,281.291 1263.27,90.6178 1263.88,128.436 1264.49,348.258 1265.1,479.874 1265.72,361.497 1266.33,138.639 1266.94,85.2443 1267.55,266.946 1268.17,460.392 1268.78,427.793 1269.39,209.221 1270,73.3502 1270.61,187.197 1271.23,410.817 1271.84,469.331 1272.45,290.812 1273.06,94.6999 1273.68,122.061 1274.29,339.263 1274.9,479.315 1275.51,370.061 1276.12,145.8 1276.74,82.1988 1277.35,257.438 1277.96,456.109 1278.57,433.999 1279.19,218.287 1279.8,74.1318 1280.41,178.733 1281.02,403.512 1281.63,472.165 1282.25,300.301 1282.86,99.1807 1283.47,116.026 1284.08,330.13 1284.7,478.311 1285.31,378.42 1285.92,153.246 1286.53,79.5794 1287.14,247.972 1287.76,451.432 1288.37,439.861 1288.98,227.482 1289.59,75.3573 1290.21,170.483 1290.82,395.928 1291.43,474.569 1292.04,309.738 1292.65,104.051 1293.27,110.342 1293.88,320.88 1294.49,476.864 1295.1,386.556 1295.72,160.964 1296.33,77.3921 1296.94,238.569 1297.55,446.372 1298.16,445.363 1298.78,236.783 1299.39,77.0241 1300,162.466 1300.61,388.082 1301.23,476.538 1301.84,319.102 1302.45,109.299 1303.06,105.023 1303.67,311.532 1304.29,474.978 1304.9,394.45 1305.51,168.934 1306.12,75.6415 1306.74,229.249 1307.35,440.939 1307.96,450.496 1308.57,246.172 1309.18,79.1284 1309.8,154.699 1310.41,379.991 1311.02,478.069 1311.63,328.373 1312.25,114.914 1312.86,100.08 1313.47,302.107 1314.08,472.657 1314.69,402.085 1315.31,177.141 1315.92,74.3315 1316.53,220.033 1317.14,435.145 1317.76,455.246 1318.37,255.628 1318.98,81.6657 1319.59,147.199 1320.2,371.673 1320.82,479.157 1321.43,337.53 1322.04,120.883 1322.65,95.5246 1323.27,292.626 1323.88,469.905 1324.49,409.445 1325.1,185.566 1325.71,73.465 1326.33,210.94 1326.94,429.003 1327.55,459.605 1328.16,265.129 1328.78,84.6304 1329.39,139.983 1330,363.146 " />
</g>

<g fill="none" stroke="#000000" stroke-opacity="1" stroke-width="1" stroke-linecap="square" stroke-linejoin="bevel" transform="matrix(1,0,0,1,0,0)"
font-family="Sans" font-size="13.3333" font-weight="400" font-style="normal" 
>
</g>

<g fill="none" stroke="#000000" stroke-opacity="1" stroke-width="1" stroke-linecap="square" stroke-linejoin="bevel" transform="matrix(1,0,0,1,0,0)"
font-family="Sans" font-size="13.3333" font-weight="400" font-style="normal" 
>
</g>

<g fill="none" stroke="#000000" stroke-opacity="1" stroke-width="1" stroke-linecap="square" stroke-linejoin="bevel" transform="matrix(1,0,0,1,0,0)"
font-family="Sans" font-size="13.3333" font-weight="400" font-style="normal" 
>
</g>

<g fill="none" stroke="#101010" stroke-opacity="1" stroke-width="1" stroke-linecap="square" stroke-linejoin="bevel" transform="matrix(1,0,0,1,0,0)"
font-family="DejaVu Sans" font-size="18.6667" font-weight="700" font-style="normal" 
>
</g>

<g fill="none" stroke="#101010" stroke-opacity="1" stroke-width="1" stroke-linecap="square" stroke-linejoin="bevel" transform="matrix(1,0,0,1,0,0)"
font-family="Gentium" font-size="42.3624" font-weight="400" font-style="italic" 
>
<text fill="#101010" fill-opacity="1" stroke="none" xml:space="preserve" x="723.766" y="38" font-family="Gentium" font-size="42.3624" font-weight="400" font-style="italic" 
 > </text>
</g>

<g fill="none" stroke="#101010" stroke-opacity="1" stroke-width="1" stroke-linecap="square" stroke-linejoin="bevel" transform="matrix(1,0,0,1,0,0)"
font-family="DejaVu Sans" font-size="18.6667" font-weight="700" font-style="normal" 
>
</g>

<g fill="none" stroke="#101010" stroke-opacity="1" stroke-width="1" stroke-linecap="square" stroke-linejoin="bevel" transform="matrix(0,-1,1,0,4,497)"
font-family="Gentium" font-size="29.3278" font-weight="400" font-style="normal" 
>
</g>

<g fill="none" stroke="#000000" stroke-opacity="1" stroke-width="1" stroke-linecap="square" stroke-linejoin="bevel" transform="matrix(0,-1,1,0,4,497)"
font-family="Gentium" font-size="35.8451" font-weight="400" font-style="normal" 
>
<text fill="#000000" fill-opacity="1" stroke="none" xml:space="preserve" x="143.5" y="31" font-family="Gentium" font-size="35.8451" font-weight="400" font-style="normal" 
 >Amplitude</text>
</g>

<g fill="none" stroke="#101010" stroke-opacity="1" stroke-width="1" stroke-linecap="square" stroke-linejoin="bevel" transform="matrix(0,-1,1,0,4,497)"
font-family="Gentium" font-size="29.3278" font-weight="400" font-style="normal" 
>
</g>

<g fill="none" stroke="#101010" stroke-opacity="1" stroke-width="1" stroke-linecap="square" stroke-linejoin="bevel" transform="matrix(1,0,0,1,0,0)"
font-family="DejaVu Sans" font-size="18.6667" font-weight="700" font-style="normal" 
>
</g>

<g fill="none" stroke="#101010" stroke-opacity="1" stroke-width="1" stroke-linecap="square" stroke-linejoin="bevel" transform="matrix(1,0,0,1,0,0)"
font-family="Gentium" font-size="29.3278" font-weight="400" font-style="normal" 
>
</g>

<g fill="none" stroke="#101010" stroke-opacity="1" stroke-width="1" stroke-linecap="square" stroke-linejoin="bevel" transform="matrix(1,0,0,1,0,0)"
font-family="Gentium" font-size="29.3278" font-weight="400" font-style="normal" 
>
</g>

<g fill="none" stroke="#101010" stroke-opacity="1" stroke-width="1" stroke-linecap="square" stroke-linejoin="bevel" transform="matrix(1,0,0,1,69,462)"
font-family="Gentium" font-size="29.3278" font-weight="400" font-style="normal" 
>
<text fill="#101010" fill-opacity="1" stroke="none" xml:space="preserve" x="0" y="26" font-family="Gentium" font-size="29.3278" font-weight="400" font-style="normal" 
 >−1</text>
</g>

<g fill="none" stroke="#101010" stroke-opacity="1" stroke-width="1" stroke-linecap="square" stroke-linejoin="bevel" transform="matrix(1,0,0,1,69,462)"
font-family="Gentium" font-size="29.3278" font-weight="400" font-style="normal" 
>
</g>

<g fill="none" stroke="#101010" stroke-opacity="1" stroke-width="1" stroke-linecap="square" stroke-linejoin="bevel" transform="matrix(1,0,0,1,0,0)"
font-family="Gentium" font-size="29.3278" font-weight="400" font-style="normal" 
>
</g>

<g fill="none" stroke="#101010" stroke-opacity="1" stroke-width="1" stroke-linecap="square" stroke-linejoin="bevel" transform="matrix(1,0,0,1,48,360)"
font-family="Gentium" font-size="29.3278" font-weight="400" font-style="normal" 
>
<text fill="#101010" fill-opacity="1" stroke="none" xml:space="preserve" x="0" y="26" font-family="Gentium" font-size="29.3278" font-weight="400" font-style="normal" 
 >−0,5</text>
</g>

<g fill="none" stroke="#101010" stroke-opacity="1" stroke-width="1" stroke-linecap="square" stroke-linejoin="bevel" transform="matrix(1,0,0,1,48,360)"
font-family="Gentium" font-size="29.3278" font-weight="400" font-style="normal" 
>
</g>

<g fill="none" stroke="#101010" stroke-opacity="1" stroke-width="1" stroke-linecap="square" stroke-linejoin="bevel" transform="matrix(1,0,0,1,0,0)"
font-family="Gentium" font-size="29.3278" font-weight="400" font-style="normal" 
>
</g>

<g fill="none" stroke="#101010" stroke-opacity="1" stroke-width="1" stroke-linecap="square" stroke-linejoin="bevel" transform="matrix(1,0,0,1,81,259)"
font-family="Gentium" font-size="29.3278" font-weight="400" font-style="normal" 
>
<text fill="#101010" fill-opacity="1" stroke="none" xml:space="preserve" x="0" y="26" font-family="Gentium" font-size="29.3278" font-weight="400" font-style="normal" 
 >0</text>
</g>

<g fill="none" stroke="#101010" stroke-opacity="1" stroke-width="1" stroke-linecap="square" stroke-linejoin="bevel" transform="matrix(1,0,0,1,81,259)"
font-family="Gentium" font-size="29.3278" font-weight="400" font-style="normal" 
>
</g>

<g fill="none" stroke="#101010" stroke-opacity="1" stroke-width="1" stroke-linecap="square" stroke-linejoin="bevel" transform="matrix(1,0,0,1,0,0)"
font-family="Gentium" font-size="29.3278" font-weight="400" font-style="normal" 
>
</g>

<g fill="none" stroke="#101010" stroke-opacity="1" stroke-width="1" stroke-linecap="square" stroke-linejoin="bevel" transform="matrix(1,0,0,1,60,157)"
font-family="Gentium" font-size="29.3278" font-weight="400" font-style="normal" 
>
<text fill="#101010" fill-opacity="1" stroke="none" xml:space="preserve" x="0" y="26" font-family="Gentium" font-size="29.3278" font-weight="400" font-style="normal" 
 >0,5</text>
</g>

<g fill="none" stroke="#101010" stroke-opacity="1" stroke-width="1" stroke-linecap="square" stroke-linejoin="bevel" transform="matrix(1,0,0,1,60,157)"
font-family="Gentium" font-size="29.3278" font-weight="400" font-style="normal" 
>
</g>

<g fill="none" stroke="#101010" stroke-opacity="1" stroke-width="1" stroke-linecap="square" stroke-linejoin="bevel" transform="matrix(1,0,0,1,0,0)"
font-family="Gentium" font-size="29.3278" font-weight="400" font-style="normal" 
>
</g>

<g fill="none" stroke="#101010" stroke-opacity="1" stroke-width="1" stroke-linecap="square" stroke-linejoin="bevel" transform="matrix(1,0,0,1,81,55)"
font-family="Gentium" font-size="29.3278" font-weight="400" font-style="normal" 
>
<text fill="#101010" fill-opacity="1" stroke="none" xml:space="preserve" x="0" y="26" font-family="Gentium" font-size="29.3278" font-weight="400" font-style="normal" 
 >1</text>
</g>

<g fill="none" stroke="#101010" stroke-opacity="1" stroke-width="1" stroke-linecap="square" stroke-linejoin="bevel" transform="matrix(1,0,0,1,81,55)"
font-family="Gentium" font-size="29.3278" font-weight="400" font-style="normal" 
>
</g>

<g fill="none" stroke="#101010" stroke-opacity="1" stroke-width="1" stroke-linecap="square" stroke-linejoin="bevel" transform="matrix(1,0,0,1,0,0)"
font-family="Gentium" font-size="29.3278" font-weight="400" font-style="normal" 
>
</g>

<g fill="none" stroke="#101010" stroke-opacity="1" stroke-width="1" stroke-linecap="square" stroke-linejoin="bevel" transform="matrix(1,0,0,1,0,0)"
font-family="Gentium" font-size="29.3278" font-weight="400" font-style="normal" 
>
</g>

<g fill="none" stroke="#000000" stroke-opacity="1" stroke-width="1" stroke-linecap="square" stroke-linejoin="bevel" transform="matrix(1,0,0,1,0,0)"
font-family="Gentium" font-size="29.3278" font-weight="400" font-style="normal" 
>
<polyline fill="none" vector-effect="none" points="108,460 103,460 " />
<polyline fill="none" vector-effect="none" points="108,439 103,439 " />
<polyline fill="none" vector-effect="none" points="108,419 103,419 " />
<polyline fill="none" vector-effect="none" points="108,399 103,399 " />
<polyline fill="none" vector-effect="none" points="108,358 103,358 " />
<polyline fill="none" vector-effect="none" points="108,338 103,338 " />
<polyline fill="none" vector-effect="none" points="108,317 103,317 " />
<polyline fill="none" vector-effect="none" points="108,297 103,297 " />
<polyline fill="none" vector-effect="none" points="108,256 103,256 " />
<polyline fill="none" vector-effect="none" points="108,236 103,236 " />
<polyline fill="none" vector-effect="none" points="108,215 103,215 " />
<polyline fill="none" vector-effect="none" points="108,195 103,195 " />
<polyline fill="none" vector-effect="none" points="108,154 103,154 " />
<polyline fill="none" vector-effect="none" points="108,134 103,134 " />
<polyline fill="none" vector-effect="none" points="108,114 103,114 " />
<polyline fill="none" vector-effect="none" points="108,93 103,93 " />
<polyline fill="none" vector-effect="none" points="108,480 99,480 " />
<polyline fill="none" vector-effect="none" points="108,378 99,378 " />
<polyline fill="none" vector-effect="none" points="108,277 99,277 " />
<polyline fill="none" vector-effect="none" points="108,175 99,175 " />
<polyline fill="none" vector-effect="none" points="108,73 99,73 " />
</g>

<g fill="none" stroke="#101010" stroke-opacity="1" stroke-width="1" stroke-linecap="square" stroke-linejoin="bevel" transform="matrix(1,0,0,1,0,0)"
font-family="Gentium" font-size="29.3278" font-weight="400" font-style="normal" 
>
</g>

<g fill="none" stroke="#000000" stroke-opacity="1" stroke-width="1" stroke-linecap="square" stroke-linejoin="bevel" transform="matrix(1,0,0,1,0,0)"
font-family="Gentium" font-size="29.3278" font-weight="400" font-style="normal" 
>
<polyline fill="none" vector-effect="none" points="108,73 108,480 " />
</g>

<g fill="none" stroke="#101010" stroke-opacity="1" stroke-width="1" stroke-linecap="square" stroke-linejoin="bevel" transform="matrix(1,0,0,1,0,0)"
font-family="Gentium" font-size="29.3278" font-weight="400" font-style="normal" 
>
</g>

<g fill="none" stroke="#101010" stroke-opacity="1" stroke-width="1" stroke-linecap="square" stroke-linejoin="bevel" transform="matrix(1,0,0,1,0,0)"
font-family="Gentium" font-size="29.3278" font-weight="400" font-style="normal" 
>
</g>

<g fill="none" stroke="#101010" stroke-opacity="1" stroke-width="1" stroke-linecap="square" stroke-linejoin="bevel" transform="matrix(1,0,0,1,0,0)"
font-family="DejaVu Sans" font-size="18.6667" font-weight="700" font-style="normal" 
>
</g>

<g fill="none" stroke="#101010" stroke-opacity="1" stroke-width="1" stroke-linecap="square" stroke-linejoin="bevel" transform="matrix(1,0,0,1,101,531)"
font-family="Gentium" font-size="29.3278" font-weight="400" font-style="normal" 
>
</g>

<g fill="none" stroke="#000000" stroke-opacity="1" stroke-width="1" stroke-linecap="square" stroke-linejoin="bevel" transform="matrix(1,0,0,1,101,531)"
font-family="Gentium" font-size="35.8451" font-weight="400" font-style="normal" 
>
<text fill="#000000" fill-opacity="1" stroke="none" xml:space="preserve" x="550.75" y="32" font-family="Gentium" font-size="35.8451" font-weight="400" font-style="normal" 
 >Tempo (s)</text>
</g>

<g fill="none" stroke="#101010" stroke-opacity="1" stroke-width="1" stroke-linecap="square" stroke-linejoin="bevel" transform="matrix(1,0,0,1,101,531)"
font-family="Gentium" font-size="29.3278" font-weight="400" font-style="normal" 
>
</g>

<g fill="none" stroke="#101010" stroke-opacity="1" stroke-width="1" stroke-linecap="square" stroke-linejoin="bevel" transform="matrix(1,0,0,1,0,0)"
font-family="DejaVu Sans" font-size="18.6667" font-weight="700" font-style="normal" 
>
</g>

<g fill="none" stroke="#101010" stroke-opacity="1" stroke-width="1" stroke-linecap="square" stroke-linejoin="bevel" transform="matrix(1,0,0,1,0,0)"
font-family="Gentium" font-size="29.3278" font-weight="400" font-style="normal" 
>
</g>

<g fill="none" stroke="#101010" stroke-opacity="1" stroke-width="1" stroke-linecap="square" stroke-linejoin="bevel" transform="matrix(1,0,0,1,0,0)"
font-family="Gentium" font-size="29.3278" font-weight="400" font-style="normal" 
>
</g>

<g fill="none" stroke="#101010" stroke-opacity="1" stroke-width="1" stroke-linecap="square" stroke-linejoin="bevel" transform="matrix(1,0,0,1,101,494)"
font-family="Gentium" font-size="29.3278" font-weight="400" font-style="normal" 
>
<text fill="#101010" fill-opacity="1" stroke="none" xml:space="preserve" x="0" y="26" font-family="Gentium" font-size="29.3278" font-weight="400" font-style="normal" 
 >0</text>
</g>

<g fill="none" stroke="#101010" stroke-opacity="1" stroke-width="1" stroke-linecap="square" stroke-linejoin="bevel" transform="matrix(1,0,0,1,101,494)"
font-family="Gentium" font-size="29.3278" font-weight="400" font-style="normal" 
>
</g>

<g fill="none" stroke="#101010" stroke-opacity="1" stroke-width="1" stroke-linecap="square" stroke-linejoin="bevel" transform="matrix(1,0,0,1,0,0)"
font-family="Gentium" font-size="29.3278" font-weight="400" font-style="normal" 
>
</g>

<g fill="none" stroke="#101010" stroke-opacity="1" stroke-width="1" stroke-linecap="square" stroke-linejoin="bevel" transform="matrix(1,0,0,1,295,494)"
font-family="Gentium" font-size="29.3278" font-weight="400" font-style="normal" 
>
<text fill="#101010" fill-opacity="1" stroke="none" xml:space="preserve" x="0" y="26" font-family="Gentium" font-size="29.3278" font-weight="400" font-style="normal" 
 >0,2</text>
</g>

<g fill="none" stroke="#101010" stroke-opacity="1" stroke-width="1" stroke-linecap="square" stroke-linejoin="bevel" transform="matrix(1,0,0,1,295,494)"
font-family="Gentium" font-size="29.3278" font-weight="400" font-style="normal" 
>
</g>

<g fill="none" stroke="#101010" stroke-opacity="1" stroke-width="1" stroke-linecap="square" stroke-linejoin="bevel" transform="matrix(1,0,0,1,0,0)"
font-family="Gentium" font-size="29.3278" font-weight="400" font-style="normal" 
>
</g>

<g fill="none" stroke="#101010" stroke-opacity="1" stroke-width="1" stroke-linecap="square" stroke-linejoin="bevel" transform="matrix(1,0,0,1,498,494)"
font-family="Gentium" font-size="29.3278" font-weight="400" font-style="normal" 
>
<text fill="#101010" fill-opacity="1" stroke="none" xml:space="preserve" x="0" y="26" font-family="Gentium" font-size="29.3278" font-weight="400" font-style="normal" 
 >0,4</text>
</g>

<g fill="none" stroke="#101010" stroke-opacity="1" stroke-width="1" stroke-linecap="square" stroke-linejoin="bevel" transform="matrix(1,0,0,1,498,494)"
font-family="Gentium" font-size="29.3278" font-weight="400" font-style="normal" 
>
</g>

<g fill="none" stroke="#101010" stroke-opacity="1" stroke-width="1" stroke-linecap="square" stroke-linejoin="bevel" transform="matrix(1,0,0,1,0,0)"
font-family="Gentium" font-size="29.3278" font-weight="400" font-style="normal" 
>
</g>

<g fill="none" stroke="#101010" stroke-opacity="1" stroke-width="1" stroke-linecap="square" stroke-linejoin="bevel" transform="matrix(1,0,0,1,702,494)"
font-family="Gentium" font-size="29.3278" font-weight="400" font-style="normal" 
>
<text fill="#101010" fill-opacity="1" stroke="none" xml:space="preserve" x="0" y="26" font-family="Gentium" font-size="29.3278" font-weight="400" font-style="normal" 
 >0,6</text>
</g>

<g fill="none" stroke="#101010" stroke-opacity="1" stroke-width="1" stroke-linecap="square" stroke-linejoin="bevel" transform="matrix(1,0,0,1,702,494)"
font-family="Gentium" font-size="29.3278" font-weight="400" font-style="normal" 
>
</g>

<g fill="none" stroke="#101010" stroke-opacity="1" stroke-width="1" stroke-linecap="square" stroke-linejoin="bevel" transform="matrix(1,0,0,1,0,0)"
font-family="Gentium" font-size="29.3278" font-weight="400" font-style="normal" 
>
</g>

<g fill="none" stroke="#101010" stroke-opacity="1" stroke-width="1" stroke-linecap="square" stroke-linejoin="bevel" transform="matrix(1,0,0,1,906,494)"
font-family="Gentium" font-size="29.3278" font-weight="400" font-style="normal" 
>
<text fill="#101010" fill-opacity="1" stroke="none" xml:space="preserve" x="0" y="26" font-family="Gentium" font-size="29.3278" font-weight="400" font-style="normal" 
 >0,8</text>
</g>

<g fill="none" stroke="#101010" stroke-opacity="1" stroke-width="1" stroke-linecap="square" stroke-linejoin="bevel" transform="matrix(1,0,0,1,906,494)"
font-family="Gentium" font-size="29.3278" font-weight="400" font-style="normal" 
>
</g>

<g fill="none" stroke="#101010" stroke-opacity="1" stroke-width="1" stroke-linecap="square" stroke-linejoin="bevel" transform="matrix(1,0,0,1,0,0)"
font-family="Gentium" font-size="29.3278" font-weight="400" font-style="normal" 
>
</g>

<g fill="none" stroke="#101010" stroke-opacity="1" stroke-width="1" stroke-linecap="square" stroke-linejoin="bevel" transform="matrix(1,0,0,1,1119,494)"
font-family="Gentium" font-size="29.3278" font-weight="400" font-style="normal" 
>
<text fill="#101010" fill-opacity="1" stroke="none" xml:space="preserve" x="0" y="26" font-family="Gentium" font-size="29.3278" font-weight="400" font-style="normal" 
 >1</text>
</g>

<g fill="none" stroke="#101010" stroke-opacity="1" stroke-width="1" stroke-linecap="square" stroke-linejoin="bevel" transform="matrix(1,0,0,1,1119,494)"
font-family="Gentium" font-size="29.3278" font-weight="400" font-style="normal" 
>
</g>

<g fill="none" stroke="#101010" stroke-opacity="1" stroke-width="1" stroke-linecap="square" stroke-linejoin="bevel" transform="matrix(1,0,0,1,0,0)"
font-family="Gentium" font-size="29.3278" font-weight="400" font-style="normal" 
>
</g>

<g fill="none" stroke="#101010" stroke-opacity="1" stroke-width="1" stroke-linecap="square" stroke-linejoin="bevel" transform="matrix(1,0,0,1,1313,494)"
font-family="Gentium" font-size="29.3278" font-weight="400" font-style="normal" 
>
<text fill="#101010" fill-opacity="1" stroke="none" xml:space="preserve" x="0" y="26" font-family="Gentium" font-size="29.3278" font-weight="400" font-style="normal" 
 >1,2</text>
</g>

<g fill="none" stroke="#101010" stroke-opacity="1" stroke-width="1" stroke-linecap="square" stroke-linejoin="bevel" transform="matrix(1,0,0,1,1313,494)"
font-family="Gentium" font-size="29.3278" font-weight="400" font-style="normal" 
>
</g>

<g fill="none" stroke="#101010" stroke-opacity="1" stroke-width="1" stroke-linecap="square" stroke-linejoin="bevel" transform="matrix(1,0,0,1,0,0)"
font-family="Gentium" font-size="29.3278" font-weight="400" font-style="normal" 
>
</g>

<g fill="none" stroke="#101010" stroke-opacity="1" stroke-width="1" stroke-linecap="square" stroke-linejoin="bevel" transform="matrix(1,0,0,1,0,0)"
font-family="Gentium" font-size="29.3278" font-weight="400" font-style="normal" 
>
</g>

<g fill="none" stroke="#000000" stroke-opacity="1" stroke-width="1" stroke-linecap="square" stroke-linejoin="bevel" transform="matrix(1,0,0,1,0,0)"
font-family="Gentium" font-size="29.3278" font-weight="400" font-style="normal" 
>
<polyline fill="none" vector-effect="none" points="159,480 159,485 " />
<polyline fill="none" vector-effect="none" points="261,480 261,485 " />
<polyline fill="none" vector-effect="none" points="363,480 363,485 " />
<polyline fill="none" vector-effect="none" points="464,480 464,485 " />
<polyline fill="none" vector-effect="none" points="566,480 566,485 " />
<polyline fill="none" vector-effect="none" points="668,480 668,485 " />
<polyline fill="none" vector-effect="none" points="770,480 770,485 " />
<polyline fill="none" vector-effect="none" points="872,480 872,485 " />
<polyline fill="none" vector-effect="none" points="974,480 974,485 " />
<polyline fill="none" vector-effect="none" points="1075,480 1075,485 " />
<polyline fill="none" vector-effect="none" points="1177,480 1177,485 " />
<polyline fill="none" vector-effect="none" points="1279,480 1279,485 " />
<polyline fill="none" vector-effect="none" points="210,480 210,485 " />
<polyline fill="none" vector-effect="none" points="414,480 414,485 " />
<polyline fill="none" vector-effect="none" points="617,480 617,485 " />
<polyline fill="none" vector-effect="none" points="821,480 821,485 " />
<polyline fill="none" vector-effect="none" points="1025,480 1025,485 " />
<polyline fill="none" vector-effect="none" points="1228,480 1228,485 " />
<polyline fill="none" vector-effect="none" points="108,480 108,489 " />
<polyline fill="none" vector-effect="none" points="312,480 312,489 " />
<polyline fill="none" vector-effect="none" points="515,480 515,489 " />
<polyline fill="none" vector-effect="none" points="719,480 719,489 " />
<polyline fill="none" vector-effect="none" points="923,480 923,489 " />
<polyline fill="none" vector-effect="none" points="1126,480 1126,489 " />
<polyline fill="none" vector-effect="none" points="1330,480 1330,489 " />
</g>

<g fill="none" stroke="#101010" stroke-opacity="1" stroke-width="1" stroke-linecap="square" stroke-linejoin="bevel" transform="matrix(1,0,0,1,0,0)"
font-family="Gentium" font-size="29.3278" font-weight="400" font-style="normal" 
>
</g>

<g fill="none" stroke="#000000" stroke-opacity="1" stroke-width="1" stroke-linecap="square" stroke-linejoin="bevel" transform="matrix(1,0,0,1,0,0)"
font-family="Gentium" font-size="29.3278" font-weight="400" font-style="normal" 
>
<polyline fill="none" vector-effect="none" points="108,480 1330,480 " />
</g>

<g fill="none" stroke="#101010" stroke-opacity="1" stroke-width="1" stroke-linecap="square" stroke-linejoin="bevel" transform="matrix(1,0,0,1,0,0)"
font-family="Gentium" font-size="29.3278" font-weight="400" font-style="normal" 
>
</g>

<g fill="none" stroke="#101010" stroke-opacity="1" stroke-width="1" stroke-linecap="square" stroke-linejoin="bevel" transform="matrix(1,0,0,1,0,0)"
font-family="Gentium" font-size="29.3278" font-weight="400" font-style="normal" 
>
</g>

<g fill="none" stroke="#101010" stroke-opacity="1" stroke-width="1" stroke-linecap="square" stroke-linejoin="bevel" transform="matrix(1,0,0,1,0,0)"
font-family="DejaVu Sans" font-size="18.6667" font-weight="700" font-style="normal" 
>
</g>

<g fill="none" stroke="#000000" stroke-opacity="1" stroke-width="1" stroke-linecap="square" stroke-linejoin="miter" stroke-miterlimit="2" transform="matrix(1,0,0,1,0,0)"
font-family="DejaVu Sans" font-size="18.6667" font-weight="700" font-style="normal" 
>
<path vector-effect="non-scaling-stroke" fill-rule="evenodd" d="M34628,-194452 L34719,-194452 L34719,-194301 L34628,-194301 L34628,-194452"/>
</g>

<g fill="none" stroke="#101010" stroke-opacity="1" stroke-width="1" stroke-linecap="square" stroke-linejoin="bevel" transform="matrix(1,0,0,1,0,0)"
font-family="DejaVu Sans" font-size="18.6667" font-weight="700" font-style="normal" 
>
</g>

<g fill="none" stroke="#101010" stroke-opacity="1" stroke-width="1" stroke-linecap="square" stroke-linejoin="bevel" transform="matrix(1,0,0,1,34628,-194452)"
font-family="DejaVu Sans" font-size="18.6667" font-weight="700" font-style="normal" 
>
</g>

<g fill="none" stroke="#101010" stroke-opacity="1" stroke-width="1" stroke-linecap="square" stroke-linejoin="bevel" transform="matrix(1,0,0,1,34628,-194452)"
font-family="DejaVu Sans" font-size="18.6667" font-weight="700" font-style="normal" 
>
</g>

<g fill="none" stroke="#ff0000" stroke-opacity="1" stroke-width="2" stroke-linecap="square" stroke-linejoin="miter" stroke-miterlimit="2" transform="matrix(1,0,0,1,34628,-194452)"
font-family="DejaVu Sans" font-size="18.6667" font-weight="700" font-style="normal" 
>
<polyline fill="none" vector-effect="non-scaling-stroke" points="11,23 43,23 " />
</g>

<g fill="none" stroke="#101010" stroke-opacity="1" stroke-width="1" stroke-linecap="square" stroke-linejoin="bevel" transform="matrix(1,0,0,1,34628,-194452)"
font-family="DejaVu Sans" font-size="18.6667" font-weight="700" font-style="normal" 
>
</g>

<g fill="none" stroke="#000000" stroke-opacity="1" stroke-width="1" stroke-linecap="square" stroke-linejoin="bevel" transform="matrix(1,0,0,1,34628,-194452)"
font-family="Gentium" font-size="29.3278" font-weight="400" font-style="normal" 
>
<text fill="#000000" fill-opacity="1" stroke="none" xml:space="preserve" x="53" y="32" font-family="Gentium" font-size="29.3278" font-weight="400" font-style="normal" 
 >F1</text>
</g>

<g fill="none" stroke="#101010" stroke-opacity="1" stroke-width="1" stroke-linecap="square" stroke-linejoin="bevel" transform="matrix(1,0,0,1,34628,-194452)"
font-family="DejaVu Sans" font-size="18.6667" font-weight="700" font-style="normal" 
>
</g>

<g fill="none" stroke="#101010" stroke-opacity="1" stroke-width="1" stroke-linecap="square" stroke-linejoin="bevel" transform="matrix(1,0,0,1,34628,-194452)"
font-family="DejaVu Sans" font-size="18.6667" font-weight="700" font-style="normal" 
>
</g>

<g fill="none" stroke="#008080" stroke-opacity="1" stroke-width="2" stroke-linecap="square" stroke-linejoin="miter" stroke-miterlimit="2" transform="matrix(1,0,0,1,34628,-194452)"
font-family="DejaVu Sans" font-size="18.6667" font-weight="700" font-style="normal" 
>
<polyline fill="none" vector-effect="non-scaling-stroke" points="11,58 43,58 " />
</g>

<g fill="none" stroke="#101010" stroke-opacity="1" stroke-width="1" stroke-linecap="square" stroke-linejoin="bevel" transform="matrix(1,0,0,1,34628,-194452)"
font-family="DejaVu Sans" font-size="18.6667" font-weight="700" font-style="normal" 
>
</g>

<g fill="none" stroke="#000000" stroke-opacity="1" stroke-width="1" stroke-linecap="square" stroke-linejoin="bevel" transform="matrix(1,0,0,1,34628,-194452)"
font-family="Gentium" font-size="29.3278" font-weight="400" font-style="normal" 
>
<text fill="#000000" fill-opacity="1" stroke="none" xml:space="preserve" x="53" y="67" font-family="Gentium" font-size="29.3278" font-weight="400" font-style="normal" 
 >F2</text>
</g>

<g fill="none" stroke="#101010" stroke-opacity="1" stroke-width="1" stroke-linecap="square" stroke-linejoin="bevel" transform="matrix(1,0,0,1,34628,-194452)"
font-family="DejaVu Sans" font-size="18.6667" font-weight="700" font-style="normal" 
>
</g>

<g fill="none" stroke="#101010" stroke-opacity="1" stroke-width="1" stroke-linecap="square" stroke-linejoin="bevel" transform="matrix(1,0,0,1,34628,-194452)"
font-family="DejaVu Sans" font-size="18.6667" font-weight="700" font-style="normal" 
>
</g>

<g fill="none" stroke="#0000a0" stroke-opacity="1" stroke-width="2" stroke-linecap="square" stroke-linejoin="miter" stroke-miterlimit="2" transform="matrix(1,0,0,1,34628,-194452)"
font-family="DejaVu Sans" font-size="18.6667" font-weight="700" font-style="normal" 
>
<polyline fill="none" vector-effect="non-scaling-stroke" points="11,93 43,93 " />
</g>

<g fill="none" stroke="#101010" stroke-opacity="1" stroke-width="1" stroke-linecap="square" stroke-linejoin="bevel" transform="matrix(1,0,0,1,34628,-194452)"
font-family="DejaVu Sans" font-size="18.6667" font-weight="700" font-style="normal" 
>
</g>

<g fill="none" stroke="#000000" stroke-opacity="1" stroke-width="1" stroke-linecap="square" stroke-linejoin="bevel" transform="matrix(1,0,0,1,34628,-194452)"
font-family="Gentium" font-size="29.3278" font-weight="400" font-style="normal" 
>
<text fill="#000000" fill-opacity="1" stroke="none" xml:space="preserve" x="53" y="102" font-family="Gentium" font-size="29.3278" font-weight="400" font-style="normal" 
 >F3</text>
</g>

<g fill="none" stroke="#101010" stroke-opacity="1" stroke-width="1" stroke-linecap="square" stroke-linejoin="bevel" transform="matrix(1,0,0,1,34628,-194452)"
font-family="DejaVu Sans" font-size="18.6667" font-weight="700" font-style="normal" 
>
</g>

<g fill="none" stroke="#101010" stroke-opacity="1" stroke-width="1" stroke-linecap="square" stroke-linejoin="bevel" transform="matrix(1,0,0,1,34628,-194452)"
font-family="DejaVu Sans" font-size="18.6667" font-weight="700" font-style="normal" 
>
</g>

<g fill="none" stroke="#ff0000" stroke-opacity="1" stroke-width="2" stroke-linecap="square" stroke-linejoin="miter" stroke-miterlimit="2" transform="matrix(1,0,0,1,34628,-194452)"
font-family="DejaVu Sans" font-size="18.6667" font-weight="700" font-style="normal" 
>
<polyline fill="none" vector-effect="non-scaling-stroke" points="11,128 43,128 " />
</g>

<g fill="none" stroke="#101010" stroke-opacity="1" stroke-width="1" stroke-linecap="square" stroke-linejoin="bevel" transform="matrix(1,0,0,1,34628,-194452)"
font-family="DejaVu Sans" font-size="18.6667" font-weight="700" font-style="normal" 
>
</g>

<g fill="none" stroke="#000000" stroke-opacity="1" stroke-width="1" stroke-linecap="square" stroke-linejoin="bevel" transform="matrix(1,0,0,1,34628,-194452)"
font-family="Gentium" font-size="29.3278" font-weight="400" font-style="normal" 
>
<text fill="#000000" fill-opacity="1" stroke="none" xml:space="preserve" x="53" y="137" font-family="Gentium" font-size="29.3278" font-weight="400" font-style="normal" 
 >F4</text>
</g>

<g fill="none" stroke="#101010" stroke-opacity="1" stroke-width="1" stroke-linecap="square" stroke-linejoin="bevel" transform="matrix(1,0,0,1,34628,-194452)"
font-family="DejaVu Sans" font-size="18.6667" font-weight="700" font-style="normal" 
>
</g>

<g fill="none" stroke="#101010" stroke-opacity="1" stroke-width="1" stroke-linecap="square" stroke-linejoin="bevel" transform="matrix(1,0,0,1,0,0)"
font-family="DejaVu Sans" font-size="18.6667" font-weight="700" font-style="normal" 
>
</g>

<g fill="none" stroke="#000000" stroke-opacity="1" stroke-width="1" stroke-linecap="square" stroke-linejoin="bevel" transform="matrix(1,0,0,1,0,0)"
font-family="Sans" font-size="13.3333" font-weight="400" font-style="normal" 
>
</g>
</g>
</svg>
