<!-- Created with Inkscape (http://www.inkscape.org/) -->
<svg id="svg4697" xmlns:rdf="http://www.w3.org/1999/02/22-rdf-syntax-ns#" xmlns="http://www.w3.org/2000/svg" xml:space="preserve" height="258.91" width="344.02" version="1.1" xmlns:cc="http://creativecommons.org/ns#" xmlns:xlink="http://www.w3.org/1999/xlink" xmlns:dc="http://purl.org/dc/elements/1.1/"><metadata id="metadata4703"><rdf:RDF><cc:Work rdf:about=""><dc:format>image/svg+xml</dc:format><dc:type rdf:resource="http://purl.org/dc/dcmitype/StillImage"/><dc:title/></cc:Work></rdf:RDF></metadata><defs id="defs4701"><clipPath id="clipPath66408" clipPathUnits="userSpaceOnUse"><path id="path66410" clip-rule="evenodd" d="M0.000010729,0,720,0v540h-720v-540z"/></clipPath><clipPath id="clipPath66396" clipPathUnits="userSpaceOnUse"><path id="path66398" clip-rule="evenodd" d="M0.000010729,0,720,0v540h-720v-540z"/></clipPath><clipPath id="clipPath66384" clipPathUnits="userSpaceOnUse"><path id="path66386" clip-rule="evenodd" d="M0.000010729,0,720,0v540h-720v-540z"/></clipPath><clipPath id="clipPath66372" clipPathUnits="userSpaceOnUse"><path id="path66374" clip-rule="evenodd" d="M0.000010729,0,720,0v540h-720v-540z"/></clipPath><clipPath id="clipPath66360" clipPathUnits="userSpaceOnUse"><path id="path66362" clip-rule="evenodd" d="M0.000010729,0,720,0v540h-720v-540z"/></clipPath><clipPath id="clipPath66348" clipPathUnits="userSpaceOnUse"><path id="path66350" clip-rule="evenodd" d="M0.000010729,0,720,0v540h-720v-540z"/></clipPath><clipPath id="clipPath66332" clipPathUnits="userSpaceOnUse"><path id="path66334" clip-rule="evenodd" d="M-0.000006784,540,720,540,720,0.000061035h-720"/></clipPath><clipPath id="clipPath66322" clipPathUnits="userSpaceOnUse"><path id="path66324" clip-rule="evenodd" d="M-0.000060179,540,720,540,720,0.000061035-0.000080966,0"/></clipPath><clipPath id="clipPath66312" clipPathUnits="userSpaceOnUse"><path id="path66314" clip-rule="evenodd" d="M-0.00003172,540,720,540,720,0.000061035h-720"/></clipPath><clipPath id="clipPath66302" clipPathUnits="userSpaceOnUse"><path id="path66304" clip-rule="evenodd" d="m0.000018135,0.000061035,720,0,0,540-720,0,0-540z"/></clipPath><clipPath id="clipPath66292" clipPathUnits="userSpaceOnUse"><path id="path66294" clip-rule="evenodd" d="M0.000004993,540,720,540,720,0.00012207h-720"/></clipPath><clipPath id="clipPath66282" clipPathUnits="userSpaceOnUse"><path id="path66284" clip-rule="evenodd" d="M-0.000033856,540,720,540,720,0-0.000017701,0"/></clipPath><clipPath id="clipPath66272" clipPathUnits="userSpaceOnUse"><path id="path66274" clip-rule="evenodd" d="M0.000021433,540,720,540,720,0.00012207-0.000003978,0.00012207"/></clipPath><clipPath id="clipPath66262" clipPathUnits="userSpaceOnUse"><path id="path66264" clip-rule="evenodd" d="M-0.000055367,540,720,540,720,0.000061035h-720"/></clipPath><clipPath id="clipPath66252" clipPathUnits="userSpaceOnUse"><path id="path66254" clip-rule="evenodd" d="M-0.000027744,540,720,540,720,0-0.000048531,0"/></clipPath><clipPath id="clipPath66242" clipPathUnits="userSpaceOnUse"><path id="path66244" clip-rule="evenodd" d="M-0.000002336,540,720,540,720,0.000061035h-720"/></clipPath><clipPath id="clipPath66232" clipPathUnits="userSpaceOnUse"><path id="path66234" clip-rule="evenodd" d="M-0.000018228,540,720,540,720,0-0.000039015,0"/></clipPath><clipPath id="clipPath66222" clipPathUnits="userSpaceOnUse"><path id="path66224" clip-rule="evenodd" d="M0.000001359,0.00018311,720,0.00018311,720,540h-720v-540z"/></clipPath><clipPath id="clipPath66180" clipPathUnits="userSpaceOnUse"><path id="path66182" clip-rule="evenodd" d="M0.000010729,0,720,0v540h-720v-540z"/></clipPath><clipPath id="clipPath66154" clipPathUnits="userSpaceOnUse"><path id="path66156" clip-rule="evenodd" d="M0.000010729,0,720,0v540h-720v-540z"/></clipPath><clipPath id="clipPath66142" clipPathUnits="userSpaceOnUse"><path id="path66144" clip-rule="evenodd" d="M0.000010729,0,720,0v540h-720v-540z"/></clipPath><clipPath id="clipPath66130" clipPathUnits="userSpaceOnUse"><path id="path66132" clip-rule="evenodd" d="M0.000010729,0,720,0v540h-720v-540z"/></clipPath><clipPath id="clipPath66088" clipPathUnits="userSpaceOnUse"><path id="path66090" clip-rule="evenodd" d="M-0.000002121,0.00018311,720,0.00018311,720,540-0.000002121,540v-540z"/></clipPath><clipPath id="clipPath66098" clipPathUnits="userSpaceOnUse"><path id="path66100" d="m0,0,71.129,0,0,21.369h-71.129v-21.369z"/></clipPath><clipPath id="clipPath66076" clipPathUnits="userSpaceOnUse"><path id="path66078" clip-rule="evenodd" d="M0.00000299,540,720,540,720,0.000061035,0.000014494,0.00012207"/></clipPath><clipPath id="clipPath66066" clipPathUnits="userSpaceOnUse"><path id="path66068" clip-rule="evenodd" d="M-0.000011993,540,720,540,720,0.000061035-0.000030415,0"/></clipPath><clipPath id="clipPath66056" clipPathUnits="userSpaceOnUse"><path id="path66058" clip-rule="evenodd" d="M0.000002464,540,720,540,720,0.000061035h-720"/></clipPath><clipPath id="clipPath66046" clipPathUnits="userSpaceOnUse"><path id="path66048" clip-rule="evenodd" d="m0.000074402,0.000061035,720,0,0,540-720,0,0-540z"/></clipPath><clipPath id="clipPath66036" clipPathUnits="userSpaceOnUse"><path id="path66038" clip-rule="evenodd" d="M0.000008793,540,720,540,720,0.00012207h-720"/></clipPath><clipPath id="clipPath66026" clipPathUnits="userSpaceOnUse"><path id="path66028" clip-rule="evenodd" d="M-0.000008486,540,720,540,720,0,0.000003076,0"/></clipPath><clipPath id="clipPath66016" clipPathUnits="userSpaceOnUse"><path id="path66018" clip-rule="evenodd" d="M5.07E-7,540,720,540,720,0.00012207h-720"/></clipPath><clipPath id="clipPath66006" clipPathUnits="userSpaceOnUse"><path id="path66008" clip-rule="evenodd" d="M-0.000006071,540,720,540,720,0.000061035-3.21E-7,0.000061035"/></clipPath><clipPath id="clipPath65996" clipPathUnits="userSpaceOnUse"><path id="path65998" clip-rule="evenodd" d="M-0.000008454,540,720,540,720,0.000061035-0.000026877,0"/></clipPath><clipPath id="clipPath65986" clipPathUnits="userSpaceOnUse"><path id="path65988" clip-rule="evenodd" d="M-0.00000416,540,720,540,720,0.000061035h-720"/></clipPath><clipPath id="clipPath65976" clipPathUnits="userSpaceOnUse"><path id="path65978" clip-rule="evenodd" d="M-0.00001368,540,720,540,720,0-0.000032103,0"/></clipPath><clipPath id="clipPath65966" clipPathUnits="userSpaceOnUse"><path id="path65968" clip-rule="evenodd" d="M-7.11E-7,0.00018311,720,0.00018311,720,540-7.11E-7,540v-540z"/></clipPath></defs><g id="g4705" transform="matrix(1.25,0,0,-1.25,-74.615586,631.63992)"><path id="path65932" stroke-linejoin="round" d="m79.765,373.21-10.56-29.4" stroke="#000" stroke-linecap="butt" stroke-miterlimit="10" stroke-dasharray="none" stroke-width="0.72000003" fill="none"/><path id="path65934" stroke-linejoin="round" d="m79.765,373.21,10.8-29.16" stroke="#000" stroke-linecap="butt" stroke-miterlimit="10" stroke-dasharray="none" stroke-width="0.72000003" fill="none"/><path id="path65936" stroke-linejoin="round" d="m69.205,344.05,10.56-3.24" stroke="#000" stroke-linecap="butt" stroke-miterlimit="10" stroke-dasharray="none" stroke-width="0.72000003" fill="none"/><path id="path65938" stroke-linejoin="round" d="m90.565,344.05-10.8-3.24" stroke="#000" stroke-linecap="butt" stroke-miterlimit="10" stroke-dasharray="none" stroke-width="0.72000003" fill="none"/><path id="path65940" stroke-linejoin="round" d="m79.765,372.61,0-31.8" stroke="#000" stroke-linecap="butt" stroke-miterlimit="10" stroke-dasharray="none" stroke-width="0.72000003" fill="none"/><path id="path65942" stroke-linejoin="round" d="m69.205,343.81,10.56,3.24" stroke="#000" stroke-linecap="butt" stroke-miterlimit="10" stroke-dasharray="none" stroke-width="0.72000003" fill="none"/><path id="path65944" stroke-linejoin="round" d="m90.565,344.05-10.8,3" stroke="#000" stroke-linecap="butt" stroke-miterlimit="10" stroke-dasharray="none" stroke-width="0.72000003" fill="none"/><path id="path65946" stroke-linejoin="round" d="m73.645,356.53,6.12-2.28" stroke="#000" stroke-linecap="butt" stroke-miterlimit="10" stroke-dasharray="none" stroke-width="0.72000003" fill="none"/><path id="path65948" stroke-linejoin="round" d="m79.765,354.25,6.48,2.28" stroke="#000" stroke-linecap="butt" stroke-miterlimit="10" stroke-dasharray="none" stroke-width="0.72000003" fill="none"/><path id="path65950" stroke-linejoin="round" d="m71.605,352.33,8.04-3.24" stroke="#000" stroke-linecap="butt" stroke-miterlimit="10" stroke-dasharray="none" stroke-width="0.72000003" fill="none"/><path id="path65952" stroke-linejoin="round" d="m79.765,348.85,8.04,2.88" stroke="#000" stroke-linecap="butt" stroke-miterlimit="10" stroke-dasharray="none" stroke-width="0.72000003" fill="none"/><path id="path65954" stroke-linejoin="round" d="m79.765,359.77,4.08,1.2" stroke="#000" stroke-linecap="butt" stroke-miterlimit="10" stroke-dasharray="none" stroke-width="0.72000003" fill="none"/><path id="path65956" stroke-linejoin="round" d="m79.765,366.25,2.64,0.84" stroke="#000" stroke-linecap="butt" stroke-miterlimit="10" stroke-dasharray="none" stroke-width="0.72000003" fill="none"/><path id="path65958" stroke-linejoin="round" d="m75.325,361.45,4.8-1.68" stroke="#000" stroke-linecap="butt" stroke-miterlimit="10" stroke-dasharray="none" stroke-width="0.72000003" fill="none"/><path id="path65960" stroke-linejoin="round" d="m77.485,367.33,2.76-1.56" stroke="#000" stroke-linecap="butt" stroke-miterlimit="10" stroke-dasharray="none" stroke-width="0.72000003" fill="none"/><g id="g65962" transform="translate(32.004969,133.45194)"><g id="g65964" clip-path="url(#clipPath65966)"><path id="path65970" stroke-linejoin="round" d="m49.8,237.36,0,0" stroke="#000" stroke-linecap="butt" stroke-miterlimit="10" stroke-dasharray="none" stroke-width="0.72000003" fill="none"/></g></g><g id="g65972" transform="translate(32.004969,133.45194)"><g id="g65974" clip-path="url(#clipPath65976)"><path id="path65980" stroke-linejoin="round" d="m51.04,240.02,11.031,0.85" stroke="#000" stroke-linecap="butt" stroke-miterlimit="10" stroke-dasharray="none" stroke-width="2.5" fill="none"/></g></g><g id="g65982" transform="translate(32.004969,133.45194)"><g id="g65984" clip-path="url(#clipPath65986)"><path id="path65990" stroke-linejoin="round" d="M61.939,240.86,56.943,238.4" stroke="#000" stroke-linecap="butt" stroke-miterlimit="10" stroke-dasharray="none" stroke-width="2.5" fill="none"/></g></g><g id="g65992" transform="translate(32.004969,133.45194)"><g id="g65994" clip-path="url(#clipPath65996)"><path id="path66000" stroke-linejoin="round" d="m56.912,238.37,10.912,0.89" stroke="#000" stroke-linecap="butt" stroke-miterlimit="10" stroke-dasharray="none" stroke-width="2.5" fill="none"/></g></g><g id="g66002" transform="translate(32.004969,133.45194)"><g id="g66004" clip-path="url(#clipPath66006)"><path id="path66010" stroke-linejoin="round" d="m46.887,257.76,0,0" stroke="#000" stroke-linecap="butt" stroke-miterlimit="10" stroke-dasharray="none" stroke-width="0.75" fill="none"/></g></g><g id="g66012" transform="translate(32.004969,133.45194)"><g id="g66014" clip-path="url(#clipPath66016)"><path id="path66020" stroke-linejoin="round" d="M49.311,256.48,50.07,246.27" stroke="#000" stroke-linecap="butt" stroke-miterlimit="10" stroke-dasharray="none" stroke-width="2.5" fill="none"/></g></g><g id="g66022" transform="translate(32.004969,133.45194)"><g id="g66024" clip-path="url(#clipPath66026)"><path id="path66030" stroke-linejoin="round" d="m49.937,246.46-2.735,5.08" stroke="#000" stroke-linecap="butt" stroke-miterlimit="10" stroke-dasharray="none" stroke-width="2.5" fill="none"/></g></g><g id="g66032" transform="translate(32.004969,133.45194)"><g id="g66034" clip-path="url(#clipPath66036)"><path id="path66040" stroke-linejoin="round" d="M46.932,251.48,47.69,241.27" stroke="#000" stroke-linecap="butt" stroke-miterlimit="10" stroke-dasharray="none" stroke-width="2.5" fill="none"/></g></g><g id="g66042" transform="translate(32.004969,133.45194)"><g id="g66044" clip-path="url(#clipPath66046)"><path id="path66050" stroke-linejoin="round" d="m45.84,242.4,0,0" stroke="#000" stroke-linecap="butt" stroke-miterlimit="10" stroke-dasharray="none" stroke-width="0.72000003" fill="none"/></g></g><g id="g66052" transform="translate(32.004969,133.45194)"><g id="g66054" clip-path="url(#clipPath66056)"><path id="path66060" stroke-linejoin="round" d="M44.473,239.74,33.401,238.75" stroke="#000" stroke-linecap="butt" stroke-miterlimit="10" stroke-dasharray="none" stroke-width="2.5" fill="none"/></g></g><g id="g66062" transform="translate(32.004969,133.45194)"><g id="g66064" clip-path="url(#clipPath66066)"><path id="path66070" stroke-linejoin="round" d="m33.547,238.89,5.029,2.58" stroke="#000" stroke-linecap="butt" stroke-miterlimit="10" stroke-dasharray="none" stroke-width="2.5" fill="none"/></g></g><g id="g66072" transform="translate(32.004969,133.45194)"><g id="g66074" clip-path="url(#clipPath66076)"><path id="path66080" stroke-linejoin="round" d="M38.715,241.49,27.802,240.61" stroke="#000" stroke-linecap="butt" stroke-miterlimit="10" stroke-dasharray="none" stroke-width="2.5" fill="none"/></g></g><path id="path66082" stroke-linejoin="round" d="m79.165,342.13,92.64,61.08" stroke="#000" stroke-linecap="butt" stroke-miterlimit="10" stroke-dasharray="none" stroke-width="0.72000003" fill="none"/><g id="g66084" transform="translate(32.004969,133.45194)"><g id="g66086" clip-path="url(#clipPath66088)"><g id="g66092" transform="matrix(-1.1767,0,0,0.37833,204.6,164.28)"><g id="g66094" transform="scale(1.0122,3.3694)"><g id="g66096" clip-path="url(#clipPath66098)"><g id="g66102"><g id="g66104"/><path id="path66108" d="M14.927,10.806,17.247,10.374,18.842,9.1483,19.857,7.4907,20.146,5.6168,19.857,3.6709,18.842,2.0132,17.247,0.78798,14.927,0.35555,12.68,0.78798,11.085,2.0132,10.142,3.6709,9.8525,5.6168,10.142,7.4907,11.085,9.1483,12.68,10.374,14.927,10.806,15.144,8.4997,13.84,8.2114,12.97,7.5628,12.462,6.6258,12.317,5.5447l0.145-1.081,0.58-0.937,0.87-0.6486,1.232-0.2883,1.305,0.2883,0.87,0.6486,0.58,0.937,0.218,1.081-0.145,1.0811-0.58,0.937-0.943,0.6486-1.305,0.2883-0.217,2.3063z" fill-rule="evenodd" fill="#000"/><path id="path66110" d="m57.046,10.806,2.319-0.432,1.668-1.2257,0.942-1.6576,0.363-1.8739-0.29-1.9459-1.015-1.6577-1.668-1.2252-2.319-0.43243-2.32,0.43243-1.595,1.2252-1.015,1.6577-0.29,1.9459,0.362,1.8739,0.943,1.6576,1.667,1.2257,2.248,0.432,0,0,0-2.3063-1.305-0.2883-0.87-0.6486-0.508-0.937-0.145-1.0811,0.145-1.081,0.58-0.937,0.87-0.6486,1.233-0.2883,0,0,1.304,0.2883,0.87,0.6486,0.58,0.937,0.218,1.081-0.145,1.0811-0.58,0.937-0.943,0.6486-1.304,0.2883,0,2.3063z" fill-rule="evenodd" fill="#000"/><path id="path66112" d="m28.048,12.68,0.725,0,0.798,0,0.797,0,0.797-0.072,0.798,0,0.797,0,0.87,0,0.87,0,0.87,0,0.942,0,0.87,0,0.943,0,0.942,0,1.015,0,0.943,0,1.014,0,0.508-0.577-4.64-0.36,4.93-0.433,0.507-1.441,0-1.1532l-0.362-0.9369-0.58-0.8649-0.653-0.7207-0.652-0.7928-0.435-0.8648-0.217-1.009-13.774,0.2882-0.073,1.1532-0.217,1.2973-0.29,1.3694-0.508,1.5855,2.465,3.5317z" fill-rule="evenodd" fill="#000"/><path id="path66114" d="M44.214,7.779,43.924,7.2745,43.489,6.77,43.127,6.2655,42.692,5.761,42.329,5.2565,42.039,4.7519,41.822,4.1033,41.749,3.4547l8.192,0.072,0.145,2.0901,0.508,1.7297,0.725,1.5136,0.942,1.2249,1.087,0.937,1.233,0.649,1.377,0.432,1.378,0.144,1.304-0.144,1.378-0.36,1.232-0.577,1.088-0.865,0.942-1.1527,0.725-1.2973,0.507-1.5855,0.145-1.8018,6.162,0.7928-0.362,0.7927,0.29,0.3604,0.435,0.2162,0.217,0.4325-0.725,1.081-0.362,0.7928-0.073,0.6487,0.218,0.5042,0.29,0.505,0.362,0.504,0.218,0.649,0.145,0.793h-1.16l-1.088,0.072h-1.087l-1.087,0.072-1.015,0.144-1.088,0.144-1.015,0.144-1.015,0.217-1.014,0.216-1.015,0.216-1.015,0.36-0.943,0.289-1.015,0.36-1.014,0.432-1.015,0.433-1.015,0.504-2.103,0.937-2.174,0.793-2.175,0.577-2.247,0.432-2.32,0.216-2.248,0.144-2.319-0.072-2.248-0.144-2.319-0.36-2.32-0.433-2.247-0.504-2.175-0.649-2.175-0.793-2.175-0.864-2.03-0.937-2.029-1.009,1.522-0.289,0.58,0.289,0.797,0.36,1.015,0.432,1.16,0.505,1.305,0.504,1.522,0.649,1.74,0.649,1.885,0.72-5.799-4.108h-4.205l-1.522,0.289-1.378,0.144-1.377,0.144-1.305,0.072h-1.232l-1.233-0.072-1.232-0.144-1.16-0.216-1.16-0.217-1.1599-0.36-1.0874-0.432-1.1599-0.577-1.0874-0.577-1.0874-0.72-1.0149-0.7931-1.0874-0.8648-1.0874-1.0091,6.1619-0.8648-0.7974-0.4324-0.7974-0.2883-0.8699-0.2163h-0.87l-0.9424,0.0721-0.7974,0.2162-0.86991,0.2883-0.72493,0.4325v-0.3604l0.21748-0.4324,0.28997-0.5766,0.50749-0.7207h7.1043l0.145,1.7297,0.4349,1.5135,0.725,1.2973,0.87,1.0093,1.015,0.793,1.16,0.504,1.305,0.36,1.304,0.072,1.233-0.216,1.305-0.432,1.16-0.649,1.015-0.937,0.869-1.225,0.725-1.3694,0.435-1.7297,0.145-1.946h3.552l-0.072,1.2973-0.29,1.3694-0.435,1.3694-0.58,1.5135,8.554,8.0725,11.672,0.576-0.145-1.585,1.885-0.217h0.942,0.797,0.943,0.725,1.015l-0.798-2.09h-0.942l0.725,2.09h-0.725l-0.798-2.09h-0.942l0.797,2.09h-0.797l-0.652-2.09h-1.015l0.725,2.09-1.885,0.217-0.363-3.532-0.942-0.144,0.29-0.649,0.507,0.216,0.798,0.217,0.942,0.072,1.015,0.072h0.942l0.798-0.144,0.58-0.289,0.217-0.504-0.217-0.288-0.58-0.145-0.798-0.072h-1.014-0.943-0.87l-0.652,0.072h-0.363l0.508-1.081,0.217-0.8645-0.072-0.7928-0.218-0.7207,1.305,0.072,0.798,0.937-0.653,0.8649h0.798l0.797-0.8649-0.652-0.937h-1.088l-1.305-0.072z" fill-rule="evenodd" fill="#000"/></g></g></g></g></g></g><path id="path66116" stroke-linejoin="round" d="m143.96,316.57-15.24,0" stroke="#000" stroke-linecap="butt" stroke-miterlimit="10" stroke-dasharray="none" stroke-width="0.72000003" fill="none"/><path id="path66118" stroke-linejoin="round" d="m148.16,321.01-25.08,0" stroke="#000" stroke-linecap="butt" stroke-miterlimit="10" stroke-dasharray="none" stroke-width="0.72000003" fill="none"/><path id="path66120" d="m159.92,402.13,77.64,0,0,53.16-77.64,0,0-53.16z" fill-rule="evenodd" fill="#0C9"/><path id="path66122" stroke-linejoin="miter" d="m159.92,402.13,77.64,0,0,53.16-77.64,0,0-53.16z" stroke="#000" stroke-linecap="butt" stroke-miterlimit="8" stroke-dasharray="none" stroke-width="0.72000003" fill="none"/><path id="path66124" d="m164,423.85,14.52,0,0,28.8-14.52,0,0-28.8z" fill-rule="evenodd" fill="#0C9"/><g id="g66126" transform="translate(32.004969,133.45194)"><g id="g66128" clip-path="url(#clipPath66130)"><text id="text66134" transform="matrix(1,0,0,-1,145.58,307.27)"><tspan id="tspan66136" style="writing-mode:lr-tb;" font-weight="normal" fill-rule="nonzero" font-size="14.03999996px" font-variant="normal" y="0" x="0 11.63916 19.4454 27.25164 30.368521 33.485401 41.291641" font-family="Arial" fill="#000000">Mobile</tspan></text>
</g></g><g id="g66138" transform="translate(32.004969,133.45194)"><g id="g66140" clip-path="url(#clipPath66142)"><text id="text66146" transform="matrix(1,0,0,-1,136.22,290.47)"><tspan id="tspan66148" style="writing-mode:lr-tb;" font-weight="normal" fill-rule="nonzero" font-size="14.03999996px" font-variant="normal" y="0" x="0 9.3646803 19.31904 22.435921 26.381161 33.443279 41.249519 44.366402 52.172642 59.978882" font-family="Arial" fill="#000000">Switching</tspan></text>
</g></g><g id="g66150" transform="translate(32.004969,133.45194)"><g id="g66152" clip-path="url(#clipPath66154)"><text id="text66158" transform="matrix(1,0,0,-1,145.22,273.67)"><tspan id="tspan66160" style="writing-mode:lr-tb;" font-weight="normal" fill-rule="nonzero" font-size="14.03999996px" font-variant="normal" y="0" x="0 10.08072 17.886959 25.693199 29.624399 37.430641" font-family="Arial" fill="#000000">Center</tspan></text>
</g></g><path id="path66162" d="m121.52,439.99c0,2.49,11.2,4.5,25.02,4.5s25.02-2.01,25.02-4.5-11.2-4.5-25.02-4.5-25.02,2.01-25.02,4.5z" fill-rule="evenodd" fill="#0C9"/><path id="path66164" stroke-linejoin="round" d="m121.52,439.99c0,2.49,11.2,4.5,25.02,4.5s25.02-2.01,25.02-4.5-11.2-4.5-25.02-4.5-25.02,2.01-25.02,4.5z" stroke="#000" stroke-linecap="butt" stroke-miterlimit="8" stroke-dasharray="none" stroke-width="0.72000003" fill="none"/><path id="path66166" stroke-linejoin="round" d="m121.64,469.33,0-29.28" stroke="#000" stroke-linecap="butt" stroke-miterlimit="8" stroke-dasharray="none" stroke-width="0.72000003" fill="none"/><path id="path66168" d="m122.36,440.77,49.2,0,0,29.28-49.2,0,0-29.28z" fill-rule="evenodd" fill="#0C9"/><path id="path66170" d="m121.4,469.87c0,2.49,11.17,4.5,24.96,4.5s24.96-2.01,24.96-4.5-11.17-4.5-24.96-4.5-24.96,2.01-24.96,4.5z" fill-rule="evenodd" fill="#0C9"/><path id="path66172" stroke-linejoin="round" d="m121.4,469.87c0,2.49,11.17,4.5,24.96,4.5s24.96-2.01,24.96-4.5-11.17-4.5-24.96-4.5-24.96,2.01-24.96,4.5z" stroke="#000" stroke-linecap="butt" stroke-miterlimit="8" stroke-dasharray="none" stroke-width="0.72000003" fill="none"/><path id="path66174" stroke-linejoin="round" d="m171.56,468.97,0-29.28" stroke="#000" stroke-linecap="butt" stroke-miterlimit="8" stroke-dasharray="none" stroke-width="0.72000003" fill="none"/><g id="g66176" transform="translate(32.004969,133.45194)"><g id="g66178" clip-path="url(#clipPath66180)"><text id="text66184" transform="matrix(1,0,0,-1,98.592,311.5)"><tspan id="tspan66186" style="writing-mode:lr-tb;" font-weight="normal" fill-rule="nonzero" font-size="15.96000004px" font-variant="normal" y="0" x="0 10.64532 19.519079" font-family="Arial" fill="#000000">VLR</tspan></text>
</g></g><path id="path66188" stroke-linejoin="round" d="m314.72,373.21-10.56-29.4" stroke="#000" stroke-linecap="butt" stroke-miterlimit="8" stroke-dasharray="none" stroke-width="0.72000003" fill="none"/><path id="path66190" stroke-linejoin="round" d="m314.72,373.21,10.8-29.16" stroke="#000" stroke-linecap="butt" stroke-miterlimit="8" stroke-dasharray="none" stroke-width="0.72000003" fill="none"/><path id="path66192" stroke-linejoin="round" d="m304.16,344.05,10.56-3.24" stroke="#000" stroke-linecap="butt" stroke-miterlimit="8" stroke-dasharray="none" stroke-width="0.72000003" fill="none"/><path id="path66194" stroke-linejoin="round" d="m325.52,344.05-10.8-3.24" stroke="#000" stroke-linecap="butt" stroke-miterlimit="8" stroke-dasharray="none" stroke-width="0.72000003" fill="none"/><path id="path66196" stroke-linejoin="round" d="m314.72,372.61,0-31.8" stroke="#000" stroke-linecap="butt" stroke-miterlimit="8" stroke-dasharray="none" stroke-width="0.72000003" fill="none"/><path id="path66198" stroke-linejoin="round" d="m304.16,343.81,10.56,3.24" stroke="#000" stroke-linecap="butt" stroke-miterlimit="8" stroke-dasharray="none" stroke-width="0.72000003" fill="none"/><path id="path66200" stroke-linejoin="round" d="m325.52,344.05-10.8,3" stroke="#000" stroke-linecap="butt" stroke-miterlimit="8" stroke-dasharray="none" stroke-width="0.72000003" fill="none"/><path id="path66202" stroke-linejoin="round" d="m308.6,356.53,6.12-2.28" stroke="#000" stroke-linecap="butt" stroke-miterlimit="8" stroke-dasharray="none" stroke-width="0.72000003" fill="none"/><path id="path66204" stroke-linejoin="round" d="m314.72,354.25,6.48,2.28" stroke="#000" stroke-linecap="butt" stroke-miterlimit="8" stroke-dasharray="none" stroke-width="0.72000003" fill="none"/><path id="path66206" stroke-linejoin="round" d="m306.68,352.33,7.92-3.24" stroke="#000" stroke-linecap="butt" stroke-miterlimit="8" stroke-dasharray="none" stroke-width="0.72000003" fill="none"/><path id="path66208" stroke-linejoin="round" d="m314.72,348.85,8.04,2.88" stroke="#000" stroke-linecap="butt" stroke-miterlimit="8" stroke-dasharray="none" stroke-width="0.72000003" fill="none"/><path id="path66210" stroke-linejoin="round" d="m314.72,359.77,4.2,1.2" stroke="#000" stroke-linecap="butt" stroke-miterlimit="8" stroke-dasharray="none" stroke-width="0.72000003" fill="none"/><path id="path66212" stroke-linejoin="round" d="m314.72,366.25,2.64,0.84" stroke="#000" stroke-linecap="butt" stroke-miterlimit="8" stroke-dasharray="none" stroke-width="0.72000003" fill="none"/><path id="path66214" stroke-linejoin="round" d="m310.28,361.45,4.8-1.68" stroke="#000" stroke-linecap="butt" stroke-miterlimit="8" stroke-dasharray="none" stroke-width="0.72000003" fill="none"/><path id="path66216" stroke-linejoin="round" d="m312.44,367.33,2.88-1.56" stroke="#000" stroke-linecap="butt" stroke-miterlimit="8" stroke-dasharray="none" stroke-width="0.72000003" fill="none"/><g id="g66218" transform="translate(32.004969,133.45194)"><g id="g66220" clip-path="url(#clipPath66222)"><path id="path66226" stroke-linejoin="round" d="m284.76,237.36,0,0" stroke="#000" stroke-linecap="butt" stroke-miterlimit="8" stroke-dasharray="none" stroke-width="0.72000003" fill="none"/></g></g><g id="g66228" transform="translate(32.004969,133.45194)"><g id="g66230" clip-path="url(#clipPath66232)"><path id="path66236" stroke-linejoin="round" d="m286.04,240.02,11.03,0.85" stroke="#000" stroke-linecap="butt" stroke-miterlimit="8" stroke-dasharray="none" stroke-width="2.5" fill="none"/></g></g><g id="g66238" transform="translate(32.004969,133.45194)"><g id="g66240" clip-path="url(#clipPath66242)"><path id="path66246" stroke-linejoin="round" d="m296.94,240.86-5-2.46" stroke="#000" stroke-linecap="butt" stroke-miterlimit="8" stroke-dasharray="none" stroke-width="2.5" fill="none"/></g></g><g id="g66248" transform="translate(32.004969,133.45194)"><g id="g66250" clip-path="url(#clipPath66252)"><path id="path66256" stroke-linejoin="round" d="m291.91,238.37,10.91,0.89" stroke="#000" stroke-linecap="butt" stroke-miterlimit="8" stroke-dasharray="none" stroke-width="2.5" fill="none"/></g></g><g id="g66258" transform="translate(32.004969,133.45194)"><g id="g66260" clip-path="url(#clipPath66262)"><path id="path66266" stroke-linejoin="round" d="m281.89,257.76,0,0" stroke="#000" stroke-linecap="butt" stroke-miterlimit="8" stroke-dasharray="none" stroke-width="0.75" fill="none"/></g></g><g id="g66268" transform="translate(32.004969,133.45194)"><g id="g66270" clip-path="url(#clipPath66272)"><path id="path66276" stroke-linejoin="round" d="m284.31,256.48,0.76-10.21" stroke="#000" stroke-linecap="butt" stroke-miterlimit="8" stroke-dasharray="none" stroke-width="2.5" fill="none"/></g></g><g id="g66278" transform="translate(32.004969,133.45194)"><g id="g66280" clip-path="url(#clipPath66282)"><path id="path66286" stroke-linejoin="round" d="m284.94,246.46-2.74,5.08" stroke="#000" stroke-linecap="butt" stroke-miterlimit="8" stroke-dasharray="none" stroke-width="2.5" fill="none"/></g></g><g id="g66288" transform="translate(32.004969,133.45194)"><g id="g66290" clip-path="url(#clipPath66292)"><path id="path66296" stroke-linejoin="round" d="m281.93,251.48,0.76-10.21" stroke="#000" stroke-linecap="butt" stroke-miterlimit="8" stroke-dasharray="none" stroke-width="2.5" fill="none"/></g></g><g id="g66298" transform="translate(32.004969,133.45194)"><g id="g66300" clip-path="url(#clipPath66302)"><path id="path66306" stroke-linejoin="round" d="m280.92,242.4,0,0" stroke="#000" stroke-linecap="butt" stroke-miterlimit="8" stroke-dasharray="none" stroke-width="0.72000003" fill="none"/></g></g><g id="g66308" transform="translate(32.004969,133.45194)"><g id="g66310" clip-path="url(#clipPath66312)"><path id="path66316" stroke-linejoin="round" d="M279.47,239.74,268.4,238.75" stroke="#000" stroke-linecap="butt" stroke-miterlimit="8" stroke-dasharray="none" stroke-width="2.5" fill="none"/></g></g><g id="g66318" transform="translate(32.004969,133.45194)"><g id="g66320" clip-path="url(#clipPath66322)"><path id="path66326" stroke-linejoin="round" d="m268.55,238.89,5.03,2.58" stroke="#000" stroke-linecap="butt" stroke-miterlimit="8" stroke-dasharray="none" stroke-width="2.5" fill="none"/></g></g><g id="g66328" transform="translate(32.004969,133.45194)"><g id="g66330" clip-path="url(#clipPath66332)"><path id="path66336" stroke-linejoin="round" d="M273.71,241.49,262.8,240.61" stroke="#000" stroke-linecap="butt" stroke-miterlimit="8" stroke-dasharray="none" stroke-width="2.5" fill="none"/></g></g><path id="path66338" stroke-linejoin="round" d="m316.76,341.05-92.64,61.2" stroke="#000" stroke-linecap="butt" stroke-miterlimit="8" stroke-dasharray="none" stroke-width="0.72000003" fill="none"/><path id="path66340" d="m197.73,505.23-0.01-0.61-0.02-0.68-0.02-0.7-0.02-0.77-0.03-1.63-0.04-1.82-0.04-1.97-0.03-2.1-0.04-2.25-0.05-2.36-0.03-2.46-0.04-2.56-0.04-2.64-0.04-2.71-0.03-2.77-0.03-2.82-0.08-5.72-0.07-5.77-0.06-5.72-0.03-2.81-0.03-2.76-0.03-2.7-0.03-2.63-0.03-2.54-0.02-2.46-0.02-2.34-0.02-2.22-0.03-2.08-0.01-1.95-0.02-1.79-0.01-1.62,0.01-1.48,0.02-1.37,0.04-1.28,0.05-1.2,0.06-1.1,0.09-1.02,0.08-0.96,0.11-0.87,0.1-0.83,0.11-0.75,0.11-0.71,0.11-0.66,0.11-0.61,0.1-0.59,0.2-1.05,0.15-0.98,0.11-0.93,0.03-0.94-0.08-0.99-0.2-0.99-0.35-1.07-0.49-1.12-0.64-1.21-0.36-0.63-0.34-0.55-0.66-1.01-0.7-0.92-0.74-0.83-0.8-0.76-0.88-0.72-0.98-0.7-1.08-0.7-0.61-0.37-0.62-0.37-0.66-0.4-0.72-0.41-0.75-0.45-0.81-0.47-0.88-0.51-0.93-0.54-0.99-0.59-1.06-0.64-1.13-0.68-1.19-0.73-1.29-0.8-1.35-0.86-1.46-0.92-1.52-0.99-0.84-0.53-0.89-0.56-0.98-0.59-1.01-0.6-1.08-0.62-1.12-0.65-1.18-0.66-1.23-0.68-1.27-0.69-1.32-0.72-2.75-1.48-2.89-1.53-3.02-1.59-3.13-1.64-3.21-1.69-3.29-1.72-3.33-1.74-6.72-3.57-3.349-1.8-3.325-1.81-3.273-1.81-3.202-1.81-3.106-1.79-3.001-1.78-2.87-1.75-2.717-1.72-1.285-0.84-1.256-0.84-1.201-0.82-1.142-0.81-1.105-0.8-1.043-0.79-0.982-0.77-0.921-0.75-0.859-0.74-0.784-0.71-0.715-0.7-0.656-0.68-0.554-0.64-0.5-0.62-0.415-0.59-0.318-0.54-0.252-0.51-0.151-0.44-0.082-0.4,0.034,0.22-0.045-0.55,0,0.25,0.045-0.55-0.042,0.25,0.135-0.53-0.073,0.22,0.217-0.51-0.105,0.2,0.307-0.49,0.287-0.35,0.371-0.37,0.442-0.37,0.531-0.39,0.614-0.4,0.685-0.39,0.769-0.4,0.831-0.38,0.916-0.4,0.961-0.37,1.032-0.38,1.092-0.37,1.137-0.36,1.205-0.36,1.237-0.34,1.292-0.34,2.729-0.67,2.864-0.64,2.992-0.6,3.118-0.59,3.197-0.56,3.273-0.53,3.328-0.52,3.358-0.49,6.72-0.93,3.32-0.45,3.28-0.43,3.2-0.41,3.13-0.41,3.01-0.4,2.87-0.39,2.74-0.38,1.3-0.19,2.04-0.35-0.51-2.95-1.95,0.33-1.3,0.19-2.72,0.38-2.87,0.39-3,0.4-3.12,0.4-3.21,0.42-3.28,0.43-3.34,0.44-6.75,0.94-3.377,0.5-3.347,0.52-3.312,0.53-3.238,0.57-3.152,0.6-3.053,0.61-2.926,0.65-2.776,0.68-1.333,0.35-1.298,0.37-1.24,0.37-1.203,0.38-1.158,0.39-1.098,0.4-1.064,0.42-0.974,0.43-0.954,0.44-0.881,0.46-0.83,0.48-0.766,0.5-0.699,0.53-0.638,0.55-0.559,0.59-0.493,0.63-0.308,0.5c-0.04,0.06-0.075,0.13-0.105,0.2l-0.218,0.51c-0.029,0.07-0.054,0.14-0.073,0.22l-0.135,0.52c-0.021,0.08-0.035,0.17-0.042,0.25l-0.045,0.55c-0.007,0.08-0.007,0.16,0,0.25l0.045,0.54c0.006,0.08,0.018,0.15,0.034,0.22l0.188,0.75,0.284,0.75,0.363,0.72,0.447,0.73,0.515,0.72,0.58,0.73,0.661,0.75,0.724,0.75,0.785,0.76,0.851,0.77,0.911,0.78,0.969,0.79,1.028,0.81,1.087,0.81,1.13,0.82,1.183,0.84,1.229,0.84,1.279,0.86,1.325,0.87,2.758,1.74,2.905,1.78,3.029,1.79,3.134,1.81,3.218,1.81,3.297,1.83,3.335,1.81,3.371,1.81,6.73,3.57,3.33,1.75,3.28,1.72,3.22,1.69,3.12,1.63,3.01,1.59,2.88,1.52,2.74,1.48,1.31,0.71,1.25,0.69,1.22,0.66,1.16,0.66,1.11,0.63,1.05,0.61,1,0.6,0.93,0.55,0.87,0.55,0.82,0.52,1.55,1,1.45,0.93,1.38,0.87,1.29,0.8,1.22,0.75,1.14,0.69,1.07,0.64,1,0.59,0.94,0.55,0.87,0.51,0.81,0.48,0.76,0.44,0.7,0.41,0.65,0.38,0.61,0.37,0.53,0.32,0.98,0.63,0.82,0.58,0.71,0.57,0.63,0.59,0.59,0.65,0.57,0.74,0.6,0.91,0.31,0.52,0.31,0.52,0.55,1.03,0.39,0.86,0.25,0.7,0.15,0.67,0.07,0.62-0.01,0.69-0.09,0.8-0.15,0.91-0.19,1.06-0.11,0.59-0.11,0.65-0.12,0.69-0.11,0.74-0.12,0.81-0.11,0.85-0.1,0.95-0.1,1-0.08,1.08-0.07,1.15-0.05,1.23-0.04,1.32-0.02,1.4-0.01,1.53,0.02,1.62,0.01,1.78,0.02,1.96,0.02,2.08,0.02,2.22,0.02,2.34,0.03,2.45,0.02,2.55,0.03,2.63,0.03,2.7,0.03,2.76,0.03,2.82,0.07,5.71,0.06,5.78,0.08,5.72,0.03,2.82,0.04,2.77,0.03,2.71,0.04,2.64,0.04,2.57,0.04,2.47,0.04,2.36,0.04,2.24,0.04,2.11,0.03,1.97,0.04,1.81,0.03,1.67,0.02,0.75,0.02,0.73,0.02,0.65,0.02,0.62,2.99-0.08zm-32.59-176.92,8.05-6.03-9.65-2.83,1.6,8.86z" fill-rule="nonzero" fill="#F00"/><path id="path66342" d="m197.84,409.51,0.66-0.49,0.66-0.52,0.67-0.55,0.66-0.55,0.73-0.6,0.79-0.66,0.88-0.71,1.02-0.81,0.56-0.44,0.61-0.46,0.64-0.49,0.71-0.53,0.74-0.54,0.08-0.06-1.77-2.42-0.08,0.06-0.78,0.56-0.7,0.53-0.67,0.51-0.62,0.48-0.59,0.45-1.03,0.82-0.92,0.74-0.8,0.67-0.71,0.59-0.66,0.55-0.6,0.5-0.62,0.48-0.66,0.49,1.8,2.4zm16.74-12.53,0.85-0.56,1.37-0.92,1.44-0.95,1.53-1,0.81-0.52,0.88-0.55,0.93-0.56,0.99-0.59,1.06-0.61,0.18-0.1-1.49-2.61-0.2,0.12-1.07,0.62-1.02,0.6-0.97,0.59-0.9,0.56-0.84,0.53-1.54,1.01-1.47,0.97-1.36,0.91-0.85,0.57,1.67,2.49zm17.89-10.68,0.75-0.41,2.89-1.53,3.01-1.59,3.13-1.64,0.82-0.43-1.39-2.66-0.83,0.43-3.13,1.65-3.02,1.59-2.9,1.54-0.75,0.4,1.42,2.65zm18.57-9.78,1.03-0.54,6.74-3.57,2.84-1.53-1.42-2.65-2.83,1.53-6.72,3.56-1.03,0.55,1.39,2.65zm18.52-10,2.46-1.39,3.14-1.8,3.03-1.8,1.78-1.09-1.57-2.55-1.74,1.06-3,1.78-3.11,1.79-2.46,1.39,1.47,2.61zm18.03-11.01,0.09-0.06,1.18-0.84,1.13-0.83,1.08-0.82,1.03-0.8,0.96-0.79,0.92-0.78,0.85-0.77,0.78-0.76,0.73-0.75,0.65-0.74,0.07-0.08-2.32-1.9-0.57,0.64-0.63,0.67-0.73,0.7-0.79,0.71-0.85,0.74-0.93,0.75-0.98,0.77-1.04,0.79-1.1,0.8-1.14,0.82-0.09,0.06,1.7,2.47zm9.35-17.84-0.07-0.06-0.71-0.53-0.78-0.5-0.81-0.48-0.89-0.46-0.95-0.44-0.99-0.43-1.05-0.42-1.1-0.4-1.15-0.4-1.21-0.37-1.24-0.38-0.59-0.16-0.81,2.89,0.54,0.15,1.2,0.36,1.14,0.36,1.09,0.37,1.03,0.37,0.96,0.38,0.92,0.4,0.83,0.38,0.76,0.39,0.71,0.41,0.6,0.39,0.52,0.38,0.07,0.06,1.98-2.26zm-20.4-7.14-1.94-0.39-3.16-0.59-3.24-0.57-3.3-0.54-0.24-0.04-0.46,2.97,0.21,0.03,3.27,0.54,3.21,0.56,3.11,0.58,1.94,0.39,0.6-2.94zm-20.8-3.45-4.32-0.6-3.35-0.44-3.28-0.43-0.96-0.12-0.39,2.97,0.96,0.13,3.28,0.42,3.32,0.45,4.32,0.6,0.42-2.98zm-20.83-2.75-2.34-0.32-2.72-0.38-1.3-0.19-1.98-0.34-0.5,2.96,2.05,0.35,1.31,0.19,2.74,0.38,2.34,0.32,0.4-2.97zm-6.32-3.91-9.65,2.83,8.06,6.02,1.59-8.85z" fill-rule="nonzero" fill="#F00"/><g id="g66344" transform="translate(32.004969,133.45194)"><g id="g66346" clip-path="url(#clipPath66348)"><text id="text66352" transform="matrix(1,0,0,-1,33.336,189.74)"><tspan id="tspan66354" style="writing-mode:lr-tb;" font-weight="normal" fill-rule="nonzero" font-size="14.03999996px" font-variant="normal" y="0" x="0 7.8062401 10.92312 18.729361 22.435921 31.8006 41.165279" font-family="Arial" fill="#000000">old BSS</tspan></text>
</g></g><g id="g66356" transform="translate(32.004969,133.45194)"><g id="g66358" clip-path="url(#clipPath66360)"><text id="text66364" transform="matrix(1,0,0,-1,245.38,179.38)"><tspan id="tspan66366" style="writing-mode:lr-tb;" font-weight="normal" fill-rule="nonzero" font-size="14.03999996px" font-variant="normal" y="0" x="0 7.8062401 15.61248 25.566839 29.512079 38.876759 48.24144" font-family="Arial" fill="#000000">new BSS</tspan></text>
</g></g><g id="g66368" transform="translate(32.004969,133.45194)"><g id="g66370" clip-path="url(#clipPath66372)"><text id="text66376" transform="matrix(1,0,0,-1,103.1,226.75)"><tspan id="tspan66378" style="writing-mode:lr-tb;" font-weight="normal" fill-rule="nonzero" font-size="14.03999996px" font-variant="normal" y="0" x="0 7.8000002 10.91064 18.71064" font-family="Arial" fill="#000000">old</tspan></text>
</g></g><g id="g66380" transform="translate(32.004969,133.45194)"><g id="g66382" clip-path="url(#clipPath66384)"><text id="text66388" transform="matrix(1,0,0,-1,103.1,209.95)"><tspan id="tspan66390" style="writing-mode:lr-tb;" font-weight="normal" fill-rule="nonzero" font-size="14.03999996px" font-variant="normal" y="0" x="0 4.6753201 12.48156 20.2878 24.219 27.33588 35.14212" font-family="Arial" fill="#000000">routing</tspan></text>
</g></g><g id="g66392" transform="translate(32.004969,133.45194)"><g id="g66394" clip-path="url(#clipPath66396)"><text id="text66400" transform="matrix(1,0,0,-1,198.14,227.76)"><tspan id="tspan66402" style="writing-mode:lr-tb;" font-weight="normal" fill-rule="nonzero" font-size="14.03999996px" font-variant="normal" y="0" x="0 7.8000002 15.6" font-family="Arial" fill="#000000">new</tspan></text>
</g></g><g id="g66404" transform="translate(32.004969,133.45194)"><g id="g66406" clip-path="url(#clipPath66408)"><text id="text66412" transform="matrix(1,0,0,-1,180.74,210.96)"><tspan id="tspan66414" style="writing-mode:lr-tb;" font-weight="normal" fill-rule="nonzero" font-size="14.03999996px" font-variant="normal" y="0" x="0 4.6753201 12.48156 20.2878 24.219 27.33588 35.14212" font-family="Arial" fill="#000000">routing</tspan></text>
</g></g></g></svg>
