<!-- Created with Inkscape (http://www.inkscape.org/) -->
<svg id="svg15774" xmlns:rdf="http://www.w3.org/1999/02/22-rdf-syntax-ns#" xmlns="http://www.w3.org/2000/svg" height="248.06" width="674.53" version="1.1" xmlns:cc="http://creativecommons.org/ns#" xmlns:xlink="http://www.w3.org/1999/xlink" xmlns:dc="http://purl.org/dc/elements/1.1/">
<defs id="defs15776">
<clipPath id="clipPath61353" clipPathUnits="userSpaceOnUse">
<path id="path61355" clip-rule="evenodd" d="M0.000010729,0,720,0v540h-720v-540z"/>
</clipPath>
<clipPath id="clipPath61341" clipPathUnits="userSpaceOnUse">
<path id="path61343" clip-rule="evenodd" d="M0.000010729,0,720,0v540h-720v-540z"/>
</clipPath>
<clipPath id="clipPath61325" clipPathUnits="userSpaceOnUse">
<path id="path61327" clip-rule="evenodd" d="M0.000010729,0,720,0v540h-720v-540z"/>
</clipPath>
<clipPath id="clipPath61309" clipPathUnits="userSpaceOnUse">
<path id="path61311" clip-rule="evenodd" d="M0.000010729,0,720,0v540h-720v-540z"/>
</clipPath>
<clipPath id="clipPath61297" clipPathUnits="userSpaceOnUse">
<path id="path61299" clip-rule="evenodd" d="M0.000010729,0,720,0v540h-720v-540z"/>
</clipPath>
<clipPath id="clipPath61285" clipPathUnits="userSpaceOnUse">
<path id="path61287" clip-rule="evenodd" d="M0.000010729,0,720,0v540h-720v-540z"/>
</clipPath>
<clipPath id="clipPath61271" clipPathUnits="userSpaceOnUse">
<path id="path61273" clip-rule="evenodd" d="M0.000010729,0,720,0v540h-720v-540z"/>
</clipPath>
<clipPath id="clipPath61259" clipPathUnits="userSpaceOnUse">
<path id="path61261" clip-rule="evenodd" d="M0.000010729,0,720,0v540h-720v-540z"/>
</clipPath>
<clipPath id="clipPath61247" clipPathUnits="userSpaceOnUse">
<path id="path61249" clip-rule="evenodd" d="M0.000010729,0,720,0v540h-720v-540z"/>
</clipPath>
<clipPath id="clipPath61233" clipPathUnits="userSpaceOnUse">
<path id="path61235" clip-rule="evenodd" d="M0.000010729,0,720,0v540h-720v-540z"/>
</clipPath>
<clipPath id="clipPath61221" clipPathUnits="userSpaceOnUse">
<path id="path61223" clip-rule="evenodd" d="M0.000010729,0,720,0v540h-720v-540z"/>
</clipPath>
<clipPath id="clipPath61209" clipPathUnits="userSpaceOnUse">
<path id="path61211" clip-rule="evenodd" d="M0.000010729,0,720,0v540h-720v-540z"/>
</clipPath>
<clipPath id="clipPath61191" clipPathUnits="userSpaceOnUse">
<path id="path61193" clip-rule="evenodd" d="M0.000010729,0,720,0v540h-720v-540z"/>
</clipPath>
<clipPath id="clipPath61179" clipPathUnits="userSpaceOnUse">
<path id="path61181" clip-rule="evenodd" d="M0.000010729,0,720,0v540h-720v-540z"/>
</clipPath>
<clipPath id="clipPath61167" clipPathUnits="userSpaceOnUse">
<path id="path61169" clip-rule="evenodd" d="M0.000010729,0,720,0v540h-720v-540z"/>
</clipPath>
<clipPath id="clipPath61153" clipPathUnits="userSpaceOnUse">
<path id="path61155" clip-rule="evenodd" d="M0.000010729,0,720,0v540h-720v-540z"/>
</clipPath>
<clipPath id="clipPath61141" clipPathUnits="userSpaceOnUse">
<path id="path61143" clip-rule="evenodd" d="M0.000010729,0,720,0v540h-720v-540z"/>
</clipPath>
<clipPath id="clipPath61129" clipPathUnits="userSpaceOnUse">
<path id="path61131" clip-rule="evenodd" d="M0.000010729,0,720,0v540h-720v-540z"/>
</clipPath>
<clipPath id="clipPath61115" clipPathUnits="userSpaceOnUse">
<path id="path61117" clip-rule="evenodd" d="M0.000010729,0,720,0v540h-720v-540z"/>
</clipPath>
<clipPath id="clipPath61103" clipPathUnits="userSpaceOnUse">
<path id="path61105" clip-rule="evenodd" d="M0.000010729,0,720,0v540h-720v-540z"/>
</clipPath>
<clipPath id="clipPath61091" clipPathUnits="userSpaceOnUse">
<path id="path61093" clip-rule="evenodd" d="M0.000010729,0,720,0v540h-720v-540z"/>
</clipPath>
<clipPath id="clipPath61077" clipPathUnits="userSpaceOnUse">
<path id="path61079" clip-rule="evenodd" d="M0.000010729,0,720,0v540h-720v-540z"/>
</clipPath>
<clipPath id="clipPath61065" clipPathUnits="userSpaceOnUse">
<path id="path61067" clip-rule="evenodd" d="M0.000010729,0,720,0v540h-720v-540z"/>
</clipPath>
<clipPath id="clipPath61031" clipPathUnits="userSpaceOnUse">
<path id="path61033" clip-rule="evenodd" d="M0.000010729,0,720,0v540h-720v-540z"/>
</clipPath>
<clipPath id="clipPath61019" clipPathUnits="userSpaceOnUse">
<path id="path61021" clip-rule="evenodd" d="M0.000010729,0,720,0v540h-720v-540z"/>
</clipPath>
<clipPath id="clipPath61007" clipPathUnits="userSpaceOnUse">
<path id="path61009" clip-rule="evenodd" d="M0.000010729,0,720,0v540h-720v-540z"/>
</clipPath>
<clipPath id="clipPath60995" clipPathUnits="userSpaceOnUse">
<path id="path60997" clip-rule="evenodd" d="M0.000010729,0,720,0v540h-720v-540z"/>
</clipPath>
<clipPath id="clipPath60983" clipPathUnits="userSpaceOnUse">
<path id="path60985" clip-rule="evenodd" d="M0.000010729,0,720,0v540h-720v-540z"/>
</clipPath>
<linearGradient id="linearGradient61587" y2="159" gradientUnits="userSpaceOnUse" y1="159" gradientTransform="translate(124.20615,-317.64081)" x2="336" x1="116.4">
<stop id="stop60965" stop-color="#FFF" offset="0"/>
<stop id="stop60967" stop-color="#FFF" offset="1"/>
</linearGradient>
</defs>
<metadata id="metadata15779">
<rdf:RDF>
<cc:Work rdf:about="">
<dc:format>image/svg+xml</dc:format>
<dc:type rdf:resource="http://purl.org/dc/dcmitype/StillImage"/>
<dc:title/>
</cc:Work>
</rdf:RDF>
</metadata>
<g id="layer1" transform="translate(67.8125,-341.96875)">
<g id="g60961" transform="matrix(1.25,0,0,-1.25,-223.07019,619.91774)">
<path id="path60969" d="M332.62,219.12,226.2,141.38,227.08,98.88,336,99.13,332.62,219.12z" fill-rule="evenodd" fill="url(#linearGradient61587)"/>
</g>
<g id="g60971" transform="matrix(1.25,0,0,-1.25,-223.07019,619.91774)">
<path id="path60973" stroke-linejoin="round" d="M332.62,219.12,226.2,141.38,227.08,98.88,336,99.13,332.62,219.12z" stroke-dashoffset="0" stroke="#000" stroke-linecap="butt" stroke-miterlimit="10" stroke-dasharray="2.88, 2.16" stroke-width="0.72000003" fill="none"/>
</g>
<path id="path60975" d="m-67.22,496.17,127.5,0,0-135-127.5,0,0,135z" fill-rule="evenodd" fill="#FFF"/>
<path id="path60977" stroke-linejoin="miter" d="m-67.22,496.17,127.5,0,0-135-127.5,0,0,135z" stroke="#000" stroke-linecap="butt" stroke-miterlimit="10" stroke-dasharray="none" stroke-width="0.90000004" fill="none"/>
<g id="g60979" transform="matrix(1.25,0,0,-1.25,-223.07019,619.91774)">
<g id="g60981" clip-path="url(#clipPath60983)">
<text id="text60987" transform="matrix(1,0,0,-1,131.76,188.93)">
<tspan id="tspan60989" style="writing-mode:lr-tb;" font-weight="normal" fill-rule="nonzero" font-size="18.02400017px" font-variant="normal" y="0" x="0 9.9672718 19.934544 29.901815 33.903145 37.81435 46.826351 56.7756 61.78627 65.787598 75.736847" font-family="Arial" fill="#000000">application</tspan>
</text>
</g>
</g>
<g id="g60991" transform="matrix(1.25,0,0,-1.25,-223.07019,619.91774)">
<g id="g60993" clip-path="url(#clipPath60995)">
<text id="text60999" transform="matrix(1,0,0,-1,139.2,167.3)">
<tspan id="tspan61001" style="writing-mode:lr-tb;" font-weight="normal" fill-rule="nonzero" font-size="18px" font-variant="normal" y="0" x="0 5.0040002 10.998 21.006001 30.959999 39.959999 49.967999 59.886002 65.879997" font-family="Arial" fill="#000000">transport</tspan>
</text>
</g>
</g>
<g id="g61003" transform="matrix(1.25,0,0,-1.25,-223.07019,619.91774)">
<g id="g61005" clip-path="url(#clipPath61007)">
<text id="text61011" transform="matrix(1,0,0,-1,143.4,145.7)">
<tspan id="tspan61013" style="writing-mode:lr-tb;" font-weight="normal" fill-rule="nonzero" font-size="18px" font-variant="normal" y="0" x="0 10.008 19.926001 24.93 37.566002 47.574001 53.568001" font-family="Arial" fill="#000000">network</tspan>
</text>
</g>
</g>
<g id="g61015" transform="matrix(1.25,0,0,-1.25,-223.07019,619.91774)">
<g id="g61017" clip-path="url(#clipPath61019)">
<text id="text61023" transform="matrix(1,0,0,-1,161.18,124.1)">
<tspan id="tspan61025" style="writing-mode:lr-tb;" font-weight="normal" fill-rule="nonzero" font-size="18px" font-variant="normal" y="0" x="0 3.9960001 7.9200001 17.927999" font-family="Arial" fill="#000000">link</tspan>
</text>
</g>
</g>
<g id="g61027" transform="matrix(1.25,0,0,-1.25,-223.07019,619.91774)">
<g id="g61029" clip-path="url(#clipPath61031)">
<text id="text61035" transform="matrix(1,0,0,-1,142.32,102.5)">
<tspan id="tspan61037" style="writing-mode:lr-tb;" font-weight="normal" fill-rule="nonzero" font-size="18px" font-variant="normal" y="0" x="0 10.008 19.926001 28.691999 37.692001 41.688 50.688 60.605999" font-family="Arial" fill="#000000">physical</tspan>
</text>
</g>
</g>
<path id="path61039" stroke-linejoin="round" d="m-67.22,389.82,127.5,0" stroke="#000" stroke-linecap="butt" stroke-miterlimit="10" stroke-dasharray="none" stroke-width="0.90000004" fill="none"/>
<path id="path61041" stroke-linejoin="round" d="m-67.22,416.97,127.5,0" stroke="#000" stroke-linecap="butt" stroke-miterlimit="10" stroke-dasharray="none" stroke-width="0.90000004" fill="none"/>
<path id="path61043" stroke-linejoin="round" d="m-67.82,444.57,127.5,0" stroke="#000" stroke-linecap="butt" stroke-miterlimit="10" stroke-dasharray="none" stroke-width="0.90000004" fill="none"/>
<path id="path61045" stroke-linejoin="round" d="m-66.92,469.17,126.15,0.45" stroke="#000" stroke-linecap="butt" stroke-miterlimit="10" stroke-dasharray="none" stroke-width="0.90000004" fill="none"/>
<g id="g61047" transform="matrix(1.25,0,0,-1.25,-223.07019,619.91774)">
<path id="path61049" stroke-linejoin="round" d="m124.92,114.24,0-13.2" stroke-dashoffset="0" stroke="#000" stroke-linecap="butt" stroke-miterlimit="10" stroke-dasharray="2.88, 2.16" stroke-width="0.72000003" fill="none"/>
</g>
<g id="g61051" transform="matrix(1.25,0,0,-1.25,-223.07019,619.91774)">
<path id="path61053" stroke-linejoin="round" d="m226.56,115.68,0-13.32" stroke-dashoffset="0" stroke="#000" stroke-linecap="butt" stroke-miterlimit="10" stroke-dasharray="2.88, 2.16" stroke-width="0.72000003" fill="none"/>
</g>
<path id="path61055" d="m193.33,496.77,412.95,0,0-154.35-412.95,0,0,154.35z" fill-rule="evenodd" fill="#FFF"/>
<path id="path61057" stroke-linejoin="miter" d="m193.33,496.77,412.95,0,0-154.35-412.95,0,0,154.35z" stroke="#000" stroke-linecap="butt" stroke-miterlimit="8" stroke-dasharray="none" stroke-width="0.90000004" fill="none"/>
<path id="path61059" stroke-linejoin="round" d="m194.68,407.82,411.3,0" stroke="#000" stroke-linecap="butt" stroke-miterlimit="8" stroke-dasharray="none" stroke-width="0.90000004" fill="none"/>
<g id="g61061" transform="matrix(1.25,0,0,-1.25,-223.07019,619.91774)">
<g id="g61063" clip-path="url(#clipPath61065)">
<text id="text61069" transform="matrix(1,0,0,-1,446.18,199.46)">
<tspan id="tspan61071" style="writing-mode:lr-tb;" font-weight="normal" fill-rule="nonzero" font-size="15.96000004px" font-variant="normal" y="0" x="0 13.29468 23.987881 35.511002 39.94788 48.82164 54.136318 63.010078 67.44696 76.320717 84.30072 93.206398" font-family="Arial" fill="#000000">MAC protocol</tspan>
</text>
</g>
</g>
<g id="g61073" transform="matrix(1.25,0,0,-1.25,-223.07019,619.91774)">
<g id="g61075" clip-path="url(#clipPath61077)">
<text id="text61081" transform="matrix(1,0,0,-1,433.7,180.26)">
<tspan id="tspan61083" style="writing-mode:lr-tb;" font-weight="normal" fill-rule="nonzero" font-size="15.96000004px" font-variant="normal" y="0" x="0 8.8737602 17.74752 26.621281 31.058161 35.495041 40.809719 49.683479 62.978161 71.851921 76.671837 81.108719 89.982483 95.297157 108.59184 117.4656" font-family="Arial" fill="#000000">and frame format</tspan>
</text>
</g>
</g>
<path id="path61085" stroke-linejoin="miter" d="m209.83,447.72,123.15,0,0-30.9-123.15,0,0,30.9z" stroke="#000" stroke-linecap="butt" stroke-miterlimit="8" stroke-dasharray="none" stroke-width="0.90000004" fill="none"/>
<g id="g61087" transform="matrix(1.25,0,0,-1.25,-223.07019,619.91774)">
<g id="g61089" clip-path="url(#clipPath61091)">
<text id="text61095" transform="matrix(1,0,0,-1,353.64,145.25)">
<tspan id="tspan61097" style="writing-mode:lr-tb;" font-weight="normal" fill-rule="nonzero" font-size="14.03999996px" font-variant="normal" y="0" x="0 7.8000002 15.6 23.4 32.758438 42.116879 51.475319" font-family="Arial" fill="#000000">100BASE</tspan>
</text>
</g>
</g>
<g id="g61099" transform="matrix(1.25,0,0,-1.25,-223.07019,619.91774)">
<g id="g61101" clip-path="url(#clipPath61103)">
<text id="text61107" transform="matrix(1,0,0,-1,414.48,145.25)">
<tspan id="tspan61109" style="writing-mode:lr-tb;" font-weight="normal" fill-rule="nonzero" font-size="14.03999996px" font-variant="normal" y="0" x="0" font-family="Arial" fill="#000000">-</tspan>
</text>
</g>
</g>
<g id="g61111" transform="matrix(1.25,0,0,-1.25,-223.07019,619.91774)">
<g id="g61113" clip-path="url(#clipPath61115)">
<text id="text61119" transform="matrix(1,0,0,-1,419.16,145.25)">
<tspan id="tspan61121" style="writing-mode:lr-tb;" font-weight="normal" fill-rule="nonzero" font-size="14.03999996px" font-variant="normal" y="0" x="0 8.5200396" font-family="Arial" fill="#000000">TX</tspan>
</text>
</g>
</g>
<path id="path61123" stroke-linejoin="miter" d="m211.03,483.27,121.05,0,0-31.05-121.05,0,0,31.05z" stroke="#000" stroke-linecap="butt" stroke-miterlimit="8" stroke-dasharray="none" stroke-width="0.90000004" fill="none"/>
<g id="g61125" transform="matrix(1.25,0,0,-1.25,-223.07019,619.91774)">
<g id="g61127" clip-path="url(#clipPath61129)">
<text id="text61133" transform="matrix(1,0,0,-1,354.5,116.86)">
<tspan id="tspan61135" style="writing-mode:lr-tb;" font-weight="normal" fill-rule="nonzero" font-size="14.03999996px" font-variant="normal" y="0" x="0 7.8000002 15.6 23.4 32.758438 42.116879 51.475319" font-family="Arial" fill="#000000">100BASE</tspan>
</text>
</g>
</g>
<g id="g61137" transform="matrix(1.25,0,0,-1.25,-223.07019,619.91774)">
<g id="g61139" clip-path="url(#clipPath61141)">
<text id="text61145" transform="matrix(1,0,0,-1,415.37,116.86)">
<tspan id="tspan61147" style="writing-mode:lr-tb;" font-weight="normal" fill-rule="nonzero" font-size="14.03999996px" font-variant="normal" y="0" x="0" font-family="Arial" fill="#000000">-</tspan>
</text>
</g>
</g>
<g id="g61149" transform="matrix(1.25,0,0,-1.25,-223.07019,619.91774)">
<g id="g61151" clip-path="url(#clipPath61153)">
<text id="text61157" transform="matrix(1,0,0,-1,420.05,116.86)">
<tspan id="tspan61159" style="writing-mode:lr-tb;" font-weight="normal" fill-rule="nonzero" font-size="14.03999996px" font-variant="normal" y="0" x="0 8.5200396" font-family="Arial" fill="#000000">T4</tspan>
</text>
</g>
</g>
<path id="path61161" stroke-linejoin="miter" d="m473.98,447.27,123.15,0,0-30.9-123.15,0,0,30.9z" stroke="#000" stroke-linecap="butt" stroke-miterlimit="8" stroke-dasharray="none" stroke-width="0.90000004" fill="none"/>
<g id="g61163" transform="matrix(1.25,0,0,-1.25,-223.07019,619.91774)">
<g id="g61165" clip-path="url(#clipPath61167)">
<text id="text61171" transform="matrix(1,0,0,-1,564.91,145.61)">
<tspan id="tspan61173" style="writing-mode:lr-tb;" font-weight="normal" fill-rule="nonzero" font-size="14.03999996px" font-variant="normal" y="0" x="0 7.8000002 15.6 23.4 32.758438 42.116879 51.475319" font-family="Arial" fill="#000000">100BASE</tspan>
</text>
</g>
</g>
<g id="g61175" transform="matrix(1.25,0,0,-1.25,-223.07019,619.91774)">
<g id="g61177" clip-path="url(#clipPath61179)">
<text id="text61183" transform="matrix(1,0,0,-1,625.78,145.61)">
<tspan id="tspan61185" style="writing-mode:lr-tb;" font-weight="normal" fill-rule="nonzero" font-size="14.03999996px" font-variant="normal" y="0" x="0" font-family="Arial" fill="#000000">-</tspan>
</text>
</g>
</g>
<g id="g61187" transform="matrix(1.25,0,0,-1.25,-223.07019,619.91774)">
<g id="g61189" clip-path="url(#clipPath61191)">
<text id="text61195" transform="matrix(1,0,0,-1,630.46,145.61)">
<tspan id="tspan61197" style="writing-mode:lr-tb;" font-weight="normal" fill-rule="nonzero" font-size="14.03999996px" font-variant="normal" y="0" x="0 8.5200396" font-family="Arial" fill="#000000">FX</tspan>
</text>
</g>
</g>
<g id="g61199" transform="matrix(1.25,0,0,-1.25,-223.07019,619.91774)">
<path id="path61201" stroke-linejoin="round" d="m227.4,123,109.68,48.12" stroke-dashoffset="0" stroke="#000" stroke-linecap="butt" stroke-miterlimit="8" stroke-dasharray="2.88, 2.16" stroke-width="0.72000003" fill="none"/>
</g>
<path id="path61203" stroke-linejoin="miter" d="m342.13,447.12,121.05,0,0-30.9-121.05,0,0,30.9z" stroke="#000" stroke-linecap="butt" stroke-miterlimit="8" stroke-dasharray="none" stroke-width="0.90000004" fill="none"/>
<g id="g61205" transform="matrix(1.25,0,0,-1.25,-223.07019,619.91774)">
<g id="g61207" clip-path="url(#clipPath61209)">
<text id="text61213" transform="matrix(1,0,0,-1,459.41,145.75)">
<tspan id="tspan61215" style="writing-mode:lr-tb;" font-weight="normal" fill-rule="nonzero" font-size="14.06400013px" font-variant="normal" y="0" x="0 7.799984 15.599968 23.399952 32.76104 42.122128 51.483215" font-family="Arial" fill="#000000">100BASE</tspan>
</text>
</g>
</g>
<g id="g61217" transform="matrix(1.25,0,0,-1.25,-223.07019,619.91774)">
<g id="g61219" clip-path="url(#clipPath61221)">
<text id="text61225" transform="matrix(1,0,0,-1,520.25,145.75)">
<tspan id="tspan61227" style="writing-mode:lr-tb;" font-weight="normal" fill-rule="nonzero" font-size="14.06400013px" font-variant="normal" y="0" x="0" font-family="Arial" fill="#000000">-</tspan>
</text>
</g>
</g>
<g id="g61229" transform="matrix(1.25,0,0,-1.25,-223.07019,619.91774)">
<g id="g61231" clip-path="url(#clipPath61233)">
<text id="text61237" transform="matrix(1,0,0,-1,524.93,145.75)">
<tspan id="tspan61239" style="writing-mode:lr-tb;" font-weight="normal" fill-rule="nonzero" font-size="14.06400013px" font-variant="normal" y="0" x="0 8.5200043" font-family="Arial" fill="#000000">T2</tspan>
</text>
</g>
</g>
<path id="path61241" stroke-linejoin="miter" d="m340.33,482.52,124.2,0,0-30.9-124.2,0,0,30.9z" stroke="#000" stroke-linecap="butt" stroke-miterlimit="8" stroke-dasharray="none" stroke-width="0.90000004" fill="none"/>
<g id="g61243" transform="matrix(1.25,0,0,-1.25,-223.07019,619.91774)">
<g id="g61245" clip-path="url(#clipPath61247)">
<text id="text61251" transform="matrix(1,0,0,-1,458.04,117.36)">
<tspan id="tspan61253" style="writing-mode:lr-tb;" font-weight="normal" fill-rule="nonzero" font-size="14.03999996px" font-variant="normal" y="0" x="0 7.8000002 15.6 23.4 32.758438 42.116879 51.475319" font-family="Arial" fill="#000000">100BASE</tspan>
</text>
</g>
</g>
<g id="g61255" transform="matrix(1.25,0,0,-1.25,-223.07019,619.91774)">
<g id="g61257" clip-path="url(#clipPath61259)">
<text id="text61263" transform="matrix(1,0,0,-1,518.88,117.36)">
<tspan id="tspan61265" style="writing-mode:lr-tb;" font-weight="normal" fill-rule="nonzero" font-size="14.03999996px" font-variant="normal" y="0" x="0" font-family="Arial" fill="#000000">-</tspan>
</text>
</g>
</g>
<g id="g61267" transform="matrix(1.25,0,0,-1.25,-223.07019,619.91774)">
<g id="g61269" clip-path="url(#clipPath61271)">
<text id="text61275" transform="matrix(1,0,0,-1,523.56,117.36)">
<tspan id="tspan61277" style="writing-mode:lr-tb;" font-weight="normal" fill-rule="nonzero" font-size="14.03999996px" font-variant="normal" y="0" x="0 9.3599997" font-family="Arial" fill="#000000">SX</tspan>
</text>
</g>
</g>
<path id="path61279" stroke-linejoin="miter" d="m474.58,482.07,124.2,0,0-30.9-124.2,0,0,30.9z" stroke="#000" stroke-linecap="butt" stroke-miterlimit="8" stroke-dasharray="none" stroke-width="0.90000004" fill="none"/>
<g id="g61281" transform="matrix(1.25,0,0,-1.25,-223.07019,619.91774)">
<g id="g61283" clip-path="url(#clipPath61285)">
<text id="text61289" transform="matrix(1,0,0,-1,565.42,117.74)">
<tspan id="tspan61291" style="writing-mode:lr-tb;" font-weight="normal" fill-rule="nonzero" font-size="14.03999996px" font-variant="normal" y="0" x="0 7.8000002 15.6 23.4 32.758438 42.116879 51.475319" font-family="Arial" fill="#000000">100BASE</tspan>
</text>
</g>
</g>
<g id="g61293" transform="matrix(1.25,0,0,-1.25,-223.07019,619.91774)">
<g id="g61295" clip-path="url(#clipPath61297)">
<text id="text61301" transform="matrix(1,0,0,-1,626.28,117.74)">
<tspan id="tspan61303" style="writing-mode:lr-tb;" font-weight="normal" fill-rule="nonzero" font-size="14.03999996px" font-variant="normal" y="0" x="0" font-family="Arial" fill="#000000">-</tspan>
</text>
</g>
</g>
<g id="g61305" transform="matrix(1.25,0,0,-1.25,-223.07019,619.91774)">
<g id="g61307" clip-path="url(#clipPath61309)">
<text id="text61313" transform="matrix(1,0,0,-1,630.96,117.74)">
<tspan id="tspan61315" style="writing-mode:lr-tb;" font-weight="normal" fill-rule="nonzero" font-size="14.03999996px" font-variant="normal" y="0" x="0 9.3599997" font-family="Arial" fill="#000000">BX</tspan>
</text>
</g>
</g>
<path id="path61317" stroke-linejoin="round" d="m467.75,411.94,0.15,37.312-130.92,0-0.775,39.038,267,0c-0.3125-24.825-0.4625-51.525-0.775-76.35h-134.68z" stroke="#F00" stroke-linecap="butt" stroke-miterlimit="8" stroke-dasharray="none" stroke-width="1.94999993" fill="none"/>
<path id="path61319" stroke-linejoin="round" d="m466.1,490.99,35.4,45.45" stroke="#F00" stroke-linecap="butt" stroke-miterlimit="8" stroke-dasharray="none" stroke-width="2.8499999" fill="none"/>
<g id="g61321" transform="matrix(1.25,0,0,-1.25,-223.07019,619.91774)">
<g id="g61323" clip-path="url(#clipPath61325)">
<text id="text61329" transform="matrix(1,0,0,-1,507.67,51.144)">
<tspan id="tspan61331" style="writing-mode:lr-tb;" font-weight="normal" fill-rule="nonzero" font-size="18.02400017px" font-variant="normal" y="0" x="0 5.0106721 9.0120001 18.961248 28.92852 34.930511 39.941185 49.962528 59.893753 68.653419 77.665413 81.66674 90.606651 100.57392 104.57525 110.03652 114.03785 123.95105 132.71071 142.67798" font-family="Arial" fill="#cc0000">fiber physical layer</tspan>
</text>
</g>
</g>
<path id="path61333" stroke-linejoin="round" d="m465.35,410.89-1.875,36.438-130.05,0-0.9375,40.962-127.24,0,0-77.4,260.1,0z" stroke="#33C" stroke-linecap="butt" stroke-miterlimit="8" stroke-dasharray="none" stroke-width="2.8499999" fill="none"/>
<path id="path61335" stroke-linejoin="round" d="m270.2,492.34-35.55,45.45" stroke="#33C" stroke-linecap="butt" stroke-miterlimit="8" stroke-dasharray="none" stroke-width="2.8499999" fill="none"/>
<g id="g61337" transform="matrix(1.25,0,0,-1.25,-223.07019,619.91774)">
<g id="g61339" clip-path="url(#clipPath61341)">
<text id="text61345" transform="matrix(1,0,0,-1,297.74,49.248)">
<tspan id="tspan61347" style="writing-mode:lr-tb;" font-weight="normal" fill-rule="nonzero" font-size="18px" font-variant="normal" y="0" x="0 9 19.007999 28.926001 38.933998 48.852001 54.846001 59.993999 65.987999 70.991997 83.627998 87.624001 96.624001 101.628 111.636" font-family="Arial" fill="#000099">copper (twister</tspan>
</text>
</g>
</g>
<g id="g61349" transform="matrix(1.25,0,0,-1.25,-223.07019,619.91774)">
<g id="g61351" clip-path="url(#clipPath61353)">
<text id="text61357" transform="matrix(1,0,0,-1,297.74,27.648)">
<tspan id="tspan61359" style="writing-mode:lr-tb;" font-weight="normal" fill-rule="nonzero" font-size="18px" font-variant="normal" y="0" x="0 10.008 19.926001 23.922001 29.916 35.91 41.021999 51.029999 60.948002 69.713997 78.713997 82.709999 91.709999 101.628 105.624 110.97 114.966 124.884 133.64999 143.658" font-family="Arial" fill="#000099">pair) physical layer</tspan>
</text>
</g>
</g>
</g>
</svg>
