<?xml version="1.0" encoding="UTF-8" standalone="no"?>
<!-- Created with Inkscape (http://www.inkscape.org/) -->

<svg
   xmlns:dc="http://purl.org/dc/elements/1.1/"
   xmlns:cc="http://creativecommons.org/ns#"
   xmlns:rdf="http://www.w3.org/1999/02/22-rdf-syntax-ns#"
   xmlns:svg="http://www.w3.org/2000/svg"
   xmlns="http://www.w3.org/2000/svg"
   xmlns:sodipodi="http://sodipodi.sourceforge.net/DTD/sodipodi-0.dtd"
   xmlns:inkscape="http://www.inkscape.org/namespaces/inkscape"
   width="99.34375"
   height="47.65625"
   id="svg36370"
   version="1.1"
   inkscape:version="0.48.3.1 r9886"
   sodipodi:docname="SSLSumario.svg">
  <defs
     id="defs36372">
    <clipPath
       clipPathUnits="userSpaceOnUse"
       id="clipPath344">
      <path
         inkscape:connector-curvature="0"
         d="M 9.99e-7,6.104e-6 720,6.104e-6 720,540.00001 9.99e-7,540.00001 9.99e-7,6.104e-6 z"
         clip-rule="evenodd"
         id="path346" />
    </clipPath>
    <clipPath
       clipPathUnits="userSpaceOnUse"
       id="clipPath348">
      <path
         inkscape:connector-curvature="0"
         d="m 0,0 361.12,0 0,186.9 L 0,186.9 0,0 z"
         id="path350" />
    </clipPath>
    <clipPath
       clipPathUnits="userSpaceOnUse"
       id="clipPath496">
      <path
         inkscape:connector-curvature="0"
         d="M -4.349e-6,1.8311e-4 720,1.8311e-4 720,540.00018 l -720.000004349,0 0,-539.99999689 z"
         clip-rule="evenodd"
         id="path498" />
    </clipPath>
    <clipPath
       clipPathUnits="userSpaceOnUse"
       id="clipPath646">
      <path
         inkscape:connector-curvature="0"
         d="M 3.229e-6,6.104e-6 720,6.104e-6 720,540.00001 3.229e-6,540.00001 3.229e-6,6.104e-6 z"
         clip-rule="evenodd"
         id="path648" />
    </clipPath>
    <clipPath
       clipPathUnits="userSpaceOnUse"
       id="clipPath650">
      <path
         inkscape:connector-curvature="0"
         d="m 0,0 361.12,0 0,186.9 L 0,186.9 0,0 z"
         id="path652" />
    </clipPath>
    <clipPath
       clipPathUnits="userSpaceOnUse"
       id="clipPath638">
      <path
         inkscape:connector-curvature="0"
         d="M -1.459e-6,6.104e-6 720,6.104e-6 720,540.00001 -1.459e-6,540.00001 -1.459e-6,6.104e-6 z"
         clip-rule="evenodd"
         id="path640" />
    </clipPath>
    <clipPath
       clipPathUnits="userSpaceOnUse"
       id="clipPath642">
      <path
         inkscape:connector-curvature="0"
         d="m 0,0 361.12,0 0,186.9 L 0,186.9 0,0 z"
         id="path644" />
    </clipPath>
    <clipPath
       clipPathUnits="userSpaceOnUse"
       id="clipPath634">
      <path
         inkscape:connector-curvature="0"
         d="M -2.855e-6,1.8311e-4 720,1.8311e-4 720,540.00018 l -720.000002855,0 0,-539.99999689 z"
         clip-rule="evenodd"
         id="path636" />
    </clipPath>
    <clipPath
       clipPathUnits="userSpaceOnUse"
       id="clipPath630">
      <path
         inkscape:connector-curvature="0"
         d="M -8.02e-7,1.8311e-4 720,1.8311e-4 720,540.00018 -8.02e-7,540.00018 l 0,-539.99999689 z"
         clip-rule="evenodd"
         id="path632" />
    </clipPath>
    <clipPath
       clipPathUnits="userSpaceOnUse"
       id="clipPath1214">
      <path
         inkscape:connector-curvature="0"
         d="M -2.332e-6,1.2207e-4 720,1.2207e-4 720,540.00012 l -720.000002332,0 0,-539.99999793 z"
         clip-rule="evenodd"
         id="path1216" />
    </clipPath>
    <clipPath
       clipPathUnits="userSpaceOnUse"
       id="clipPath1210">
      <path
         inkscape:connector-curvature="0"
         d="M 1.03e-6,1.8311e-4 720,1.8311e-4 720,540.00018 1.03e-6,540.00018 l 0,-539.99999689 z"
         clip-rule="evenodd"
         id="path1212" />
    </clipPath>
    <clipPath
       clipPathUnits="userSpaceOnUse"
       id="clipPath1206">
      <path
         inkscape:connector-curvature="0"
         d="M -1.84e-7,1.8311e-4 720,1.8311e-4 720,540.00018 -1.84e-7,540.00018 l 0,-539.99999689 z"
         clip-rule="evenodd"
         id="path1208" />
    </clipPath>
    <clipPath
       clipPathUnits="userSpaceOnUse"
       id="clipPath1386">
      <path
         inkscape:connector-curvature="0"
         d="M -2.329e-6,1.8311e-4 720,1.8311e-4 720,540.00018 l -720.000002329,0 0,-539.99999689 z"
         clip-rule="evenodd"
         id="path1388" />
    </clipPath>
    <clipPath
       clipPathUnits="userSpaceOnUse"
       id="clipPath1382">
      <path
         inkscape:connector-curvature="0"
         d="M 1.03e-6,1.8311e-4 720,1.8311e-4 720,540.00018 1.03e-6,540.00018 l 0,-539.99999689 z"
         clip-rule="evenodd"
         id="path1384" />
    </clipPath>
    <clipPath
       clipPathUnits="userSpaceOnUse"
       id="clipPath1378">
      <path
         inkscape:connector-curvature="0"
         d="M -1.84e-7,1.8311e-4 720,1.8311e-4 720,540.00018 -1.84e-7,540.00018 l 0,-539.99999689 z"
         clip-rule="evenodd"
         id="path1380" />
    </clipPath>
    <clipPath
       clipPathUnits="userSpaceOnUse"
       id="clipPath1758">
      <path
         inkscape:connector-curvature="0"
         d="m -5.996e-6,1.8311e-4 719.999995996,0 0,539.99999689 -719.999995996,0 0,-539.99999689 z"
         clip-rule="evenodd"
         id="path1760" />
    </clipPath>
    <clipPath
       clipPathUnits="userSpaceOnUse"
       id="clipPath1754">
      <path
         inkscape:connector-curvature="0"
         d="M 1.03e-6,1.8311e-4 720,1.8311e-4 720,540.00018 1.03e-6,540.00018 l 0,-539.99999689 z"
         clip-rule="evenodd"
         id="path1756" />
    </clipPath>
    <clipPath
       clipPathUnits="userSpaceOnUse"
       id="clipPath1750">
      <path
         inkscape:connector-curvature="0"
         d="m 0,1.8311e-4 720,0 0,539.99999689 -720,0 L 0,1.8311e-4 z"
         clip-rule="evenodd"
         id="path1752" />
    </clipPath>
    <clipPath
       clipPathUnits="userSpaceOnUse"
       id="clipPath1958">
      <path
         inkscape:connector-curvature="0"
         d="M -1.795e-6,1.8311e-4 720,1.8311e-4 720,540.00018 l -720.000001795,0 0,-539.99999689 z"
         clip-rule="evenodd"
         id="path1960" />
    </clipPath>
    <clipPath
       clipPathUnits="userSpaceOnUse"
       id="clipPath1954">
      <path
         inkscape:connector-curvature="0"
         d="M -6.68e-7,1.8311e-4 720,1.8311e-4 720,540.00018 -6.68e-7,540.00018 l 0,-539.99999689 z"
         clip-rule="evenodd"
         id="path1956" />
    </clipPath>
    <clipPath
       clipPathUnits="userSpaceOnUse"
       id="clipPath1950">
      <path
         inkscape:connector-curvature="0"
         d="m 0,1.8311e-4 720,0 0,539.99999689 -720,0 L 0,1.8311e-4 z"
         clip-rule="evenodd"
         id="path1952" />
    </clipPath>
    <clipPath
       clipPathUnits="userSpaceOnUse"
       id="clipPath2206">
      <path
         inkscape:connector-curvature="0"
         d="M -1.645e-6,2.4414e-4 720,2.4414e-4 720,540.00024 -1.645e-6,540.00024 l 0,-539.99999586 z"
         clip-rule="evenodd"
         id="path2208" />
    </clipPath>
    <clipPath
       clipPathUnits="userSpaceOnUse"
       id="clipPath2210">
      <path
         inkscape:connector-curvature="0"
         d="m 0,0 352.7,0 0,273.15 L 0,273.15 0,0 z"
         id="path2212" />
    </clipPath>
    <clipPath
       clipPathUnits="userSpaceOnUse"
       id="clipPath2202">
      <path
         inkscape:connector-curvature="0"
         d="M -1.795e-6,1.8311e-4 720,1.8311e-4 720,540.00018 l -720.000001795,0 0,-539.99999689 z"
         clip-rule="evenodd"
         id="path2204" />
    </clipPath>
    <clipPath
       clipPathUnits="userSpaceOnUse"
       id="clipPath2198">
      <path
         inkscape:connector-curvature="0"
         d="M -6.68e-7,1.8311e-4 720,1.8311e-4 720,540.00018 -6.68e-7,540.00018 l 0,-539.99999689 z"
         clip-rule="evenodd"
         id="path2200" />
    </clipPath>
    <clipPath
       clipPathUnits="userSpaceOnUse"
       id="clipPath2194">
      <path
         inkscape:connector-curvature="0"
         d="m 0,1.8311e-4 720,0 0,539.99999689 -720,0 L 0,1.8311e-4 z"
         clip-rule="evenodd"
         id="path2196" />
    </clipPath>
    <clipPath
       clipPathUnits="userSpaceOnUse"
       id="clipPath2610">
      <path
         inkscape:connector-curvature="0"
         d="M -1.795e-6,1.8311e-4 720,1.8311e-4 720,540.00018 l -720.000001795,0 0,-539.99999689 z"
         clip-rule="evenodd"
         id="path2612" />
    </clipPath>
    <clipPath
       clipPathUnits="userSpaceOnUse"
       id="clipPath2606">
      <path
         inkscape:connector-curvature="0"
         d="M -6.68e-7,1.8311e-4 720,1.8311e-4 720,540.00018 -6.68e-7,540.00018 l 0,-539.99999689 z"
         clip-rule="evenodd"
         id="path2608" />
    </clipPath>
    <clipPath
       clipPathUnits="userSpaceOnUse"
       id="clipPath2602">
      <path
         inkscape:connector-curvature="0"
         d="m 0,1.8311e-4 720,0 0,539.99999689 -720,0 L 0,1.8311e-4 z"
         clip-rule="evenodd"
         id="path2604" />
    </clipPath>
    <clipPath
       clipPathUnits="userSpaceOnUse"
       id="clipPath2854">
      <path
         inkscape:connector-curvature="0"
         d="M -1.645e-6,2.4414e-4 720,2.4414e-4 720,540.00024 -1.645e-6,540.00024 l 0,-539.99999586 z"
         clip-rule="evenodd"
         id="path2856" />
    </clipPath>
    <clipPath
       clipPathUnits="userSpaceOnUse"
       id="clipPath2858">
      <path
         inkscape:connector-curvature="0"
         d="m 0,0 352.7,0 0,273.15 L 0,273.15 0,0 z"
         id="path2860" />
    </clipPath>
    <clipPath
       clipPathUnits="userSpaceOnUse"
       id="clipPath2850">
      <path
         inkscape:connector-curvature="0"
         d="M -1.795e-6,1.8311e-4 720,1.8311e-4 720,540.00018 l -720.000001795,0 0,-539.99999689 z"
         clip-rule="evenodd"
         id="path2852" />
    </clipPath>
    <clipPath
       clipPathUnits="userSpaceOnUse"
       id="clipPath2846">
      <path
         inkscape:connector-curvature="0"
         d="M -6.68e-7,1.8311e-4 720,1.8311e-4 720,540.00018 -6.68e-7,540.00018 l 0,-539.99999689 z"
         clip-rule="evenodd"
         id="path2848" />
    </clipPath>
    <clipPath
       clipPathUnits="userSpaceOnUse"
       id="clipPath2842">
      <path
         inkscape:connector-curvature="0"
         d="m 0,1.8311e-4 720,0 0,539.99999689 -720,0 L 0,1.8311e-4 z"
         clip-rule="evenodd"
         id="path2844" />
    </clipPath>
    <clipPath
       clipPathUnits="userSpaceOnUse"
       id="clipPath3234">
      <path
         inkscape:connector-curvature="0"
         d="M -4.492e-6,1.8311e-4 720,1.8311e-4 720,540.00018 l -720.000004492,0 0,-539.99999689 z"
         clip-rule="evenodd"
         id="path3236" />
    </clipPath>
    <clipPath
       clipPathUnits="userSpaceOnUse"
       id="clipPath3230">
      <path
         inkscape:connector-curvature="0"
         d="M -1.43e-7,1.8311e-4 720,1.8311e-4 720,540.00018 -1.43e-7,540.00018 l 0,-539.99999689 z"
         clip-rule="evenodd"
         id="path3232" />
    </clipPath>
    <clipPath
       clipPathUnits="userSpaceOnUse"
       id="clipPath3480">
      <path
         inkscape:connector-curvature="0"
         d="M -1.712e-6,1.8311e-4 720,1.8311e-4 720,540.00018 -1.712e-6,540.00018 l 0,-539.99999689 z"
         clip-rule="evenodd"
         id="path3482" />
    </clipPath>
    <clipPath
       clipPathUnits="userSpaceOnUse"
       id="clipPath3476">
      <path
         inkscape:connector-curvature="0"
         d="M -3.97e-7,1.8311e-4 720,1.8311e-4 720,540.00018 l -720.000000397,0 0,-539.99999689 z"
         clip-rule="evenodd"
         id="path3478" />
    </clipPath>
    <clipPath
       clipPathUnits="userSpaceOnUse"
       id="clipPath3720">
      <path
         inkscape:connector-curvature="0"
         d="M -1.866e-6,1.8311e-4 720,1.8311e-4 720,540.00018 l -720.000001866,0 0,-539.99999689 z"
         clip-rule="evenodd"
         id="path3722" />
    </clipPath>
    <clipPath
       clipPathUnits="userSpaceOnUse"
       id="clipPath3716">
      <path
         inkscape:connector-curvature="0"
         d="M -3.27e-7,1.8311e-4 720,1.8311e-4 720,540.00018 -3.27e-7,540.00018 l 0,-539.99999689 z"
         clip-rule="evenodd"
         id="path3718" />
    </clipPath>
    <clipPath
       clipPathUnits="userSpaceOnUse"
       id="clipPath3712">
      <path
         inkscape:connector-curvature="0"
         d="M 3.635e-6,1.8311e-4 720,1.8311e-4 720,540.00018 l -719.999996365,0 0,-539.99999689 z"
         clip-rule="evenodd"
         id="path3714" />
    </clipPath>
    <clipPath
       clipPathUnits="userSpaceOnUse"
       id="clipPath4024">
      <path
         inkscape:connector-curvature="0"
         d="M -3.27e-7,1.8311e-4 720,1.8311e-4 720,540.00018 -3.27e-7,540.00018 l 0,-539.99999689 z"
         clip-rule="evenodd"
         id="path4026" />
    </clipPath>
    <clipPath
       clipPathUnits="userSpaceOnUse"
       id="clipPath4020">
      <path
         inkscape:connector-curvature="0"
         d="M 5.61e-7,1.8311e-4 720,1.8311e-4 720,540.00018 5.61e-7,540.00018 l 0,-539.99999689 z"
         clip-rule="evenodd"
         id="path4022" />
    </clipPath>
    <clipPath
       clipPathUnits="userSpaceOnUse"
       id="clipPath4016">
      <path
         inkscape:connector-curvature="0"
         d="M 5.39e-7,2.4414e-4 720,2.4414e-4 720,540.00024 5.39e-7,540.00024 l 0,-539.99999586 z"
         clip-rule="evenodd"
         id="path4018" />
    </clipPath>
    <clipPath
       clipPathUnits="userSpaceOnUse"
       id="clipPath4172">
      <path
         inkscape:connector-curvature="0"
         d="M -8.71e-7,0 720,0 720,540 -8.71e-7,540 l 0,-540 z"
         clip-rule="evenodd"
         id="path4174" />
    </clipPath>
    <clipPath
       clipPathUnits="userSpaceOnUse"
       id="clipPath4176">
      <path
         inkscape:connector-curvature="0"
         d="m 0,0 361.12,0 0,186.9 L 0,186.9 0,0 z"
         id="path4178" />
    </clipPath>
    <clipPath
       clipPathUnits="userSpaceOnUse"
       id="clipPath4992">
      <path
         inkscape:connector-curvature="0"
         d="M -2.38e-7,1.8311e-4 720,1.8311e-4 720,540.00018 -2.38e-7,540.00018 l 0,-539.99999689 z"
         clip-rule="evenodd"
         id="path4994" />
    </clipPath>
    <clipPath
       clipPathUnits="userSpaceOnUse"
       id="clipPath4996">
      <path
         inkscape:connector-curvature="0"
         d="m 0,0 223.12,0 0,273.15 L 0,273.15 0,0 z"
         id="path4998" />
    </clipPath>
    <clipPath
       clipPathUnits="userSpaceOnUse"
       id="clipPath4984">
      <path
         inkscape:connector-curvature="0"
         d="M -1.773e-6,6.104e-6 720,6.104e-6 720,540.00001 -1.773e-6,540.00001 -1.773e-6,6.104e-6 z"
         clip-rule="evenodd"
         id="path4986" />
    </clipPath>
    <clipPath
       clipPathUnits="userSpaceOnUse"
       id="clipPath4988">
      <path
         inkscape:connector-curvature="0"
         d="m 0,0 361.12,0 0,186.9 L 0,186.9 0,0 z"
         id="path4990" />
    </clipPath>
    <clipPath
       clipPathUnits="userSpaceOnUse"
       id="clipPath5008">
      <path
         inkscape:connector-curvature="0"
         d="m 5.981e-6,6.104e-6 720.000004019,0 0,540.0000038959999 -720.000004019,0 L 5.981e-6,6.104e-6 z"
         clip-rule="evenodd"
         id="path5010" />
    </clipPath>
    <clipPath
       clipPathUnits="userSpaceOnUse"
       id="clipPath5012">
      <path
         inkscape:connector-curvature="0"
         d="m 0,0 361.12,0 0,186.9 L 0,186.9 0,0 z"
         id="path5014" />
    </clipPath>
    <clipPath
       clipPathUnits="userSpaceOnUse"
       id="clipPath5000">
      <path
         inkscape:connector-curvature="0"
         d="M -7.29e-7,2.4414e-4 720,2.4414e-4 720,540.00024 -7.29e-7,540.00024 l 0,-539.99999586 z"
         clip-rule="evenodd"
         id="path5002" />
    </clipPath>
    <clipPath
       clipPathUnits="userSpaceOnUse"
       id="clipPath5004">
      <path
         inkscape:connector-curvature="0"
         d="m 0,0 223.12,0 0,273.15 L 0,273.15 0,0 z"
         id="path5006" />
    </clipPath>
    <clipPath
       clipPathUnits="userSpaceOnUse"
       id="clipPath6288">
      <path
         inkscape:connector-curvature="0"
         d="M 2.671e-6,1.2207e-4 720,1.2207e-4 720,540.00012 l -719.999997329,0 0,-539.99999793 z"
         clip-rule="evenodd"
         id="path6290" />
    </clipPath>
    <clipPath
       clipPathUnits="userSpaceOnUse"
       id="clipPath6292">
      <path
         inkscape:connector-curvature="0"
         d="m 0,0 361.12,0 0,186.9 L 0,186.9 0,0 z"
         id="path6294" />
    </clipPath>
    <clipPath
       clipPathUnits="userSpaceOnUse"
       id="clipPath6280">
      <path
         inkscape:connector-curvature="0"
         d="M -1.747e-6,1.8311e-4 720,1.8311e-4 720,540.00018 l -720.000001747,0 0,-539.99999689 z"
         clip-rule="evenodd"
         id="path6282" />
    </clipPath>
    <clipPath
       clipPathUnits="userSpaceOnUse"
       id="clipPath6284">
      <path
         inkscape:connector-curvature="0"
         d="m 0,0 202.56,0 0,273.15 L 0,273.15 0,0 z"
         id="path6286" />
    </clipPath>
    <clipPath
       clipPathUnits="userSpaceOnUse"
       id="clipPath6272">
      <path
         inkscape:connector-curvature="0"
         d="m 5.583e-6,6.104e-6 720.000004417,0 0,540.0000038959999 -720.000004417,0 L 5.583e-6,6.104e-6 z"
         clip-rule="evenodd"
         id="path6274" />
    </clipPath>
    <clipPath
       clipPathUnits="userSpaceOnUse"
       id="clipPath6276">
      <path
         inkscape:connector-curvature="0"
         d="m 0,0 361.12,0 0,186.9 L 0,186.9 0,0 z"
         id="path6278" />
    </clipPath>
    <clipPath
       clipPathUnits="userSpaceOnUse"
       id="clipPath6264">
      <path
         inkscape:connector-curvature="0"
         d="M 7.2e-8,6.104e-6 720,6.104e-6 720,540.00001 7.2e-8,540.00001 7.2e-8,6.104e-6 z"
         clip-rule="evenodd"
         id="path6266" />
    </clipPath>
    <clipPath
       clipPathUnits="userSpaceOnUse"
       id="clipPath6268">
      <path
         inkscape:connector-curvature="0"
         d="m 0,0 361.12,0 0,186.9 L 0,186.9 0,0 z"
         id="path6270" />
    </clipPath>
    <clipPath
       clipPathUnits="userSpaceOnUse"
       id="clipPath6260">
      <path
         inkscape:connector-curvature="0"
         d="M -9.93e-7,2.4414e-4 720,2.4414e-4 720,540.00024 -9.93e-7,540.00024 l 0,-539.99999586 z"
         clip-rule="evenodd"
         id="path6262" />
    </clipPath>
    <clipPath
       clipPathUnits="userSpaceOnUse"
       id="clipPath6252">
      <path
         inkscape:connector-curvature="0"
         d="M -1.959e-6,2.4414e-4 720,2.4414e-4 720,540.00024 -1.959e-6,540.00024 l 0,-539.99999586 z"
         clip-rule="evenodd"
         id="path6254" />
    </clipPath>
    <clipPath
       clipPathUnits="userSpaceOnUse"
       id="clipPath6256">
      <path
         inkscape:connector-curvature="0"
         d="m 0,0 143.34,0 0,113.71 L 0,113.71 0,0 z"
         id="path6258" />
    </clipPath>
    <clipPath
       clipPathUnits="userSpaceOnUse"
       id="clipPath7010">
      <path
         inkscape:connector-curvature="0"
         d="m 0,0 361.12,0 0,186.9 L 0,186.9 0,0 z"
         id="path7012" />
    </clipPath>
    <clipPath
       clipPathUnits="userSpaceOnUse"
       id="clipPath7002">
      <path
         inkscape:connector-curvature="0"
         d="m 0,0 361.12,0 0,186.9 L 0,186.9 0,0 z"
         id="path7004" />
    </clipPath>
    <clipPath
       clipPathUnits="userSpaceOnUse"
       id="clipPath6994">
      <path
         inkscape:connector-curvature="0"
         d="m 0,0 223.12,0 0,273.15 L 0,273.15 0,0 z"
         id="path6996" />
    </clipPath>
    <clipPath
       clipPathUnits="userSpaceOnUse"
       id="clipPath6982">
      <path
         inkscape:connector-curvature="0"
         d="m 0,0 361.12,0 0,186.9 L 0,186.9 0,0 z"
         id="path6984" />
    </clipPath>
    <clipPath
       clipPathUnits="userSpaceOnUse"
       id="clipPath6974">
      <path
         inkscape:connector-curvature="0"
         d="m 0,0 223.12,0 0,273.15 L 0,273.15 0,0 z"
         id="path6976" />
    </clipPath>
    <clipPath
       clipPathUnits="userSpaceOnUse"
       id="clipPath6966">
      <path
         inkscape:connector-curvature="0"
         d="m 0,0 361.12,0 0,186.9 L 0,186.9 0,0 z"
         id="path6968" />
    </clipPath>
    <clipPath
       clipPathUnits="userSpaceOnUse"
       id="clipPath7954">
      <path
         inkscape:connector-curvature="0"
         d="m 0,0 361.12,0 0,186.9 L 0,186.9 0,0 z"
         id="path7956" />
    </clipPath>
    <clipPath
       clipPathUnits="userSpaceOnUse"
       id="clipPath7942">
      <path
         inkscape:connector-curvature="0"
         d="m 0,0 223.12,0 0,273.15 L 0,273.15 0,0 z"
         id="path7944" />
    </clipPath>
    <clipPath
       clipPathUnits="userSpaceOnUse"
       id="clipPath7930">
      <path
         inkscape:connector-curvature="0"
         d="m 0,0 361.12,0 0,186.9 L 0,186.9 0,0 z"
         id="path7932" />
    </clipPath>
    <clipPath
       clipPathUnits="userSpaceOnUse"
       id="clipPath7922">
      <path
         inkscape:connector-curvature="0"
         d="m 0,0 223.12,0 0,273.15 L 0,273.15 0,0 z"
         id="path7924" />
    </clipPath>
    <clipPath
       clipPathUnits="userSpaceOnUse"
       id="clipPath9450">
      <path
         inkscape:connector-curvature="0"
         d="m 0,0 361.12,0 0,186.9 L 0,186.9 0,0 z"
         id="path9452" />
    </clipPath>
    <clipPath
       clipPathUnits="userSpaceOnUse"
       id="clipPath9442">
      <path
         inkscape:connector-curvature="0"
         d="m 0,0 361.12,0 0,186.9 L 0,186.9 0,0 z"
         id="path9444" />
    </clipPath>
    <clipPath
       clipPathUnits="userSpaceOnUse"
       id="clipPath9434">
      <path
         inkscape:connector-curvature="0"
         d="m 0,0 223.12,0 0,273.15 L 0,273.15 0,0 z"
         id="path9436" />
    </clipPath>
    <clipPath
       clipPathUnits="userSpaceOnUse"
       id="clipPath9426">
      <path
         inkscape:connector-curvature="0"
         d="m 0,0 361.12,0 0,186.9 L 0,186.9 0,0 z"
         id="path9428" />
    </clipPath>
    <clipPath
       clipPathUnits="userSpaceOnUse"
       id="clipPath9414">
      <path
         inkscape:connector-curvature="0"
         d="m 0,0 361.12,0 0,186.9 L 0,186.9 0,0 z"
         id="path9416" />
    </clipPath>
    <clipPath
       clipPathUnits="userSpaceOnUse"
       id="clipPath10078">
      <path
         inkscape:connector-curvature="0"
         d="M -5.78e-7,540 720,540 720,1.2207e-4 -2.806e-6,1.2207e-4"
         clip-rule="evenodd"
         id="path10080" />
    </clipPath>
    <clipPath
       clipPathUnits="userSpaceOnUse"
       id="clipPath10074">
      <path
         inkscape:connector-curvature="0"
         d="M -5.78e-7,540 720,540 720,1.2207e-4 -2.806e-6,1.2207e-4"
         clip-rule="evenodd"
         id="path10076" />
    </clipPath>
    <clipPath
       clipPathUnits="userSpaceOnUse"
       id="clipPath10070">
      <path
         inkscape:connector-curvature="0"
         d="M -5.78e-7,540 720,540 720,1.2207e-4 -2.806e-6,1.2207e-4"
         clip-rule="evenodd"
         id="path10072" />
    </clipPath>
    <clipPath
       clipPathUnits="userSpaceOnUse"
       id="clipPath10066">
      <path
         inkscape:connector-curvature="0"
         d="M -5.78e-7,540 720,540 720,1.2207e-4 -2.806e-6,1.2207e-4"
         clip-rule="evenodd"
         id="path10068" />
    </clipPath>
    <clipPath
       clipPathUnits="userSpaceOnUse"
       id="clipPath10062">
      <path
         inkscape:connector-curvature="0"
         d="M -1.046e-6,540 720,540 720,6.104e-6 l -720.000002643,0"
         clip-rule="evenodd"
         id="path10064" />
    </clipPath>
    <clipPath
       clipPathUnits="userSpaceOnUse"
       id="clipPath10058">
      <path
         inkscape:connector-curvature="0"
         d="M -3.919e-6,1.8311e-4 720,1.8311e-4 720,540.00018 l -720.000003919,0 0,-539.99999689 z"
         clip-rule="evenodd"
         id="path10060" />
    </clipPath>
    <clipPath
       clipPathUnits="userSpaceOnUse"
       id="clipPath10054">
      <path
         inkscape:connector-curvature="0"
         d="M -1.27e-7,1.8311e-4 720,1.8311e-4 720,540.00018 -1.27e-7,540.00018 l 0,-539.99999689 z"
         clip-rule="evenodd"
         id="path10056" />
    </clipPath>
    <clipPath
       clipPathUnits="userSpaceOnUse"
       id="clipPath10050">
      <path
         inkscape:connector-curvature="0"
         d="M -7.55e-7,540 720,540 720,1.2207e-4 -3.756e-6,1.2207e-4"
         clip-rule="evenodd"
         id="path10052" />
    </clipPath>
    <clipPath
       clipPathUnits="userSpaceOnUse"
       id="clipPath10628">
      <path
         inkscape:connector-curvature="0"
         d="M -3.941e-6,1.8311e-4 720,1.8311e-4 720,540.00018 l -720.000003941,0 0,-539.99999689 z"
         clip-rule="evenodd"
         id="path10630" />
    </clipPath>
    <clipPath
       clipPathUnits="userSpaceOnUse"
       id="clipPath10624">
      <path
         inkscape:connector-curvature="0"
         d="M -5.21e-7,1.8311e-4 720,1.8311e-4 720,540.00018 -5.21e-7,540.00018 l 0,-539.99999689 z"
         clip-rule="evenodd"
         id="path10626" />
    </clipPath>
    <clipPath
       clipPathUnits="userSpaceOnUse"
       id="clipPath10620">
      <path
         inkscape:connector-curvature="0"
         d="M -2.256e-6,540 720,540 720,6.104e-6 -4.141e-6,6.104e-6"
         clip-rule="evenodd"
         id="path10622" />
    </clipPath>
    <clipPath
       clipPathUnits="userSpaceOnUse"
       id="clipPath10616">
      <path
         inkscape:connector-curvature="0"
         d="M 2.21e-7,540 720,540 720,1.2207e-4 -1.445e-6,1.2207e-4"
         clip-rule="evenodd"
         id="path10618" />
    </clipPath>
    <clipPath
       clipPathUnits="userSpaceOnUse"
       id="clipPath10612">
      <path
         inkscape:connector-curvature="0"
         d="M 1.542e-6,540 720,540 720,6.104e-6 -1.23e-7,6.104e-6"
         clip-rule="evenodd"
         id="path10614" />
    </clipPath>
    <clipPath
       clipPathUnits="userSpaceOnUse"
       id="clipPath10608">
      <path
         inkscape:connector-curvature="0"
         d="M -5.69e-7,540 720,540 720,1.2207e-4 -2.083e-6,6.104e-6"
         clip-rule="evenodd"
         id="path10610" />
    </clipPath>
    <clipPath
       clipPathUnits="userSpaceOnUse"
       id="clipPath10604">
      <path
         inkscape:connector-curvature="0"
         d="M -4.59e-7,540 720,540 720,1.2207e-4 -6.62e-7,1.2207e-4"
         clip-rule="evenodd"
         id="path10606" />
    </clipPath>
    <clipPath
       clipPathUnits="userSpaceOnUse"
       id="clipPath10600">
      <path
         inkscape:connector-curvature="0"
         d="M -6.79e-7,540 720,540 720,6.104e-6 -8.01e-7,1.2207e-4"
         clip-rule="evenodd"
         id="path10602" />
    </clipPath>
    <clipPath
       clipPathUnits="userSpaceOnUse"
       id="clipPath10596">
      <path
         inkscape:connector-curvature="0"
         d="M -1.963e-6,540 720,540 720,6.104e-6 -2.443e-6,6.104e-6"
         clip-rule="evenodd"
         id="path10598" />
    </clipPath>
    <clipPath
       clipPathUnits="userSpaceOnUse"
       id="clipPath10592">
      <path
         inkscape:connector-curvature="0"
         d="M -1.963e-6,540 720,540 720,6.104e-6 -2.443e-6,6.104e-6"
         clip-rule="evenodd"
         id="path10594" />
    </clipPath>
    <clipPath
       clipPathUnits="userSpaceOnUse"
       id="clipPath10588">
      <path
         inkscape:connector-curvature="0"
         d="M -1.963e-6,540 720,540 720,6.104e-6 -2.443e-6,6.104e-6"
         clip-rule="evenodd"
         id="path10590" />
    </clipPath>
    <clipPath
       clipPathUnits="userSpaceOnUse"
       id="clipPath10584">
      <path
         inkscape:connector-curvature="0"
         d="M -1.963e-6,540 720,540 720,6.104e-6 -2.443e-6,6.104e-6"
         clip-rule="evenodd"
         id="path10586" />
    </clipPath>
    <clipPath
       clipPathUnits="userSpaceOnUse"
       id="clipPath10580">
      <path
         inkscape:connector-curvature="0"
         d="M 6.3e-8,540 720,540 720,1.2207e-4 -8.42e-7,1.2207e-4"
         clip-rule="evenodd"
         id="path10582" />
    </clipPath>
    <clipPath
       clipPathUnits="userSpaceOnUse"
       id="clipPath10576">
      <path
         inkscape:connector-curvature="0"
         d="M -1.657e-6,540 720,540 720,1.2207e-4 -3.843e-6,1.2207e-4"
         clip-rule="evenodd"
         id="path10578" />
    </clipPath>
  </defs>
  <sodipodi:namedview
     id="base"
     pagecolor="#ffffff"
     bordercolor="#666666"
     borderopacity="1.0"
     inkscape:pageopacity="0.0"
     inkscape:pageshadow="2"
     inkscape:zoom="7.9195959"
     inkscape:cx="57.020375"
     inkscape:cy="28.082549"
     inkscape:document-units="px"
     inkscape:current-layer="layer1"
     showgrid="false"
     fit-margin-top="0"
     fit-margin-left="0"
     fit-margin-right="0"
     fit-margin-bottom="0"
     inkscape:window-width="1615"
     inkscape:window-height="1026"
     inkscape:window-x="65"
     inkscape:window-y="24"
     inkscape:window-maximized="1" />
  <metadata
     id="metadata36375">
    <rdf:RDF>
      <cc:Work
         rdf:about="">
        <dc:format>image/svg+xml</dc:format>
        <dc:type
           rdf:resource="http://purl.org/dc/dcmitype/StillImage" />
        <dc:title></dc:title>
      </cc:Work>
    </rdf:RDF>
  </metadata>
  <g
     inkscape:label="Layer 1"
     inkscape:groupmode="layer"
     id="layer1"
     transform="translate(-223.5,-530.71875)">
    <path
       d="m 252.50422,540.069 51.67125,0 0,-9.30082 -51.67125,0 0,9.30082 z"
       style="fill:#ffff99;fill-opacity:1;fill-rule:evenodd;stroke:none"
       id="path10854"
       inkscape:connector-curvature="0" />
    <path
       d="m 252.50422,540.069 51.67125,0 0,-9.30082 -51.67125,0 0,9.30082 z"
       style="fill:none;stroke:#000000;stroke-width:0.12917814;stroke-linecap:butt;stroke-linejoin:miter;stroke-miterlimit:10;stroke-opacity:1;stroke-dasharray:none"
       id="path10856"
       inkscape:connector-curvature="0" />
    <text
       id="text10858"
       x="274.98813"
       y="536.70349"
       style="font-size:2.06685019px">
      <tspan
         style="font-size:3.45163965px;font-variant:normal;font-weight:normal;writing-mode:lr-tb;fill:#000000;fill-opacity:1;fill-rule:nonzero;stroke:none;font-family:Arial Black;-inkscape-font-specification:Arial"
         x="274.98813 276.90723 278.82635 279.78592"
         y="536.70349"
         sodipodi:role="line"
         id="tspan10860">data</tspan>
    </text>
    <path
       d="m 233.90257,562.80435 26.86905,0 0,-9.30082 -26.86905,0 0,9.30082 z"
       style="fill:#ffff99;fill-opacity:1;fill-rule:evenodd;stroke:none"
       id="path10862"
       inkscape:connector-curvature="0" />
    <path
       d="m 233.90257,562.80435 26.86905,0 0,-9.30082 -26.86905,0 0,9.30082 z"
       style="fill:none;stroke:#000000;stroke-width:0.12917814;stroke-linecap:butt;stroke-linejoin:miter;stroke-miterlimit:10;stroke-opacity:1;stroke-dasharray:none"
       id="path10864"
       inkscape:connector-curvature="0" />
    <text
       id="text10866"
       x="243.52548"
       y="557.37714"
       style="font-size:2.06685019px">
      <tspan
         style="font-size:3.45163965px;font-variant:normal;font-weight:normal;writing-mode:lr-tb;fill:#000000;fill-opacity:1;fill-rule:nonzero;stroke:none;font-family:Arial Black;-inkscape-font-specification:Arial"
         x="243.52548 245.44458 247.36371 248.32326 250.24236"
         y="557.37714"
         sodipodi:role="line"
         id="tspan10868">data</tspan>
    </text>
    <text
       id="text10870"
       x="240.52853"
       y="561.51086"
       style="font-size:2.06685019px">
      <tspan
         style="font-size:3.45163965px;font-variant:normal;font-weight:normal;writing-mode:lr-tb;fill:#000000;fill-opacity:1;fill-rule:nonzero;stroke:none;font-family:Arial Black;-inkscape-font-specification:Arial"
         x="240.52853 241.48808 242.6375 244.55659 246.47572 249.35094 251.27003 253.18913"
         y="561.51086"
         sodipodi:role="line"
         id="tspan10872">fragment</tspan>
    </text>
    <path
       d="m 285.57382,562.80435 26.86905,0 0,-9.30082 -26.86905,0 0,9.30082 z"
       style="fill:#ffff99;fill-opacity:1;fill-rule:evenodd;stroke:none"
       id="path10874"
       inkscape:connector-curvature="0" />
    <path
       d="m 285.57382,562.80435 26.86905,0 0,-9.30082 -26.86905,0 0,9.30082 z"
       style="fill:none;stroke:#000000;stroke-width:0.12917814;stroke-linecap:butt;stroke-linejoin:miter;stroke-miterlimit:10;stroke-opacity:1;stroke-dasharray:none"
       id="path10876"
       inkscape:connector-curvature="0" />
    <text
       id="text10878"
       x="295.20538"
       y="557.37714"
       style="font-size:2.06685019px">
      <tspan
         style="font-size:3.45163965px;font-variant:normal;font-weight:normal;writing-mode:lr-tb;fill:#000000;fill-opacity:1;fill-rule:nonzero;stroke:none;font-family:Arial Black;-inkscape-font-specification:Arial"
         x="295.20538 297.12448 299.04358 300.00311 301.92224"
         y="557.37714"
         sodipodi:role="line"
         id="tspan10880">data</tspan>
    </text>
    <text
       id="text10882"
       x="292.20844"
       y="561.51086"
       style="font-size:2.06685019px">
      <tspan
         style="font-size:3.45163965px;font-variant:normal;font-weight:normal;writing-mode:lr-tb;fill:#000000;fill-opacity:1;fill-rule:nonzero;stroke:none;font-family:Arial Black;-inkscape-font-specification:Arial"
         x="292.20844 293.16797 294.31738 296.23648 298.15558 301.03079 302.94992 304.86902"
         y="561.51086"
         sodipodi:role="line"
         id="tspan10884">fragment</tspan>
    </text>
    <path
       d="m 260.77162,562.80435 10.33425,0 0,-9.30082 -10.33425,0 0,9.30082 z"
       style="fill:#ffccff;fill-opacity:1;fill-rule:evenodd;stroke:none"
       id="path10886"
       inkscape:connector-curvature="0" />
    <path
       d="m 260.77162,562.80435 10.33425,0 0,-9.30082 -10.33425,0 0,9.30082 z"
       style="fill:none;stroke:#000000;stroke-width:0.12917814;stroke-linecap:butt;stroke-linejoin:miter;stroke-miterlimit:10;stroke-opacity:1;stroke-dasharray:none"
       id="path10888"
       inkscape:connector-curvature="0" />
    <text
       id="text10890"
       x="262.11166"
       y="559.44397"
       style="font-size:2.06685019px">
      <tspan
         style="font-size:3.45163965px;font-variant:normal;font-weight:normal;writing-mode:lr-tb;fill:#000000;fill-opacity:1;fill-rule:nonzero;stroke:none;font-family:Arial Black;-inkscape-font-specification:Arial"
         x="262.11166 264.98688 267.28912"
         y="559.44397"
         sodipodi:role="line"
         id="tspan10892">MAC</tspan>
    </text>
    <path
       d="m 312.44287,562.80435 10.33425,0 0,-9.30082 -10.33425,0 0,9.30082 z"
       style="fill:#ffccff;fill-opacity:1;fill-rule:evenodd;stroke:none"
       id="path10894"
       inkscape:connector-curvature="0" />
    <path
       d="m 312.44287,562.80435 10.33425,0 0,-9.30082 -10.33425,0 0,9.30082 z"
       style="fill:none;stroke:#000000;stroke-width:0.12917814;stroke-linecap:butt;stroke-linejoin:miter;stroke-miterlimit:10;stroke-opacity:1;stroke-dasharray:none"
       id="path10896"
       inkscape:connector-curvature="0" />
    <text
       id="text10898"
       x="313.78976"
       y="559.44397"
       style="font-size:2.06685019px">
      <tspan
         style="font-size:3.45163965px;font-variant:normal;font-weight:normal;writing-mode:lr-tb;fill:#000000;fill-opacity:1;fill-rule:nonzero;stroke:none;font-family:Arial Black;-inkscape-font-specification:Arial"
         x="313.78976 316.66498 318.96722"
         y="559.44397"
         sodipodi:role="line"
         id="tspan10900">MAC</tspan>
    </text>
    <path
       d="m 233.90257,578.30573 37.2033,0 0,-9.30083 -37.2033,0 0,9.30083 z"
       style="fill:#ccffcc;fill-opacity:1;fill-rule:evenodd;stroke:none"
       id="path10902"
       inkscape:connector-curvature="0" />
    <path
       d="m 233.90257,578.30573 37.2033,0 0,-9.30083 -37.2033,0 0,9.30083 z"
       style="fill:none;stroke:#000000;stroke-width:0.12917814;stroke-linecap:butt;stroke-linejoin:miter;stroke-miterlimit:10;stroke-opacity:1;stroke-dasharray:none"
       id="path10904"
       inkscape:connector-curvature="0" />
    <text
       id="text10906"
       x="244.91025"
       y="572.88196"
       style="font-size:2.06685019px">
      <tspan
         style="font-size:3.45163965px;font-variant:normal;font-weight:normal;writing-mode:lr-tb;fill:#000000;fill-opacity:1;fill-rule:nonzero;stroke:none;font-family:Arial Black;-inkscape-font-specification:Arial"
         x="244.91025 246.82939 248.74849 250.4881 251.63751 253.36331 255.28246 256.242 258.1611"
         y="572.88196"
         sodipodi:role="line"
         id="tspan10908">encrypted</tspan>
    </text>
    <text
       id="text10910"
       x="241.49995"
       y="577.01569"
       style="font-size:2.06685019px">
      <tspan
         style="font-size:3.45163965px;font-variant:normal;font-weight:normal;writing-mode:lr-tb;fill:#000000;fill-opacity:1;fill-rule:nonzero;stroke:none;font-family:Arial Black;-inkscape-font-specification:Arial"
         x="241.49995 243.41908 245.33818 246.29773 248.21687 249.12808 251.04718 252.96632 254.88542 255.82425 258.69949 261.00174"
         y="577.01569"
         sodipodi:role="line"
         id="tspan10912">data and MAC</tspan>
    </text>
    <path
       d="m 285.57382,578.30573 37.2033,0 0,-9.30083 -37.2033,0 0,9.30083 z"
       style="fill:#ccffcc;fill-opacity:1;fill-rule:evenodd;stroke:none"
       id="path10914"
       inkscape:connector-curvature="0" />
    <path
       d="m 285.57382,578.30573 37.2033,0 0,-9.30083 -37.2033,0 0,9.30083 z"
       style="fill:none;stroke:#000000;stroke-width:0.12917814;stroke-linecap:butt;stroke-linejoin:miter;stroke-miterlimit:10;stroke-opacity:1;stroke-dasharray:none"
       id="path10916"
       inkscape:connector-curvature="0" />
    <text
       id="text10918"
       x="296.59015"
       y="572.88196"
       style="font-size:2.06685019px">
      <tspan
         style="font-size:3.45163965px;font-variant:normal;font-weight:normal;writing-mode:lr-tb;fill:#000000;fill-opacity:1;fill-rule:nonzero;stroke:none;font-family:Arial Black;-inkscape-font-specification:Arial"
         x="296.59015 298.50925 300.42838 302.168 303.31741 305.04321 306.96231 307.92191 309.841"
         y="572.88196"
         sodipodi:role="line"
         id="tspan10920">encrypted</tspan>
    </text>
    <text
       id="text10922"
       x="293.17984"
       y="577.01569"
       style="font-size:2.06685019px">
      <tspan
         style="font-size:3.45163965px;font-variant:normal;font-weight:normal;writing-mode:lr-tb;fill:#000000;fill-opacity:1;fill-rule:nonzero;stroke:none;font-family:Arial Black;-inkscape-font-specification:Arial"
         x="293.17984 295.09894 297.01807 297.97763 299.89673 300.80798 302.72708 304.64618 306.56531 307.50415 310.37936 312.68161"
         y="577.01569"
         sodipodi:role="line"
         id="tspan10924">data and MAC</tspan>
    </text>
    <path
       d="m 275.23957,578.30573 10.33425,0 0,-9.30083 -10.33425,0 0,9.30083 z"
       style="fill:#ccccff;fill-opacity:1;fill-rule:evenodd;stroke:none"
       id="path10926"
       inkscape:connector-curvature="0" />
    <path
       d="m 275.23957,578.30573 10.33425,0 0,-9.30083 -10.33425,0 0,9.30083 z"
       style="fill:none;stroke:#000000;stroke-width:0.12917814;stroke-linecap:butt;stroke-linejoin:miter;stroke-miterlimit:10;stroke-opacity:1;stroke-dasharray:none"
       id="path10928"
       inkscape:connector-curvature="0" />
    <text
       id="text10930"
       x="276.51758"
       y="573.0473"
       style="font-size:2.06685019px">
      <tspan
         style="font-size:2.74891043px;font-variant:normal;font-weight:normal;writing-mode:lr-tb;fill:#000000;fill-opacity:1;fill-rule:nonzero;stroke:none;font-family:Arial Black;-inkscape-font-specification:Arial"
         x="276.51758 277.43295 278.96136 280.33585 281.8642 282.7796"
         y="573.0473"
         sodipodi:role="line"
         id="tspan10932">record</tspan>
    </text>
    <text
       id="text10934"
       x="276.14554"
       y="576.35425"
       style="font-size:2.06685019px">
      <tspan
         style="font-size:2.74891043px;font-variant:normal;font-weight:normal;writing-mode:lr-tb;fill:#000000;fill-opacity:1;fill-rule:nonzero;stroke:none;font-family:Arial Black;-inkscape-font-specification:Arial"
         x="276.14554 277.67502 279.2045 280.73398 282.26343 283.79291"
         y="576.35425"
         sodipodi:role="line"
         id="tspan10936">header</tspan>
    </text>
    <path
       d="m 223.56832,578.30573 10.33425,0 0,-9.30083 -10.33425,0 0,9.30083 z"
       style="fill:#ccccff;fill-opacity:1;fill-rule:evenodd;stroke:none"
       id="path10938"
       inkscape:connector-curvature="0" />
    <path
       d="m 223.56832,578.30573 10.33425,0 0,-9.30083 -10.33425,0 0,9.30083 z"
       style="fill:none;stroke:#000000;stroke-width:0.12917814;stroke-linecap:butt;stroke-linejoin:miter;stroke-miterlimit:10;stroke-opacity:1;stroke-dasharray:none"
       id="path10940"
       inkscape:connector-curvature="0" />
    <text
       id="text10942"
       x="224.83736"
       y="573.0473"
       style="font-size:2.06685019px">
      <tspan
         style="font-size:2.74891043px;font-variant:normal;font-weight:normal;writing-mode:lr-tb;fill:#000000;fill-opacity:1;fill-rule:nonzero;stroke:none;font-family:Arial Black;-inkscape-font-specification:Arial"
         x="224.83736 225.75276 227.28116 228.65559 230.18399 231.09937"
         y="573.0473"
         sodipodi:role="line"
         id="tspan10944">record</tspan>
    </text>
    <text
       id="text10946"
       x="224.46535"
       y="576.35425"
       style="font-size:2.06685019px">
      <tspan
         style="font-size:2.74891043px;font-variant:normal;font-weight:normal;writing-mode:lr-tb;fill:#000000;fill-opacity:1;fill-rule:nonzero;stroke:none;font-family:Arial Black;-inkscape-font-specification:Arial"
         x="224.46535 225.99481 227.52428 229.05374 230.58321 232.11267"
         y="576.35425"
         sodipodi:role="line"
         id="tspan10948">header</tspan>
    </text>
    <g
       id="g10950"
       transform="matrix(0.1722375,0,0,-0.1722375,214.26749,607.24163)">
      <path
         d="m 114,258 0,-36"
         style="fill:none;stroke:#000000;stroke-width:0.75;stroke-linecap:butt;stroke-linejoin:round;stroke-miterlimit:10;stroke-opacity:1;stroke-dasharray:3, 2.25;stroke-dashoffset:0"
         id="path10952"
         inkscape:connector-curvature="0" />
    </g>
    <g
       id="g10954"
       transform="matrix(0.1722375,0,0,-0.1722375,214.26749,607.24163)">
      <path
         d="m 330,258 0,-36"
         style="fill:none;stroke:#000000;stroke-width:0.75;stroke-linecap:butt;stroke-linejoin:round;stroke-miterlimit:10;stroke-opacity:1;stroke-dasharray:3, 2.25;stroke-dashoffset:0"
         id="path10956"
         inkscape:connector-curvature="0" />
    </g>
    <g
       id="g10958"
       transform="matrix(0.1722375,0,0,-0.1722375,214.26749,607.24163)">
      <path
         d="m 414,258 0,-36"
         style="fill:none;stroke:#000000;stroke-width:0.75;stroke-linecap:butt;stroke-linejoin:round;stroke-miterlimit:10;stroke-opacity:1;stroke-dasharray:3, 2.25;stroke-dashoffset:0"
         id="path10960"
         inkscape:connector-curvature="0" />
    </g>
    <g
       id="g10962"
       transform="matrix(0.1722375,0,0,-0.1722375,214.26749,607.24163)">
      <path
         d="m 630,258 0,-36"
         style="fill:none;stroke:#000000;stroke-width:0.75;stroke-linecap:butt;stroke-linejoin:round;stroke-miterlimit:10;stroke-opacity:1;stroke-dasharray:3, 2.25;stroke-dashoffset:0"
         id="path10964"
         inkscape:connector-curvature="0" />
    </g>
    <g
       id="g10966"
       transform="matrix(0.1722375,0,0,-0.1722375,214.26749,607.24163)">
      <path
         d="M 222,390 114,312"
         style="fill:none;stroke:#000000;stroke-width:0.75;stroke-linecap:butt;stroke-linejoin:round;stroke-miterlimit:10;stroke-opacity:1;stroke-dasharray:3, 2.25;stroke-dashoffset:0"
         id="path10968"
         inkscape:connector-curvature="0" />
    </g>
    <g
       id="g10970"
       transform="matrix(0.1722375,0,0,-0.1722375,214.26749,607.24163)">
      <path
         d="M 390,390 270,312"
         style="fill:none;stroke:#000000;stroke-width:0.75;stroke-linecap:butt;stroke-linejoin:round;stroke-miterlimit:10;stroke-opacity:1;stroke-dasharray:3, 2.25;stroke-dashoffset:0"
         id="path10972"
         inkscape:connector-curvature="0" />
    </g>
    <g
       id="g10974"
       transform="matrix(0.1722375,0,0,-0.1722375,214.26749,607.24163)">
      <path
         d="m 390,390 24,-78"
         style="fill:none;stroke:#000000;stroke-width:0.75;stroke-linecap:butt;stroke-linejoin:round;stroke-miterlimit:10;stroke-opacity:1;stroke-dasharray:3, 2.25;stroke-dashoffset:0"
         id="path10976"
         inkscape:connector-curvature="0" />
    </g>
    <g
       id="g10978"
       transform="matrix(0.1722375,0,0,-0.1722375,214.26749,607.24163)">
      <path
         d="m 522,390 48,-78"
         style="fill:none;stroke:#000000;stroke-width:0.75;stroke-linecap:butt;stroke-linejoin:round;stroke-miterlimit:10;stroke-opacity:1;stroke-dasharray:3, 2.25;stroke-dashoffset:0"
         id="path10980"
         inkscape:connector-curvature="0" />
    </g>
  </g>
</svg>
