<!-- Created with Inkscape (http://www.inkscape.org/) -->
<svg id="svg3671" xmlns:rdf="http://www.w3.org/1999/02/22-rdf-syntax-ns#" xmlns="http://www.w3.org/2000/svg" height="173.94" width="650.63" version="1.1" xmlns:cc="http://creativecommons.org/ns#" xmlns:xlink="http://www.w3.org/1999/xlink" xmlns:dc="http://purl.org/dc/elements/1.1/">
<defs id="defs3673">
<clipPath id="clipPath57187" clipPathUnits="userSpaceOnUse">
<path id="path57189" clip-rule="evenodd" d="M0.000010729,0,720,0v540h-720v-540z"/>
</clipPath>
<clipPath id="clipPath57175" clipPathUnits="userSpaceOnUse">
<path id="path57177" clip-rule="evenodd" d="M0.000010729,0,720,0v540h-720v-540z"/>
</clipPath>
<clipPath id="clipPath57149" clipPathUnits="userSpaceOnUse">
<path id="path57151" clip-rule="evenodd" d="m-0.0001715,0.00024414,720,0,0,540-720,0,0-540z"/>
</clipPath>
<clipPath id="clipPath57159" clipPathUnits="userSpaceOnUse">
<path id="path57161" d="m0,0,53.941,0,0,37.952h-53.941v-37.952z"/>
</clipPath>
<clipPath id="clipPath57123" clipPathUnits="userSpaceOnUse">
<path id="path57125" clip-rule="evenodd" d="m-0.000089987,0.00018311,720,0,0,540-720,0,0-540z"/>
</clipPath>
<clipPath id="clipPath57133" clipPathUnits="userSpaceOnUse">
<path id="path57135" d="m0,0,53.941,0,0,37.952h-53.941v-37.952z"/>
</clipPath>
<clipPath id="clipPath57095" clipPathUnits="userSpaceOnUse">
<path id="path57097" clip-rule="evenodd" d="M0.000010729,0,720,0v540h-720v-540z"/>
</clipPath>
<clipPath id="clipPath57083" clipPathUnits="userSpaceOnUse">
<path id="path57085" clip-rule="evenodd" d="M0.000010729,0,720,0v540h-720v-540z"/>
</clipPath>
<clipPath id="clipPath57071" clipPathUnits="userSpaceOnUse">
<path id="path57073" clip-rule="evenodd" d="M0.000010729,0,720,0v540h-720v-540z"/>
</clipPath>
<clipPath id="clipPath57037" clipPathUnits="userSpaceOnUse">
<path id="path57039" clip-rule="evenodd" d="m-0.0003651,0.00024414,720,0,0,540-720,0,0-540z"/>
</clipPath>
<clipPath id="clipPath57047" clipPathUnits="userSpaceOnUse">
<path id="path57049" d="m0,0,53.941,0,0,37.952h-53.941v-37.952z"/>
</clipPath>
<clipPath id="clipPath57011" clipPathUnits="userSpaceOnUse">
<path id="path57013" clip-rule="evenodd" d="m-0.000070364,0.00024414,720,0,0,540-720,0,0-540z"/>
</clipPath>
<clipPath id="clipPath57021" clipPathUnits="userSpaceOnUse">
<path id="path57023" d="m0,0,53.941,0,0,37.952h-53.941v-37.952z"/>
</clipPath>
<clipPath id="clipPath56995" clipPathUnits="userSpaceOnUse">
<path id="path56997" clip-rule="evenodd" d="M0.000010729,0,720,0v540h-720v-540z"/>
</clipPath>
<clipPath id="clipPath56983" clipPathUnits="userSpaceOnUse">
<path id="path56985" clip-rule="evenodd" d="M0.000010729,0,720,0v540h-720v-540z"/>
</clipPath>
<linearGradient id="linearGradient56931" y2="248.64" gradientUnits="userSpaceOnUse" x2="307.14" gradientTransform="translate(97.256152,-203.00703)" y1="276" x1="307.14">
<stop id="stop56933" stop-color="#CCF" offset="0"/>
<stop id="stop56935" stop-color="#CCF" offset="1"/>
</linearGradient>
<linearGradient id="linearGradient56897" y2="272.28" gradientUnits="userSpaceOnUse" x2="306.93" gradientTransform="translate(97.256152,-203.00703)" y1="312.01" x1="306.93">
<stop id="stop56899" stop-color="#FFF" offset="0"/>
<stop id="stop56901" stop-color="#FFF" offset="1"/>
</linearGradient>
</defs>
<metadata id="metadata3676">
<rdf:RDF>
<cc:Work rdf:about="">
<dc:format>image/svg+xml</dc:format>
<dc:type rdf:resource="http://purl.org/dc/dcmitype/StillImage"/>
<dc:title/>
</cc:Work>
</rdf:RDF>
</metadata>
<g id="layer1" transform="translate(732.54278,-261.24659)">
<path id="path56893" stroke-linejoin="round" d="m-557.26,352.04,365.85,0" stroke="#000" stroke-linecap="butt" stroke-miterlimit="10" stroke-dasharray="none" stroke-width="0.90000004" fill="none"/>
<g id="g56895" transform="matrix(1.25,0,0,-1.25,-854.11298,682.4878)">
<path id="path56903" d="m265.95,291.78c1.05,1.5,3.45-2.08,6.3-2.83s7.5-1.59,10.8-1.92,5.7-0.17,9.15-0.33c3.45-0.17,8.25-0.59,11.55-0.67s5.4-0.08,8.7,0,7.35,0.25,10.8,0.5,6.15,0.33,9.75,0.92c3.6,0.58,9.3,2.16,11.85,2.75,2.55,0.58,2.7,2.5,3.15,0.83s0.6-8.75-0.3-11.08c-0.9-2.34-3.45-2.25-4.8-3-1.5-0.84-2.7-1.17-4.35-1.67-1.65-0.42-3.6-0.92-5.85-1.25-2.4-0.33-5.4-0.83-8.55-1.08-3.3-0.17-7.35-0.42-10.5-0.59-3.3-0.08-6.45-0.08-9.3-0.08-3,0-5.85,0.25-8.4,0.33-2.7,0.17-4.65,0.25-7.5,0.59-3,0.33-7.65,0.91-10.05,1.41-2.55,0.42-3.9,0.67-5.55,1.25-1.65,0.59-2.85,1.67-3.9,2.34-1.2,0.66-2.55-0.25-3,2-0.45,2.16-0.75,10.25,0,11.58z" fill-rule="evenodd" fill="url(#linearGradient56897)"/>
</g>
<g id="g56905" transform="matrix(1.25,0,0,-1.25,-854.11298,682.4878)">
<path id="path56907" stroke-linejoin="round" d="m266.04,283.26c0,3.28,18.37,5.94,41.04,5.94s41.04-2.66,41.04-5.94-18.37-5.94-41.04-5.94-41.04,2.66-41.04,5.94z" stroke-dashoffset="0" stroke="#000" stroke-linecap="round" stroke-miterlimit="10" stroke-dasharray="0, 1.92" stroke-width="0.95999998" fill="none"/>
</g>
<path id="path56909" stroke-linejoin="round" d="m-521.26,318.59,0,9" stroke="#000" stroke-linecap="butt" stroke-miterlimit="10" stroke-dasharray="none" stroke-width="1.19999993" fill="none"/>
<path id="path56911" stroke-linejoin="round" d="m-418.51,315.89,0,9.3" stroke="#000" stroke-linecap="butt" stroke-miterlimit="10" stroke-dasharray="none" stroke-width="1.19999993" fill="none"/>
<path id="path56913" d="m-523.51,316.56c0-4.7625,23.1-8.625,51.6-8.625s51.6,3.8625,51.6,8.625-23.1,8.625-51.6,8.625-51.6-3.8625-51.6-8.625z" fill-rule="evenodd" fill="#CCF"/>
<path id="path56915" stroke-linejoin="round" d="m-523.51,316.56c0-4.7625,23.1-8.625,51.6-8.625s51.6,3.8625,51.6,8.625-23.1,8.625-51.6,8.625-51.6-3.8625-51.6-8.625z" stroke="#000" stroke-linecap="butt" stroke-miterlimit="10" stroke-dasharray="none" stroke-width="1.19999993" fill="none"/>
<path id="path56917" stroke-linejoin="round" d="m-497.19,311.91,18.15-0.15" stroke="#000" stroke-linecap="butt" stroke-miterlimit="10" stroke-dasharray="none" stroke-width="2.8499999" fill="none"/>
<path id="path56919" stroke-linejoin="round" d="m-462.24,321.81,16.05,0" stroke="#000" stroke-linecap="butt" stroke-miterlimit="10" stroke-dasharray="none" stroke-width="2.8499999" fill="none"/>
<path id="path56921" stroke-linejoin="round" d="m-480.39,311.91,18.9,9.9" stroke="#000" stroke-linecap="butt" stroke-miterlimit="10" stroke-dasharray="none" stroke-width="2.8499999" fill="none"/>
<path id="path56923" stroke-linejoin="round" d="m-497.19,321.51,18.15,0.3" stroke="#000" stroke-linecap="butt" stroke-miterlimit="10" stroke-dasharray="none" stroke-width="2.8499999" fill="none"/>
<path id="path56925" stroke-linejoin="round" d="m-462.24,311.76,16.05,0" stroke="#000" stroke-linecap="butt" stroke-miterlimit="10" stroke-dasharray="none" stroke-width="2.8499999" fill="none"/>
<path id="path56927" stroke-linejoin="round" d="m-480.39,321.51,18.9-9.75" stroke="#000" stroke-linecap="butt" stroke-miterlimit="10" stroke-dasharray="none" stroke-width="2.8499999" fill="none"/>
<g id="g56929" transform="matrix(1.25,0,0,-1.25,-854.11298,682.4878)">
<path id="path56937" d="m265.92,255.48c0,3.78,18.45,6.84,41.22,6.84s41.22-3.06,41.22-6.84-18.45-6.84-41.22-6.84-41.22,3.06-41.22,6.84z" fill-rule="evenodd" fill="url(#linearGradient56931)"/>
</g>
<path id="path56939" stroke-linejoin="round" d="m-521.71,363.14c0-4.725,23.062-8.55,51.525-8.55,28.462,0,51.525,3.825,51.525,8.55s-23.062,8.55-51.525,8.55c-28.462,0-51.525-3.825-51.525-8.55z" stroke="#000" stroke-linecap="butt" stroke-miterlimit="10" stroke-dasharray="none" stroke-width="0.29999998" fill="none"/>
<path id="path56941" stroke-linejoin="round" d="m-532.66,296.99-47.85,108" stroke="#000" stroke-linecap="butt" stroke-miterlimit="10" stroke-dasharray="none" stroke-width="0.90000004" fill="none"/>
<path id="path56943" stroke-linejoin="round" d="m-579.46,404.99-24.3-0.9" stroke="#000" stroke-linecap="butt" stroke-miterlimit="10" stroke-dasharray="none" stroke-width="0.90000004" fill="none"/>
<path id="path56945" stroke-linejoin="round" d="m-531.61,296.09-36.6,0" stroke="#000" stroke-linecap="butt" stroke-miterlimit="10" stroke-dasharray="none" stroke-width="0.90000004" fill="none"/>
<path id="path56947" stroke-linejoin="round" d="m-164.86,291.29-47.85,107.85" stroke="#000" stroke-linecap="butt" stroke-miterlimit="10" stroke-dasharray="none" stroke-width="0.90000004" fill="none"/>
<path id="path56949" stroke-linejoin="round" d="m-174.76,398.84-36.75,0" stroke="#000" stroke-linecap="butt" stroke-miterlimit="10" stroke-dasharray="none" stroke-width="0.90000004" fill="none"/>
<path id="path56951" stroke-linejoin="round" d="m-139.21,291.29-25.65,0" stroke="#000" stroke-linecap="butt" stroke-miterlimit="10" stroke-dasharray="none" stroke-width="0.90000004" fill="none"/>
<path id="path56953" d="m-328.51,355.04c0-4.3875,21.888-7.95,48.9-7.95s48.9,3.5625,48.9,7.95-21.888,7.95-48.9,7.95-48.9-3.5625-48.9-7.95z" fill-rule="evenodd" fill="#CCF"/>
<path id="path56955" stroke-linejoin="round" d="m-328.51,355.04c0-4.3875,21.888-7.95,48.9-7.95s48.9,3.5625,48.9,7.95-21.888,7.95-48.9,7.95-48.9-3.5625-48.9-7.95z" stroke="#000" stroke-linecap="butt" stroke-miterlimit="10" stroke-dasharray="none" stroke-width="1.19999993" fill="none"/>
<path id="path56957" stroke-linejoin="round" d="m-328.51,345.74,0,9.9" stroke="#000" stroke-linecap="butt" stroke-miterlimit="10" stroke-dasharray="none" stroke-width="1.19999993" fill="none"/>
<path id="path56959" stroke-linejoin="round" d="m-230.71,345.74,0,9.9" stroke="#000" stroke-linecap="butt" stroke-miterlimit="10" stroke-dasharray="none" stroke-width="1.19999993" fill="none"/>
<path id="path56961" d="m-328.51,355.49,97.05,0,0-9.75-97.05,0,0,9.75z" fill-rule="evenodd" fill="#CCF"/>
<path id="path56963" d="m-329.26,343.56c0-5.1,21.888-9.225,48.9-9.225s48.9,4.125,48.9,9.225-21.888,9.225-48.9,9.225-48.9-4.125-48.9-9.225z" fill-rule="evenodd" fill="#CCF"/>
<path id="path56965" stroke-linejoin="round" d="m-329.26,343.56c0-5.1,21.888-9.225,48.9-9.225s48.9,4.125,48.9,9.225-21.888,9.225-48.9,9.225-48.9-4.125-48.9-9.225z" stroke="#000" stroke-linecap="butt" stroke-miterlimit="10" stroke-dasharray="none" stroke-width="1.19999993" fill="none"/>
<path id="path56967" stroke-linejoin="round" d="m-305.64,338.61,17.25-0.15" stroke="#000" stroke-linecap="butt" stroke-miterlimit="10" stroke-dasharray="none" stroke-width="2.8499999" fill="none"/>
<path id="path56969" stroke-linejoin="round" d="m-272.34,349.26,15.15,0" stroke="#000" stroke-linecap="butt" stroke-miterlimit="10" stroke-dasharray="none" stroke-width="2.8499999" fill="none"/>
<path id="path56971" stroke-linejoin="round" d="m-289.74,338.61,18,10.65" stroke="#000" stroke-linecap="butt" stroke-miterlimit="10" stroke-dasharray="none" stroke-width="2.8499999" fill="none"/>
<path id="path56973" stroke-linejoin="round" d="m-305.64,348.96,17.25,0.15" stroke="#000" stroke-linecap="butt" stroke-miterlimit="10" stroke-dasharray="none" stroke-width="2.8499999" fill="none"/>
<path id="path56975" stroke-linejoin="round" d="m-272.34,338.31,15.15,0" stroke="#000" stroke-linecap="butt" stroke-miterlimit="10" stroke-dasharray="none" stroke-width="2.8499999" fill="none"/>
<path id="path56977" stroke-linejoin="round" d="m-289.74,348.96,18-10.8" stroke="#000" stroke-linecap="butt" stroke-miterlimit="10" stroke-dasharray="none" stroke-width="2.8499999" fill="none"/>
<g id="g56979" transform="matrix(1.25,0,0,-1.25,-854.11298,682.4878)">
<g id="g56981" clip-path="url(#clipPath56983)">
<text id="text56987" transform="matrix(1,0,0,-1,296.76,306.65)">
<tspan id="tspan56989" style="writing-mode:lr-tb;" font-weight="normal" fill-rule="nonzero" font-size="20.04000092px" font-variant="normal" y="0" x="0 14.51998" font-family="Arial" fill="#000000">R1</tspan>
</text>
</g>
</g>
<g id="g56991" transform="matrix(1.25,0,0,-1.25,-854.11298,682.4878)">
<g id="g56993" clip-path="url(#clipPath56995)">
<text id="text56999" transform="matrix(1,0,0,-1,454.03,286.39)">
<tspan id="tspan57001" style="writing-mode:lr-tb;" font-weight="normal" fill-rule="nonzero" font-size="20.04000092px" font-variant="normal" y="0" x="0 14.51998" font-family="Arial" fill="#000000">R2</tspan>
</text>
</g>
</g>
<path id="path57003" d="m-562.66,284.76,43.4,0c0.9875,0,1.9,0.5,2.425,1.3375s0.575,1.8875,0.1375,2.775l-26.725,53.925-2.5375-4.125,340.08,1.9625-2.55,1.5625,32.238-63.6c0.4875-0.9625,1.4625-1.5625,2.5375-1.5625h13.6v5.7h-13.6l2.5375-1.5625-32.238,63.6c-0.4875,0.9625-1.475,1.5625-2.55,1.5625l-340.09-1.9625c-0.975,0-1.8875-0.5125-2.4-1.35-0.525-0.8375-0.5625-1.875-0.1375-2.7625l26.725-53.925,2.55,4.125h-43.4v-5.7zm399.75-13.425,17.1,8.55-17.1,8.55,0-17.1z" fill-rule="nonzero" fill="#33C"/>
<path id="path57005" d="m-587.49,408,12.162-0.9875-2.375,1.7125,23.462-53.925c0.45-1.0375,1.475-1.7125,2.6125-1.7125h346.81c0.975,0,1.8875,0.5,2.4,1.3125,0.525,0.825,0.6,1.8625,0.1875,2.7375l-23.338,50.125-2.5875-4.0625h28.038v5.7h-28.038c-0.975,0-1.875-0.4875-2.4-1.3125s-0.5875-1.85-0.1875-2.7375l23.35-50.112,2.575,4.05h-346.81l2.6125-1.7125-23.462,53.925c-0.425,0.9625-1.3375,1.6125-2.3875,1.7l-12.175,0.975-0.45-5.675zm384.52-10.5,17.1,8.55-17.1,8.55,0-17.1z" fill-rule="nonzero" fill="#F00"/>
<g id="g57007" transform="matrix(1.25,0,0,-1.25,-854.11298,682.4878)">
<g id="g57009" clip-path="url(#clipPath57011)">
<g id="g57015" transform="matrix(0.745,0,0,0.49167,182.28,297.84)">
<g id="g57017" transform="scale(1.3348,1.8971)">
<g id="g57019" clip-path="url(#clipPath57021)">
<g id="g57025">
<g id="g57027"></g>
<path id="path57031" d="m47.703,33.803-1.082,0.543-1.081,0.434-1.135,0.435-1.135,0.38-1.135,0.38-1.135,0.271-1.243,0.272-1.19,0.271-1.243,0.217-1.297,0.163-1.351,0.109-1.352,0.163-1.459,0.054-1.46,0.054-1.567,0.055-1.568,0-1.621,0-1.514-0.055-1.514-0.054-1.405-0.054-1.405-0.163-1.352-0.109-1.297-0.163-1.243-0.217-1.243-0.271-1.19-0.272-1.135-0.271-1.189-0.38-1.135-0.38l-1.0812-0.435-1.1351-0.434-1.0811-0.543-1.9459-1.14-1.5136-1.303-1.1351-1.412-0.8108-1.411-0.54055-1.412-0.32432-1.357-0.16216-1.249-0.05406-1.086,0.05406-0.869,0.21621-0.76,0.27027-0.597,0.43245-0.434,0.4865-0.38,0.5946-0.217,0.7027-0.218,0.7567-0.108,0.6487-0.055h0.5946l0.7027,0.055,0.6486,0.108,0.7027,0.109,0.6487,0.109,0.6486,0.217,0.7027,0.163,0.5946,0.217,0.5945,0.217,0.595,0.217,0.54,0.272,0.487,0.217,0.432,0.217,0.379,0.271,0.324,0.218,0.54,0.434,0.487,0.434,0.378,0.435,0.271,0.434,0.216,0.38,0.162,0.434,0.054,0.38-0.054,0.38-0.27,0.869-0.271,1.086-0.108,0.923,0.271,0.597,0.486,0.054,0.378-0.271,0.271-0.597,0.162-0.869,0.054-1.412-0.108-1.411-0.162-1.303-0.271-0.923-0.216-0.489-0.486-0.706-0.595-0.814-0.703-0.923-0.81-0.977-0.757-0.923-0.757-0.869-0.649-0.706-0.6483-0.814-0.7027-1.249-0.7567-1.466-0.7568-1.629-0.7567-1.7369-0.5946-1.6288-0.4865-1.4659-0.2703-1.1945-0.1622-1.6288,0.0541-1.303,0.2703-0.97728,0.4865-0.65151,0.7567-0.48864,0.973-0.27147,1.2432-0.10858,1.514-0.05429h0.864,0.973,1.081,1.136,1.189,1.243,1.297,1.244,1.243,1.189,1.081,1.027,0.919,0.757,0.594,0.433v4.2349l-0.973,0.0543-0.973,0.1628-0.919,0.2715-0.865,0.3258-0.865,0.38-0.757,0.543-0.756,0.5429-0.703,0.6515-0.595,0.7058-0.594,0.7058-0.433,0.8144-0.432,0.8687-0.324,0.9233-0.217,0.923-0.162,0.977-0.054,0.977,0.054,0.977,0.162,0.978,0.217,0.923,0.324,0.923,0.432,0.868,0.433,0.815,0.594,0.706,0.595,0.705,0.703,0.652,0.756,0.543,0.757,0.543,0.865,0.38,0.865,0.326,0.919,0.271,0.973,0.163,0.973,0.054v4.941h-0.433-0.486l-0.541-0.054h-0.54-0.487l-0.486-0.055h-0.433-0.324l-0.486,0.272-0.271,0.651-0.054,0.652,0.216,0.326,0.271,0.054h0.378,0.487,0.594,0.649l0.757-0.054h0.756,0.757,0.757,0.757l0.702,0.054h0.649,0.595,0.486,0.378l0.271-0.054,0.216-0.326v-0.652l-0.324-0.651-0.487-0.272h-0.378-0.433l-0.54,0.055h-0.541-0.594l-0.595,0.054h-0.486-0.433-0.054-0.108-0.054-0.108v-4.941h0.054,0.054,0.054l1.027-0.054,0.973-0.163,0.919-0.217,0.919-0.326,0.865-0.434,0.81-0.489,0.757-0.543,0.703-0.651,0.649-0.706,0.54-0.76,0.487-0.815,0.432-0.868,0.324-0.869,0.217-0.977,0.162-0.923,0.054-1.032-0.054-1.031-0.162-0.923-0.217-0.978-0.324-0.8683-0.432-0.8687-0.487-0.8144-0.54-0.7601-0.649-0.7058-0.703-0.6515-0.757-0.5429-0.81-0.4887-0.865-0.4343-0.919-0.3258-0.919-0.2172-0.973-0.1628-1.027-0.0543h-0.054-0.054-0.054v-4.2349h0.162,0.108,0.054,0.108,0.433,0.594,0.811,0.973,1.081,1.243,1.298,1.351,1.351,1.406,1.351,1.297,1.19,1.081,0.973l1.513,0.05429,1.189,0.10858,1.027,0.27147,0.703,0.48864,0.541,0.65151,0.216,0.97728,0.054,1.303-0.162,1.6288-0.271,1.1945-0.486,1.4659-0.595,1.6288-0.702,1.7369-0.811,1.629-0.757,1.466-0.703,1.249-0.648,0.814-0.649,0.706-0.757,0.869-0.756,0.923-0.811,0.977-0.703,0.923-0.594,0.814-0.487,0.706-0.216,0.489-0.27,0.923-0.163,1.303-0.054,1.411v1.412l0.162,0.869,0.271,0.597,0.378,0.271,0.487-0.054,0.27-0.597-0.108-0.923-0.27-1.086-0.271-0.869-0.054-0.38,0.054-0.38,0.162-0.434,0.217-0.38,0.27-0.434,0.378-0.435,0.487-0.434,0.54-0.434,0.325-0.218,0.378-0.271,0.432-0.217,0.487-0.217,0.54-0.272,0.595-0.217,0.595-0.217,0.648-0.217,0.649-0.163,0.649-0.217,0.702-0.109,0.649-0.109,0.703-0.108,0.648-0.055h0.649l0.595,0.055,0.756,0.108,0.703,0.218,0.595,0.217,0.54,0.38,0.379,0.434,0.324,0.597,0.216,0.76,0.054,0.869-0.054,1.086-0.162,1.249-0.324,1.357-0.541,1.412-0.865,1.411-1.135,1.412-1.513,1.303-1.946,1.14z" fill-rule="evenodd" fill="#000"/>
</g>
</g>
</g>
</g>
</g>
</g>
<g id="g57033" transform="matrix(1.25,0,0,-1.25,-854.11298,682.4878)">
<g id="g57035" clip-path="url(#clipPath57037)">
<g id="g57041" transform="matrix(0.745,0,0,0.49167,564.12,300.24)">
<g id="g57043" transform="scale(1.3348,1.8971)">
<g id="g57045" clip-path="url(#clipPath57047)">
<g id="g57051">
<g id="g57053"></g>
<path id="path57057" d="m47.703,33.803-1.082,0.543-1.081,0.434-1.135,0.435-1.135,0.38-1.135,0.38-1.135,0.271-1.243,0.272-1.19,0.271-1.243,0.217-1.297,0.163-1.351,0.109-1.352,0.163-1.459,0.054-1.46,0.054-1.567,0.055-1.568,0-1.621,0-1.514-0.055-1.514-0.054-1.405-0.054-1.405-0.163-1.352-0.109-1.297-0.163-1.243-0.217-1.243-0.271-1.19-0.272-1.135-0.271-1.189-0.38-1.135-0.38l-1.0812-0.435-1.1351-0.434-1.0811-0.543-1.9459-1.14-1.5136-1.303-1.1351-1.412-0.8108-1.411-0.54055-1.412-0.32432-1.357-0.16216-1.249-0.05406-1.086,0.05406-0.869,0.21621-0.76,0.27027-0.597,0.43245-0.434,0.4865-0.38,0.5946-0.217,0.7027-0.218,0.7567-0.108,0.6487-0.055h0.5946l0.7027,0.055,0.6486,0.108,0.7027,0.109,0.6487,0.109,0.6486,0.217,0.7027,0.163,0.5946,0.217,0.5945,0.217,0.595,0.217,0.54,0.272,0.487,0.217,0.432,0.217,0.379,0.271,0.324,0.218,0.54,0.434,0.487,0.434,0.378,0.435,0.271,0.434,0.216,0.38,0.162,0.434,0.054,0.38-0.054,0.38-0.27,0.869-0.271,1.086-0.108,0.923,0.271,0.597,0.486,0.054,0.378-0.271,0.271-0.597,0.162-0.869,0.054-1.412-0.108-1.411-0.162-1.303-0.271-0.923-0.216-0.489-0.486-0.706-0.595-0.814-0.703-0.923-0.81-0.977-0.757-0.923-0.757-0.869-0.649-0.706-0.6483-0.814-0.7027-1.249-0.7567-1.466-0.7568-1.629-0.7567-1.7369-0.5946-1.6288-0.4865-1.4659-0.2703-1.1945-0.1622-1.6288,0.0541-1.303,0.2703-0.97728,0.4865-0.65151,0.7567-0.48864,0.973-0.27147,1.2432-0.10858,1.514-0.05429h0.864,0.973,1.081,1.136,1.189,1.243,1.297,1.244,1.243,1.189,1.081,1.027,0.919,0.757,0.594,0.433v4.2349l-0.973,0.0543-0.973,0.1628-0.919,0.2715-0.865,0.3258-0.865,0.38-0.757,0.543-0.756,0.5429-0.703,0.6515-0.595,0.7058-0.594,0.7058-0.433,0.8144-0.432,0.8687-0.324,0.9233-0.217,0.923-0.162,0.977-0.054,0.977,0.054,0.977,0.162,0.978,0.217,0.923,0.324,0.923,0.432,0.868,0.433,0.815,0.594,0.706,0.595,0.705,0.703,0.652,0.756,0.543,0.757,0.543,0.865,0.38,0.865,0.326,0.919,0.271,0.973,0.163,0.973,0.054v4.941h-0.433-0.486l-0.541-0.054h-0.54-0.487l-0.486-0.055h-0.433-0.324l-0.486,0.272-0.271,0.651-0.054,0.652,0.216,0.326,0.271,0.054h0.378,0.487,0.594,0.649l0.757-0.054h0.756,0.757,0.757,0.757l0.702,0.054h0.649,0.595,0.486,0.378l0.271-0.054,0.216-0.326v-0.652l-0.324-0.651-0.487-0.272h-0.378-0.433l-0.54,0.055h-0.541-0.594l-0.595,0.054h-0.486-0.433-0.054-0.108-0.054-0.108v-4.941h0.054,0.054,0.054l1.027-0.054,0.973-0.163,0.919-0.217,0.919-0.326,0.865-0.434,0.81-0.489,0.757-0.543,0.703-0.651,0.649-0.706,0.54-0.76,0.487-0.815,0.432-0.868,0.324-0.869,0.217-0.977,0.162-0.923,0.054-1.032-0.054-1.031-0.162-0.923-0.217-0.978-0.324-0.8683-0.432-0.8687-0.487-0.8144-0.54-0.7601-0.649-0.7058-0.703-0.6515-0.757-0.5429-0.81-0.4887-0.865-0.4343-0.919-0.3258-0.919-0.2172-0.973-0.1628-1.027-0.0543h-0.054-0.054-0.054v-4.2349h0.162,0.108,0.054,0.108,0.433,0.594,0.811,0.973,1.081,1.243,1.298,1.351,1.351,1.406,1.351,1.297,1.19,1.081,0.973l1.513,0.05429,1.189,0.10858,1.027,0.27147,0.703,0.48864,0.541,0.65151,0.216,0.97728,0.054,1.303-0.162,1.6288-0.271,1.1945-0.486,1.4659-0.595,1.6288-0.702,1.7369-0.811,1.629-0.757,1.466-0.703,1.249-0.648,0.814-0.649,0.706-0.757,0.869-0.756,0.923-0.811,0.977-0.703,0.923-0.594,0.814-0.487,0.706-0.216,0.489-0.27,0.923-0.163,1.303-0.054,1.411v1.412l0.162,0.869,0.271,0.597,0.378,0.271,0.487-0.054,0.27-0.597-0.108-0.923-0.27-1.086-0.271-0.869-0.054-0.38,0.054-0.38,0.162-0.434,0.217-0.38,0.27-0.434,0.378-0.435,0.487-0.434,0.54-0.434,0.325-0.218,0.378-0.271,0.432-0.217,0.487-0.217,0.54-0.272,0.595-0.217,0.595-0.217,0.648-0.217,0.649-0.163,0.649-0.217,0.702-0.109,0.649-0.109,0.703-0.108,0.648-0.055h0.649l0.595,0.055,0.756,0.108,0.703,0.218,0.595,0.217,0.54,0.38,0.379,0.434,0.324,0.597,0.216,0.76,0.054,0.869-0.054,1.086-0.162,1.249-0.324,1.357-0.541,1.412-0.865,1.411-1.135,1.412-1.513,1.303-1.946,1.14z" fill-rule="evenodd" fill="#000"/>
</g>
</g>
</g>
</g>
</g>
</g>
<path id="path57059" d="m-553.36,306.44c0-9.9375,9.6375-18,21.525-18s21.525,8.0625,21.525,18-9.6375,18-21.525,18-21.525-8.0625-21.525-18z" fill-rule="evenodd" fill="#FF0"/>
<path id="path57061" stroke-linejoin="round" d="m-553.36,306.44c0-9.9375,9.6375-18,21.525-18s21.525,8.0625,21.525,18-9.6375,18-21.525,18-21.525-8.0625-21.525-18z" stroke="#000" stroke-linecap="butt" stroke-miterlimit="10" stroke-dasharray="none" stroke-width="0.90000004" fill="none"/>
<path id="path57063" d="m-584.11,378.14c0-9.9375,9.6-18,21.45-18s21.45,8.0625,21.45,18-9.6,18-21.45,18-21.45-8.0625-21.45-18z" fill-rule="evenodd" fill="#FF0"/>
<path id="path57065" stroke-linejoin="round" d="m-584.11,378.14c0-9.9375,9.6-18,21.45-18s21.45,8.0625,21.45,18-9.6,18-21.45,18-21.45-8.0625-21.45-18z" stroke="#000" stroke-linecap="butt" stroke-miterlimit="10" stroke-dasharray="none" stroke-width="0.90000004" fill="none"/>
<g id="g57067" transform="matrix(1.25,0,0,-1.25,-854.11298,682.4878)">
<g id="g57069" clip-path="url(#clipPath57071)">
<text id="text57075" transform="matrix(1,0,0,-1,328.13,231.79)">
<tspan id="tspan57077" style="writing-mode:lr-tb;" font-weight="normal" fill-rule="nonzero" font-size="18px" font-variant="normal" y="0" x="0 10.008 15.012 24.966 29.969999 44.964001 54.972 64.926003 73.926003 78.93 82.926003 86.921997 96.839996" font-family="Arial" fill="#000000">1.5 Mbps link</tspan>
</text>
</g>
</g>
<g id="g57079" transform="matrix(1.25,0,0,-1.25,-854.11298,682.4878)">
<g id="g57081" clip-path="url(#clipPath57083)">
<text id="text57087" transform="matrix(1,0,0,-1,119.59,323.95)">
<tspan id="tspan57089" style="writing-mode:lr-tb;" font-weight="normal" fill-rule="nonzero" font-size="18px" font-variant="normal" y="0" x="0 10.008 15.012 30.006001 39.959999 49.967999 58.967999" font-family="Arial" fill="#000000">1 Mbps</tspan>
</text>
</g>
</g>
<g id="g57091" transform="matrix(1.25,0,0,-1.25,-854.11298,682.4878)">
<g id="g57093" clip-path="url(#clipPath57095)">
<text id="text57099" transform="matrix(1,0,0,-1,119.59,302.35)">
<tspan id="tspan57101" style="writing-mode:lr-tb;" font-weight="normal" fill-rule="nonzero" font-size="18px" font-variant="normal" y="0" x="0 9.96 19.92 29.879999 39.84" font-family="Arial" fill="#000000">phone</tspan>
</text>
</g>
</g>
<path id="path57103" d="m-459.76,362.69,19.05,0,0-13.5-19.05,0,0,13.5z" fill-rule="evenodd" fill="#F00"/>
<path id="path57105" stroke-linejoin="miter" d="m-459.76,362.69,19.05,0,0-13.5-19.05,0,0,13.5z" stroke="#000" stroke-linecap="butt" stroke-miterlimit="8" stroke-dasharray="none" stroke-width="0.90000004" fill="none"/>
<path id="path57107" d="m-478.81,362.69,19.05,0,0-13.5-19.05,0,0,13.5z" fill-rule="evenodd" fill="#F00"/>
<path id="path57109" stroke-linejoin="miter" d="m-478.81,362.69,19.05,0,0-13.5-19.05,0,0,13.5z" stroke="#000" stroke-linecap="butt" stroke-miterlimit="8" stroke-dasharray="none" stroke-width="0.90000004" fill="none"/>
<path id="path57111" d="m-459.76,347.54,19.05,0,0-13.5-19.05,0,0,13.5z" fill-rule="evenodd" fill="#33C"/>
<path id="path57113" stroke-linejoin="miter" d="m-459.76,347.54,19.05,0,0-13.5-19.05,0,0,13.5z" stroke="#000" stroke-linecap="butt" stroke-miterlimit="8" stroke-dasharray="none" stroke-width="0.90000004" fill="none"/>
<path id="path57115" d="m-478.81,347.54,19.05,0,0-13.5-19.05,0,0,13.5z" fill-rule="evenodd" fill="#33C"/>
<path id="path57117" stroke-linejoin="miter" d="m-478.81,347.54,19.05,0,0-13.5-19.05,0,0,13.5z" stroke="#000" stroke-linecap="butt" stroke-miterlimit="8" stroke-dasharray="none" stroke-width="0.90000004" fill="none"/>
<g id="g57119" transform="matrix(1.25,0,0,-1.25,-854.11298,682.4878)">
<g id="g57121" clip-path="url(#clipPath57123)">
<g id="g57127" transform="matrix(0.745,0,0,0.49167,536.52,207.84)">
<g id="g57129" transform="scale(1.3348,1.8971)">
<g id="g57131" clip-path="url(#clipPath57133)">
<g id="g57137">
<g id="g57139"></g>
<path id="path57143" d="m47.703,33.803-1.082,0.543-1.081,0.434-1.135,0.435-1.135,0.38-1.135,0.38-1.135,0.271-1.243,0.272-1.19,0.271-1.243,0.217-1.297,0.163-1.351,0.109-1.352,0.163-1.459,0.054-1.46,0.054-1.567,0.055-1.568,0-1.621,0-1.514-0.055-1.514-0.054-1.405-0.054-1.405-0.163-1.352-0.109-1.297-0.163-1.243-0.217-1.243-0.271-1.19-0.272-1.135-0.271-1.189-0.38-1.135-0.38l-1.0812-0.435-1.1351-0.434-1.0811-0.543-1.9459-1.14-1.5136-1.303-1.1351-1.412-0.8108-1.411-0.54055-1.412-0.32432-1.357-0.16216-1.249-0.05406-1.086,0.05406-0.869,0.21621-0.76,0.27027-0.597,0.43245-0.434,0.4865-0.38,0.5946-0.217,0.7027-0.218,0.7567-0.108,0.6487-0.055h0.5946l0.7027,0.055,0.6486,0.108,0.7027,0.109,0.6487,0.109,0.6486,0.217,0.7027,0.163,0.5946,0.217,0.5945,0.217,0.595,0.217,0.54,0.272,0.487,0.217,0.432,0.217,0.379,0.271,0.324,0.218,0.54,0.434,0.487,0.434,0.378,0.435,0.271,0.434,0.216,0.38,0.162,0.434,0.054,0.38-0.054,0.38-0.27,0.869-0.271,1.086-0.108,0.923,0.271,0.597,0.486,0.054,0.378-0.271,0.271-0.597,0.162-0.869,0.054-1.412-0.108-1.411-0.162-1.303-0.271-0.923-0.216-0.489-0.486-0.706-0.595-0.814-0.703-0.923-0.81-0.977-0.757-0.923-0.757-0.869-0.649-0.706-0.6483-0.814-0.7027-1.249-0.7567-1.466-0.7568-1.629-0.7567-1.7369-0.5946-1.6288-0.4865-1.4659-0.2703-1.1945-0.1622-1.6288,0.0541-1.303,0.2703-0.97728,0.4865-0.65151,0.7567-0.48864,0.973-0.27147,1.2432-0.10858,1.514-0.05429h0.864,0.973,1.081,1.136,1.189,1.243,1.297,1.244,1.243,1.189,1.081,1.027,0.919,0.757,0.594,0.433v4.2349l-0.973,0.0543-0.973,0.1628-0.919,0.2715-0.865,0.3258-0.865,0.38-0.757,0.543-0.756,0.5429-0.703,0.6515-0.595,0.7058-0.594,0.7058-0.433,0.8144-0.432,0.8687-0.324,0.9233-0.217,0.923-0.162,0.977-0.054,0.977,0.054,0.977,0.162,0.978,0.217,0.923,0.324,0.923,0.432,0.868,0.433,0.815,0.594,0.706,0.595,0.705,0.703,0.652,0.756,0.543,0.757,0.543,0.865,0.38,0.865,0.326,0.919,0.271,0.973,0.163,0.973,0.054v4.941h-0.433-0.486l-0.541-0.054h-0.54-0.487l-0.486-0.055h-0.433-0.324l-0.486,0.272-0.271,0.651-0.054,0.652,0.216,0.326,0.271,0.054h0.378,0.487,0.594,0.649l0.757-0.054h0.756,0.757,0.757,0.757l0.702,0.054h0.649,0.595,0.486,0.378l0.271-0.054,0.216-0.326v-0.652l-0.324-0.651-0.487-0.272h-0.378-0.433l-0.54,0.055h-0.541-0.594l-0.595,0.054h-0.486-0.433-0.054-0.108-0.054-0.108v-4.941h0.054,0.054,0.054l1.027-0.054,0.973-0.163,0.919-0.217,0.919-0.326,0.865-0.434,0.81-0.489,0.757-0.543,0.703-0.651,0.649-0.706,0.54-0.76,0.487-0.815,0.432-0.868,0.324-0.869,0.217-0.977,0.162-0.923,0.054-1.032-0.054-1.031-0.162-0.923-0.217-0.978-0.324-0.8683-0.432-0.8687-0.487-0.8144-0.54-0.7601-0.649-0.7058-0.703-0.6515-0.757-0.5429-0.81-0.4887-0.865-0.4343-0.919-0.3258-0.919-0.2172-0.973-0.1628-1.027-0.0543h-0.054-0.054-0.054v-4.2349h0.162,0.108,0.054,0.108,0.433,0.594,0.811,0.973,1.081,1.243,1.298,1.351,1.351,1.406,1.351,1.297,1.19,1.081,0.973l1.513,0.05429,1.189,0.10858,1.027,0.27147,0.703,0.48864,0.541,0.65151,0.216,0.97728,0.054,1.303-0.162,1.6288-0.271,1.1945-0.486,1.4659-0.595,1.6288-0.702,1.7369-0.811,1.629-0.757,1.466-0.703,1.249-0.648,0.814-0.649,0.706-0.757,0.869-0.756,0.923-0.811,0.977-0.703,0.923-0.594,0.814-0.487,0.706-0.216,0.489-0.27,0.923-0.163,1.303-0.054,1.411v1.412l0.162,0.869,0.271,0.597,0.378,0.271,0.487-0.054,0.27-0.597-0.108-0.923-0.27-1.086-0.271-0.869-0.054-0.38,0.054-0.38,0.162-0.434,0.217-0.38,0.27-0.434,0.378-0.435,0.487-0.434,0.54-0.434,0.325-0.218,0.378-0.271,0.432-0.217,0.487-0.217,0.54-0.272,0.595-0.217,0.595-0.217,0.648-0.217,0.649-0.163,0.649-0.217,0.702-0.109,0.649-0.109,0.703-0.108,0.648-0.055h0.649l0.595,0.055,0.756,0.108,0.703,0.218,0.595,0.217,0.54,0.38,0.379,0.434,0.324,0.597,0.216,0.76,0.054,0.869-0.054,1.086-0.162,1.249-0.324,1.357-0.541,1.412-0.865,1.411-1.135,1.412-1.513,1.303-1.946,1.14z" fill-rule="evenodd" fill="#000"/>
</g>
</g>
</g>
</g>
</g>
</g>
<g id="g57145" transform="matrix(1.25,0,0,-1.25,-854.11298,682.4878)">
<g id="g57147" clip-path="url(#clipPath57149)">
<g id="g57153" transform="matrix(0.745,0,0,0.49167,157.08,206.28)">
<g id="g57155" transform="scale(1.3348,1.8971)">
<g id="g57157" clip-path="url(#clipPath57159)">
<g id="g57163">
<g id="g57165"></g>
<path id="path57169" d="m47.703,33.803-1.082,0.543-1.081,0.434-1.135,0.435-1.135,0.38-1.135,0.38-1.135,0.271-1.243,0.272-1.19,0.271-1.243,0.217-1.297,0.163-1.351,0.109-1.352,0.163-1.459,0.054-1.46,0.054-1.567,0.055-1.568,0-1.621,0-1.514-0.055-1.514-0.054-1.405-0.054-1.405-0.163-1.352-0.109-1.297-0.163-1.243-0.217-1.243-0.271-1.19-0.272-1.135-0.271-1.189-0.38-1.135-0.38l-1.0812-0.435-1.1351-0.434-1.0811-0.543-1.9459-1.14-1.5136-1.303-1.1351-1.412-0.8108-1.411-0.54055-1.412-0.32432-1.357-0.16216-1.249-0.05406-1.086,0.05406-0.869,0.21621-0.76,0.27027-0.597,0.43245-0.434,0.4865-0.38,0.5946-0.217,0.7027-0.218,0.7567-0.108,0.6487-0.055h0.5946l0.7027,0.055,0.6486,0.108,0.7027,0.109,0.6487,0.109,0.6486,0.217,0.7027,0.163,0.5946,0.217,0.5945,0.217,0.595,0.217,0.54,0.272,0.487,0.217,0.432,0.217,0.379,0.271,0.324,0.218,0.54,0.434,0.487,0.434,0.378,0.435,0.271,0.434,0.216,0.38,0.162,0.434,0.054,0.38-0.054,0.38-0.27,0.869-0.271,1.086-0.108,0.923,0.271,0.597,0.486,0.054,0.378-0.271,0.271-0.597,0.162-0.869,0.054-1.412-0.108-1.411-0.162-1.303-0.271-0.923-0.216-0.489-0.486-0.706-0.595-0.814-0.703-0.923-0.81-0.977-0.757-0.923-0.757-0.869-0.649-0.706-0.6483-0.814-0.7027-1.249-0.7567-1.466-0.7568-1.629-0.7567-1.7369-0.5946-1.6288-0.4865-1.4659-0.2703-1.1945-0.1622-1.6288,0.0541-1.303,0.2703-0.97728,0.4865-0.65151,0.7567-0.48864,0.973-0.27147,1.2432-0.10858,1.514-0.05429h0.864,0.973,1.081,1.136,1.189,1.243,1.297,1.244,1.243,1.189,1.081,1.027,0.919,0.757,0.594,0.433v4.2349l-0.973,0.0543-0.973,0.1628-0.919,0.2715-0.865,0.3258-0.865,0.38-0.757,0.543-0.756,0.5429-0.703,0.6515-0.595,0.7058-0.594,0.7058-0.433,0.8144-0.432,0.8687-0.324,0.9233-0.217,0.923-0.162,0.977-0.054,0.977,0.054,0.977,0.162,0.978,0.217,0.923,0.324,0.923,0.432,0.868,0.433,0.815,0.594,0.706,0.595,0.705,0.703,0.652,0.756,0.543,0.757,0.543,0.865,0.38,0.865,0.326,0.919,0.271,0.973,0.163,0.973,0.054v4.941h-0.433-0.486l-0.541-0.054h-0.54-0.487l-0.486-0.055h-0.433-0.324l-0.486,0.272-0.271,0.651-0.054,0.652,0.216,0.326,0.271,0.054h0.378,0.487,0.594,0.649l0.757-0.054h0.756,0.757,0.757,0.757l0.702,0.054h0.649,0.595,0.486,0.378l0.271-0.054,0.216-0.326v-0.652l-0.324-0.651-0.487-0.272h-0.378-0.433l-0.54,0.055h-0.541-0.594l-0.595,0.054h-0.486-0.433-0.054-0.108-0.054-0.108v-4.941h0.054,0.054,0.054l1.027-0.054,0.973-0.163,0.919-0.217,0.919-0.326,0.865-0.434,0.81-0.489,0.757-0.543,0.703-0.651,0.649-0.706,0.54-0.76,0.487-0.815,0.432-0.868,0.324-0.869,0.217-0.977,0.162-0.923,0.054-1.032-0.054-1.031-0.162-0.923-0.217-0.978-0.324-0.8683-0.432-0.8687-0.487-0.8144-0.54-0.7601-0.649-0.7058-0.703-0.6515-0.757-0.5429-0.81-0.4887-0.865-0.4343-0.919-0.3258-0.919-0.2172-0.973-0.1628-1.027-0.0543h-0.054-0.054-0.054v-4.2349h0.162,0.108,0.054,0.108,0.433,0.594,0.811,0.973,1.081,1.243,1.298,1.351,1.351,1.406,1.351,1.297,1.19,1.081,0.973l1.513,0.05429,1.189,0.10858,1.027,0.27147,0.703,0.48864,0.541,0.65151,0.216,0.97728,0.054,1.303-0.162,1.6288-0.271,1.1945-0.486,1.4659-0.595,1.6288-0.702,1.7369-0.811,1.629-0.757,1.466-0.703,1.249-0.648,0.814-0.649,0.706-0.757,0.869-0.756,0.923-0.811,0.977-0.703,0.923-0.594,0.814-0.487,0.706-0.216,0.489-0.27,0.923-0.163,1.303-0.054,1.411v1.412l0.162,0.869,0.271,0.597,0.378,0.271,0.487-0.054,0.27-0.597-0.108-0.923-0.27-1.086-0.271-0.869-0.054-0.38,0.054-0.38,0.162-0.434,0.217-0.38,0.27-0.434,0.378-0.435,0.487-0.434,0.54-0.434,0.325-0.218,0.378-0.271,0.432-0.217,0.487-0.217,0.54-0.272,0.595-0.217,0.595-0.217,0.648-0.217,0.649-0.163,0.649-0.217,0.702-0.109,0.649-0.109,0.703-0.108,0.648-0.055h0.649l0.595,0.055,0.756,0.108,0.703,0.218,0.595,0.217,0.54,0.38,0.379,0.434,0.324,0.597,0.216,0.76,0.054,0.869-0.054,1.086-0.162,1.249-0.324,1.357-0.541,1.412-0.865,1.411-1.135,1.412-1.513,1.303-1.946,1.14z" fill-rule="evenodd" fill="#000"/>
</g>
</g>
</g>
</g>
</g>
</g>
<g id="g57171" transform="matrix(1.25,0,0,-1.25,-854.11298,682.4878)">
<g id="g57173" clip-path="url(#clipPath57175)">
<text id="text57179" transform="matrix(1,0,0,-1,96.096,223.18)">
<tspan id="tspan57181" style="writing-mode:lr-tb;" font-weight="normal" fill-rule="nonzero" font-size="18px" font-variant="normal" y="0" x="0 10.008 15.012 30.006001 39.959999 49.967999 58.967999" font-family="Arial" fill="#000000">1 Mbps</tspan>
</text>
</g>
</g>
<g id="g57183" transform="matrix(1.25,0,0,-1.25,-854.11298,682.4878)">
<g id="g57185" clip-path="url(#clipPath57187)">
<text id="text57191" transform="matrix(1,0,0,-1,96.096,201.58)">
<tspan id="tspan57193" style="writing-mode:lr-tb;" font-weight="normal" fill-rule="nonzero" font-size="18px" font-variant="normal" y="0" x="0 9.96 19.92 29.879999 39.84" font-family="Arial" fill="#000000">phone</tspan>
</text>
</g>
</g>
</g>
</svg>
