<!-- Created with Inkscape (http://www.inkscape.org/) -->
<svg id="svg3671" xmlns:rdf="http://www.w3.org/1999/02/22-rdf-syntax-ns#" xmlns="http://www.w3.org/2000/svg" height="24.156" width="50.562" version="1.1" xmlns:cc="http://creativecommons.org/ns#" xmlns:xlink="http://www.w3.org/1999/xlink" xmlns:dc="http://purl.org/dc/elements/1.1/">
<defs id="defs3673"></defs>
<metadata id="metadata3676">
<rdf:RDF>
<cc:Work rdf:about="">
<dc:format>image/svg+xml</dc:format>
<dc:type rdf:resource="http://purl.org/dc/dcmitype/StillImage"/>
<dc:title/>
</cc:Work>
</rdf:RDF>
</metadata>
<g id="layer1" transform="translate(389.28125,-312.40625)">
<path id="path52941" d="m-388.23,329.67c0-3.475,10.95-6.3,24.45-6.3s24.45,2.825,24.45,6.3-10.95,6.3-24.45,6.3-24.45-2.825-24.45-6.3z" fill-rule="evenodd" fill="#FF0"/>
<path id="path52943" stroke-linejoin="round" d="m-388.23,329.67c0-3.475,10.95-6.3,24.45-6.3s24.45,2.825,24.45,6.3-10.95,6.3-24.45,6.3-24.45-2.825-24.45-6.3z" stroke="#000" stroke-linecap="butt" stroke-miterlimit="10" stroke-dasharray="none" stroke-width="1.19999993" fill="none"/>
<path id="path52945" stroke-linejoin="round" d="m-388.23,322.17,0,7.8" stroke="#000" stroke-linecap="butt" stroke-miterlimit="10" stroke-dasharray="none" stroke-width="1.19999993" fill="none"/>
<path id="path52947" stroke-linejoin="round" d="m-340.23,319.47,0.9,10.5" stroke="#000" stroke-linecap="butt" stroke-miterlimit="10" stroke-dasharray="none" stroke-width="1.19999993" fill="none"/>
<path id="path52949" d="m-388.23,329.82,48.45,0,0-7.65-48.45,0,0,7.65z" fill-rule="evenodd" fill="#FF0"/>
<path id="path52951" d="m-388.68,320.44c0-4.1,10.975-7.425,24.525-7.425s24.525,3.325,24.525,7.425-10.975,7.425-24.525,7.425-24.525-3.325-24.525-7.425z" fill-rule="evenodd" fill="#FF0"/>
<path id="path52953" stroke-linejoin="round" d="m-388.68,320.44c0-4.1,10.975-7.425,24.525-7.425s24.525,3.325,24.525,7.425-10.975,7.425-24.525,7.425-24.525-3.325-24.525-7.425z" stroke="#000" stroke-linecap="butt" stroke-miterlimit="10" stroke-dasharray="none" stroke-width="1.19999993" fill="none"/>
<path id="path52955" stroke-linejoin="round" d="m-376.75,316.54,8.7-0.15" stroke="#000" stroke-linecap="butt" stroke-miterlimit="10" stroke-dasharray="none" stroke-width="1.94999993" fill="none"/>
<path id="path52957" stroke-linejoin="round" d="m-360.1,324.79,7.65,0" stroke="#000" stroke-linecap="butt" stroke-miterlimit="10" stroke-dasharray="none" stroke-width="1.94999993" fill="none"/>
<path id="path52959" stroke-linejoin="round" d="m-368.8,316.54,9,8.25" stroke="#000" stroke-linecap="butt" stroke-miterlimit="10" stroke-dasharray="none" stroke-width="1.94999993" fill="none"/>
<path id="path52961" stroke-linejoin="round" d="m-376.9,324.79,8.85,0.15" stroke="#000" stroke-linecap="butt" stroke-miterlimit="10" stroke-dasharray="none" stroke-width="1.94999993" fill="none"/>
<path id="path52963" stroke-linejoin="round" d="m-360.1,316.24,7.65,0" stroke="#000" stroke-linecap="butt" stroke-miterlimit="10" stroke-dasharray="none" stroke-width="1.94999993" fill="none"/>
<path id="path52965" stroke-linejoin="round" d="m-368.65,324.79,8.85-8.55" stroke="#000" stroke-linecap="butt" stroke-miterlimit="10" stroke-dasharray="none" stroke-width="1.94999993" fill="none"/>
</g>
</svg>
