<!-- Created with Inkscape (http://www.inkscape.org/) -->
<svg id="svg3671" xmlns:rdf="http://www.w3.org/1999/02/22-rdf-syntax-ns#" xmlns="http://www.w3.org/2000/svg" height="24.156" width="50.562" version="1.1" xmlns:cc="http://creativecommons.org/ns#" xmlns:xlink="http://www.w3.org/1999/xlink" xmlns:dc="http://purl.org/dc/elements/1.1/">
<defs id="defs3673"></defs>
<metadata id="metadata3676">
<rdf:RDF>
<cc:Work rdf:about="">
<dc:format>image/svg+xml</dc:format>
<dc:type rdf:resource="http://purl.org/dc/dcmitype/StillImage"/>
<dc:title/>
</cc:Work>
</rdf:RDF>
</metadata>
<g id="layer1" transform="translate(393.84375,-324.84375)">
<path id="path53015" d="m-392.79,342.09c0-3.475,10.95-6.3,24.45-6.3s24.45,2.825,24.45,6.3-10.95,6.3-24.45,6.3-24.45-2.825-24.45-6.3z" fill-rule="evenodd" fill="#36F"/>
<path id="path53017" stroke-linejoin="round" d="m-392.79,342.09c0-3.475,10.95-6.3,24.45-6.3s24.45,2.825,24.45,6.3-10.95,6.3-24.45,6.3-24.45-2.825-24.45-6.3z" stroke="#000" stroke-linecap="butt" stroke-miterlimit="10" stroke-dasharray="none" stroke-width="1.19999993" fill="none"/>
<path id="path53019" stroke-linejoin="round" d="m-392.79,334.59,0,7.8" stroke="#000" stroke-linecap="butt" stroke-miterlimit="10" stroke-dasharray="none" stroke-width="1.19999993" fill="none"/>
<path id="path53021" stroke-linejoin="round" d="m-344.79,331.74,0.9,10.65" stroke="#000" stroke-linecap="butt" stroke-miterlimit="10" stroke-dasharray="none" stroke-width="1.19999993" fill="none"/>
<path id="path53023" d="m-392.79,342.24,48.3,0,0-7.65-48.3,0,0,7.65z" fill-rule="evenodd" fill="#36F"/>
<path id="path53025" d="m-393.24,332.87c0-4.1,10.95-7.425,24.45-7.425s24.45,3.325,24.45,7.425-10.95,7.425-24.45,7.425-24.45-3.325-24.45-7.425z" fill-rule="evenodd" fill="#36F"/>
<path id="path53027" stroke-linejoin="round" d="m-393.24,332.87c0-4.1,10.95-7.425,24.45-7.425s24.45,3.325,24.45,7.425-10.95,7.425-24.45,7.425-24.45-3.325-24.45-7.425z" stroke="#000" stroke-linecap="butt" stroke-miterlimit="10" stroke-dasharray="none" stroke-width="1.19999993" fill="none"/>
<path id="path53029" stroke-linejoin="round" d="m-381.32,328.97,8.55-0.15" stroke="#000" stroke-linecap="butt" stroke-miterlimit="10" stroke-dasharray="none" stroke-width="1.94999993" fill="none"/>
<path id="path53031" stroke-linejoin="round" d="m-364.67,337.22,7.5,0" stroke="#000" stroke-linecap="butt" stroke-miterlimit="10" stroke-dasharray="none" stroke-width="1.94999993" fill="none"/>
<path id="path53033" stroke-linejoin="round" d="m-373.37,328.97,9,8.25" stroke="#000" stroke-linecap="butt" stroke-miterlimit="10" stroke-dasharray="none" stroke-width="1.94999993" fill="none"/>
<path id="path53035" stroke-linejoin="round" d="m-381.47,337.22,8.7,0.15" stroke="#000" stroke-linecap="butt" stroke-miterlimit="10" stroke-dasharray="none" stroke-width="1.94999993" fill="none"/>
<path id="path53037" stroke-linejoin="round" d="m-364.67,328.67,7.65,0" stroke="#000" stroke-linecap="butt" stroke-miterlimit="10" stroke-dasharray="none" stroke-width="1.94999993" fill="none"/>
<path id="path53039" stroke-linejoin="round" d="m-373.37,337.22,9-8.55" stroke="#000" stroke-linecap="butt" stroke-miterlimit="10" stroke-dasharray="none" stroke-width="1.94999993" fill="none"/>
</g>
</svg>
