<!-- Created with Inkscape (http://www.inkscape.org/) -->
<svg id="svg3671" xmlns:rdf="http://www.w3.org/1999/02/22-rdf-syntax-ns#" xmlns="http://www.w3.org/2000/svg" height="106.21" width="406.99" version="1.1" xmlns:cc="http://creativecommons.org/ns#" xmlns:xlink="http://www.w3.org/1999/xlink" xmlns:dc="http://purl.org/dc/elements/1.1/">
<defs id="defs3673">
<clipPath id="clipPath47798" clipPathUnits="userSpaceOnUse">
<path id="path47800" clip-rule="evenodd" d="M0.000010729,0,720,0v540h-720v-540z"/>
</clipPath>
<clipPath id="clipPath47786" clipPathUnits="userSpaceOnUse">
<path id="path47788" clip-rule="evenodd" d="M0.000010729,0,720,0v540h-720v-540z"/>
</clipPath>
<clipPath id="clipPath47774" clipPathUnits="userSpaceOnUse">
<path id="path47776" clip-rule="evenodd" d="M0.000010729,0,720,0v540h-720v-540z"/>
</clipPath>
<clipPath id="clipPath47762" clipPathUnits="userSpaceOnUse">
<path id="path47764" clip-rule="evenodd" d="M0.000010729,0,720,0v540h-720v-540z"/>
</clipPath>
<clipPath id="clipPath47748" clipPathUnits="userSpaceOnUse">
<path id="path47750" clip-rule="evenodd" d="M0.000010729,0,720,0v540h-720v-540z"/>
</clipPath>
<clipPath id="clipPath47736" clipPathUnits="userSpaceOnUse">
<path id="path47738" clip-rule="evenodd" d="M0.000010729,0,720,0v540h-720v-540z"/>
</clipPath>
<clipPath id="clipPath47724" clipPathUnits="userSpaceOnUse">
<path id="path47726" clip-rule="evenodd" d="M0.000010729,0,720,0v540h-720v-540z"/>
</clipPath>
<clipPath id="clipPath47712" clipPathUnits="userSpaceOnUse">
<path id="path47714" clip-rule="evenodd" d="M0.000010729,0,720,0v540h-720v-540z"/>
</clipPath>
</defs>
<metadata id="metadata3676">
<rdf:RDF>
<cc:Work rdf:about="">
<dc:format>image/svg+xml</dc:format>
<dc:type rdf:resource="http://purl.org/dc/dcmitype/StillImage"/>
<dc:title/>
</cc:Work>
</rdf:RDF>
</metadata>
<g id="layer1" transform="translate(450.78724,-300.34375)">
<path id="path47686" stroke-linejoin="miter" d="m-328.69,359.52,91.5,0,0-55.35-91.5,0,0,55.35z" stroke="#000" stroke-linecap="butt" stroke-miterlimit="10" stroke-dasharray="none" stroke-width="1.94999993" fill="none"/>
<path id="path47688" stroke-linejoin="round" d="m-316.84,304.62-0.45,54.904" stroke="#000" stroke-linecap="butt" stroke-miterlimit="10" stroke-dasharray="none" stroke-width="1.94999993" fill="none"/>
<path id="path47690" stroke-linejoin="round" d="m-304.54,304.47-0.45,54.904" stroke="#000" stroke-linecap="butt" stroke-miterlimit="10" stroke-dasharray="none" stroke-width="1.94999993" fill="none"/>
<path id="path47692" stroke-linejoin="round" d="m-293.14,304.92-0.45,54.904" stroke="#000" stroke-linecap="butt" stroke-miterlimit="10" stroke-dasharray="none" stroke-width="1.94999993" fill="none"/>
<path id="path47694" stroke-linejoin="round" d="m-282.49,304.32-0.45,54.904" stroke="#000" stroke-linecap="butt" stroke-miterlimit="10" stroke-dasharray="none" stroke-width="1.94999993" fill="none"/>
<path id="path47696" stroke-linejoin="round" d="m-271.84,304.47-0.45,54.904" stroke="#000" stroke-linecap="butt" stroke-miterlimit="10" stroke-dasharray="none" stroke-width="1.94999993" fill="none"/>
<path id="path47698" stroke-linejoin="round" d="m-259.84,304.77-0.45,54.904" stroke="#000" stroke-linecap="butt" stroke-miterlimit="10" stroke-dasharray="none" stroke-width="1.94999993" fill="none"/>
<path id="path47700" stroke-linejoin="round" d="m-248.29,304.47-0.45,54.904" stroke="#000" stroke-linecap="butt" stroke-miterlimit="10" stroke-dasharray="none" stroke-width="1.94999993" fill="none"/>
<path id="path47702" d="m-304.46,358.7,68.25,0,0-53.85-68.25,0,0,53.85z" fill-rule="evenodd" fill-opacity="0.70980003" fill="#009"/>
<path id="path47704" stroke-linejoin="round" d="m-227.59,332.22c0-17.062,13.938-30.9,31.125-30.9,17.188,0,31.125,13.838,31.125,30.9,0,17.065-13.938,30.9-31.125,30.9-17.188,0-31.125-13.835-31.125-30.9z" stroke="#000" stroke-linecap="butt" stroke-miterlimit="10" stroke-dasharray="none" stroke-width="1.94999993" fill="none"/>
<path id="path47706" d="m-450.79,330.95,97.5,0,0,1.95-97.5,0,0-1.95zm96.25-2.775,7.5,3.75-7.5,3.75,0-7.5z" fill-rule="nonzero" fill="#009"/>
<g id="g47708" transform="matrix(1.25,0,0,-1.25,-700.01224,473.89567)">
<g id="g47710" clip-path="url(#clipPath47712)">
<text id="text47716" transform="matrix(1,0,0,-1,307.46,73.968)">
<tspan id="tspan47718" style="writing-mode:lr-tb;" font-weight="normal" fill-rule="nonzero" font-size="14.03999996px" font-variant="normal" y="0" x="0 7.8000002 15.6 23.4 31.200001" font-family="Arial" fill="#000000">queue</tspan>
</text>
</g>
</g>
<g id="g47720" transform="matrix(1.25,0,0,-1.25,-700.01224,473.89567)">
<g id="g47722" clip-path="url(#clipPath47724)">
<text id="text47728" transform="matrix(1,0,0,-1,284.52,57.168)">
<tspan id="tspan47730" style="writing-mode:lr-tb;" font-weight="normal" fill-rule="nonzero" font-size="14.03999996px" font-variant="normal" y="0" x="0 4.6753201 14.64372 22.449961 25.566839 29.512079 32.62896 40.4352 48.24144 51.948002 59.754238 64.429558 72.235802 80.042038" font-family="Arial" fill="#000000">(waiting area)</tspan>
</text>
</g>
</g>
<g id="g47732" transform="matrix(1.25,0,0,-1.25,-700.01224,473.89567)">
<g id="g47734" clip-path="url(#clipPath47736)">
<text id="text47740" transform="matrix(1,0,0,-1,219.84,92.856)">
<tspan id="tspan47742" style="writing-mode:lr-tb;" font-weight="normal" fill-rule="nonzero" font-size="14.03999996px" font-variant="normal" y="0" x="0 7.8062401 15.61248 22.660561 29.722679 37.528919" font-family="Arial" fill="#000000">packet</tspan>
</text>
</g>
</g>
<g id="g47744" transform="matrix(1.25,0,0,-1.25,-700.01224,473.89567)">
<g id="g47746" clip-path="url(#clipPath47748)">
<text id="text47752" transform="matrix(1,0,0,-1,218.04,76.056)">
<tspan id="tspan47754" style="writing-mode:lr-tb;" font-weight="normal" fill-rule="nonzero" font-size="14.03999996px" font-variant="normal" y="0" x="0 7.8062401 12.48156 17.156879 20.27376 27.12528 34.931519 38.048401" font-family="Arial" fill="#000000">arrivals</tspan>
</text>
</g>
</g>
<path id="path47756" d="m-145.54,329.6,82.975,0.4375-0.0125,1.95-82.962-0.4375,0-1.95zm81.737-2.35,7.475,3.7875-7.5125,3.7125,0.0375-7.5z" fill-rule="nonzero" fill="#009"/>
<g id="g47758" transform="matrix(1.25,0,0,-1.25,-700.01224,473.89567)">
<g id="g47760" clip-path="url(#clipPath47762)">
<text id="text47766" transform="matrix(1,0,0,-1,471.17,88.968)">
<tspan id="tspan47768" style="writing-mode:lr-tb;" font-weight="normal" fill-rule="nonzero" font-size="14.03999996px" font-variant="normal" y="0" x="0 7.8062401 15.61248 22.660561 29.722679 37.528919" font-family="Arial" fill="#000000">packet</tspan>
</text>
</g>
</g>
<g id="g47770" transform="matrix(1.25,0,0,-1.25,-700.01224,473.89567)">
<g id="g47772" clip-path="url(#clipPath47774)">
<text id="text47778" transform="matrix(1,0,0,-1,458.45,72.168)">
<tspan id="tspan47780" style="writing-mode:lr-tb;" font-weight="normal" fill-rule="nonzero" font-size="14.03999996px" font-variant="normal" y="0" x="0 7.8062401 15.61248 23.41872 31.22496 35.90028 39.803398 47.609638 52.200722 60.006962" font-family="Arial" fill="#000000">departures</tspan>
</text>
</g>
</g>
<g id="g47782" transform="matrix(1.25,0,0,-1.25,-700.01224,473.89567)">
<g id="g47784" clip-path="url(#clipPath47786)">
<text id="text47790" transform="matrix(1,0,0,-1,394.3,73.608)">
<tspan id="tspan47792" style="writing-mode:lr-tb;" font-weight="normal" fill-rule="nonzero" font-size="14.03999996px" font-variant="normal" y="0" x="0 3.1199999 6.2399998 14.04936" font-family="Arial" fill="#000000">link</tspan>
</text>
</g>
</g>
<g id="g47794" transform="matrix(1.25,0,0,-1.25,-700.01224,473.89567)">
<g id="g47796" clip-path="url(#clipPath47798)">
<text id="text47802" transform="matrix(1,0,0,-1,382.66,56.784)">
<tspan id="tspan47804" style="writing-mode:lr-tb;" font-weight="normal" fill-rule="nonzero" font-size="14.03999996px" font-variant="normal" y="0" x="0 4.6753201 11.75148 19.55772 24.23304 31.07052 38.876759 43.552078" font-family="Arial" fill="#000000">(server)</tspan>
</text>
</g>
</g>
<path id="path47806" stroke-linejoin="round" d="m-236.14,331.92,8.6,0.3125" stroke="#000" stroke-linecap="butt" stroke-miterlimit="10" stroke-dasharray="none" stroke-width="1.94999993" fill="none"/>
</g>
</svg>
