<!-- Created with Inkscape (http://www.inkscape.org/) -->
<svg id="svg3671" xmlns:rdf="http://www.w3.org/1999/02/22-rdf-syntax-ns#" xmlns="http://www.w3.org/2000/svg" height="225.44" width="382.24" version="1.1" xmlns:cc="http://creativecommons.org/ns#" xmlns:xlink="http://www.w3.org/1999/xlink" xmlns:dc="http://purl.org/dc/elements/1.1/">
<defs id="defs3673">
<clipPath id="clipPath50512" clipPathUnits="userSpaceOnUse">
<path id="path50514" clip-rule="evenodd" d="M0.000010729,0,720,0v540h-720v-540z"/>
</clipPath>
<clipPath id="clipPath50500" clipPathUnits="userSpaceOnUse">
<path id="path50502" clip-rule="evenodd" d="M0.000010729,0,720,0v540h-720v-540z"/>
</clipPath>
<clipPath id="clipPath50488" clipPathUnits="userSpaceOnUse">
<path id="path50490" clip-rule="evenodd" d="M0.000010729,0,720,0v540h-720v-540z"/>
</clipPath>
<clipPath id="clipPath50476" clipPathUnits="userSpaceOnUse">
<path id="path50478" clip-rule="evenodd" d="M0.000010729,0,720,0v540h-720v-540z"/>
</clipPath>
<clipPath id="clipPath50464" clipPathUnits="userSpaceOnUse">
<path id="path50466" clip-rule="evenodd" d="M0.000010729,0,720,0v540h-720v-540z"/>
</clipPath>
<clipPath id="clipPath50452" clipPathUnits="userSpaceOnUse">
<path id="path50454" clip-rule="evenodd" d="M0.000010729,0,720,0v540h-720v-540z"/>
</clipPath>
<clipPath id="clipPath50434" clipPathUnits="userSpaceOnUse">
<path id="path50436" clip-rule="evenodd" d="M0.000010729,0,720,0v540h-720v-540z"/>
</clipPath>
<clipPath id="clipPath50416" clipPathUnits="userSpaceOnUse">
<path id="path50418" clip-rule="evenodd" d="M0.000010729,0,720,0v540h-720v-540z"/>
</clipPath>
<clipPath id="clipPath50398" clipPathUnits="userSpaceOnUse">
<path id="path50400" clip-rule="evenodd" d="M0.000010729,0,720,0v540h-720v-540z"/>
</clipPath>
<clipPath id="clipPath50380" clipPathUnits="userSpaceOnUse">
<path id="path50382" clip-rule="evenodd" d="M0.000010729,0,720,0v540h-720v-540z"/>
</clipPath>
<clipPath id="clipPath50362" clipPathUnits="userSpaceOnUse">
<path id="path50364" clip-rule="evenodd" d="M0.000010729,0,720,0v540h-720v-540z"/>
</clipPath>
<clipPath id="clipPath50344" clipPathUnits="userSpaceOnUse">
<path id="path50346" clip-rule="evenodd" d="M0.000010729,0,720,0v540h-720v-540z"/>
</clipPath>
<clipPath id="clipPath50326" clipPathUnits="userSpaceOnUse">
<path id="path50328" clip-rule="evenodd" d="M0.000010729,0,720,0v540h-720v-540z"/>
</clipPath>
<clipPath id="clipPath50308" clipPathUnits="userSpaceOnUse">
<path id="path50310" clip-rule="evenodd" d="M0.000010729,0,720,0v540h-720v-540z"/>
</clipPath>
<clipPath id="clipPath50290" clipPathUnits="userSpaceOnUse">
<path id="path50292" clip-rule="evenodd" d="M0.000010729,0,720,0v540h-720v-540z"/>
</clipPath>
<clipPath id="clipPath50272" clipPathUnits="userSpaceOnUse">
<path id="path50274" clip-rule="evenodd" d="M0.000010729,0,720,0v540h-720v-540z"/>
</clipPath>
<clipPath id="clipPath50254" clipPathUnits="userSpaceOnUse">
<path id="path50256" clip-rule="evenodd" d="M0.000010729,0,720,0v540h-720v-540z"/>
</clipPath>
<clipPath id="clipPath50236" clipPathUnits="userSpaceOnUse">
<path id="path50238" clip-rule="evenodd" d="M0.000010729,0,720,0v540h-720v-540z"/>
</clipPath>
<clipPath id="clipPath50218" clipPathUnits="userSpaceOnUse">
<path id="path50220" clip-rule="evenodd" d="M0.000010729,0,720,0v540h-720v-540z"/>
</clipPath>
<clipPath id="clipPath50200" clipPathUnits="userSpaceOnUse">
<path id="path50202" clip-rule="evenodd" d="M0.000010729,0,720,0v540h-720v-540z"/>
</clipPath>
</defs>
<metadata id="metadata3676">
<rdf:RDF>
<cc:Work rdf:about="">
<dc:format>image/svg+xml</dc:format>
<dc:type rdf:resource="http://purl.org/dc/dcmitype/StillImage"/>
<dc:title/>
</cc:Work>
</rdf:RDF>
</metadata>
<g id="layer1" transform="translate(427.02096,-232.78125)">
<path id="path50186" d="m-363.02,318.57,311.56,0,0,2.55-311.56,0,0-2.55zm310.29-2.55,7.65,3.825-7.65,3.825,0-7.65z" fill-rule="nonzero" fill="#000"/>
<path id="path50188" d="m-362.72,394.62,311.56,0,0,2.55-311.56,0,0-2.55zm310.29-2.55,7.65,3.825-7.65,3.825,0-7.65z" fill-rule="nonzero" fill="#000"/>
<path id="path50190" d="m-352.14,394.77,34.05,0,0-74.4-34.05,0,0,74.4z" fill-rule="evenodd" fill="#C00"/>
<path id="path50192" stroke-linejoin="miter" d="m-352.14,394.77,34.05,0,0-74.4-34.05,0,0,74.4z" stroke="#000" stroke-linecap="butt" stroke-miterlimit="10" stroke-dasharray="none" stroke-width="1.5" fill="none"/>
<path id="path50194" d="m-345.84,357.95c0-5.425,4.875-9.825,10.875-9.825s10.875,4.4,10.875,9.825-4.875,9.825-10.875,9.825-10.875-4.4-10.875-9.825z" fill-rule="evenodd" fill="#FFF"/>
<g id="g50196" transform="matrix(1.25,0,0,-1.25,-646.29015,564.12055)">
<g id="g50198" clip-path="url(#clipPath50200)">
<text id="text50204" transform="matrix(1,0,0,-1,244.44,159.31)">
<tspan id="tspan50206" style="writing-mode:lr-tb;" font-weight="normal" fill-rule="nonzero" font-size="15.96000004px" font-variant="normal" y="0" x="0" font-family="Arial" fill="#000000">1</tspan>
</text>
</g>
</g>
<path id="path50208" d="m-283.29,394.47,34.2,0,0-74.4-34.2,0,0,74.4z" fill-rule="evenodd" fill="#C00"/>
<path id="path50210" stroke-linejoin="miter" d="m-283.29,394.47,34.2,0,0-74.4-34.2,0,0,74.4z" stroke="#000" stroke-linecap="butt" stroke-miterlimit="10" stroke-dasharray="none" stroke-width="1.5" fill="none"/>
<path id="path50212" d="m-276.84,357.65c0-5.425,4.875-9.825,10.875-9.825s10.875,4.4,10.875,9.825-4.875,9.825-10.875,9.825-10.875-4.4-10.875-9.825z" fill-rule="evenodd" fill="#FFF"/>
<g id="g50214" transform="matrix(1.25,0,0,-1.25,-646.29015,564.12055)">
<g id="g50216" clip-path="url(#clipPath50218)">
<text id="text50222" transform="matrix(1,0,0,-1,299.64,159.58)">
<tspan id="tspan50224" style="writing-mode:lr-tb;" font-weight="normal" fill-rule="nonzero" font-size="15.98400021px" font-variant="normal" y="0" x="0" font-family="Arial" fill="#000000">2</tspan>
</text>
</g>
</g>
<path id="path50226" d="m-317.79,394.92,34.2,0,0-74.4-34.2,0,0,74.4z" fill-rule="evenodd" fill="#063"/>
<path id="path50228" stroke-linejoin="miter" d="m-317.79,394.92,34.2,0,0-74.4-34.2,0,0,74.4z" stroke="#000" stroke-linecap="butt" stroke-miterlimit="10" stroke-dasharray="none" stroke-width="1.5" fill="none"/>
<path id="path50230" d="m-311.34,358.1c0-5.425,4.875-9.825,10.875-9.825s10.875,4.4,10.875,9.825-4.875,9.825-10.875,9.825-10.875-4.4-10.875-9.825z" fill-rule="evenodd" fill="#FFF"/>
<g id="g50232" transform="matrix(1.25,0,0,-1.25,-646.29015,564.12055)">
<g id="g50234" clip-path="url(#clipPath50236)">
<text id="text50240" transform="matrix(1,0,0,-1,271.99,159.22)">
<tspan id="tspan50242" style="writing-mode:lr-tb;" font-weight="normal" fill-rule="nonzero" font-size="15.96000004px" font-variant="normal" y="0" x="0" font-family="Arial" fill="#000000">3</tspan>
</text>
</g>
</g>
<path id="path50244" d="m-248.34,394.62,34.2,0,0-74.4-34.2,0,0,74.4z" fill-rule="evenodd" fill="#C00"/>
<path id="path50246" stroke-linejoin="miter" d="m-248.34,394.62,34.2,0,0-74.4-34.2,0,0,74.4z" stroke="#000" stroke-linecap="butt" stroke-miterlimit="10" stroke-dasharray="none" stroke-width="1.5" fill="none"/>
<path id="path50248" d="m-241.89,357.8c0-5.425,4.875-9.825,10.875-9.825s10.875,4.4,10.875,9.825-4.875,9.825-10.875,9.825-10.875-4.4-10.875-9.825z" fill-rule="evenodd" fill="#FFF"/>
<g id="g50250" transform="matrix(1.25,0,0,-1.25,-646.29015,564.12055)">
<g id="g50252" clip-path="url(#clipPath50254)">
<text id="text50258" transform="matrix(1,0,0,-1,327.58,159.43)">
<tspan id="tspan50260" style="writing-mode:lr-tb;" font-weight="normal" fill-rule="nonzero" font-size="15.96000004px" font-variant="normal" y="0" x="0" font-family="Arial" fill="#000000">4</tspan>
</text>
</g>
</g>
<path id="path50262" d="m-143.79,395.37,34.2,0,0-74.4-34.2,0,0,74.4z" fill-rule="evenodd" fill="#063"/>
<path id="path50264" stroke-linejoin="miter" d="m-143.79,395.37,34.2,0,0-74.4-34.2,0,0,74.4z" stroke="#000" stroke-linecap="butt" stroke-miterlimit="10" stroke-dasharray="none" stroke-width="1.5" fill="none"/>
<path id="path50266" d="m-137.34,358.62c0-5.4625,4.875-9.9,10.875-9.9s10.875,4.4375,10.875,9.9-4.875,9.9-10.875,9.9-10.875-4.4375-10.875-9.9z" fill-rule="evenodd" fill="#FFF"/>
<g id="g50268" transform="matrix(1.25,0,0,-1.25,-646.29015,564.12055)">
<g id="g50270" clip-path="url(#clipPath50272)">
<text id="text50276" transform="matrix(1,0,0,-1,411.22,158.78)">
<tspan id="tspan50278" style="writing-mode:lr-tb;" font-weight="normal" fill-rule="nonzero" font-size="15.96000004px" font-variant="normal" y="0" x="0" font-family="Arial" fill="#000000">5</tspan>
</text>
</g>
</g>
<path id="path50280" d="m-142.89,281.41,1,29.525-2.25,0.075-1-29.525,2.25-0.075zm3.575,28.188-3.5,7.625-4-7.375,7.5-0.25z" fill-rule="nonzero" fill="#063"/>
<path id="path50282" d="m-154.59,270.05c0-5.425,4.875-9.825,10.875-9.825s10.875,4.4,10.875,9.825-4.875,9.825-10.875,9.825-10.875-4.4-10.875-9.825z" fill-rule="evenodd" fill="#FFF"/>
<path id="path50284" stroke-linejoin="round" d="m-154.59,270.05c0-5.425,4.875-9.825,10.875-9.825s10.875,4.4,10.875,9.825-4.875,9.825-10.875,9.825-10.875-4.4-10.875-9.825z" stroke="#063" stroke-linecap="butt" stroke-miterlimit="10" stroke-dasharray="none" stroke-width="1.5" fill="none"/>
<g id="g50286" transform="matrix(1.25,0,0,-1.25,-646.29015,564.12055)">
<g id="g50288" clip-path="url(#clipPath50290)">
<text id="text50294" transform="matrix(1,0,0,-1,397.1,229.97)">
<tspan id="tspan50296" style="writing-mode:lr-tb;" font-weight="normal" fill-rule="nonzero" font-size="15.96000004px" font-variant="normal" y="0" x="0" font-family="Arial" fill="#000000">5</tspan>
</text>
</g>
</g>
<path id="path50298" d="m-108.99,396.91,1,29.525-2.25,0.075-1-29.525,2.25-0.075zm3.575,28.188-3.5,7.625-4-7.375,7.5-0.25z" fill-rule="nonzero" fill="#063"/>
<path id="path50300" d="m-119.19,447.65c0-5.4262,4.8375-9.825,10.8-9.825s10.8,4.3988,10.8,9.825-4.8375,9.825-10.8,9.825-10.8-4.3988-10.8-9.825z" fill-rule="evenodd" fill="#FFF"/>
<path id="path50302" stroke-linejoin="round" d="m-119.19,447.65c0-5.4262,4.8375-9.825,10.8-9.825s10.8,4.3988,10.8,9.825-4.8375,9.825-10.8,9.825-10.8-4.3988-10.8-9.825z" stroke="#063" stroke-linecap="butt" stroke-miterlimit="10" stroke-dasharray="none" stroke-width="1.5" fill="none"/>
<g id="g50304" transform="matrix(1.25,0,0,-1.25,-646.29015,564.12055)">
<g id="g50306" clip-path="url(#clipPath50308)">
<text id="text50312" transform="matrix(1,0,0,-1,425.38,87.84)">
<tspan id="tspan50314" style="writing-mode:lr-tb;" font-weight="normal" fill-rule="nonzero" font-size="15.96000004px" font-variant="normal" y="0" x="0" font-family="Arial" fill="#000000">5</tspan>
</text>
</g>
</g>
<path id="path50316" d="m-339.24,253.67,1.1,58.075-2.25,0.05-1.1-58.075,2.25-0.05zm3.7,56.775-3.6,7.575-3.9-7.425,7.5-0.15z" fill-rule="nonzero" fill="#C00"/>
<path id="path50318" d="m-350.79,243.35c0-5.425,4.8375-9.825,10.8-9.825s10.8,4.4,10.8,9.825-4.8375,9.825-10.8,9.825-10.8-4.4-10.8-9.825z" fill-rule="evenodd" fill="#FFF"/>
<path id="path50320" stroke-linejoin="round" d="m-350.79,243.35c0-5.425,4.8375-9.825,10.8-9.825s10.8,4.4,10.8,9.825-4.8375,9.825-10.8,9.825-10.8-4.4-10.8-9.825z" stroke="#C00" stroke-linecap="butt" stroke-miterlimit="10" stroke-dasharray="none" stroke-width="1.5" fill="none"/>
<g id="g50322" transform="matrix(1.25,0,0,-1.25,-646.29015,564.12055)">
<g id="g50324" clip-path="url(#clipPath50326)">
<text id="text50330" transform="matrix(1,0,0,-1,241.03,251.35)">
<tspan id="tspan50332" style="writing-mode:lr-tb;" font-weight="normal" fill-rule="nonzero" font-size="15.96000004px" font-variant="normal" y="0" x="0" font-family="Arial" fill="#000000">2</tspan>
</text>
</g>
</g>
<path id="path50334" d="m-282.39,396.76,1,29.525-2.25,0.075-1-29.525,2.25-0.075zm3.575,28.188-3.5,7.625-4-7.375,7.5-0.25z" fill-rule="nonzero" fill="#063"/>
<path id="path50336" d="m-292.89,447.35c0-5.4262,4.875-9.825,10.875-9.825s10.875,4.3988,10.875,9.825-4.875,9.825-10.875,9.825-10.875-4.3988-10.875-9.825z" fill-rule="evenodd" fill="#FFF"/>
<path id="path50338" stroke-linejoin="round" d="m-292.89,447.35c0-5.4262,4.875-9.825,10.875-9.825s10.875,4.3988,10.875,9.825-4.875,9.825-10.875,9.825-10.875-4.3988-10.875-9.825z" stroke="#063" stroke-linecap="butt" stroke-miterlimit="10" stroke-dasharray="none" stroke-width="1.5" fill="none"/>
<g id="g50340" transform="matrix(1.25,0,0,-1.25,-646.29015,564.12055)">
<g id="g50342" clip-path="url(#clipPath50344)">
<text id="text50348" transform="matrix(1,0,0,-1,287.09,88.104)">
<tspan id="tspan50350" style="writing-mode:lr-tb;" font-weight="normal" fill-rule="nonzero" font-size="15.96000004px" font-variant="normal" y="0" x="0" font-family="Arial" fill="#000000">3</tspan>
</text>
</g>
</g>
<path id="path50352" d="m-353.34,281.56,1,29.525-2.25,0.075-1-29.525,2.25-0.075zm3.575,28.188-3.5,7.625-4-7.375,7.5-0.25z" fill-rule="nonzero" fill="#C00"/>
<path id="path50354" d="m-364.74,271.7c0-5.425,4.875-9.825,10.875-9.825s10.875,4.4,10.875,9.825-4.875,9.825-10.875,9.825-10.875-4.4-10.875-9.825z" fill-rule="evenodd" fill="#FFF"/>
<path id="path50356" stroke-linejoin="round" d="m-364.74,271.7c0-5.425,4.875-9.825,10.875-9.825s10.875,4.4,10.875,9.825-4.875,9.825-10.875,9.825-10.875-4.4-10.875-9.825z" stroke="#C00" stroke-linecap="butt" stroke-miterlimit="10" stroke-dasharray="none" stroke-width="1.5" fill="none"/>
<g id="g50358" transform="matrix(1.25,0,0,-1.25,-646.29015,564.12055)">
<g id="g50360" clip-path="url(#clipPath50362)">
<text id="text50366" transform="matrix(1,0,0,-1,228.98,228.67)">
<tspan id="tspan50368" style="writing-mode:lr-tb;" font-weight="normal" fill-rule="nonzero" font-size="15.98400021px" font-variant="normal" y="0" x="0" font-family="Arial" fill="#000000">1</tspan>
</text>
</g>
</g>
<path id="path50370" d="m-316.44,397.81,1,29.525-2.25,0.075-1-29.525,2.25-0.075zm3.575,28.188-3.5,7.625-4-7.375,7.5-0.25z" fill-rule="nonzero" fill="#C00"/>
<path id="path50372" d="m-327.09,446.9c0-5.4262,4.875-9.825,10.875-9.825s10.875,4.3988,10.875,9.825-4.875,9.825-10.875,9.825-10.875-4.3988-10.875-9.825z" fill-rule="evenodd" fill="#FFF"/>
<path id="path50374" stroke-linejoin="round" d="m-327.09,446.9c0-5.4262,4.875-9.825,10.875-9.825s10.875,4.3988,10.875,9.825-4.875,9.825-10.875,9.825-10.875-4.3988-10.875-9.825z" stroke="#C00" stroke-linecap="butt" stroke-miterlimit="10" stroke-dasharray="none" stroke-width="1.5" fill="none"/>
<g id="g50376" transform="matrix(1.25,0,0,-1.25,-646.29015,564.12055)">
<g id="g50378" clip-path="url(#clipPath50380)">
<text id="text50384" transform="matrix(1,0,0,-1,259.06,88.44)">
<tspan id="tspan50386" style="writing-mode:lr-tb;" font-weight="normal" fill-rule="nonzero" font-size="15.96000004px" font-variant="normal" y="0" x="0" font-family="Arial" fill="#000000">1</tspan>
</text>
</g>
</g>
<path id="path50388" d="m-326.64,283.36,1,29.525-2.25,0.075-1-29.525,2.25-0.075zm3.575,28.188-3.5,7.625-4-7.375,7.5-0.25z" fill-rule="nonzero" fill="#063"/>
<path id="path50390" d="m-337.89,273.27c0-5.4625,4.875-9.9,10.875-9.9s10.875,4.4375,10.875,9.9-4.875,9.9-10.875,9.9-10.875-4.4375-10.875-9.9z" fill-rule="evenodd" fill="#FFF"/>
<path id="path50392" stroke-linejoin="round" d="m-337.89,273.27c0-5.4625,4.875-9.9,10.875-9.9s10.875,4.4375,10.875,9.9-4.875,9.9-10.875,9.9-10.875-4.4375-10.875-9.9z" stroke="#063" stroke-linecap="butt" stroke-miterlimit="10" stroke-dasharray="none" stroke-width="1.5" fill="none"/>
<g id="g50394" transform="matrix(1.25,0,0,-1.25,-646.29015,564.12055)">
<g id="g50396" clip-path="url(#clipPath50398)">
<text id="text50402" transform="matrix(1,0,0,-1,251.4,227.06)">
<tspan id="tspan50404" style="writing-mode:lr-tb;" font-weight="normal" fill-rule="nonzero" font-size="15.96000004px" font-variant="normal" y="0" x="0" font-family="Arial" fill="#000000">3</tspan>
</text>
</g>
</g>
<path id="path50406" d="m-246.84,396.46,1,29.525-2.25,0.075-1-29.525,2.25-0.075zm3.575,28.188-3.5,7.625-4-7.375,7.5-0.25z" fill-rule="nonzero" fill="#C00"/>
<path id="path50408" d="m-257.34,446.6c0-5.4262,4.875-9.825,10.875-9.825s10.875,4.3988,10.875,9.825-4.875,9.825-10.875,9.825-10.875-4.3988-10.875-9.825z" fill-rule="evenodd" fill="#FFF"/>
<path id="path50410" stroke-linejoin="round" d="m-257.34,446.6c0-5.4262,4.875-9.825,10.875-9.825s10.875,4.3988,10.875,9.825-4.875,9.825-10.875,9.825-10.875-4.3988-10.875-9.825z" stroke="#C00" stroke-linecap="butt" stroke-miterlimit="10" stroke-dasharray="none" stroke-width="1.5" fill="none"/>
<g id="g50412" transform="matrix(1.25,0,0,-1.25,-646.29015,564.12055)">
<g id="g50414" clip-path="url(#clipPath50416)">
<text id="text50420" transform="matrix(1,0,0,-1,315.58,88.68)">
<tspan id="tspan50422" style="writing-mode:lr-tb;" font-weight="normal" fill-rule="nonzero" font-size="15.96000004px" font-variant="normal" y="0" x="0" font-family="Arial" fill="#000000">3</tspan>
</text>
</g>
</g>
<path id="path50424" d="m-213.24,396.16,1,29.525-2.25,0.075-1-29.525,2.25-0.075zm3.575,28.188-3.5,7.625-4-7.375,7.5-0.25z" fill-rule="nonzero" fill="#C00"/>
<path id="path50426" d="m-223.89,447.35c0-5.4262,4.875-9.825,10.875-9.825s10.875,4.3988,10.875,9.825-4.875,9.825-10.875,9.825-10.875-4.3988-10.875-9.825z" fill-rule="evenodd" fill="#FFF"/>
<path id="path50428" stroke-linejoin="round" d="m-223.89,447.35c0-5.4262,4.875-9.825,10.875-9.825s10.875,4.3988,10.875,9.825-4.875,9.825-10.875,9.825-10.875-4.3988-10.875-9.825z" stroke="#C00" stroke-linecap="butt" stroke-miterlimit="10" stroke-dasharray="none" stroke-width="1.5" fill="none"/>
<g id="g50430" transform="matrix(1.25,0,0,-1.25,-646.29015,564.12055)">
<g id="g50432" clip-path="url(#clipPath50434)">
<text id="text50438" transform="matrix(1,0,0,-1,342.29,88.104)">
<tspan id="tspan50440" style="writing-mode:lr-tb;" font-weight="normal" fill-rule="nonzero" font-size="15.96000004px" font-variant="normal" y="0" x="0" font-family="Arial" fill="#000000">4</tspan>
</text>
</g>
</g>
<path id="path50442" d="m-264.39,281.71,1,29.525-2.25,0.075-1-29.525,2.25-0.075zm3.575,28.188-3.5,7.625-4-7.375,7.5-0.25z" fill-rule="nonzero" fill="#C00"/>
<path id="path50444" d="m-276.69,271.25c0-5.425,4.875-9.825,10.875-9.825s10.875,4.4,10.875,9.825-4.875,9.825-10.875,9.825-10.875-4.4-10.875-9.825z" fill-rule="evenodd" fill="#FFF"/>
<path id="path50446" stroke-linejoin="round" d="m-276.69,271.25c0-5.425,4.875-9.825,10.875-9.825s10.875,4.4,10.875,9.825-4.875,9.825-10.875,9.825-10.875-4.4-10.875-9.825z" stroke="#C00" stroke-linecap="butt" stroke-miterlimit="10" stroke-dasharray="none" stroke-width="1.5" fill="none"/>
<g id="g50448" transform="matrix(1.25,0,0,-1.25,-646.29015,564.12055)">
<g id="g50450" clip-path="url(#clipPath50452)">
<text id="text50456" transform="matrix(1,0,0,-1,300.1,229.01)">
<tspan id="tspan50458" style="writing-mode:lr-tb;" font-weight="normal" fill-rule="nonzero" font-size="15.96000004px" font-variant="normal" y="0" x="0" font-family="Arial" fill="#000000">4</tspan>
</text>
</g>
</g>
<g id="g50460" transform="matrix(1.25,0,0,-1.25,-646.29015,564.12055)">
<g id="g50462" clip-path="url(#clipPath50464)">
<text id="text50468" transform="matrix(1,0,0,-1,175.1,209.59)">
<tspan id="tspan50470" style="writing-mode:lr-tb;" font-weight="normal" fill-rule="nonzero" font-size="14.03999996px" font-style="italic" font-variant="normal" y="0" x="0 7.8062401 12.48156 17.156879 20.27376 27.34992 35.156158 38.273041" font-family="Arial" fill="#000000">arrivals</tspan>
</text>
</g>
</g>
<g id="g50472" transform="matrix(1.25,0,0,-1.25,-646.29015,564.12055)">
<g id="g50474" clip-path="url(#clipPath50476)">
<text id="text50480" transform="matrix(1,0,0,-1,176.98,115.2)">
<tspan id="tspan50482" style="writing-mode:lr-tb;" font-weight="normal" fill-rule="nonzero" font-size="14.03999996px" font-style="italic" font-variant="normal" y="0" x="0 7.8062401 15.61248 23.41872 31.22496 35.90028 39.803398 47.609638 52.200722 60.006962" font-family="Arial" fill="#000000">departures</tspan>
</text>
</g>
</g>
<g id="g50484" transform="matrix(1.25,0,0,-1.25,-646.29015,564.12055)">
<g id="g50486" clip-path="url(#clipPath50488)">
<text id="text50492" transform="matrix(1,0,0,-1,184.66,173.57)">
<tspan id="tspan50494" style="writing-mode:lr-tb;" font-weight="normal" fill-rule="nonzero" font-size="14.06400013px" font-style="italic" font-variant="normal" y="0" x="0 7.8195839 15.639168 22.671167 29.745359 37.564945 41.474735" font-family="Arial" fill="#000000">packet</tspan>
</text>
</g>
</g>
<g id="g50496" transform="matrix(1.25,0,0,-1.25,-646.29015,564.12055)">
<g id="g50498" clip-path="url(#clipPath50500)">
<text id="text50504" transform="matrix(1,0,0,-1,199.9,160.58)">
<tspan id="tspan50506" style="writing-mode:lr-tb;" font-weight="normal" fill-rule="nonzero" font-size="14.03999996px" font-style="italic" font-variant="normal" y="0" x="0 3.1199999 10.92936" font-family="Arial" fill="#000000">in</tspan>
</text>
</g>
</g>
<g id="g50508" transform="matrix(1.25,0,0,-1.25,-646.29015,564.12055)">
<g id="g50510" clip-path="url(#clipPath50512)">
<text id="text50516" transform="matrix(1,0,0,-1,183.1,147.62)">
<tspan id="tspan50518" style="writing-mode:lr-tb;" font-weight="normal" fill-rule="nonzero" font-size="14.03999996px" font-style="italic" font-variant="normal" y="0" x="0 7.06212 14.86836 19.54368 26.605801 29.722679 36.784801" font-family="Arial" fill="#000000">service</tspan>
</text>
</g>
</g>
</g>
</svg>
