<?xml version="1.0" encoding="UTF-8" standalone="no"?>
<!-- Created with Inkscape (http://www.inkscape.org/) -->

<svg
   xmlns:dc="http://purl.org/dc/elements/1.1/"
   xmlns:cc="http://creativecommons.org/ns#"
   xmlns:rdf="http://www.w3.org/1999/02/22-rdf-syntax-ns#"
   xmlns:svg="http://www.w3.org/2000/svg"
   xmlns="http://www.w3.org/2000/svg"
   xmlns:sodipodi="http://sodipodi.sourceforge.net/DTD/sodipodi-0.dtd"
   xmlns:inkscape="http://www.inkscape.org/namespaces/inkscape"
   width="602.75085"
   height="262.75183"
   id="svg3250"
   version="1.1"
   inkscape:version="0.48.5 r10040"
viewBox="0 0 602.750850 262.751830"
   sodipodi:docname="CaminhoMPLS.svg">
<defs><style type="text/css">@import url(https://fonts.googleapis.com/css?family=Lora:400,400italic,700,700italic)</style></defs>
  <defs
     id="defs3252">
    <linearGradient
       id="linearGradient4177">
      <stop
         style="stop-color:#8f9e88;stop-opacity:1;"
         offset="0"
         id="stop4179" />
      <stop
         style="stop-color:#ffffff;stop-opacity:0;"
         offset="1"
         id="stop4181" />
    </linearGradient>
    <linearGradient
       x1="284"
       y1="255.63"
       x2="284"
       y2="84.875"
       gradientUnits="userSpaceOnUse"
       spreadMethod="pad"
       id="linearGradient96">
      <stop
         style="stop-opacity:1;stop-color:#ffffff"
         offset="0"
         id="stop98" />
      <stop
         style="stop-opacity:1;stop-color:#ffffff"
         offset="1"
         id="stop100" />
    </linearGradient>
    <linearGradient
       x1="262.47"
       y1="174.27"
       x2="357.92001"
       y2="174.27"
       gradientUnits="userSpaceOnUse"
       spreadMethod="pad"
       id="linearGradient6483">
      <stop
         style="stop-opacity:1;stop-color:#f7dede"
         offset="0"
         id="stop6485" />
      <stop
         style="stop-opacity:1;stop-color:#f0baba"
         offset="0.25"
         id="stop6487" />
      <stop
         style="stop-opacity:1;stop-color:#ea8c8c"
         offset="0.5"
         id="stop6489" />
      <stop
         style="stop-opacity:1;stop-color:#f0baba"
         offset="0.75"
         id="stop6491" />
      <stop
         style="stop-opacity:1;stop-color:#f7dede"
         offset="1"
         id="stop6493" />
    </linearGradient>
    <linearGradient
       x1="400.73999"
       y1="176.11"
       x2="305.26001"
       y2="176.11"
       gradientUnits="userSpaceOnUse"
       spreadMethod="pad"
       id="linearGradient6445">
      <stop
         style="stop-opacity:1;stop-color:#dee6f7"
         offset="0"
         id="stop6447" />
      <stop
         style="stop-opacity:1;stop-color:#baccf0"
         offset="0.25"
         id="stop6449" />
      <stop
         style="stop-opacity:1;stop-color:#8cadea"
         offset="0.5"
         id="stop6451" />
      <stop
         style="stop-opacity:1;stop-color:#baccf0"
         offset="0.75"
         id="stop6453" />
      <stop
         style="stop-opacity:1;stop-color:#dee6f7"
         offset="1"
         id="stop6455" />
    </linearGradient>
  </defs>
  <sodipodi:namedview
     id="base"
     pagecolor="#ffffff"
     bordercolor="#666666"
     borderopacity="1.0"
     inkscape:pageopacity="0.0"
     inkscape:pageshadow="2"
     inkscape:zoom="1.4"
     inkscape:cx="476.27934"
     inkscape:cy="131.34077"
     inkscape:document-units="px"
     inkscape:current-layer="layer1"
     showgrid="false"
     inkscape:window-width="1920"
     inkscape:window-height="1027"
     inkscape:window-x="0"
     inkscape:window-y="31"
     inkscape:window-maximized="1"
     fit-margin-top="1.1"
     fit-margin-bottom="1"
     fit-margin-right="1"
     fit-margin-left="1" />
  <metadata
     id="metadata3255">
    <rdf:RDF>
      <cc:Work
         rdf:about="">
        <dc:format>image/svg+xml</dc:format>
        <dc:type
           rdf:resource="http://purl.org/dc/dcmitype/StillImage" />
        <dc:title></dc:title>
      </cc:Work>
    </rdf:RDF>
  </metadata>
  <g
     inkscape:label="Layer 1"
     inkscape:groupmode="layer"
     id="layer1"
     transform="translate(-96.269825,-418.44613)">
    <path
       inkscape:connector-curvature="0"
       d="m 533.36982,621.63113 c 0,-6.53 16.75,-11.8225 37.4125,-11.8225 l 0,0 c 20.675,0 37.425,5.2925 37.425,11.8225 0,0 0,0 0,0 l 0,0 c 0,6.52875 -16.75,11.82125 -37.425,11.82125 0,0 0,0 0,0 l 0,0 c -20.6625,0 -37.4125,-5.2925 -37.4125,-11.82125 0,0 0,0 0,0 z"
       style="fill:#ccccff;fill-opacity:1;fill-rule:evenodd;stroke:none"
       id="path6231" />
    <path
       inkscape:connector-curvature="0"
       d="m 533.36982,621.63113 c 0,-6.53 16.75,-11.8225 37.4125,-11.8225 l 0,0 c 20.675,0 37.425,5.2925 37.425,11.8225 0,0 0,0 0,0 l 0,0 c 0,6.52875 -16.75,11.82125 -37.425,11.82125 0,0 0,0 0,0 l 0,0 c -20.6625,0 -37.4125,-5.2925 -37.4125,-11.82125 0,0 0,0 0,0 z"
       style="fill:none;stroke:#000000;stroke-width:1.25;stroke-linecap:butt;stroke-linejoin:round;stroke-miterlimit:10;stroke-opacity:1;stroke-dasharray:none"
       id="path6233" />
    <path
       inkscape:connector-curvature="0"
       d="m 533.36982,607.85863 0,14.625"
       style="fill:none;stroke:#000000;stroke-width:1.25;stroke-linecap:butt;stroke-linejoin:round;stroke-miterlimit:10;stroke-opacity:1;stroke-dasharray:none"
       id="path6235" />
    <path
       inkscape:connector-curvature="0"
       d="m 608.20732,607.85863 0,14.625"
       style="fill:none;stroke:#000000;stroke-width:1.25;stroke-linecap:butt;stroke-linejoin:round;stroke-miterlimit:10;stroke-opacity:1;stroke-dasharray:none"
       id="path6237" />
    <path
       inkscape:connector-curvature="0"
       d="m 533.36982,622.23988 74.21125,0 0,-14.38125 -74.21125,0 0,14.38125 z"
       style="fill:#ccccff;fill-opacity:1;fill-rule:evenodd;stroke:none"
       id="path6239" />
    <path
       inkscape:connector-curvature="0"
       d="m 532.74482,604.56863 c 0,-7.60625 16.75,-13.7725 37.4125,-13.7725 l 0,0 c 20.6625,0 37.425,6.16625 37.425,13.7725 0,0 0,0 0,0 l 0,0 c 0,7.605 -16.7625,13.77125 -37.425,13.77125 0,0 0,0 0,0 l 0,0 c -20.6625,0 -37.4125,-6.16625 -37.4125,-13.77125 0,0 0,0 0,0 z"
       style="fill:#ccccff;fill-opacity:1;fill-rule:evenodd;stroke:none"
       id="path6241" />
    <path
       inkscape:connector-curvature="0"
       d="m 532.74482,604.56863 c 0,-7.60625 16.75,-13.7725 37.4125,-13.7725 l 0,0 c 20.6625,0 37.425,6.16625 37.425,13.7725 0,0 0,0 0,0 l 0,0 c 0,7.605 -16.7625,13.77125 -37.425,13.77125 0,0 0,0 0,0 l 0,0 c -20.6625,0 -37.4125,-6.16625 -37.4125,-13.77125 0,0 0,0 0,0 z"
       style="fill:none;stroke:#000000;stroke-width:1.25;stroke-linecap:butt;stroke-linejoin:round;stroke-miterlimit:10;stroke-opacity:1;stroke-dasharray:none"
       id="path6243" />
    <path
       inkscape:connector-curvature="0"
       d="m 550.76982,597.21863 13.25,-0.32875"
       style="fill:none;stroke:#000000;stroke-width:2.8125;stroke-linecap:butt;stroke-linejoin:round;stroke-miterlimit:10;stroke-opacity:1;stroke-dasharray:none"
       id="path6245" />
    <path
       inkscape:connector-curvature="0"
       d="m 576.20732,612.97738 11.6625,0"
       style="fill:none;stroke:#000000;stroke-width:2.8125;stroke-linecap:butt;stroke-linejoin:round;stroke-miterlimit:10;stroke-opacity:1;stroke-dasharray:none"
       id="path6247" />
    <path
       inkscape:connector-curvature="0"
       d="m 562.95732,597.21863 13.7875,15.75875"
       style="fill:none;stroke:#000000;stroke-width:2.8125;stroke-linecap:butt;stroke-linejoin:round;stroke-miterlimit:10;stroke-opacity:1;stroke-dasharray:none"
       id="path6249" />
    <path
       inkscape:connector-curvature="0"
       d="m 550.76982,612.40488 13.25,0.32875"
       style="fill:none;stroke:#000000;stroke-width:2.8125;stroke-linecap:butt;stroke-linejoin:round;stroke-miterlimit:10;stroke-opacity:1;stroke-dasharray:none"
       id="path6251" />
    <path
       inkscape:connector-curvature="0"
       d="m 576.20732,596.64613 11.6625,0"
       style="fill:none;stroke:#000000;stroke-width:2.8125;stroke-linecap:butt;stroke-linejoin:round;stroke-miterlimit:10;stroke-opacity:1;stroke-dasharray:none"
       id="path6253" />
    <path
       inkscape:connector-curvature="0"
       d="m 562.95732,612.40488 13.7875,-15.75875"
       style="fill:none;stroke:#000000;stroke-width:2.8125;stroke-linecap:butt;stroke-linejoin:round;stroke-miterlimit:10;stroke-opacity:1;stroke-dasharray:none"
       id="path6255" />
    <path
       inkscape:connector-curvature="0"
       d="m 353.68232,621.16113 c 0,-6.52875 16.75,-11.82125 37.4125,-11.82125 l 0,0 c 20.675,0 37.425,5.2925 37.425,11.82125 0,0.001 0,0.001 0,0.001 l 0,0 c 0,6.52875 -16.75,11.82125 -37.425,11.82125 0,0 0,0 0,0 l 0,0 c -20.6625,0 -37.4125,-5.2925 -37.4125,-11.82125 0,0 0,0 0,0 l 0,-0.001 z"
       style="fill:#ccccff;fill-opacity:1;fill-rule:evenodd;stroke:none"
       id="path6257" />
    <path
       inkscape:connector-curvature="0"
       d="m 353.68232,621.16113 c 0,-6.52875 16.75,-11.82125 37.4125,-11.82125 l 0,0 c 20.675,0 37.425,5.2925 37.425,11.82125 0,0.001 0,0.001 0,0.001 l 0,0 c 0,6.52875 -16.75,11.82125 -37.425,11.82125 0,0 0,0 0,0 l 0,0 c -20.6625,0 -37.4125,-5.2925 -37.4125,-11.82125 0,0 0,0 0,0 l 0,-0.001 z"
       style="fill:none;stroke:#000000;stroke-width:1.25;stroke-linecap:butt;stroke-linejoin:round;stroke-miterlimit:10;stroke-opacity:1;stroke-dasharray:none"
       id="path6259" />
    <path
       inkscape:connector-curvature="0"
       d="m 353.68232,607.38988 0,14.625"
       style="fill:none;stroke:#000000;stroke-width:1.25;stroke-linecap:butt;stroke-linejoin:round;stroke-miterlimit:10;stroke-opacity:1;stroke-dasharray:none"
       id="path6261" />
    <path
       inkscape:connector-curvature="0"
       d="m 428.51982,607.38988 0,14.625"
       style="fill:none;stroke:#000000;stroke-width:1.25;stroke-linecap:butt;stroke-linejoin:round;stroke-miterlimit:10;stroke-opacity:1;stroke-dasharray:none"
       id="path6263" />
    <path
       inkscape:connector-curvature="0"
       d="m 353.68232,621.77113 74.21125,0 0,-14.38125 -74.21125,0 0,14.38125 z"
       style="fill:#ccccff;fill-opacity:1;fill-rule:evenodd;stroke:none"
       id="path6265" />
    <path
       inkscape:connector-curvature="0"
       d="m 353.05732,604.09863 c 0,-7.605 16.75,-13.765 37.4125,-13.765 l 0,0 c 20.6625,0 37.425,6.16 37.425,13.765 0,0.001 0,0.001 0,0.001 l 0,0 c 0,7.605 -16.7625,13.77125 -37.425,13.77125 0,0 0,0 0,0 l 0,0 c -20.6625,0 -37.4125,-6.16625 -37.4125,-13.77125 0,0 0,0 0,0 l 0,-0.001 z"
       style="fill:#ccccff;fill-opacity:1;fill-rule:evenodd;stroke:none"
       id="path6267" />
    <path
       inkscape:connector-curvature="0"
       d="m 353.05732,604.09863 c 0,-7.605 16.75,-13.765 37.4125,-13.765 l 0,0 c 20.6625,0 37.425,6.16 37.425,13.765 0,0.001 0,0.001 0,0.001 l 0,0 c 0,7.605 -16.7625,13.77125 -37.425,13.77125 0,0 0,0 0,0 l 0,0 c -20.6625,0 -37.4125,-6.16625 -37.4125,-13.77125 0,0 0,0 0,0 l 0,-0.001 z"
       style="fill:none;stroke:#000000;stroke-width:1.25;stroke-linecap:butt;stroke-linejoin:round;stroke-miterlimit:10;stroke-opacity:1;stroke-dasharray:none"
       id="path6269" />
    <path
       inkscape:connector-curvature="0"
       d="m 371.08232,596.74988 13.25,-0.32875"
       style="fill:none;stroke:#000000;stroke-width:2.8125;stroke-linecap:butt;stroke-linejoin:round;stroke-miterlimit:10;stroke-opacity:1;stroke-dasharray:none"
       id="path6271" />
    <path
       inkscape:connector-curvature="0"
       d="m 396.51982,612.50863 11.6625,0"
       style="fill:none;stroke:#000000;stroke-width:2.8125;stroke-linecap:butt;stroke-linejoin:round;stroke-miterlimit:10;stroke-opacity:1;stroke-dasharray:none"
       id="path6273" />
    <path
       inkscape:connector-curvature="0"
       d="m 383.26982,596.74988 13.7875,15.75875"
       style="fill:none;stroke:#000000;stroke-width:2.8125;stroke-linecap:butt;stroke-linejoin:round;stroke-miterlimit:10;stroke-opacity:1;stroke-dasharray:none"
       id="path6275" />
    <path
       inkscape:connector-curvature="0"
       d="m 371.08232,611.93613 13.25,0.32875"
       style="fill:none;stroke:#000000;stroke-width:2.8125;stroke-linecap:butt;stroke-linejoin:round;stroke-miterlimit:10;stroke-opacity:1;stroke-dasharray:none"
       id="path6277" />
    <path
       inkscape:connector-curvature="0"
       d="m 396.51982,596.17738 11.6625,0"
       style="fill:none;stroke:#000000;stroke-width:2.8125;stroke-linecap:butt;stroke-linejoin:round;stroke-miterlimit:10;stroke-opacity:1;stroke-dasharray:none"
       id="path6279" />
    <path
       inkscape:connector-curvature="0"
       d="m 383.26982,611.93613 13.7875,-15.75875"
       style="fill:none;stroke:#000000;stroke-width:2.8125;stroke-linecap:butt;stroke-linejoin:round;stroke-miterlimit:10;stroke-opacity:1;stroke-dasharray:none"
       id="path6281" />
    <path
       inkscape:connector-curvature="0"
       d="m 388.51982,521.00863 c 0,-6.5375 16.7625,-11.825 37.425,-11.825 l 0,0 c 20.6625,0 37.425,5.2875 37.425,11.825 0,0 0,0 0,0 l 0,0 c 0,6.525 -16.7625,11.825 -37.425,11.825 0,0 0,0 0,0 l 0,0 c -20.6625,0 -37.425,-5.3 -37.425,-11.825 0,0 0,0 0,0 z"
       style="fill:#ccccff;fill-opacity:1;fill-rule:evenodd;stroke:none"
       id="path6283" />
    <path
       inkscape:connector-curvature="0"
       d="m 388.51982,521.00863 c 0,-6.5375 16.7625,-11.825 37.425,-11.825 l 0,0 c 20.6625,0 37.425,5.2875 37.425,11.825 0,0 0,0 0,0 l 0,0 c 0,6.525 -16.7625,11.825 -37.425,11.825 0,0 0,0 0,0 l 0,0 c -20.6625,0 -37.425,-5.3 -37.425,-11.825 0,0 0,0 0,0 z"
       style="fill:none;stroke:#000000;stroke-width:1.25;stroke-linecap:butt;stroke-linejoin:round;stroke-miterlimit:10;stroke-opacity:1;stroke-dasharray:none"
       id="path6285" />
    <path
       inkscape:connector-curvature="0"
       d="m 388.51982,507.23363 0,14.625"
       style="fill:none;stroke:#000000;stroke-width:1.25;stroke-linecap:butt;stroke-linejoin:round;stroke-miterlimit:10;stroke-opacity:1;stroke-dasharray:none"
       id="path6287" />
    <path
       inkscape:connector-curvature="0"
       d="m 463.36982,507.23363 0,14.625"
       style="fill:none;stroke:#000000;stroke-width:1.25;stroke-linecap:butt;stroke-linejoin:round;stroke-miterlimit:10;stroke-opacity:1;stroke-dasharray:none"
       id="path6289" />
    <path
       inkscape:connector-curvature="0"
       d="m 388.51982,521.60863 74.21125,0 0,-14.38125 -74.21125,0 0,14.38125 z"
       style="fill:#ccccff;fill-opacity:1;fill-rule:evenodd;stroke:none"
       id="path6291" />
    <path
       inkscape:connector-curvature="0"
       d="m 387.89482,503.94613 c 0,-7.6125 16.75,-13.775 37.425,-13.775 l 0,0 c 20.6625,0 37.4125,6.1625 37.4125,13.775 0,0 0,0 0,0 l 0,0 c 0,7.6 -16.75,13.775 -37.4125,13.775 0,0 0,0 0,0 l 0,0 c -20.675,0 -37.425,-6.175 -37.425,-13.775 0,0 0,0 0,0 z"
       style="fill:#ccccff;fill-opacity:1;fill-rule:evenodd;stroke:none"
       id="path6293" />
    <path
       inkscape:connector-curvature="0"
       d="m 387.89482,503.94613 c 0,-7.6125 16.75,-13.775 37.425,-13.775 l 0,0 c 20.6625,0 37.4125,6.1625 37.4125,13.775 0,0 0,0 0,0 l 0,0 c 0,7.6 -16.75,13.775 -37.4125,13.775 0,0 0,0 0,0 l 0,0 c -20.675,0 -37.425,-6.175 -37.425,-13.775 0,0 0,0 0,0 z"
       style="fill:none;stroke:#000000;stroke-width:1.25;stroke-linecap:butt;stroke-linejoin:round;stroke-miterlimit:10;stroke-opacity:1;stroke-dasharray:none"
       id="path6295" />
    <path
       inkscape:connector-curvature="0"
       d="m 405.91982,496.59613 13.25,-0.3375"
       style="fill:none;stroke:#000000;stroke-width:2.8125;stroke-linecap:butt;stroke-linejoin:round;stroke-miterlimit:10;stroke-opacity:1;stroke-dasharray:none"
       id="path6297" />
    <path
       inkscape:connector-curvature="0"
       d="m 431.36982,512.34613 11.6625,0"
       style="fill:none;stroke:#000000;stroke-width:2.8125;stroke-linecap:butt;stroke-linejoin:round;stroke-miterlimit:10;stroke-opacity:1;stroke-dasharray:none"
       id="path6299" />
    <path
       inkscape:connector-curvature="0"
       d="m 418.11982,496.59613 13.775,15.75"
       style="fill:none;stroke:#000000;stroke-width:2.8125;stroke-linecap:butt;stroke-linejoin:round;stroke-miterlimit:10;stroke-opacity:1;stroke-dasharray:none"
       id="path6301" />
    <path
       inkscape:connector-curvature="0"
       d="m 405.91982,511.78363 13.25,0.325"
       style="fill:none;stroke:#000000;stroke-width:2.8125;stroke-linecap:butt;stroke-linejoin:round;stroke-miterlimit:10;stroke-opacity:1;stroke-dasharray:none"
       id="path6303" />
    <path
       inkscape:connector-curvature="0"
       d="m 431.36982,496.02113 11.6625,0"
       style="fill:none;stroke:#000000;stroke-width:2.8125;stroke-linecap:butt;stroke-linejoin:round;stroke-miterlimit:10;stroke-opacity:1;stroke-dasharray:none"
       id="path6305" />
    <path
       inkscape:connector-curvature="0"
       d="m 418.11982,511.78363 13.775,-15.7625"
       style="fill:none;stroke:#000000;stroke-width:2.8125;stroke-linecap:butt;stroke-linejoin:round;stroke-miterlimit:10;stroke-opacity:1;stroke-dasharray:none"
       id="path6307" />
    <path
       inkscape:connector-curvature="0"
       d="m 248.05732,520.53363 c 0,-6.525 16.75,-11.8125 37.4125,-11.8125 l 0,0 c 20.675,0 37.425,5.2875 37.425,11.8125 0,0 0,0 0,0 l 0,0 c 0,6.5375 -16.75,11.825 -37.425,11.825 0,0 0,0 0,0 l 0,0 c -20.6625,0 -37.4125,-5.2875 -37.4125,-11.825 0,0 0,0 0,0 z"
       style="fill:#ccccff;fill-opacity:1;fill-rule:evenodd;stroke:none"
       id="path6309" />
    <path
       inkscape:connector-curvature="0"
       d="m 248.05732,520.53363 c 0,-6.525 16.75,-11.8125 37.4125,-11.8125 l 0,0 c 20.675,0 37.425,5.2875 37.425,11.8125 0,0 0,0 0,0 l 0,0 c 0,6.5375 -16.75,11.825 -37.425,11.825 0,0 0,0 0,0 l 0,0 c -20.6625,0 -37.4125,-5.2875 -37.4125,-11.825 0,0 0,0 0,0 z"
       style="fill:none;stroke:#000000;stroke-width:1.25;stroke-linecap:butt;stroke-linejoin:round;stroke-miterlimit:10;stroke-opacity:1;stroke-dasharray:none"
       id="path6311" />
    <path
       inkscape:connector-curvature="0"
       d="m 248.05732,506.77113 0,14.625"
       style="fill:none;stroke:#000000;stroke-width:1.25;stroke-linecap:butt;stroke-linejoin:round;stroke-miterlimit:10;stroke-opacity:1;stroke-dasharray:none"
       id="path6313" />
    <path
       inkscape:connector-curvature="0"
       d="m 322.89482,506.77113 0,14.625"
       style="fill:none;stroke:#000000;stroke-width:1.25;stroke-linecap:butt;stroke-linejoin:round;stroke-miterlimit:10;stroke-opacity:1;stroke-dasharray:none"
       id="path6315" />
    <path
       inkscape:connector-curvature="0"
       d="m 248.05732,521.14613 74.21125,0 0,-14.38125 -74.21125,0 0,14.38125 z"
       style="fill:#ccccff;fill-opacity:1;fill-rule:evenodd;stroke:none"
       id="path6317" />
    <path
       inkscape:connector-curvature="0"
       d="m 247.43232,503.47113 c 0,-7.6 16.75,-13.7625 37.4125,-13.7625 l 0,0 c 20.6625,0 37.425,6.1625 37.425,13.7625 0,0 0,0 0,0 l 0,0 c 0,7.6125 -16.7625,13.775 -37.425,13.775 0,0 0,0 0,0 l 0,0 c -20.6625,0 -37.4125,-6.1625 -37.4125,-13.775 0,0 0,0 0,0 z"
       style="fill:#ccccff;fill-opacity:1;fill-rule:evenodd;stroke:none"
       id="path6319" />
    <path
       inkscape:connector-curvature="0"
       d="m 247.43232,503.47113 c 0,-7.6 16.75,-13.7625 37.4125,-13.7625 l 0,0 c 20.6625,0 37.425,6.1625 37.425,13.7625 0,0 0,0 0,0 l 0,0 c 0,7.6125 -16.7625,13.775 -37.425,13.775 0,0 0,0 0,0 l 0,0 c -20.6625,0 -37.4125,-6.1625 -37.4125,-13.775 0,0 0,0 0,0 z"
       style="fill:none;stroke:#000000;stroke-width:1.25;stroke-linecap:butt;stroke-linejoin:round;stroke-miterlimit:10;stroke-opacity:1;stroke-dasharray:none"
       id="path6321" />
    <path
       inkscape:connector-curvature="0"
       d="m 265.45732,496.12113 13.25,-0.325"
       style="fill:none;stroke:#000000;stroke-width:2.8125;stroke-linecap:butt;stroke-linejoin:round;stroke-miterlimit:10;stroke-opacity:1;stroke-dasharray:none"
       id="path6323" />
    <path
       inkscape:connector-curvature="0"
       d="m 290.89482,511.88363 11.6625,0"
       style="fill:none;stroke:#000000;stroke-width:2.8125;stroke-linecap:butt;stroke-linejoin:round;stroke-miterlimit:10;stroke-opacity:1;stroke-dasharray:none"
       id="path6325" />
    <path
       inkscape:connector-curvature="0"
       d="m 277.64482,496.12113 13.7875,15.7625"
       style="fill:none;stroke:#000000;stroke-width:2.8125;stroke-linecap:butt;stroke-linejoin:round;stroke-miterlimit:10;stroke-opacity:1;stroke-dasharray:none"
       id="path6327" />
    <path
       inkscape:connector-curvature="0"
       d="m 265.45732,511.30863 13.25,0.3375"
       style="fill:none;stroke:#000000;stroke-width:2.8125;stroke-linecap:butt;stroke-linejoin:round;stroke-miterlimit:10;stroke-opacity:1;stroke-dasharray:none"
       id="path6329" />
    <path
       inkscape:connector-curvature="0"
       d="m 290.89482,495.55863 11.6625,0"
       style="fill:none;stroke:#000000;stroke-width:2.8125;stroke-linecap:butt;stroke-linejoin:round;stroke-miterlimit:10;stroke-opacity:1;stroke-dasharray:none"
       id="path6331" />
    <path
       inkscape:connector-curvature="0"
       d="m 277.64482,511.30863 13.7875,-15.75"
       style="fill:none;stroke:#000000;stroke-width:2.8125;stroke-linecap:butt;stroke-linejoin:round;stroke-miterlimit:10;stroke-opacity:1;stroke-dasharray:none"
       id="path6333" />
    <path
       inkscape:connector-curvature="0"
       d="m 98.519825,451.03363 c 0,-6.5125 16.749995,-11.8 37.424995,-11.8 l 0,0 c 20.6625,0 37.425,5.2875 37.425,11.8 0,0 0,0 0,0 l 0,0 c 0,6.5125 -16.7625,11.8 -37.425,11.8 0,0 0,0 0,0 l 0,0 c -20.675,0 -37.424995,-5.2875 -37.424995,-11.8 0,0 0,0 0,0 z"
       style="fill:#ffffff;fill-opacity:1;fill-rule:evenodd;stroke:none"
       id="path6335" />
    <path
       inkscape:connector-curvature="0"
       d="m 98.519825,451.03363 c 0,-6.5125 16.749995,-11.8 37.424995,-11.8 l 0,0 c 20.6625,0 37.425,5.2875 37.425,11.8 0,0 0,0 0,0 l 0,0 c 0,6.5125 -16.7625,11.8 -37.425,11.8 0,0 0,0 0,0 l 0,0 c -20.675,0 -37.424995,-5.2875 -37.424995,-11.8 0,0 0,0 0,0 z"
       style="fill:none;stroke:#000000;stroke-width:1.25;stroke-linecap:butt;stroke-linejoin:round;stroke-miterlimit:10;stroke-opacity:1;stroke-dasharray:none"
       id="path6337" />
    <path
       inkscape:connector-curvature="0"
       d="m 98.207325,435.00863 0,16.875"
       style="fill:none;stroke:#000000;stroke-width:1.25;stroke-linecap:butt;stroke-linejoin:round;stroke-miterlimit:10;stroke-opacity:1;stroke-dasharray:none"
       id="path6339" />
    <path
       inkscape:connector-curvature="0"
       d="m 172.74482,433.75863 0.625,17.1875"
       style="fill:none;stroke:#000000;stroke-width:1.25;stroke-linecap:butt;stroke-linejoin:round;stroke-miterlimit:10;stroke-opacity:1;stroke-dasharray:none"
       id="path6341" />
    <path
       inkscape:connector-curvature="0"
       d="m 99.144825,451.57113 73.593745,0 0,-14.375 -73.593745,0 0,14.375 z"
       style="fill:#ffffff;fill-opacity:1;fill-rule:evenodd;stroke:none"
       id="path6343" />
    <path
       inkscape:connector-curvature="0"
       d="m 97.894825,433.92113 c 0,-7.6 16.749995,-13.75 37.424995,-13.75 l 0,0 c 20.6625,0 37.425,6.15 37.425,13.75 0,0 0,0 0,0 l 0,0 c 0,7.6 -16.7625,13.75 -37.425,13.75 0,0 0,0 0,0 l 0,0 c -20.675,0 -37.424995,-6.15 -37.424995,-13.75 0,0 0,0 0,0 z"
       style="fill:#ffffff;fill-opacity:1;fill-rule:evenodd;stroke:none"
       id="path6345" />
    <path
       inkscape:connector-curvature="0"
       d="m 97.894825,433.92113 c 0,-7.6 16.749995,-13.75 37.424995,-13.75 l 0,0 c 20.6625,0 37.425,6.15 37.425,13.75 0,0 0,0 0,0 l 0,0 c 0,7.6 -16.7625,13.75 -37.425,13.75 0,0 0,0 0,0 l 0,0 c -20.675,0 -37.424995,-6.15 -37.424995,-13.75 0,0 0,0 0,0 z"
       style="fill:none;stroke:#000000;stroke-width:1.25;stroke-linecap:butt;stroke-linejoin:round;stroke-miterlimit:10;stroke-opacity:1;stroke-dasharray:none"
       id="path6347" />
    <path
       inkscape:connector-curvature="0"
       d="m 115.86982,426.59613 13.275,-0.325"
       style="fill:none;stroke:#000000;stroke-width:2.8125;stroke-linecap:butt;stroke-linejoin:round;stroke-miterlimit:10;stroke-opacity:1;stroke-dasharray:none"
       id="path6349" />
    <path
       inkscape:connector-curvature="0"
       d="m 141.36982,442.35863 11.6875,0"
       style="fill:none;stroke:#000000;stroke-width:2.8125;stroke-linecap:butt;stroke-linejoin:round;stroke-miterlimit:10;stroke-opacity:1;stroke-dasharray:none"
       id="path6351" />
    <path
       inkscape:connector-curvature="0"
       d="m 128.08232,426.59613 13.8125,15.7625"
       style="fill:none;stroke:#000000;stroke-width:2.8125;stroke-linecap:butt;stroke-linejoin:round;stroke-miterlimit:10;stroke-opacity:1;stroke-dasharray:none"
       id="path6353" />
    <path
       inkscape:connector-curvature="0"
       d="m 115.86982,441.72113 13.275,0.325"
       style="fill:none;stroke:#000000;stroke-width:2.8125;stroke-linecap:butt;stroke-linejoin:round;stroke-miterlimit:10;stroke-opacity:1;stroke-dasharray:none"
       id="path6355" />
    <path
       inkscape:connector-curvature="0"
       d="m 141.36982,425.95863 11.6875,0"
       style="fill:none;stroke:#000000;stroke-width:2.8125;stroke-linecap:butt;stroke-linejoin:round;stroke-miterlimit:10;stroke-opacity:1;stroke-dasharray:none"
       id="path6357" />
    <path
       inkscape:connector-curvature="0"
       d="m 128.08232,441.72113 13.8125,-15.7625"
       style="fill:none;stroke:#000000;stroke-width:2.8125;stroke-linecap:butt;stroke-linejoin:round;stroke-miterlimit:10;stroke-opacity:1;stroke-dasharray:none"
       id="path6359" />
    <path
       inkscape:connector-curvature="0"
       d="m 173.68232,444.07113 75,51.5625"
       style="fill:none;stroke:#000000;stroke-width:0.9375;stroke-linecap:butt;stroke-linejoin:round;stroke-miterlimit:10;stroke-opacity:1;stroke-dasharray:none"
       id="path6361" />
    <path
       inkscape:connector-curvature="0"
       d="m 178.36982,535.94613 72.1875,-22.5"
       style="fill:none;stroke:#000000;stroke-width:0.9375;stroke-linecap:butt;stroke-linejoin:round;stroke-miterlimit:10;stroke-opacity:1;stroke-dasharray:none"
       id="path6363" />
    <path
       inkscape:connector-curvature="0"
       d="m 322.74482,513.44613 65.625,0"
       style="fill:none;stroke:#000000;stroke-width:0.9375;stroke-linecap:butt;stroke-linejoin:round;stroke-miterlimit:10;stroke-opacity:1;stroke-dasharray:none"
       id="path6365" />
    <path
       inkscape:connector-curvature="0"
       d="m 307.74482,529.38363 55.3125,64.69375"
       style="fill:none;stroke:#000000;stroke-width:0.9375;stroke-linecap:butt;stroke-linejoin:round;stroke-miterlimit:10;stroke-opacity:1;stroke-dasharray:none"
       id="path6367" />
    <path
       inkscape:connector-curvature="0"
       d="m 431.49482,615.63988 102.1875,0"
       style="fill:none;stroke:#000000;stroke-width:0.9375;stroke-linecap:butt;stroke-linejoin:round;stroke-miterlimit:10;stroke-opacity:1;stroke-dasharray:none"
       id="path6369" />
    <path
       inkscape:connector-curvature="0"
       d="m 459.61982,524.69613 82.5,70.31875"
       style="fill:none;stroke:#000000;stroke-width:0.9375;stroke-linecap:butt;stroke-linejoin:round;stroke-miterlimit:10;stroke-opacity:1;stroke-dasharray:none"
       id="path6371" />
    <path
       inkscape:connector-curvature="0"
       d="m 608.68232,613.76488 69.0625,0"
       style="fill:none;stroke:#000000;stroke-width:0.9375;stroke-linecap:butt;stroke-linejoin:round;stroke-miterlimit:10;stroke-opacity:1;stroke-dasharray:none"
       id="path6373" />
    <text
       style="font-size:15px"
       y="522.1712"
       x="569.43231"
       id="text6375">
      <tspan
         style="font-size:22.5px;font-variant:normal;font-weight:normal;writing-mode:lr-tb;fill:#000000;fill-opacity:1;fill-rule:nonzero;stroke:none;font-family:Arial;-inkscape-font-specification:Arial"
         x="569.43231"
         y="522.1712"
         id="tspan6377">D</tspan>
    </text>
    <text
       style="font-size:15px"
       y="553.27118"
       x="254.33234"
       id="text6379">
      <tspan
         style="font-size:22.5px;font-variant:normal;font-weight:normal;writing-mode:lr-tb;fill:#000000;fill-opacity:1;fill-rule:nonzero;stroke:none;font-family:Arial;-inkscape-font-specification:Arial"
         x="254.33234 270.58234"
         y="553.27118"
         sodipodi:role="line"
         id="tspan6381">R4</tspan>
    </text>
    <path
       inkscape:connector-curvature="0"
       d="m 103.05732,544.15863 c 0,-6.5125 16.75,-11.8 37.4125,-11.8 l 0,0 c 20.675,0 37.425,5.2875 37.425,11.8 0,0 0,0 0,0 l 0,0 c 0,6.5125 -16.75,11.8 -37.425,11.8 0,0 0,0 0,0 l 0,0 c -20.6625,0 -37.4125,-5.2875 -37.4125,-11.8 0,0 0,0 0,0 z"
       style="fill:#ffffff;fill-opacity:1;fill-rule:evenodd;stroke:none"
       id="path6383" />
    <path
       inkscape:connector-curvature="0"
       d="m 103.05732,544.15863 c 0,-6.5125 16.75,-11.8 37.4125,-11.8 l 0,0 c 20.675,0 37.425,5.2875 37.425,11.8 0,0 0,0 0,0 l 0,0 c 0,6.5125 -16.75,11.8 -37.425,11.8 0,0 0,0 0,0 l 0,0 c -20.6625,0 -37.4125,-5.2875 -37.4125,-11.8 0,0 0,0 0,0 z"
       style="fill:none;stroke:#000000;stroke-width:1.25;stroke-linecap:butt;stroke-linejoin:round;stroke-miterlimit:10;stroke-opacity:1;stroke-dasharray:none"
       id="path6385" />
    <path
       inkscape:connector-curvature="0"
       d="m 102.74482,528.13363 0,16.875"
       style="fill:none;stroke:#000000;stroke-width:1.25;stroke-linecap:butt;stroke-linejoin:round;stroke-miterlimit:10;stroke-opacity:1;stroke-dasharray:none"
       id="path6387" />
    <path
       inkscape:connector-curvature="0"
       d="m 177.26982,526.88363 0.625,17.1875"
       style="fill:none;stroke:#000000;stroke-width:1.25;stroke-linecap:butt;stroke-linejoin:round;stroke-miterlimit:10;stroke-opacity:1;stroke-dasharray:none"
       id="path6389" />
    <path
       inkscape:connector-curvature="0"
       d="m 103.68232,544.69613 73.59375,0 0,-14.375 -73.59375,0 0,14.375 z"
       style="fill:#ffffff;fill-opacity:1;fill-rule:evenodd;stroke:none"
       id="path6391" />
    <path
       inkscape:connector-curvature="0"
       d="m 102.43232,527.04613 c 0,-7.6 16.75,-13.75 37.4125,-13.75 l 0,0 c 20.675,0 37.425,6.15 37.425,13.75 0,0 0,0 0,0 l 0,0 c 0,7.6 -16.75,13.75 -37.425,13.75 0,0 0,0 0,0 l 0,0 c -20.6625,0 -37.4125,-6.15 -37.4125,-13.75 0,0 0,0 0,0 z"
       style="fill:#ffffff;fill-opacity:1;fill-rule:evenodd;stroke:none"
       id="path6393" />
    <path
       inkscape:connector-curvature="0"
       d="m 102.43232,527.04613 c 0,-7.6 16.75,-13.75 37.4125,-13.75 l 0,0 c 20.675,0 37.425,6.15 37.425,13.75 0,0 0,0 0,0 l 0,0 c 0,7.6 -16.75,13.75 -37.425,13.75 0,0 0,0 0,0 l 0,0 c -20.6625,0 -37.4125,-6.15 -37.4125,-13.75 0,0 0,0 0,0 z"
       style="fill:none;stroke:#000000;stroke-width:1.25;stroke-linecap:butt;stroke-linejoin:round;stroke-miterlimit:10;stroke-opacity:1;stroke-dasharray:none"
       id="path6395" />
    <path
       inkscape:connector-curvature="0"
       d="m 120.39482,519.72113 13.2875,-0.3375"
       style="fill:none;stroke:#000000;stroke-width:2.8125;stroke-linecap:butt;stroke-linejoin:round;stroke-miterlimit:10;stroke-opacity:1;stroke-dasharray:none"
       id="path6397" />
    <path
       inkscape:connector-curvature="0"
       d="m 145.89482,535.48363 11.6875,0"
       style="fill:none;stroke:#000000;stroke-width:2.8125;stroke-linecap:butt;stroke-linejoin:round;stroke-miterlimit:10;stroke-opacity:1;stroke-dasharray:none"
       id="path6399" />
    <path
       inkscape:connector-curvature="0"
       d="m 132.61982,519.72113 13.8125,15.7625"
       style="fill:none;stroke:#000000;stroke-width:2.8125;stroke-linecap:butt;stroke-linejoin:round;stroke-miterlimit:10;stroke-opacity:1;stroke-dasharray:none"
       id="path6401" />
    <path
       inkscape:connector-curvature="0"
       d="m 120.39482,534.84613 13.2875,0.325"
       style="fill:none;stroke:#000000;stroke-width:2.8125;stroke-linecap:butt;stroke-linejoin:round;stroke-miterlimit:10;stroke-opacity:1;stroke-dasharray:none"
       id="path6403" />
    <path
       inkscape:connector-curvature="0"
       d="m 145.89482,519.07113 11.6875,0"
       style="fill:none;stroke:#000000;stroke-width:2.8125;stroke-linecap:butt;stroke-linejoin:round;stroke-miterlimit:10;stroke-opacity:1;stroke-dasharray:none"
       id="path6405" />
    <path
       inkscape:connector-curvature="0"
       d="m 132.61982,534.84613 13.8125,-15.775"
       style="fill:none;stroke:#000000;stroke-width:2.8125;stroke-linecap:butt;stroke-linejoin:round;stroke-miterlimit:10;stroke-opacity:1;stroke-dasharray:none"
       id="path6407" />
    <text
       style="font-size:15px"
       y="582.6712"
       x="130.39484"
       id="text6409">
      <tspan
         style="font-size:22.53125px;font-variant:normal;font-weight:normal;writing-mode:lr-tb;fill:#000000;fill-opacity:1;fill-rule:nonzero;stroke:none;font-family:Arial;-inkscape-font-specification:Arial"
         x="130.39484 146.64488"
         y="582.6712"
         sodipodi:role="line"
         id="tspan6411">R5</tspan>
    </text>
    <path
       inkscape:connector-curvature="0"
       d="m 463.83232,512.50863 95.3125,0"
       style="fill:none;stroke:#000000;stroke-width:0.9375;stroke-linecap:butt;stroke-linejoin:round;stroke-miterlimit:10;stroke-opacity:1;stroke-dasharray:none"
       id="path6413" />
    <text
       style="font-size:15px"
       y="622.51495"
       x="683.05731"
       id="text6415">
      <tspan
         style="font-size:22.5px;font-variant:normal;font-weight:normal;writing-mode:lr-tb;fill:#000000;fill-opacity:1;fill-rule:nonzero;stroke:none;font-family:Arial;-inkscape-font-specification:Arial"
         x="683.05731"
         y="622.51495"
         id="tspan6417">A</tspan>
    </text>
    <text
       style="font-size:15px"
       y="489.17111"
       x="126.80733"
       id="text6419">
      <tspan
         style="font-size:22.5px;font-variant:normal;font-weight:normal;writing-mode:lr-tb;fill:#000000;fill-opacity:1;fill-rule:nonzero;stroke:none;font-family:Arial;-inkscape-font-specification:Arial"
         x="126.80733 143.05733"
         y="489.17111"
         sodipodi:role="line"
         id="tspan6421">R6</tspan>
    </text>
    <g
       transform="matrix(1.25,0,0,-1.25,-59.292672,716.42113)"
       id="g6443">
      <path
         inkscape:connector-curvature="0"
         d="m 353,172.98 -41.47,0 0,-3.13 -6.27,6.26 6.27,6.27 0,-3.14 41.47,0 0,-6.26 z"
         style="fill:url(#linearGradient6445);fill-opacity:1;fill-rule:evenodd;stroke:none"
         id="path6457" />
    </g>
    <path
       inkscape:connector-curvature="0"
       d="m 381.95732,500.19613 -51.8375,0 0,3.9125 -7.8375,-7.825 7.8375,-7.8375 0,3.925 51.8375,0 0,7.825 z"
       style="fill:none;stroke:#000000;stroke-width:0.9375;stroke-linecap:butt;stroke-linejoin:miter;stroke-miterlimit:8;stroke-opacity:1;stroke-dasharray:none"
       id="path6459" />
    <path
       inkscape:connector-curvature="0"
       d="m 350.96982,598.26488 -43.25,-55.91875 2.825,-2.175 -10.0125,-1.275 -1.2875,10 2.825,-2.175 43.25,55.91 5.65,-4.36625 z"
       style="fill:none;stroke:#000000;stroke-width:0.9375;stroke-linecap:butt;stroke-linejoin:miter;stroke-miterlimit:8;stroke-opacity:1;stroke-dasharray:none"
       id="path6463" />
    <path
       inkscape:connector-curvature="0"
       d="m 526.69482,594.93363 -187.4,-62.175 1.3875,-4.175 -11.125,5.575 5.5875,11.1125 1.3875,-4.175 187.3875,62.185 2.775,-8.3475 z"
       style="fill:none;stroke:#000000;stroke-width:0.9375;stroke-linecap:butt;stroke-linejoin:miter;stroke-miterlimit:8;stroke-opacity:1;stroke-dasharray:none"
       id="path6467" />
    <g
       transform="matrix(1.25,0,0,-1.25,-59.292672,716.42113)"
       id="g6481">
      <path
         inkscape:connector-curvature="0"
         d="m 310.19,177.39 41.47,0 0,3.13 6.26,-6.25 -6.26,-6.26 0,3.13 -41.47,0 0,6.25 z"
         style="fill:url(#linearGradient6483);fill-opacity:1;fill-rule:evenodd;stroke:none"
         id="path6495" />
    </g>
    <path
       inkscape:connector-curvature="0"
       d="m 328.44482,494.68363 51.8375,0 0,-3.9125 7.825,7.8125 -7.825,7.825 0,-3.9125 -51.8375,0 0,-7.8125 z"
       style="fill:none;stroke:#000000;stroke-width:0.9375;stroke-linecap:butt;stroke-linejoin:miter;stroke-miterlimit:8;stroke-opacity:1;stroke-dasharray:none"
       id="path6497" />
    <path
       inkscape:connector-curvature="0"
       d="m 303.68232,543.54613 43.625,55.54 -2.8125,2.2025 10.0125,1.20375 1.2125,-10.01625 -2.8125,2.20375 -43.625,-55.54625 -5.6,4.4125 z"
       style="fill:none;stroke:#000000;stroke-width:0.9375;stroke-linecap:butt;stroke-linejoin:miter;stroke-miterlimit:8;stroke-opacity:1;stroke-dasharray:none"
       id="path6501" />
    <path
       inkscape:connector-curvature="0"
       d="m 334.63232,539.57113 186.6875,64.0825 -1.425,4.15625 11.1625,-5.45875 -5.4625,-11.1675 -1.425,4.1575 -186.6875,-64.0825 -2.85,8.3125 z"
       style="fill:none;stroke:#000000;stroke-width:0.9375;stroke-linecap:butt;stroke-linejoin:miter;stroke-miterlimit:8;stroke-opacity:1;stroke-dasharray:none"
       id="path6505" />
    <text
       style="font-size:15px"
       y="474.52112"
       x="405.05734"
       id="text6507">
      <tspan
         style="font-size:22.5px;font-style:italic;font-variant:normal;font-weight:normal;writing-mode:lr-tb;fill:#c00000;fill-opacity:1;fill-rule:nonzero;stroke:none;font-family:Arial;-inkscape-font-specification:Arial Italic"
         x="405.05734 421.30734 436.31982 451.33234"
         y="474.52112"
         sodipodi:role="line"
         id="tspan6509">RSVP</tspan>
    </text>
    <text
       style="font-size:15px"
       y="474.52112"
       x="466.33234"
       id="text6511">
      <tspan
         style="font-size:22.5px;font-style:italic;font-variant:normal;font-weight:normal;writing-mode:lr-tb;fill:#c00000;fill-opacity:1;fill-rule:nonzero;stroke:none;font-family:Arial;-inkscape-font-specification:Arial Italic"
         x="466.33234"
         y="474.52112"
         id="tspan6513">-</tspan>
    </text>
    <text
       style="font-size:15px"
       y="474.52112"
       x="473.83234"
       id="text6515">
      <tspan
         style="font-size:22.5px;font-style:italic;font-variant:normal;font-weight:normal;writing-mode:lr-tb;fill:#c00000;fill-opacity:1;fill-rule:nonzero;stroke:none;font-family:Arial;-inkscape-font-specification:Arial Italic"
         x="473.83234 487.58234"
         y="474.52112"
         sodipodi:role="line"
         id="tspan6517">TE</tspan>
    </text>
    <text
       xml:space="preserve"
       style="font-size:24px;font-style:normal;font-variant:normal;font-weight:normal;font-stretch:normal;text-align:start;line-height:125%;letter-spacing:0px;word-spacing:0px;writing-mode:lr-tb;text-anchor:start;fill:#0070c0;fill-opacity:1;stroke:none;font-family:Latin Modern Roman;-inkscape-font-specification:'Latin Modern Roman,'"
       x="210.30148"
       y="589.93396"
       id="text6940"
       sodipodi:linespacing="125%"><tspan
         sodipodi:role="line"
         id="tspan6942"
         x="210.30148"
         y="589.93396">Inundação</tspan><tspan
         sodipodi:role="line"
         x="210.30148"
         y="619.93396"
         id="tspan6944">de Estado</tspan><tspan
         sodipodi:role="line"
         x="210.30148"
         y="649.93396"
         id="tspan6946">de Enlace</tspan><tspan
         sodipodi:role="line"
         x="210.30148"
         y="679.93396"
         id="tspan6948">Modificada</tspan></text>
  </g>
</svg>
