<!-- Created with Inkscape (http://www.inkscape.org/) -->
<svg id="svg4697" xmlns:rdf="http://www.w3.org/1999/02/22-rdf-syntax-ns#" xmlns="http://www.w3.org/2000/svg" xml:space="preserve" height="469.62" width="842.78" version="1.1" xmlns:cc="http://creativecommons.org/ns#" xmlns:xlink="http://www.w3.org/1999/xlink" xmlns:dc="http://purl.org/dc/elements/1.1/"><metadata id="metadata4703"><rdf:RDF><cc:Work rdf:about=""><dc:format>image/svg+xml</dc:format><dc:type rdf:resource="http://purl.org/dc/dcmitype/StillImage"/><dc:title/></cc:Work></rdf:RDF></metadata><defs id="defs4701"><clipPath id="clipPath12866" clipPathUnits="userSpaceOnUse"><path id="path12868" clip-rule="evenodd" d="M0.000010729,0,720,0v540h-720v-540z"/></clipPath><clipPath id="clipPath12854" clipPathUnits="userSpaceOnUse"><path id="path12856" clip-rule="evenodd" d="M0.000010729,0,720,0v540h-720v-540z"/></clipPath><clipPath id="clipPath12838" clipPathUnits="userSpaceOnUse"><path id="path12840" clip-rule="evenodd" d="M0.000010729,0,720,0v540h-720v-540z"/></clipPath><clipPath id="clipPath12826" clipPathUnits="userSpaceOnUse"><path id="path12828" clip-rule="evenodd" d="M0.000010729,0,720,0v540h-720v-540z"/></clipPath><clipPath id="clipPath12812" clipPathUnits="userSpaceOnUse"><path id="path12814" clip-rule="evenodd" d="M0.000010729,0,720,0v540h-720v-540z"/></clipPath><clipPath id="clipPath12800" clipPathUnits="userSpaceOnUse"><path id="path12802" clip-rule="evenodd" d="M0.000010729,0,720,0v540h-720v-540z"/></clipPath><clipPath id="clipPath12742" clipPathUnits="userSpaceOnUse"><path id="path12744" clip-rule="evenodd" d="M-0.000001034,0.00018311,720,0.00018311,720,540-0.000001034,540v-540z"/></clipPath><mask id="mask12768" height="1" width="1" y="0" x="0" maskUnits="userSpaceOnUse"><g id="g12770"><g id="g12772" clip-path="url(#clipPath12748)"><path id="path12774" d="m41.84,292.32-8-83,674.03-1c12.13,13.88-552.02,33-601.03,84h-65z" fill-rule="evenodd" fill="url(#linearGradient12752)"/></g></g></mask><clipPath id="clipPath12748" clipPathUnits="userSpaceOnUse"><path id="path12750" d="m33.84,208.32,686.16,0,0,84-686.16,0,0-84z"/></clipPath><linearGradient id="linearGradient12752" y2="208.32" gradientUnits="userSpaceOnUse" x2="370.95" y1="376.32" x1="370.95"><stop id="stop12754" stop-opacity="0.18039216" stop-color="#FFF" offset="0"/><stop id="stop12756" stop-opacity="0.45098039" stop-color="#FFF" offset="0.16667"/><stop id="stop12758" stop-opacity="0.7254902" stop-color="#FFF" offset="0.33333"/><stop id="stop12760" stop-color="#FFF" offset="0.5"/><stop id="stop12762" stop-opacity="0.7254902" stop-color="#FFF" offset="0.66667"/><stop id="stop12764" stop-opacity="0.45098039" stop-color="#FFF" offset="0.83333"/><stop id="stop12766" stop-opacity="0.18039216" stop-color="#FFF" offset="1"/></linearGradient><linearGradient id="linearGradient12778" y2="208.32" gradientUnits="userSpaceOnUse" x2="370.95" gradientTransform="translate(33.84,-102.36462)" y1="376.32" x1="370.95"><stop id="stop12780" stop-color="#FFF" offset="0"/><stop id="stop12782" stop-color="#AAA" offset="0.16667"/><stop id="stop12784" stop-color="#555" offset="0.33333"/><stop id="stop12786" stop-color="#000" offset="0.5"/><stop id="stop12788" stop-color="#555" offset="0.66667"/><stop id="stop12790" stop-color="#AAA" offset="0.83333"/><stop id="stop12792" stop-color="#FFF" offset="1"/></linearGradient><clipPath id="clipPath12730" clipPathUnits="userSpaceOnUse"><path id="path12732" clip-rule="evenodd" d="M0.000010729,0,720,0v540h-720v-540z"/></clipPath><clipPath id="clipPath12718" clipPathUnits="userSpaceOnUse"><path id="path12720" clip-rule="evenodd" d="M0.000010729,0,720,0v540h-720v-540z"/></clipPath><clipPath id="clipPath12706" clipPathUnits="userSpaceOnUse"><path id="path12708" clip-rule="evenodd" d="M0.000010729,0,720,0v540h-720v-540z"/></clipPath><clipPath id="clipPath12694" clipPathUnits="userSpaceOnUse"><path id="path12696" clip-rule="evenodd" d="M0.000010729,0,720,0v540h-720v-540z"/></clipPath><clipPath id="clipPath12682" clipPathUnits="userSpaceOnUse"><path id="path12684" clip-rule="evenodd" d="M0.000010729,0,720,0v540h-720v-540z"/></clipPath><clipPath id="clipPath12670" clipPathUnits="userSpaceOnUse"><path id="path12672" clip-rule="evenodd" d="M0.000010729,0,720,0v540h-720v-540z"/></clipPath><clipPath id="clipPath12658" clipPathUnits="userSpaceOnUse"><path id="path12660" clip-rule="evenodd" d="M0.000010729,0,720,0v540h-720v-540z"/></clipPath><clipPath id="clipPath12646" clipPathUnits="userSpaceOnUse"><path id="path12648" clip-rule="evenodd" d="M0.000010729,0,720,0v540h-720v-540z"/></clipPath><clipPath id="clipPath12634" clipPathUnits="userSpaceOnUse"><path id="path12636" clip-rule="evenodd" d="M0.000010729,0,720,0v540h-720v-540z"/></clipPath><clipPath id="clipPath12622" clipPathUnits="userSpaceOnUse"><path id="path12624" clip-rule="evenodd" d="M0.000010729,0,720,0v540h-720v-540z"/></clipPath><clipPath id="clipPath12610" clipPathUnits="userSpaceOnUse"><path id="path12612" clip-rule="evenodd" d="M0.000010729,0,720,0v540h-720v-540z"/></clipPath><clipPath id="clipPath12598" clipPathUnits="userSpaceOnUse"><path id="path12600" clip-rule="evenodd" d="M0.000010729,0,720,0v540h-720v-540z"/></clipPath><clipPath id="clipPath12586" clipPathUnits="userSpaceOnUse"><path id="path12588" clip-rule="evenodd" d="M0.000010729,0,720,0v540h-720v-540z"/></clipPath><clipPath id="clipPath12570" clipPathUnits="userSpaceOnUse"><path id="path12572" clip-rule="evenodd" d="M0.000010729,0,720,0v540h-720v-540z"/></clipPath><clipPath id="clipPath12554" clipPathUnits="userSpaceOnUse"><path id="path12556" clip-rule="evenodd" d="M0.000010729,0,720,0v540h-720v-540z"/></clipPath><clipPath id="clipPath12538" clipPathUnits="userSpaceOnUse"><path id="path12540" clip-rule="evenodd" d="M0.000010729,0,720,0v540h-720v-540z"/></clipPath><clipPath id="clipPath12526" clipPathUnits="userSpaceOnUse"><path id="path12528" clip-rule="evenodd" d="M0.000010729,0,720,0v540h-720v-540z"/></clipPath><clipPath id="clipPath12510" clipPathUnits="userSpaceOnUse"><path id="path12512" clip-rule="evenodd" d="M0.000010729,0,720,0v540h-720v-540z"/></clipPath><clipPath id="clipPath12498" clipPathUnits="userSpaceOnUse"><path id="path12500" clip-rule="evenodd" d="M0.000010729,0,720,0v540h-720v-540z"/></clipPath><clipPath id="clipPath12482" clipPathUnits="userSpaceOnUse"><path id="path12484" clip-rule="evenodd" d="M0.000010729,0,720,0v540h-720v-540z"/></clipPath><clipPath id="clipPath12466" clipPathUnits="userSpaceOnUse"><path id="path12468" clip-rule="evenodd" d="M0.000010729,0,720,0v540h-720v-540z"/></clipPath><clipPath id="clipPath12454" clipPathUnits="userSpaceOnUse"><path id="path12456" clip-rule="evenodd" d="M0.000010729,0,720,0v540h-720v-540z"/></clipPath><clipPath id="clipPath12438" clipPathUnits="userSpaceOnUse"><path id="path12440" clip-rule="evenodd" d="M0.000010729,0,720,0v540h-720v-540z"/></clipPath><clipPath id="clipPath12426" clipPathUnits="userSpaceOnUse"><path id="path12428" clip-rule="evenodd" d="M0.000010729,0,720,0v540h-720v-540z"/></clipPath><clipPath id="clipPath12410" clipPathUnits="userSpaceOnUse"><path id="path12412" clip-rule="evenodd" d="M0.000010729,0,720,0v540h-720v-540z"/></clipPath><clipPath id="clipPath12394" clipPathUnits="userSpaceOnUse"><path id="path12396" clip-rule="evenodd" d="M0.000010729,0,720,0v540h-720v-540z"/></clipPath><clipPath id="clipPath12382" clipPathUnits="userSpaceOnUse"><path id="path12384" clip-rule="evenodd" d="M0.000010729,0,720,0v540h-720v-540z"/></clipPath><clipPath id="clipPath12366" clipPathUnits="userSpaceOnUse"><path id="path12368" clip-rule="evenodd" d="M0.000010729,0,720,0v540h-720v-540z"/></clipPath><clipPath id="clipPath12350" clipPathUnits="userSpaceOnUse"><path id="path12352" clip-rule="evenodd" d="M0.000010729,0,720,0v540h-720v-540z"/></clipPath><clipPath id="clipPath12338" clipPathUnits="userSpaceOnUse"><path id="path12340" clip-rule="evenodd" d="M0.000010729,0,720,0v540h-720v-540z"/></clipPath><clipPath id="clipPath12326" clipPathUnits="userSpaceOnUse"><path id="path12328" clip-rule="evenodd" d="M0.000010729,0,720,0v540h-720v-540z"/></clipPath><clipPath id="clipPath12314" clipPathUnits="userSpaceOnUse"><path id="path12316" clip-rule="evenodd" d="M0.000010729,0,720,0v540h-720v-540z"/></clipPath><clipPath id="clipPath12302" clipPathUnits="userSpaceOnUse"><path id="path12304" clip-rule="evenodd" d="M0.000010729,0,720,0v540h-720v-540z"/></clipPath><clipPath id="clipPath12290" clipPathUnits="userSpaceOnUse"><path id="path12292" clip-rule="evenodd" d="M0.000010729,0,720,0v540h-720v-540z"/></clipPath><clipPath id="clipPath12278" clipPathUnits="userSpaceOnUse"><path id="path12280" clip-rule="evenodd" d="M0.000010729,0,720,0v540h-720v-540z"/></clipPath><clipPath id="clipPath12266" clipPathUnits="userSpaceOnUse"><path id="path12268" clip-rule="evenodd" d="M0.000010729,0,720,0v540h-720v-540z"/></clipPath><clipPath id="clipPath12254" clipPathUnits="userSpaceOnUse"><path id="path12256" clip-rule="evenodd" d="M0.000010729,0,720,0v540h-720v-540z"/></clipPath><clipPath id="clipPath12242" clipPathUnits="userSpaceOnUse"><path id="path12244" clip-rule="evenodd" d="M0.000010729,0,720,0v540h-720v-540z"/></clipPath><clipPath id="clipPath12230" clipPathUnits="userSpaceOnUse"><path id="path12232" clip-rule="evenodd" d="M0.000010729,0,720,0v540h-720v-540z"/></clipPath><clipPath id="clipPath12218" clipPathUnits="userSpaceOnUse"><path id="path12220" clip-rule="evenodd" d="M0.000010729,0,720,0v540h-720v-540z"/></clipPath><clipPath id="clipPath12206" clipPathUnits="userSpaceOnUse"><path id="path12208" clip-rule="evenodd" d="M0.000010729,0,720,0v540h-720v-540z"/></clipPath><clipPath id="clipPath12194" clipPathUnits="userSpaceOnUse"><path id="path12196" clip-rule="evenodd" d="M0.000010729,0,720,0v540h-720v-540z"/></clipPath><clipPath id="clipPath12178" clipPathUnits="userSpaceOnUse"><path id="path12180" clip-rule="evenodd" d="M0.000010729,0,720,0v540h-720v-540z"/></clipPath><clipPath id="clipPath12158" clipPathUnits="userSpaceOnUse"><path id="path12160" clip-rule="evenodd" d="M0.000010729,0,720,0v540h-720v-540z"/></clipPath><clipPath id="clipPath12146" clipPathUnits="userSpaceOnUse"><path id="path12148" clip-rule="evenodd" d="M0.000010729,0,720,0v540h-720v-540z"/></clipPath><clipPath id="clipPath12130" clipPathUnits="userSpaceOnUse"><path id="path12132" clip-rule="evenodd" d="M0.000010729,0,720,0v540h-720v-540z"/></clipPath><clipPath id="clipPath12118" clipPathUnits="userSpaceOnUse"><path id="path12120" clip-rule="evenodd" d="M0.000010729,0,720,0v540h-720v-540z"/></clipPath><clipPath id="clipPath12102" clipPathUnits="userSpaceOnUse"><path id="path12104" clip-rule="evenodd" d="M0.000010729,0,720,0v540h-720v-540z"/></clipPath><clipPath id="clipPath12090" clipPathUnits="userSpaceOnUse"><path id="path12092" clip-rule="evenodd" d="M0.000010729,0,720,0v540h-720v-540z"/></clipPath><clipPath id="clipPath12074" clipPathUnits="userSpaceOnUse"><path id="path12076" clip-rule="evenodd" d="M0.000010729,0,720,0v540h-720v-540z"/></clipPath><clipPath id="clipPath12062" clipPathUnits="userSpaceOnUse"><path id="path12064" clip-rule="evenodd" d="M0.000010729,0,720,0v540h-720v-540z"/></clipPath><clipPath id="clipPath12046" clipPathUnits="userSpaceOnUse"><path id="path12048" clip-rule="evenodd" d="M0.000010729,0,720,0v540h-720v-540z"/></clipPath><clipPath id="clipPath12030" clipPathUnits="userSpaceOnUse"><path id="path12032" clip-rule="evenodd" d="M0.000010729,0,720,0v540h-720v-540z"/></clipPath><clipPath id="clipPath12018" clipPathUnits="userSpaceOnUse"><path id="path12020" clip-rule="evenodd" d="M0.000010729,0,720,0v540h-720v-540z"/></clipPath></defs><g id="g4705" transform="matrix(1.25,0,0,-1.25,-79.206116,686.53754)"><path id="path12010" d="m70.445,404.87,66,0,0,48-66,0,0-48z" fill-rule="evenodd" fill="#0C9"/><path id="path12012" stroke-linejoin="miter" d="m70.445,404.87,66,0,0,48-66,0,0-48z" stroke="#000" stroke-linecap="butt" stroke-miterlimit="10" stroke-dasharray="none" stroke-width="0.72000003" fill="none"/><g id="g12014" transform="translate(29.524893,111.59464)"><g id="g12016" clip-path="url(#clipPath12018)"><text id="text12022" transform="matrix(1,0,0,-1,53.424,320.78)"><tspan id="tspan12024" style="writing-mode:lr-tb;" font-weight="normal" fill-rule="nonzero" font-size="15.96000004px" font-variant="normal" y="0" x="0 4.4368801 9.7515602 18.62532 31.92" font-family="Arial" fill="#000000">frame</tspan></text>
</g></g><g id="g12026" transform="translate(29.524893,111.59464)"><g id="g12028" clip-path="url(#clipPath12030)"><text id="text12034" transform="matrix(1,0,0,-1,49.824,301.58)"><tspan id="tspan12036" style="writing-mode:lr-tb;" font-weight="normal" fill-rule="nonzero" font-size="15.96000004px" font-variant="normal" y="0" x="0 8.0278797 16.90164 25.7754 30.21228 35.526958 44.400719" font-family="Arial" fill="#000000">control</tspan></text>
</g></g><path id="path12038" d="m136.44,404.87,66,0,0,48-66,0,0-48z" fill-rule="evenodd" fill="#0C9"/><path id="path12040" stroke-linejoin="miter" d="m136.44,404.87,66,0,0,48-66,0,0-48z" stroke="#000" stroke-linecap="butt" stroke-miterlimit="10" stroke-dasharray="none" stroke-width="0.72000003" fill="none"/><g id="g12042" transform="translate(29.524893,111.59464)"><g id="g12044" clip-path="url(#clipPath12046)"><text id="text12050" transform="matrix(1,0,0,-1,111.02,311.18)"><tspan id="tspan12052" style="writing-mode:lr-tb;" font-weight="normal" fill-rule="nonzero" font-size="15.96000004px" font-variant="normal" y="0" x="0 8.8737602 17.74752 23.062201 31.935961 36.372841 39.915958 48.82164" font-family="Arial" fill="#000000">duration</tspan></text>
</g></g><path id="path12054" d="m202.44,404.87,66,0,0,48-66,0,0-48z" fill-rule="evenodd" fill="#0C9"/><path id="path12056" stroke-linejoin="miter" d="m202.44,404.87,66,0,0,48-66,0,0-48z" stroke="#000" stroke-linecap="butt" stroke-miterlimit="10" stroke-dasharray="none" stroke-width="0.72000003" fill="none"/><g id="g12058" transform="translate(29.524893,111.59464)"><g id="g12060" clip-path="url(#clipPath12062)"><text id="text12066" transform="matrix(1,0,0,-1,177.5,320.78)"><tspan id="tspan12068" style="writing-mode:lr-tb;" font-weight="normal" fill-rule="nonzero" font-size="15.96000004px" font-variant="normal" y="0" x="0 8.8737602 17.74752 26.621281 31.935961 40.809719 48.82164" font-family="Arial" fill="#000000">address</tspan></text>
</g></g><g id="g12070" transform="translate(29.524893,111.59464)"><g id="g12072" clip-path="url(#clipPath12074)"><text id="text12078" transform="matrix(1,0,0,-1,201.41,301.58)"><tspan id="tspan12080" style="writing-mode:lr-tb;" font-weight="normal" fill-rule="nonzero" font-size="15.96000004px" font-variant="normal" y="0" x="0" font-family="Arial" fill="#000000">1</tspan></text>
</g></g><path id="path12082" d="m268.44,404.87,66,0,0,48-66,0,0-48z" fill-rule="evenodd" fill="#0C9"/><path id="path12084" stroke-linejoin="miter" d="m268.44,404.87,66,0,0,48-66,0,0-48z" stroke="#000" stroke-linecap="butt" stroke-miterlimit="10" stroke-dasharray="none" stroke-width="0.72000003" fill="none"/><g id="g12086" transform="translate(29.524893,111.59464)"><g id="g12088" clip-path="url(#clipPath12090)"><text id="text12094" transform="matrix(1,0,0,-1,243.53,320.78)"><tspan id="tspan12096" style="writing-mode:lr-tb;" font-weight="normal" fill-rule="nonzero" font-size="15.96000004px" font-variant="normal" y="0" x="0 8.8737602 17.74752 26.621281 31.935961 40.809719 48.82164" font-family="Arial" fill="#000000">address</tspan></text>
</g></g><g id="g12098" transform="translate(29.524893,111.59464)"><g id="g12100" clip-path="url(#clipPath12102)"><text id="text12106" transform="matrix(1,0,0,-1,267.41,301.58)"><tspan id="tspan12108" style="writing-mode:lr-tb;" font-weight="normal" fill-rule="nonzero" font-size="15.96000004px" font-variant="normal" y="0" x="0" font-family="Arial" fill="#000000">2</tspan></text>
</g></g><path id="path12110" d="m466.44,404.87,66,0,0,48-66,0,0-48z" fill-rule="evenodd" fill="#0C9"/><path id="path12112" stroke-linejoin="miter" d="m466.44,404.87,66,0,0,48-66,0,0-48z" stroke="#000" stroke-linecap="butt" stroke-miterlimit="10" stroke-dasharray="none" stroke-width="0.72000003" fill="none"/><g id="g12114" transform="translate(29.524893,111.59464)"><g id="g12116" clip-path="url(#clipPath12118)"><text id="text12122" transform="matrix(1,0,0,-1,441.55,320.78)"><tspan id="tspan12124" style="writing-mode:lr-tb;" font-weight="normal" fill-rule="nonzero" font-size="15.96000004px" font-variant="normal" y="0" x="0 8.8737602 17.74752 26.621281 31.935961 40.809719 48.82164" font-family="Arial" fill="#000000">address</tspan></text>
</g></g><g id="g12126" transform="translate(29.524893,111.59464)"><g id="g12128" clip-path="url(#clipPath12130)"><text id="text12134" transform="matrix(1,0,0,-1,465.43,301.58)"><tspan id="tspan12136" style="writing-mode:lr-tb;" font-weight="normal" fill-rule="nonzero" font-size="15.96000004px" font-variant="normal" y="0" x="0" font-family="Arial" fill="#000000">4</tspan></text>
</g></g><path id="path12138" d="m334.44,404.87,66,0,0,48-66,0,0-48z" fill-rule="evenodd" fill="#0C9"/><path id="path12140" stroke-linejoin="miter" d="m334.44,404.87,66,0,0,48-66,0,0-48z" stroke="#000" stroke-linecap="butt" stroke-miterlimit="10" stroke-dasharray="none" stroke-width="0.72000003" fill="none"/><g id="g12142" transform="translate(29.524893,111.59464)"><g id="g12144" clip-path="url(#clipPath12146)"><text id="text12150" transform="matrix(1,0,0,-1,309.53,320.78)"><tspan id="tspan12152" style="writing-mode:lr-tb;" font-weight="normal" fill-rule="nonzero" font-size="15.96000004px" font-variant="normal" y="0" x="0 8.8737602 17.74752 26.621281 31.935961 40.809719 48.82164" font-family="Arial" fill="#000000">address</tspan></text>
</g></g><g id="g12154" transform="translate(29.524893,111.59464)"><g id="g12156" clip-path="url(#clipPath12158)"><text id="text12162" transform="matrix(1,0,0,-1,333.43,301.58)"><tspan id="tspan12164" style="writing-mode:lr-tb;" font-weight="normal" fill-rule="nonzero" font-size="15.96000004px" font-variant="normal" y="0" x="0" font-family="Arial" fill="#000000">3</tspan></text>
</g></g><path id="path12166" d="m400.44,404.87,66,0,0,48-66,0,0-48z" fill-rule="evenodd" fill="#0C9"/><path id="path12168" stroke-linejoin="miter" d="m400.44,404.87,66,0,0,48-66,0,0-48z" stroke="#000" stroke-linecap="butt" stroke-miterlimit="10" stroke-dasharray="none" stroke-width="0.72000003" fill="none"/><path id="path12170" d="m532.44,404.87,108,0,0,48-108,0,0-48z" fill-rule="evenodd" fill="#FF9"/><path id="path12172" stroke-linejoin="miter" d="m532.44,404.87,108,0,0,48-108,0,0-48z" stroke="#000" stroke-linecap="butt" stroke-miterlimit="10" stroke-dasharray="none" stroke-width="0.72000003" fill="none"/><g id="g12174" transform="translate(29.524893,111.59464)"><g id="g12176" clip-path="url(#clipPath12178)"><text id="text12182" transform="matrix(1,0,0,-1,529.06,311.18)"><tspan id="tspan12184" style="writing-mode:lr-tb;" font-weight="normal" fill-rule="nonzero" font-size="15.96000004px" font-variant="normal" y="0" x="0 8.8737602 17.74752 25.567921 29.15892 38.032681 46.906441" font-family="Arial" fill="#000000">payload</tspan></text>
</g></g><path id="path12186" d="m640.44,404.87,66,0,0,48-66,0,0-48z" fill-rule="evenodd" fill="#0C9"/><path id="path12188" stroke-linejoin="miter" d="m640.44,404.87,66,0,0,48-66,0,0-48z" stroke="#000" stroke-linecap="butt" stroke-miterlimit="10" stroke-dasharray="none" stroke-width="0.72000003" fill="none"/><g id="g12190" transform="translate(29.524893,111.59464)"><g id="g12192" clip-path="url(#clipPath12194)"><text id="text12198" transform="matrix(1,0,0,-1,626.64,311.18)"><tspan id="tspan12200" style="writing-mode:lr-tb;" font-weight="normal" fill-rule="nonzero" font-size="15.96000004px" font-variant="normal" y="0" x="0 11.52 23.040001" font-family="Arial" fill="#000000">CRC</tspan></text>
</g></g><g id="g12202" transform="translate(29.524893,111.59464)"><g id="g12204" clip-path="url(#clipPath12206)"><text id="text12210" transform="matrix(1,0,0,-1,78.096,344.09)"><tspan id="tspan12212" style="writing-mode:lr-tb;" font-weight="normal" fill-rule="nonzero" font-size="18px" font-variant="normal" y="0" x="0" font-family="Arial" fill="#000000">2</tspan></text>
</g></g><g id="g12214" transform="translate(29.524893,111.59464)"><g id="g12216" clip-path="url(#clipPath12218)"><text id="text12222" transform="matrix(1,0,0,-1,138.1,344.09)"><tspan id="tspan12224" style="writing-mode:lr-tb;" font-weight="normal" fill-rule="nonzero" font-size="18px" font-variant="normal" y="0" x="0" font-family="Arial" fill="#000000">2</tspan></text>
</g></g><g id="g12226" transform="translate(29.524893,111.59464)"><g id="g12228" clip-path="url(#clipPath12230)"><text id="text12234" transform="matrix(1,0,0,-1,210.12,344.09)"><tspan id="tspan12236" style="writing-mode:lr-tb;" font-weight="normal" fill-rule="nonzero" font-size="18px" font-variant="normal" y="0" x="0" font-family="Arial" fill="#000000">6</tspan></text>
</g></g><g id="g12238" transform="translate(29.524893,111.59464)"><g id="g12240" clip-path="url(#clipPath12242)"><text id="text12246" transform="matrix(1,0,0,-1,270.12,344.09)"><tspan id="tspan12248" style="writing-mode:lr-tb;" font-weight="normal" fill-rule="nonzero" font-size="18px" font-variant="normal" y="0" x="0" font-family="Arial" fill="#000000">6</tspan></text>
</g></g><g id="g12250" transform="translate(29.524893,111.59464)"><g id="g12252" clip-path="url(#clipPath12254)"><text id="text12258" transform="matrix(1,0,0,-1,336.14,344.09)"><tspan id="tspan12260" style="writing-mode:lr-tb;" font-weight="normal" fill-rule="nonzero" font-size="18px" font-variant="normal" y="0" x="0" font-family="Arial" fill="#000000">6</tspan></text>
</g></g><g id="g12262" transform="translate(29.524893,111.59464)"><g id="g12264" clip-path="url(#clipPath12266)"><text id="text12270" transform="matrix(1,0,0,-1,402.14,344.09)"><tspan id="tspan12272" style="writing-mode:lr-tb;" font-weight="normal" fill-rule="nonzero" font-size="18px" font-variant="normal" y="0" x="0" font-family="Arial" fill="#000000">2</tspan></text>
</g></g><g id="g12274" transform="translate(29.524893,111.59464)"><g id="g12276" clip-path="url(#clipPath12278)"><text id="text12282" transform="matrix(1,0,0,-1,472.9,347.21)"><tspan id="tspan12284" style="writing-mode:lr-tb;" font-weight="normal" fill-rule="nonzero" font-size="18px" font-variant="normal" y="0" x="0" font-family="Arial" fill="#000000">6</tspan></text>
</g></g><g id="g12286" transform="translate(29.524893,111.59464)"><g id="g12288" clip-path="url(#clipPath12290)"><text id="text12294" transform="matrix(1,0,0,-1,522.17,344.09)"><tspan id="tspan12296" style="writing-mode:lr-tb;" font-weight="normal" fill-rule="nonzero" font-size="18px" font-variant="normal" y="0" x="0 9.96" font-family="Arial" fill="#000000">0</tspan></text>
</g></g><g id="g12298" transform="translate(29.524893,111.59464)"><g id="g12300" clip-path="url(#clipPath12302)"><text id="text12306" transform="matrix(1,0,0,-1,537.17,344.09)"><tspan id="tspan12308" style="writing-mode:lr-tb;" font-weight="normal" fill-rule="nonzero" font-size="18px" font-variant="normal" y="0" x="0" font-family="Arial" fill="#000000">-</tspan></text>
</g></g><g id="g12310" transform="translate(29.524893,111.59464)"><g id="g12312" clip-path="url(#clipPath12314)"><text id="text12318" transform="matrix(1,0,0,-1,548.21,344.09)"><tspan id="tspan12320" style="writing-mode:lr-tb;" font-weight="normal" fill-rule="nonzero" font-size="18px" font-variant="normal" y="0" x="0 9.96 19.92 29.879999" font-family="Arial" fill="#000000">2312</tspan></text>
</g></g><g id="g12322" transform="translate(29.524893,111.59464)"><g id="g12324" clip-path="url(#clipPath12326)"><text id="text12330" transform="matrix(1,0,0,-1,640.94,347.21)"><tspan id="tspan12332" style="writing-mode:lr-tb;" font-weight="normal" fill-rule="nonzero" font-size="18px" font-variant="normal" y="0" x="0" font-family="Arial" fill="#000000">4</tspan></text>
</g></g><g id="g12334" transform="translate(29.524893,111.59464)"><g id="g12336" clip-path="url(#clipPath12338)"><text id="text12342" transform="matrix(1,0,0,-1,393.98,317.26)"><tspan id="tspan12344" style="writing-mode:lr-tb;" font-weight="normal" fill-rule="nonzero" font-size="15.98400021px" font-variant="normal" y="0" x="0 8.0239677 16.911072" font-family="Arial" fill="#000000">seq</tspan></text>
</g></g><g id="g12346" transform="translate(29.524893,111.59464)"><g id="g12348" clip-path="url(#clipPath12350)"><text id="text12354" transform="matrix(1,0,0,-1,382.94,298.03)"><tspan id="tspan12356" style="writing-mode:lr-tb;" font-weight="normal" fill-rule="nonzero" font-size="15.96000004px" font-variant="normal" y="0" x="0 8.0278797 16.90164 25.7754 30.21228 35.526958 44.400719" font-family="Arial" fill="#000000">control</tspan></text>
</g></g><path id="path12358" d="m142.44,272.87,78,0,0,48-78,0,0-48z" fill-rule="evenodd" fill="#0C9"/><path id="path12360" stroke-linejoin="miter" d="m142.44,272.87,78,0,0,48-78,0,0-48z" stroke="#000" stroke-linecap="butt" stroke-miterlimit="10" stroke-dasharray="none" stroke-width="0.72000003" fill="none"/><g id="g12362" transform="translate(29.524893,111.59464)"><g id="g12364" clip-path="url(#clipPath12366)"><text id="text12370" transform="matrix(1,0,0,-1,134.66,179.16)"><tspan id="tspan12372" style="writing-mode:lr-tb;" font-weight="normal" fill-rule="nonzero" font-size="15.96000004px" font-variant="normal" y="0" x="0 8.8737602 16.6782 25.55196" font-family="Arial" fill="#000000">Type</tspan></text>
</g></g><path id="path12374" d="m358.44,272.87,54,0,0,48-54,0,0-48z" fill-rule="evenodd" fill="#0C9"/><path id="path12376" stroke-linejoin="miter" d="m358.44,272.87,54,0,0,48-54,0,0-48z" stroke="#000" stroke-linecap="butt" stroke-miterlimit="10" stroke-dasharray="none" stroke-width="0.72000003" fill="none"/><g id="g12378" transform="translate(29.524893,111.59464)"><g id="g12380" clip-path="url(#clipPath12382)"><text id="text12386" transform="matrix(1,0,0,-1,337.27,188.76)"><tspan id="tspan12388" style="writing-mode:lr-tb;" font-weight="normal" fill-rule="nonzero" font-size="15.96000004px" font-variant="normal" y="0" x="0 9.7515602 15.0024 23.87616" font-family="Arial" fill="#000000">From</tspan></text>
</g></g><g id="g12390" transform="translate(29.524893,111.59464)"><g id="g12392" clip-path="url(#clipPath12394)"><text id="text12398" transform="matrix(1,0,0,-1,345.19,169.56)"><tspan id="tspan12400" style="writing-mode:lr-tb;" font-weight="normal" fill-rule="nonzero" font-size="15.96000004px" font-variant="normal" y="0" x="0 10.68002" font-family="Arial" fill="#000000">AP</tspan></text>
</g></g><path id="path12402" d="m220.44,272.87,84,0,0,48-84,0,0-48z" fill-rule="evenodd" fill="#0C9"/><path id="path12404" stroke-linejoin="miter" d="m220.44,272.87,84,0,0,48-84,0,0-48z" stroke="#000" stroke-linecap="butt" stroke-miterlimit="10" stroke-dasharray="none" stroke-width="0.72000003" fill="none"/><g id="g12406" transform="translate(29.524893,111.59464)"><g id="g12408" clip-path="url(#clipPath12410)"><text id="text12414" transform="matrix(1,0,0,-1,203.69,179.16)"><tspan id="tspan12416" style="writing-mode:lr-tb;" font-weight="normal" fill-rule="nonzero" font-size="15.96000004px" font-variant="normal" y="0" x="0 10.64532 19.519079 28.392839 32.861641 40.66608 49.539841" font-family="Arial" fill="#000000">Subtype</tspan></text>
</g></g><path id="path12418" d="m304.44,272.87,54,0,0,48-54,0,0-48z" fill-rule="evenodd" fill="#0C9"/><path id="path12420" stroke-linejoin="miter" d="m304.44,272.87,54,0,0,48-54,0,0-48z" stroke="#000" stroke-linecap="butt" stroke-miterlimit="10" stroke-dasharray="none" stroke-width="0.72000003" fill="none"/><g id="g12422" transform="translate(29.524893,111.59464)"><g id="g12424" clip-path="url(#clipPath12426)"><text id="text12430" transform="matrix(1,0,0,-1,293.45,188.76)"><tspan id="tspan12432" style="writing-mode:lr-tb;" font-weight="normal" fill-rule="nonzero" font-size="15.96000004px" font-variant="normal" y="0" x="0 7.9215598" font-family="Arial" fill="#000000">To</tspan></text>
</g></g><g id="g12434" transform="translate(29.524893,111.59464)"><g id="g12436" clip-path="url(#clipPath12438)"><text id="text12442" transform="matrix(1,0,0,-1,291.17,169.56)"><tspan id="tspan12444" style="writing-mode:lr-tb;" font-weight="normal" fill-rule="nonzero" font-size="15.96000004px" font-variant="normal" y="0" x="0 10.68002" font-family="Arial" fill="#000000">AP</tspan></text>
</g></g><path id="path12446" d="m412.44,272.87,54,0,0,48-54,0,0-48z" fill-rule="evenodd" fill="#0C9"/><path id="path12448" stroke-linejoin="miter" d="m412.44,272.87,54,0,0,48-54,0,0-48z" stroke="#000" stroke-linecap="butt" stroke-miterlimit="10" stroke-dasharray="none" stroke-width="0.72000003" fill="none"/><g id="g12450" transform="translate(29.524893,111.59464)"><g id="g12452" clip-path="url(#clipPath12454)"><text id="text12458" transform="matrix(1,0,0,-1,389.47,188.76)"><tspan id="tspan12460" style="writing-mode:lr-tb;" font-weight="normal" fill-rule="nonzero" font-size="15.96000004px" font-variant="normal" y="0" x="0 13.29468 22.16844 27.48312 36.35688" font-family="Arial" fill="#000000">More</tspan></text>
</g></g><g id="g12462" transform="translate(29.524893,111.59464)"><g id="g12464" clip-path="url(#clipPath12466)"><text id="text12470" transform="matrix(1,0,0,-1,396.19,169.56)"><tspan id="tspan12472" style="writing-mode:lr-tb;" font-weight="normal" fill-rule="nonzero" font-size="15.96000004px" font-variant="normal" y="0" x="0 4.4368801 9.7515602 18.62532" font-family="Arial" fill="#000000">frag</tspan></text>
</g></g><path id="path12474" d="m628.44,272.87,54,0,0,48-54,0,0-48z" fill-rule="evenodd" fill="#0C9"/><path id="path12476" stroke-linejoin="miter" d="m628.44,272.87,54,0,0,48-54,0,0-48z" stroke="#000" stroke-linecap="butt" stroke-miterlimit="10" stroke-dasharray="none" stroke-width="0.72000003" fill="none"/><g id="g12478" transform="translate(29.524893,111.59464)"><g id="g12480" clip-path="url(#clipPath12482)"><text id="text12486" transform="matrix(1,0,0,-1,607.68,179.16)"><tspan id="tspan12488" style="writing-mode:lr-tb;" font-weight="normal" fill-rule="nonzero" font-size="15.96000004px" font-variant="normal" y="0" x="0 15.09816 25.743481" font-family="Arial" fill="#000000">WEP</tspan></text>
</g></g><path id="path12490" d="m574.44,272.87,54,0,0,48-54,0,0-48z" fill-rule="evenodd" fill="#0C9"/><path id="path12492" stroke-linejoin="miter" d="m574.44,272.87,54,0,0,48-54,0,0-48z" stroke="#000" stroke-linecap="butt" stroke-miterlimit="10" stroke-dasharray="none" stroke-width="0.72000003" fill="none"/><g id="g12494" transform="translate(29.524893,111.59464)"><g id="g12496" clip-path="url(#clipPath12498)"><text id="text12502" transform="matrix(1,0,0,-1,553.78,188.76)"><tspan id="tspan12504" style="writing-mode:lr-tb;" font-weight="normal" fill-rule="nonzero" font-size="15.96000004px" font-variant="normal" y="0" x="0 13.29468 22.16844 27.48312" font-family="Arial" fill="#000000">More</tspan></text>
</g></g><g id="g12506" transform="translate(29.524893,111.59464)"><g id="g12508" clip-path="url(#clipPath12510)"><text id="text12514" transform="matrix(1,0,0,-1,556.42,169.56)"><tspan id="tspan12516" style="writing-mode:lr-tb;" font-weight="normal" fill-rule="nonzero" font-size="15.96000004px" font-variant="normal" y="0" x="0 8.8800001 17.76 22.203119" font-family="Arial" fill="#000000">data</tspan></text>
</g></g><path id="path12518" d="m520.44,272.87,54,0,0,48-54,0,0-48z" fill-rule="evenodd" fill="#0C9"/><path id="path12520" stroke-linejoin="miter" d="m520.44,272.87,54,0,0,48-54,0,0-48z" stroke="#000" stroke-linecap="butt" stroke-miterlimit="10" stroke-dasharray="none" stroke-width="0.72000003" fill="none"/><g id="g12522" transform="translate(29.524893,111.59464)"><g id="g12524" clip-path="url(#clipPath12526)"><text id="text12530" transform="matrix(1,0,0,-1,495.46,188.76)"><tspan id="tspan12532" style="writing-mode:lr-tb;" font-weight="normal" fill-rule="nonzero" font-size="15.96000004px" font-variant="normal" y="0" x="0 10.64532 19.519079 30.9624 39.836159" font-family="Arial" fill="#000000">Power</tspan></text>
</g></g><g id="g12534" transform="translate(29.524893,111.59464)"><g id="g12536" clip-path="url(#clipPath12538)"><text id="text12542" transform="matrix(1,0,0,-1,504.58,169.56)"><tspan id="tspan12544" style="writing-mode:lr-tb;" font-weight="normal" fill-rule="nonzero" font-size="15.96000004px" font-variant="normal" y="0" x="0 13.29468 22.16844" font-family="Arial" fill="#000000">mgt</tspan></text>
</g></g><path id="path12546" d="m466.44,272.87,54,0,0,48-54,0,0-48z" fill-rule="evenodd" fill="#0C9"/><path id="path12548" stroke-linejoin="miter" d="m466.44,272.87,54,0,0,48-54,0,0-48z" stroke="#000" stroke-linecap="butt" stroke-miterlimit="10" stroke-dasharray="none" stroke-width="0.72000003" fill="none"/><g id="g12550" transform="translate(29.524893,111.59464)"><g id="g12552" clip-path="url(#clipPath12554)"><text id="text12558" transform="matrix(1,0,0,-1,444.91,179.16)"><tspan id="tspan12560" style="writing-mode:lr-tb;" font-weight="normal" fill-rule="nonzero" font-size="15.96000004px" font-variant="normal" y="0" x="0 11.52312 20.396879 24.833759 30.148439" font-family="Arial" fill="#000000">Retry</tspan></text>
</g></g><path id="path12562" d="m682.44,272.87,54,0,0,48-54,0,0-48z" fill-rule="evenodd" fill="#0C9"/><path id="path12564" stroke-linejoin="miter" d="m682.44,272.87,54,0,0,48-54,0,0-48z" stroke="#000" stroke-linecap="butt" stroke-miterlimit="10" stroke-dasharray="none" stroke-width="0.72000003" fill="none"/><g id="g12566" transform="translate(29.524893,111.59464)"><g id="g12568" clip-path="url(#clipPath12570)"><text id="text12574" transform="matrix(1,0,0,-1,661.68,179.16)"><tspan id="tspan12576" style="writing-mode:lr-tb;" font-weight="normal" fill-rule="nonzero" font-size="15.96000004px" font-variant="normal" y="0" x="0 11.52312 19.551001 27.57888" font-family="Arial" fill="#000000">Rsvd</tspan></text>
</g></g><path id="path12578" d="m64.445,272.87,78,0,0,48-78,0,0-48z" fill-rule="evenodd" fill="#0C9"/><path id="path12580" stroke-linejoin="miter" d="m64.445,272.87,78,0,0,48-78,0,0-48z" stroke="#000" stroke-linecap="butt" stroke-miterlimit="10" stroke-dasharray="none" stroke-width="0.72000003" fill="none"/><g id="g12582" transform="translate(29.524893,111.59464)"><g id="g12584" clip-path="url(#clipPath12586)"><text id="text12590" transform="matrix(1,0,0,-1,44.544,188.76)"><tspan id="tspan12592" style="writing-mode:lr-tb;" font-weight="normal" fill-rule="nonzero" font-size="15.96000004px" font-variant="normal" y="0" x="0 10.64532 15.96 24.833759 29.270639 38.144402 46.18824 55.062" font-family="Arial" fill="#000000">Protocol</tspan></text>
</g></g><g id="g12594" transform="translate(29.524893,111.59464)"><g id="g12596" clip-path="url(#clipPath12598)"><text id="text12602" transform="matrix(1,0,0,-1,48.024,169.56)"><tspan id="tspan12604" style="writing-mode:lr-tb;" font-weight="normal" fill-rule="nonzero" font-size="15.96000004px" font-variant="normal" y="0" x="0 8.0278797 16.90164 22.21632 30.19632 33.819241 42.693001" font-family="Arial" fill="#000000">version</tspan></text>
</g></g><g id="g12606" transform="translate(29.524893,111.59464)"><g id="g12608" clip-path="url(#clipPath12610)"><text id="text12614" transform="matrix(1,0,0,-1,76.848,215.18)"><tspan id="tspan12616" style="writing-mode:lr-tb;" font-weight="normal" fill-rule="nonzero" font-size="18.02400017px" font-variant="normal" y="0" x="0" font-family="Arial" fill="#000000">2</tspan></text>
</g></g><g id="g12618" transform="translate(29.524893,111.59464)"><g id="g12620" clip-path="url(#clipPath12622)"><text id="text12626" transform="matrix(1,0,0,-1,150.1,212.04)"><tspan id="tspan12628" style="writing-mode:lr-tb;" font-weight="normal" fill-rule="nonzero" font-size="18px" font-variant="normal" y="0" x="0" font-family="Arial" fill="#000000">2</tspan></text>
</g></g><g id="g12630" transform="translate(29.524893,111.59464)"><g id="g12632" clip-path="url(#clipPath12634)"><text id="text12638" transform="matrix(1,0,0,-1,228.12,212.04)"><tspan id="tspan12640" style="writing-mode:lr-tb;" font-weight="normal" fill-rule="nonzero" font-size="18px" font-variant="normal" y="0" x="0" font-family="Arial" fill="#000000">4</tspan></text>
</g></g><g id="g12642" transform="translate(29.524893,111.59464)"><g id="g12644" clip-path="url(#clipPath12646)"><text id="text12650" transform="matrix(1,0,0,-1,300.12,212.04)"><tspan id="tspan12652" style="writing-mode:lr-tb;" font-weight="normal" fill-rule="nonzero" font-size="18px" font-variant="normal" y="0" x="0" font-family="Arial" fill="#000000">1</tspan></text>
</g></g><g id="g12654" transform="translate(29.524893,111.59464)"><g id="g12656" clip-path="url(#clipPath12658)"><text id="text12662" transform="matrix(1,0,0,-1,348.14,212.04)"><tspan id="tspan12664" style="writing-mode:lr-tb;" font-weight="normal" fill-rule="nonzero" font-size="18px" font-variant="normal" y="0" x="0" font-family="Arial" fill="#000000">1</tspan></text>
</g></g><g id="g12666" transform="translate(29.524893,111.59464)"><g id="g12668" clip-path="url(#clipPath12670)"><text id="text12674" transform="matrix(1,0,0,-1,402.14,212.04)"><tspan id="tspan12676" style="writing-mode:lr-tb;" font-weight="normal" fill-rule="nonzero" font-size="18px" font-variant="normal" y="0" x="0" font-family="Arial" fill="#000000">1</tspan></text>
</g></g><g id="g12678" transform="translate(29.524893,111.59464)"><g id="g12680" clip-path="url(#clipPath12682)"><text id="text12686" transform="matrix(1,0,0,-1,570.17,212.04)"><tspan id="tspan12688" style="writing-mode:lr-tb;" font-weight="normal" fill-rule="nonzero" font-size="18px" font-variant="normal" y="0" x="0" font-family="Arial" fill="#000000">1</tspan></text>
</g></g><g id="g12690" transform="translate(29.524893,111.59464)"><g id="g12692" clip-path="url(#clipPath12694)"><text id="text12698" transform="matrix(1,0,0,-1,624.19,212.04)"><tspan id="tspan12700" style="writing-mode:lr-tb;" font-weight="normal" fill-rule="nonzero" font-size="18px" font-variant="normal" y="0" x="0" font-family="Arial" fill="#000000">1</tspan></text>
</g></g><g id="g12702" transform="translate(29.524893,111.59464)"><g id="g12704" clip-path="url(#clipPath12706)"><text id="text12710" transform="matrix(1,0,0,-1,672.19,212.04)"><tspan id="tspan12712" style="writing-mode:lr-tb;" font-weight="normal" fill-rule="nonzero" font-size="18px" font-variant="normal" y="0" x="0" font-family="Arial" fill="#000000">1</tspan></text>
</g></g><g id="g12714" transform="translate(29.524893,111.59464)"><g id="g12716" clip-path="url(#clipPath12718)"><text id="text12722" transform="matrix(1,0,0,-1,462.14,212.04)"><tspan id="tspan12724" style="writing-mode:lr-tb;" font-weight="normal" fill-rule="nonzero" font-size="18px" font-variant="normal" y="0" x="0" font-family="Arial" fill="#000000">1</tspan></text>
</g></g><g id="g12726" transform="translate(29.524893,111.59464)"><g id="g12728" clip-path="url(#clipPath12730)"><text id="text12734" transform="matrix(1,0,0,-1,510.17,212.04)"><tspan id="tspan12736" style="writing-mode:lr-tb;" font-weight="normal" fill-rule="nonzero" font-size="18px" font-variant="normal" y="0" x="0" font-family="Arial" fill="#000000">1</tspan></text>
</g></g><g id="g12738" transform="translate(29.524893,111.59464)"><g id="g12740" clip-path="url(#clipPath12742)"><g id="g12776" mask="url(#mask12768)"><path id="path12794" d="m41.84,292.32-8-83,674.03-1c12.13,13.88-552.02,33-601.03,84h-65z" fill-rule="evenodd" fill="url(#linearGradient12778)"/></g></g></g><g id="g12796" transform="translate(29.524893,111.59464)"><g id="g12798" clip-path="url(#clipPath12800)"><text id="text12804" transform="matrix(1,0,0,-1,175.1,413.71)"><tspan id="tspan12806" style="writing-mode:lr-tb;" font-weight="normal" fill-rule="nonzero" font-size="18px" font-variant="normal" y="0" x="0 10.008 19.926001 25.92 35.928001 40.931999 44.928001 54.846001 64.853996 69.947998 79.956001 84.959999 89.963997 95.958 105.966 114.966 124.902 130.896 139.896 149.90401 159.82201" font-family="Arial" fill="#000000">duration of reserved</tspan></text>
</g></g><g id="g12808" transform="translate(29.524893,111.59464)"><g id="g12810" clip-path="url(#clipPath12812)"><text id="text12816" transform="matrix(1,0,0,-1,175.1,392.11)"><tspan id="tspan12818" style="writing-mode:lr-tb;" font-weight="normal" fill-rule="nonzero" font-size="18px" font-variant="normal" y="0" x="0 5.0040002 10.998 21.006001 30.959999 39.959999 54.953999 58.950001 67.949997 76.949997 80.874001 90.882004 100.8 105.948 110.952 114.948 129.942 139.95 144.95399 150.948 163.548 174.69 186.696 191.7 204.696 215.838 227.84399" font-family="Arial" fill="#000000">transmission time (RTS/CTS)</tspan></text>
</g></g><path id="path12820" d="m199.46,529.38-18.53-45.77,0.93-0.37,18.52,45.76-0.92,0.38zm-20.47-43.9,0.53-6.69,5.03,4.44-5.56,2.25z" fill-rule="nonzero" fill="#000"/><g id="g12822" transform="translate(29.524893,111.59464)"><g id="g12824" clip-path="url(#clipPath12826)"><text id="text12830" transform="matrix(1,0,0,-1,473.9,424.61)"><tspan id="tspan12832" style="writing-mode:lr-tb;" font-weight="normal" fill-rule="nonzero" font-size="18px" font-variant="normal" y="0" x="0 5.0040002 10.998 21.006001 36 46.007999 51.012001 60.012001 69.966003 79.973999 84.977997" font-family="Arial" fill="#000000">frame seq #</tspan></text>
</g></g><g id="g12834" transform="translate(29.524893,111.59464)"><g id="g12836" clip-path="url(#clipPath12838)"><text id="text12842" transform="matrix(1,0,0,-1,473.9,402.98)"><tspan id="tspan12844" style="writing-mode:lr-tb;" font-weight="normal" fill-rule="nonzero" font-size="18px" font-variant="normal" y="0" x="0 5.994 10.998 21.006001 27 32.004002 45 57.995998 69.101997" font-family="Arial" fill="#000000">(for RDT)</tspan></text>
</g></g><path id="path12846" d="m493.48,534.23-36.05-67.47,0.89-0.48,36.04,67.47-0.88,0.48zm-37.78-65.41-0.18-6.71,5.47,3.88-5.29,2.83z" fill-rule="nonzero" fill="#000"/><path id="path12848" d="m207.98,214.48-18.53,45.77,0.93,0.37,18.52-45.76-0.92-0.38zm-20.47,43.9,0.53,6.69,5.03-4.44-5.56-2.25z" fill-rule="nonzero" fill="#000"/><g id="g12850" transform="translate(29.524893,111.59464)"><g id="g12852" clip-path="url(#clipPath12854)"><text id="text12858" transform="matrix(1,0,0,-1,179.86,87.264)"><tspan id="tspan12860" style="writing-mode:lr-tb;" font-weight="normal" fill-rule="nonzero" font-size="18px" font-variant="normal" y="0" x="0 5.0040002 10.998 21.006001 36 46.007999 51.012001 56.015999 64.800003 74.807999" font-family="Arial" fill="#000000">frame type</tspan></text>
</g></g><g id="g12862" transform="translate(29.524893,111.59464)"><g id="g12864" clip-path="url(#clipPath12866)"><text id="text12870" transform="matrix(1,0,0,-1,179.86,65.664)"><tspan id="tspan12872" style="writing-mode:lr-tb;" font-weight="normal" fill-rule="nonzero" font-size="18px" font-variant="normal" y="0" x="0 5.994 18.594 29.736 41.742001 46.745998 51.695999 64.692001 75.797997 87.804001 92.807999 96.678001 108.684 121.68 133.686 138.69 143.604 153.612 163.53 168.534 178.54201" font-family="Arial" fill="#000000">(RTS, CTS, ACK, data)</tspan></text>
</g></g></g></svg>
