<?xml version="1.0" encoding="UTF-8" standalone="no"?>
<!-- Created with Inkscape (http://www.inkscape.org/) -->

<svg
   xmlns:dc="http://purl.org/dc/elements/1.1/"
   xmlns:cc="http://creativecommons.org/ns#"
   xmlns:rdf="http://www.w3.org/1999/02/22-rdf-syntax-ns#"
   xmlns:svg="http://www.w3.org/2000/svg"
   xmlns="http://www.w3.org/2000/svg"
   xmlns:sodipodi="http://sodipodi.sourceforge.net/DTD/sodipodi-0.dtd"
   xmlns:inkscape="http://www.inkscape.org/namespaces/inkscape"
   width="727.53528"
   height="479.88528"
   viewBox="0 0 727.53524 479.88527"
   id="svg2"
   version="1.1"
   inkscape:version="0.48.5 r10040"
   sodipodi:docname="MultiplosSaltos.svg">
  <defs
     id="defs4">
    <marker
       inkscape:stockid="Arrow1Lend"
       orient="auto"
       refY="0"
       refX="0"
       id="Arrow1Lend"
       style="overflow:visible">
      <path
         id="path3836"
         d="M 0,0 5,-5 -12.5,0 5,5 0,0 z"
         style="fill-rule:evenodd;stroke:#000000;stroke-width:1pt"
         transform="matrix(-0.8,0,0,-0.8,-10,0)"
         inkscape:connector-curvature="0" />
    </marker>
  </defs>
  <sodipodi:namedview
     id="base"
     pagecolor="#ffffff"
     bordercolor="#666666"
     borderopacity="1.0"
     inkscape:pageopacity="0.0"
     inkscape:pageshadow="2"
     inkscape:zoom="1.4"
     inkscape:cx="314.4491"
     inkscape:cy="228.12989"
     inkscape:document-units="px"
     inkscape:current-layer="layer1"
     showgrid="false"
     fit-margin-top="1"
     fit-margin-left="1"
     fit-margin-right="1"
     fit-margin-bottom="1"
     inkscape:window-width="1920"
     inkscape:window-height="1027"
     inkscape:window-x="0"
     inkscape:window-y="31"
     inkscape:window-maximized="1" />
  <metadata
     id="metadata7">
    <rdf:RDF>
      <cc:Work
         rdf:about="">
        <dc:format>image/svg+xml</dc:format>
        <dc:type
           rdf:resource="http://purl.org/dc/dcmitype/StillImage" />
        <dc:title></dc:title>
      </cc:Work>
    </rdf:RDF>
  </metadata>
  <g
     inkscape:label="Layer 1"
     inkscape:groupmode="layer"
     id="layer1"
     transform="translate(-430.80831,-296.2001)">
    <g
       id="g3032">
      <path
         inkscape:connector-curvature="0"
         id="path3020"
         d="m 630.4673,359.22087 165.66502,0"
         style="fill:none;stroke:#000000;stroke-width:1;stroke-linecap:butt;stroke-linejoin:miter;stroke-miterlimit:4;stroke-opacity:1;stroke-dasharray:8, 8;stroke-dashoffset:0" />
      <path
         style="fill:none;stroke:#000000;stroke-width:1;stroke-linecap:butt;stroke-linejoin:miter;stroke-miterlimit:4;stroke-opacity:1;stroke-dasharray:8, 8;stroke-dashoffset:0"
         d="m 796.89587,359.22087 165.66502,0"
         id="path3024"
         inkscape:connector-curvature="0" />
      <path
         inkscape:connector-curvature="0"
         id="path3028"
         d="m 961.18158,359.22087 165.66502,0"
         style="fill:none;stroke:#000000;stroke-width:1;stroke-linecap:butt;stroke-linejoin:miter;stroke-miterlimit:4;stroke-opacity:1;stroke-dasharray:8, 8;stroke-dashoffset:0" />
      <path
         style="fill:none;stroke:#000000;stroke-width:1;stroke-linecap:butt;stroke-linejoin:miter;stroke-miterlimit:4;stroke-opacity:1;stroke-dasharray:8, 8;stroke-dashoffset:0"
         d="m 462.61016,359.22087 165.66502,0"
         id="path4569"
         inkscape:connector-curvature="0" />
      <ellipse
         transform="translate(75.714285,-277.14285)"
         ry="29.098438"
         rx="29.877861"
         cy="636.64392"
         cx="552.40845"
         id="ellipse4571"
         style="opacity:0.97000002;fill:#008000;fill-opacity:1;stroke:#000000;stroke-width:1.54317784;stroke-miterlimit:4;stroke-opacity:1;stroke-dasharray:none;stroke-dashoffset:0"
         d="m 582.28631,636.64392 c 0,16.07062 -13.37678,29.09844 -29.87786,29.09844 -16.50109,0 -29.87786,-13.02782 -29.87786,-29.09844 0,-16.07062 13.37677,-29.09844 29.87786,-29.09844 16.50108,0 29.87786,13.02782 29.87786,29.09844 z"
         sodipodi:cx="552.40845"
         sodipodi:cy="636.64392"
         sodipodi:rx="29.877861"
         sodipodi:ry="29.098438" />
      <ellipse
         transform="translate(75.714285,-277.14285)"
         style="opacity:0.97000002;fill:#008000;fill-opacity:1;stroke:#000000;stroke-width:1.54317784;stroke-miterlimit:4;stroke-opacity:1;stroke-dasharray:none;stroke-dashoffset:0"
         id="ellipse4573"
         cx="386.74347"
         cy="636.64392"
         rx="29.877861"
         ry="29.098438"
         d="m 416.62133,636.64392 c 0,16.07062 -13.37677,29.09844 -29.87786,29.09844 -16.50109,0 -29.87786,-13.02782 -29.87786,-29.09844 0,-16.07062 13.37677,-29.09844 29.87786,-29.09844 16.50109,0 29.87786,13.02782 29.87786,29.09844 z"
         sodipodi:cx="386.74347"
         sodipodi:cy="636.64392"
         sodipodi:rx="29.877861"
         sodipodi:ry="29.098438" />
      <ellipse
         sodipodi:ry="29.098438"
         sodipodi:rx="29.877861"
         sodipodi:cy="636.64392"
         sodipodi:cx="552.40845"
         d="m 582.28631,636.64392 c 0,16.07062 -13.37678,29.09844 -29.87786,29.09844 -16.50109,0 -29.87786,-13.02782 -29.87786,-29.09844 0,-16.07062 13.37677,-29.09844 29.87786,-29.09844 16.50108,0 29.87786,13.02782 29.87786,29.09844 z"
         style="opacity:0.97000002;fill:#008000;fill-opacity:1;stroke:#000000;stroke-width:1.54317784;stroke-miterlimit:4;stroke-opacity:1;stroke-dasharray:none;stroke-dashoffset:0"
         id="ellipse3022"
         cx="552.40845"
         cy="636.64392"
         rx="29.877861"
         ry="29.098438"
         transform="translate(243.57142,-277.14285)" />
      <ellipse
         transform="translate(409.99999,-277.14285)"
         ry="29.098438"
         rx="29.877861"
         cy="636.64392"
         cx="552.40845"
         id="ellipse3026"
         style="opacity:0.97000002;fill:#008000;fill-opacity:1;stroke:#000000;stroke-width:1.54317784;stroke-miterlimit:4;stroke-opacity:1;stroke-dasharray:none;stroke-dashoffset:0"
         d="m 582.28631,636.64392 c 0,16.07062 -13.37678,29.09844 -29.87786,29.09844 -16.50109,0 -29.87786,-13.02782 -29.87786,-29.09844 0,-16.07062 13.37677,-29.09844 29.87786,-29.09844 16.50108,0 29.87786,13.02782 29.87786,29.09844 z"
         sodipodi:cx="552.40845"
         sodipodi:cy="636.64392"
         sodipodi:rx="29.877861"
         sodipodi:ry="29.098438" />
      <ellipse
         sodipodi:ry="29.098438"
         sodipodi:rx="29.877861"
         sodipodi:cy="636.64392"
         sodipodi:cx="552.40845"
         d="m 582.28631,636.64392 c 0,16.07062 -13.37678,29.09844 -29.87786,29.09844 -16.50109,0 -29.87786,-13.02782 -29.87786,-29.09844 0,-16.07062 13.37677,-29.09844 29.87786,-29.09844 16.50108,0 29.87786,13.02782 29.87786,29.09844 z"
         style="opacity:0.97000002;fill:#008000;fill-opacity:1;stroke:#000000;stroke-width:1.54317784;stroke-miterlimit:4;stroke-opacity:1;stroke-dasharray:none;stroke-dashoffset:0"
         id="ellipse3030"
         cx="552.40845"
         cy="636.64392"
         rx="29.877861"
         ry="29.098438"
         transform="translate(574.2857,-277.14285)" />
    </g>
    <rect
       style="fill:#00aa88;fill-opacity:1;stroke:none"
       id="rect3825"
       width="45"
       height="25.714285"
       x="521.12213"
       y="297.2001" />
    <path
       style="fill:none;stroke:#000000;stroke-width:1px;stroke-linecap:butt;stroke-linejoin:miter;stroke-opacity:1;marker-end:url(#Arrow1Lend)"
       d="m 62.857143,30.398091 c 0,0 57.142857,-58.571429 107.142857,0"
       id="path3827"
       inkscape:connector-curvature="0"
       transform="translate(428.26499,326.08774)" />
    <g
       id="g4273"
       transform="translate(0,125)">
      <path
         style="fill:none;stroke:#000000;stroke-width:1;stroke-linecap:butt;stroke-linejoin:miter;stroke-miterlimit:4;stroke-opacity:1;stroke-dasharray:8, 8;stroke-dashoffset:0"
         d="m 630.4673,359.22087 165.66502,0"
         id="path4275"
         inkscape:connector-curvature="0" />
      <path
         inkscape:connector-curvature="0"
         id="path4277"
         d="m 796.89587,359.22087 165.66502,0"
         style="fill:none;stroke:#000000;stroke-width:1;stroke-linecap:butt;stroke-linejoin:miter;stroke-miterlimit:4;stroke-opacity:1;stroke-dasharray:8, 8;stroke-dashoffset:0" />
      <path
         style="fill:none;stroke:#000000;stroke-width:1;stroke-linecap:butt;stroke-linejoin:miter;stroke-miterlimit:4;stroke-opacity:1;stroke-dasharray:8, 8;stroke-dashoffset:0"
         d="m 961.18158,359.22087 165.66502,0"
         id="path4279"
         inkscape:connector-curvature="0" />
      <path
         inkscape:connector-curvature="0"
         id="path4281"
         d="m 462.61016,359.22087 165.66502,0"
         style="fill:none;stroke:#000000;stroke-width:1;stroke-linecap:butt;stroke-linejoin:miter;stroke-miterlimit:4;stroke-opacity:1;stroke-dasharray:8, 8;stroke-dashoffset:0" />
      <ellipse
         sodipodi:ry="29.098438"
         sodipodi:rx="29.877861"
         sodipodi:cy="636.64392"
         sodipodi:cx="552.40845"
         d="m 582.28631,636.64392 c 0,16.07062 -13.37678,29.09844 -29.87786,29.09844 -16.50109,0 -29.87786,-13.02782 -29.87786,-29.09844 0,-16.07062 13.37677,-29.09844 29.87786,-29.09844 16.50108,0 29.87786,13.02782 29.87786,29.09844 z"
         style="opacity:0.97000002;fill:#008000;fill-opacity:1;stroke:#000000;stroke-width:1.54317784;stroke-miterlimit:4;stroke-opacity:1;stroke-dasharray:none;stroke-dashoffset:0"
         id="ellipse4283"
         cx="552.40845"
         cy="636.64392"
         rx="29.877861"
         ry="29.098438"
         transform="translate(75.714285,-277.14285)" />
      <ellipse
         sodipodi:ry="29.098438"
         sodipodi:rx="29.877861"
         sodipodi:cy="636.64392"
         sodipodi:cx="386.74347"
         d="m 416.62133,636.64392 c 0,16.07062 -13.37677,29.09844 -29.87786,29.09844 -16.50109,0 -29.87786,-13.02782 -29.87786,-29.09844 0,-16.07062 13.37677,-29.09844 29.87786,-29.09844 16.50109,0 29.87786,13.02782 29.87786,29.09844 z"
         ry="29.098438"
         rx="29.877861"
         cy="636.64392"
         cx="386.74347"
         id="ellipse4285"
         style="opacity:0.97000002;fill:#008000;fill-opacity:1;stroke:#000000;stroke-width:1.54317784;stroke-miterlimit:4;stroke-opacity:1;stroke-dasharray:none;stroke-dashoffset:0"
         transform="translate(75.714285,-277.14285)" />
      <ellipse
         transform="translate(243.57142,-277.14285)"
         ry="29.098438"
         rx="29.877861"
         cy="636.64392"
         cx="552.40845"
         id="ellipse4287"
         style="opacity:0.97000002;fill:#008000;fill-opacity:1;stroke:#000000;stroke-width:1.54317784;stroke-miterlimit:4;stroke-opacity:1;stroke-dasharray:none;stroke-dashoffset:0"
         d="m 582.28631,636.64392 c 0,16.07062 -13.37678,29.09844 -29.87786,29.09844 -16.50109,0 -29.87786,-13.02782 -29.87786,-29.09844 0,-16.07062 13.37677,-29.09844 29.87786,-29.09844 16.50108,0 29.87786,13.02782 29.87786,29.09844 z"
         sodipodi:cx="552.40845"
         sodipodi:cy="636.64392"
         sodipodi:rx="29.877861"
         sodipodi:ry="29.098438" />
      <ellipse
         sodipodi:ry="29.098438"
         sodipodi:rx="29.877861"
         sodipodi:cy="636.64392"
         sodipodi:cx="552.40845"
         d="m 582.28631,636.64392 c 0,16.07062 -13.37678,29.09844 -29.87786,29.09844 -16.50109,0 -29.87786,-13.02782 -29.87786,-29.09844 0,-16.07062 13.37677,-29.09844 29.87786,-29.09844 16.50108,0 29.87786,13.02782 29.87786,29.09844 z"
         style="opacity:0.97000002;fill:#008000;fill-opacity:1;stroke:#000000;stroke-width:1.54317784;stroke-miterlimit:4;stroke-opacity:1;stroke-dasharray:none;stroke-dashoffset:0"
         id="ellipse4289"
         cx="552.40845"
         cy="636.64392"
         rx="29.877861"
         ry="29.098438"
         transform="translate(409.99999,-277.14285)" />
      <ellipse
         transform="translate(574.2857,-277.14285)"
         ry="29.098438"
         rx="29.877861"
         cy="636.64392"
         cx="552.40845"
         id="ellipse4291"
         style="opacity:0.97000002;fill:#008000;fill-opacity:1;stroke:#000000;stroke-width:1.54317784;stroke-miterlimit:4;stroke-opacity:1;stroke-dasharray:none;stroke-dashoffset:0"
         d="m 582.28631,636.64392 c 0,16.07062 -13.37678,29.09844 -29.87786,29.09844 -16.50109,0 -29.87786,-13.02782 -29.87786,-29.09844 0,-16.07062 13.37677,-29.09844 29.87786,-29.09844 16.50108,0 29.87786,13.02782 29.87786,29.09844 z"
         sodipodi:cx="552.40845"
         sodipodi:cy="636.64392"
         sodipodi:rx="29.877861"
         sodipodi:ry="29.098438" />
    </g>
    <rect
       y="422.2001"
       x="688.97925"
       height="25.714285"
       width="45"
       id="rect4293"
       style="fill:#00aa88;fill-opacity:1;stroke:none" />
    <path
       inkscape:connector-curvature="0"
       id="path4295"
       d="m 657.5507,481.48583 c 0,0 57.14286,-58.57143 107.14286,0"
       style="fill:none;stroke:#000000;stroke-width:1px;stroke-linecap:butt;stroke-linejoin:miter;stroke-opacity:1;marker-end:url(#Arrow1Lend)" />
    <rect
       style="fill:#00aa88;fill-opacity:1;stroke:none"
       id="rect4297"
       width="45"
       height="25.714285"
       x="438.97928"
       y="422.2001" />
    <g
       transform="translate(0,261.42857)"
       id="g4301">
      <path
         inkscape:connector-curvature="0"
         id="path4303"
         d="m 630.4673,359.22087 165.66502,0"
         style="fill:none;stroke:#000000;stroke-width:1;stroke-linecap:butt;stroke-linejoin:miter;stroke-miterlimit:4;stroke-opacity:1;stroke-dasharray:8, 8;stroke-dashoffset:0" />
      <path
         style="fill:none;stroke:#000000;stroke-width:1;stroke-linecap:butt;stroke-linejoin:miter;stroke-miterlimit:4;stroke-opacity:1;stroke-dasharray:8, 8;stroke-dashoffset:0"
         d="m 796.89587,359.22087 165.66502,0"
         id="path4305"
         inkscape:connector-curvature="0" />
      <path
         inkscape:connector-curvature="0"
         id="path4307"
         d="m 961.18158,359.22087 165.66502,0"
         style="fill:none;stroke:#000000;stroke-width:1;stroke-linecap:butt;stroke-linejoin:miter;stroke-miterlimit:4;stroke-opacity:1;stroke-dasharray:8, 8;stroke-dashoffset:0" />
      <path
         style="fill:none;stroke:#000000;stroke-width:1;stroke-linecap:butt;stroke-linejoin:miter;stroke-miterlimit:4;stroke-opacity:1;stroke-dasharray:8, 8;stroke-dashoffset:0"
         d="m 462.61016,359.22087 165.66502,0"
         id="path4309"
         inkscape:connector-curvature="0" />
      <ellipse
         transform="translate(75.714285,-277.14285)"
         ry="29.098438"
         rx="29.877861"
         cy="636.64392"
         cx="552.40845"
         id="ellipse4311"
         style="opacity:0.97000002;fill:#008000;fill-opacity:1;stroke:#000000;stroke-width:1.54317784;stroke-miterlimit:4;stroke-opacity:1;stroke-dasharray:none;stroke-dashoffset:0"
         d="m 582.28631,636.64392 c 0,16.07062 -13.37678,29.09844 -29.87786,29.09844 -16.50109,0 -29.87786,-13.02782 -29.87786,-29.09844 0,-16.07062 13.37677,-29.09844 29.87786,-29.09844 16.50108,0 29.87786,13.02782 29.87786,29.09844 z"
         sodipodi:cx="552.40845"
         sodipodi:cy="636.64392"
         sodipodi:rx="29.877861"
         sodipodi:ry="29.098438" />
      <ellipse
         transform="translate(75.714285,-277.14285)"
         style="opacity:0.97000002;fill:#008000;fill-opacity:1;stroke:#000000;stroke-width:1.54317784;stroke-miterlimit:4;stroke-opacity:1;stroke-dasharray:none;stroke-dashoffset:0"
         id="ellipse4313"
         cx="386.74347"
         cy="636.64392"
         rx="29.877861"
         ry="29.098438"
         d="m 416.62133,636.64392 c 0,16.07062 -13.37677,29.09844 -29.87786,29.09844 -16.50109,0 -29.87786,-13.02782 -29.87786,-29.09844 0,-16.07062 13.37677,-29.09844 29.87786,-29.09844 16.50109,0 29.87786,13.02782 29.87786,29.09844 z"
         sodipodi:cx="386.74347"
         sodipodi:cy="636.64392"
         sodipodi:rx="29.877861"
         sodipodi:ry="29.098438" />
      <ellipse
         sodipodi:ry="29.098438"
         sodipodi:rx="29.877861"
         sodipodi:cy="636.64392"
         sodipodi:cx="552.40845"
         d="m 582.28631,636.64392 c 0,16.07062 -13.37678,29.09844 -29.87786,29.09844 -16.50109,0 -29.87786,-13.02782 -29.87786,-29.09844 0,-16.07062 13.37677,-29.09844 29.87786,-29.09844 16.50108,0 29.87786,13.02782 29.87786,29.09844 z"
         style="opacity:0.97000002;fill:#008000;fill-opacity:1;stroke:#000000;stroke-width:1.54317784;stroke-miterlimit:4;stroke-opacity:1;stroke-dasharray:none;stroke-dashoffset:0"
         id="ellipse4315"
         cx="552.40845"
         cy="636.64392"
         rx="29.877861"
         ry="29.098438"
         transform="translate(243.57142,-277.14285)" />
      <ellipse
         transform="translate(409.99999,-277.14285)"
         ry="29.098438"
         rx="29.877861"
         cy="636.64392"
         cx="552.40845"
         id="ellipse4317"
         style="opacity:0.97000002;fill:#008000;fill-opacity:1;stroke:#000000;stroke-width:1.54317784;stroke-miterlimit:4;stroke-opacity:1;stroke-dasharray:none;stroke-dashoffset:0"
         d="m 582.28631,636.64392 c 0,16.07062 -13.37678,29.09844 -29.87786,29.09844 -16.50109,0 -29.87786,-13.02782 -29.87786,-29.09844 0,-16.07062 13.37677,-29.09844 29.87786,-29.09844 16.50108,0 29.87786,13.02782 29.87786,29.09844 z"
         sodipodi:cx="552.40845"
         sodipodi:cy="636.64392"
         sodipodi:rx="29.877861"
         sodipodi:ry="29.098438" />
      <ellipse
         sodipodi:ry="29.098438"
         sodipodi:rx="29.877861"
         sodipodi:cy="636.64392"
         sodipodi:cx="552.40845"
         d="m 582.28631,636.64392 c 0,16.07062 -13.37678,29.09844 -29.87786,29.09844 -16.50109,0 -29.87786,-13.02782 -29.87786,-29.09844 0,-16.07062 13.37677,-29.09844 29.87786,-29.09844 16.50108,0 29.87786,13.02782 29.87786,29.09844 z"
         style="opacity:0.97000002;fill:#008000;fill-opacity:1;stroke:#000000;stroke-width:1.54317784;stroke-miterlimit:4;stroke-opacity:1;stroke-dasharray:none;stroke-dashoffset:0"
         id="ellipse4319"
         cx="552.40845"
         cy="636.64392"
         rx="29.877861"
         ry="29.098438"
         transform="translate(574.2857,-277.14285)" />
    </g>
    <rect
       style="fill:#00aa88;fill-opacity:1;stroke:none"
       id="rect4321"
       width="45"
       height="25.714285"
       x="858.26495"
       y="558.62866" />
    <path
       style="fill:none;stroke:#000000;stroke-width:1px;stroke-linecap:butt;stroke-linejoin:miter;stroke-opacity:1;marker-end:url(#Arrow1Lend)"
       d="m 826.83641,617.9144 c 0,0 57.14286,-58.57143 107.14286,0"
       id="path4323"
       inkscape:connector-curvature="0" />
    <rect
       y="558.62866"
       x="438.97928"
       height="25.714285"
       width="45"
       id="rect4325"
       style="fill:#00aa88;fill-opacity:1;stroke:none" />
    <g
       id="g4327"
       transform="translate(0,385.71428)">
      <path
         style="fill:none;stroke:#000000;stroke-width:1;stroke-linecap:butt;stroke-linejoin:miter;stroke-miterlimit:4;stroke-opacity:1;stroke-dasharray:8, 8;stroke-dashoffset:0"
         d="m 630.4673,359.22087 165.66502,0"
         id="path4329"
         inkscape:connector-curvature="0" />
      <path
         inkscape:connector-curvature="0"
         id="path4331"
         d="m 796.89587,359.22087 165.66502,0"
         style="fill:none;stroke:#000000;stroke-width:1;stroke-linecap:butt;stroke-linejoin:miter;stroke-miterlimit:4;stroke-opacity:1;stroke-dasharray:8, 8;stroke-dashoffset:0" />
      <path
         style="fill:none;stroke:#000000;stroke-width:1;stroke-linecap:butt;stroke-linejoin:miter;stroke-miterlimit:4;stroke-opacity:1;stroke-dasharray:8, 8;stroke-dashoffset:0"
         d="m 961.18158,359.22087 165.66502,0"
         id="path4333"
         inkscape:connector-curvature="0" />
      <path
         inkscape:connector-curvature="0"
         id="path4335"
         d="m 462.61016,359.22087 165.66502,0"
         style="fill:none;stroke:#000000;stroke-width:1;stroke-linecap:butt;stroke-linejoin:miter;stroke-miterlimit:4;stroke-opacity:1;stroke-dasharray:8, 8;stroke-dashoffset:0" />
      <ellipse
         sodipodi:ry="29.098438"
         sodipodi:rx="29.877861"
         sodipodi:cy="636.64392"
         sodipodi:cx="552.40845"
         d="m 582.28631,636.64392 c 0,16.07062 -13.37678,29.09844 -29.87786,29.09844 -16.50109,0 -29.87786,-13.02782 -29.87786,-29.09844 0,-16.07062 13.37677,-29.09844 29.87786,-29.09844 16.50108,0 29.87786,13.02782 29.87786,29.09844 z"
         style="opacity:0.97000002;fill:#008000;fill-opacity:1;stroke:#000000;stroke-width:1.54317784;stroke-miterlimit:4;stroke-opacity:1;stroke-dasharray:none;stroke-dashoffset:0"
         id="ellipse4337"
         cx="552.40845"
         cy="636.64392"
         rx="29.877861"
         ry="29.098438"
         transform="translate(75.714285,-277.14285)" />
      <ellipse
         sodipodi:ry="29.098438"
         sodipodi:rx="29.877861"
         sodipodi:cy="636.64392"
         sodipodi:cx="386.74347"
         d="m 416.62133,636.64392 c 0,16.07062 -13.37677,29.09844 -29.87786,29.09844 -16.50109,0 -29.87786,-13.02782 -29.87786,-29.09844 0,-16.07062 13.37677,-29.09844 29.87786,-29.09844 16.50109,0 29.87786,13.02782 29.87786,29.09844 z"
         ry="29.098438"
         rx="29.877861"
         cy="636.64392"
         cx="386.74347"
         id="ellipse4339"
         style="opacity:0.97000002;fill:#008000;fill-opacity:1;stroke:#000000;stroke-width:1.54317784;stroke-miterlimit:4;stroke-opacity:1;stroke-dasharray:none;stroke-dashoffset:0"
         transform="translate(75.714285,-277.14285)" />
      <ellipse
         transform="translate(243.57142,-277.14285)"
         ry="29.098438"
         rx="29.877861"
         cy="636.64392"
         cx="552.40845"
         id="ellipse4341"
         style="opacity:0.97000002;fill:#008000;fill-opacity:1;stroke:#000000;stroke-width:1.54317784;stroke-miterlimit:4;stroke-opacity:1;stroke-dasharray:none;stroke-dashoffset:0"
         d="m 582.28631,636.64392 c 0,16.07062 -13.37678,29.09844 -29.87786,29.09844 -16.50109,0 -29.87786,-13.02782 -29.87786,-29.09844 0,-16.07062 13.37677,-29.09844 29.87786,-29.09844 16.50108,0 29.87786,13.02782 29.87786,29.09844 z"
         sodipodi:cx="552.40845"
         sodipodi:cy="636.64392"
         sodipodi:rx="29.877861"
         sodipodi:ry="29.098438" />
      <ellipse
         sodipodi:ry="29.098438"
         sodipodi:rx="29.877861"
         sodipodi:cy="636.64392"
         sodipodi:cx="552.40845"
         d="m 582.28631,636.64392 c 0,16.07062 -13.37678,29.09844 -29.87786,29.09844 -16.50109,0 -29.87786,-13.02782 -29.87786,-29.09844 0,-16.07062 13.37677,-29.09844 29.87786,-29.09844 16.50108,0 29.87786,13.02782 29.87786,29.09844 z"
         style="opacity:0.97000002;fill:#008000;fill-opacity:1;stroke:#000000;stroke-width:1.54317784;stroke-miterlimit:4;stroke-opacity:1;stroke-dasharray:none;stroke-dashoffset:0"
         id="ellipse4343"
         cx="552.40845"
         cy="636.64392"
         rx="29.877861"
         ry="29.098438"
         transform="translate(409.99999,-277.14285)" />
      <ellipse
         transform="translate(574.2857,-277.14285)"
         ry="29.098438"
         rx="29.877861"
         cy="636.64392"
         cx="552.40845"
         id="ellipse4345"
         style="opacity:0.97000002;fill:#008000;fill-opacity:1;stroke:#000000;stroke-width:1.54317784;stroke-miterlimit:4;stroke-opacity:1;stroke-dasharray:none;stroke-dashoffset:0"
         d="m 582.28631,636.64392 c 0,16.07062 -13.37678,29.09844 -29.87786,29.09844 -16.50109,0 -29.87786,-13.02782 -29.87786,-29.09844 0,-16.07062 13.37677,-29.09844 29.87786,-29.09844 16.50108,0 29.87786,13.02782 29.87786,29.09844 z"
         sodipodi:cx="552.40845"
         sodipodi:cy="636.64392"
         sodipodi:rx="29.877861"
         sodipodi:ry="29.098438" />
    </g>
    <rect
       y="682.91437"
       x="1023.265"
       height="25.714285"
       width="45"
       id="rect4347"
       style="fill:#00aa88;fill-opacity:1;stroke:none" />
    <path
       inkscape:connector-curvature="0"
       id="path4349"
       d="m 990.40784,742.20011 c 0,0 57.14286,-58.57143 107.14286,0"
       style="fill:none;stroke:#000000;stroke-width:1px;stroke-linecap:butt;stroke-linejoin:miter;stroke-opacity:1;marker-end:url(#Arrow1Lend)" />
    <rect
       y="683.62866"
       x="521.12213"
       height="25.714285"
       width="45"
       id="rect4353"
       style="fill:#00aa88;fill-opacity:1;stroke:none" />
    <path
       inkscape:connector-curvature="0"
       id="path4355"
       d="m 491.12213,742.9144 c 0,0 57.14286,-58.57143 107.14286,0"
       style="fill:none;stroke:#000000;stroke-width:1px;stroke-linecap:butt;stroke-linejoin:miter;stroke-opacity:1;marker-end:url(#Arrow1Lend)" />
  </g>
</svg>
