<?xml version="1.0" encoding="UTF-8" standalone="no"?>
<!-- Created with Inkscape (http://www.inkscape.org/) -->

<svg
   xmlns:dc="http://purl.org/dc/elements/1.1/"
   xmlns:cc="http://creativecommons.org/ns#"
   xmlns:rdf="http://www.w3.org/1999/02/22-rdf-syntax-ns#"
   xmlns:svg="http://www.w3.org/2000/svg"
   xmlns="http://www.w3.org/2000/svg"
   xmlns:sodipodi="http://sodipodi.sourceforge.net/DTD/sodipodi-0.dtd"
   xmlns:inkscape="http://www.inkscape.org/namespaces/inkscape"
   id="svg6455"
   version="1.1"
   inkscape:version="0.48.5 r10040"
   width="512.66077"
   height="184.86136"
   xml:space="preserve"
   sodipodi:docname="sbc-template.pdf"><metadata
     id="metadata6461"><rdf:RDF><cc:Work
         rdf:about=""><dc:format>image/svg+xml</dc:format><dc:type
           rdf:resource="http://purl.org/dc/dcmitype/StillImage" /><dc:title></dc:title></cc:Work></rdf:RDF></metadata><defs
     id="defs6459"><clipPath
       clipPathUnits="userSpaceOnUse"
       id="clipPath6471"><path
         d="M 0,0 311,0 311,198 0,198 0,0 z"
         id="path6473"
         inkscape:connector-curvature="0" /></clipPath><clipPath
       clipPathUnits="userSpaceOnUse"
       id="clipPath6661"><path
         d="M 0,0 311,0 311,198 0,198 0,0 z"
         id="path6663"
         inkscape:connector-curvature="0" /></clipPath></defs><sodipodi:namedview
     pagecolor="#ffffff"
     bordercolor="#666666"
     borderopacity="1"
     objecttolerance="10"
     gridtolerance="10"
     guidetolerance="10"
     inkscape:pageopacity="0"
     inkscape:pageshadow="2"
     inkscape:window-width="1920"
     inkscape:window-height="1027"
     id="namedview6457"
     showgrid="false"
     fit-margin-top="0"
     fit-margin-left="0"
     fit-margin-right="0"
     fit-margin-bottom="0"
     inkscape:zoom="1.7940585"
     inkscape:cx="165.64466"
     inkscape:cy="94.506973"
     inkscape:window-x="0"
     inkscape:window-y="31"
     inkscape:window-maximized="1"
     inkscape:current-layer="g6463" /><g
     id="g6463"
     inkscape:groupmode="layer"
     inkscape:label="sbc-template"
     transform="matrix(1.25,0,0,-1.25,-3.0743765,161.11105)"><g
       id="g6465"
       transform="scale(0.6745,0.6745)"><g
         id="g6467"><g
           id="g6469" /><g
           id="g6475"><g
             clip-path="url(#clipPath6471)"
             id="g6477"><g
               id="g6479"><g
                 transform="matrix(1,0,0,-1,0,198)"
                 id="g6481"><path
                   d="m 46.648,121.898 249.5,0"
                   style="fill:none;stroke:#000000;stroke-width:0.15000001;stroke-linecap:square;stroke-linejoin:miter;stroke-miterlimit:3.79999995;stroke-opacity:1;stroke-dasharray:0.2, 2;stroke-dashoffset:0"
                   id="path6483"
                   inkscape:connector-curvature="0" /></g><g
                 transform="matrix(1,0,0,-1,0,198)"
                 id="g6485"><path
                   d="m 46.648,121.898 -3.699,0"
                   style="fill:none;stroke:#000000;stroke-width:0.25;stroke-linecap:square;stroke-linejoin:miter;stroke-miterlimit:3.79999995;stroke-opacity:1;stroke-dasharray:none"
                   id="path6487"
                   inkscape:connector-curvature="0" /></g><text
                 transform="matrix(1,0,0,-1,31.884345,73.063477)"
                 id="text6489"><tspan
                   style="font-size:9.33300781px;font-variant:normal;font-weight:normal;writing-mode:lr-tb;fill:#000000;fill-opacity:1;fill-rule:nonzero;stroke:none;font-family:DejaVu Sans;-inkscape-font-specification:DejaVuSans"
                   x="0"
                   y="0"
                   id="tspan6491">0</tspan></text>
<g
                 transform="matrix(1,0,0,-1,0,198)"
                 id="g6493"><path
                   d="m 46.648,99.699 249.5,0"
                   style="fill:none;stroke:#000000;stroke-width:0.15000001;stroke-linecap:square;stroke-linejoin:miter;stroke-miterlimit:3.79999995;stroke-opacity:1;stroke-dasharray:0.2, 2;stroke-dashoffset:0"
                   id="path6495"
                   inkscape:connector-curvature="0" /></g><g
                 transform="matrix(1,0,0,-1,0,198)"
                 id="g6497"><path
                   d="m 46.648,99.699 -3.699,0"
                   style="fill:none;stroke:#000000;stroke-width:0.25;stroke-linecap:square;stroke-linejoin:miter;stroke-miterlimit:3.79999995;stroke-opacity:1;stroke-dasharray:none"
                   id="path6499"
                   inkscape:connector-curvature="0" /></g><text
                 transform="matrix(1,0,0,-1,25.946845,95.262695)"
                 id="text6501"><tspan
                   style="font-size:9.33300781px;font-variant:normal;font-weight:normal;writing-mode:lr-tb;fill:#000000;fill-opacity:1;fill-rule:nonzero;stroke:none;font-family:DejaVu Sans;-inkscape-font-specification:DejaVuSans"
                   x="0 5.9357929"
                   y="0"
                   sodipodi:role="line"
                   id="tspan6503">20</tspan></text>
<g
                 transform="matrix(1,0,0,-1,0,198)"
                 id="g6505"><path
                   d="m 46.648,77.449 249.5,0"
                   style="fill:none;stroke:#000000;stroke-width:0.15000001;stroke-linecap:square;stroke-linejoin:miter;stroke-miterlimit:3.79999995;stroke-opacity:1;stroke-dasharray:0.2, 2;stroke-dashoffset:0"
                   id="path6507"
                   inkscape:connector-curvature="0" /></g><g
                 transform="matrix(1,0,0,-1,0,198)"
                 id="g6509"><path
                   d="m 46.648,77.449 -3.699,0"
                   style="fill:none;stroke:#000000;stroke-width:0.25;stroke-linecap:square;stroke-linejoin:miter;stroke-miterlimit:3.79999995;stroke-opacity:1;stroke-dasharray:none"
                   id="path6511"
                   inkscape:connector-curvature="0" /></g><text
                 transform="matrix(1,0,0,-1,25.946845,117.5127)"
                 id="text6513"><tspan
                   style="font-size:9.33300781px;font-variant:normal;font-weight:normal;writing-mode:lr-tb;fill:#000000;fill-opacity:1;fill-rule:nonzero;stroke:none;font-family:DejaVu Sans;-inkscape-font-specification:DejaVuSans"
                   x="0 5.9357929"
                   y="0"
                   sodipodi:role="line"
                   id="tspan6515">40</tspan></text>
<g
                 transform="matrix(1,0,0,-1,0,198)"
                 id="g6517"><path
                   d="m 46.648,55.25 249.5,0"
                   style="fill:none;stroke:#000000;stroke-width:0.15000001;stroke-linecap:square;stroke-linejoin:miter;stroke-miterlimit:3.79999995;stroke-opacity:1;stroke-dasharray:0.2, 2;stroke-dashoffset:0"
                   id="path6519"
                   inkscape:connector-curvature="0" /></g><g
                 transform="matrix(1,0,0,-1,0,198)"
                 id="g6521"><path
                   d="m 46.648,55.25 -3.699,0"
                   style="fill:none;stroke:#000000;stroke-width:0.25;stroke-linecap:square;stroke-linejoin:miter;stroke-miterlimit:3.79999995;stroke-opacity:1;stroke-dasharray:none"
                   id="path6523"
                   inkscape:connector-curvature="0" /></g><text
                 transform="matrix(1,0,0,-1,25.946845,139.71191)"
                 id="text6525"><tspan
                   style="font-size:9.33300781px;font-variant:normal;font-weight:normal;writing-mode:lr-tb;fill:#000000;fill-opacity:1;fill-rule:nonzero;stroke:none;font-family:DejaVu Sans;-inkscape-font-specification:DejaVuSans"
                   x="0 5.9357929"
                   y="0"
                   sodipodi:role="line"
                   id="tspan6527">60</tspan></text>
<g
                 transform="matrix(1,0,0,-1,0,198)"
                 id="g6529"><path
                   d="m 46.648,33 249.5,0"
                   style="fill:none;stroke:#000000;stroke-width:0.15000001;stroke-linecap:square;stroke-linejoin:miter;stroke-miterlimit:3.79999995;stroke-opacity:1;stroke-dasharray:0.2, 2;stroke-dashoffset:0"
                   id="path6531"
                   inkscape:connector-curvature="0" /></g><g
                 transform="matrix(1,0,0,-1,0,198)"
                 id="g6533"><path
                   d="m 46.648,33 -3.699,0"
                   style="fill:none;stroke:#000000;stroke-width:0.25;stroke-linecap:square;stroke-linejoin:miter;stroke-miterlimit:3.79999995;stroke-opacity:1;stroke-dasharray:none"
                   id="path6535"
                   inkscape:connector-curvature="0" /></g><text
                 transform="matrix(1,0,0,-1,25.946845,161.96191)"
                 id="text6537"><tspan
                   style="font-size:9.33300781px;font-variant:normal;font-weight:normal;writing-mode:lr-tb;fill:#000000;fill-opacity:1;fill-rule:nonzero;stroke:none;font-family:DejaVu Sans;-inkscape-font-specification:DejaVuSans"
                   x="0 5.9357929"
                   y="0"
                   sodipodi:role="line"
                   id="tspan6539">80</tspan></text>
<g
                 transform="matrix(1,0,0,-1,0,198)"
                 id="g6541"><path
                   d="m 46.648,10.801 249.5,0"
                   style="fill:none;stroke:#000000;stroke-width:0.15000001;stroke-linecap:square;stroke-linejoin:miter;stroke-miterlimit:3.79999995;stroke-opacity:1;stroke-dasharray:0.2, 2;stroke-dashoffset:0"
                   id="path6543"
                   inkscape:connector-curvature="0" /></g><g
                 transform="matrix(1,0,0,-1,0,198)"
                 id="g6545"><path
                   d="m 46.648,10.801 -3.699,0"
                   style="fill:none;stroke:#000000;stroke-width:0.25;stroke-linecap:square;stroke-linejoin:miter;stroke-miterlimit:3.79999995;stroke-opacity:1;stroke-dasharray:none"
                   id="path6547"
                   inkscape:connector-curvature="0" /></g><text
                 transform="matrix(1,0,0,-1,20.013252,184.16113)"
                 id="text6549"><tspan
                   style="font-size:9.33300781px;font-variant:normal;font-weight:normal;writing-mode:lr-tb;fill:#000000;fill-opacity:1;fill-rule:nonzero;stroke:none;font-family:DejaVu Sans;-inkscape-font-specification:DejaVuSans"
                   x="0 5.9357929 11.871586"
                   y="0"
                   sodipodi:role="line"
                   id="tspan6551">100</tspan></text>
<g
                 transform="matrix(1,0,0,-1,0,198)"
                 id="g6553"><path
                   d="M 81.5,121.898 81.5,10.75"
                   style="fill:none;stroke:#000000;stroke-width:0.15000001;stroke-linecap:square;stroke-linejoin:miter;stroke-miterlimit:3.79999995;stroke-opacity:1;stroke-dasharray:0.2, 2;stroke-dashoffset:0"
                   id="path6555"
                   inkscape:connector-curvature="0" /></g><text
                 transform="matrix(0.70710678,-0.70710678,-0.70710678,-0.70710678,79.307867,68.858648)"
                 id="text6557"><tspan
                   style="font-size:9.33300781px;font-variant:normal;font-weight:normal;writing-mode:lr-tb;fill:#000000;fill-opacity:1;fill-rule:nonzero;stroke:none;font-family:DejaVu Sans;-inkscape-font-specification:DejaVuSans"
                   x="0 6.3837771 12.291571 18.208698 22.044563 27.719032 30.304276"
                   y="0"
                   sodipodi:role="line"
                   id="tspan6559">Android</tspan></text>
<g
                 transform="matrix(1,0,0,-1,0,198)"
                 id="g6561"><path
                   d="M 124,121.898 124,10.75"
                   style="fill:none;stroke:#000000;stroke-width:0.15000001;stroke-linecap:square;stroke-linejoin:miter;stroke-miterlimit:3.79999995;stroke-opacity:1;stroke-dasharray:0.2, 2;stroke-dashoffset:0"
                   id="path6563"
                   inkscape:connector-curvature="0" /></g><text
                 transform="matrix(0.70710678,-0.70710678,-0.70710678,-0.70710678,121.80787,68.858648)"
                 id="text6565"><tspan
                   style="font-size:9.33300781px;font-variant:normal;font-weight:normal;writing-mode:lr-tb;fill:#000000;fill-opacity:1;fill-rule:nonzero;stroke:none;font-family:DejaVu Sans;-inkscape-font-specification:DejaVuSans"
                   x="0 6.3837771 12.300904 18.218031 20.803274 26.543074 29.501637 32.245541 39.590618"
                   y="0"
                   sodipodi:role="line"
                   id="tspan6567">Apple IOs</tspan></text>
<g
                 transform="matrix(1,0,0,-1,0,198)"
                 id="g6569"><path
                   d="m 166.5,121.898 0,-111.148"
                   style="fill:none;stroke:#000000;stroke-width:0.15000001;stroke-linecap:square;stroke-linejoin:miter;stroke-miterlimit:3.79999995;stroke-opacity:1;stroke-dasharray:0.2, 2;stroke-dashoffset:0"
                   id="path6571"
                   inkscape:connector-curvature="0" /></g><text
                 transform="matrix(0.70710678,-0.70710678,-0.70710678,-0.70710678,164.30787,68.858648)"
                 id="text6573"><tspan
                   style="font-size:9.33300781px;font-variant:normal;font-weight:normal;writing-mode:lr-tb;fill:#000000;fill-opacity:1;fill-rule:nonzero;stroke:none;font-family:DejaVu Sans;-inkscape-font-specification:DejaVuSans"
                   x="0 9.2210112 11.806254 17.714048 23.631176 29.305643 36.93071 41.783875 45.143757 50.771561 56.679356 62.381824 68.289619"
                   y="0"
                   sodipodi:role="line"
                   id="tspan6575">Windows-Phone</tspan></text>
<g
                 transform="matrix(1,0,0,-1,0,198)"
                 id="g6577"><path
                   d="M 209,121.898 209,10.75"
                   style="fill:none;stroke:#000000;stroke-width:0.15000001;stroke-linecap:square;stroke-linejoin:miter;stroke-miterlimit:3.79999995;stroke-opacity:1;stroke-dasharray:0.2, 2;stroke-dashoffset:0"
                   id="path6579"
                   inkscape:connector-curvature="0" /></g><text
                 transform="matrix(0.70710678,-0.70710678,-0.70710678,-0.70710678,206.80787,68.858648)"
                 id="text6581"><tspan
                   style="font-size:9.33300781px;font-variant:normal;font-weight:normal;writing-mode:lr-tb;fill:#000000;fill-opacity:1;fill-rule:nonzero;stroke:none;font-family:DejaVu Sans;-inkscape-font-specification:DejaVuSans"
                   x="0 6.3837771 12.300904 18.218031 20.803274 26.543074 29.501637 36.846714 42.76384"
                   y="0"
                   sodipodi:role="line"
                   id="tspan6583">Apple OSx</tspan></text>
<g
                 transform="matrix(1,0,0,-1,0,198)"
                 id="g6585"><path
                   d="m 251.5,121.898 0,-111.148"
                   style="fill:none;stroke:#000000;stroke-width:0.15000001;stroke-linecap:square;stroke-linejoin:miter;stroke-miterlimit:3.79999995;stroke-opacity:1;stroke-dasharray:0.2, 2;stroke-dashoffset:0"
                   id="path6587"
                   inkscape:connector-curvature="0" /></g><text
                 transform="matrix(0.70710678,-0.70710678,-0.70710678,-0.70710678,249.30787,68.858648)"
                 id="text6589"><tspan
                   style="font-size:9.33300781px;font-variant:normal;font-weight:normal;writing-mode:lr-tb;fill:#000000;fill-opacity:1;fill-rule:nonzero;stroke:none;font-family:DejaVu Sans;-inkscape-font-specification:DejaVuSans"
                   x="0 2.7439044 8.6516981 14.568825"
                   y="0"
                   sodipodi:role="line"
                   id="tspan6591">Inde</tspan></text>
<text
                 transform="matrix(0.70710678,-0.70710678,-0.70710678,-0.70710678,263.66823,54.498282)"
                 id="text6593"><tspan
                   style="font-size:9.33300781px;font-variant:normal;font-weight:normal;writing-mode:lr-tb;fill:#000000;fill-opacity:1;fill-rule:nonzero;stroke:none;font-family:DejaVu Sans;-inkscape-font-specification:DejaVuSans"
                   x="0"
                   y="0"
                   id="tspan6595">ﬁ</tspan></text>
<text
                 transform="matrix(0.70710678,-0.70710678,-0.70710678,-0.70710678,267.81928,50.347238)"
                 id="text6597"><tspan
                   style="font-size:9.33300781px;font-variant:normal;font-weight:normal;writing-mode:lr-tb;fill:#000000;fill-opacity:1;fill-rule:nonzero;stroke:none;font-family:DejaVu Sans;-inkscape-font-specification:DejaVuSans"
                   x="0 5.907794 8.4930372 14.410164 20.084633"
                   y="0"
                   sodipodi:role="line"
                   id="tspan6599">nidos</tspan></text>
<g
                 transform="matrix(1,0,0,-1,0,198)"
                 id="g6601"><path
                   d="m 46.648,10.75 249.5,0 0,111.148 -249.5,0 0,-111.148 z"
                   style="fill:none;stroke:#000000;stroke-width:0.25;stroke-linecap:square;stroke-linejoin:miter;stroke-miterlimit:3.79999995;stroke-opacity:1;stroke-dasharray:none"
                   id="path6603"
                   inkscape:connector-curvature="0" /></g><text
                 transform="matrix(0,1,1,0,10.737305,80.449219)"
                 id="text6605"><tspan
                   style="font-size:9.33300781px;font-variant:normal;font-weight:normal;writing-mode:lr-tb;fill:#000000;fill-opacity:1;fill-rule:nonzero;stroke:none;font-family:DejaVu Sans;-inkscape-font-specification:DejaVuSans"
                   x="0 5.6278038 11.330272 15.128806 20.252626 25.992428 31.900221 35.558762 41.270561 47.187687 52.92749 62.017838 64.948402 70.865532 76.605331 79.563896 85.481018 91.127487 97.511269"
                   y="0"
                   sodipodi:role="line"
                   id="tspan6607">Porcentagem de STAs</tspan></text>
<text
                 transform="matrix(1,0,0,-1,123.00391,1.411133)"
                 id="text6609"><tspan
                   style="font-size:9.33300781px;font-variant:normal;font-weight:normal;writing-mode:lr-tb;fill:#000000;fill-opacity:1;fill-rule:nonzero;stroke:none;font-family:DejaVu Sans;-inkscape-font-specification:DejaVuSans"
                   x="0 5.9171271 8.5023699 13.355535 17.014074 22.753874 31.844223 37.556023 40.514587 47.831665 53.748795 59.488594 63.324459 69.036263 74.16008 76.745323 82.447792 88.355583 94.06739"
                   y="0"
                   sodipodi:role="line"
                   id="tspan6611">Sistema Operacional</tspan></text>
<path
                 d="m 71.949,141.551 19.148,0 0,-65.449 -19.148,0 0,65.449 z"
                 style="fill:#000000;fill-opacity:0.5;fill-rule:nonzero;stroke:none"
                 id="path6613"
                 inkscape:connector-curvature="0" /><g
                 transform="matrix(1,0,0,-1,0,198)"
                 id="g6615"><path
                   d="m 71.949,56.5 19.102,0 0,65.398 -19.102,0 0,-65.398 z"
                   style="fill:none;stroke:#000000;stroke-width:0.75;stroke-linecap:square;stroke-linejoin:miter;stroke-miterlimit:3.79999995;stroke-opacity:1;stroke-dasharray:none"
                   id="path6617"
                   inkscape:connector-curvature="0" /></g><path
                 d="m 114.449,96.852 19.148,0 0,-20.75 -19.148,0 0,20.75 z"
                 style="fill:#000000;fill-opacity:0.5;fill-rule:nonzero;stroke:none"
                 id="path6619"
                 inkscape:connector-curvature="0" /><g
                 transform="matrix(1,0,0,-1,0,198)"
                 id="g6621"><path
                   d="m 114.449,101.199 19.102,0 0,20.699 -19.102,0 0,-20.699 z"
                   style="fill:none;stroke:#000000;stroke-width:0.75;stroke-linecap:square;stroke-linejoin:miter;stroke-miterlimit:3.79999995;stroke-opacity:1;stroke-dasharray:none"
                   id="path6623"
                   inkscape:connector-curvature="0" /></g><path
                 d="m 156.949,79.152 19.199,0 0,-3.051 -19.199,0 0,3.051 z"
                 style="fill:#000000;fill-opacity:0.5;fill-rule:nonzero;stroke:none"
                 id="path6625"
                 inkscape:connector-curvature="0" /><g
                 transform="matrix(1,0,0,-1,0,198)"
                 id="g6627"><path
                   d="m 156.949,118.898 19.152,0 0,3 -19.152,0 0,-3 z"
                   style="fill:none;stroke:#000000;stroke-width:0.75;stroke-linecap:square;stroke-linejoin:miter;stroke-miterlimit:3.79999995;stroke-opacity:1;stroke-dasharray:none"
                   id="path6629"
                   inkscape:connector-curvature="0" /></g><path
                 d="m 199.449,76.551 19.199,0 0,-0.449 -19.199,0 0,0.449 z"
                 style="fill:#000000;fill-opacity:0.5;fill-rule:nonzero;stroke:none"
                 id="path6631"
                 inkscape:connector-curvature="0" /><g
                 transform="matrix(1,0,0,-1,0,198)"
                 id="g6633"><path
                   d="m 199.449,121.5 19.152,0 0,0.398 -19.152,0 0,-0.398 z"
                   style="fill:none;stroke:#000000;stroke-width:0.75;stroke-linecap:square;stroke-linejoin:miter;stroke-miterlimit:3.79999995;stroke-opacity:1;stroke-dasharray:none"
                   id="path6635"
                   inkscape:connector-curvature="0" /></g><path
                 d="m 241.949,97.75 19.199,0 0,-21.648 -19.199,0 0,21.648 z"
                 style="fill:#000000;fill-opacity:0.5;fill-rule:nonzero;stroke:none"
                 id="path6637"
                 inkscape:connector-curvature="0" /><g
                 transform="matrix(1,0,0,-1,0,198)"
                 id="g6639"><path
                   d="m 241.949,100.301 19.152,0 0,21.598 -19.152,0 0,-21.598 z"
                   style="fill:none;stroke:#000000;stroke-width:0.75;stroke-linecap:square;stroke-linejoin:miter;stroke-miterlimit:3.79999995;stroke-opacity:1;stroke-dasharray:none"
                   id="path6641"
                   inkscape:connector-curvature="0" /></g><g
                 transform="matrix(1,0,0,-1,0,198)"
                 id="g6643"><path
                   d="m 46.648,10.75 249.5,0 0,111.148 -249.5,0 0,-111.148 z"
                   style="fill:none;stroke:#000000;stroke-width:0.25;stroke-linecap:square;stroke-linejoin:miter;stroke-miterlimit:3.79999995;stroke-opacity:1;stroke-dasharray:none"
                   id="path6645"
                   inkscape:connector-curvature="0" /></g></g></g></g></g></g><g
       id="g6655"
       transform="matrix(0.6745,0,0,0.6745,212.752,0)"><g
         id="g6657"><g
           id="g6659" /><g
           id="g6665"><g
             clip-path="url(#clipPath6661)"
             id="g6667"><g
               id="g6669"><g
                 transform="matrix(1,0,0,-1,0,198)"
                 id="g6671"><path
                   d="m 46.648,121.898 249.5,0"
                   style="fill:none;stroke:#000000;stroke-width:0.15000001;stroke-linecap:square;stroke-linejoin:miter;stroke-miterlimit:3.79999995;stroke-opacity:1;stroke-dasharray:0.2, 2;stroke-dashoffset:0"
                   id="path6673"
                   inkscape:connector-curvature="0" /></g><g
                 transform="matrix(1,0,0,-1,0,198)"
                 id="g6675"><path
                   d="m 46.648,121.898 -3.699,0"
                   style="fill:none;stroke:#000000;stroke-width:0.25;stroke-linecap:square;stroke-linejoin:miter;stroke-miterlimit:3.79999995;stroke-opacity:1;stroke-dasharray:none"
                   id="path6677"
                   inkscape:connector-curvature="0" /></g><text
                 transform="matrix(1,0,0,-1,31.884345,73.063477)"
                 id="text6679"><tspan
                   style="font-size:9.33300781px;font-variant:normal;font-weight:normal;writing-mode:lr-tb;fill:#000000;fill-opacity:1;fill-rule:nonzero;stroke:none;font-family:DejaVu Sans;-inkscape-font-specification:DejaVuSans"
                   x="0"
                   y="0"
                   id="tspan6681">0</tspan></text>
<g
                 transform="matrix(1,0,0,-1,0,198)"
                 id="g6683"><path
                   d="m 46.648,99.699 249.5,0"
                   style="fill:none;stroke:#000000;stroke-width:0.15000001;stroke-linecap:square;stroke-linejoin:miter;stroke-miterlimit:3.79999995;stroke-opacity:1;stroke-dasharray:0.2, 2;stroke-dashoffset:0"
                   id="path6685"
                   inkscape:connector-curvature="0" /></g><g
                 transform="matrix(1,0,0,-1,0,198)"
                 id="g6687"><path
                   d="m 46.648,99.699 -3.699,0"
                   style="fill:none;stroke:#000000;stroke-width:0.25;stroke-linecap:square;stroke-linejoin:miter;stroke-miterlimit:3.79999995;stroke-opacity:1;stroke-dasharray:none"
                   id="path6689"
                   inkscape:connector-curvature="0" /></g><text
                 transform="matrix(1,0,0,-1,25.946845,95.262695)"
                 id="text6691"><tspan
                   style="font-size:9.33300781px;font-variant:normal;font-weight:normal;writing-mode:lr-tb;fill:#000000;fill-opacity:1;fill-rule:nonzero;stroke:none;font-family:DejaVu Sans;-inkscape-font-specification:DejaVuSans"
                   x="0 5.9357929"
                   y="0"
                   sodipodi:role="line"
                   id="tspan6693">20</tspan></text>
<g
                 transform="matrix(1,0,0,-1,0,198)"
                 id="g6695"><path
                   d="m 46.648,77.449 249.5,0"
                   style="fill:none;stroke:#000000;stroke-width:0.15000001;stroke-linecap:square;stroke-linejoin:miter;stroke-miterlimit:3.79999995;stroke-opacity:1;stroke-dasharray:0.2, 2;stroke-dashoffset:0"
                   id="path6697"
                   inkscape:connector-curvature="0" /></g><g
                 transform="matrix(1,0,0,-1,0,198)"
                 id="g6699"><path
                   d="m 46.648,77.449 -3.699,0"
                   style="fill:none;stroke:#000000;stroke-width:0.25;stroke-linecap:square;stroke-linejoin:miter;stroke-miterlimit:3.79999995;stroke-opacity:1;stroke-dasharray:none"
                   id="path6701"
                   inkscape:connector-curvature="0" /></g><text
                 transform="matrix(1,0,0,-1,25.946845,117.5127)"
                 id="text6703"><tspan
                   style="font-size:9.33300781px;font-variant:normal;font-weight:normal;writing-mode:lr-tb;fill:#000000;fill-opacity:1;fill-rule:nonzero;stroke:none;font-family:DejaVu Sans;-inkscape-font-specification:DejaVuSans"
                   x="0 5.9357929"
                   y="0"
                   sodipodi:role="line"
                   id="tspan6705">40</tspan></text>
<g
                 transform="matrix(1,0,0,-1,0,198)"
                 id="g6707"><path
                   d="m 46.648,55.25 249.5,0"
                   style="fill:none;stroke:#000000;stroke-width:0.15000001;stroke-linecap:square;stroke-linejoin:miter;stroke-miterlimit:3.79999995;stroke-opacity:1;stroke-dasharray:0.2, 2;stroke-dashoffset:0"
                   id="path6709"
                   inkscape:connector-curvature="0" /></g><g
                 transform="matrix(1,0,0,-1,0,198)"
                 id="g6711"><path
                   d="m 46.648,55.25 -3.699,0"
                   style="fill:none;stroke:#000000;stroke-width:0.25;stroke-linecap:square;stroke-linejoin:miter;stroke-miterlimit:3.79999995;stroke-opacity:1;stroke-dasharray:none"
                   id="path6713"
                   inkscape:connector-curvature="0" /></g><text
                 transform="matrix(1,0,0,-1,25.946845,139.71191)"
                 id="text6715"><tspan
                   style="font-size:9.33300781px;font-variant:normal;font-weight:normal;writing-mode:lr-tb;fill:#000000;fill-opacity:1;fill-rule:nonzero;stroke:none;font-family:DejaVu Sans;-inkscape-font-specification:DejaVuSans"
                   x="0 5.9357929"
                   y="0"
                   sodipodi:role="line"
                   id="tspan6717">60</tspan></text>
<g
                 transform="matrix(1,0,0,-1,0,198)"
                 id="g6719"><path
                   d="m 46.648,33 249.5,0"
                   style="fill:none;stroke:#000000;stroke-width:0.15000001;stroke-linecap:square;stroke-linejoin:miter;stroke-miterlimit:3.79999995;stroke-opacity:1;stroke-dasharray:0.2, 2;stroke-dashoffset:0"
                   id="path6721"
                   inkscape:connector-curvature="0" /></g><g
                 transform="matrix(1,0,0,-1,0,198)"
                 id="g6723"><path
                   d="m 46.648,33 -3.699,0"
                   style="fill:none;stroke:#000000;stroke-width:0.25;stroke-linecap:square;stroke-linejoin:miter;stroke-miterlimit:3.79999995;stroke-opacity:1;stroke-dasharray:none"
                   id="path6725"
                   inkscape:connector-curvature="0" /></g><text
                 transform="matrix(1,0,0,-1,25.946845,161.96191)"
                 id="text6727"><tspan
                   style="font-size:9.33300781px;font-variant:normal;font-weight:normal;writing-mode:lr-tb;fill:#000000;fill-opacity:1;fill-rule:nonzero;stroke:none;font-family:DejaVu Sans;-inkscape-font-specification:DejaVuSans"
                   x="0 5.9357929"
                   y="0"
                   sodipodi:role="line"
                   id="tspan6729">80</tspan></text>
<g
                 transform="matrix(1,0,0,-1,0,198)"
                 id="g6731"><path
                   d="m 46.648,10.801 249.5,0"
                   style="fill:none;stroke:#000000;stroke-width:0.15000001;stroke-linecap:square;stroke-linejoin:miter;stroke-miterlimit:3.79999995;stroke-opacity:1;stroke-dasharray:0.2, 2;stroke-dashoffset:0"
                   id="path6733"
                   inkscape:connector-curvature="0" /></g><g
                 transform="matrix(1,0,0,-1,0,198)"
                 id="g6735"><path
                   d="m 46.648,10.801 -3.699,0"
                   style="fill:none;stroke:#000000;stroke-width:0.25;stroke-linecap:square;stroke-linejoin:miter;stroke-miterlimit:3.79999995;stroke-opacity:1;stroke-dasharray:none"
                   id="path6737"
                   inkscape:connector-curvature="0" /></g><text
                 transform="matrix(1,0,0,-1,20.013252,184.16113)"
                 id="text6739"><tspan
                   style="font-size:9.33300781px;font-variant:normal;font-weight:normal;writing-mode:lr-tb;fill:#000000;fill-opacity:1;fill-rule:nonzero;stroke:none;font-family:DejaVu Sans;-inkscape-font-specification:DejaVuSans"
                   x="0 5.9357929 11.871586"
                   y="0"
                   sodipodi:role="line"
                   id="tspan6741">100</tspan></text>
<g
                 transform="matrix(1,0,0,-1,0,198)"
                 id="g6743"><path
                   d="M 81.5,121.898 81.5,10.75"
                   style="fill:none;stroke:#000000;stroke-width:0.15000001;stroke-linecap:square;stroke-linejoin:miter;stroke-miterlimit:3.79999995;stroke-opacity:1;stroke-dasharray:0.2, 2;stroke-dashoffset:0"
                   id="path6745"
                   inkscape:connector-curvature="0" /></g><text
                 transform="matrix(0.70710678,-0.70710678,-0.70710678,-0.70710678,79.307867,68.858648)"
                 id="text6747"><tspan
                   style="font-size:9.33300781px;font-variant:normal;font-weight:normal;writing-mode:lr-tb;fill:#000000;fill-opacity:1;fill-rule:nonzero;stroke:none;font-family:DejaVu Sans;-inkscape-font-specification:DejaVuSans"
                   x="0 6.3837771 12.291571 18.208698 22.044563 27.719032 30.304276"
                   y="0"
                   sodipodi:role="line"
                   id="tspan6749">Android</tspan></text>
<g
                 transform="matrix(1,0,0,-1,0,198)"
                 id="g6751"><path
                   d="M 124,121.898 124,10.75"
                   style="fill:none;stroke:#000000;stroke-width:0.15000001;stroke-linecap:square;stroke-linejoin:miter;stroke-miterlimit:3.79999995;stroke-opacity:1;stroke-dasharray:0.2, 2;stroke-dashoffset:0"
                   id="path6753"
                   inkscape:connector-curvature="0" /></g><text
                 transform="matrix(0.70710678,-0.70710678,-0.70710678,-0.70710678,121.80787,68.858648)"
                 id="text6755"><tspan
                   style="font-size:9.33300781px;font-variant:normal;font-weight:normal;writing-mode:lr-tb;fill:#000000;fill-opacity:1;fill-rule:nonzero;stroke:none;font-family:DejaVu Sans;-inkscape-font-specification:DejaVuSans"
                   x="0 6.3837771 12.300904 18.218031 20.803274 26.543074 29.501637 32.245541 39.590618"
                   y="0"
                   sodipodi:role="line"
                   id="tspan6757">Apple IOs</tspan></text>
<g
                 transform="matrix(1,0,0,-1,0,198)"
                 id="g6759"><path
                   d="m 166.5,121.898 0,-111.148"
                   style="fill:none;stroke:#000000;stroke-width:0.15000001;stroke-linecap:square;stroke-linejoin:miter;stroke-miterlimit:3.79999995;stroke-opacity:1;stroke-dasharray:0.2, 2;stroke-dashoffset:0"
                   id="path6761"
                   inkscape:connector-curvature="0" /></g><text
                 transform="matrix(0.70710678,-0.70710678,-0.70710678,-0.70710678,164.30787,68.858648)"
                 id="text6763"><tspan
                   style="font-size:9.33300781px;font-variant:normal;font-weight:normal;writing-mode:lr-tb;fill:#000000;fill-opacity:1;fill-rule:nonzero;stroke:none;font-family:DejaVu Sans;-inkscape-font-specification:DejaVuSans"
                   x="0 9.2210112 11.806254 17.714048 23.631176 29.305643 36.93071 41.783875 45.143757 50.771561 56.679356 62.381824 68.289619"
                   y="0"
                   sodipodi:role="line"
                   id="tspan6765">Windows-Phone</tspan></text>
<g
                 transform="matrix(1,0,0,-1,0,198)"
                 id="g6767"><path
                   d="M 209,121.898 209,10.75"
                   style="fill:none;stroke:#000000;stroke-width:0.15000001;stroke-linecap:square;stroke-linejoin:miter;stroke-miterlimit:3.79999995;stroke-opacity:1;stroke-dasharray:0.2, 2;stroke-dashoffset:0"
                   id="path6769"
                   inkscape:connector-curvature="0" /></g><text
                 transform="matrix(0.70710678,-0.70710678,-0.70710678,-0.70710678,206.80787,68.858648)"
                 id="text6771"><tspan
                   style="font-size:9.33300781px;font-variant:normal;font-weight:normal;writing-mode:lr-tb;fill:#000000;fill-opacity:1;fill-rule:nonzero;stroke:none;font-family:DejaVu Sans;-inkscape-font-specification:DejaVuSans"
                   x="0 6.3837771 12.300904 18.218031 20.803274 26.543074 29.501637 36.846714 42.76384"
                   y="0"
                   sodipodi:role="line"
                   id="tspan6773">Apple OSx</tspan></text>
<g
                 transform="matrix(1,0,0,-1,0,198)"
                 id="g6775"><path
                   d="m 251.5,121.898 0,-111.148"
                   style="fill:none;stroke:#000000;stroke-width:0.15000001;stroke-linecap:square;stroke-linejoin:miter;stroke-miterlimit:3.79999995;stroke-opacity:1;stroke-dasharray:0.2, 2;stroke-dashoffset:0"
                   id="path6777"
                   inkscape:connector-curvature="0" /></g><text
                 transform="matrix(0.70710678,-0.70710678,-0.70710678,-0.70710678,249.30787,68.858648)"
                 id="text6779"><tspan
                   style="font-size:9.33300781px;font-variant:normal;font-weight:normal;writing-mode:lr-tb;fill:#000000;fill-opacity:1;fill-rule:nonzero;stroke:none;font-family:DejaVu Sans;-inkscape-font-specification:DejaVuSans"
                   x="0 2.7439044 8.6516981 14.568825"
                   y="0"
                   sodipodi:role="line"
                   id="tspan6781">Inde</tspan></text>
<text
                 transform="matrix(0.70710678,-0.70710678,-0.70710678,-0.70710678,263.66823,54.498282)"
                 id="text6783"><tspan
                   style="font-size:9.33300781px;font-variant:normal;font-weight:normal;writing-mode:lr-tb;fill:#000000;fill-opacity:1;fill-rule:nonzero;stroke:none;font-family:DejaVu Sans;-inkscape-font-specification:DejaVuSans"
                   x="0"
                   y="0"
                   id="tspan6785">ﬁ</tspan></text>
<text
                 transform="matrix(0.70710678,-0.70710678,-0.70710678,-0.70710678,267.81928,50.347238)"
                 id="text6787"><tspan
                   style="font-size:9.33300781px;font-variant:normal;font-weight:normal;writing-mode:lr-tb;fill:#000000;fill-opacity:1;fill-rule:nonzero;stroke:none;font-family:DejaVu Sans;-inkscape-font-specification:DejaVuSans"
                   x="0 5.907794 8.4930372 14.410164 20.084633"
                   y="0"
                   sodipodi:role="line"
                   id="tspan6789">nidos</tspan></text>
<g
                 transform="matrix(1,0,0,-1,0,198)"
                 id="g6791"><path
                   d="m 46.648,10.75 249.5,0 0,111.148 -249.5,0 0,-111.148 z"
                   style="fill:none;stroke:#000000;stroke-width:0.25;stroke-linecap:square;stroke-linejoin:miter;stroke-miterlimit:3.79999995;stroke-opacity:1;stroke-dasharray:none"
                   id="path6793"
                   inkscape:connector-curvature="0" /></g><text
                 transform="matrix(0,1,1,0,10.737305,80.449219)"
                 id="text6795"><tspan
                   style="font-size:9.33300781px;font-variant:normal;font-weight:normal;writing-mode:lr-tb;fill:#000000;fill-opacity:1;fill-rule:nonzero;stroke:none;font-family:DejaVu Sans;-inkscape-font-specification:DejaVuSans"
                   x="0 5.6278038 11.330272 15.128806 20.252626 25.992428 31.900221 35.558762 41.270561 47.187687 52.92749 62.017838 64.948402 70.865532 76.605331 79.563896 85.481018 91.127487 97.511269"
                   y="0"
                   sodipodi:role="line"
                   id="tspan6797">Porcentagem de STAs</tspan></text>
<text
                 transform="matrix(1,0,0,-1,123.00391,1.411133)"
                 id="text6799"><tspan
                   style="font-size:9.33300781px;font-variant:normal;font-weight:normal;writing-mode:lr-tb;fill:#000000;fill-opacity:1;fill-rule:nonzero;stroke:none;font-family:DejaVu Sans;-inkscape-font-specification:DejaVuSans"
                   x="0 5.9171271 8.5023699 13.355535 17.014074 22.753874 31.844223 37.556023 40.514587 47.831665 53.748795 59.488594 63.324459 69.036263 74.16008 76.745323 82.447792 88.355583 94.06739"
                   y="0"
                   sodipodi:role="line"
                   id="tspan6801">Sistema Operacional</tspan></text>
<path
                 d="m 71.949,170.152 19.148,0 0,-94.051 -19.148,0 0,94.051 z"
                 style="fill:#000000;fill-opacity:0.5;fill-rule:nonzero;stroke:none"
                 id="path6803"
                 inkscape:connector-curvature="0" /><g
                 transform="matrix(1,0,0,-1,0,198)"
                 id="g6805"><path
                   d="m 71.949,27.898 19.102,0 0,94 -19.102,0 0,-94 z"
                   style="fill:none;stroke:#000000;stroke-width:0.75;stroke-linecap:square;stroke-linejoin:miter;stroke-miterlimit:3.79999995;stroke-opacity:1;stroke-dasharray:none"
                   id="path6807"
                   inkscape:connector-curvature="0" /></g><path
                 d="m 114.449,174.953 19.148,0 0,-98.852 -19.148,0 0,98.852 z"
                 style="fill:#000000;fill-opacity:0.5;fill-rule:nonzero;stroke:none"
                 id="path6809"
                 inkscape:connector-curvature="0" /><g
                 transform="matrix(1,0,0,-1,0,198)"
                 id="g6811"><path
                   d="m 114.449,23.102 19.102,0 0,98.797 -19.102,0 0,-98.797 z"
                   style="fill:none;stroke:#000000;stroke-width:0.75;stroke-linecap:square;stroke-linejoin:miter;stroke-miterlimit:3.79999995;stroke-opacity:1;stroke-dasharray:none"
                   id="path6813"
                   inkscape:connector-curvature="0" /></g><path
                 d="m 156.949,178.051 19.199,0 0,-101.949 -19.199,0 0,101.949 z"
                 style="fill:#000000;fill-opacity:0.5;fill-rule:nonzero;stroke:none"
                 id="path6815"
                 inkscape:connector-curvature="0" /><g
                 transform="matrix(1,0,0,-1,0,198)"
                 id="g6817"><path
                   d="m 156.949,20 19.152,0 0,101.898 -19.152,0 0,-101.898 z"
                   style="fill:none;stroke:#000000;stroke-width:0.75;stroke-linecap:square;stroke-linejoin:miter;stroke-miterlimit:3.79999995;stroke-opacity:1;stroke-dasharray:none"
                   id="path6819"
                   inkscape:connector-curvature="0" /></g><path
                 d="m 199.449,140.453 19.199,0 0,-64.352 -19.199,0 0,64.352 z"
                 style="fill:#000000;fill-opacity:0.5;fill-rule:nonzero;stroke:none"
                 id="path6821"
                 inkscape:connector-curvature="0" /><g
                 transform="matrix(1,0,0,-1,0,198)"
                 id="g6823"><path
                   d="m 199.449,57.602 19.152,0 0,64.297 -19.152,0 0,-64.297 z"
                   style="fill:none;stroke:#000000;stroke-width:0.75;stroke-linecap:square;stroke-linejoin:miter;stroke-miterlimit:3.79999995;stroke-opacity:1;stroke-dasharray:none"
                   id="path6825"
                   inkscape:connector-curvature="0" /></g><path
                 d="m 241.949,161.102 19.199,0 0,-85 -19.199,0 0,85 z"
                 style="fill:#000000;fill-opacity:0.5;fill-rule:nonzero;stroke:none"
                 id="path6827"
                 inkscape:connector-curvature="0" /><g
                 transform="matrix(1,0,0,-1,0,198)"
                 id="g6829"><path
                   d="m 241.949,36.949 19.152,0 0,84.949 -19.152,0 0,-84.949 z"
                   style="fill:none;stroke:#000000;stroke-width:0.75;stroke-linecap:square;stroke-linejoin:miter;stroke-miterlimit:3.79999995;stroke-opacity:1;stroke-dasharray:none"
                   id="path6831"
                   inkscape:connector-curvature="0" /></g><g
                 transform="matrix(1,0,0,-1,0,198)"
                 id="g6833"><path
                   d="m 46.648,10.75 249.5,0 0,111.148 -249.5,0 0,-111.148 z"
                   style="fill:none;stroke:#000000;stroke-width:0.25;stroke-linecap:square;stroke-linejoin:miter;stroke-miterlimit:3.79999995;stroke-opacity:1;stroke-dasharray:none"
                   id="path6835"
                   inkscape:connector-curvature="0" /></g></g></g></g></g></g><text
       xml:space="preserve"
       style="font-size:32px;font-style:normal;font-variant:normal;font-weight:normal;font-stretch:normal;text-align:start;line-height:125%;letter-spacing:0px;word-spacing:0px;writing-mode:lr-tb;text-anchor:start;fill:#000000;fill-opacity:1;stroke:none;font-family:LMRoman10;-inkscape-font-specification:LMRoman10"
       x="108.47147"
       y="17.729942"
       id="text6402"
       sodipodi:linespacing="125%"
       transform="scale(1,-1)"><tspan
         sodipodi:role="line"
         id="tspan6404"
         x="108.47147"
         y="17.729942"
         style="font-size:9.60000038px;font-style:normal;font-variant:normal;font-weight:normal;font-stretch:normal;font-family:Sans;-inkscape-font-specification:Sans">(a)</tspan></text>
<text
       sodipodi:linespacing="125%"
       id="text6418"
       y="17.734627"
       x="323.21948"
       style="font-size:32px;font-style:normal;font-variant:normal;font-weight:normal;font-stretch:normal;text-align:start;line-height:125%;letter-spacing:0px;word-spacing:0px;writing-mode:lr-tb;text-anchor:start;fill:#000000;fill-opacity:1;stroke:none;font-family:LMRoman10;-inkscape-font-specification:LMRoman10"
       xml:space="preserve"
       transform="scale(1,-1)"><tspan
         style="font-size:9.60000038px;font-style:normal;font-variant:normal;font-weight:normal;font-stretch:normal;font-family:Sans;-inkscape-font-specification:Sans"
         y="17.734627"
         x="323.21948"
         id="tspan6420"
         sodipodi:role="line">(b)</tspan></text>
</g></svg>