<?xml version="1.0" encoding="UTF-8" standalone="no"?>
<!-- Created with Inkscape (http://www.inkscape.org/) -->

<svg
   xmlns:dc="http://purl.org/dc/elements/1.1/"
   xmlns:cc="http://creativecommons.org/ns#"
   xmlns:rdf="http://www.w3.org/1999/02/22-rdf-syntax-ns#"
   xmlns:svg="http://www.w3.org/2000/svg"
   xmlns="http://www.w3.org/2000/svg"
   xmlns:sodipodi="http://sodipodi.sourceforge.net/DTD/sodipodi-0.dtd"
   xmlns:inkscape="http://www.inkscape.org/namespaces/inkscape"
   id="svg2"
   version="1.1"
   inkscape:version="0.91 r13725"
   xml:space="preserve"
   width="310.48862"
   height="281.90192"
   viewBox="0 0 310.48862 281.90192"
   sodipodi:docname="RSSF.svg"><metadata
     id="metadata8"><rdf:RDF><cc:Work
         rdf:about=""><dc:format>image/svg+xml</dc:format><dc:type
           rdf:resource="http://purl.org/dc/dcmitype/StillImage" /><dc:title></dc:title></cc:Work></rdf:RDF></metadata><defs
     id="defs6"><clipPath
       clipPathUnits="userSpaceOnUse"
       id="clipPath86"><path
         d="m 0,0 695.91504,0 0,631.84241 L 0,631.84241 0,0 Z"
         id="path88"
         inkscape:connector-curvature="0" /></clipPath></defs><sodipodi:namedview
     pagecolor="#ffffff"
     bordercolor="#666666"
     borderopacity="1"
     objecttolerance="10"
     gridtolerance="10"
     guidetolerance="10"
     inkscape:pageopacity="0"
     inkscape:pageshadow="2"
     inkscape:window-width="1366"
     inkscape:window-height="719"
     id="namedview4"
     showgrid="false"
     fit-margin-top="0"
     fit-margin-left="0"
     fit-margin-right="0"
     fit-margin-bottom="0"
     inkscape:zoom="1.9758645"
     inkscape:cx="155.24431"
     inkscape:cy="140.95096"
     inkscape:window-x="0"
     inkscape:window-y="25"
     inkscape:window-maximized="1"
     inkscape:current-layer="g10" /><g
     id="g10"
     inkscape:groupmode="layer"
     inkscape:label="trabalho"
     transform="matrix(1.25,0,0,-1.25,-233.18417,702.08317)"><g
       transform="matrix(0.35693,0,0,0.35693,186.54528,336.145)"
       id="g80"><g
         id="g82"><g
           id="g84" /><g
           id="g90"><g
             id="g92"
             clip-path="url(#clipPath86)"><g
               id="g94"><g
                 id="g96"
                 transform="matrix(1,0,0,-0.766667,0,631.84241)"><path
                   inkscape:connector-curvature="0"
                   id="path98"
                   style="fill:#414144;fill-opacity:1;fill-rule:nonzero;stroke:#000000;stroke-width:0.91366398;stroke-linecap:butt;stroke-linejoin:miter;stroke-miterlimit:4;stroke-dasharray:none;stroke-opacity:1"
                   d="m 178.062,93.587 c 0,12.06 -7.496,21.838 -16.746,21.838 -9.246,0 -16.742,-9.778 -16.742,-21.838 0,-12.06 7.496,-21.838 16.742,-21.838 9.25,0 16.746,9.778 16.746,21.838 z" /></g><g
                 id="g100"
                 transform="matrix(1,0,0,-1,0,631.84241)"><path
                   inkscape:connector-curvature="0"
                   id="path102"
                   style="fill:none;stroke:#000000;stroke-width:0.80000001;stroke-linecap:square;stroke-linejoin:miter;stroke-miterlimit:4;stroke-dasharray:none;stroke-opacity:1"
                   d="m 280.574,85.062 154.059,0 0,40 -154.059,0 0,-40 z" /></g><text
                 id="text104"
                 style="font-variant:normal;font-weight:normal;font-size:25.60000038px;font-family:LMRoman10;-inkscape-font-specification:LMRoman10;writing-mode:lr-tb;fill:#000000;fill-opacity:1;fill-rule:nonzero;stroke:none"
                 transform="matrix(1,0,0,-1,284.18938,517.06373)"><tspan
                   id="tspan106"
                   sodipodi:role="line"
                   y="0"
                   x="0 17.4592 27.545601 37.504002 50.304001 61.644798 74.444801 87.244797 95.795197 113.9456 126.7712 136.8576">Estação Base</tspan></text>
<g
                 id="g108"
                 transform="matrix(1,0,0,-0.766667,0,631.84241)"><path
                   inkscape:connector-curvature="0"
                   id="path110"
                   style="fill:#414144;fill-opacity:1;fill-rule:nonzero;stroke:#000000;stroke-width:0.91366398;stroke-linecap:butt;stroke-linejoin:miter;stroke-miterlimit:4;stroke-dasharray:none;stroke-opacity:1"
                   d="m 204.746,260.024 c 0,12.06 -7.496,21.837 -16.742,21.837 -9.246,0 -16.742,-9.777 -16.742,-21.837 0,-12.065 7.496,-21.843 16.742,-21.843 9.246,0 16.742,9.778 16.742,21.843 z" /></g><g
                 id="g112"
                 transform="matrix(1,0,0,-0.766667,0,631.84241)"><path
                   inkscape:connector-curvature="0"
                   id="path114"
                   style="fill:#414144;fill-opacity:1;fill-rule:nonzero;stroke:#000000;stroke-width:0.91366398;stroke-linecap:butt;stroke-linejoin:miter;stroke-miterlimit:4;stroke-dasharray:none;stroke-opacity:1"
                   d="m 92.746,188.468 c 0,12.06 -7.496,21.838 -16.742,21.838 -9.246,0 -16.742,-9.778 -16.742,-21.838 0,-12.06 7.496,-21.838 16.742,-21.838 9.246,0 16.742,9.778 16.742,21.838 z" /></g><g
                 id="g116"
                 transform="matrix(1,0,0,-0.766667,0,631.84241)"><path
                   inkscape:connector-curvature="0"
                   id="path118"
                   style="fill:#414144;fill-opacity:1;fill-rule:nonzero;stroke:#000000;stroke-width:0.91366398;stroke-linecap:butt;stroke-linejoin:miter;stroke-miterlimit:4;stroke-dasharray:none;stroke-opacity:1"
                   d="m 289.316,340.516 c 0,12.066 -7.496,21.843 -16.742,21.843 -9.246,0 -16.742,-9.777 -16.742,-21.843 0,-12.06 7.496,-21.837 16.742,-21.837 9.246,0 16.742,9.777 16.742,21.837 z" /></g><g
                 id="g120"
                 transform="matrix(1,0,0,-0.766667,0,631.84241)"><path
                   inkscape:connector-curvature="0"
                   id="path122"
                   style="fill:#414144;fill-opacity:1;fill-rule:nonzero;stroke:#000000;stroke-width:0.91366398;stroke-linecap:butt;stroke-linejoin:miter;stroke-miterlimit:4;stroke-dasharray:none;stroke-opacity:1"
                   d="m 116.746,558.159 c 0,12.06 -7.496,21.838 -16.742,21.838 -9.246,0 -16.742,-9.778 -16.742,-21.838 0,-12.06 7.496,-21.838 16.742,-21.838 9.246,0 16.742,9.778 16.742,21.838 z" /></g><g
                 id="g124"
                 transform="matrix(1,0,0,-0.766667,0,631.84241)"><path
                   inkscape:connector-curvature="0"
                   id="path126"
                   style="fill:#414144;fill-opacity:1;fill-rule:nonzero;stroke:#000000;stroke-width:0.91366398;stroke-linecap:butt;stroke-linejoin:miter;stroke-miterlimit:4;stroke-dasharray:none;stroke-opacity:1"
                   d="m 223.031,516.42 c 0,12.06 -7.496,21.837 -16.742,21.837 -9.246,0 -16.742,-9.777 -16.742,-21.837 0,-12.06 7.496,-21.838 16.742,-21.838 9.246,0 16.742,9.778 16.742,21.838 z" /></g><g
                 id="g128"
                 transform="matrix(1,0,0,-0.766667,0,631.84241)"><path
                   inkscape:connector-curvature="0"
                   id="path130"
                   style="fill:#414144;fill-opacity:1;fill-rule:nonzero;stroke:#000000;stroke-width:0.91366398;stroke-linecap:butt;stroke-linejoin:miter;stroke-miterlimit:4;stroke-dasharray:none;stroke-opacity:1"
                   d="m 217.316,671.449 c 0,12.065 -7.496,21.842 -16.742,21.842 -9.246,0 -16.742,-9.777 -16.742,-21.842 0,-12.06 7.496,-21.838 16.742,-21.838 9.246,0 16.742,9.778 16.742,21.838 z" /></g><g
                 id="g132"
                 transform="matrix(1,0,0,-0.766667,0,631.84241)"><path
                   inkscape:connector-curvature="0"
                   id="path134"
                   style="fill:#414144;fill-opacity:1;fill-rule:nonzero;stroke:#000000;stroke-width:0.91366398;stroke-linecap:butt;stroke-linejoin:miter;stroke-miterlimit:4;stroke-dasharray:none;stroke-opacity:1"
                   d="m 479.031,698.285 c 0,12.06 -7.496,21.837 -16.742,21.837 -9.246,0 -16.742,-9.777 -16.742,-21.837 0,-12.066 7.496,-21.843 16.742,-21.843 9.246,0 16.742,9.777 16.742,21.843 z" /></g><g
                 id="g136"
                 transform="matrix(1,0,0,-0.766667,0,631.84241)"><path
                   inkscape:connector-curvature="0"
                   id="path138"
                   style="fill:#414144;fill-opacity:1;fill-rule:nonzero;stroke:#000000;stroke-width:0.91366398;stroke-linecap:butt;stroke-linejoin:miter;stroke-miterlimit:4;stroke-dasharray:none;stroke-opacity:1"
                   d="m 629.891,504.492 c 0,12.065 -7.496,21.843 -16.743,21.843 -9.25,0 -16.746,-9.778 -16.746,-21.843 0,-12.06 7.496,-21.837 16.746,-21.837 9.247,0 16.743,9.777 16.743,21.837 z" /></g><g
                 id="g140"
                 transform="matrix(1,0,0,-0.766667,0,631.84241)"><path
                   inkscape:connector-curvature="0"
                   id="path142"
                   style="fill:#414144;fill-opacity:1;fill-rule:nonzero;stroke:#000000;stroke-width:0.91366398;stroke-linecap:butt;stroke-linejoin:miter;stroke-miterlimit:4;stroke-dasharray:none;stroke-opacity:1"
                   d="m 587.605,699.772 c 0,12.061 -7.496,21.838 -16.746,21.838 -9.246,0 -16.742,-9.777 -16.742,-21.838 0,-12.06 7.496,-21.837 16.742,-21.837 9.25,0 16.746,9.777 16.746,21.837 z" /></g><g
                 id="g144"
                 transform="matrix(1,0,0,-0.766667,0,631.84241)"><path
                   inkscape:connector-curvature="0"
                   id="path146"
                   style="fill:#414144;fill-opacity:1;fill-rule:nonzero;stroke:#000000;stroke-width:0.91366398;stroke-linecap:butt;stroke-linejoin:miter;stroke-miterlimit:4;stroke-dasharray:none;stroke-opacity:1"
                   d="m 512.176,498.531 c 0,12.06 -7.496,21.838 -16.742,21.838 -9.25,0 -16.746,-9.778 -16.746,-21.838 0,-12.06 7.496,-21.838 16.746,-21.838 9.246,0 16.742,9.778 16.742,21.838 z" /></g><g
                 id="g148"
                 transform="matrix(1,0,0,-0.766667,0,631.84241)"><path
                   inkscape:connector-curvature="0"
                   id="path150"
                   style="fill:#414144;fill-opacity:1;fill-rule:nonzero;stroke:#000000;stroke-width:0.91366398;stroke-linecap:butt;stroke-linejoin:miter;stroke-miterlimit:4;stroke-dasharray:none;stroke-opacity:1"
                   d="m 621.891,403.125 c 0,12.065 -7.496,21.843 -16.743,21.843 -9.25,0 -16.746,-9.778 -16.746,-21.843 0,-12.06 7.496,-21.838 16.746,-21.838 9.247,0 16.743,9.778 16.743,21.838 z" /></g><g
                 id="g152"
                 transform="matrix(1,0,0,-0.766667,0,631.84241)"><path
                   inkscape:connector-curvature="0"
                   id="path154"
                   style="fill:#414144;fill-opacity:1;fill-rule:nonzero;stroke:#000000;stroke-width:0.91366398;stroke-linecap:butt;stroke-linejoin:miter;stroke-miterlimit:4;stroke-dasharray:none;stroke-opacity:1"
                   d="m 363.605,573.067 c 0,12.06 -7.496,21.838 -16.746,21.838 -9.246,0 -16.742,-9.778 -16.742,-21.838 0,-12.065 7.496,-21.842 16.742,-21.842 9.25,0 16.746,9.777 16.746,21.842 z" /></g><g
                 id="g156"
                 transform="matrix(1,0,0,-0.766667,0,631.84241)"><path
                   inkscape:connector-curvature="0"
                   id="path158"
                   style="fill:#414144;fill-opacity:1;fill-rule:nonzero;stroke:#000000;stroke-width:0.91366398;stroke-linecap:butt;stroke-linejoin:miter;stroke-miterlimit:4;stroke-dasharray:none;stroke-opacity:1"
                   d="m 458.461,322.632 c 0,12.061 -7.496,21.838 -16.742,21.838 -9.246,0 -16.742,-9.777 -16.742,-21.838 0,-12.065 7.496,-21.842 16.742,-21.842 9.246,0 16.742,9.777 16.742,21.842 z" /></g><g
                 id="g160"
                 transform="matrix(1,0,0,-0.766667,0,631.84241)"><path
                   inkscape:connector-curvature="0"
                   id="path162"
                   style="fill:#414144;fill-opacity:1;fill-rule:nonzero;stroke:#000000;stroke-width:0.91366398;stroke-linecap:butt;stroke-linejoin:miter;stroke-miterlimit:4;stroke-dasharray:none;stroke-opacity:1"
                   d="m 393.316,432.942 c 0,12.06 -7.496,21.837 -16.742,21.837 -9.246,0 -16.742,-9.777 -16.742,-21.837 0,-12.061 7.496,-21.838 16.742,-21.838 9.246,0 16.742,9.777 16.742,21.838 z" /></g><g
                 id="g164"
                 transform="matrix(1,0,0,-0.766667,0,631.84241)"><path
                   inkscape:connector-curvature="0"
                   id="path166"
                   style="fill:#414144;fill-opacity:1;fill-rule:nonzero;stroke:#000000;stroke-width:0.91366398;stroke-linecap:butt;stroke-linejoin:miter;stroke-miterlimit:4;stroke-dasharray:none;stroke-opacity:1"
                   d="m 113.316,364.372 c 0,12.06 -7.496,21.837 -16.742,21.837 -9.246,0 -16.742,-9.777 -16.742,-21.837 0,-12.066 7.496,-21.843 16.742,-21.843 9.246,0 16.742,9.777 16.742,21.843 z" /></g><g
                 id="g168"
                 transform="matrix(1,0,0,-1,0,631.84241)"><path
                   inkscape:connector-curvature="0"
                   id="path170"
                   style="fill:none;stroke:#000000;stroke-width:1.75999999;stroke-linecap:butt;stroke-linejoin:miter;stroke-miterlimit:4;stroke-dasharray:none;stroke-opacity:1"
                   d="m 516.004,154.777 c 0,0 -11.43,-59.425 49.144,-74.285" /></g><g
                 id="g172"
                 transform="matrix(-1,-0.245283,-0.245283,1,0,631.84241)"><path
                   inkscape:connector-curvature="0"
                   id="path174"
                   style="fill:#000000;fill-opacity:1;fill-rule:evenodd;stroke:#000000;stroke-width:1.70933104;stroke-linecap:butt;stroke-linejoin:miter;stroke-miterlimit:4;stroke-dasharray:none;stroke-opacity:1"
                   d="m -497.359,-206.681 6.836,-6.835 -23.931,6.837 23.933,6.835 -6.838,-6.837 z" /></g><text
                 id="text176"
                 style="font-variant:normal;font-weight:normal;font-size:25.60000038px;font-family:LMRoman10;-inkscape-font-specification:LMRoman10;writing-mode:lr-tb;fill:#000000;fill-opacity:1;fill-rule:nonzero;stroke:none"
                 transform="matrix(1,0,0,-1,587.86801,591.34945)"><tspan
                   id="tspan178"
                   sodipodi:role="line"
                   y="0"
                   x="0 18.8416 30.208 43.007999 50.124802 62.924801 75.7248">Região </tspan><tspan
                   id="tspan180"
                   sodipodi:role="line"
                   y="25.6"
                   x="25.050009 39.283611 50.650009">de </tspan><tspan
                   id="tspan182"
                   sodipodi:role="line"
                   y="51.200001"
                   x="-11.024999 -1.7833984 12.475801 22.434202 33.775002 43.8358 55.176601 65.288605 75.375">Interesse</tspan></text>
<g
                 id="g184"
                 transform="matrix(1,0,0,-1,0,631.84241)"><path
                   inkscape:connector-curvature="0"
                   id="path186"
                   style="fill:none;stroke:#000000;stroke-width:0.80000001;stroke-linecap:butt;stroke-linejoin:miter;stroke-miterlimit:4;stroke-dasharray:none;stroke-opacity:1"
                   d="m 74.859,48.492 c -1.902,1.145 -3.726,2.438 -5.711,3.43 -0.343,0.172 -0.804,-0.172 -1.144,0 -0.481,0.242 -0.695,0.844 -1.145,1.14 -0.707,0.473 -1.574,0.672 -2.285,1.145 -0.75,0.5 -2.808,3.223 -3.426,3.43 -0.726,0.238 -1.605,-0.34 -2.289,0 -0.339,0.168 0.27,0.871 0,1.14 -0.601,0.606 -1.683,0.543 -2.285,1.145 -0.269,0.269 0.27,0.875 0,1.14 -0.601,0.606 -1.574,0.672 -2.285,1.145 -1.039,0.695 -2.414,2.922 -3.43,3.43 -0.339,0.168 -0.871,-0.27 -1.14,0 -0.27,0.269 0.269,0.871 0,1.14 -0.602,0.606 -1.684,0.543 -2.285,1.145 -0.27,0.269 0,0.762 0,1.14 -0.383,0.383 -0.696,0.848 -1.145,1.145 -0.707,0.473 -1.578,0.672 -2.285,1.145 -0.477,0.316 -4.367,4.16 -4.57,4.57 -1.411,2.816 3.316,-1.031 -1.145,3.43 -0.269,0.269 -0.801,-0.172 -1.141,0 -0.484,0.238 -0.765,0.761 -1.144,1.14 -0.383,0.383 -0.902,0.66 -1.145,1.145 -0.168,0.34 0.172,0.801 0,1.14 -0.562,1.125 -4.007,3.45 -4.57,4.575 -0.789,1.574 1.383,1.019 -1.141,2.285 -0.343,0.168 -0.875,-0.27 -1.144,0 -0.27,0.269 0.121,0.781 0,1.14 -2.758,8.282 0.328,-1.8 -2.285,3.43 -0.172,0.34 0.168,0.801 0,1.145 -0.242,0.48 -0.762,0.761 -1.145,1.14 -0.89,0.895 -2.769,2.442 -3.426,3.43 l -1.144,2.285 c 0,0.383 0.172,0.801 0,1.145 -0.242,0.48 -0.844,0.691 -1.145,1.14 -0.472,0.711 -0.668,1.578 -1.14,2.285 -0.301,0.45 -0.973,0.633 -1.145,1.145 -0.238,0.723 0.242,1.562 0,2.285 -0.168,0.512 -0.902,0.66 -1.14,1.145 -0.172,0.339 0.121,0.781 0,1.14 -1.383,4.145 -0.543,0.813 -2.286,3.43 -3.851,5.773 -0.011,0.027 -1.144,3.43 -0.539,1.613 -1.524,3.046 -2.285,4.57 -0.383,0.762 -0.938,1.457 -1.145,2.285 -0.183,0.738 0.188,1.547 0,2.285 0.692,2.07 -1.851,2.125 -2.285,3.43 -0.242,0.723 0.184,1.547 0,2.285 -0.207,0.828 -0.937,1.461 -1.141,2.285 -0.277,1.11 0.36,2.344 0,3.43 -0.539,1.617 -1.953,2.902 -2.289,4.57 -0.222,1.121 0,2.285 0,3.43 0,0.762 0.243,1.562 0,2.285 -0.168,0.512 -1.011,0.621 -1.14,1.145 -0.227,0.898 0,7.972 0,9.14 0,1.188 0.222,5.957 0,6.86 -0.207,0.824 -0.938,1.457 -1.145,2.285 -0.183,0.738 0,1.523 0,2.285 l 0,24 c 0,1.906 -0.371,3.848 0,5.715 0.168,0.836 0.938,1.457 1.145,2.285 0.183,0.738 0,1.523 0,2.285 l 0,8 c 0,0.762 -0.184,1.547 0,2.285 0.207,0.828 0.933,1.461 1.14,2.285 0.371,1.481 -0.297,3.078 0,4.575 0.239,1.179 0.907,2.246 1.145,3.425 0.148,0.75 0,1.524 0,2.285 0.379,1.145 0.906,2.25 1.144,3.43 0.297,1.496 -0.3,3.078 0,4.57 0.235,1.184 0.848,2.262 1.141,3.43 0.57,2.285 -1.141,0 0,3.43 0.172,0.512 0.973,0.633 1.145,1.14 0.48,1.45 -0.372,3.094 0,4.575 0.207,0.824 0.871,1.476 1.14,2.285 0.121,0.359 0,0.762 0,1.14 l 0,2.29 c 0,0.761 -0.183,1.546 0,2.285 0.207,0.824 0.938,1.457 1.145,2.285 0.461,1.848 -0.375,3.848 0,5.715 0.168,0.836 0.933,1.457 1.14,2.285 0.371,1.476 -0.367,3.094 0,4.57 0.207,0.828 0.938,1.461 1.145,2.285 0.184,0.743 -0.184,1.547 0,2.285 0.207,0.829 0.937,1.461 1.144,2.29 0.368,1.476 -0.371,3.089 0,4.57 0.411,1.652 1.872,2.918 2.286,4.57 0.183,0.738 -0.188,1.547 0,2.285 0.207,0.828 0.871,1.481 1.14,2.285 0.121,0.364 -0.121,0.786 0,1.145 0.27,0.809 0.938,1.461 1.145,2.285 0.183,0.738 -0.184,1.547 0,2.285 0.207,0.828 0.933,1.461 1.14,2.285 0.188,0.743 -0.238,1.567 0,2.29 0.172,0.507 0.973,0.628 1.145,1.14 0.48,1.446 -0.371,3.094 0,4.57 0.207,0.829 0.762,1.528 1.144,2.29 1.016,2.031 1.813,3.359 2.286,5.71 0.296,1.497 -0.372,3.094 0,4.575 0.207,0.824 0.933,1.457 1.14,2.285 0.188,0.738 -0.183,1.547 0,2.285 0.414,1.652 1.875,2.918 2.285,4.57 0.188,0.743 -0.148,1.539 0,2.285 0.239,1.184 0.907,2.25 1.145,3.43 0.148,0.746 -0.184,1.547 0,2.285 0.207,0.828 0.828,1.496 1.144,2.285 0.446,1.122 0.762,2.29 1.141,3.43 0.383,1.145 0.906,2.25 1.145,3.43 0.148,0.746 0,1.523 0,2.285 0.378,0.762 0.933,1.461 1.14,2.285 0.188,0.738 -0.183,1.547 0,2.285 0.414,1.653 1.875,2.922 2.285,4.575 0.278,1.105 -0.359,2.343 0,3.425 0.27,0.809 0.875,1.481 1.145,2.285 0.121,0.364 -0.121,0.786 0,1.145 0.269,0.809 0.937,1.461 1.144,2.285 0.184,0.738 -0.187,1.547 0,2.285 0.204,0.828 0.934,1.461 1.141,2.285 0.371,1.481 -0.371,3.094 0,4.575 0.207,0.824 0.938,1.457 1.145,2.285 0.277,1.109 -0.364,2.344 0,3.43 0.269,0.808 0.933,1.457 1.14,2.285 0.371,1.476 -0.367,3.093 0,4.57 0.207,0.828 0.875,1.477 1.145,2.285 0.121,0.363 -0.121,0.781 0,1.145 0.269,0.808 0.933,1.457 1.14,2.285 0.188,0.738 -0.183,1.547 0,2.285 0.207,0.828 0.938,1.461 1.145,2.285 0.184,0.738 -0.184,1.547 0,2.285 0.207,0.828 0.976,1.453 1.144,2.285 0.223,1.122 0,2.29 0,3.43 l 0,12.57 c 0,0.766 -0.187,1.547 0,2.29 0.204,0.824 0.934,1.457 1.141,2.285 0.184,0.738 0,1.523 0,2.285 l 0,16 c 0,1.523 0.301,3.078 0,4.57 -0.234,1.184 -0.906,2.25 -1.141,3.43 -0.152,0.746 0.184,1.547 0,2.285 -0.207,0.828 -0.937,1.461 -1.144,2.285 -0.184,0.738 0.184,1.547 0,2.285 -0.207,0.828 -0.762,1.524 -1.145,2.285 -0.379,1.145 -0.906,2.25 -1.14,3.43 -0.301,1.496 0,3.047 0,4.57 l 0,19.43 c 0,0.969 -0.211,6.227 0,6.86 0.168,0.507 0.972,0.628 1.14,1.14 0.485,1.446 -0.297,3.078 0,4.57 0.239,1.184 0.907,2.25 1.145,3.43 0.223,1.121 -0.277,2.32 0,3.43 0.293,1.168 0.851,2.258 1.144,3.43 0.09,0.367 -0.121,0.781 0,1.14 0.266,0.809 0.934,1.461 1.141,2.285 0.184,0.743 -0.184,1.547 0,2.285 0.414,1.657 1.746,2.958 2.285,4.575 0.121,0.359 -0.121,0.781 0,1.14 0.27,0.809 0.762,1.524 1.145,2.285 l 5.715,11.43 c 0.378,0.762 0.628,1.606 1.14,2.285 0.649,0.864 1.805,1.325 2.285,2.285 0.344,0.684 -0.339,1.606 0,2.29 0.485,0.96 1.641,1.421 2.289,2.285 0.508,0.679 0.629,1.601 1.141,2.285 0.649,0.863 1.641,1.422 2.285,2.285 0.988,1.316 2.496,5.926 3.43,6.855 0.601,0.606 1.578,0.672 2.285,1.145 2.625,1.75 -0.488,0.652 2.285,3.43 1.207,1.203 3.367,1.082 4.574,2.285 0.602,0.601 0.54,1.683 1.141,2.285 0.602,0.602 1.555,0.703 2.285,1.145 11.137,6.679 -0.39,-0.293 4.574,3.425 1.098,0.825 2.356,1.43 3.426,2.285 2.106,1.684 3.645,3.993 5.715,5.715 1.055,0.879 2.356,1.43 3.43,2.285 0.84,0.676 1.386,1.692 2.285,2.29 1.418,0.945 3.094,1.437 4.57,2.285 2.84,0.332 3.625,3.316 5.715,4.57 1.035,0.621 2.465,0.422 3.43,1.145 0.679,0.507 0.433,1.812 1.14,2.285 0.637,0.422 1.563,-0.242 2.289,0 1.02,0.34 1.321,1.804 2.286,2.285 0.3,0.148 3.972,0 4.57,0 l 11.43,0 c 0.921,0 8.75,0.195 9.14,0 0.485,-0.242 0.633,-0.973 1.145,-1.145 0.722,-0.238 1.547,0.188 2.285,0 6.476,-3.234 -1.703,0.426 4.57,-1.14 0.828,-0.207 1.477,-0.875 2.285,-1.145 0.364,-0.121 0.782,0.121 1.145,0 1.617,-0.539 2.918,-1.871 4.57,-2.285 1.481,-0.371 3.078,0.301 4.574,0 1.18,-0.234 2.247,-0.906 3.426,-1.145 0.746,-0.148 1.539,0.153 2.285,0 1.184,-0.234 2.243,-0.941 3.43,-1.14 1.129,-0.188 2.309,0.223 3.43,0 0.836,-0.168 1.449,-0.977 2.285,-1.145 9.914,-1.98 -4.438,3.004 8,-1.14 4.57,-1.524 -0.231,-1.098 5.715,-2.285 0.746,-0.153 1.547,0.183 2.285,0 2.066,0.687 2.125,-1.852 3.43,-2.29 0.722,-0.238 1.523,0 2.285,0 1.14,-0.378 2.308,-0.695 3.429,-1.14 3.309,-1.324 1.258,-0.961 4.571,-2.285 1.117,-0.449 2.308,-0.696 3.429,-1.145 1.579,-0.633 2.989,-1.652 4.571,-2.285 11.504,-4.602 -2.426,0.891 5.715,-1.145 0.824,-0.203 1.476,-0.871 2.285,-1.14 0.722,-0.242 1.523,0 2.285,0 l 13.715,0 c 1.902,0 3.82,-0.211 5.715,0 2.921,0.324 5.242,1.496 8,2.285 1.507,0.434 3.046,0.762 4.57,1.145 3.047,0.761 6.121,1.421 9.144,2.285 1.157,0.328 2.235,0.972 3.426,1.14 1.508,0.219 3.078,-0.297 4.574,0 0.528,0.106 0.629,0.973 1.141,1.145 0.723,0.242 1.539,-0.149 2.285,0 1.184,0.234 2.262,0.851 3.43,1.14 0.371,0.094 0.781,-0.117 1.144,0 0.805,0.27 1.457,0.938 2.286,1.145 1.476,0.371 3.074,-0.297 4.57,0 2.363,0.473 4.48,1.891 6.855,2.285 1.129,0.188 2.297,-0.14 3.43,0 1.93,0.242 3.789,0.903 5.715,1.145 1.133,0.14 2.301,-0.188 3.43,0 2.375,0.394 4.539,1.621 6.855,2.285 l 4.57,1.14 c 0.762,0 1.547,-0.183 2.289,0 2.067,-0.687 2.125,1.852 3.426,2.29 1.031,0.339 2.403,-0.344 3.43,0 6.476,3.234 -1.703,-0.426 4.57,1.14 1.653,0.414 2.891,2.008 4.574,2.285 1.5,0.25 3.106,-0.418 4.571,0 1.32,0.379 2.285,1.524 3.429,2.285 1.524,0.383 3.036,0.805 4.571,1.145 1.894,0.422 3.816,0.723 5.715,1.145 3.066,0.679 6.074,1.601 9.14,2.285 1.899,0.422 3.832,0.672 5.715,1.14 1.168,0.293 2.27,0.813 3.43,1.145 1.508,0.43 3.047,0.762 4.57,1.14 1.523,0.383 3.012,0.95 4.57,1.145 1.512,0.188 3.059,-0.168 4.575,0 3.578,-0.008 6.8,1.852 10.285,2.285 1.511,0.192 3.054,-0.168 4.57,0 3.863,0.43 7.563,1.899 11.43,2.285 1.894,0.192 3.816,-0.187 5.715,0 3.863,0.387 7.562,1.903 11.425,2.285 1.899,0.192 3.825,-0.207 5.715,0 1.563,0.176 3.047,0.766 4.574,1.145 3.047,0.762 6.161,1.293 9.141,2.285 1.945,0.649 3.75,1.696 5.715,2.285 3.723,1.118 7.707,1.172 11.43,2.285 21.515,6.458 -7.262,-0.957 10.285,3.43 14.492,3.625 -5.192,-0.902 9.14,1.145 1.196,0.168 2.239,0.972 3.43,1.14 1.508,0.219 3.059,-0.187 4.57,0 1.559,0.196 3.016,0.95 4.575,1.145 1.511,0.187 3.058,-0.188 4.57,0 1.558,0.195 3.016,0.922 4.57,1.14 1.133,0.165 2.297,-0.14 3.43,0 1.926,0.243 3.785,0.93 5.715,1.145 1.515,0.168 3.058,-0.187 4.57,0 1.559,0.195 3.012,0.969 4.57,1.145 1.895,0.207 3.813,0 5.715,0 l 16,0 c 1.145,0 2.297,0.16 3.43,0 1.555,-0.223 3.016,-0.922 4.57,-1.145 1.133,-0.16 2.301,0.188 3.43,0 2.375,-0.395 4.539,-1.625 6.855,-2.285 l 4.575,-1.145 c 0.761,0 1.539,0.153 2.285,0 4.965,-0.992 2.113,-0.726 5.715,-3.425 3.082,-2.313 1.871,0.019 5.714,-2.29 1.438,-0.859 4.29,-4.574 5.711,-5.71 1.075,-0.86 2.254,-1.582 3.43,-2.29 0.731,-0.437 1.684,-0.539 2.285,-1.14 0.602,-0.602 0.543,-1.684 1.145,-2.285 1.203,-1.207 3.367,-1.082 4.57,-2.285 2.777,-2.778 -0.34,-1.68 2.285,-3.43 0.711,-0.473 1.684,-0.539 2.285,-1.145 0.606,-0.601 0.633,-1.601 1.145,-2.285 1.066,-1.422 4.41,-4.41 5.715,-5.715 1.14,-1.14 2.136,-2.457 3.429,-3.425 0.68,-0.512 1.68,-0.543 2.286,-1.145 0.601,-0.602 0.703,-1.555 1.14,-2.285 0.707,-1.18 1.578,-2.25 2.285,-3.43 0.442,-0.73 0.633,-1.601 1.145,-2.285 1.293,-1.723 3.461,-2.723 4.57,-4.57 0.621,-1.035 0.422,-2.465 1.145,-3.43 0.511,-0.68 1.683,-0.539 2.285,-1.145 4.289,-4.285 0.723,-2.105 3.43,-5.71 4.941,-4.946 0.179,0.3 3.425,-4.575 0.899,-1.343 2.461,-2.132 3.43,-3.425 0.512,-0.684 0.672,-1.579 1.145,-2.29 0.296,-0.445 0.902,-0.66 1.14,-1.14 0.539,-1.078 0.696,-2.309 1.145,-3.43 0.316,-0.789 0.761,-1.523 1.14,-2.285 0.383,-0.762 0.633,-1.605 1.145,-2.285 1.293,-1.723 3.461,-2.723 4.57,-4.57 0.621,-1.036 0.524,-2.399 1.145,-3.43 0.554,-0.926 1.73,-1.363 2.285,-2.285 0.621,-1.035 0.695,-2.313 1.144,-3.43 0.629,-1.582 1.653,-2.988 2.286,-4.57 0.894,-2.239 1.39,-4.621 2.285,-6.86 0.316,-0.789 0.824,-1.492 1.14,-2.285 0.45,-1.117 0.762,-2.285 1.145,-3.43 0.379,-1.14 0.945,-2.238 1.144,-3.425 0.188,-1.129 -0.425,-2.367 0,-3.43 0.399,-1 1.801,-1.32 2.286,-2.285 0.699,-1.406 0.644,-3.082 1.14,-4.57 0.27,-0.809 0.828,-1.497 1.145,-2.29 1.332,-3.328 2.293,-6.882 3.429,-10.285 l 8,-24 4.571,-13.715 1.14,-3.425 c 0.383,-1.145 0.946,-2.242 1.145,-3.43 0.375,-2.254 -0.324,-4.594 0,-6.855 0.223,-1.555 0.711,-3.063 1.144,-4.575 0.329,-1.156 0.969,-2.234 1.141,-3.425 0.43,-3.02 -0.43,-6.129 0,-9.145 0.172,-1.191 0.945,-2.238 1.145,-3.43 0.187,-1.125 0,-2.285 0,-3.425 l 0,-16 c 0,-1.145 0.16,-2.297 0,-3.43 -0.622,-4.34 -2.809,-8.231 -3.43,-12.57 -0.16,-1.133 0.187,-2.301 0,-3.43 -0.395,-2.375 -1.891,-4.481 -2.285,-6.86 -0.188,-1.124 0.222,-2.304 0,-3.425 -0.168,-0.836 -0.938,-1.461 -1.145,-2.285 -0.183,-0.743 0.149,-1.54 0,-2.29 -0.234,-1.179 -0.945,-2.238 -1.14,-3.425 -0.188,-1.129 0.187,-2.301 0,-3.43 -0.2,-1.187 -0.907,-2.246 -1.145,-3.43 -0.148,-0.746 0.149,-1.539 0,-2.285 -0.469,-2.351 -1.269,-3.683 -2.285,-5.715 -0.383,-0.761 -0.977,-1.449 -1.145,-2.285 -0.371,-1.867 0.465,-3.867 0,-5.715 -0.207,-0.824 -0.824,-1.492 -1.14,-2.285 -0.449,-1.117 -0.696,-2.308 -1.145,-3.43 -0.316,-0.789 -0.933,-1.457 -1.14,-2.285 -2.036,-8.14 3.457,5.793 -1.145,-5.715 -0.062,-0.156 -2.273,-4.515 -2.285,-4.57 -0.223,-1.121 0.187,-2.301 0,-3.43 -0.199,-1.187 -0.945,-2.238 -1.145,-3.425 -0.187,-1.129 0.227,-2.309 0,-3.43 -0.332,-1.672 -1.871,-2.918 -2.285,-4.57 -0.183,-0.739 0.149,-1.539 0,-2.285 -0.234,-1.184 -0.851,-2.262 -1.14,-3.43 -0.094,-0.371 0.121,-0.781 0,-1.145 -0.539,-1.613 -1.75,-2.953 -2.286,-4.57 -0.253,-0.758 0.25,-2.668 0,-3.43 -0.171,-0.511 -0.902,-0.66 -1.144,-1.14 -0.172,-0.34 0.121,-0.782 0,-1.145 -0.27,-0.808 -0.938,-1.457 -1.145,-2.285 -0.183,-0.738 0.243,-1.562 0,-2.285 -0.168,-0.512 -0.843,-0.695 -1.14,-1.145 -0.473,-0.707 -0.875,-1.476 -1.145,-2.285 -0.121,-0.359 0.211,-0.824 0,-1.14 -0.597,-0.899 -1.804,-1.325 -2.285,-2.29 -0.34,-0.679 0.184,-1.542 0,-2.285 -0.207,-0.824 -0.762,-1.523 -1.141,-2.285 -0.382,-0.762 -0.671,-1.574 -1.144,-2.285 -0.301,-0.449 -0.762,-0.762 -1.145,-1.145 -1.859,-1.859 -2.613,-2.132 -3.425,-4.57 -0.122,-0.359 0.121,-0.781 0,-1.14 -0.27,-0.809 -0.762,-1.524 -1.145,-2.29 -0.379,-0.761 -0.539,-1.679 -1.141,-2.285 -0.605,-0.601 -1.683,-0.539 -2.289,-1.14 -0.07,-0.075 -2.14,-4.36 -2.285,-4.575 -0.297,-0.445 -0.762,-0.761 -1.14,-1.14 l -2.286,-2.285 c -1.144,-1.145 -2.136,-2.461 -3.429,-3.43 -0.684,-0.512 -1.684,-0.539 -2.285,-1.145 -0.606,-0.601 -0.672,-1.574 -1.145,-2.285 -1.047,-1.57 -1.762,-1.175 -3.43,-2.285 -2.625,-1.75 0.493,-0.652 -2.285,-3.43 -0.601,-0.601 -1.601,-0.628 -2.285,-1.14 -0.863,-0.649 -1.422,-1.641 -2.285,-2.285 -0.684,-0.512 -1.684,-0.543 -2.285,-1.145 -0.602,-0.601 -0.543,-1.683 -1.145,-2.285 -0.601,-0.602 -1.574,-0.672 -2.285,-1.145 -0.449,-0.296 -0.695,-0.843 -1.141,-1.14 -0.71,-0.473 -1.605,-0.633 -2.289,-1.145 -8.218,-6.164 2.414,1.27 -3.425,-4.57 -0.606,-0.602 -1.579,-0.672 -2.286,-1.145 -1.714,-1.14 -4.164,-4.937 -5.714,-5.71 -0.684,-0.344 -1.653,0.421 -2.286,0 -0.695,-1.391 -0.98,-2.559 -2.289,-3.43 -0.707,-0.473 -1.574,-0.672 -2.285,-1.145 -1.679,-1.121 -2.89,-3.449 -4.57,-4.57 -0.707,-0.473 -1.578,-0.672 -2.285,-1.145 -1.344,-0.894 -2.137,-2.457 -3.43,-3.425 -0.68,-0.512 -1.578,-0.672 -2.285,-1.145 -0.449,-0.297 -0.695,-0.844 -1.145,-1.14 -0.707,-0.473 -1.574,-0.672 -2.285,-1.145 -0.894,-0.598 -1.386,-1.687 -2.285,-2.285 -0.707,-0.473 -1.684,-0.539 -2.285,-1.145 -0.27,-0.269 0.269,-0.871 0,-1.14 -0.602,-0.602 -1.578,-0.672 -2.285,-1.145 -1.684,-1.121 -2.891,-3.449 -4.571,-4.57 -0.71,-0.473 -1.578,-0.672 -2.289,-1.145 -0.445,-0.297 -0.761,-0.761 -1.14,-1.14 l -3.43,-3.43 c -0.379,-0.379 -0.66,-0.902 -1.141,-1.145 -0.343,-0.167 -0.804,0.172 -1.144,0 -0.965,-0.48 -1.32,-1.8 -2.285,-2.285 -0.34,-0.168 -0.805,0.172 -1.145,0 -1.371,-0.683 -2.054,-2.742 -3.426,-3.425 -0.343,-0.172 -0.804,0.168 -1.144,0 -4.758,-2.379 1.223,0.078 -1.145,-2.29 -0.601,-0.601 -1.574,-0.667 -2.285,-1.14 -0.449,-0.301 -0.66,-0.902 -1.14,-1.145 -0.344,-0.168 -0.805,0.172 -1.145,0 -0.965,-0.48 -1.391,-1.687 -2.285,-2.285 -0.707,-0.472 -1.684,-0.539 -2.285,-1.14 -0.27,-0.27 0.269,-0.875 0,-1.145 -0.602,-0.602 -1.684,-0.539 -2.285,-1.145 -0.27,-0.265 0.269,-0.871 0,-1.14 -0.27,-0.27 -0.805,0.172 -1.145,0 -0.48,-0.242 -0.762,-0.762 -1.141,-1.145 -0.765,0 -1.566,0.243 -2.289,0 -0.507,-0.168 -0.691,-0.843 -1.14,-1.14 -0.711,-0.473 -1.684,-0.543 -2.285,-1.145 -0.27,-0.269 0.359,-1.023 0,-1.14 -1.086,-0.364 -2.321,0.277 -3.43,0 -0.524,-0.133 -0.695,-0.844 -1.145,-1.145 -4.988,-3.328 0.379,0.508 -4.57,-1.145 -0.512,-0.167 -0.66,-0.898 -1.141,-1.14 -0.683,-0.34 -1.605,0.34 -2.289,0 -0.48,-0.242 -0.761,-0.762 -1.14,-1.145 -0.762,0 -1.563,0.243 -2.285,0 -0.512,-0.168 -0.664,-0.902 -1.145,-1.14 -0.68,-0.34 -1.605,0.34 -2.285,0 -0.481,-0.242 -0.633,-0.973 -1.145,-1.145 -0.722,-0.238 -1.601,0.34 -2.285,0 -0.34,-0.168 0.364,-1.023 0,-1.14 -1.082,-0.364 -2.32,0.277 -3.426,0 -0.523,-0.133 -0.664,-0.903 -1.144,-1.145 -0.684,-0.34 -1.606,0.34 -2.285,0 -0.485,-0.242 -0.66,-0.902 -1.145,-1.145 -0.679,-0.339 -1.601,0.344 -2.285,0 -0.48,-0.238 -0.762,-0.761 -1.141,-1.14 -0.765,0 -1.566,0.242 -2.289,0 -0.507,-0.172 -0.66,-0.902 -1.14,-1.145 -0.684,-0.339 -1.606,0.344 -2.285,0 -0.485,-0.238 -0.664,-0.902 -1.145,-1.14 -0.34,-0.172 -0.875,0.269 -1.141,0 -0.269,-0.27 0.266,-0.875 0,-1.145 -2.367,-2.363 0.09,3.613 -2.289,-1.14 -0.339,-0.684 0.539,-1.75 0,-2.29 -0.269,-0.265 -0.871,0.27 -1.14,0 -0.039,-0.035 0,-3.148 0,-3.425 0,-3.172 0.168,1.824 -1.145,-3.43 -0.367,-1.477 0.371,-3.094 0,-4.57 -0.207,-0.828 -0.933,-1.461 -1.14,-2.285 -0.188,-0.743 0.148,-1.54 0,-2.29 -0.239,-1.179 -0.946,-2.238 -1.145,-3.425 -0.312,-1.879 0.461,-3.867 0,-5.715 -0.207,-0.828 -0.937,-1.461 -1.141,-2.285 -0.187,-0.739 0.184,-1.547 0,-2.285 -0.207,-0.829 -0.937,-1.461 -1.144,-2.29 -0.371,-1.476 0.48,-3.124 0,-4.57 -0.172,-0.512 -0.902,-0.66 -1.145,-1.14 -0.168,-0.344 0.172,-0.805 0,-1.145 -0.238,-0.48 -0.902,-0.66 -1.14,-1.145 -0.457,-0.914 0.457,-2.511 0,-3.425 -0.485,-0.965 -1.805,-1.325 -2.285,-2.285 -0.36,-0.719 0.359,-3.856 0,-4.575 -0.485,-0.961 -1.805,-1.32 -2.286,-2.285 -0.343,-0.68 0.34,-1.601 0,-2.285 -0.242,-0.48 -0.902,-0.66 -1.144,-1.145 -0.34,-0.679 0.34,-1.601 0,-2.285 -0.242,-0.48 -0.902,-0.66 -1.145,-1.14 -0.168,-0.34 0.27,-0.875 0,-1.145 -0.269,-0.269 -0.871,0.27 -1.14,0 -0.539,-0.539 0.34,-1.601 0,-2.285 -0.242,-0.48 -0.903,-0.66 -1.145,-1.145 -0.34,-0.679 0.34,-1.601 0,-2.285 -0.238,-0.48 -0.902,-0.66 -1.14,-1.14 -0.172,-0.34 0.168,-0.805 0,-1.145 -0.243,-0.48 -0.903,-0.66 -1.145,-1.14 -0.172,-0.344 0.27,-0.875 0,-1.145 -0.269,-0.269 -0.973,0.34 -1.141,0 -0.343,-0.68 0.239,-1.562 0,-2.285 -0.171,-0.512 -0.902,-0.66 -1.144,-1.145 -0.172,-0.339 0.269,-0.871 0,-1.14 -5.602,-2.801 -0.957,0.371 -2.285,-2.285 -0.242,-0.485 -0.973,-0.633 -1.145,-1.145 -0.238,-0.723 0.422,-1.652 0,-2.285 -0.472,-0.711 -1.683,-0.539 -2.285,-1.145 -0.269,-0.269 0.121,-0.781 0,-1.14 -0.269,-0.809 -0.672,-1.578 -1.141,-2.285 -3.793,-3.793 0.536,1.074 -1.144,-2.29 -0.481,-0.96 -1.688,-1.386 -2.285,-2.285 -0.473,-0.707 -0.672,-1.574 -1.145,-2.285 -0.297,-0.449 -0.762,-0.762 -1.14,-1.14 l -3.43,-3.43 c -0.383,-0.383 -0.844,-0.695 -1.145,-1.145 -1.109,-1.664 -0.711,-2.379 -2.285,-3.425 -0.707,-0.473 -1.574,-0.672 -2.285,-1.145 -1.316,-0.879 -2.109,-2.551 -3.43,-3.43 -0.707,-0.472 -1.683,-0.539 -2.285,-1.14 -0.269,-0.27 0.27,-0.875 0,-1.145 -0.785,-0.785 -5.597,-2.59 -6.855,-3.43 -1.344,-0.894 -2.137,-2.457 -3.43,-3.425 -0.68,-0.512 -1.523,-0.762 -2.285,-1.145 l -2.285,-1.14 c -1.524,-0.762 -2.957,-1.75 -4.571,-2.29 -0.363,-0.117 -0.804,0.172 -1.144,0 -0.481,-0.238 -0.695,-0.843 -1.145,-1.14 -1.418,-0.945 -3.152,-1.34 -4.57,-2.285 -0.449,-0.301 -0.66,-0.903 -1.141,-1.145 -0.343,-0.168 -0.765,0 -1.144,0 -0.762,-0.379 -1.578,-0.668 -2.285,-1.14 -0.449,-0.301 -0.633,-0.973 -1.145,-1.145 -0.722,-0.242 -1.547,0.184 -2.285,0 -0.824,-0.207 -1.523,-0.762 -2.285,-1.145 -1.145,0 -2.309,0.227 -3.43,0 -0.836,-0.164 -1.492,-0.824 -2.285,-1.14 -1.117,-0.449 -2.269,-0.813 -3.43,-1.145 -1.507,-0.429 -3.113,-0.558 -4.57,-1.14 -0.5,-0.199 -0.621,-1.012 -1.141,-1.145 -1.109,-0.277 -2.308,0.227 -3.429,0 -0.836,-0.168 -1.496,-0.824 -2.285,-1.14 -1.122,-0.45 -2.25,-0.907 -3.43,-1.145 -1.496,-0.297 -3.094,0.371 -4.57,0 -0.829,-0.207 -1.481,-0.875 -2.286,-1.145 -1.086,-0.359 -2.308,0.227 -3.429,0 -1.184,-0.234 -2.246,-0.906 -3.43,-1.14 -1.121,-0.223 -2.344,0.359 -3.43,0 -0.808,-0.27 -1.457,-0.938 -2.285,-1.145 -1.711,-0.425 -5.047,0.364 -6.855,0 -1.184,-0.234 -2.246,-0.906 -3.43,-1.14 -1.492,-0.301 -3.047,0 -4.57,0 l -6.86,0 c -1.187,0 -5.957,0.222 -6.855,0 -0.828,-0.207 -1.461,-0.938 -2.285,-1.145 -0.739,-0.183 -1.524,0 -2.285,0 l -46.86,0 c -0.762,0 -1.547,-0.183 -2.285,0 -0.824,0.207 -1.457,0.938 -2.285,1.145 -0.899,0.222 -5.668,0 -6.856,0 -0.765,0 -1.566,-0.242 -2.289,0 -0.507,0.168 -0.629,0.972 -1.14,1.14 -0.949,0.317 -4.989,-0.363 -5.715,0 -0.481,0.243 -0.633,0.973 -1.145,1.145 -1.418,0.473 -4.211,-0.375 -5.711,0 -0.828,0.207 -1.48,0.875 -2.289,1.14 -1.082,0.364 -2.316,-0.273 -3.425,0 -0.829,0.208 -1.481,0.876 -2.286,1.145 -0.363,0.121 -0.765,0 -1.144,0 -1.145,0 -2.309,-0.223 -3.43,0 -0.836,0.168 -1.457,0.938 -2.285,1.145 -1.984,0.496 -4.871,-0.497 -6.855,0 -0.829,0.207 -1.461,0.933 -2.286,1.14 -0.742,0.188 -1.527,0 -2.289,0 l -3.425,0 c -0.762,0 -1.547,-0.183 -2.286,0 -0.828,0.207 -1.453,0.977 -2.289,1.145 -1.121,0.222 -2.285,0 -3.425,0 l -26.286,0 c -0.519,0 -7.449,-0.184 -8,0 -0.808,0.269 -1.48,0.871 -2.289,1.14 -0.718,0.243 -5.984,0 -6.855,0 -0.383,0 -0.781,-0.117 -1.145,0 -0.808,0.27 -1.476,0.875 -2.285,1.145 -1.082,0.359 -2.32,-0.277 -3.426,0 -0.828,0.207 -1.453,0.976 -2.289,1.14 -1.867,0.376 -3.863,-0.46 -5.711,0 -1.656,0.415 -2.921,1.876 -4.574,2.29 -1.476,0.367 -3.125,-0.485 -4.57,0 -0.512,0.168 -0.66,0.902 -1.145,1.14 -0.339,0.172 -0.761,0 -1.14,0 -0.762,0 -1.563,-0.238 -2.285,0 -0.512,0.172 -0.664,0.903 -1.145,1.145 -0.68,0.34 -1.562,-0.242 -2.285,0 -0.809,0.269 -1.477,0.871 -2.285,1.14 -0.364,0.121 -0.781,-0.117 -1.145,0 -0.808,0.27 -1.476,0.875 -2.285,1.145 -0.359,0.121 -0.781,-0.121 -1.141,0 -0.808,0.269 -1.48,0.875 -2.289,1.14 -0.359,0.122 -0.761,0 -1.14,0 -1.145,0.383 -2.352,0.606 -3.43,1.145 -0.48,0.242 -0.66,0.902 -1.141,1.145 -1.078,0.539 -2.289,0.761 -3.429,1.14 -1.145,0.383 -2.262,0.852 -3.43,1.145 -0.738,0.183 -1.605,-0.34 -2.285,0 -0.481,0.238 -0.66,0.902 -1.145,1.14 -0.339,0.172 -0.8,-0.168 -1.14,0 -0.485,0.243 -0.66,0.903 -1.145,1.145 -0.914,0.457 -2.512,-0.457 -3.426,0 -0.484,0.242 -0.664,0.902 -1.144,1.14 -0.453,0.227 -3.195,-0.23 -3.43,0 -0.269,0.27 0.27,0.876 0,1.145 -0.269,0.27 -0.801,-0.172 -1.14,0 -0.485,0.242 -0.664,0.902 -1.145,1.145 -0.68,0.339 -1.605,-0.344 -2.285,0 -0.481,0.238 -0.66,0.902 -1.145,1.14 -0.679,0.34 -1.746,-0.539 -2.285,0 -0.269,0.27 0.27,0.875 0,1.145 -4.461,4.461 -0.613,-0.266 -3.426,1.14 -0.484,0.243 -0.664,0.903 -1.144,1.145 -0.34,0.172 -0.801,-0.172 -1.145,0 -0.48,0.242 -0.66,0.902 -1.14,1.14 -0.34,0.172 -0.805,-0.167 -1.145,0 -0.48,0.243 -0.66,0.903 -1.14,1.145 -0.344,0.172 -0.782,-0.121 -1.145,0 -0.809,0.27 -1.477,0.875 -2.285,1.145 -0.363,0.117 -0.875,-0.27 -1.145,0 -0.269,0.269 0.344,0.972 0,1.14 -0.679,0.34 -1.523,0 -2.285,0 -0.379,0 -0.871,-0.269 -1.14,0 -0.27,0.27 0.168,0.805 0,1.145 0.343,2.445 -1.848,0.41 -2.286,1.14 -1.058,1.762 -1.527,3.813 -2.289,5.715 z" /></g><g
                 id="g188"
                 transform="matrix(1,0,0,-1,0,631.84241)"><path
                   inkscape:connector-curvature="0"
                   id="path190"
                   style="fill:none;stroke:#000000;stroke-width:1.36000001;stroke-linecap:butt;stroke-linejoin:miter;stroke-miterlimit:4;stroke-dasharray:16.32, 16.32;stroke-dashoffset:0;stroke-opacity:1"
                   d="M 280.574,91.992 177.828,74.551" /></g><g
                 id="g192"
                 transform="matrix(-1,0.169724,0.169724,1,0,631.84241)"><path
                   inkscape:connector-curvature="0"
                   id="path194"
                   style="fill:#000000;fill-opacity:1;fill-rule:evenodd;stroke:#000000;stroke-width:1.34082496;stroke-linecap:butt;stroke-linejoin:miter;stroke-miterlimit:4;stroke-dasharray:none;stroke-opacity:1"
                   d="m -274.488,-43.128 5.363,-5.363 -18.769,5.361 18.77,5.365 -5.364,-5.363 z" /></g><g
                 id="g196"
                 transform="matrix(1,0,0,-1,0,631.84241)"><path
                   inkscape:connector-curvature="0"
                   id="path198"
                   style="fill:none;stroke:#000000;stroke-width:1.36000001;stroke-linecap:butt;stroke-linejoin:miter;stroke-miterlimit:4;stroke-dasharray:16.32, 16.32;stroke-dashoffset:0;stroke-opacity:1"
                   d="M 321.629,125.062 202.641,191.215" /></g><g
                 id="g200"
                 transform="matrix(-1,-0.555931,-0.555931,1,0,631.84241)"><path
                   inkscape:connector-curvature="0"
                   id="path202"
                   style="fill:#000000;fill-opacity:1;fill-rule:evenodd;stroke:#000000;stroke-width:1.18866396;stroke-linecap:butt;stroke-linejoin:miter;stroke-miterlimit:4;stroke-dasharray:none;stroke-opacity:1"
                   d="m -180.696,-232.126 4.756,-4.755 -16.643,4.756 16.643,4.752 -4.756,-4.753 z" /></g><g
                 id="g204"
                 transform="matrix(1,0,0,-1,0,631.84241)"><path
                   inkscape:connector-curvature="0"
                   id="path206"
                   style="fill:none;stroke:#0000ff;stroke-width:1.36000001;stroke-linecap:butt;stroke-linejoin:miter;stroke-miterlimit:4;stroke-dasharray:16.32, 16.32;stroke-dashoffset:0;stroke-opacity:1"
                   d="m 369.426,125.062 63.769,107.872" /></g><g
                 id="g208"
                 transform="matrix(0.591168,-1,-1,-0.591168,0,631.84241)"><path
                   inkscape:connector-curvature="0"
                   id="path210"
                   style="fill:#000000;fill-opacity:1;fill-rule:evenodd;stroke:#000000;stroke-width:1.17072701;stroke-linecap:butt;stroke-linejoin:miter;stroke-miterlimit:4;stroke-dasharray:none;stroke-opacity:1"
                   d="m 266.22,-218.967 4.683,-4.685 -16.394,4.684 16.392,4.683 -4.681,-4.682 z" /></g><g
                 id="g212"
                 transform="matrix(1,0,0,-1,0,631.84241)"><path
                   inkscape:connector-curvature="0"
                   id="path214"
                   style="fill:none;stroke:#000000;stroke-width:1.36000001;stroke-linecap:butt;stroke-linejoin:miter;stroke-miterlimit:4;stroke-dasharray:16.32, 16.32;stroke-dashoffset:0;stroke-opacity:1"
                   d="m 201.531,209.219 57.52,41.976" /></g><g
                 id="g216"
                 transform="matrix(1,-0.72973,-0.72973,-1,0,631.84241)"><path
                   inkscape:connector-curvature="0"
                   id="path218"
                   style="fill:#000000;fill-opacity:1;fill-rule:evenodd;stroke:#000000;stroke-width:1.09859598;stroke-linecap:butt;stroke-linejoin:miter;stroke-miterlimit:4;stroke-dasharray:none;stroke-opacity:1"
                   d="m 242.114,40.561 4.395,-4.395 -15.381,4.392 15.38,4.397 -4.394,-4.394 z" /></g><g
                 id="g220"
                 transform="matrix(1,0,0,-1,0,631.84241)"><path
                   inkscape:connector-curvature="0"
                   id="path222"
                   style="fill:none;stroke:#000000;stroke-width:1.36000001;stroke-linecap:butt;stroke-linejoin:miter;stroke-miterlimit:4;stroke-dasharray:16.32, 16.32;stroke-dashoffset:0;stroke-opacity:1"
                   d="M 265.188,276.094 213.676,380.891" /></g><g
                 id="g224"
                 transform="matrix(-0.491525,-1,-1,0.491525,0,631.84241)"><path
                   inkscape:connector-curvature="0"
                   id="path226"
                   style="fill:#000000;fill-opacity:1;fill-rule:evenodd;stroke:#000000;stroke-width:1.22053003;stroke-linecap:butt;stroke-linejoin:miter;stroke-miterlimit:4;stroke-dasharray:none;stroke-opacity:1"
                   d="m 129.594,-322.886 4.881,-4.884 -17.088,4.884 17.087,4.882 -4.88,-4.882 z" /></g><g
                 id="g228"
                 transform="matrix(1,0,0,-1,0,631.84241)"><path
                   inkscape:connector-curvature="0"
                   id="path230"
                   style="fill:none;stroke:#000000;stroke-width:1.36000001;stroke-linecap:butt;stroke-linejoin:miter;stroke-miterlimit:4;stroke-dasharray:16.32, 16.32;stroke-dashoffset:0;stroke-opacity:1"
                   d="m 190.254,400.75 -74.215,22.344" /></g><g
                 id="g232"
                 transform="matrix(-1,-0.301075,-0.301075,1,0,631.84241)"><path
                   inkscape:connector-curvature="0"
                   id="path234"
                   style="fill:#000000;fill-opacity:1;fill-rule:evenodd;stroke:#000000;stroke-width:1.30225801;stroke-linecap:butt;stroke-linejoin:miter;stroke-miterlimit:4;stroke-dasharray:none;stroke-opacity:1"
                   d="m -50.79,-419.963 5.209,-5.21 -18.233,5.21 18.233,5.208 -5.209,-5.208 z" /></g><g
                 id="g236"
                 transform="matrix(1,0,0,-1,0,631.84241)"><path
                   inkscape:connector-curvature="0"
                   id="path238"
                   style="fill:none;stroke:#000000;stroke-width:1.36000001;stroke-linecap:butt;stroke-linejoin:miter;stroke-miterlimit:4;stroke-dasharray:16.32, 16.32;stroke-dashoffset:0;stroke-opacity:1"
                   d="m 205.484,412.645 -4.105,85.41" /></g><g
                 id="g240"
                 transform="matrix(-0.0480769,-1,-1,0.0480769,0,631.84241)"><path
                   inkscape:connector-curvature="0"
                   id="path242"
                   style="fill:#000000;fill-opacity:1;fill-rule:evenodd;stroke:#000000;stroke-width:1.35843098;stroke-linecap:butt;stroke-linejoin:miter;stroke-miterlimit:4;stroke-dasharray:none;stroke-opacity:1"
                   d="m 415.423,-224.804 5.434,-5.433 -19.02,5.434 19.019,5.433 -5.433,-5.434 z" /></g><g
                 id="g244"
                 transform="matrix(1,0,0,-1,0,631.84241)"><path
                   inkscape:connector-curvature="0"
                   id="path246"
                   style="fill:none;stroke:#000000;stroke-width:1.36000001;stroke-linecap:butt;stroke-linejoin:miter;stroke-miterlimit:4;stroke-dasharray:16.32, 16.32;stroke-dashoffset:0;stroke-opacity:1"
                   d="m 109.176,268.324 66.226,-57.949" /></g><g
                 id="g248"
                 transform="matrix(-1,-0.875,-0.875,1,0,631.84241)"><path
                   inkscape:connector-curvature="0"
                   id="path250"
                   style="fill:#000000;fill-opacity:1;fill-rule:evenodd;stroke:#000000;stroke-width:1.02350402;stroke-linecap:butt;stroke-linejoin:miter;stroke-miterlimit:4;stroke-dasharray:none;stroke-opacity:1"
                   d="m 15.149,-206.077 4.094,-4.093 -14.329,4.094 14.329,4.093 -4.094,-4.094 z" /></g><g
                 id="g252"
                 transform="matrix(1,0,0,-1,0,631.84241)"><path
                   inkscape:connector-curvature="0"
                   id="path254"
                   style="fill:none;stroke:#000000;stroke-width:1.36000001;stroke-linecap:butt;stroke-linejoin:miter;stroke-miterlimit:4;stroke-dasharray:16.32, 16.32;stroke-dashoffset:0;stroke-opacity:1"
                   d="M 148.578,82.613 88.746,133.629" /></g><g
                 id="g256"
                 transform="matrix(-1,-0.852646,-0.852646,1,0,631.84241)"><path
                   inkscape:connector-curvature="0"
                   id="path258"
                   style="fill:#000000;fill-opacity:1;fill-rule:evenodd;stroke:#000000;stroke-width:1.03488505;stroke-linecap:butt;stroke-linejoin:miter;stroke-miterlimit:4;stroke-dasharray:none;stroke-opacity:1"
                   d="m -34.894,-121.19 4.138,-4.139 -14.489,4.138 14.49,4.14 -4.139,-4.139 z" /></g><g
                 id="g260"
                 transform="matrix(1,0,0,-1,0,631.84241)"><path
                   inkscape:connector-curvature="0"
                   id="path262"
                   style="fill:none;stroke:#0000ff;stroke-width:1.36000001;stroke-linecap:butt;stroke-linejoin:miter;stroke-miterlimit:4;stroke-dasharray:16.32, 16.32;stroke-dashoffset:0;stroke-opacity:1"
                   d="m 431.5,260.613 -44.707,58.043" /></g><g
                 id="g264"
                 transform="matrix(-0.77027,-1,-1,0.77027,0,631.84241)"><path
                   inkscape:connector-curvature="0"
                   id="path266"
                   style="fill:#000000;fill-opacity:1;fill-rule:evenodd;stroke:#000000;stroke-width:1.07742703;stroke-linecap:butt;stroke-linejoin:miter;stroke-miterlimit:4;stroke-dasharray:none;stroke-opacity:1"
                   d="m -34.262,-396.812 4.31,-4.309 -15.085,4.312 15.085,4.31 -4.31,-4.313 z" /></g><g
                 id="g268"
                 transform="matrix(1,0,0,-1,0,631.84241)"><path
                   inkscape:connector-curvature="0"
                   id="path270"
                   style="fill:none;stroke:#000000;stroke-width:1.36000001;stroke-linecap:butt;stroke-linejoin:miter;stroke-miterlimit:4;stroke-dasharray:16.32, 16.32;stroke-dashoffset:0;stroke-opacity:1"
                   d="m 372.109,348.062 -20.785,75.149" /></g><g
                 id="g272"
                 transform="matrix(-0.276596,-1,-1,0.276596,0,631.84241)"><path
                   inkscape:connector-curvature="0"
                   id="path274"
                   style="fill:#000000;fill-opacity:1;fill-rule:evenodd;stroke:#000000;stroke-width:1.31078303;stroke-linecap:butt;stroke-linejoin:miter;stroke-miterlimit:4;stroke-dasharray:none;stroke-opacity:1"
                   d="m 240.826,-435.096 5.242,-5.243 -18.351,5.244 18.352,5.24 -5.243,-5.241 z" /></g><g
                 id="g276"
                 transform="matrix(1,0,0,-1,0,631.84241)"><path
                   inkscape:connector-curvature="0"
                   id="path278"
                   style="fill:none;stroke:#0000ff;stroke-width:1.36000001;stroke-linecap:butt;stroke-linejoin:miter;stroke-miterlimit:4;stroke-dasharray:16.32, 16.32;stroke-dashoffset:0;stroke-opacity:1"
                   d="m 392,338.445 88.008,37.239" /></g><g
                 id="g280"
                 transform="matrix(1,-0.423077,-0.423077,-1,0,631.84241)"><path
                   inkscape:connector-curvature="0"
                   id="path282"
                   style="fill:#000000;fill-opacity:1;fill-rule:evenodd;stroke:#000000;stroke-width:1.25251496;stroke-linecap:butt;stroke-linejoin:miter;stroke-miterlimit:4;stroke-dasharray:none;stroke-opacity:1"
                   d="m 466.461,146.397 5.009,-5.01 -17.534,5.008 17.535,5.012 -5.01,-5.01 z" /></g><g
                 id="g284"
                 transform="matrix(1,0,0,-1,0,631.84241)"><path
                   inkscape:connector-curvature="0"
                   id="path286"
                   style="fill:none;stroke:#000000;stroke-width:1.36000001;stroke-linecap:butt;stroke-linejoin:miter;stroke-miterlimit:4;stroke-dasharray:16.32, 16.32;stroke-dashoffset:0;stroke-opacity:1"
                   d="m 509.363,372.918 81.852,-54.566" /></g><g
                 id="g288"
                 transform="matrix(1,0.666667,0.666667,-1,0,631.84241)"><path
                   inkscape:connector-curvature="0"
                   id="path290"
                   style="fill:#000000;fill-opacity:1;fill-rule:evenodd;stroke:#000000;stroke-width:1.13158906;stroke-linecap:butt;stroke-linejoin:miter;stroke-miterlimit:4;stroke-dasharray:none;stroke-opacity:1"
                   d="m 191.836,493.266 4.525,-4.527 -15.841,4.526 15.842,4.526 -4.526,-4.525 z" /></g><g
                 id="g292"
                 transform="matrix(1,0,0,-1,0,631.84241)"><path
                   inkscape:connector-curvature="0"
                   id="path294"
                   style="fill:none;stroke:#000000;stroke-width:1.36000001;stroke-linecap:butt;stroke-linejoin:miter;stroke-miterlimit:4;stroke-dasharray:16.32, 16.32;stroke-dashoffset:0;stroke-opacity:1"
                   d="m 606.859,325.719 4.575,44.402" /></g><g
                 id="g296"
                 transform="matrix(0.102941,-1,-1,-0.102941,0,631.84241)"><path
                   inkscape:connector-curvature="0"
                   id="path298"
                   style="fill:#000000;fill-opacity:1;fill-rule:evenodd;stroke:#000000;stroke-width:1.35285103;stroke-linecap:butt;stroke-linejoin:miter;stroke-miterlimit:4;stroke-dasharray:none;stroke-opacity:1"
                   d="m 397.651,-567.319 5.408,-5.412 -18.94,5.413 18.943,5.411 -5.411,-5.412 z" /></g><g
                 id="g300"
                 transform="matrix(1,0,0,-1,0,631.84241)"><path
                   inkscape:connector-curvature="0"
                   id="path302"
                   style="fill:none;stroke:#0000ff;stroke-width:1.36000001;stroke-linecap:butt;stroke-linejoin:miter;stroke-miterlimit:4;stroke-dasharray:16.32, 16.32;stroke-dashoffset:0;stroke-opacity:1"
                   d="m 491.891,398.574 -26.059,120.41" /></g><g
                 id="g304"
                 transform="matrix(-0.216418,-1,-1,0.216418,0,631.84241)"><path
                   inkscape:connector-curvature="0"
                   id="path306"
                   style="fill:#000000;fill-opacity:1;fill-rule:evenodd;stroke:#000000;stroke-width:1.32922804;stroke-linecap:butt;stroke-linejoin:miter;stroke-miterlimit:4;stroke-dasharray:none;stroke-opacity:1"
                   d="m 292.344,-552.28 5.318,-5.319 -18.611,5.317 18.607,5.317 -5.314,-5.315 z" /></g><g
                 id="g308"
                 transform="matrix(1,0,0,-1,0,631.84241)"><path
                   inkscape:connector-curvature="0"
                   id="path310"
                   style="fill:none;stroke:#0000ff;stroke-width:1.36000001;stroke-linecap:butt;stroke-linejoin:miter;stroke-miterlimit:4;stroke-dasharray:16.32, 16.32;stroke-dashoffset:0;stroke-opacity:1"
                   d="m 479.031,535.527 75.086,0.789" /></g><g
                 id="g312"
                 transform="matrix(1,-0.0105262,-0.0105262,-1,0,631.84241)"><path
                   inkscape:connector-curvature="0"
                   id="path314"
                   style="fill:#000000;fill-opacity:1;fill-rule:evenodd;stroke:#000000;stroke-width:1.35992503;stroke-linecap:butt;stroke-linejoin:miter;stroke-miterlimit:4;stroke-dasharray:none;stroke-opacity:1"
                   d="m 498.212,530.424 5.443,-5.44 -19.04,5.442 19.037,5.44 -5.44,-5.442 z" /></g></g></g></g></g></g></g></svg>