<!-- Created with Inkscape (http://www.inkscape.org/) -->
<svg id="svg2" xmlns:rdf="http://www.w3.org/1999/02/22-rdf-syntax-ns#" xmlns="http://www.w3.org/2000/svg" xml:space="preserve" height="413.75" width="699.52" version="1.1" xmlns:cc="http://creativecommons.org/ns#" xmlns:xlink="http://www.w3.org/1999/xlink" xmlns:dc="http://purl.org/dc/elements/1.1/"><metadata id="metadata8"><rdf:RDF><cc:Work rdf:about=""><dc:format>image/svg+xml</dc:format><dc:type rdf:resource="http://purl.org/dc/dcmitype/StillImage"/><dc:title/></cc:Work></rdf:RDF></metadata><defs id="defs6"><clipPath id="clipPath4178" clipPathUnits="userSpaceOnUse"><path id="path4180" clip-rule="evenodd" d="M0.000010729,0,720,0v540h-720v-540z"/></clipPath><clipPath id="clipPath4154" clipPathUnits="userSpaceOnUse"><path id="path4156" clip-rule="evenodd" d="M0.000010729,0,720,0v540h-720v-540z"/></clipPath><clipPath id="clipPath4142" clipPathUnits="userSpaceOnUse"><path id="path4144" clip-rule="evenodd" d="M0.000010729,0,720,0v540h-720v-540z"/></clipPath><clipPath id="clipPath4130" clipPathUnits="userSpaceOnUse"><path id="path4132" clip-rule="evenodd" d="M0.000010729,0,720,0v540h-720v-540z"/></clipPath><clipPath id="clipPath4118" clipPathUnits="userSpaceOnUse"><path id="path4120" clip-rule="evenodd" d="M0.000010729,0,720,0v540h-720v-540z"/></clipPath><clipPath id="clipPath4106" clipPathUnits="userSpaceOnUse"><path id="path4108" clip-rule="evenodd" d="M0.000010729,0,720,0v540h-720v-540z"/></clipPath><clipPath id="clipPath4094" clipPathUnits="userSpaceOnUse"><path id="path4096" clip-rule="evenodd" d="M0.000010729,0,720,0v540h-720v-540z"/></clipPath><clipPath id="clipPath4082" clipPathUnits="userSpaceOnUse"><path id="path4084" clip-rule="evenodd" d="M0.000010729,0,720,0v540h-720v-540z"/></clipPath><clipPath id="clipPath4070" clipPathUnits="userSpaceOnUse"><path id="path4072" clip-rule="evenodd" d="M0.000010729,0,720,0v540h-720v-540z"/></clipPath><clipPath id="clipPath4058" clipPathUnits="userSpaceOnUse"><path id="path4060" clip-rule="evenodd" d="M0.000010729,0,720,0v540h-720v-540z"/></clipPath><clipPath id="clipPath4046" clipPathUnits="userSpaceOnUse"><path id="path4048" clip-rule="evenodd" d="M0.000010729,0,720,0v540h-720v-540z"/></clipPath><clipPath id="clipPath4034" clipPathUnits="userSpaceOnUse"><path id="path4036" clip-rule="evenodd" d="M0.000010729,0,720,0v540h-720v-540z"/></clipPath><clipPath id="clipPath4022" clipPathUnits="userSpaceOnUse"><path id="path4024" clip-rule="evenodd" d="M0.000010729,0,720,0v540h-720v-540z"/></clipPath><clipPath id="clipPath4010" clipPathUnits="userSpaceOnUse"><path id="path4012" clip-rule="evenodd" d="M0.000010729,0,720,0v540h-720v-540z"/></clipPath><clipPath id="clipPath3990" clipPathUnits="userSpaceOnUse"><path id="path3992" clip-rule="evenodd" d="M0.000010729,0,720,0v540h-720v-540z"/></clipPath><clipPath id="clipPath3968" clipPathUnits="userSpaceOnUse"><path id="path3970" clip-rule="evenodd" d="M0.000010729,0,720,0v540h-720v-540z"/></clipPath><clipPath id="clipPath3946" clipPathUnits="userSpaceOnUse"><path id="path3948" clip-rule="evenodd" d="M0.000010729,0,720,0v540h-720v-540z"/></clipPath></defs><g id="g10" transform="matrix(1.25,0,0,-1.25,654.2762,628.33112)"><path id="path3938" d="m-328.6,333.91c0,13.98,41.45,25.32,92.58,25.32s92.58-11.34,92.58-25.32-41.45-25.32-92.58-25.32-92.58,11.34-92.58,25.32z" fill-rule="evenodd" fill="#FFF"/><path id="path3940" stroke-linejoin="round" d="m-328.6,333.91c0,13.98,41.45,25.32,92.58,25.32s92.58-11.34,92.58-25.32-41.45-25.32-92.58-25.32-92.58,11.34-92.58,25.32z" stroke="#009" stroke-linecap="butt" stroke-miterlimit="10" stroke-dasharray="none" stroke-width="1.55999994" fill="none"/><g id="g3942" transform="translate(-586.54273,82.934268)"><g id="g3944" clip-path="url(#clipPath3946)"><text id="text3950" transform="matrix(1,0,0,-1,288.41,252.05)"><tspan id="tspan3952" style="writing-mode:lr-tb;" font-weight="normal" fill-rule="nonzero" font-size="18px" font-variant="normal" y="0" x="0 14.004 26.01 35.009998 47.015999 60.012001 70.793999 75.348 86.489998 98.496002 110.502 122.508" font-family="Arial" fill="#000000">OBJECT TYPE:</tspan></text>
</g></g><path id="path3954" stroke-linejoin="round" d="m-271.54,324.97,71.04,0" stroke="#000" stroke-linecap="butt" stroke-miterlimit="10" stroke-dasharray="none" stroke-width="0.72000003" fill="none"/><path id="path3956" stroke-linejoin="round" d="m-270.58,320.41,71.04,0" stroke="#000" stroke-linecap="butt" stroke-miterlimit="10" stroke-dasharray="none" stroke-width="0.72000003" fill="none"/><path id="path3958" stroke-linejoin="round" d="m-269.5,315.97,70.92,0" stroke="#000" stroke-linecap="butt" stroke-miterlimit="10" stroke-dasharray="none" stroke-width="0.72000003" fill="none"/><path id="path3960" d="m-427.12,304.39c0,13.98,41.45,25.32,92.58,25.32s92.58-11.34,92.58-25.32-41.45-25.32-92.58-25.32-92.58,11.34-92.58,25.32z" fill-rule="evenodd" fill="#FFF"/><path id="path3962" stroke-linejoin="round" d="m-427.12,304.39c0,13.98,41.45,25.32,92.58,25.32s92.58-11.34,92.58-25.32-41.45-25.32-92.58-25.32-92.58,11.34-92.58,25.32z" stroke="#009" stroke-linecap="butt" stroke-miterlimit="10" stroke-dasharray="none" stroke-width="1.55999994" fill="none"/><g id="g3964" transform="translate(-586.54273,82.934268)"><g id="g3966" clip-path="url(#clipPath3968)"><text id="text3972" transform="matrix(1,0,0,-1,189.89,222.55)"><tspan id="tspan3974" style="writing-mode:lr-tb;" font-weight="normal" fill-rule="nonzero" font-size="18px" font-variant="normal" y="0" x="0 14.004 26.01 35.009998 47.015999 60.012001 70.793999 75.348 86.489998 98.496002 110.502 122.508" font-family="Arial" fill="#000000">OBJECT TYPE:</tspan></text>
</g></g><path id="path3976" stroke-linejoin="round" d="m-370.06,295.45,71.04,0" stroke="#000" stroke-linecap="butt" stroke-miterlimit="10" stroke-dasharray="none" stroke-width="0.72000003" fill="none"/><path id="path3978" stroke-linejoin="round" d="m-368.98,290.89,70.92,0" stroke="#000" stroke-linecap="butt" stroke-miterlimit="10" stroke-dasharray="none" stroke-width="0.72000003" fill="none"/><path id="path3980" stroke-linejoin="round" d="m-368.02,286.45,71.04,0" stroke="#000" stroke-linecap="butt" stroke-miterlimit="10" stroke-dasharray="none" stroke-width="0.72000003" fill="none"/><path id="path3982" d="m-307.6,295.93c0,13.95,41.45,25.26,92.58,25.26s92.58-11.31,92.58-25.26-41.45-25.26-92.58-25.26-92.58,11.31-92.58,25.26z" fill-rule="evenodd" fill="#FFF"/><path id="path3984" stroke-linejoin="round" d="m-307.6,295.93c0,13.95,41.45,25.26,92.58,25.26s92.58-11.31,92.58-25.26-41.45-25.26-92.58-25.26-92.58,11.31-92.58,25.26z" stroke="#009" stroke-linecap="butt" stroke-miterlimit="10" stroke-dasharray="none" stroke-width="1.55999994" fill="none"/><g id="g3986" transform="translate(-586.54273,82.934268)"><g id="g3988" clip-path="url(#clipPath3990)"><text id="text3994" transform="matrix(1,0,0,-1,309.41,214.06)"><tspan id="tspan3996" style="writing-mode:lr-tb;" font-weight="normal" fill-rule="nonzero" font-size="18px" font-variant="normal" y="0" x="0 14.04 26.046 35.046001 47.088001 60.084 70.902 75.456001 86.615997 98.622002 110.628 122.67" font-family="Arial" fill="#000000">OBJECT TYPE:</tspan></text>
</g></g><path id="path3998" stroke-linejoin="round" d="m-250.54,286.93,71.04,0" stroke="#000" stroke-linecap="butt" stroke-miterlimit="10" stroke-dasharray="none" stroke-width="0.72000003" fill="none"/><path id="path4000" stroke-linejoin="round" d="m-249.58,282.37,71.04,0" stroke="#000" stroke-linecap="butt" stroke-miterlimit="10" stroke-dasharray="none" stroke-width="0.72000003" fill="none"/><path id="path4002" stroke-linejoin="round" d="m-248.5,277.93,70.92,0" stroke="#000" stroke-linecap="butt" stroke-miterlimit="10" stroke-dasharray="none" stroke-width="0.72000003" fill="none"/><path id="path4004" stroke-linejoin="round" d="m-448.96,313.99c0,30.42,86.79,55.08,193.86,55.08s193.86-24.66,193.86-55.08-86.79-55.08-193.86-55.08-193.86,24.66-193.86,55.08z" stroke="#C00" stroke-linecap="butt" stroke-miterlimit="10" stroke-dasharray="none" stroke-width="1.55999994" fill="none"/><g id="g4006" transform="translate(-586.54273,82.934268)"><g id="g4008" clip-path="url(#clipPath4010)"><text id="text4014" transform="matrix(1,0,0,-1,355.01,117.77)"><tspan id="tspan4016" style="writing-mode:lr-tb;" font-weight="normal" fill-rule="nonzero" font-size="24px" font-variant="normal" y="0" x="0 13.344 26.688 32.015999 45.360001 57.360001 64.031998 76.031998 82.776001 94.776001 108.12 121.464 133.464 138.696 145.368 150.696 164.03999 177.384 184.15199 196.15199 201.48 214.752 221.56799 237.576 257.56799" font-family="Arial" fill="#000000">objects specified via SMI</tspan></text>
</g></g><g id="g4018" transform="translate(-586.54273,82.934268)"><g id="g4020" clip-path="url(#clipPath4022)"><text id="text4026" transform="matrix(1,0,0,-1,355.01,88.968)"><tspan id="tspan4028" style="writing-mode:lr-tb;" font-weight="normal" fill-rule="nonzero" font-size="24px" font-variant="normal" y="0" x="0 18.672001 34.68 46.68 62.688 79.919998" font-family="Arial" fill="#000099">OBJECT</tspan></text>
</g></g><g id="g4030" transform="translate(-586.54273,82.934268)"><g id="g4032" clip-path="url(#clipPath4034)"><text id="text4038" transform="matrix(1,0,0,-1,448.27,88.968)"><tspan id="tspan4040" style="writing-mode:lr-tb;" font-weight="normal" fill-rule="nonzero" font-size="24px" font-variant="normal" y="0" x="0" font-family="Arial" fill="#000099">-</tspan></text>
</g></g><g id="g4042" transform="translate(-586.54273,82.934268)"><g id="g4044" clip-path="url(#clipPath4046)"><text id="text4050" transform="matrix(1,0,0,-1,456.31,88.968)"><tspan id="tspan4052" style="writing-mode:lr-tb;" font-weight="normal" fill-rule="nonzero" font-size="24px" font-variant="normal" y="0" x="0 14.664 30.672001" font-family="Arial" fill="#000099">TYP</tspan></text>
</g></g><g id="g4054" transform="translate(-586.54273,82.934268)"><g id="g4056" clip-path="url(#clipPath4058)"><text id="text4062" transform="matrix(1,0,0,-1,502.87,88.968)"><tspan id="tspan4064" style="writing-mode:lr-tb;" font-weight="normal" fill-rule="nonzero" font-size="24px" font-variant="normal" y="0" x="0" font-family="Arial" fill="#3333cc">E</tspan></text>
</g></g><g id="g4066" transform="translate(-586.54273,82.934268)"><g id="g4068" clip-path="url(#clipPath4070)"><text id="text4074" transform="matrix(1,0,0,-1,525.55,88.968)"><tspan id="tspan4076" style="writing-mode:lr-tb;" font-weight="normal" fill-rule="nonzero" font-size="24px" font-variant="normal" y="0" x="0 12 25.344 38.688 50.688 57.360001 65.351997 78.695999 90.695999" font-family="Arial" fill="#000000">construct</tspan></text>
</g></g><g id="g4078" transform="translate(-586.54273,82.934268)"><g id="g4080" clip-path="url(#clipPath4082)"><text id="text4086" transform="matrix(1,0,0,-1,152.26,402.34)"><tspan id="tspan4088" style="writing-mode:lr-tb;" font-weight="normal" fill-rule="nonzero" font-size="24px" font-variant="normal" y="0" x="0 19.992001 26.736 42.743999 49.175999 69.167999 82.512001 95.856003 109.2 114.528 127.776 134.71201 146.71201 160.056 173.39999 185.39999 190.632 197.304 202.632 215.976 229.32001 236.20799 248.20799 253.536 266.80801 273.48001 289.48801 309.48001 316.224" font-family="Arial" fill="#000000">MIB module specified via SMI</tspan></text>
</g></g><g id="g4090" transform="translate(-586.54273,82.934268)"><g id="g4092" clip-path="url(#clipPath4094)"><text id="text4098" transform="matrix(1,0,0,-1,200.5,373.54)"><tspan id="tspan4100" style="writing-mode:lr-tb;" font-weight="normal" fill-rule="nonzero" font-size="24px" font-variant="normal" y="0" x="0 19.992001 38.736 56.063999 73.295998 86.639999" font-family="Arial" fill="#cc0000">MODULE</tspan></text>
</g></g><g id="g4102" transform="translate(-586.54273,82.934268)"><g id="g4104" clip-path="url(#clipPath4106)"><text id="text4110" transform="matrix(1,0,0,-1,303.12,373.54)"><tspan id="tspan4112" style="writing-mode:lr-tb;" font-weight="normal" fill-rule="nonzero" font-size="24px" font-variant="normal" y="0" x="0" font-family="Arial" fill="#cc0000">-</tspan></text>
</g></g><g id="g4114" transform="translate(-586.54273,82.934268)"><g id="g4116" clip-path="url(#clipPath4118)"><text id="text4122" transform="matrix(1,0,0,-1,311.16,373.54)"><tspan id="tspan4124" style="writing-mode:lr-tb;" font-weight="normal" fill-rule="nonzero" font-size="24px" font-variant="normal" y="0" x="0 6.6719999 24 40.007999 57.240002 71.903999 78.575996 93.239998" font-family="Arial" fill="#cc0000">IDENTITY</tspan></text>
</g></g><g id="g4126" transform="translate(-586.54273,82.934268)"><g id="g4128" clip-path="url(#clipPath4130)"><text id="text4134" transform="matrix(1,0,0,-1,61.632,344.74)"><tspan id="tspan4136" style="writing-mode:lr-tb;" font-weight="normal" fill-rule="nonzero" font-size="24.02400017px" font-variant="normal" y="0" x="0 7.9999919 21.357336 34.71468 48.072025 54.750694 66.762695 73.441368 86.798714 100.08398 113.44133 126.7266 134.72659 148.08394 153.41727 165.42926 178.69051 192.04785 198.94275 218.95474 225.63341 241.65741 253.66942 260.34808 266.85858 286.87057 300.22794 308.22791 321.58527 328.16785 340.17984 353.53717 366.79843 380.15576 393.44104" font-family="Arial" fill="#000000">(100 standardized MIBs, more vendor</tspan></text>
</g></g><g id="g4138" transform="translate(-586.54273,82.934268)"><g id="g4140" clip-path="url(#clipPath4142)"><text id="text4146" transform="matrix(1,0,0,-1,463.22,344.74)"><tspan id="tspan4148" style="writing-mode:lr-tb;" font-weight="normal" fill-rule="nonzero" font-size="24.02400017px" font-variant="normal" y="0" x="0" font-family="Arial" fill="#000000">-</tspan></text>
</g></g><g id="g4150" transform="translate(-586.54273,82.934268)"><g id="g4152" clip-path="url(#clipPath4154)"><text id="text4158" transform="matrix(1,0,0,-1,471.26,344.74)"><tspan id="tspan4160" style="writing-mode:lr-tb;" font-weight="normal" fill-rule="nonzero" font-size="24.02400017px" font-variant="normal" y="0" x="0 12.012 25.369345 38.630592 50.642593 55.975922 62.654591 67.915848 79.927849" font-family="Arial" fill="#000000">specific)</tspan></text>
</g></g><path id="path4162" d="m-390.23,451.8,12.85-87.36-2.26-0.34-12.85,87.36,2.26,0.34zm14.94-85.9-2.39-7.27-4.38,6.27,6.77,1z" fill-rule="nonzero" fill="#F00"/><path id="path4164" d="m-274.82,190.58-54.81,78.6,1.87,1.31,54.82-78.61-1.88-1.3zm-56.03,76.36-1.11,7.57,6.72-3.65-5.61-3.92z" fill-rule="nonzero" fill="#009"/><path id="path4166" d="m-272.02,191.34,0.68,97.98-2.28,0.02-0.68-97.98,2.28-0.02zm2.95,96.83-3.37,6.86-3.47-6.82,6.84-0.04z" fill-rule="nonzero" fill="#009"/><path id="path4168" d="m-275.36,189.95-25.29,142.83,2.25,0.4,25.28-142.83-2.24-0.4zm-27.34,141.31,2.18,7.33,4.56-6.14-6.74-1.19z" fill-rule="nonzero" fill="#009"/><path id="path4170" stroke-linejoin="round" d="m-274.6,190.87,41.52-9.84" stroke="#009" stroke-linecap="butt" stroke-miterlimit="10" stroke-dasharray="none" stroke-width="2.27999997" fill="none"/><path id="path4172" d="m-450.94,338.53,108.72,0,0,23.28-108.72,0,0-23.28z" fill-rule="evenodd" fill="#FFF"/><g id="g4174" transform="translate(-586.54273,82.934268)"><g id="g4176" clip-path="url(#clipPath4178)"><text id="text4182" transform="matrix(1,0,0,-1,140.26,257.18)"><tspan id="tspan4184" style="writing-mode:lr-tb;" font-weight="normal" fill-rule="nonzero" font-size="24px" font-variant="normal" y="0" x="0 19.992001 38.736 56.063999 73.295998 86.639999" font-family="Arial" fill="#cc0000">MODULE</tspan></text>
</g></g></g></svg>
