<!-- Created with Inkscape (http://www.inkscape.org/) -->
<svg id="svg2" xmlns:rdf="http://www.w3.org/1999/02/22-rdf-syntax-ns#" xmlns="http://www.w3.org/2000/svg" xml:space="preserve" height="386.25" width="688.05" version="1.1" xmlns:cc="http://creativecommons.org/ns#" xmlns:xlink="http://www.w3.org/1999/xlink" xmlns:dc="http://purl.org/dc/elements/1.1/"><metadata id="metadata8"><rdf:RDF><cc:Work rdf:about=""><dc:format>image/svg+xml</dc:format><dc:type rdf:resource="http://purl.org/dc/dcmitype/StillImage"/><dc:title/></cc:Work></rdf:RDF></metadata><defs id="defs6"><clipPath id="clipPath8425" clipPathUnits="userSpaceOnUse"><path id="path8427" clip-rule="evenodd" d="M0.000010729,0,720,0v540h-720v-540z"/></clipPath><clipPath id="clipPath8409" clipPathUnits="userSpaceOnUse"><path id="path8411" clip-rule="evenodd" d="M0.000010729,0,720,0v540h-720v-540z"/></clipPath><clipPath id="clipPath8395" clipPathUnits="userSpaceOnUse"><path id="path8397" clip-rule="evenodd" d="M0.000010729,0,720,0v540h-720v-540z"/></clipPath><clipPath id="clipPath8381" clipPathUnits="userSpaceOnUse"><path id="path8383" clip-rule="evenodd" d="M0.000010729,0,720,0v540h-720v-540z"/></clipPath><clipPath id="clipPath8367" clipPathUnits="userSpaceOnUse"><path id="path8369" clip-rule="evenodd" d="M0.000010729,0,720,0v540h-720v-540z"/></clipPath><clipPath id="clipPath8345" clipPathUnits="userSpaceOnUse"><path id="path8347" clip-rule="evenodd" d="M0.000010729,0,720,0v540h-720v-540z"/></clipPath><clipPath id="clipPath8333" clipPathUnits="userSpaceOnUse"><path id="path8335" clip-rule="evenodd" d="M0.000010729,0,720,0v540h-720v-540z"/></clipPath><clipPath id="clipPath8321" clipPathUnits="userSpaceOnUse"><path id="path8323" clip-rule="evenodd" d="M0.000010729,0,720,0v540h-720v-540z"/></clipPath><clipPath id="clipPath8309" clipPathUnits="userSpaceOnUse"><path id="path8311" clip-rule="evenodd" d="M0.000010729,0,720,0v540h-720v-540z"/></clipPath><clipPath id="clipPath8297" clipPathUnits="userSpaceOnUse"><path id="path8299" clip-rule="evenodd" d="M0.000010729,0,720,0v540h-720v-540z"/></clipPath><clipPath id="clipPath8285" clipPathUnits="userSpaceOnUse"><path id="path8287" clip-rule="evenodd" d="M0.000010729,0,720,0v540h-720v-540z"/></clipPath><clipPath id="clipPath8273" clipPathUnits="userSpaceOnUse"><path id="path8275" clip-rule="evenodd" d="M0.000010729,0,720,0v540h-720v-540z"/></clipPath><clipPath id="clipPath8261" clipPathUnits="userSpaceOnUse"><path id="path8263" clip-rule="evenodd" d="M0.000010729,0,720,0v540h-720v-540z"/></clipPath><clipPath id="clipPath8249" clipPathUnits="userSpaceOnUse"><path id="path8251" clip-rule="evenodd" d="M0.000010729,0,720,0v540h-720v-540z"/></clipPath><clipPath id="clipPath8237" clipPathUnits="userSpaceOnUse"><path id="path8239" clip-rule="evenodd" d="M0.000010729,0,720,0v540h-720v-540z"/></clipPath><clipPath id="clipPath8225" clipPathUnits="userSpaceOnUse"><path id="path8227" clip-rule="evenodd" d="M0.000010729,0,720,0v540h-720v-540z"/></clipPath><clipPath id="clipPath8213" clipPathUnits="userSpaceOnUse"><path id="path8215" clip-rule="evenodd" d="M0.000010729,0,720,0v540h-720v-540z"/></clipPath><clipPath id="clipPath8201" clipPathUnits="userSpaceOnUse"><path id="path8203" clip-rule="evenodd" d="M0.000010729,0,720,0v540h-720v-540z"/></clipPath><clipPath id="clipPath8189" clipPathUnits="userSpaceOnUse"><path id="path8191" clip-rule="evenodd" d="M0.000010729,0,720,0v540h-720v-540z"/></clipPath><clipPath id="clipPath8163" clipPathUnits="userSpaceOnUse"><path id="path8165" clip-rule="evenodd" d="M0.000010729,0,720,0v540h-720v-540z"/></clipPath><clipPath id="clipPath8151" clipPathUnits="userSpaceOnUse"><path id="path8153" clip-rule="evenodd" d="M0.000010729,0,720,0v540h-720v-540z"/></clipPath><clipPath id="clipPath8139" clipPathUnits="userSpaceOnUse"><path id="path8141" clip-rule="evenodd" d="M0.000010729,0,720,0v540h-720v-540z"/></clipPath><clipPath id="clipPath8127" clipPathUnits="userSpaceOnUse"><path id="path8129" clip-rule="evenodd" d="M0.000010729,0,720,0v540h-720v-540z"/></clipPath><clipPath id="clipPath8109" clipPathUnits="userSpaceOnUse"><path id="path8111" clip-rule="evenodd" d="M0.000010729,0,720,0v540h-720v-540z"/></clipPath><clipPath id="clipPath8097" clipPathUnits="userSpaceOnUse"><path id="path8099" clip-rule="evenodd" d="M0.000010729,0,720,0v540h-720v-540z"/></clipPath><clipPath id="clipPath8085" clipPathUnits="userSpaceOnUse"><path id="path8087" clip-rule="evenodd" d="M0.000010729,0,720,0v540h-720v-540z"/></clipPath><clipPath id="clipPath8073" clipPathUnits="userSpaceOnUse"><path id="path8075" clip-rule="evenodd" d="M0.000010729,0,720,0v540h-720v-540z"/></clipPath><clipPath id="clipPath8061" clipPathUnits="userSpaceOnUse"><path id="path8063" clip-rule="evenodd" d="M0.000010729,0,720,0v540h-720v-540z"/></clipPath><clipPath id="clipPath8049" clipPathUnits="userSpaceOnUse"><path id="path8051" clip-rule="evenodd" d="M0.000010729,0,720,0v540h-720v-540z"/></clipPath><clipPath id="clipPath8037" clipPathUnits="userSpaceOnUse"><path id="path8039" clip-rule="evenodd" d="M0.000010729,0,720,0v540h-720v-540z"/></clipPath><clipPath id="clipPath8025" clipPathUnits="userSpaceOnUse"><path id="path8027" clip-rule="evenodd" d="M0.000010729,0,720,0v540h-720v-540z"/></clipPath><clipPath id="clipPath8013" clipPathUnits="userSpaceOnUse"><path id="path8015" clip-rule="evenodd" d="M0.000010729,0,720,0v540h-720v-540z"/></clipPath><clipPath id="clipPath8001" clipPathUnits="userSpaceOnUse"><path id="path8003" clip-rule="evenodd" d="M0.000010729,0,720,0v540h-720v-540z"/></clipPath><clipPath id="clipPath7989" clipPathUnits="userSpaceOnUse"><path id="path7991" clip-rule="evenodd" d="M0.000010729,0,720,0v540h-720v-540z"/></clipPath><clipPath id="clipPath7977" clipPathUnits="userSpaceOnUse"><path id="path7979" clip-rule="evenodd" d="M0.000010729,0,720,0v540h-720v-540z"/></clipPath><clipPath id="clipPath7965" clipPathUnits="userSpaceOnUse"><path id="path7967" clip-rule="evenodd" d="M0.000010729,0,720,0v540h-720v-540z"/></clipPath><clipPath id="clipPath7939" clipPathUnits="userSpaceOnUse"><path id="path7941" clip-rule="evenodd" d="M0.000010729,0,720,0v540h-720v-540z"/></clipPath><clipPath id="clipPath7927" clipPathUnits="userSpaceOnUse"><path id="path7929" clip-rule="evenodd" d="M0.000010729,0,720,0v540h-720v-540z"/></clipPath><clipPath id="clipPath7915" clipPathUnits="userSpaceOnUse"><path id="path7917" clip-rule="evenodd" d="M0.000010729,0,720,0v540h-720v-540z"/></clipPath><clipPath id="clipPath7903" clipPathUnits="userSpaceOnUse"><path id="path7905" clip-rule="evenodd" d="M0.000010729,0,720,0v540h-720v-540z"/></clipPath><clipPath id="clipPath7891" clipPathUnits="userSpaceOnUse"><path id="path7893" clip-rule="evenodd" d="M0.000010729,0,720,0v540h-720v-540z"/></clipPath><clipPath id="clipPath7879" clipPathUnits="userSpaceOnUse"><path id="path7881" clip-rule="evenodd" d="M0.000010729,0,720,0v540h-720v-540z"/></clipPath></defs><g id="g10" transform="matrix(1.25,0,0,-1.25,768.8284,617.67205)"><path id="path7869" d="m-611.81,382.78,546.84,0,0,79.08-546.84,0,0-79.08z" fill-rule="evenodd" fill="#063"/><path id="path7871" stroke-linejoin="round" d="m-611.81,382.78,546.84,0,0,79.08-546.84,0,0-79.08z" stroke="#FFF" stroke-linecap="butt" stroke-miterlimit="10" stroke-dasharray="none" stroke-width="0.72000003" fill="none"/><path id="path7873" stroke-linejoin="round" d="m-539.51,461.44,0-80.37" stroke="#FFF" stroke-linecap="butt" stroke-miterlimit="10" stroke-dasharray="none" stroke-width="2.03999996" fill="none"/><g id="g7875" transform="translate(-708.89396,86.137638)"><g id="g7877" clip-path="url(#clipPath7879)"><text id="text7883" transform="matrix(1,0,0,-1,614.14,334.85)"><tspan id="tspan7885" style="writing-mode:lr-tb;" font-weight="normal" fill-rule="nonzero" font-size="15.96000004px" font-style="italic" font-variant="normal" y="0" x="0 15.984" font-family="Arial" fill="#ffffff">….</tspan></text>
</g></g><g id="g7887" transform="translate(-708.89396,86.137638)"><g id="g7889" clip-path="url(#clipPath7891)"><text id="text7895" transform="matrix(1,0,0,-1,121.27,352.34)"><tspan id="tspan7897" style="writing-mode:lr-tb;" font-weight="normal" fill-rule="nonzero" font-size="18px" font-variant="normal" y="0" x="0 9.8459997 20.502001" font-family="Arial Narrow" fill="#ffffff">PDU</tspan></text>
</g></g><g id="g7899" transform="translate(-708.89396,86.137638)"><g id="g7901" clip-path="url(#clipPath7903)"><text id="text7907" transform="matrix(1,0,0,-1,122.95,330.74)"><tspan id="tspan7909" style="writing-mode:lr-tb;" font-weight="normal" fill-rule="nonzero" font-size="18.02400017px" font-variant="normal" y="0" x="0 4.1094718 11.499312 19.718256" font-family="Arial Narrow" fill="#ffffff">type</tspan></text>
</g></g><g id="g7911" transform="translate(-708.89396,86.137638)"><g id="g7913" clip-path="url(#clipPath7915)"><text id="text7919" transform="matrix(1,0,0,-1,121.39,309.12)"><tspan id="tspan7921" style="writing-mode:lr-tb;" font-weight="normal" fill-rule="nonzero" font-size="18px" font-variant="normal" y="0" x="0 4.9200001" font-family="Arial Narrow" fill="#ffffff">(0</tspan></text>
</g></g><g id="g7923" transform="translate(-708.89396,86.137638)"><g id="g7925" clip-path="url(#clipPath7927)"><text id="text7931" transform="matrix(1,0,0,-1,134.47,309.12)"><tspan id="tspan7933" style="writing-mode:lr-tb;" font-weight="normal" fill-rule="nonzero" font-size="18px" font-variant="normal" y="0" x="0" font-family="Arial Narrow" fill="#ffffff">-</tspan></text>
</g></g><g id="g7935" transform="translate(-708.89396,86.137638)"><g id="g7937" clip-path="url(#clipPath7939)"><text id="text7943" transform="matrix(1,0,0,-1,139.39,309.12)"><tspan id="tspan7945" style="writing-mode:lr-tb;" font-weight="normal" fill-rule="nonzero" font-size="18px" font-variant="normal" y="0" x="0 8.1599998" font-family="Arial Narrow" fill="#ffffff">3)</tspan></text>
</g></g><path id="path7947" stroke-linejoin="round" d="m-469.07,462.4,0-80.25" stroke="#FFF" stroke-linecap="butt" stroke-miterlimit="10" stroke-dasharray="none" stroke-width="2.03999996" fill="none"/><path id="path7949" stroke-linejoin="round" d="m-398.75,463.12,0-80.25" stroke="#FFF" stroke-linecap="butt" stroke-miterlimit="10" stroke-dasharray="none" stroke-width="2.03999996" fill="none"/><path id="path7951" stroke-linejoin="round" d="m-327.71,461.32,0-80.25" stroke="#FFF" stroke-linecap="butt" stroke-miterlimit="10" stroke-dasharray="none" stroke-width="2.03999996" fill="none"/><path id="path7953" stroke-linejoin="round" d="m-271.79,461.92,0-80.25" stroke="#FFF" stroke-linecap="butt" stroke-miterlimit="10" stroke-dasharray="none" stroke-width="2.03999996" fill="none"/><path id="path7955" stroke-linejoin="round" d="m-214.91,462.52,0-80.25" stroke="#FFF" stroke-linecap="butt" stroke-miterlimit="10" stroke-dasharray="none" stroke-width="2.03999996" fill="none"/><path id="path7957" stroke-linejoin="round" d="m-159.59,463.24,0-80.25" stroke="#FFF" stroke-linecap="butt" stroke-miterlimit="10" stroke-dasharray="none" stroke-width="2.03999996" fill="none"/><path id="path7959" stroke-linejoin="round" d="m-102.71,461.08,0-80.25" stroke="#FFF" stroke-linecap="butt" stroke-miterlimit="10" stroke-dasharray="none" stroke-width="2.03999996" fill="none"/><g id="g7961" transform="translate(-708.89396,86.137638)"><g id="g7963" clip-path="url(#clipPath7965)"><text id="text7969" transform="matrix(1,0,0,-1,177.14,340.7)"><tspan id="tspan7971" style="writing-mode:lr-tb;" font-weight="normal" fill-rule="nonzero" font-size="18px" font-variant="normal" y="0" x="0 10.656 18.864 27 35.208 43.326 50.742001" font-family="Arial Narrow" fill="#ffffff">Request</tspan></text>
</g></g><g id="g7973" transform="translate(-708.89396,86.137638)"><g id="g7975" clip-path="url(#clipPath7977)"><text id="text7981" transform="matrix(1,0,0,-1,197.18,319.1)"><tspan id="tspan7983" style="writing-mode:lr-tb;" font-weight="normal" fill-rule="nonzero" font-size="18px" font-variant="normal" y="0" x="0 4.0799999" font-family="Arial Narrow" fill="#ffffff">ID</tspan></text>
</g></g><g id="g7985" transform="translate(-708.89396,86.137638)"><g id="g7987" clip-path="url(#clipPath7989)"><text id="text7993" transform="matrix(1,0,0,-1,258.98,352.08)"><tspan id="tspan7995" style="writing-mode:lr-tb;" font-weight="normal" fill-rule="nonzero" font-size="18px" font-variant="normal" y="0" x="0 9.8459997 14.76 19.674 27.882" font-family="Arial Narrow" fill="#ffffff">Error</tspan></text>
</g></g><g id="g7997" transform="translate(-708.89396,86.137638)"><g id="g7999" clip-path="url(#clipPath8001)"><text id="text8005" transform="matrix(1,0,0,-1,254.54,330.48)"><tspan id="tspan8007" style="writing-mode:lr-tb;" font-weight="normal" fill-rule="nonzero" font-size="18px" font-variant="normal" y="0" x="0 9.8459997 13.95 22.086 26.190001 34.326" font-family="Arial Narrow" fill="#ffffff">Status</tspan></text>
</g></g><g id="g8009" transform="translate(-708.89396,86.137638)"><g id="g8011" clip-path="url(#clipPath8013)"><text id="text8017" transform="matrix(1,0,0,-1,259.82,308.88)"><tspan id="tspan8019" style="writing-mode:lr-tb;" font-weight="normal" fill-rule="nonzero" font-size="18px" font-variant="normal" y="0" x="0 4.9200001" font-family="Arial Narrow" fill="#ffffff">(0</tspan></text>
</g></g><g id="g8021" transform="translate(-708.89396,86.137638)"><g id="g8023" clip-path="url(#clipPath8025)"><text id="text8029" transform="matrix(1,0,0,-1,272.9,308.88)"><tspan id="tspan8031" style="writing-mode:lr-tb;" font-weight="normal" fill-rule="nonzero" font-size="18px" font-variant="normal" y="0" x="0" font-family="Arial Narrow" fill="#ffffff">-</tspan></text>
</g></g><g id="g8033" transform="translate(-708.89396,86.137638)"><g id="g8035" clip-path="url(#clipPath8037)"><text id="text8041" transform="matrix(1,0,0,-1,277.82,308.88)"><tspan id="tspan8043" style="writing-mode:lr-tb;" font-weight="normal" fill-rule="nonzero" font-size="18px" font-variant="normal" y="0" x="0 8.1599998" font-family="Arial Narrow" fill="#ffffff">5)</tspan></text>
</g></g><g id="g8045" transform="translate(-708.89396,86.137638)"><g id="g8047" clip-path="url(#clipPath8049)"><text id="text8053" transform="matrix(1,0,0,-1,329.47,340.46)"><tspan id="tspan8055" style="writing-mode:lr-tb;" font-weight="normal" fill-rule="nonzero" font-size="18px" font-variant="normal" y="0" x="0 9.8459997 14.76 19.674 27.882" font-family="Arial Narrow" fill="#ffffff">Error</tspan></text>
</g></g><g id="g8057" transform="translate(-708.89396,86.137638)"><g id="g8059" clip-path="url(#clipPath8061)"><text id="text8065" transform="matrix(1,0,0,-1,327.91,318.86)"><tspan id="tspan8067" style="writing-mode:lr-tb;" font-weight="normal" fill-rule="nonzero" font-size="18.02400017px" font-variant="normal" y="0" x="0 4.1094718 12.238296 20.403168 28.568041" font-family="Arial Narrow" fill="#ffffff">Index</tspan></text>
</g></g><g id="g8069" transform="translate(-708.89396,86.137638)"><g id="g8071" clip-path="url(#clipPath8073)"><text id="text8077" transform="matrix(1,0,0,-1,388.94,329.83)"><tspan id="tspan8079" style="writing-mode:lr-tb;" font-weight="normal" fill-rule="nonzero" font-size="18px" font-variant="normal" y="0" x="0 10.656 18.864 31.086" font-family="Arial Narrow" fill="#ffffff">Name</tspan></text>
</g></g><g id="g8081" transform="translate(-708.89396,86.137638)"><g id="g8083" clip-path="url(#clipPath8085)"><text id="text8089" transform="matrix(1,0,0,-1,447.19,329.09)"><tspan id="tspan8091" style="writing-mode:lr-tb;" font-weight="normal" fill-rule="nonzero" font-size="18px" font-variant="normal" y="0" x="0 8.7659998 16.974001 20.16 28.368" font-family="Arial Narrow" fill="#ffffff">Value</tspan></text>
</g></g><g id="g8093" transform="translate(-708.89396,86.137638)"><g id="g8095" clip-path="url(#clipPath8097)"><text id="text8101" transform="matrix(1,0,0,-1,501.96,329.09)"><tspan id="tspan8103" style="writing-mode:lr-tb;" font-weight="normal" fill-rule="nonzero" font-size="18px" font-variant="normal" y="0" x="0 10.656 18.864 31.086" font-family="Arial Narrow" fill="#ffffff">Name</tspan></text>
</g></g><g id="g8105" transform="translate(-708.89396,86.137638)"><g id="g8107" clip-path="url(#clipPath8109)"><text id="text8113" transform="matrix(1,0,0,-1,559.7,328.34)"><tspan id="tspan8115" style="writing-mode:lr-tb;" font-weight="normal" fill-rule="nonzero" font-size="18.02400017px" font-variant="normal" y="0" x="0 8.7596636 16.924536 20.204905 28.315704" font-family="Arial Narrow" fill="#ffffff">Value</tspan></text>
</g></g><path id="path8117" d="m-614.69,263.38,546.84,0,0,79.08-546.84,0,0-79.08z" fill-rule="evenodd" fill="#063"/><path id="path8119" stroke-linejoin="round" d="m-614.69,263.38,546.84,0,0,79.08-546.84,0,0-79.08z" stroke="#FFF" stroke-linecap="butt" stroke-miterlimit="10" stroke-dasharray="none" stroke-width="0.72000003" fill="none"/><path id="path8121" stroke-linejoin="round" d="m-542.27,341.92,0-80.25" stroke="#FFF" stroke-linecap="butt" stroke-miterlimit="10" stroke-dasharray="none" stroke-width="2.03999996" fill="none"/><g id="g8123" transform="translate(-708.89396,86.137638)"><g id="g8125" clip-path="url(#clipPath8127)"><text id="text8131" transform="matrix(1,0,0,-1,611.28,215.33)"><tspan id="tspan8133" style="writing-mode:lr-tb;" font-weight="normal" fill-rule="nonzero" font-size="15.96000004px" font-style="italic" font-variant="normal" y="0" x="0 15.96" font-family="Arial" fill="#ffffff">….</tspan></text>
</g></g><g id="g8135" transform="translate(-708.89396,86.137638)"><g id="g8137" clip-path="url(#clipPath8139)"><text id="text8143" transform="matrix(1,0,0,-1,118.39,232.8)"><tspan id="tspan8145" style="writing-mode:lr-tb;" font-weight="normal" fill-rule="nonzero" font-size="18px" font-variant="normal" y="0" x="0 9.8459997 20.502001" font-family="Arial Narrow" fill="#ffffff">PDU</tspan></text>
</g></g><g id="g8147" transform="translate(-708.89396,86.137638)"><g id="g8149" clip-path="url(#clipPath8151)"><text id="text8155" transform="matrix(1,0,0,-1,120.07,211.2)"><tspan id="tspan8157" style="writing-mode:lr-tb;" font-weight="normal" fill-rule="nonzero" font-size="18px" font-variant="normal" y="0" x="0 4.1040001 11.484 19.691999" font-family="Arial Narrow" fill="#ffffff">type</tspan></text>
</g></g><g id="g8159" transform="translate(-708.89396,86.137638)"><g id="g8161" clip-path="url(#clipPath8163)"><text id="text8167" transform="matrix(1,0,0,-1,129.91,189.6)"><tspan id="tspan8169" style="writing-mode:lr-tb;" font-weight="normal" fill-rule="nonzero" font-size="18px" font-variant="normal" y="0" x="0" font-family="Arial Narrow" fill="#ffffff">4</tspan></text>
</g></g><path id="path8171" stroke-linejoin="round" d="m-471.95,343.12,0-80.25" stroke="#FFF" stroke-linecap="butt" stroke-miterlimit="10" stroke-dasharray="none" stroke-width="2.03999996" fill="none"/><path id="path8173" stroke-linejoin="round" d="m-415.31,343.24,0-80.37" stroke="#FFF" stroke-linecap="butt" stroke-miterlimit="10" stroke-dasharray="none" stroke-width="2.03999996" fill="none"/><path id="path8175" stroke-linejoin="round" d="m-344.99,342.4,0-80.25" stroke="#FFF" stroke-linecap="butt" stroke-miterlimit="10" stroke-dasharray="none" stroke-width="2.03999996" fill="none"/><path id="path8177" stroke-linejoin="round" d="m-277.79,342.52,0-80.25" stroke="#FFF" stroke-linecap="butt" stroke-miterlimit="10" stroke-dasharray="none" stroke-width="2.03999996" fill="none"/><path id="path8179" stroke-linejoin="round" d="m-212.15,343.24,0-80.25" stroke="#FFF" stroke-linecap="butt" stroke-miterlimit="10" stroke-dasharray="none" stroke-width="2.03999996" fill="none"/><path id="path8181" stroke-linejoin="round" d="m-156.35,344.32,0-80.25" stroke="#FFF" stroke-linecap="butt" stroke-miterlimit="10" stroke-dasharray="none" stroke-width="2.03999996" fill="none"/><path id="path8183" stroke-linejoin="round" d="m-105.11,342.04,0-80.25" stroke="#FFF" stroke-linecap="butt" stroke-miterlimit="10" stroke-dasharray="none" stroke-width="2.03999996" fill="none"/><g id="g8185" transform="translate(-708.89396,86.137638)"><g id="g8187" clip-path="url(#clipPath8189)"><text id="text8193" transform="matrix(1,0,0,-1,171.65,212.59)"><tspan id="tspan8195" style="writing-mode:lr-tb;" font-weight="normal" fill-rule="nonzero" font-size="15.96000004px" font-variant="normal" y="0" x="0 8.7301197 16.07172 19.7106 26.988359 31.34544 38.623199 42.980282 45.83712 52.4286" font-family="Arial Narrow" fill="#ffffff">Enterprise</tspan></text>
</g></g><g id="g8197" transform="translate(-708.89396,86.137638)"><g id="g8199" clip-path="url(#clipPath8201)"><text id="text8205" transform="matrix(1,0,0,-1,247.15,220.44)"><tspan id="tspan8207" style="writing-mode:lr-tb;" font-weight="normal" fill-rule="nonzero" font-size="18.02400017px" font-variant="normal" y="0" x="0 9.859128 18.005976 26.170849 34.33572" font-family="Arial Narrow" fill="#ffffff">Agent</tspan></text>
</g></g><g id="g8209" transform="translate(-708.89396,86.137638)"><g id="g8211" clip-path="url(#clipPath8213)"><text id="text8217" transform="matrix(1,0,0,-1,250.87,198.82)"><tspan id="tspan8219" style="writing-mode:lr-tb;" font-weight="normal" fill-rule="nonzero" font-size="18px" font-variant="normal" y="0" x="0 9.8459997 18 26.208" font-family="Arial Narrow" fill="#ffffff">Addr</tspan></text>
</g></g><g id="g8221" transform="translate(-708.89396,86.137638)"><g id="g8223" clip-path="url(#clipPath8225)"><text id="text8229" transform="matrix(1,0,0,-1,312.38,231.19)"><tspan id="tspan8231" style="writing-mode:lr-tb;" font-weight="normal" fill-rule="nonzero" font-size="18px" font-variant="normal" y="0" x="0 8.5139999 13.428 21.636" font-family="Arial Narrow" fill="#ffffff">Trap</tspan></text>
</g></g><g id="g8233" transform="translate(-708.89396,86.137638)"><g id="g8235" clip-path="url(#clipPath8237)"><text id="text8241" transform="matrix(1,0,0,-1,311.3,209.57)"><tspan id="tspan8243" style="writing-mode:lr-tb;" font-weight="normal" fill-rule="nonzero" font-size="18px" font-variant="normal" y="0" x="0 8.1540003 15.57 23.778" font-family="Arial Narrow" fill="#ffffff">Type</tspan></text>
</g></g><g id="g8245" transform="translate(-708.89396,86.137638)"><g id="g8247" clip-path="url(#clipPath8249)"><text id="text8253" transform="matrix(1,0,0,-1,311.66,187.97)"><tspan id="tspan8255" style="writing-mode:lr-tb;" font-weight="normal" fill-rule="nonzero" font-size="18px" font-variant="normal" y="0" x="0 4.9200001" font-family="Arial Narrow" fill="#ffffff">(0</tspan></text>
</g></g><g id="g8257" transform="translate(-708.89396,86.137638)"><g id="g8259" clip-path="url(#clipPath8261)"><text id="text8265" transform="matrix(1,0,0,-1,324.74,187.97)"><tspan id="tspan8267" style="writing-mode:lr-tb;" font-weight="normal" fill-rule="nonzero" font-size="18px" font-variant="normal" y="0" x="0" font-family="Arial Narrow" fill="#ffffff">-</tspan></text>
</g></g><g id="g8269" transform="translate(-708.89396,86.137638)"><g id="g8271" clip-path="url(#clipPath8273)"><text id="text8277" transform="matrix(1,0,0,-1,329.66,187.97)"><tspan id="tspan8279" style="writing-mode:lr-tb;" font-weight="normal" fill-rule="nonzero" font-size="18px" font-variant="normal" y="0" x="0 8.1599998" font-family="Arial Narrow" fill="#ffffff">7)</tspan></text>
</g></g><g id="g8281" transform="translate(-708.89396,86.137638)"><g id="g8283" clip-path="url(#clipPath8285)"><text id="text8289" transform="matrix(1,0,0,-1,371.69,220.06)"><tspan id="tspan8291" style="writing-mode:lr-tb;" font-weight="normal" fill-rule="nonzero" font-size="18px" font-variant="normal" y="0" x="0 9.8459997 18 26.208 33.588001 36.863998 40.967999 44.153999" font-family="Arial Narrow" fill="#ffffff">Specific</tspan></text>
</g></g><g id="g8293" transform="translate(-708.89396,86.137638)"><g id="g8295" clip-path="url(#clipPath8297)"><text id="text8301" transform="matrix(1,0,0,-1,381.53,198.46)"><tspan id="tspan8303" style="writing-mode:lr-tb;" font-weight="normal" fill-rule="nonzero" font-size="18px" font-variant="normal" y="0" x="0 7.4159999 15.624 23.742001" font-family="Arial Narrow" fill="#ffffff">code</tspan></text>
</g></g><g id="g8305" transform="translate(-708.89396,86.137638)"><g id="g8307" clip-path="url(#clipPath8309)"><text id="text8313" transform="matrix(1,0,0,-1,448.03,219.31)"><tspan id="tspan8315" style="writing-mode:lr-tb;" font-weight="normal" fill-rule="nonzero" font-size="18px" font-variant="normal" y="0" x="0 8.6400003 11.916 24.120001" font-family="Arial Narrow" fill="#ffffff">Time</tspan></text>
</g></g><g id="g8317" transform="translate(-708.89396,86.137638)"><g id="g8319" clip-path="url(#clipPath8321)"><text id="text8325" transform="matrix(1,0,0,-1,444.07,197.71)"><tspan id="tspan8327" style="writing-mode:lr-tb;" font-weight="normal" fill-rule="nonzero" font-size="18.02400017px" font-variant="normal" y="0" x="0 7.3898401 11.499312 19.718256 31.920504" font-family="Arial Narrow" fill="#ffffff">stamp</tspan></text>
</g></g><g id="g8329" transform="translate(-708.89396,86.137638)"><g id="g8331" clip-path="url(#clipPath8333)"><text id="text8337" transform="matrix(1,0,0,-1,505.7,209.54)"><tspan id="tspan8339" style="writing-mode:lr-tb;" font-weight="normal" fill-rule="nonzero" font-size="18px" font-variant="normal" y="0" x="0 10.656 18.864 31.086" font-family="Arial Narrow" fill="#ffffff">Name</tspan></text>
</g></g><g id="g8341" transform="translate(-708.89396,86.137638)"><g id="g8343" clip-path="url(#clipPath8345)"><text id="text8349" transform="matrix(1,0,0,-1,559.34,208.8)"><tspan id="tspan8351" style="writing-mode:lr-tb;" font-weight="normal" fill-rule="nonzero" font-size="18px" font-variant="normal" y="0" x="0 8.7659998 16.974001 20.16 28.368" font-family="Arial Narrow" fill="#ffffff">Value</tspan></text>
</g></g><path id="path8353" d="m-534.77,251.26,315.78,0,0-2.52-315.78,0,0,2.52zm1.26-5.04-7.56,3.78,7.56,3.78,0-7.56zm313.25,7.56,7.56-3.78-7.56-3.78,0,7.56z" fill-rule="nonzero" fill="#C00"/><path id="path8355" d="m-205.61,251.5,130.52,0,0-2.52-130.52,0,0,2.52zm1.26-5.04-7.56,3.78,7.56,3.78,0-7.56zm128,7.56,7.56-3.78-7.56-3.78,0,7.56z" fill-rule="nonzero" fill="#C00"/><path id="path8357" d="m-535.13,479.98,200.78,0,0-2.52-200.78,0,0,2.52zm1.26-5.04-7.56,3.78,7.56,3.78,0-7.56zm198.25,7.56,7.56-3.78-7.56-3.78,0,7.56z" fill-rule="nonzero" fill="#C00"/><path id="path8359" d="m-322.37,478.66,248.03,0,0-2.52-248.03,0,0,2.52zm1.26-5.04-7.56,3.78,7.56,3.78,0-7.56zm245.5,7.56,7.56-3.78-7.56-3.78,0,7.56z" fill-rule="nonzero" fill="#C00"/><path id="path8361" d="m-496.61,464.74,134.76,0,0,29.16-134.76,0,0-29.16z" fill-rule="evenodd" fill="#FFF"/><g id="g8363" transform="translate(-708.89396,86.137638)"><g id="g8365" clip-path="url(#clipPath8367)"><text id="text8371" transform="matrix(1,0,0,-1,220.25,386.59)"><tspan id="tspan8373" style="writing-mode:lr-tb;" font-weight="normal" fill-rule="nonzero" font-size="18px" font-variant="normal" y="0" x="0 14.004 24.011999 29.016001 34.056 43.056 53.063999 58.068001 62.981998 72.989998 82.907997 92.916 102.834 112.842" font-family="Arial" fill="#000000">Get/set header</tspan></text>
</g></g><path id="path8375" d="m-283.73,464.98,169.8,0,0,29.16-169.8,0,0-29.16z" fill-rule="evenodd" fill="#FFF"/><g id="g8377" transform="translate(-708.89396,86.137638)"><g id="g8379" clip-path="url(#clipPath8381)"><text id="text8385" transform="matrix(1,0,0,-1,433.78,386.83)"><tspan id="tspan8387" style="writing-mode:lr-tb;" font-weight="normal" fill-rule="nonzero" font-size="18px" font-variant="normal" y="0" x="0 10.674 20.681999 26.676001 30.6 40.608002 50.526001 54.521999 64.440002 73.440002 78.695999 83.699997 93.708 98.622002 108.63 118.548 123.552 128.61 137.61 147.618" font-family="Arial" fill="#000000">Variables to get/set</tspan></text>
</g></g><path id="path8389" d="m-430.13,236.14,112.92,0,0,29.04-112.92,0,0-29.04z" fill-rule="evenodd" fill="#FFF"/><g id="g8391" transform="translate(-708.89396,86.137638)"><g id="g8393" clip-path="url(#clipPath8395)"><text id="text8399" transform="matrix(1,0,0,-1,286.66,157.78)"><tspan id="tspan8401" style="writing-mode:lr-tb;" font-weight="normal" fill-rule="nonzero" font-size="18px" font-variant="normal" y="0" x="0 10.44 16.434 26.441999 36.360001 41.273998 51.282001 61.200001 71.208 81.125999 91.134003" font-family="Arial" fill="#000000">Trap header</tspan></text>
</g></g><path id="path8403" d="m-190.97,236.86,85.56,0,0,29.16-85.56,0,0-29.16z" fill-rule="evenodd" fill="#FFF"/><g id="g8405" transform="translate(-708.89396,86.137638)"><g id="g8407" clip-path="url(#clipPath8409)"><text id="text8413" transform="matrix(1,0,0,-1,525.7,158.66)"><tspan id="tspan8415" style="writing-mode:lr-tb;" font-weight="normal" fill-rule="nonzero" font-size="18px" font-variant="normal" y="0" x="0 10.44 16.434 26.441999 36.360001 41.273998 45.27 55.188 60.192001" font-family="Arial" fill="#000000">Trap info</tspan></text>
</g></g><path id="path8417" d="m-607.37,200.74,533.28,0,0-2.52-533.28,0,0,2.52zm1.26-5.04-7.56,3.78,7.56,3.78,0-7.56zm530.75,7.56,7.56-3.78-7.56-3.78,0,7.56z" fill-rule="nonzero" fill="#C00"/><path id="path8419" d="m-399.05,185.14,110.16,0,0,29.16-110.16,0,0-29.16z" fill-rule="evenodd" fill="#FFF"/><g id="g8421" transform="translate(-708.89396,86.137638)"><g id="g8423" clip-path="url(#clipPath8425)"><text id="text8429" transform="matrix(1,0,0,-1,317.66,106.9)"><tspan id="tspan8431" style="writing-mode:lr-tb;" font-weight="normal" fill-rule="nonzero" font-size="18px" font-variant="normal" y="0" x="0 12.006 25.002001 39.995998 51.605999 56.610001 68.615997 81.612" font-family="Arial" fill="#000000">SNMP PDU</tspan></text>
</g></g></g></svg>
