<!-- Created with Inkscape (http://www.inkscape.org/) -->
<svg id="svg4697" xmlns:rdf="http://www.w3.org/1999/02/22-rdf-syntax-ns#" xmlns="http://www.w3.org/2000/svg" xml:space="preserve" height="462.29" width="343.46" version="1.1" xmlns:cc="http://creativecommons.org/ns#" xmlns:xlink="http://www.w3.org/1999/xlink" xmlns:dc="http://purl.org/dc/elements/1.1/"><metadata id="metadata4703"><rdf:RDF><cc:Work rdf:about=""><dc:format>image/svg+xml</dc:format><dc:type rdf:resource="http://purl.org/dc/dcmitype/StillImage"/><dc:title/></cc:Work></rdf:RDF></metadata><defs id="defs4701"><clipPath id="clipPath16018" clipPathUnits="userSpaceOnUse"><path id="path16020" clip-rule="evenodd" d="M0.000010729,0,720,0v540h-720v-540z"/></clipPath><clipPath id="clipPath16000" clipPathUnits="userSpaceOnUse"><path id="path16002" clip-rule="evenodd" d="M0.000010729,0,720,0v540h-720v-540z"/></clipPath><clipPath id="clipPath15988" clipPathUnits="userSpaceOnUse"><path id="path15990" clip-rule="evenodd" d="M0.000010729,0,720,0v540h-720v-540z"/></clipPath><clipPath id="clipPath15976" clipPathUnits="userSpaceOnUse"><path id="path15978" clip-rule="evenodd" d="M0.000010729,0,720,0v540h-720v-540z"/></clipPath><clipPath id="clipPath15964" clipPathUnits="userSpaceOnUse"><path id="path15966" clip-rule="evenodd" d="M0.000010729,0,720,0v540h-720v-540z"/></clipPath><clipPath id="clipPath15948" clipPathUnits="userSpaceOnUse"><path id="path15950" clip-rule="evenodd" d="M0.000010729,0,720,0v540h-720v-540z"/></clipPath><clipPath id="clipPath15932" clipPathUnits="userSpaceOnUse"><path id="path15934" clip-rule="evenodd" d="M0.000010729,0,720,0v540h-720v-540z"/></clipPath><clipPath id="clipPath15914" clipPathUnits="userSpaceOnUse"><path id="path15916" clip-rule="evenodd" d="M0.000010729,0,720,0v540h-720v-540z"/></clipPath><clipPath id="clipPath15896" clipPathUnits="userSpaceOnUse"><path id="path15898" clip-rule="evenodd" d="M0.000010729,0,720,0v540h-720v-540z"/></clipPath><clipPath id="clipPath15878" clipPathUnits="userSpaceOnUse"><path id="path15880" clip-rule="evenodd" d="M0.000010729,0,720,0v540h-720v-540z"/></clipPath><clipPath id="clipPath15860" clipPathUnits="userSpaceOnUse"><path id="path15862" clip-rule="evenodd" d="M0.000010729,0,720,0v540h-720v-540z"/></clipPath><clipPath id="clipPath15844" clipPathUnits="userSpaceOnUse"><path id="path15846" clip-rule="evenodd" d="M0.000010729,0,720,0v540h-720v-540z"/></clipPath><clipPath id="clipPath15828" clipPathUnits="userSpaceOnUse"><path id="path15830" clip-rule="evenodd" d="M0.000010729,0,720,0v540h-720v-540z"/></clipPath><clipPath id="clipPath15812" clipPathUnits="userSpaceOnUse"><path id="path15814" clip-rule="evenodd" d="M0.000010729,0,720,0v540h-720v-540z"/></clipPath><clipPath id="clipPath15800" clipPathUnits="userSpaceOnUse"><path id="path15802" clip-rule="evenodd" d="M0.000010729,0,720,0v540h-720v-540z"/></clipPath><clipPath id="clipPath15784" clipPathUnits="userSpaceOnUse"><path id="path15786" clip-rule="evenodd" d="M0.000010729,0,720,0v540h-720v-540z"/></clipPath></defs><g id="g4705" transform="matrix(1.25,0,0,-1.25,-293.42235,676.35153)"><path id="path15774" d="m234.74,406.56c0,74.29,61.33,134.52,136.98,134.52s136.98-60.23,136.98-134.52-61.33-134.52-136.98-134.52-136.98,60.23-136.98,134.52z" fill-rule="evenodd" fill-opacity="0.49020003" fill="#0C9"/><path id="path15776" d="m362.78,404.58c0,6.33,5.37,11.46,12,11.46s12-5.13,12-11.46-5.37-11.46-12-11.46-12,5.13-12,11.46z" fill-rule="evenodd" fill="#33C"/><path id="path15778" stroke-linejoin="round" d="m362.78,404.58c0,6.33,5.37,11.46,12,11.46s12-5.13,12-11.46-5.37-11.46-12-11.46-12,5.13-12,11.46z" stroke="#000" stroke-linecap="butt" stroke-miterlimit="10" stroke-dasharray="none" stroke-width="0.72000003" fill="none"/><g id="g15780" transform="translate(-161.26212,102.84122)"><g id="g15782" clip-path="url(#clipPath15784)"><text id="text15788" transform="matrix(1,0,0,-1,529.03,295.25)"><tspan id="tspan15790" style="writing-mode:lr-tb;" font-weight="bold" fill-rule="nonzero" font-size="15.96000004px" font-variant="normal" y="0" x="0" font-family="Arial" fill="#ffffff">M</tspan></text>
</g></g><path id="path15792" d="m387.74,405.62,115-0.11,0-1-115,0.11,0,1zm114,2.39,6-3.01-6-2.99,0,6z" fill-rule="nonzero" fill="#000"/><path id="path15794" d="m239.74,405.62,120.04-0.12,0-1-120.04,0.12,0,1zm1-3.51-6,3.01,6,2.99,0-6z" fill-rule="nonzero" fill="#000"/><g id="g15796" transform="translate(-161.26212,102.84122)"><g id="g15798" clip-path="url(#clipPath15800)"><text id="text15804" transform="matrix(1,0,0,-1,605.06,305.23)"><tspan id="tspan15806" style="writing-mode:lr-tb;" font-weight="normal" fill-rule="nonzero" font-size="15.96000004px" font-variant="normal" y="0" x="0 5.3146801 14.18844 23.062201 26.60532 35.47908 43.538879 47.975761 56.849522" font-family="Arial" fill="#000000">radius of</tspan></text>
</g></g><g id="g15808" transform="translate(-161.26212,102.84122)"><g id="g15810" clip-path="url(#clipPath15812)"><text id="text15816" transform="matrix(1,0,0,-1,605.06,286.03)"><tspan id="tspan15818" style="writing-mode:lr-tb;" font-weight="normal" fill-rule="nonzero" font-size="15.96000004px" font-variant="normal" y="0" x="0 8.0278797 16.90164 24.92952 33.80328 39.117962 47.991718 56.865479" font-family="Arial" fill="#000000">coverage</tspan></text>
</g></g><path id="path15820" d="m317.78,454.56c0,6.36,5.37,11.52,12,11.52s12-5.16,12-11.52-5.37-11.52-12-11.52-12,5.16-12,11.52z" fill-rule="evenodd" fill="#000"/><path id="path15822" stroke-linejoin="round" d="m317.78,454.56c0,6.36,5.37,11.52,12,11.52s12-5.16,12-11.52-5.37-11.52-12-11.52-12,5.16-12,11.52z" stroke="#000" stroke-linecap="butt" stroke-miterlimit="10" stroke-dasharray="none" stroke-width="0.72000003" fill="none"/><g id="g15824" transform="translate(-161.26212,102.84122)"><g id="g15826" clip-path="url(#clipPath15828)"><text id="text15832" transform="matrix(1,0,0,-1,485.04,345.24)"><tspan id="tspan15834" style="writing-mode:lr-tb;" font-weight="bold" fill-rule="nonzero" font-size="15.96000004px" font-variant="normal" y="0" x="0" font-family="Arial" fill="#ffffff">S</tspan></text>
</g></g><path id="path15836" d="m389.78,352.56c0,6.36,5.37,11.52,12,11.52s12-5.16,12-11.52-5.37-11.52-12-11.52-12,5.16-12,11.52z" fill-rule="evenodd" fill="#000"/><path id="path15838" stroke-linejoin="round" d="m389.78,352.56c0,6.36,5.37,11.52,12,11.52s12-5.16,12-11.52-5.37-11.52-12-11.52-12,5.16-12,11.52z" stroke="#000" stroke-linecap="butt" stroke-miterlimit="10" stroke-dasharray="none" stroke-width="0.72000003" fill="none"/><g id="g15840" transform="translate(-161.26212,102.84122)"><g id="g15842" clip-path="url(#clipPath15844)"><text id="text15848" transform="matrix(1,0,0,-1,557.04,243.22)"><tspan id="tspan15850" style="writing-mode:lr-tb;" font-weight="bold" fill-rule="nonzero" font-size="15.96000004px" font-variant="normal" y="0" x="0" font-family="Arial" fill="#ffffff">S</tspan></text>
</g></g><path id="path15852" d="m294.74,347.58c0,6.33,5.37,11.46,12,11.46s12-5.13,12-11.46-5.37-11.46-12-11.46-12,5.13-12,11.46z" fill-rule="evenodd" fill="#000"/><path id="path15854" stroke-linejoin="round" d="m294.74,347.58c0,6.33,5.37,11.46,12,11.46s12-5.13,12-11.46-5.37-11.46-12-11.46-12,5.13-12,11.46z" stroke="#000" stroke-linecap="butt" stroke-miterlimit="10" stroke-dasharray="none" stroke-width="0.72000003" fill="none"/><g id="g15856" transform="translate(-161.26212,102.84122)"><g id="g15858" clip-path="url(#clipPath15860)"><text id="text15864" transform="matrix(1,0,0,-1,462.02,238.22)"><tspan id="tspan15866" style="writing-mode:lr-tb;" font-weight="bold" fill-rule="nonzero" font-size="15.96000004px" font-variant="normal" y="0" x="0" font-family="Arial" fill="#ffffff">S</tspan></text>
</g></g><path id="path15868" d="m400.22,462.6c0,6.36,5.37,11.52,12,11.52s12-5.16,12-11.52-5.37-11.52-12-11.52-12,5.16-12,11.52z" fill-rule="evenodd" fill="#DDD"/><g id="g15870" transform="translate(-161.26212,102.84122)"><path id="path15872" stroke-linejoin="round" d="m561.48,359.76c0,6.36,5.37,11.52,12,11.52s12-5.16,12-11.52-5.37-11.52-12-11.52-12,5.16-12,11.52z" stroke-dashoffset="0" stroke="#808080" stroke-linecap="butt" stroke-miterlimit="10" stroke-dasharray="0.72, 0.72" stroke-width="0.72000003" fill="none"/></g><g id="g15874" transform="translate(-161.26212,102.84122)"><g id="g15876" clip-path="url(#clipPath15878)"><text id="text15882" transform="matrix(1,0,0,-1,569.04,353.26)"><tspan id="tspan15884" style="writing-mode:lr-tb;" font-weight="bold" fill-rule="nonzero" font-size="15.96000004px" font-variant="normal" y="0" x="0" font-family="Arial" fill="#969696">P</tspan></text>
</g></g><path id="path15886" d="m357.26,340.56c0,6.36,5.37,11.52,12,11.52s12-5.16,12-11.52-5.37-11.52-12-11.52-12,5.16-12,11.52z" fill-rule="evenodd" fill="#DDD"/><g id="g15888" transform="translate(-161.26212,102.84122)"><path id="path15890" stroke-linejoin="round" d="m518.52,237.72c0,6.36,5.37,11.52,12,11.52s12-5.16,12-11.52-5.37-11.52-12-11.52-12,5.16-12,11.52z" stroke-dashoffset="0" stroke="#808080" stroke-linecap="butt" stroke-miterlimit="10" stroke-dasharray="0.72, 0.72" stroke-width="0.72000003" fill="none"/></g><g id="g15892" transform="translate(-161.26212,102.84122)"><g id="g15894" clip-path="url(#clipPath15896)"><text id="text15900" transform="matrix(1,0,0,-1,526.03,231.22)"><tspan id="tspan15902" style="writing-mode:lr-tb;" font-weight="bold" fill-rule="nonzero" font-size="15.96000004px" font-variant="normal" y="0" x="0" font-family="Arial" fill="#969696">P</tspan></text>
</g></g><path id="path15904" d="m335.3,422.58c0,6.33,5.37,11.46,12,11.46s12-5.13,12-11.46-5.37-11.46-12-11.46-12,5.13-12,11.46z" fill-rule="evenodd" fill="#DDD"/><g id="g15906" transform="translate(-161.26212,102.84122)"><path id="path15908" stroke-linejoin="round" d="m496.56,319.74c0,6.33,5.37,11.46,12,11.46s12-5.13,12-11.46-5.37-11.46-12-11.46-12,5.13-12,11.46z" stroke-dashoffset="0" stroke="#808080" stroke-linecap="butt" stroke-miterlimit="10" stroke-dasharray="0.72, 0.72" stroke-width="0.72000003" fill="none"/></g><g id="g15910" transform="translate(-161.26212,102.84122)"><g id="g15912" clip-path="url(#clipPath15914)"><text id="text15918" transform="matrix(1,0,0,-1,504.05,313.25)"><tspan id="tspan15920" style="writing-mode:lr-tb;" font-weight="bold" fill-rule="nonzero" font-size="15.96000004px" font-variant="normal" y="0" x="0" font-family="Arial" fill="#969696">P</tspan></text>
</g></g><path id="path15922" d="m439.22,354.6c0,6.36,5.37,11.52,12,11.52s12-5.16,12-11.52-5.37-11.52-12-11.52-12,5.16-12,11.52z" fill-rule="evenodd" fill="#DDD"/><g id="g15924" transform="translate(-161.26212,102.84122)"><path id="path15926" stroke-linejoin="round" d="m600.48,251.76c0,6.36,5.37,11.52,12,11.52s12-5.16,12-11.52-5.37-11.52-12-11.52-12,5.16-12,11.52z" stroke-dashoffset="0" stroke="#808080" stroke-linecap="butt" stroke-miterlimit="10" stroke-dasharray="0.72, 0.72" stroke-width="0.72000003" fill="none"/></g><g id="g15928" transform="translate(-161.26212,102.84122)"><g id="g15930" clip-path="url(#clipPath15932)"><text id="text15936" transform="matrix(1,0,0,-1,608.06,245.23)"><tspan id="tspan15938" style="writing-mode:lr-tb;" font-weight="bold" fill-rule="nonzero" font-size="15.96000004px" font-variant="normal" y="0" x="0" font-family="Arial" fill="#969696">P</tspan></text>
</g></g><path id="path15940" d="m289.7,248.1c0,6.33,5.37,11.46,12,11.46s12-5.13,12-11.46-5.37-11.46-12-11.46-12,5.13-12,11.46z" fill-rule="evenodd" fill="#33C"/><path id="path15942" stroke-linejoin="round" d="m289.7,248.1c0,6.33,5.37,11.46,12,11.46s12-5.13,12-11.46-5.37-11.46-12-11.46-12,5.13-12,11.46z" stroke="#000" stroke-linecap="butt" stroke-miterlimit="10" stroke-dasharray="none" stroke-width="0.72000003" fill="none"/><g id="g15944" transform="translate(-161.26212,102.84122)"><g id="g15946" clip-path="url(#clipPath15948)"><text id="text15952" transform="matrix(1,0,0,-1,456.02,138.7)"><tspan id="tspan15954" style="writing-mode:lr-tb;" font-weight="bold" fill-rule="nonzero" font-size="15.96000004px" font-variant="normal" y="0" x="0" font-family="Arial" fill="#ffffff">M</tspan></text>
</g></g><path id="path15956" d="m291.74,212.1c0,6.33,5.37,11.46,12,11.46s12-5.13,12-11.46-5.37-11.46-12-11.46-12,5.13-12,11.46z" fill-rule="evenodd" fill="#000"/><path id="path15958" stroke-linejoin="round" d="m291.74,212.1c0,6.33,5.37,11.46,12,11.46s12-5.13,12-11.46-5.37-11.46-12-11.46-12,5.13-12,11.46z" stroke="#000" stroke-linecap="butt" stroke-miterlimit="10" stroke-dasharray="none" stroke-width="0.72000003" fill="none"/><g id="g15960" transform="translate(-161.26212,102.84122)"><g id="g15962" clip-path="url(#clipPath15964)"><text id="text15968" transform="matrix(1,0,0,-1,459.02,102.7)"><tspan id="tspan15970" style="writing-mode:lr-tb;" font-weight="bold" fill-rule="nonzero" font-size="15.96000004px" font-variant="normal" y="0" x="0" font-family="Arial" fill="#ffffff">S</tspan></text>
</g></g><g id="g15972" transform="translate(-161.26212,102.84122)"><g id="g15974" clip-path="url(#clipPath15976)"><text id="text15980" transform="matrix(1,0,0,-1,480.02,138.58)"><tspan id="tspan15982" style="writing-mode:lr-tb;" font-weight="normal" fill-rule="nonzero" font-size="18.02400017px" font-variant="normal" y="0" x="0 15.013992 24.96324 33.975239 38.985912 49.007256 55.009247 60.01992 69.96917 79.93644 88.948441 92.949768 101.88967" font-family="Arial" fill="#000000">Master device</tspan></text>
</g></g><g id="g15984" transform="translate(-161.26212,102.84122)"><g id="g15986" clip-path="url(#clipPath15988)"><text id="text15992" transform="matrix(1,0,0,-1,480.02,106.15)"><tspan id="tspan15994" style="writing-mode:lr-tb;" font-weight="normal" fill-rule="nonzero" font-size="18px" font-variant="normal" y="0" x="0 12.006 16.002001 25.92 34.919998 44.928001 50.021999 60.029999 69.947998 78.947998 82.944 91.944" font-family="Arial" fill="#000000">Slave device</tspan></text>
</g></g><g id="g15996" transform="translate(-161.26212,102.84122)"><g id="g15998" clip-path="url(#clipPath16000)"><text id="text16004" transform="matrix(1,0,0,-1,480.02,73.752)"><tspan id="tspan16006" style="writing-mode:lr-tb;" font-weight="normal" fill-rule="nonzero" font-size="18px" font-variant="normal" y="0" x="0 12.006 21.959999 27.954 36.953999 46.962002 56.880001 62.028 72.036003 81.954002 90.954002 94.949997 103.95 113.868 119.016 125.01 129.006 138.942 148.95 157.95 162.95399 166.95 175.95 185.868" font-family="Arial" fill="#000000">Parked device (inactive)</tspan></text>
</g></g><path id="path16008" d="m290.3,183.12c0,6.362,5.37,11.52,12,11.52s12-5.158,12-11.52-5.37-11.52-12-11.52-12,5.158-12,11.52z" fill-rule="evenodd" fill="#DDD"/><g id="g16010" transform="translate(-161.26212,102.84122)"><path id="path16012" stroke-linejoin="round" d="m451.56,80.28c0,6.362,5.37,11.52,12,11.52s12-5.158,12-11.52-5.37-11.52-12-11.52-12,5.158-12,11.52z" stroke-dashoffset="0" stroke="#808080" stroke-linecap="butt" stroke-miterlimit="10" stroke-dasharray="0.72, 0.72" stroke-width="0.72000003" fill="none"/></g><g id="g16014" transform="translate(-161.26212,102.84122)"><g id="g16016" clip-path="url(#clipPath16018)"><text id="text16022" transform="matrix(1,0,0,-1,459.02,73.68)"><tspan id="tspan16024" style="writing-mode:lr-tb;" font-weight="bold" fill-rule="nonzero" font-size="15.96000004px" font-variant="normal" y="0" x="0" font-family="Arial" fill="#969696">P</tspan></text>
</g></g></g></svg>
