<?xml version="1.0" encoding="UTF-8" standalone="no"?>
<!-- Created with Inkscape (http://www.inkscape.org/) -->

<svg
   xmlns:dc="http://purl.org/dc/elements/1.1/"
   xmlns:cc="http://creativecommons.org/ns#"
   xmlns:rdf="http://www.w3.org/1999/02/22-rdf-syntax-ns#"
   xmlns:svg="http://www.w3.org/2000/svg"
   xmlns="http://www.w3.org/2000/svg"
   xmlns:sodipodi="http://sodipodi.sourceforge.net/DTD/sodipodi-0.dtd"
   xmlns:inkscape="http://www.inkscape.org/namespaces/inkscape"
   width="108.52753"
   height="26.910126"
   id="svg36370"
   version="1.1"
   inkscape:version="0.48.3.1 r9886"
   sodipodi:docname="ResumosCriptograficos.svg">
  <defs
     id="defs36372">
    <clipPath
       clipPathUnits="userSpaceOnUse"
       id="clipPath344">
      <path
         inkscape:connector-curvature="0"
         d="M 9.99e-7,6.104e-6 720,6.104e-6 720,540.00001 9.99e-7,540.00001 9.99e-7,6.104e-6 z"
         clip-rule="evenodd"
         id="path346" />
    </clipPath>
    <clipPath
       clipPathUnits="userSpaceOnUse"
       id="clipPath348">
      <path
         inkscape:connector-curvature="0"
         d="m 0,0 361.12,0 0,186.9 L 0,186.9 0,0 z"
         id="path350" />
    </clipPath>
    <clipPath
       clipPathUnits="userSpaceOnUse"
       id="clipPath496">
      <path
         inkscape:connector-curvature="0"
         d="M -4.349e-6,1.8311e-4 720,1.8311e-4 720,540.00018 l -720.000004349,0 0,-539.99999689 z"
         clip-rule="evenodd"
         id="path498" />
    </clipPath>
    <clipPath
       clipPathUnits="userSpaceOnUse"
       id="clipPath646">
      <path
         inkscape:connector-curvature="0"
         d="M 3.229e-6,6.104e-6 720,6.104e-6 720,540.00001 3.229e-6,540.00001 3.229e-6,6.104e-6 z"
         clip-rule="evenodd"
         id="path648" />
    </clipPath>
    <clipPath
       clipPathUnits="userSpaceOnUse"
       id="clipPath650">
      <path
         inkscape:connector-curvature="0"
         d="m 0,0 361.12,0 0,186.9 L 0,186.9 0,0 z"
         id="path652" />
    </clipPath>
    <clipPath
       clipPathUnits="userSpaceOnUse"
       id="clipPath638">
      <path
         inkscape:connector-curvature="0"
         d="M -1.459e-6,6.104e-6 720,6.104e-6 720,540.00001 -1.459e-6,540.00001 -1.459e-6,6.104e-6 z"
         clip-rule="evenodd"
         id="path640" />
    </clipPath>
    <clipPath
       clipPathUnits="userSpaceOnUse"
       id="clipPath642">
      <path
         inkscape:connector-curvature="0"
         d="m 0,0 361.12,0 0,186.9 L 0,186.9 0,0 z"
         id="path644" />
    </clipPath>
    <clipPath
       clipPathUnits="userSpaceOnUse"
       id="clipPath634">
      <path
         inkscape:connector-curvature="0"
         d="M -2.855e-6,1.8311e-4 720,1.8311e-4 720,540.00018 l -720.000002855,0 0,-539.99999689 z"
         clip-rule="evenodd"
         id="path636" />
    </clipPath>
    <clipPath
       clipPathUnits="userSpaceOnUse"
       id="clipPath630">
      <path
         inkscape:connector-curvature="0"
         d="M -8.02e-7,1.8311e-4 720,1.8311e-4 720,540.00018 -8.02e-7,540.00018 l 0,-539.99999689 z"
         clip-rule="evenodd"
         id="path632" />
    </clipPath>
    <clipPath
       clipPathUnits="userSpaceOnUse"
       id="clipPath1214">
      <path
         inkscape:connector-curvature="0"
         d="M -2.332e-6,1.2207e-4 720,1.2207e-4 720,540.00012 l -720.000002332,0 0,-539.99999793 z"
         clip-rule="evenodd"
         id="path1216" />
    </clipPath>
    <clipPath
       clipPathUnits="userSpaceOnUse"
       id="clipPath1210">
      <path
         inkscape:connector-curvature="0"
         d="M 1.03e-6,1.8311e-4 720,1.8311e-4 720,540.00018 1.03e-6,540.00018 l 0,-539.99999689 z"
         clip-rule="evenodd"
         id="path1212" />
    </clipPath>
    <clipPath
       clipPathUnits="userSpaceOnUse"
       id="clipPath1206">
      <path
         inkscape:connector-curvature="0"
         d="M -1.84e-7,1.8311e-4 720,1.8311e-4 720,540.00018 -1.84e-7,540.00018 l 0,-539.99999689 z"
         clip-rule="evenodd"
         id="path1208" />
    </clipPath>
    <clipPath
       clipPathUnits="userSpaceOnUse"
       id="clipPath1386">
      <path
         inkscape:connector-curvature="0"
         d="M -2.329e-6,1.8311e-4 720,1.8311e-4 720,540.00018 l -720.000002329,0 0,-539.99999689 z"
         clip-rule="evenodd"
         id="path1388" />
    </clipPath>
    <clipPath
       clipPathUnits="userSpaceOnUse"
       id="clipPath1382">
      <path
         inkscape:connector-curvature="0"
         d="M 1.03e-6,1.8311e-4 720,1.8311e-4 720,540.00018 1.03e-6,540.00018 l 0,-539.99999689 z"
         clip-rule="evenodd"
         id="path1384" />
    </clipPath>
    <clipPath
       clipPathUnits="userSpaceOnUse"
       id="clipPath1378">
      <path
         inkscape:connector-curvature="0"
         d="M -1.84e-7,1.8311e-4 720,1.8311e-4 720,540.00018 -1.84e-7,540.00018 l 0,-539.99999689 z"
         clip-rule="evenodd"
         id="path1380" />
    </clipPath>
    <clipPath
       clipPathUnits="userSpaceOnUse"
       id="clipPath1758">
      <path
         inkscape:connector-curvature="0"
         d="m -5.996e-6,1.8311e-4 719.999995996,0 0,539.99999689 -719.999995996,0 0,-539.99999689 z"
         clip-rule="evenodd"
         id="path1760" />
    </clipPath>
    <clipPath
       clipPathUnits="userSpaceOnUse"
       id="clipPath1754">
      <path
         inkscape:connector-curvature="0"
         d="M 1.03e-6,1.8311e-4 720,1.8311e-4 720,540.00018 1.03e-6,540.00018 l 0,-539.99999689 z"
         clip-rule="evenodd"
         id="path1756" />
    </clipPath>
    <clipPath
       clipPathUnits="userSpaceOnUse"
       id="clipPath1750">
      <path
         inkscape:connector-curvature="0"
         d="m 0,1.8311e-4 720,0 0,539.99999689 -720,0 L 0,1.8311e-4 z"
         clip-rule="evenodd"
         id="path1752" />
    </clipPath>
    <clipPath
       clipPathUnits="userSpaceOnUse"
       id="clipPath1958">
      <path
         inkscape:connector-curvature="0"
         d="M -1.795e-6,1.8311e-4 720,1.8311e-4 720,540.00018 l -720.000001795,0 0,-539.99999689 z"
         clip-rule="evenodd"
         id="path1960" />
    </clipPath>
    <clipPath
       clipPathUnits="userSpaceOnUse"
       id="clipPath1954">
      <path
         inkscape:connector-curvature="0"
         d="M -6.68e-7,1.8311e-4 720,1.8311e-4 720,540.00018 -6.68e-7,540.00018 l 0,-539.99999689 z"
         clip-rule="evenodd"
         id="path1956" />
    </clipPath>
    <clipPath
       clipPathUnits="userSpaceOnUse"
       id="clipPath1950">
      <path
         inkscape:connector-curvature="0"
         d="m 0,1.8311e-4 720,0 0,539.99999689 -720,0 L 0,1.8311e-4 z"
         clip-rule="evenodd"
         id="path1952" />
    </clipPath>
    <clipPath
       clipPathUnits="userSpaceOnUse"
       id="clipPath2206">
      <path
         inkscape:connector-curvature="0"
         d="M -1.645e-6,2.4414e-4 720,2.4414e-4 720,540.00024 -1.645e-6,540.00024 l 0,-539.99999586 z"
         clip-rule="evenodd"
         id="path2208" />
    </clipPath>
    <clipPath
       clipPathUnits="userSpaceOnUse"
       id="clipPath2210">
      <path
         inkscape:connector-curvature="0"
         d="m 0,0 352.7,0 0,273.15 L 0,273.15 0,0 z"
         id="path2212" />
    </clipPath>
    <clipPath
       clipPathUnits="userSpaceOnUse"
       id="clipPath2202">
      <path
         inkscape:connector-curvature="0"
         d="M -1.795e-6,1.8311e-4 720,1.8311e-4 720,540.00018 l -720.000001795,0 0,-539.99999689 z"
         clip-rule="evenodd"
         id="path2204" />
    </clipPath>
    <clipPath
       clipPathUnits="userSpaceOnUse"
       id="clipPath2198">
      <path
         inkscape:connector-curvature="0"
         d="M -6.68e-7,1.8311e-4 720,1.8311e-4 720,540.00018 -6.68e-7,540.00018 l 0,-539.99999689 z"
         clip-rule="evenodd"
         id="path2200" />
    </clipPath>
    <clipPath
       clipPathUnits="userSpaceOnUse"
       id="clipPath2194">
      <path
         inkscape:connector-curvature="0"
         d="m 0,1.8311e-4 720,0 0,539.99999689 -720,0 L 0,1.8311e-4 z"
         clip-rule="evenodd"
         id="path2196" />
    </clipPath>
    <clipPath
       clipPathUnits="userSpaceOnUse"
       id="clipPath2610">
      <path
         inkscape:connector-curvature="0"
         d="M -1.795e-6,1.8311e-4 720,1.8311e-4 720,540.00018 l -720.000001795,0 0,-539.99999689 z"
         clip-rule="evenodd"
         id="path2612" />
    </clipPath>
    <clipPath
       clipPathUnits="userSpaceOnUse"
       id="clipPath2606">
      <path
         inkscape:connector-curvature="0"
         d="M -6.68e-7,1.8311e-4 720,1.8311e-4 720,540.00018 -6.68e-7,540.00018 l 0,-539.99999689 z"
         clip-rule="evenodd"
         id="path2608" />
    </clipPath>
    <clipPath
       clipPathUnits="userSpaceOnUse"
       id="clipPath2602">
      <path
         inkscape:connector-curvature="0"
         d="m 0,1.8311e-4 720,0 0,539.99999689 -720,0 L 0,1.8311e-4 z"
         clip-rule="evenodd"
         id="path2604" />
    </clipPath>
    <clipPath
       clipPathUnits="userSpaceOnUse"
       id="clipPath2854">
      <path
         inkscape:connector-curvature="0"
         d="M -1.645e-6,2.4414e-4 720,2.4414e-4 720,540.00024 -1.645e-6,540.00024 l 0,-539.99999586 z"
         clip-rule="evenodd"
         id="path2856" />
    </clipPath>
    <clipPath
       clipPathUnits="userSpaceOnUse"
       id="clipPath2858">
      <path
         inkscape:connector-curvature="0"
         d="m 0,0 352.7,0 0,273.15 L 0,273.15 0,0 z"
         id="path2860" />
    </clipPath>
    <clipPath
       clipPathUnits="userSpaceOnUse"
       id="clipPath2850">
      <path
         inkscape:connector-curvature="0"
         d="M -1.795e-6,1.8311e-4 720,1.8311e-4 720,540.00018 l -720.000001795,0 0,-539.99999689 z"
         clip-rule="evenodd"
         id="path2852" />
    </clipPath>
    <clipPath
       clipPathUnits="userSpaceOnUse"
       id="clipPath2846">
      <path
         inkscape:connector-curvature="0"
         d="M -6.68e-7,1.8311e-4 720,1.8311e-4 720,540.00018 -6.68e-7,540.00018 l 0,-539.99999689 z"
         clip-rule="evenodd"
         id="path2848" />
    </clipPath>
    <clipPath
       clipPathUnits="userSpaceOnUse"
       id="clipPath2842">
      <path
         inkscape:connector-curvature="0"
         d="m 0,1.8311e-4 720,0 0,539.99999689 -720,0 L 0,1.8311e-4 z"
         clip-rule="evenodd"
         id="path2844" />
    </clipPath>
    <clipPath
       clipPathUnits="userSpaceOnUse"
       id="clipPath3234">
      <path
         inkscape:connector-curvature="0"
         d="M -4.492e-6,1.8311e-4 720,1.8311e-4 720,540.00018 l -720.000004492,0 0,-539.99999689 z"
         clip-rule="evenodd"
         id="path3236" />
    </clipPath>
    <clipPath
       clipPathUnits="userSpaceOnUse"
       id="clipPath3230">
      <path
         inkscape:connector-curvature="0"
         d="M -1.43e-7,1.8311e-4 720,1.8311e-4 720,540.00018 -1.43e-7,540.00018 l 0,-539.99999689 z"
         clip-rule="evenodd"
         id="path3232" />
    </clipPath>
    <clipPath
       clipPathUnits="userSpaceOnUse"
       id="clipPath3480">
      <path
         inkscape:connector-curvature="0"
         d="M -1.712e-6,1.8311e-4 720,1.8311e-4 720,540.00018 -1.712e-6,540.00018 l 0,-539.99999689 z"
         clip-rule="evenodd"
         id="path3482" />
    </clipPath>
    <clipPath
       clipPathUnits="userSpaceOnUse"
       id="clipPath3476">
      <path
         inkscape:connector-curvature="0"
         d="M -3.97e-7,1.8311e-4 720,1.8311e-4 720,540.00018 l -720.000000397,0 0,-539.99999689 z"
         clip-rule="evenodd"
         id="path3478" />
    </clipPath>
    <clipPath
       clipPathUnits="userSpaceOnUse"
       id="clipPath3720">
      <path
         inkscape:connector-curvature="0"
         d="M -1.866e-6,1.8311e-4 720,1.8311e-4 720,540.00018 l -720.000001866,0 0,-539.99999689 z"
         clip-rule="evenodd"
         id="path3722" />
    </clipPath>
    <clipPath
       clipPathUnits="userSpaceOnUse"
       id="clipPath3716">
      <path
         inkscape:connector-curvature="0"
         d="M -3.27e-7,1.8311e-4 720,1.8311e-4 720,540.00018 -3.27e-7,540.00018 l 0,-539.99999689 z"
         clip-rule="evenodd"
         id="path3718" />
    </clipPath>
    <clipPath
       clipPathUnits="userSpaceOnUse"
       id="clipPath3712">
      <path
         inkscape:connector-curvature="0"
         d="M 3.635e-6,1.8311e-4 720,1.8311e-4 720,540.00018 l -719.999996365,0 0,-539.99999689 z"
         clip-rule="evenodd"
         id="path3714" />
    </clipPath>
    <clipPath
       clipPathUnits="userSpaceOnUse"
       id="clipPath4024">
      <path
         inkscape:connector-curvature="0"
         d="M -3.27e-7,1.8311e-4 720,1.8311e-4 720,540.00018 -3.27e-7,540.00018 l 0,-539.99999689 z"
         clip-rule="evenodd"
         id="path4026" />
    </clipPath>
    <clipPath
       clipPathUnits="userSpaceOnUse"
       id="clipPath4020">
      <path
         inkscape:connector-curvature="0"
         d="M 5.61e-7,1.8311e-4 720,1.8311e-4 720,540.00018 5.61e-7,540.00018 l 0,-539.99999689 z"
         clip-rule="evenodd"
         id="path4022" />
    </clipPath>
    <clipPath
       clipPathUnits="userSpaceOnUse"
       id="clipPath4016">
      <path
         inkscape:connector-curvature="0"
         d="M 5.39e-7,2.4414e-4 720,2.4414e-4 720,540.00024 5.39e-7,540.00024 l 0,-539.99999586 z"
         clip-rule="evenodd"
         id="path4018" />
    </clipPath>
    <clipPath
       clipPathUnits="userSpaceOnUse"
       id="clipPath4172">
      <path
         inkscape:connector-curvature="0"
         d="M -8.71e-7,0 720,0 720,540 -8.71e-7,540 l 0,-540 z"
         clip-rule="evenodd"
         id="path4174" />
    </clipPath>
    <clipPath
       clipPathUnits="userSpaceOnUse"
       id="clipPath4176">
      <path
         inkscape:connector-curvature="0"
         d="m 0,0 361.12,0 0,186.9 L 0,186.9 0,0 z"
         id="path4178" />
    </clipPath>
  </defs>
  <sodipodi:namedview
     id="base"
     pagecolor="#ffffff"
     bordercolor="#666666"
     borderopacity="1.0"
     inkscape:pageopacity="0.0"
     inkscape:pageshadow="2"
     inkscape:zoom="7.9195959"
     inkscape:cx="83.260954"
     inkscape:cy="9.4232137"
     inkscape:document-units="px"
     inkscape:current-layer="layer1"
     showgrid="false"
     fit-margin-top="0"
     fit-margin-left="0"
     fit-margin-right="0"
     fit-margin-bottom="0"
     inkscape:window-width="1615"
     inkscape:window-height="1026"
     inkscape:window-x="65"
     inkscape:window-y="24"
     inkscape:window-maximized="1" />
  <metadata
     id="metadata36375">
    <rdf:RDF>
      <cc:Work
         rdf:about="">
        <dc:format>image/svg+xml</dc:format>
        <dc:type
           rdf:resource="http://purl.org/dc/dcmitype/StillImage" />
        <dc:title></dc:title>
      </cc:Work>
    </rdf:RDF>
  </metadata>
  <g
     inkscape:label="Layer 1"
     inkscape:groupmode="layer"
     id="layer1"
     transform="translate(-197.25942,-517.65325)">
    <text
       id="text4830"
       x="199.18436"
       y="525.31262"
       style="font-size:2.06685019px">
      <tspan
         style="font-size:3.45163965px;font-variant:normal;font-weight:bold;writing-mode:lr-tb;fill:#000000;fill-opacity:1;fill-rule:nonzero;stroke:none;font-family:Arial Black;-inkscape-font-specification:Arial Bold"
         x="199.18436 200.14392 201.06549 203.75089 204.68626 207.18871 208.11719"
         y="525.31262"
         sodipodi:role="line"
         id="tspan4832">I O U 1</tspan>
    </text>
    <text
       id="text4834"
       x="199.84573"
       y="529.44629"
       style="font-size:2.06685019px">
      <tspan
         style="font-size:3.45163965px;font-variant:normal;font-weight:bold;writing-mode:lr-tb;fill:#000000;fill-opacity:1;fill-rule:nonzero;stroke:none;font-family:Arial Black;-inkscape-font-specification:Arial Bold"
         x="199.84573 201.76486 202.7037 204.6228 205.56165 206.52122 207.4635"
         y="529.44629"
         sodipodi:role="line"
         id="tspan4836">0 0 . 9</tspan>
    </text>
    <text
       id="text4838"
       x="198.41962"
       y="533.5835"
       style="font-size:2.06685019px">
      <tspan
         style="font-size:3.45163965px;font-variant:normal;font-weight:bold;writing-mode:lr-tb;fill:#000000;fill-opacity:1;fill-rule:nonzero;stroke:none;font-family:Arial Black;-inkscape-font-specification:Arial Bold"
         x="198.41962 200.33873 201.27757 203.78001 204.70851 207.39388 208.32927"
         y="533.5835"
         sodipodi:role="line"
         id="tspan4840">9 B O B</tspan>
    </text>
    <text
       id="text4842"
       x="217.70747"
       y="525.31262"
       style="font-size:2.06685019px">
      <tspan
         style="font-size:3.45163965px;font-variant:normal;font-weight:bold;writing-mode:lr-tb;fill:#000000;fill-opacity:1;fill-rule:nonzero;stroke:none;font-family:Arial Black;-inkscape-font-specification:Arial Bold"
         x="217.70747 219.62657 221.54568 222.46036 224.37949 226.48843 227.448 229.3671 231.28622 232.21472 234.13382"
         y="525.31262"
         sodipodi:role="line"
         id="tspan4844">49 4F 55 31</tspan>
    </text>
    <text
       id="text4846"
       x="217.62479"
       y="529.44629"
       style="font-size:2.06685019px">
      <tspan
         style="font-size:3.45163965px;font-variant:normal;font-weight:bold;writing-mode:lr-tb;fill:#000000;fill-opacity:1;fill-rule:nonzero;stroke:none;font-family:Arial Black;-inkscape-font-specification:Arial Bold"
         x="217.62479 219.5439 221.46301 222.37769 224.29681 226.21594 227.15131 229.07043 231.37268 232.31842 234.23752"
         y="529.44629"
         sodipodi:role="line"
         id="tspan4848">30 30 2E 39</tspan>
    </text>
    <text
       id="text4850"
       x="217.52144"
       y="533.5835"
       style="font-size:2.06685019px">
      <tspan
         style="font-size:3.45163965px;font-variant:normal;font-weight:bold;writing-mode:lr-tb;fill:#000000;fill-opacity:1;fill-rule:nonzero;stroke:none;font-family:Arial Black;-inkscape-font-specification:Arial Bold"
         x="217.52144 219.44055 221.35968 222.27432 224.19345 226.11258 227.04797 229.54007 231.46606 232.42563 234.34473"
         y="533.5835"
         sodipodi:role="line"
         id="tspan4852">39 42 D2 42</tspan>
    </text>
    <text
       id="text4854"
       x="197.26218"
       y="520.4469"
       style="font-size:2.06685019px">
      <tspan
         style="font-size:3.45163965px;font-variant:normal;font-weight:normal;writing-mode:lr-tb;fill:#000000;fill-opacity:1;fill-rule:nonzero;stroke:none;font-family:Arial Black;-inkscape-font-specification:Arial"
         x="197.26218 200.13739 202.0565 203.78923 205.51505 207.44452 209.36363"
         y="520.4469"
         sodipodi:role="line"
         id="tspan4856">message</tspan>
    </text>
    <path
       d="m 197.25942,520.95159 14.03391,0 0,-0.16535 -14.03391,0 0,0.16535 z"
       style="fill:#000000;fill-opacity:1;fill-rule:evenodd;stroke:none"
       id="path4858"
       inkscape:connector-curvature="0" />
    <text
       id="text4860"
       x="217.50078"
       y="520.37976"
       style="font-size:2.06685019px">
      <tspan
         style="font-size:3.45163965px;font-variant:normal;font-weight:normal;writing-mode:lr-tb;fill:#000000;fill-opacity:1;fill-rule:nonzero;stroke:none;font-family:Arial Black;-inkscape-font-specification:Arial"
         x="217.50078 219.80304 222.08801 224.58011 225.53964 226.49921 227.42078 228.38034 230.29944 231.44885 234.32407 236.24319"
         y="520.37976"
         sodipodi:role="line"
         id="tspan4862">ASCII format</tspan>
    </text>
    <path
       d="m 217.49561,520.88785 19.69707,0 0,-0.16533 -19.69707,0 0,0.16533 z"
       style="fill:#000000;fill-opacity:1;fill-rule:evenodd;stroke:none"
       id="path4864"
       inkscape:connector-curvature="0" />
    <path
       d="m 215.90757,535.15429 21.74499,0"
       style="fill:none;stroke:#000000;stroke-width:0.12917814;stroke-linecap:butt;stroke-linejoin:round;stroke-miterlimit:10;stroke-opacity:1;stroke-dasharray:none"
       id="path4866"
       inkscape:connector-curvature="0" />
    <text
       id="text4868"
       x="216.5948"
       y="539.58936"
       style="font-size:2.06685019px">
      <tspan
         style="font-size:3.45163965px;font-variant:normal;font-weight:bold;writing-mode:lr-tb;fill:#000000;fill-opacity:1;fill-rule:nonzero;stroke:none;font-family:Arial Black;-inkscape-font-specification:Arial Bold"
         x="216.5948 219.08688 221.01291 221.92068 224.41278 226.33878 227.29834 229.79041 231.70953 232.51721 235.00931"
         y="539.58936"
         sodipodi:role="line"
         id="tspan4870">B2 C1 D2 AC</tspan>
    </text>
    <text
       id="text4872"
       x="267.29465"
       y="525.09729"
       style="font-size:2.06685019px">
      <tspan
         style="font-size:3.45163965px;font-variant:normal;font-weight:bold;writing-mode:lr-tb;fill:#000000;fill-opacity:1;fill-rule:nonzero;stroke:none;font-family:Arial Black;-inkscape-font-specification:Arial Bold"
         x="267.29465 268.25421 269.17581 271.86118 272.79309 275.28519"
         y="525.09729"
         sodipodi:role="line"
         id="tspan4874">I O U</tspan>
    </text>
    <text
       id="text4876"
       x="276.22342"
       y="525.09729"
       style="font-size:2.06685019px">
      <tspan
         style="font-size:3.45163965px;font-variant:normal;font-weight:bold;writing-mode:lr-tb;fill:#ff0000;fill-opacity:1;fill-rule:nonzero;stroke:none;font-family:Arial Black;-inkscape-font-specification:Arial Bold"
         x="276.22342"
         y="525.09729"
         id="tspan4878">9</tspan>
    </text>
    <path
       d="m 276.21137,525.602 1.92216,0 0,-0.16535 -1.92216,0 0,0.16535 z"
       style="fill:#ff0000;fill-opacity:1;fill-rule:evenodd;stroke:none"
       id="path4880"
       inkscape:connector-curvature="0" />
    <text
       id="text4882"
       x="267.95602"
       y="529.23102"
       style="font-size:2.06685019px">
      <tspan
         style="font-size:3.45163965px;font-variant:normal;font-weight:bold;writing-mode:lr-tb;fill:#000000;fill-opacity:1;fill-rule:nonzero;stroke:none;font-family:Arial Black;-inkscape-font-specification:Arial Bold"
         x="267.95602 269.87515 270.8071 272.7262 273.65814 274.61771"
         y="529.23102"
         sodipodi:role="line"
         id="tspan4884">0 0 .</tspan>
    </text>
    <text
       id="text4886"
       x="275.56204"
       y="529.23102"
       style="font-size:2.06685019px">
      <tspan
         style="font-size:3.45163965px;font-variant:normal;font-weight:bold;writing-mode:lr-tb;fill:#ff0000;fill-opacity:1;fill-rule:nonzero;stroke:none;font-family:Arial Black;-inkscape-font-specification:Arial Bold"
         x="275.56204"
         y="529.23102"
         id="tspan4888">1</tspan>
    </text>
    <path
       d="m 275.54997,529.7357 1.92217,0 0,-0.16535 -1.92217,0 0,0.16535 z"
       style="fill:#ff0000;fill-opacity:1;fill-rule:evenodd;stroke:none"
       id="path4890"
       inkscape:connector-curvature="0" />
    <text
       id="text4892"
       x="266.52991"
       y="533.36816"
       style="font-size:2.06685019px">
      <tspan
         style="font-size:3.45577288px;font-variant:normal;font-weight:bold;writing-mode:lr-tb;fill:#000000;fill-opacity:1;fill-rule:nonzero;stroke:none;font-family:Arial Black;-inkscape-font-specification:Arial Bold"
         x="266.52991 268.45132 269.38092 271.87601 272.8125 275.5011 276.43069"
         y="533.36816"
         sodipodi:role="line"
         id="tspan4894">9 B O B</tspan>
    </text>
    <text
       id="text4896"
       x="285.81879"
       y="525.09729"
       style="font-size:2.06685019px">
      <tspan
         style="font-size:3.45163965px;font-variant:normal;font-weight:bold;writing-mode:lr-tb;fill:#000000;fill-opacity:1;fill-rule:nonzero;stroke:none;font-family:Arial Black;-inkscape-font-specification:Arial Bold"
         x="285.81879 287.73788 289.65701 290.57169 292.49081 294.59976 295.5593 297.47842 299.39752"
         y="525.09729"
         sodipodi:role="line"
         id="tspan4898">49 4F 55</tspan>
    </text>
    <text
       id="text4900"
       x="300.32806"
       y="525.09729"
       style="font-size:2.06685019px">
      <tspan
         style="font-size:3.45163965px;font-variant:normal;font-weight:bold;writing-mode:lr-tb;fill:#ff0000;fill-opacity:1;fill-rule:nonzero;stroke:none;font-family:Arial Black;-inkscape-font-specification:Arial Bold"
         x="300.32806 302.25024"
         y="525.09729"
         sodipodi:role="line"
         id="tspan4902">39</tspan>
    </text>
    <path
       d="m 300.31256,525.602 3.84433,0 0,-0.16535 -3.84433,0 0,0.16535 z"
       style="fill:#ff0000;fill-opacity:1;fill-rule:evenodd;stroke:none"
       id="path4904"
       inkscape:connector-curvature="0" />
    <text
       id="text4906"
       x="285.73611"
       y="529.23102"
       style="font-size:2.06685019px">
      <tspan
         style="font-size:3.45163965px;font-variant:normal;font-weight:bold;writing-mode:lr-tb;fill:#000000;fill-opacity:1;fill-rule:nonzero;stroke:none;font-family:Arial Black;-inkscape-font-specification:Arial Bold"
         x="285.73611 287.65521 289.57434 290.48901 292.40811 294.32724 295.26263 297.18173 299.48398"
         y="529.23102"
         sodipodi:role="line"
         id="tspan4908">30 30 2E</tspan>
    </text>
    <text
       id="text4910"
       x="300.43143"
       y="529.23102"
       style="font-size:2.06685019px">
      <tspan
         style="font-size:3.45163965px;font-variant:normal;font-weight:bold;writing-mode:lr-tb;fill:#ff0000;fill-opacity:1;fill-rule:nonzero;stroke:none;font-family:Arial Black;-inkscape-font-specification:Arial Bold"
         x="300.43143 302.35361"
         y="529.23102"
         sodipodi:role="line"
         id="tspan4912">31</tspan>
    </text>
    <path
       d="m 300.41591,529.7357 3.84433,0 0,-0.16535 -3.84433,0 0,0.16535 z"
       style="fill:#ff0000;fill-opacity:1;fill-rule:evenodd;stroke:none"
       id="path4914"
       inkscape:connector-curvature="0" />
    <text
       id="text4916"
       x="285.63275"
       y="533.36816"
       style="font-size:2.06685019px">
      <tspan
         style="font-size:3.45577288px;font-variant:normal;font-weight:bold;writing-mode:lr-tb;fill:#000000;fill-opacity:1;fill-rule:nonzero;stroke:none;font-family:Arial Black;-inkscape-font-specification:Arial Bold"
         x="285.63275 287.55417 289.47559 290.38791 292.30933 294.23074 295.16379 297.65884 299.58026 300.54099 302.46237"
         y="533.36816"
         sodipodi:role="line"
         id="tspan4918">39 42 D2 42</tspan>
    </text>
    <text
       id="text4920"
       x="265.36905"
       y="520.23163"
       style="font-size:2.06685019px">
      <tspan
         style="font-size:3.45163965px;font-variant:normal;font-weight:normal;writing-mode:lr-tb;fill:#000000;fill-opacity:1;fill-rule:nonzero;stroke:none;font-family:Arial Black;-inkscape-font-specification:Arial"
         x="265.36905 268.24423 270.16336 271.89609 273.62192 275.55136 277.47049"
         y="520.23163"
         sodipodi:role="line"
         id="tspan4922">message</tspan>
    </text>
    <path
       d="m 265.35696,520.73629 14.03391,0 0,-0.16535 -14.03391,0 0,0.16535 z"
       style="fill:#000000;fill-opacity:1;fill-rule:evenodd;stroke:none"
       id="path4924"
       inkscape:connector-curvature="0" />
    <text
       id="text4926"
       x="285.60693"
       y="520.16614"
       style="font-size:2.06685019px">
      <tspan
         style="font-size:3.45163965px;font-variant:normal;font-weight:normal;writing-mode:lr-tb;fill:#000000;fill-opacity:1;fill-rule:nonzero;stroke:none;font-family:Arial Black;-inkscape-font-specification:Arial"
         x="285.60693 287.90918 290.19418 292.68625 293.64578 294.60535 295.52695 296.48648 298.40561 299.55502 302.43024 304.34933"
         y="520.16614"
         sodipodi:role="line"
         id="tspan4928">ASCII format</tspan>
    </text>
    <path
       d="m 285.59315,520.67257 19.69707,0 0,-0.16535 -19.69707,0 0,0.16535 z"
       style="fill:#000000;fill-opacity:1;fill-rule:evenodd;stroke:none"
       id="path4930"
       inkscape:connector-curvature="0" />
    <path
       d="m 284.00683,534.93899 21.74499,0"
       style="fill:none;stroke:#000000;stroke-width:0.12917814;stroke-linecap:butt;stroke-linejoin:round;stroke-miterlimit:10;stroke-opacity:1;stroke-dasharray:none"
       id="path4932"
       inkscape:connector-curvature="0" />
    <text
       id="text4934"
       x="284.70267"
       y="539.37408"
       style="font-size:2.06685019px">
      <tspan
         style="font-size:3.45163965px;font-variant:normal;font-weight:bold;writing-mode:lr-tb;fill:#000000;fill-opacity:1;fill-rule:nonzero;stroke:none;font-family:Arial Black;-inkscape-font-specification:Arial Bold"
         x="284.70267 287.19476 289.12079 290.02856 292.52063 294.44666 295.40622 297.89828 299.81741 300.62509 303.11719"
         y="539.37408"
         sodipodi:role="line"
         id="tspan4936">B2 C1 D2 AC</tspan>
    </text>
    <text
       id="text4938"
       x="247.13596"
       y="540.38751"
       style="font-size:2.06685019px">
      <tspan
         style="font-size:3.45163965px;font-variant:normal;font-weight:normal;writing-mode:lr-tb;fill:#000099;fill-opacity:1;fill-rule:nonzero;stroke:none;font-family:Arial Black;-inkscape-font-specification:Arial"
         x="247.13596 249.05508 249.82132 250.71185 251.67142 253.59055 254.73993 256.65906 258.57816 259.53772 260.42477 263.29999 265.21912 266.95181 268.67764 270.60712 272.52621 274.44534"
         y="540.38751"
         sodipodi:role="line"
         id="tspan4940">different messages</tspan>
    </text>
    <text
       id="text4942"
       x="242.87827"
       y="544.52124"
       style="font-size:2.06685019px">
      <tspan
         style="font-size:3.45163965px;font-variant:normal;font-weight:normal;writing-mode:lr-tb;fill:#000099;fill-opacity:1;fill-rule:nonzero;stroke:none;font-family:Arial Black;-inkscape-font-specification:Arial"
         x="242.87827 244.79736 246.71646 247.67603 248.5838 249.3501 251.2692 253.18829 255.10742 256.06696 256.83322 258.55905 260.48508 261.25134 262.17984 263.90564 265.83511 267.75424 269.49039 271.21622 272.95929 274.87839 277.75363"
         y="544.52124"
         sodipodi:role="line"
         id="tspan4944">but identical checksums</tspan>
    </text>
    <text
       id="text4946"
       x="279.50974"
       y="544.52124"
       style="font-size:2.06685019px">
      <tspan
         style="font-size:3.45163965px;font-variant:normal;font-weight:normal;writing-mode:lr-tb;fill:#3333cc;fill-opacity:1;fill-rule:nonzero;stroke:none;font-family:Arial Black;-inkscape-font-specification:Arial"
         x="279.50974"
         y="544.52124"
         id="tspan4948">!</tspan>
    </text>
    <path
       d="m 243.96162,539.35344 -5.16713,-1.14194"
       style="fill:none;stroke:#3333cc;stroke-width:0.25835627;stroke-linecap:butt;stroke-linejoin:round;stroke-miterlimit:10;stroke-opacity:1;stroke-dasharray:none"
       id="path4950"
       inkscape:connector-curvature="0" />
    <path
       d="m 278.25755,539.13814 5.16712,-1.14194"
       style="fill:none;stroke:#3333cc;stroke-width:0.25835627;stroke-linecap:butt;stroke-linejoin:round;stroke-miterlimit:10;stroke-opacity:1;stroke-dasharray:none"
       id="path4952"
       inkscape:connector-curvature="0" />
  </g>
</svg>
