<!-- Created with Inkscape (http://www.inkscape.org/) -->
<svg id="svg3671" xmlns:rdf="http://www.w3.org/1999/02/22-rdf-syntax-ns#" xmlns="http://www.w3.org/2000/svg" height="72.304" width="718.19" version="1.1" xmlns:cc="http://creativecommons.org/ns#" xmlns:xlink="http://www.w3.org/1999/xlink" xmlns:dc="http://purl.org/dc/elements/1.1/">
<defs id="defs3673">
<clipPath id="clipPath35014" clipPathUnits="userSpaceOnUse">
<path id="path35016" clip-rule="evenodd" d="M0.000010729,0,720,0v540h-720v-540z"/>
</clipPath>
<clipPath id="clipPath35002" clipPathUnits="userSpaceOnUse">
<path id="path35004" clip-rule="evenodd" d="M0.000010729,0,720,0v540h-720v-540z"/>
</clipPath>
<clipPath id="clipPath34990" clipPathUnits="userSpaceOnUse">
<path id="path34992" clip-rule="evenodd" d="M0.000010729,0,720,0v540h-720v-540z"/>
</clipPath>
<clipPath id="clipPath34978" clipPathUnits="userSpaceOnUse">
<path id="path34980" clip-rule="evenodd" d="M0.000010729,0,720,0v540h-720v-540z"/>
</clipPath>
<clipPath id="clipPath34966" clipPathUnits="userSpaceOnUse">
<path id="path34968" clip-rule="evenodd" d="M0.000010729,0,720,0v540h-720v-540z"/>
</clipPath>
<clipPath id="clipPath34954" clipPathUnits="userSpaceOnUse">
<path id="path34956" clip-rule="evenodd" d="M0.000010729,0,720,0v540h-720v-540z"/>
</clipPath>
<clipPath id="clipPath34942" clipPathUnits="userSpaceOnUse">
<path id="path34944" clip-rule="evenodd" d="M0.000010729,0,720,0v540h-720v-540z"/>
</clipPath>
<clipPath id="clipPath34930" clipPathUnits="userSpaceOnUse">
<path id="path34932" clip-rule="evenodd" d="M0.000010729,0,720,0v540h-720v-540z"/>
</clipPath>
<clipPath id="clipPath34918" clipPathUnits="userSpaceOnUse">
<path id="path34920" clip-rule="evenodd" d="M0.000010729,0,720,0v540h-720v-540z"/>
</clipPath>
<clipPath id="clipPath34906" clipPathUnits="userSpaceOnUse">
<path id="path34908" clip-rule="evenodd" d="M0.000010729,0,720,0v540h-720v-540z"/>
</clipPath>
</defs>
<metadata id="metadata3676">
<rdf:RDF>
<cc:Work rdf:about="">
<dc:format>image/svg+xml</dc:format>
<dc:type rdf:resource="http://purl.org/dc/dcmitype/StillImage"/>
<dc:title/>
</cc:Work>
</rdf:RDF>
</metadata>
<g id="layer1" transform="translate(454.40634,-120.53125)">
<path id="path34890" d="m-453.97,175.81,717.3,0,0-54-717.3,0,0,54z" fill-rule="evenodd" fill="#00b050"/>
<path id="path34892" stroke-linejoin="round" d="m-453.97,175.81,717.3,0,0-54-717.3,0,0,54z" stroke="#FFF" stroke-linecap="butt" stroke-miterlimit="10" stroke-dasharray="none" stroke-width="0.90000004" fill="none"/>
<path id="path34894" stroke-linejoin="round" d="m-359.99,121.29,0,54.225" stroke="#FFF" stroke-linecap="butt" stroke-miterlimit="10" stroke-dasharray="none" stroke-width="1.94999993" fill="none"/>
<path id="path34896" stroke-linejoin="round" d="m-212.39,121.59,0,54.062" stroke="#FFF" stroke-linecap="butt" stroke-miterlimit="10" stroke-dasharray="none" stroke-width="1.94999993" fill="none"/>
<path id="path34898" stroke-linejoin="round" d="m-69.745,121.29,0,57.188" stroke="#FFF" stroke-linecap="butt" stroke-miterlimit="10" stroke-dasharray="none" stroke-width="1.94999993" fill="none"/>
<path id="path34900" stroke-linejoin="round" d="m115.51,120.54,0,61.4" stroke="#FFF" stroke-linecap="butt" stroke-miterlimit="10" stroke-dasharray="none" stroke-width="1.94999993" fill="none"/>
<g id="g34902" transform="matrix(1.25,0,0,-1.25,-545.76958,672.46389)">
<g id="g34904" clip-path="url(#clipPath34906)">
<text id="text34910" transform="matrix(1,0,0,-1,84.36,423.46)">
<tspan id="tspan34912" style="writing-mode:lr-tb;" font-weight="normal" fill-rule="nonzero" font-size="15.98400021px" font-style="italic" font-variant="normal" y="0" x="0 8.887104 17.774208 25.766209 29.378592 38.265697 47.152802 56.039906" font-family="Arial" fill="#ffffff">payload</tspan>
</text>
</g>
</g>
<g id="g34914" transform="matrix(1.25,0,0,-1.25,-545.76958,672.46389)">
<g id="g34916" clip-path="url(#clipPath34918)">
<text id="text34922" transform="matrix(1,0,0,-1,97.2,405.43)">
<tspan id="tspan34924" style="writing-mode:lr-tb;" font-weight="normal" fill-rule="nonzero" font-size="15.96000004px" font-style="italic" font-variant="normal" y="0" x="0 4.4368801 12.46476 21.33852" font-family="Arial" fill="#ffffff">type</tspan>
</text>
</g>
</g>
<g id="g34926" transform="matrix(1.25,0,0,-1.25,-545.76958,672.46389)">
<g id="g34928" clip-path="url(#clipPath34930)">
<text id="text34934" transform="matrix(1,0,0,-1,170.62,423.02)">
<tspan id="tspan34936" style="writing-mode:lr-tb;" font-weight="normal" fill-rule="nonzero" font-size="15.96000004px" font-style="italic" font-variant="normal" y="0" x="0 8.0278797 16.90164 25.7754 34.649158 43.522919 52.396679 60.456478 69.330238" font-family="Arial" fill="#ffffff">sequence</tspan>
</text>
</g>
</g>
<g id="g34938" transform="matrix(1.25,0,0,-1.25,-545.76958,672.46389)">
<g id="g34940" clip-path="url(#clipPath34942)">
<text id="text34946" transform="matrix(1,0,0,-1,178.3,405.02)">
<tspan id="tspan34948" style="writing-mode:lr-tb;" font-weight="normal" fill-rule="nonzero" font-size="15.96000004px" font-style="italic" font-variant="normal" y="0" x="0 8.8737602 17.74752 30.9624 39.836159 48.709919 54.024601" font-family="Arial" fill="#ffffff">number</tspan>
</text>
</g>
</g>
<g id="g34950" transform="matrix(1.25,0,0,-1.25,-545.76958,672.46389)">
<g id="g34952" clip-path="url(#clipPath34954)">
<text id="text34958" transform="matrix(1,0,0,-1,190.18,387.02)">
<tspan id="tspan34960" style="writing-mode:lr-tb;" font-weight="normal" fill-rule="nonzero" font-size="15.98400021px" font-style="italic" font-variant="normal" y="0" x="0 4.443552 12.435552 21.322657" font-family="Arial" fill="#ffffff">type</tspan>
</text>
</g>
</g>
<g id="g34962" transform="matrix(1.25,0,0,-1.25,-545.76958,672.46389)">
<g id="g34964" clip-path="url(#clipPath34966)">
<text id="text34970" transform="matrix(1,0,0,-1,285.58,415.2)">
<tspan id="tspan34972" style="writing-mode:lr-tb;" font-weight="normal" fill-rule="nonzero" font-size="15.96000004px" font-style="italic" font-variant="normal" y="0" x="0 4.4368801 8.0278797 21.226801 30.100559 34.77684 42.804722 47.2416 56.11536 69.330238" font-family="Arial" fill="#ffffff">time stamp</tspan>
</text>
</g>
</g>
<g id="g34974" transform="matrix(1.25,0,0,-1.25,-545.76958,672.46389)">
<g id="g34976" clip-path="url(#clipPath34978)">
<text id="text34982" transform="matrix(1,0,0,-1,403.1,422.66)">
<tspan id="tspan34984" style="writing-mode:lr-tb;" font-weight="normal" fill-rule="nonzero" font-size="15.96000004px" font-style="italic" font-variant="normal" y="0" x="0 10.6932 18.721081 27.594839 35.65464 44.5284 49.843079 58.716839 67.638481 71.229477 78.66684 87.540604 91.977478 95.600403 104.47416" font-family="Arial" fill="#ffffff">Synchronization</tspan>
</text>
</g>
</g>
<g id="g34986" transform="matrix(1.25,0,0,-1.25,-545.76958,672.46389)">
<g id="g34988" clip-path="url(#clipPath34990)">
<text id="text34994" transform="matrix(1,0,0,-1,424.25,404.66)">
<tspan id="tspan34996" style="writing-mode:lr-tb;" font-weight="normal" fill-rule="nonzero" font-size="15.98400021px" font-style="italic" font-variant="normal" y="0" x="0 10.661328 19.548431 28.435535 33.758209 41.75021 50.637314 55.080864 59.524418" font-family="Arial" fill="#ffffff">Source ID</tspan>
</text>
</g>
</g>
<g id="g34998" transform="matrix(1.25,0,0,-1.25,-545.76958,672.46389)">
<g id="g35000" clip-path="url(#clipPath35002)">
<text id="text35006" transform="matrix(1,0,0,-1,545.02,423.1)">
<tspan id="tspan35008" style="writing-mode:lr-tb;" font-weight="normal" fill-rule="nonzero" font-size="14.03999996px" font-style="italic" font-variant="normal" y="0" x="0 11.52684 14.64372 21.705839 28.76796 36.5742 39.691078 42.807961 50.614201 58.420441 66.226677 74.032921 81.684723 88.64856" font-family="Arial" fill="#ffffff">Miscellaneous</tspan>
</text>
</g>
</g>
<g id="g35010" transform="matrix(1.25,0,0,-1.25,-545.76958,672.46389)">
<g id="g35012" clip-path="url(#clipPath35014)">
<text id="text35018" transform="matrix(1,0,0,-1,572.86,405.1)">
<tspan id="tspan35020" style="writing-mode:lr-tb;" font-weight="normal" fill-rule="nonzero" font-size="14.03999996px" font-style="italic" font-variant="normal" y="0" x="0 3.94524 7.06212 14.86836 17.985241 25.791479" font-family="Arial" fill="#ffffff">fields</tspan>
</text>
</g>
</g>
</g>
</svg>
