<!-- Created with Inkscape (http://www.inkscape.org/) -->
<svg id="svg4697" xmlns:rdf="http://www.w3.org/1999/02/22-rdf-syntax-ns#" xmlns="http://www.w3.org/2000/svg" xml:space="preserve" height="386.66" width="771.16" version="1.1" xmlns:cc="http://creativecommons.org/ns#" xmlns:xlink="http://www.w3.org/1999/xlink" xmlns:dc="http://purl.org/dc/elements/1.1/"><metadata id="metadata4703"><rdf:RDF><cc:Work rdf:about=""><dc:format>image/svg+xml</dc:format><dc:type rdf:resource="http://purl.org/dc/dcmitype/StillImage"/><dc:title/></cc:Work></rdf:RDF></metadata><defs id="defs4701"><clipPath id="clipPath48869" clipPathUnits="userSpaceOnUse"><path id="path48871" clip-rule="evenodd" d="M0.000010729,0,720,0v540h-720v-540z"/></clipPath><clipPath id="clipPath48857" clipPathUnits="userSpaceOnUse"><path id="path48859" clip-rule="evenodd" d="M0.000010729,0,720,0v540h-720v-540z"/></clipPath><clipPath id="clipPath48845" clipPathUnits="userSpaceOnUse"><path id="path48847" clip-rule="evenodd" d="M0.000010729,0,720,0v540h-720v-540z"/></clipPath><clipPath id="clipPath48833" clipPathUnits="userSpaceOnUse"><path id="path48835" clip-rule="evenodd" d="M0.000010729,0,720,0v540h-720v-540z"/></clipPath><clipPath id="clipPath47991" clipPathUnits="userSpaceOnUse"><path id="path47993" clip-rule="evenodd" d="m0.000008601,0.00018311,720,0,0,540-720,0,0-540z"/></clipPath><clipPath id="clipPath48001" clipPathUnits="userSpaceOnUse"><path id="path48003" d="m0,0,319.41,0,0,231.2h-319.41v-231.2z"/></clipPath><clipPath id="clipPath48013" clipPathUnits="userSpaceOnUse"><path id="path48015" clip-rule="evenodd" d="m119.48,61.385,68.913,0,0,24.606-68.913,0,0-24.606z"/></clipPath><clipPath id="clipPath48021" clipPathUnits="userSpaceOnUse"><path id="path48023" clip-rule="evenodd" d="m119.48,61.385,68.913,0,0,24.606-68.913,0,0-24.606z"/></clipPath><clipPath id="clipPath48033" clipPathUnits="userSpaceOnUse"><path id="path48035" clip-rule="evenodd" d="m119.48,61.385,68.913,0,0,24.606-68.913,0,0-24.606z"/></clipPath><clipPath id="clipPath48057" clipPathUnits="userSpaceOnUse"><path id="path48059" clip-rule="evenodd" d="m186.94,68.143,46.385,0,0,11.811-46.385,0,0-11.811z"/></clipPath><clipPath id="clipPath48065" clipPathUnits="userSpaceOnUse"><path id="path48067" clip-rule="evenodd" d="m186.94,68.143,46.385,0,0,11.811-46.385,0,0-11.811z"/></clipPath><clipPath id="clipPath48089" clipPathUnits="userSpaceOnUse"><path id="path48091" clip-rule="evenodd" d="m11.633,93.012,48.648,0,0,11.811-48.648,0,0-11.811z"/></clipPath><clipPath id="clipPath48097" clipPathUnits="userSpaceOnUse"><path id="path48099" clip-rule="evenodd" d="m11.633,93.012,48.648,0,0,11.811-48.648,0,0-11.811z"/></clipPath><clipPath id="clipPath48121" clipPathUnits="userSpaceOnUse"><path id="path48123" clip-rule="evenodd" d="m13.183,191.14,45.549,0,0,11.811-45.549,0,0-11.811z"/></clipPath><clipPath id="clipPath48129" clipPathUnits="userSpaceOnUse"><path id="path48131" clip-rule="evenodd" d="m13.183,191.14,45.549,0,0,11.811-45.549,0,0-11.811z"/></clipPath><clipPath id="clipPath48169" clipPathUnits="userSpaceOnUse"><path id="path48171" clip-rule="evenodd" d="m67.339,189.93,45.672,0,0,11.811-45.672,0,0-11.811z"/></clipPath><clipPath id="clipPath48177" clipPathUnits="userSpaceOnUse"><path id="path48179" clip-rule="evenodd" d="m67.339,189.93,45.672,0,0,11.811-45.672,0,0-11.811z"/></clipPath><clipPath id="clipPath48197" clipPathUnits="userSpaceOnUse"><path id="path48199" clip-rule="evenodd" d="m67.339,189.93,45.672,0,0,11.811-45.672,0,0-11.811z"/></clipPath><clipPath id="clipPath48221" clipPathUnits="userSpaceOnUse"><path id="path48223" clip-rule="evenodd" d="m152.93,191.14,50.689,0,0,11.811-50.689,0,0-11.811z"/></clipPath><clipPath id="clipPath48229" clipPathUnits="userSpaceOnUse"><path id="path48231" clip-rule="evenodd" d="m152.93,191.14,50.689,0,0,11.811-50.689,0,0-11.811z"/></clipPath><clipPath id="clipPath48241" clipPathUnits="userSpaceOnUse"><path id="path48243" clip-rule="evenodd" d="m152.93,191.14,50.689,0,0,11.811-50.689,0,0-11.811z"/></clipPath><clipPath id="clipPath48261" clipPathUnits="userSpaceOnUse"><path id="path48263" clip-rule="evenodd" d="m152.93,191.14,50.689,0,0,11.811-50.689,0,0-11.811z"/></clipPath><clipPath id="clipPath48321" clipPathUnits="userSpaceOnUse"><path id="path48323" clip-rule="evenodd" d="m80.522,144.29,77.915,0,0,11.844-77.915,0,0-11.844z"/></clipPath><clipPath id="clipPath48329" clipPathUnits="userSpaceOnUse"><path id="path48331" clip-rule="evenodd" d="m80.522,144.29,77.915,0,0,11.844-77.915,0,0-11.844z"/></clipPath><clipPath id="clipPath48357" clipPathUnits="userSpaceOnUse"><path id="path48359" clip-rule="evenodd" d="m243.63,148.88,62.076,0,0,22.802-62.076,0,0-22.802z"/></clipPath><clipPath id="clipPath48365" clipPathUnits="userSpaceOnUse"><path id="path48367" clip-rule="evenodd" d="m243.63,148.88,62.076,0,0,22.802-62.076,0,0-22.802z"/></clipPath><clipPath id="clipPath48385" clipPathUnits="userSpaceOnUse"><path id="path48387" clip-rule="evenodd" d="m243.63,148.88,62.076,0,0,22.802-62.076,0,0-22.802z"/></clipPath><clipPath id="clipPath48425" clipPathUnits="userSpaceOnUse"><path id="path48427" clip-rule="evenodd" d="m229.61,35.663,83.768,0,0,35.728-83.768,0,0-35.728z"/></clipPath><clipPath id="clipPath48433" clipPathUnits="userSpaceOnUse"><path id="path48435" clip-rule="evenodd" d="m229.61,35.663,83.768,0,0,35.728-83.768,0,0-35.728z"/></clipPath><clipPath id="clipPath48445" clipPathUnits="userSpaceOnUse"><path id="path48447" clip-rule="evenodd" d="m229.61,35.663,83.768,0,0,35.728-83.768,0,0-35.728z"/></clipPath><clipPath id="clipPath48465" clipPathUnits="userSpaceOnUse"><path id="path48467" clip-rule="evenodd" d="m229.61,35.663,83.768,0,0,35.728-83.768,0,0-35.728z"/></clipPath><clipPath id="clipPath48493" clipPathUnits="userSpaceOnUse"><path id="path48495" clip-rule="evenodd" d="m70.832,93.012,40.384,0,0,11.811-40.384,0,0-11.811z"/></clipPath><clipPath id="clipPath48501" clipPathUnits="userSpaceOnUse"><path id="path48503" clip-rule="evenodd" d="m70.832,93.012,40.384,0,0,11.811-40.384,0,0-11.811z"/></clipPath><clipPath id="clipPath48525" clipPathUnits="userSpaceOnUse"><path id="path48527" clip-rule="evenodd" d="m141.17,92.257,65.199,0,0,11.844-65.199,0,0-11.844z"/></clipPath><clipPath id="clipPath48533" clipPathUnits="userSpaceOnUse"><path id="path48535" clip-rule="evenodd" d="m141.17,92.257,65.199,0,0,11.844-65.199,0,0-11.844z"/></clipPath><clipPath id="clipPath48557" clipPathUnits="userSpaceOnUse"><path id="path48559" clip-rule="evenodd" d="m16.896,68.143,90.605,0,0,11.811-90.605,0,0-11.811z"/></clipPath><clipPath id="clipPath48565" clipPathUnits="userSpaceOnUse"><path id="path48567" clip-rule="evenodd" d="m16.896,68.143,90.605,0,0,11.811-90.605,0,0-11.811z"/></clipPath><clipPath id="clipPath48593" clipPathUnits="userSpaceOnUse"><path id="path48595" clip-rule="evenodd" d="m39.302,9.2192,173.78,0,0,42.848-173.78,0,0-42.848z"/></clipPath><clipPath id="clipPath48601" clipPathUnits="userSpaceOnUse"><path id="path48603" clip-rule="evenodd" d="m39.302,9.2192,173.78,0,0,42.848-173.78,0,0-42.848z"/></clipPath><clipPath id="clipPath48613" clipPathUnits="userSpaceOnUse"><path id="path48615" clip-rule="evenodd" d="m39.302,9.2192,173.78,0,0,42.848-173.78,0,0-42.848z"/></clipPath><clipPath id="clipPath48625" clipPathUnits="userSpaceOnUse"><path id="path48627" clip-rule="evenodd" d="m39.302,9.2192,173.78,0,0,42.848-173.78,0,0-42.848z"/></clipPath><clipPath id="clipPath48637" clipPathUnits="userSpaceOnUse"><path id="path48639" clip-rule="evenodd" d="m39.302,9.2192,173.78,0,0,42.848-173.78,0,0-42.848z"/></clipPath><clipPath id="clipPath48649" clipPathUnits="userSpaceOnUse"><path id="path48651" clip-rule="evenodd" d="m39.302,9.2192,173.78,0,0,42.848-173.78,0,0-42.848z"/></clipPath><clipPath id="clipPath48697" clipPathUnits="userSpaceOnUse"><path id="path48699" clip-rule="evenodd" d="m6.3453,214.44,13.428,0,0,11.811-13.428,0,0-11.811z"/></clipPath><clipPath id="clipPath48705" clipPathUnits="userSpaceOnUse"><path id="path48707" clip-rule="evenodd" d="m6.3453,214.44,13.428,0,0,11.811-13.428,0,0-11.811z"/></clipPath><clipPath id="clipPath48729" clipPathUnits="userSpaceOnUse"><path id="path48731" clip-rule="evenodd" d="m64.117,214.44,13.428,0,0,11.811-13.428,0,0-11.811z"/></clipPath><clipPath id="clipPath48737" clipPathUnits="userSpaceOnUse"><path id="path48739" clip-rule="evenodd" d="m64.117,214.44,13.428,0,0,11.811-13.428,0,0-11.811z"/></clipPath><clipPath id="clipPath48761" clipPathUnits="userSpaceOnUse"><path id="path48763" clip-rule="evenodd" d="m118.05,215.26,17.118,0,0,11.844-17.118,0,0-11.844z"/></clipPath><clipPath id="clipPath48769" clipPathUnits="userSpaceOnUse"><path id="path48771" clip-rule="evenodd" d="m118.05,215.26,17.118,0,0,11.844-17.118,0,0-11.844z"/></clipPath><clipPath id="clipPath48793" clipPathUnits="userSpaceOnUse"><path id="path48795" clip-rule="evenodd" d="m172.7,214.44,17.118,0,0,11.811-17.118,0,0-11.811z"/></clipPath><clipPath id="clipPath48801" clipPathUnits="userSpaceOnUse"><path id="path48803" clip-rule="evenodd" d="m172.7,214.44,17.118,0,0,11.811-17.118,0,0-11.811z"/></clipPath></defs><g id="g4705" transform="matrix(1.25,0,0,-1.25,166.22077,698.29045)"><g id="g47987" transform="translate(-167.5515,208.76543)"><g id="g47989" clip-path="url(#clipPath47991)"><g id="g47995" transform="matrix(5.9833,0,0,4.3217,222.36,39.36)"><g id="g47997" transform="scale(0.22542,0.31142)"><g id="g47999" clip-path="url(#clipPath48001)"><g id="g48005"><path id="path48007" d="m114.44,57.743,78.751,0,0,31.89-78.751,0,0-31.89z" fill-rule="evenodd" fill="#FFF"/></g><g id="g48009"><g id="g48011" clip-path="url(#clipPath48013)"><g id="g48017"><g id="g48019" clip-path="url(#clipPath48021)"><text id="text48025" transform="matrix(1,0,0,-1,128.95,76.706)"><tspan id="tspan48027" style="writing-mode:lr-tb;" font-weight="normal" fill-rule="nonzero" font-size="7.50129986px" font-variant="normal" y="0" x="0 7.1712427 13.757384 20.928627 27.042187 35.301117 43.214989 49.801132" font-family="Arial" fill="#000000">RBHFMGV</tspan></text>
</g></g><g id="g48029"><g id="g48031" clip-path="url(#clipPath48033)"><text id="text48037" transform="matrix(1,0,0,-1,146.09,65.223)"><tspan id="tspan48039" style="writing-mode:lr-tb;" font-weight="normal" fill-rule="nonzero" font-size="7.50129986px" font-variant="normal" y="0" x="0 5.4984527 7.6588273 10.404304" font-family="Arial" fill="#000000">bits</tspan></text>
</g></g><g id="g48041"/></g></g><g id="g48049"><path id="path48051" d="m181.92,64.501,56.198,0,0,19.094-56.198,0,0-19.094z" fill-rule="evenodd" fill="#FFF"/></g><g id="g48053"><g id="g48055" clip-path="url(#clipPath48057)"><g id="g48061"><g id="g48063" clip-path="url(#clipPath48065)"><text id="text48069" transform="matrix(1,0,0,-1,189.11,70.801)"><tspan id="tspan48071" style="writing-mode:lr-tb;" font-weight="normal" fill-rule="nonzero" font-size="7.50129986px" font-variant="normal" y="0" x="0 3.3380785 8.8365316 13.869904 19.368357 22.706434 27.619787 33.11824" font-family="Arial" fill="#000000">reserved</tspan></text>
</g></g><g id="g48073"/></g></g><g id="g48081"><path id="path48083" d="m6.5913,89.37,58.485,0,0,19.062-58.485,0,0-19.062z" fill-rule="evenodd" fill="#FFF"/></g><g id="g48085"><g id="g48087" clip-path="url(#clipPath48089)"><g id="g48093"><g id="g48095" clip-path="url(#clipPath48097)"><text id="text48101" transform="matrix(1,0,0,-1,13.896,95.636)"><tspan id="tspan48103" style="writing-mode:lr-tb;" font-weight="normal" fill-rule="nonzero" font-size="7.50129986px" font-variant="normal" y="0" x="0 2.872998 7.6588273 13.284802 18.783255 21.52873 27.402248 30.147724 35.646179" font-family="Arial" fill="#000000">type = 16</tspan></text>
</g></g><g id="g48105"/></g></g><g id="g48113"><path id="path48115" d="m8.1407,187.5,55.386,0,0,19.062-55.386,0,0-19.062z" fill-rule="evenodd" fill="#FFF"/></g><g id="g48117"><g id="g48119" clip-path="url(#clipPath48121)"><g id="g48125"><g id="g48127" clip-path="url(#clipPath48129)"><text id="text48133" transform="matrix(1,0,0,-1,15.347,193.8)"><tspan id="tspan48135" style="writing-mode:lr-tb;" font-weight="normal" fill-rule="nonzero" font-size="7.50129986px" font-variant="normal" y="0" x="0 2.872998 7.6588273 13.284802 18.783255 21.52873 27.402248 30.147724" font-family="Arial" fill="#000000">type = 9</tspan></text>
</g></g><g id="g48137"/></g></g><g id="g48145"><path id="path48147" stroke-linejoin="round" d="m7.1815,2.8215,224.1,0,0,204.49-224.1,0,0-204.49z" stroke="#000" stroke-linecap="butt" stroke-miterlimit="10" stroke-dasharray="none" stroke-width="1.54939997" fill="none"/></g><g id="g48149"><path id="path48151" stroke-linejoin="round" d="m118.52,112.57,0-52.892" stroke="#000" stroke-linecap="butt" stroke-miterlimit="10" stroke-dasharray="none" stroke-width="0.71323001" fill="none"/></g><g id="g48153"><path id="path48155" stroke-linejoin="round" d="m186.6,84.547,0-23.786" stroke="#000" stroke-linecap="butt" stroke-miterlimit="10" stroke-dasharray="none" stroke-width="0.71323001" fill="none"/></g><g id="g48157"><path id="path48159" stroke-linejoin="round" d="m63.158,110.99,0-23.063" stroke="#000" stroke-linecap="butt" stroke-miterlimit="10" stroke-dasharray="none" stroke-width="0.71323001" fill="none"/></g><g id="g48161"><path id="path48163" d="m62.322,186.29,55.485,0,0,19.094-55.485,0,0-19.094z" fill-rule="evenodd" fill="#FFF"/></g><g id="g48165"><g id="g48167" clip-path="url(#clipPath48169)"><g id="g48173"><g id="g48175" clip-path="url(#clipPath48177)"><text id="text48181" transform="matrix(1,0,0,-1,69.626,192.45)"><tspan id="tspan48183" style="writing-mode:lr-tb;" font-weight="normal" fill-rule="nonzero" font-size="7.50129986px" font-variant="normal" y="0" x="0 5.0333724 10.531825 16.030277 21.52873 24.40173 30.147724 32.8932" font-family="Arial" fill="#000000">code = 0</tspan></text>
</g></g><g id="g48185"/><g id="g48193"><g id="g48195" clip-path="url(#clipPath48197)"><text id="text48201" transform="matrix(1,0,0,-1,69.626,181.1)"><tspan id="tspan48203" style="writing-mode:lr-tb;" font-weight="normal" fill-rule="nonzero" font-size="7.50129986px" font-variant="normal" y="0" x="0 5.6259751 8.123908" font-family="Times New Roman" fill="#000000">= 9</tspan></text>
</g></g><g id="g48205"/></g></g><g id="g48213"><path id="path48215" d="m148.01,187.5,60.404,0,0,19.062-60.404,0,0-19.062z" fill-rule="evenodd" fill="#FFF"/></g><g id="g48217"><g id="g48219" clip-path="url(#clipPath48221)"><g id="g48225"><g id="g48227" clip-path="url(#clipPath48229)"><text id="text48233" transform="matrix(1,0,0,-1,155.19,193.8)"><tspan id="tspan48235" style="writing-mode:lr-tb;" font-weight="normal" fill-rule="nonzero" font-size="7.50129986px" font-variant="normal" y="0" x="0" font-family="Times New Roman" fill="#000000">c</tspan></text>
</g></g><g id="g48237"><g id="g48239" clip-path="url(#clipPath48241)"><text id="text48245" transform="matrix(1,0,0,-1,159.62,193.8)"><tspan id="tspan48247" style="writing-mode:lr-tb;" font-weight="normal" fill-rule="nonzero" font-size="7.50129986px" font-variant="normal" y="0" x="0 5.4984527 10.996905 16.030277 21.191172 26.224545 31.602978" font-family="Arial" fill="#000000">hecksum</tspan></text>
</g></g><g id="g48249"/><g id="g48257"><g id="g48259" clip-path="url(#clipPath48261)"><text id="text48265" transform="matrix(1,0,0,-1,155.19,182.19)"><tspan id="tspan48267" style="writing-mode:lr-tb;" font-weight="normal" fill-rule="nonzero" font-size="7.50129986px" font-variant="normal" y="0" x="0 5.6259751 8.123908" font-family="Times New Roman" fill="#000000">= 9</tspan></text>
</g></g><g id="g48269"/></g></g><g id="g48277"><path id="path48279" stroke-linejoin="round" d="m7.6734,186.06,224.23,0" stroke="#000" stroke-linecap="butt" stroke-miterlimit="10" stroke-dasharray="none" stroke-width="0.71323001" fill="none"/></g><g id="g48281"><path id="path48283" stroke-linejoin="round" d="m63.035,214.9,0-30.78" stroke="#000" stroke-linecap="butt" stroke-miterlimit="10" stroke-dasharray="none" stroke-width="0.71323001" fill="none"/></g><g id="g48285"><path id="path48287" stroke-linejoin="round" d="m118.52,214.3,0-30.67" stroke="#000" stroke-linecap="butt" stroke-miterlimit="10" stroke-dasharray="none" stroke-width="0.71323001" fill="none"/></g><g id="g48289"><path id="path48291" stroke-linejoin="round" d="m174.37,213.81,0-6.03" stroke="#000" stroke-linecap="butt" stroke-miterlimit="10" stroke-dasharray="none" stroke-width="0.71323001" fill="none"/></g><g id="g48293"><path id="path48295" stroke-linejoin="round" d="m6.124,162.4,224.21,0" stroke="#000" stroke-linecap="butt" stroke-miterlimit="10" stroke-dasharray="none" stroke-width="0.71323001" fill="none"/></g><g id="g48297"><path id="path48299" stroke-linejoin="round" d="m63.035,184.38,0-21.98" stroke="#000" stroke-linecap="butt" stroke-miterlimit="10" stroke-dasharray="none" stroke-width="0.71323001" fill="none"/></g><g id="g48301"><path id="path48303" stroke-linejoin="round" d="m118.52,184.02,0-21.85" stroke="#000" stroke-linecap="butt" stroke-miterlimit="10" stroke-dasharray="none" stroke-width="0.71323001" fill="none"/></g><g id="g48305"><path id="path48307" stroke-linejoin="round" d="m174.72,185.11,0-22.71" stroke="#000" stroke-linecap="butt" stroke-miterlimit="10" stroke-dasharray="none" stroke-width="0.71323001" fill="none"/></g><g id="g48309"><path id="path48311" stroke-linejoin="round" d="m6.4683,137.66,224.22,0" stroke="#000" stroke-linecap="butt" stroke-miterlimit="10" stroke-dasharray="none" stroke-width="0.71323001" fill="none"/></g><g id="g48313"><path id="path48315" d="m75.504,140.68,87.728,0,0,19.062-87.728,0,0-19.062z" fill-rule="evenodd" fill="#FFF"/></g><g id="g48317"><g id="g48319" clip-path="url(#clipPath48321)"><g id="g48325"><g id="g48327" clip-path="url(#clipPath48329)"><text id="text48333" transform="matrix(1,0,0,-1,82.809,146.95)"><tspan id="tspan48335" style="writing-mode:lr-tb;" font-weight="normal" fill-rule="nonzero" font-size="7.50129986px" font-variant="normal" y="0" x="0 3.3380785 8.8365316 14.334984 17.08046 22.578913 25.916992 28.662468 34.288441 39.786896 45.285347 48.623428 54.12188 59.155251" font-family="Arial" fill="#000000">router address</tspan></text>
</g></g><g id="g48337"/></g></g><g id="g48345"><path id="path48347" stroke-linejoin="round" d="m7.9194,111.94,224.2,0" stroke="#000" stroke-linecap="butt" stroke-miterlimit="10" stroke-dasharray="none" stroke-width="1.54939997" fill="none"/></g><g id="g48349"><path id="path48351" d="m238.61,145.14,71.889,0,0,30.184-71.889,0,0-30.184z" fill-rule="evenodd" fill="#FFF"/></g><g id="g48353"><g id="g48355" clip-path="url(#clipPath48357)"><g id="g48361"><g id="g48363" clip-path="url(#clipPath48365)"><text id="text48369" transform="matrix(1,0,0,-1,255.14,162.4)"><tspan id="tspan48371" style="writing-mode:lr-tb;" font-weight="normal" fill-rule="nonzero" font-size="7.50129986px" font-variant="normal" y="0" x="0 5.0333724 7.7788482 13.277301 18.775753 24.274206 29.772659 33.110737" font-family="Arial" fill="#000000">standard</tspan></text>
</g></g><g id="g48373"/><g id="g48381"><g id="g48383" clip-path="url(#clipPath48385)"><text id="text48389" transform="matrix(1,0,0,-1,249.04,150.82)"><tspan id="tspan48391" style="writing-mode:lr-tb;" font-weight="normal" fill-rule="nonzero" font-size="7.50129986px" font-variant="normal" y="0" x="0 2.7454758 9.9167185 18.17565 24.881813 27.627289 30.500286 32.66066 38.159115 40.319489 45.81794" font-family="Arial" fill="#000000">ICMP fields</tspan></text>
</g></g><g id="g48393"/></g></g><g id="g48401"><path id="path48403" stroke-linejoin="round" d="m274.53,177.41,0,23.16,0,0.14,0.13,0.13,0.12,0.1,0.1,0,0.12,0,0.12-0.1,0.13-0.13,0-0.14,0-23.16,0-0.13-0.13-0.1-0.12-0.13-0.12,0-0.1,0-0.12,0.13-0.13,0.1,0,0.13,0,0zm-2.63,22.21,2.98,6.04,3-6.04-5.98,0z" fill-rule="nonzero" stroke="#000" stroke-linecap="butt" stroke-miterlimit="10" stroke-dasharray="none" stroke-width="0.14" fill="#000"/></g><g id="g48405"><path id="path48407" stroke-linejoin="round" d="m276.21,145.29,0-26.18,0-0.13-0.13-0.1-0.12-0.13-0.12,0-0.1,0-0.12,0.13-0.13,0.1,0,0.13,0,26.18,0,0.13,0.13,0.13,0.12,0.1,0.1,0,0.12,0,0.12-0.1,0.13-0.13,0-0.13,0,0zm2.63-25.23-3-6.03-2.98,6.03,5.98,0z" fill-rule="nonzero" stroke="#000" stroke-linecap="butt" stroke-miterlimit="10" stroke-dasharray="none" stroke-width="0.14" fill="#000"/></g><g id="g48409"><path id="path48411" stroke-linejoin="round" d="m275,71.539,0,36.451,0,0.26,0.12,0.1,0.13,0,0.12,0,0.12,0,0.13,0,0.12-0.1,0-0.26,0-36.451,0-0.099-0.12-0.131-0.13-0.131-0.12,0-0.12,0-0.13,0.131-0.12,0.131,0,0.099,0,0zm-2.63,35.501,3,6.03,3-6.03-6,0z" fill-rule="nonzero" stroke="#000" stroke-linecap="butt" stroke-miterlimit="10" stroke-dasharray="none" stroke-width="0.14" fill="#000"/></g><g id="g48413"><path id="path48415" stroke-linejoin="round" d="m275.96,32.562,0-26.673,0-0.1312-0.12-0.0984-0.1,0-0.12-0.1313-0.13,0.1313-0.12,0-0.12,0.0984,0,0.1312,0,26.673,0,0.23,0.12,0.131,0.12,0,0.13,0,0.12,0,0.1,0,0.12-0.131,0-0.23,0,0zm2.63-25.59-2.97-6.0368-3,6.0368,5.97,0z" fill-rule="nonzero" stroke="#000" stroke-linecap="butt" stroke-miterlimit="10" stroke-dasharray="none" stroke-width="0.14" fill="#000"/></g><g id="g48417"><path id="path48419" d="m224.57,32.054,93.606,0,0,42.946-93.606,0,0-42.946z" fill-rule="evenodd" fill="#FFF"/></g><g id="g48421"><g id="g48423" clip-path="url(#clipPath48425)"><g id="g48429"><g id="g48431" clip-path="url(#clipPath48433)"><text id="text48437" transform="matrix(1,0,0,-1,240.75,62.106)"><tspan id="tspan48439" style="writing-mode:lr-tb;" font-weight="normal" fill-rule="nonzero" font-size="7.50129986px" font-variant="normal" y="0" x="0 8.4989729 13.997426 19.495878 21.656254 23.816628 25.977001 28.85 33.63583 36.508827 42.007278 47.633255 53.131706 58.630161 61.375637" font-family="Arial" fill="#000000">mobility agent</tspan></text>
</g></g><g id="g48441"><g id="g48443" clip-path="url(#clipPath48445)"><text id="text48449" transform="matrix(1,0,0,-1,240.16,50.525)"><tspan id="tspan48451" style="writing-mode:lr-tb;" font-weight="normal" fill-rule="nonzero" font-size="7.50129986px" font-variant="normal" y="0" x="0 5.4984527 10.996905 16.030277 21.52873 24.86681 27.612286 29.772659 34.80603 40.304485 48.803459 54.30191 59.800365 62.545841" font-family="Arial" fill="#000000">advertisement</tspan></text>
</g></g><g id="g48453"/><g id="g48461"><g id="g48463" clip-path="url(#clipPath48465)"><text id="text48469" transform="matrix(1,0,0,-1,250.1,39.042)"><tspan id="tspan48471" style="writing-mode:lr-tb;" font-weight="normal" fill-rule="nonzero" font-size="7.50129986px" font-variant="normal" y="0" x="0 5.4984527 10.531825 13.277301 18.775753 24.274206 29.307579 31.467953 37.093929" font-family="Arial" fill="#000000">extension</tspan></text>
</g></g><g id="g48473"/></g></g><g id="g48481"><path id="path48483" stroke-linejoin="round" d="m7.9194,86.844,224.2,0" stroke="#000" stroke-linecap="butt" stroke-miterlimit="10" stroke-dasharray="none" stroke-width="0.71323001" fill="none"/></g><g id="g48485"><path id="path48487" d="m65.79,89.37,50.222,0,0,19.062-50.222,0,0-19.062z" fill-rule="evenodd" fill="#FFF"/></g><g id="g48489"><g id="g48491" clip-path="url(#clipPath48493)"><g id="g48497"><g id="g48499" clip-path="url(#clipPath48501)"><text id="text48505" transform="matrix(1,0,0,-1,73.094,95.636)"><tspan id="tspan48507" style="writing-mode:lr-tb;" font-weight="normal" fill-rule="nonzero" font-size="7.50129986px" font-variant="normal" y="0" x="0 2.1603744 7.6588273 13.284802 18.783255 21.52873" font-family="Arial" fill="#000000">length</tspan></text>
</g></g><g id="g48509"/></g></g><g id="g48517"><path id="path48519" d="m136.25,88.648,74.914,0,0,19.062-74.914,0,0-19.062z" fill-rule="evenodd" fill="#FFF"/></g><g id="g48521"><g id="g48523" clip-path="url(#clipPath48525)"><g id="g48529"><g id="g48531" clip-path="url(#clipPath48533)"><text id="text48537" transform="matrix(1,0,0,-1,143.46,94.915)"><tspan id="tspan48539" style="writing-mode:lr-tb;" font-weight="normal" fill-rule="nonzero" font-size="7.50129986px" font-variant="normal" y="0" x="0 5.0333724 10.531825 16.030277 21.52873 27.027184 32.525639 37.55901 43.184982 45.930458" font-family="Arial" fill="#000000">sequence #</tspan></text>
</g></g><g id="g48541"/></g></g><g id="g48549"><path id="path48551" d="m11.854,64.501,100.44,0,0,19.094-100.44,0,0-19.094z" fill-rule="evenodd" fill="#FFF"/></g><g id="g48553"><g id="g48555" clip-path="url(#clipPath48557)"><g id="g48561"><g id="g48563" clip-path="url(#clipPath48565)"><text id="text48569" transform="matrix(1,0,0,-1,19.184,70.801)"><tspan id="tspan48571" style="writing-mode:lr-tb;" font-weight="normal" fill-rule="nonzero" font-size="7.50129986px" font-variant="normal" y="0" x="0 3.3380785 8.8365316 14.334984 16.495359 21.52873 24.274206 27.612286 33.110737 35.983738 38.144112 43.642563 49.141018 52.014015 54.174389 56.334763 59.20776 64.706215 67.579208 69.739586 78.238556" font-family="Arial" fill="#000000">registration lifetime</tspan></text>
</g></g><g id="g48573"/></g></g><g id="g48581"><path id="path48583" stroke-linejoin="round" d="m7.9194,59.678,224.2,0" stroke="#000" stroke-linecap="butt" stroke-miterlimit="10" stroke-dasharray="none" stroke-width="0.71323001" fill="none"/></g><g id="g48585"><path id="path48587" d="m34.383,5.6102,183.5,0,0,50.098-183.5,0,0-50.098z" fill-rule="evenodd" fill="#FFF"/></g><g id="g48589"><g id="g48591" clip-path="url(#clipPath48593)"><g id="g48597"><g id="g48599" clip-path="url(#clipPath48601)"><text id="text48605" transform="matrix(1,0,0,-1,54.157,35.302)"><tspan id="tspan48607" style="writing-mode:lr-tb;" font-weight="normal" fill-rule="nonzero" font-size="13.57600021px" font-variant="normal" y="0" x="0 9.9240561 14.947176 24.871231 30.858248 35.881367 50.842121 60.766174 66.753189 76.677246 81.700371 90.66053 100.58459 106.5716" font-family="Arial" fill="#000000">0 or more care</tspan></text>
</g></g><g id="g48609"><g id="g48611" clip-path="url(#clipPath48613)"><text id="text48617" transform="matrix(1,0,0,-1,171,35.302)"><tspan id="tspan48619" style="writing-mode:lr-tb;" font-weight="normal" fill-rule="nonzero" font-size="13.57600021px" font-variant="normal" y="0" x="0" font-family="Arial" fill="#000000">-</tspan></text>
</g></g><g id="g48621"><g id="g48623" clip-path="url(#clipPath48625)"><text id="text48629" transform="matrix(1,0,0,-1,177.01,35.302)"><tspan id="tspan48631" style="writing-mode:lr-tb;" font-weight="normal" fill-rule="nonzero" font-size="13.57600021px" font-variant="normal" y="0" x="0 9.9382563" font-family="Arial" fill="#000000">of</tspan></text>
</g></g><g id="g48633"><g id="g48635" clip-path="url(#clipPath48637)"><text id="text48641" transform="matrix(1,0,0,-1,191.98,35.302)"><tspan id="tspan48643" style="writing-mode:lr-tb;" font-weight="normal" fill-rule="nonzero" font-size="13.57600021px" font-variant="normal" y="0" x="0" font-family="Arial" fill="#000000">-</tspan></text>
</g></g><g id="g48645"><g id="g48647" clip-path="url(#clipPath48649)"><text id="text48653" transform="matrix(1,0,0,-1,84.727,14.403)"><tspan id="tspan48655" style="writing-mode:lr-tb;" font-weight="normal" fill-rule="nonzero" font-size="13.57600021px" font-variant="normal" y="0" x="0 9.9240561 19.848112 29.772167 35.881367 45.805424 54.765583 63.725742 73.649803" font-family="Arial" fill="#000000">addresses</tspan></text>
</g></g><g id="g48657"/></g></g><g id="g48665"><path id="path48667" d="m223.86,26.017,13.551,0,0,10.597-13.551,0,0-10.597z" fill-rule="evenodd" fill="#FFF"/></g><g id="g48669"><path id="path48671" stroke-linejoin="round" d="m223.86,32.874,0.96,0.623,0.96,0.361,0.71,0.492,0.74,0.23,0.71,0.131,0.47,0.099,0.49,0.131,0.47,0,0.37-0.131,0.36-0.099,0.23-0.131,0.24-0.23,0.25-0.262,0.24-0.23,0.22-0.492,0.37-0.59,0.13-0.263,0.12-0.098,0.22-0.263,0.25-0.098,0.12-0.131,0.37,0,0.22,0,0.37,0.131,0.49,0.098,0.35,0.263,0.61,0.361,0.59,0.36,0.59,0.591,0.84,0.623" stroke="#000" stroke-linecap="butt" stroke-miterlimit="10" stroke-dasharray="none" stroke-width="1.54939997" fill="none"/></g><g id="g48673"><path id="path48675" stroke-linejoin="round" d="m224.35,27.559,1.08,0.623,0.84,0.493,0.83,0.36,0.72,0.23,0.59,0.23,0.49,0.131,0.59,0,0.37,0,0.34-0.131,0.37-0.099,0.25-0.131,0.24-0.23,0.22-0.262,0.25-0.23,0.25-0.492,0.34-0.492,0.12-0.23,0.25-0.229,0.12-0.263,0.25-0.098,0.22-0.131,0.25,0,0.24,0,0.37,0.131,0.47,0.098,0.49,0.263,0.47,0.361,0.59,0.492,0.61,0.459,0.84,0.623" stroke="#000" stroke-linecap="butt" stroke-miterlimit="10" stroke-dasharray="none" stroke-width="1.54939997" fill="none"/></g><g id="g48677"><path id="path48679" d="m0.71323,26.837,13.428,0,0,10.499-13.428,0,0-10.499z" fill-rule="evenodd" fill="#FFF"/></g><g id="g48681"><path id="path48683" stroke-linejoin="round" d="m0.71323,33.596,0.95917,0.623,0.8362,0.492,0.8362,0.361,0.7379,0.23,0.5902,0.23,0.5903,0.131,0.4919,0,0.3689,0,0.4673-0.131,0.2459-0.099,0.3443-0.131,0.246-0.23,0.1229-0.262,0.246-0.23,0.3443-0.492,0.246-0.492,0.2459-0.23,0.123-0.23,0.1229-0.262,0.2214-0.098,0.2459-0.132,0.246,0,0.3443,0,0.3689,0.132,0.369,0.098,0.467,0.262,0.492,0.361,0.59,0.46,0.714,0.492,0.713,0.623" stroke="#000" stroke-linecap="butt" stroke-miterlimit="10" stroke-dasharray="none" stroke-width="1.54939997" fill="none"/></g><g id="g48685"><path id="path48687" stroke-linejoin="round" d="m1.2051,28.314,0.9592,0.59,0.9592,0.492,0.7132,0.361,0.7132,0.23,0.6149,0.23,0.5903,0.131,0.4673,0,0.4918,0,0.3444-0.131,0.2459-0.099,0.3689-0.131,0.246-0.23,0.2213-0.131,0.123-0.361,0.3689-0.492,0.2459-0.459,0.2214-0.263,0.123-0.229,0.2459-0.132,0.123-0.229,0.2459,0,0.2213-0.132,0.369,0,0.369,0.132,0.344,0.229,0.492,0.263,0.467,0.229,0.615,0.493,0.713,0.459,0.714,0.722" stroke="#000" stroke-linecap="butt" stroke-miterlimit="10" stroke-dasharray="none" stroke-width="1.54939997" fill="none"/></g><g id="g48689"><path id="path48691" d="m1.4265,210.79,23.143,0,0,19.193-23.143,0,0-19.193z" fill-rule="evenodd" fill="#FFF"/></g><g id="g48693"><g id="g48695" clip-path="url(#clipPath48697)"><g id="g48701"><g id="g48703" clip-path="url(#clipPath48705)"><text id="text48709" transform="matrix(1,0,0,-1,8.6326,217.09)"><tspan id="tspan48711" style="writing-mode:lr-tb;" font-weight="normal" fill-rule="nonzero" font-size="7.50129986px" font-variant="normal" y="0" x="0" font-family="Arial" fill="#000000">0</tspan></text>
</g></g><g id="g48713"/></g></g><g id="g48721"><path id="path48723" d="m59.075,210.79,23.266,0,0,19.193-23.266,0,0-19.193z" fill-rule="evenodd" fill="#FFF"/></g><g id="g48725"><g id="g48727" clip-path="url(#clipPath48729)"><g id="g48733"><g id="g48735" clip-path="url(#clipPath48737)"><text id="text48741" transform="matrix(1,0,0,-1,66.282,217.09)"><tspan id="tspan48743" style="writing-mode:lr-tb;" font-weight="normal" fill-rule="nonzero" font-size="7.50129986px" font-variant="normal" y="0" x="0" font-family="Arial" fill="#000000">8</tspan></text>
</g></g><g id="g48745"/></g></g><g id="g48753"><path id="path48755" d="m113.01,211.65,26.955,0,0,19.062-26.955,0,0-19.062z" fill-rule="evenodd" fill="#FFF"/></g><g id="g48757"><g id="g48759" clip-path="url(#clipPath48761)"><g id="g48765"><g id="g48767" clip-path="url(#clipPath48769)"><text id="text48773" transform="matrix(1,0,0,-1,120.19,217.91)"><tspan id="tspan48775" style="writing-mode:lr-tb;" font-weight="normal" fill-rule="nonzero" font-size="7.50129986px" font-variant="normal" y="0" x="0 5.5107226" font-family="Arial" fill="#000000">16</tspan></text>
</g></g><g id="g48777"/></g></g><g id="g48785"><path id="path48787" d="m167.66,210.79,26.955,0,0,19.193-26.955,0,0-19.193z" fill-rule="evenodd" fill="#FFF"/></g><g id="g48789"><g id="g48791" clip-path="url(#clipPath48793)"><g id="g48797"><g id="g48799" clip-path="url(#clipPath48801)"><text id="text48805" transform="matrix(1,0,0,-1,174.96,217.09)"><tspan id="tspan48807" style="writing-mode:lr-tb;" font-weight="normal" fill-rule="nonzero" font-size="7.50129986px" font-variant="normal" y="0" x="0 5.5107226" font-family="Arial" fill="#000000">24</tspan></text>
</g></g><g id="g48809"/></g></g><g id="g48817"><path id="path48819" stroke-linejoin="round" d="m267.12,114.24,16.67-0.72" stroke="#000" stroke-linecap="butt" stroke-miterlimit="10" stroke-dasharray="none" stroke-width="1.54939997" fill="none"/></g><g id="g48821"><path id="path48823" stroke-linejoin="round" d="M267.12,2.5919,283.79,1.8701" stroke="#000" stroke-linecap="butt" stroke-miterlimit="10" stroke-dasharray="none" stroke-width="1.54939997" fill="none"/></g><g id="g48825"><path id="path48827" stroke-linejoin="round" d="m267.12,206.2,16.67-0.72" stroke="#000" stroke-linecap="butt" stroke-miterlimit="10" stroke-dasharray="none" stroke-width="1.54939997" fill="none"/></g></g></g></g></g></g><g id="g48829" transform="translate(-167.5515,208.76543)"><g id="g48831" clip-path="url(#clipPath48833)"><text id="text48837" transform="matrix(1,0,0,-1,33.456,190.92)"><tspan id="tspan48839" style="writing-mode:lr-tb;" font-weight="normal" fill-rule="nonzero" font-size="18px" font-variant="normal" y="0" x="0 12.996 18 28.007999 31.914 36.917999 41.976002 46.98 52.973999 62.981998 72.935997 76.931999 85.931999 90.935997 96.93 106.938 111.942 115.938 125.856 135.864" font-family="Arial" fill="#000000">R bit: registration</tspan></text>
</g></g><g id="g48841" transform="translate(-167.5515,208.76543)"><g id="g48843" clip-path="url(#clipPath48845)"><text id="text48849" transform="matrix(1,0,0,-1,33.456,169.32)"><tspan id="tspan48851" style="writing-mode:lr-tb;" font-weight="normal" fill-rule="nonzero" font-size="18px" font-variant="normal" y="0" x="0 5.994 16.002001 25.92 35.928001 39.834 45.827999 55.835999" font-family="Arial" fill="#000000">required</tspan></text>
</g></g><g id="g48853" transform="translate(-167.5515,208.76543)"><g id="g48855" clip-path="url(#clipPath48857)"><text id="text48861" transform="matrix(1,0,0,-1,34.32,264.43)"><tspan id="tspan48863" style="writing-mode:lr-tb;" font-weight="normal" fill-rule="nonzero" font-size="18px" font-variant="normal" y="0" x="0 12.996 18 29.07 33.984001 43.992001 47.933998 52.938 61.973999 66.977997 72.036003 82.043999 92.052002 107.046 117.054 122.148 132.15601 142.164 152.10001 157.104 167.112 173.106" font-family="Arial" fill="#000000">H,F bits: home and/or</tspan></text>
</g></g><g id="g48865" transform="translate(-167.5515,208.76543)"><g id="g48867" clip-path="url(#clipPath48869)"><text id="text48873" transform="matrix(1,0,0,-1,34.32,242.83)"><tspan id="tspan48875" style="writing-mode:lr-tb;" font-weight="normal" fill-rule="nonzero" font-size="18px" font-variant="normal" y="0" x="0 5.0040002 15.012 21.006001 31.014 35.009998 44.945999 54.953999 60.066002 70.073997 80.082001 90.017998 100.026" font-family="Arial" fill="#000000">foreign agent</tspan></text>
</g></g><path id="path48877" stroke-linejoin="round" d="m52.229,451.95,199.92-86.88" stroke="#33C" stroke-linecap="butt" stroke-miterlimit="10" stroke-dasharray="none" stroke-width="2.27999997" fill="none"/><path id="path48879" stroke-linejoin="round" d="m29.549,406.35,196.08-45.84" stroke="#33C" stroke-linecap="butt" stroke-miterlimit="10" stroke-dasharray="none" stroke-width="2.27999997" fill="none"/></g></svg>
