<?xml version="1.0" encoding="UTF-8" standalone="no"?>
<!-- Created with Inkscape (http://www.inkscape.org/) -->

<svg
   xmlns:dc="http://purl.org/dc/elements/1.1/"
   xmlns:cc="http://creativecommons.org/ns#"
   xmlns:rdf="http://www.w3.org/1999/02/22-rdf-syntax-ns#"
   xmlns:svg="http://www.w3.org/2000/svg"
   xmlns="http://www.w3.org/2000/svg"
   xmlns:sodipodi="http://sodipodi.sourceforge.net/DTD/sodipodi-0.dtd"
   xmlns:inkscape="http://www.inkscape.org/namespaces/inkscape"
   sodipodi:docname="AM.svg"
   width="23.98889cm"
   height="9.0924187cm"
   viewBox="0 0 850.00006 322.1723"
   id="svg2"
   version="1.1"
   inkscape:version="0.91 r13725">
  <sodipodi:namedview
     units="cm"
     fit-margin-bottom="0"
     fit-margin-right="0"
     fit-margin-left="0"
     fit-margin-top="0"
     id="base"
     pagecolor="#ffffff"
     bordercolor="#666666"
     borderopacity="1.0"
     inkscape:pageopacity="0.0"
     inkscape:pageshadow="2"
     inkscape:zoom="0.76617097"
     inkscape:cx="464.91422"
     inkscape:cy="165.27331"
     inkscape:document-units="px"
     inkscape:current-layer="svg2"
     showgrid="false"
     inkscape:window-width="1366"
     inkscape:window-height="719"
     inkscape:window-x="0"
     inkscape:window-y="25"
     inkscape:window-maximized="1" />
  <defs
     id="defs4" />
  <metadata
     id="metadata7">
    <rdf:RDF>
      <cc:Work
         rdf:about="">
        <dc:format>image/svg+xml</dc:format>
        <dc:type
           rdf:resource="http://purl.org/dc/dcmitype/StillImage" />
        <dc:title></dc:title>
      </cc:Work>
    </rdf:RDF>
  </metadata>
  <g
     transform="translate(246.82745,-1379.5535)"
     id="layer1"
     inkscape:groupmode="layer"
     inkscape:label="Layer 1">
    <path
       inkscape:connector-curvature="0"
       id="path4299"
       title="0.3*sin(x)"
       d="m -246.63259,1552.6025 c 0.71697,-4.7542 1.43395,-9.5062 2.15092,-13.8898 0.71698,-4.3836 1.43395,-8.3932 2.15093,-11.7221 0.71698,-3.3289 1.43395,-5.9703 2.15093,-7.7249 0.71697,-1.7545 1.43395,-2.6156 2.15092,-2.522 0.71698,0.094 1.43396,1.1472 2.15093,3.0744 0.71698,1.9271 1.43395,4.7311 2.15093,8.191 0.71697,3.4598 1.43395,7.5765 2.15093,12.0292 0.71697,4.4527 1.43395,9.2396 2.15092,13.9901 0.71698,4.7506 1.43395,9.4606 2.15093,13.7676 0.71698,4.307 1.43395,8.2051 2.15093,11.3964 0.71697,3.1913 1.43395,5.669 2.15092,7.2465 0.71698,1.5775 1.43395,2.2483 2.15093,1.9658 0.71698,-0.2825 1.43395,-1.5235 2.15093,-3.6219 0.71697,-2.0983 1.43395,-5.0573 2.15092,-8.6441 0.71698,-3.5868 1.43396,-7.802 2.15093,-12.3174 0.71698,-4.5154 1.43395,-9.329 2.15093,-14.0683 0.71697,-4.7393 1.43395,-9.4 2.15093,-13.6236 0.71697,-4.2236 1.43395,-8.004 2.15092,-11.0526 0.71698,-3.0487 1.43395,-5.3588 2.15093,-6.7568 0.71697,-1.3979 1.43395,-1.8772 2.15093,-1.4063 0.71697,0.4709 1.43395,1.8972 2.15092,4.1636 0.71698,2.2663 1.43395,5.3756 2.15093,9.0836 0.71698,3.708 1.43395,8.0151 2.15093,12.5861 0.71697,4.571 1.43395,9.4036 2.15092,14.1242 0.71698,4.7206 1.43396,9.3246 2.15093,13.458 0.71698,4.1335 1.43395,7.7903 2.15093,10.6915 0.71697,2.9012 1.43395,5.0401 2.15092,6.2562 0.71698,1.2162 1.43396,1.5034 2.15093,0.8447 0.71698,-0.6586 1.43395,-2.268 2.15093,-4.6987 0.71697,-2.4307 1.43395,-5.6854 2.15093,-9.5088 0.71697,-3.8234 1.43395,-8.2155 2.15092,-12.8349 0.71698,-4.6193 1.43395,-9.4634 2.15093,-14.1578 0.71698,-4.6944 1.43395,-9.2343 2.15093,-13.2711 0.71697,-4.0368 1.43395,-7.5642 2.15092,-10.3134 0.71698,-2.7491 1.43396,-4.7133 2.15093,-5.7458 0.71698,-1.0325 1.43395,-1.1271 2.15093,-0.2818 0.71697,0.8454 1.43395,2.6353 2.15093,5.2265 0.71697,2.5912 1.43395,5.9862 2.15092,9.9189 0.71698,3.9327 1.43395,8.4029 2.15093,13.0633 0.71697,4.6604 1.43395,9.5083 2.15093,14.169 0.71697,4.6608 1.43395,9.1296 2.15092,13.0634 0.71698,3.9337 1.43395,7.3261 2.15093,9.9189 0.71697,2.5928 1.43395,4.3792 2.15093,5.2264 0.71697,0.8472 1.43395,0.749 2.15092,-0.2817 0.71698,-1.0306 1.43395,-2.9982 2.15093,-5.7459 0.71698,-2.7476 1.43395,-6.2775 2.15093,-10.3133 0.71697,-4.0358 1.43395,-8.5771 2.15092,-13.2712 0.71698,-4.6941 1.43396,-9.538 2.15093,-14.1578 0.71698,-4.6198 1.43395,-9.0103 2.15093,-12.8348 0.71697,-3.8245 1.43395,-7.0765 2.15093,-9.5088 0.71697,-2.4324 1.43395,-4.0382 2.15092,-4.6988 0.71698,-0.6605 1.43395,-0.3696 2.15093,0.8447 0.71698,1.2144 1.43395,3.3566 2.15093,6.2563 0.71697,2.8997 1.43395,6.5589 2.15092,10.6914 0.71698,4.1325 1.43395,8.7377 2.15093,13.458 0.71698,4.7204 1.43395,9.5527 2.15093,14.1243 0.71697,4.5715 1.43395,8.8768 2.15092,12.586 0.71698,3.7092 1.43396,6.8157 2.15093,9.0837 0.71698,2.268 1.43395,3.6907 2.15093,4.1636 0.71697,0.4728 1.43395,-0.01 2.15093,-1.4064 0.71697,-1.3961 1.43395,-3.7095 2.15092,-6.7567 0.71698,-3.0472 1.43395,-6.8299 2.15093,-11.0526 0.71698,-4.2227 1.43395,-8.8844 2.15093,-13.6236 0.71697,-4.7392 1.43395,-9.5523 2.15092,-14.0683 0.71698,-4.516 1.43396,-8.7294 2.15093,-12.3174 0.71698,-3.588 1.43395,-6.5441 2.15093,-8.6442 0.71697,-2.1001 1.43395,-3.3374 2.15093,-3.6218 0.71697,-0.2844 1.43395,0.39 2.15092,1.9657 0.716977,1.5757 1.433953,4.0567 2.150928,7.2466 0.716977,3.1898 1.433952,7.0901 2.150927,11.3963 0.716977,4.3062 1.433952,9.0172 2.150927,13.7676 0.716975,4.7505 1.433952,9.5368 2.150927,13.9902 0.716976,4.4533 1.433952,8.568 2.150928,12.0292 0.716975,3.4612 1.43395,6.2622 2.150927,8.191 0.716975,1.9288 1.43395,2.9789 2.150927,3.0744 0.716975,0.096 1.43395,-0.7693 2.150926,-2.5221 0.716977,-1.7528 1.433952,-4.3973 2.150927,-7.7248 0.716977,-3.3276 1.433952,-7.3392 2.150927,-11.7221 0.716975,-4.3829 1.433952,-9.1356 2.150927,-13.8899"
       style="opacity:0.706;fill:none;fill-opacity:1;stroke:#0000d1;stroke-width:1.60000014;stroke-miterlimit:4;stroke-dasharray:none;stroke-dashoffset:0;stroke-opacity:1" />
    <path
       inkscape:connector-curvature="0"
       style="opacity:0.706;fill:none;fill-opacity:1;stroke:#0000d1;stroke-width:1.60000014;stroke-miterlimit:4;stroke-dasharray:none;stroke-dashoffset:0;stroke-opacity:1"
       d="m -76.709375,1552.6034 c 0.716982,-15.8476 1.433948,-31.6874 2.150929,-46.2995 0.716982,-14.6121 1.433947,-27.9774 2.150929,-39.0736 0.716982,-11.0962 1.433947,-19.901 2.150929,-25.7496 0.716965,-5.8485 1.433947,-8.7187 2.150929,-8.4068 0.716965,0.3119 1.433947,3.8242 2.150929,10.2479 0.716965,6.4237 1.433947,15.7704 2.150912,27.3033 0.716982,11.533 1.433964,25.2553 2.150924,40.0975 0.716982,14.8423 1.433964,30.7986 2.150929,46.6338 0.716982,15.8352 1.433947,31.5353 2.150929,45.892 0.716982,14.3567 1.433947,27.3503 2.150929,37.9879 0.716981,10.6376 1.433947,18.8968 2.150929,24.1551 0.716965,5.2583 1.433947,7.4941 2.150928,6.5525 0.716966,-0.9416 1.433948,-5.0782 2.150929,-12.0728 0.716966,-6.9946 1.433947,-16.8579 2.150926,-28.8139 0.716965,-11.9559 1.433947,-26.0067 2.150913,-41.058 0.716981,-15.0514 1.433963,-31.0966 2.150928,-46.8943 0.716982,-15.7977 1.433964,-31.3334 2.150929,-45.4119 0.716982,-14.0786 1.433947,-26.68 2.150929,-36.8422 0.716982,-10.1622 1.433947,-17.8626 2.150929,-22.5224 0.716981,-4.6599 1.433947,-6.2576 2.150929,-4.6878 0.716965,1.5698 1.433947,6.3241 2.150928,13.8786 0.716966,7.5544 1.433948,17.9188 2.150929,30.2788 0.716966,12.3601 1.433947,26.717 2.150929,41.9536 0.716966,15.2367 1.433947,31.3455 2.150913,47.0808 0.716981,15.7353 1.433963,31.0818 2.150929,44.86 0.716981,13.7782 1.433963,25.9674 2.150928,35.6381 0.716982,9.6707 1.433948,16.8003 2.150929,20.8542 0.716982,4.054 1.433947,5.0112 2.150929,2.8157 0.716982,-2.1955 1.433947,-7.5601 2.150929,-15.6624 0.716965,-8.1023 1.433947,-18.9515 2.150929,-31.696 0.716965,-12.7446 1.433947,-27.3851 2.150928,-42.7829 0.7169661,-15.3978 1.4339477,-31.5447 2.1509132,-47.1927 0.7169817,-15.648 1.4339633,-30.7812 2.1509289,-44.2372 0.7169816,-13.456 1.4339632,-25.2138 2.1509288,-34.3778 0.7169816,-9.1639 1.4339632,-15.7113 2.1509288,-19.1529 0.71698161,-3.4417 1.43394717,-3.7568 2.1509288,-0.9391 0.7169816,2.8178 1.4339472,8.7841 2.1509288,17.4215 0.7169816,8.6373 1.4339472,19.954 2.1509288,33.063 0.7169656,13.109 1.4339472,28.0098 2.1509288,43.5445 0.7169656,15.5347 1.4339472,31.6941 2.1509289,47.23 0.7169652,15.5359 1.4339472,30.432 2.1509132,43.5445 0.716981,13.1125 1.433963,24.4203 2.150928,33.063 0.716982,8.6426 1.433964,14.5975 2.150929,17.4214 0.716982,2.824 1.433947,2.4965 2.150929,-0.939 0.716982,-3.4355 1.433947,-9.9942 2.150929,-19.153 0.716981,-9.1587 1.433947,-20.9251 2.150929,-34.3777 0.716981,-13.4527 1.433947,-28.5902 2.150928,-44.2372 0.716966,-15.647 1.433948,-31.7934 2.150929,-47.1927 0.716966,-15.3994 1.433947,-30.0346 2.150929,-42.7829 0.716966,-12.7483 1.433947,-23.5883 2.150913,-31.696 0.716981,-8.1077 1.433963,-13.4607 2.150929,-15.6624 0.716981,-2.2017 1.433963,-1.2322 2.150928,2.8156 0.716982,4.0479 1.433948,11.1885 2.150929,20.8542 0.716982,9.6657 1.433947,21.8631 2.150929,35.6381 0.716982,13.7751 1.433947,29.1255 2.150929,44.8601 0.716965,15.7345 1.433947,31.8423 2.150929,47.0807 0.716965,15.2384 1.433947,29.5897 2.150928,41.9536 0.716966,12.364 1.433948,22.7189 2.150929,30.2789 0.716966,7.56 1.433947,12.3025 2.150913,13.8786 0.716982,1.576 1.433963,-0.034 2.150929,-4.6878 0.716981,-4.6538 1.433963,-12.3651 2.150929,-22.5225 0.716981,-10.1573 1.433947,-22.7664 2.150928,-36.8421 0.716982,-14.0757 1.433948,-29.6147 2.150929,-45.4119 0.716982,-15.7972 1.433947,-31.841 2.150929,-46.8943 0.716966,-15.0533 1.433947,-29.098 2.150929,-41.0581 0.716965,-11.96 1.433947,-21.8136 2.150929,-28.8138 0.716965,-7.0003 1.433947,-11.1249 2.150912,-12.0728 0.716982,-0.9479 1.433964,1.3001 2.150929,6.5525 0.716982,5.2524 1.433964,13.5222 2.150929,24.1551 0.716982,10.6329 1.433963,23.6339 2.150929,37.9879 0.716982,14.354 1.433947,30.0571 2.150929,45.892 0.716981,15.8349 1.433947,31.7893 2.150929,46.6337 0.716981,14.8445 1.433947,28.5603 2.150928,40.0976 0.716966,11.5372 1.433948,20.8738 2.150929,27.3033 0.716966,6.4294 1.433947,9.9296 2.150929,10.2479 0.716966,0.3182 1.433947,-2.5642 2.150913,-8.4069 0.716981,-5.8426 1.433963,-14.6578 2.150929,-25.7495 0.716981,-11.0918 1.433963,-24.4639 2.150928,-39.0737 0.716982,-14.6096 1.433948,-30.4519 2.150929,-46.2994"
       title="sin(x)"
       id="path4312" />
    <path
       id="path4319"
       title="sin(x)"
       d="m 93.206044,1552.6034 c 0.716981,-15.8476 1.433947,-31.6874 2.150929,-46.2995 0.716981,-14.6121 1.433947,-27.9774 2.150928,-39.0736 0.716982,-11.0962 1.433948,-19.901 2.150929,-25.7496 0.71697,-5.8485 1.43395,-8.7187 2.15093,-8.4068 0.71696,0.3119 1.43395,3.8242 2.15093,10.2479 0.71696,6.4237 1.43395,15.7704 2.15091,27.3033 0.71698,11.533 1.43396,25.2553 2.15093,40.0975 0.71698,14.8423 1.43396,30.7986 2.15093,46.6338 0.71698,15.8352 1.43395,31.5353 2.15093,45.892 0.71698,14.3567 1.43394,27.3503 2.15093,37.9879 0.71698,10.6376 1.43394,18.8968 2.15092,24.1551 0.71697,5.2583 1.43395,7.4941 2.15093,6.5525 0.71697,-0.9416 1.43395,-5.0782 2.15093,-12.0728 0.71697,-6.9946 1.43395,-16.8579 2.15092,-28.8139 0.71696,-11.9559 1.43394,-26.0067 2.15091,-41.058 0.71698,-15.0514 1.43396,-31.0966 2.15093,-46.8943 0.71698,-15.7977 1.43396,-31.3334 2.15093,-45.4119 0.71698,-14.0786 1.43394,-26.68 2.15092,-36.8422 0.71699,-10.1622 1.43395,-17.8626 2.15093,-22.5224 0.71698,-4.6599 1.43395,-6.2576 2.15093,-4.6878 0.71697,1.5698 1.43395,6.3241 2.15093,13.8786 0.71697,7.5544 1.43395,17.9188 2.15093,30.2788 0.71697,12.3601 1.43395,26.717 2.15093,41.9536 0.71696,15.2367 1.43395,31.3455 2.15091,47.0808 0.71698,15.7353 1.43396,31.0818 2.15093,44.86 0.71698,13.7782 1.43396,25.9674 2.15093,35.6381 0.71698,9.6707 1.43395,16.8003 2.15093,20.8542 0.71698,4.054 1.43394,5.0112 2.15093,2.8157 0.71698,-2.1955 1.43394,-7.5601 2.15093,-15.6624 0.71696,-8.1023 1.43394,-18.9515 2.15092,-31.696 0.71697,-12.7446 1.43395,-27.3851 2.15093,-42.7829 0.71697,-15.3978 1.43395,-31.5447 2.15092,-47.1927 0.71698,-15.648 1.43396,-30.7812 2.15092,-44.2372 0.71699,-13.456 1.43397,-25.2138 2.15093,-34.3778 0.71698,-9.1639 1.43397,-15.7113 2.15093,-19.1529 0.71698,-3.4417 1.43395,-3.7568 2.15093,-0.9391 0.71698,2.8178 1.43395,8.7841 2.15093,17.4215 0.71698,8.6373 1.43395,19.954 2.15093,33.063 0.71696,13.109 1.43395,28.0098 2.15093,43.5445 0.71696,15.5347 1.43394,31.6941 2.15093,47.23 0.71696,15.5359 1.43394,30.432 2.15091,43.5445 0.71698,13.1125 1.43396,24.4203 2.15093,33.063 0.71698,8.6426 1.43396,14.5975 2.15093,17.4214 0.71698,2.824 1.43394,2.4965 2.15093,-0.939 0.71698,-3.4355 1.43394,-9.9942 2.15092,-19.153 0.71699,-9.1587 1.43395,-20.9251 2.15093,-34.3777 0.71698,-13.4527 1.43395,-28.5902 2.15093,-44.2372 0.71697,-15.647 1.43395,-31.7934 2.15093,-47.1927 0.71697,-15.3994 1.43395,-30.0346 2.15093,-42.7829 0.71696,-12.7483 1.43395,-23.5883 2.15091,-31.696 0.71698,-8.1077 1.43397,-13.4607 2.15093,-15.6624 0.71698,-2.2017 1.43396,-1.2322 2.15093,2.8156 0.71698,4.0479 1.43395,11.1885 2.15093,20.8542 0.71698,9.6657 1.43395,21.8631 2.15093,35.6381 0.71698,13.7751 1.43394,29.1255 2.15093,44.8601 0.71696,15.7345 1.43394,31.8423 2.15093,47.0807 0.71696,15.2384 1.43394,29.5897 2.15092,41.9536 0.71697,12.364 1.43395,22.7189 2.15093,30.2789 0.71697,7.56 1.43395,12.3025 2.15092,13.8786 0.71698,1.576 1.43396,-0.034 2.15092,-4.6878 0.71699,-4.6538 1.43397,-12.3651 2.15093,-22.5225 0.71698,-10.1573 1.43395,-22.7664 2.15093,-36.8421 0.71698,-14.0757 1.43395,-29.6147 2.15093,-45.4119 0.71698,-15.7972 1.43395,-31.841 2.15093,-46.8943 0.71697,-15.0533 1.43395,-29.098 2.15093,-41.0581 0.71696,-11.96 1.43395,-21.8136 2.15093,-28.8138 0.71696,-7.0003 1.43394,-11.1249 2.15091,-12.0728 0.71698,-0.9479 1.43396,1.3001 2.15093,6.5525 0.71698,5.2524 1.43396,13.5222 2.15093,24.1551 0.71698,10.6329 1.43396,23.6339 2.15093,37.9879 0.71698,14.354 1.43394,30.0571 2.15093,45.892 0.71698,15.8349 1.43394,31.7893 2.15092,46.6337 0.71699,14.8445 1.43395,28.5603 2.15093,40.0976 0.71697,11.5372 1.43395,20.8738 2.15093,27.3033 0.71697,6.4294 1.43395,9.9296 2.15093,10.2479 0.71697,0.3182 1.43395,-2.5642 2.15091,-8.4069 0.71698,-5.8426 1.43397,-14.6578 2.15093,-25.7495 0.71698,-11.0918 1.43397,-24.4639 2.15093,-39.0737 0.71698,-14.6096 1.43395,-30.4519 2.15093,-46.2994"
       style="opacity:0.706;fill:none;fill-opacity:1;stroke:#0000d1;stroke-width:1.60000014;stroke-miterlimit:4;stroke-dasharray:none;stroke-dashoffset:0;stroke-opacity:1"
       inkscape:connector-curvature="0" />
    <path
       style="opacity:0.706;fill:none;fill-opacity:1;stroke:#0000d1;stroke-width:1.60000014;stroke-miterlimit:4;stroke-dasharray:none;stroke-dashoffset:0;stroke-opacity:1"
       d="m 263.13928,1552.6025 c 0.71697,-4.7542 1.43395,-9.5062 2.15093,-13.8898 0.71697,-4.3836 1.43395,-8.3932 2.15093,-11.7221 0.71696,-3.3289 1.43395,-5.9703 2.15091,-7.7249 0.71698,-1.7545 1.43396,-2.6156 2.15093,-2.522 0.71698,0.094 1.43396,1.1472 2.15093,3.0744 0.71698,1.9271 1.43395,4.7311 2.15093,8.191 0.71698,3.4598 1.43395,7.5765 2.15093,12.0292 0.71698,4.4527 1.43394,9.2396 2.15093,13.9901 0.71696,4.7506 1.43394,9.4606 2.15092,13.7676 0.71697,4.307 1.43395,8.2051 2.15093,11.3964 0.71697,3.1913 1.43395,5.669 2.15093,7.2465 0.71697,1.5775 1.43395,2.2483 2.15091,1.9658 0.71699,-0.2825 1.43397,-1.5235 2.15093,-3.6219 0.71699,-2.0983 1.43397,-5.0573 2.15093,-8.6441 0.71698,-3.5868 1.43395,-7.802 2.15093,-12.3174 0.71698,-4.5154 1.43395,-9.329 2.15093,-14.0683 0.71698,-4.7393 1.43395,-9.4 2.15093,-13.6236 0.71696,-4.2236 1.43395,-8.004 2.15093,-11.0526 0.71696,-3.0487 1.43394,-5.3588 2.15093,-6.7568 0.71696,-1.3979 1.43394,-1.8772 2.15093,-1.4063 0.71696,0.4709 1.43394,1.8972 2.15091,4.1636 0.71698,2.2663 1.43396,5.3756 2.15093,9.0836 0.71698,3.708 1.43396,8.0151 2.15093,12.5861 0.71698,4.571 1.43394,9.4036 2.15092,14.1242 0.71699,4.7206 1.43395,9.3246 2.15093,13.458 0.71698,4.1335 1.43395,7.7903 2.15093,10.6915 0.71697,2.9012 1.43395,5.0401 2.15093,6.2562 0.71697,1.2162 1.43395,1.5034 2.15093,0.8447 0.71697,-0.6586 1.43395,-2.268 2.15091,-4.6987 0.71698,-2.4307 1.43397,-5.6854 2.15093,-9.5088 0.71698,-3.8234 1.43396,-8.2155 2.15093,-12.8349 0.71698,-4.6193 1.43395,-9.4634 2.15093,-14.1578 0.71698,-4.6944 1.43395,-9.2343 2.15093,-13.2711 0.71698,-4.0368 1.43394,-7.5642 2.15093,-10.3134 0.71698,-2.7491 1.43394,-4.7133 2.15093,-5.7458 0.71696,-1.0325 1.43394,-1.1271 2.15092,-0.2818 0.71697,0.8454 1.43395,2.6353 2.15093,5.2265 0.71697,2.5912 1.43395,5.9862 2.15092,9.9189 0.71698,3.9327 1.43396,8.4029 2.15092,13.0633 0.71699,4.6604 1.43397,9.5083 2.15093,14.169 0.71699,4.6608 1.43395,9.1296 2.15093,13.0634 0.71698,3.9337 1.43395,7.3261 2.15093,9.9189 0.71698,2.5928 1.43395,4.3792 2.15093,5.2264 0.71697,0.8472 1.43395,0.749 2.15093,-0.2817 0.71696,-1.0306 1.43395,-2.9982 2.15093,-5.7459 0.71696,-2.7476 1.43394,-6.2775 2.15093,-10.3133 0.71696,-4.0358 1.43394,-8.5771 2.15091,-13.2712 0.71698,-4.6941 1.43396,-9.538 2.15093,-14.1578 0.71698,-4.6198 1.43396,-9.0103 2.15093,-12.8348 0.71698,-3.8245 1.43394,-7.0765 2.15093,-9.5088 0.71698,-2.4324 1.43394,-4.0382 2.15092,-4.6988 0.71699,-0.6605 1.43395,-0.3696 2.15093,0.8447 0.71697,1.2144 1.43395,3.3566 2.15093,6.2563 0.71697,2.8997 1.43395,6.5589 2.15093,10.6914 0.71697,4.1325 1.43395,8.7377 2.15091,13.458 0.71699,4.7204 1.43397,9.5527 2.15093,14.1243 0.71698,4.5715 1.43397,8.8768 2.15093,12.586 0.71698,3.7092 1.43396,6.8157 2.15093,9.0837 0.71698,2.268 1.43395,3.6907 2.15093,4.1636 0.71698,0.4728 1.43395,-0.01 2.15093,-1.4064 0.71698,-1.3961 1.43394,-3.7095 2.15093,-6.7567 0.71696,-3.0472 1.43394,-6.8299 2.15093,-11.0526 0.71696,-4.2227 1.43394,-8.8844 2.15092,-13.6236 0.71697,-4.7392 1.43395,-9.5523 2.15092,-14.0683 0.71698,-4.516 1.43396,-8.7294 2.15093,-12.3174 0.71698,-3.588 1.43396,-6.5441 2.15092,-8.6442 0.71699,-2.1001 1.43395,-3.3374 2.15093,-3.6218 0.71698,-0.2844 1.43395,0.39 2.15093,1.9657 0.71698,1.5757 1.43395,4.0567 2.15093,7.2466 0.71698,3.1898 1.43395,7.0901 2.15093,11.3963 0.71697,4.3062 1.43395,9.0172 2.15093,13.7676 0.71696,4.7505 1.43395,9.5368 2.15093,13.9902 0.71696,4.4533 1.43394,8.568 2.15091,12.0292 0.71698,3.4612 1.43396,6.2622 2.15093,8.191 0.71698,1.9288 1.43396,2.9789 2.15093,3.0744 0.71698,0.096 1.43394,-0.7693 2.15093,-2.5221 0.71698,-1.7528 1.43394,-4.3973 2.15093,-7.7248 0.71698,-3.3276 1.43394,-7.3392 2.15092,-11.7221 0.71697,-4.3829 1.43395,-9.1356 2.15093,-13.8899"
       title="0.3*sin(x)"
       id="path4321"
       inkscape:connector-curvature="0" />
    <path
       inkscape:connector-curvature="0"
       style="opacity:0.706;fill:none;fill-opacity:1;stroke:#0000d1;stroke-width:1.60000014;stroke-miterlimit:4;stroke-dasharray:none;stroke-dashoffset:0;stroke-opacity:1"
       d="m 433.05249,1552.6034 c 0.71698,-15.8476 1.43395,-31.6874 2.15093,-46.2995 0.71698,-14.6121 1.43395,-27.9774 2.15093,-39.0736 0.71698,-11.0962 1.43395,-19.901 2.15093,-25.7496 0.71696,-5.8485 1.43394,-8.7187 2.15093,-8.4068 0.71696,0.3119 1.43394,3.8242 2.15093,10.2479 0.71696,6.4237 1.43394,15.7704 2.15091,27.3033 0.71698,11.533 1.43396,25.2553 2.15093,40.0975 0.71698,14.8423 1.43396,30.7986 2.15093,46.6338 0.71698,15.8352 1.43394,31.5353 2.15092,45.892 0.71699,14.3567 1.43395,27.3503 2.15093,37.9879 0.71698,10.6376 1.43395,18.8968 2.15093,24.1551 0.71697,5.2583 1.43395,7.4941 2.15093,6.5525 0.71697,-0.9416 1.43395,-5.0782 2.15093,-12.0728 0.71697,-6.9946 1.43395,-16.8579 2.15091,-28.8139 0.71697,-11.9559 1.43395,-26.0067 2.15092,-41.058 0.71698,-15.0514 1.43396,-31.0966 2.15092,-46.8943 0.71699,-15.7977 1.43397,-31.3334 2.15093,-45.4119 0.71698,-14.0786 1.43395,-26.68 2.15093,-36.8422 0.71698,-10.1622 1.43395,-17.8626 2.15093,-22.5224 0.71698,-4.6599 1.43395,-6.2576 2.15093,-4.6878 0.71696,1.5698 1.43395,6.3241 2.15093,13.8786 0.71696,7.5544 1.43395,17.9188 2.15093,30.2788 0.71696,12.3601 1.43394,26.717 2.15093,41.9536 0.71696,15.2367 1.43394,31.3455 2.15091,47.0808 0.71698,15.7353 1.43396,31.0818 2.15093,44.86 0.71698,13.7782 1.43396,25.9674 2.15093,35.6381 0.71698,9.6707 1.43394,16.8003 2.15093,20.8542 0.71698,4.054 1.43394,5.0112 2.15092,2.8157 0.71699,-2.1955 1.43395,-7.5601 2.15093,-15.6624 0.71697,-8.1023 1.43395,-18.9515 2.15093,-31.696 0.71697,-12.7446 1.43395,-27.3851 2.15093,-42.7829 0.71697,-15.3978 1.43395,-31.5447 2.15091,-47.1927 0.71698,-15.648 1.43397,-30.7812 2.15093,-44.2372 0.71698,-13.456 1.43397,-25.2138 2.15093,-34.3778 0.71698,-9.1639 1.43396,-15.7113 2.15093,-19.1529 0.71698,-3.4417 1.43395,-3.7568 2.15093,-0.9391 0.71698,2.8178 1.43395,8.7841 2.15093,17.4215 0.71698,8.6373 1.43394,19.954 2.15093,33.063 0.71696,13.109 1.43394,28.0098 2.15092,43.5445 0.71697,15.5347 1.43395,31.6941 2.15093,47.23 0.71697,15.5359 1.43395,30.432 2.15092,43.5445 0.71698,13.1125 1.43396,24.4203 2.15093,33.063 0.71698,8.6426 1.43396,14.5975 2.15092,17.4214 0.71699,2.824 1.43395,2.4965 2.15093,-0.939 0.71698,-3.4355 1.43395,-9.9942 2.15093,-19.153 0.71698,-9.1587 1.43395,-20.9251 2.15093,-34.3777 0.71698,-13.4527 1.43395,-28.5902 2.15093,-44.2372 0.71696,-15.647 1.43395,-31.7934 2.15093,-47.1927 0.71696,-15.3994 1.43395,-30.0346 2.15093,-42.7829 0.71696,-12.7483 1.43394,-23.5883 2.15091,-31.696 0.71698,-8.1077 1.43396,-13.4607 2.15093,-15.6624 0.71698,-2.2017 1.43396,-1.2322 2.15093,2.8156 0.71698,4.0479 1.43394,11.1885 2.15093,20.8542 0.71698,9.6657 1.43394,21.8631 2.15092,35.6381 0.71699,13.7751 1.43395,29.1255 2.15093,44.8601 0.71697,15.7345 1.43395,31.8423 2.15093,47.0807 0.71697,15.2384 1.43395,29.5897 2.15093,41.9536 0.71697,12.364 1.43395,22.7189 2.15093,30.2789 0.71697,7.56 1.43395,12.3025 2.15091,13.8786 0.71698,1.576 1.43397,-0.034 2.15093,-4.6878 0.71698,-4.6538 1.43396,-12.3651 2.15093,-22.5225 0.71698,-10.1573 1.43395,-22.7664 2.15093,-36.8421 0.71698,-14.0757 1.43395,-29.6147 2.15093,-45.4119 0.71698,-15.7972 1.43395,-31.841 2.15093,-46.8943 0.71696,-15.0533 1.43394,-29.098 2.15093,-41.0581 0.71696,-11.96 1.43394,-21.8136 2.15092,-28.8138 0.71697,-7.0003 1.43395,-11.1249 2.15092,-12.0728 0.71698,-0.9479 1.43396,1.3001 2.15093,6.5525 0.71698,5.2524 1.43396,13.5222 2.15092,24.1551 0.71699,10.6329 1.43397,23.6339 2.15093,37.9879 0.71699,14.354 1.43395,30.0571 2.15093,45.892 0.71698,15.8349 1.43395,31.7893 2.15093,46.6337 0.71698,14.8445 1.43395,28.5603 2.15093,40.0976 0.71697,11.5372 1.43395,20.8738 2.15093,27.3033 0.71696,6.4294 1.43395,9.9296 2.15093,10.2479 0.71696,0.3182 1.43394,-2.5642 2.15091,-8.4069 0.71698,-5.8426 1.43396,-14.6578 2.15093,-25.7495 0.71698,-11.0918 1.43396,-24.4639 2.15093,-39.0737 0.71698,-14.6096 1.43395,-30.4519 2.15093,-46.2994"
       title="sin(x)"
       id="path4323" />
    <path
       sodipodi:nodetypes="cc"
       inkscape:connector-curvature="0"
       id="path4327"
       d="m -245.87985,1407.9688 0,293.757"
       style="fill:none;fill-rule:evenodd;stroke:#000000;stroke-width:1.60000016;stroke-linecap:butt;stroke-linejoin:miter;stroke-miterlimit:4;stroke-dasharray:12.80000133,12.80000133;stroke-dashoffset:0;stroke-opacity:1" />
    <path
       style="fill:none;fill-rule:evenodd;stroke:#000000;stroke-width:1.60000016;stroke-linecap:butt;stroke-linejoin:miter;stroke-miterlimit:4;stroke-dasharray:12.80000133,12.80000133;stroke-dashoffset:0;stroke-opacity:1"
       d="m -76.709093,1407.9688 0,293.757"
       id="path4329"
       inkscape:connector-curvature="0"
       sodipodi:nodetypes="cc" />
    <path
       sodipodi:nodetypes="cc"
       inkscape:connector-curvature="0"
       id="path4331"
       d="m 92.911867,1407.9688 0,293.757"
       style="fill:none;fill-rule:evenodd;stroke:#000000;stroke-width:1.60000016;stroke-linecap:butt;stroke-linejoin:miter;stroke-miterlimit:4;stroke-dasharray:12.80000133,12.80000133;stroke-dashoffset:0;stroke-opacity:1" />
    <path
       style="fill:none;fill-rule:evenodd;stroke:#000000;stroke-width:1.60000016;stroke-linecap:butt;stroke-linejoin:miter;stroke-miterlimit:4;stroke-dasharray:12.80000133,12.80000133;stroke-dashoffset:0;stroke-opacity:1"
       d="m 264.42804,1407.9688 0,293.757"
       id="path4333"
       inkscape:connector-curvature="0"
       sodipodi:nodetypes="cc" />
    <path
       sodipodi:nodetypes="cc"
       inkscape:connector-curvature="0"
       id="path4335"
       d="m 434.99661,1407.9688 0,293.757"
       style="fill:none;fill-rule:evenodd;stroke:#000000;stroke-width:1.60000016;stroke-linecap:butt;stroke-linejoin:miter;stroke-miterlimit:4;stroke-dasharray:12.80000133,12.80000133;stroke-dashoffset:0;stroke-opacity:1" />
    <path
       style="fill:none;fill-rule:evenodd;stroke:#000000;stroke-width:1.60000016;stroke-linecap:butt;stroke-linejoin:miter;stroke-miterlimit:4;stroke-dasharray:12.80000133,12.80000133;stroke-dashoffset:0;stroke-opacity:1"
       d="m 601.77476,1407.9688 0,293.757"
       id="path4337"
       inkscape:connector-curvature="0"
       sodipodi:nodetypes="cc" />
    <text
       sodipodi:linespacing="125%"
       id="text4339"
       y="1400.3881"
       x="-169.12399"
       style="font-style:normal;font-variant:normal;font-weight:normal;font-stretch:normal;font-size:2.40905046px;line-height:125%;font-family:'Latin Modern Roman';-inkscape-font-specification:'Latin Modern Roman, Normal';text-align:start;letter-spacing:0px;word-spacing:0px;writing-mode:lr-tb;text-anchor:start;fill:#000000;fill-opacity:1;stroke:none;stroke-width:1px;stroke-linecap:butt;stroke-linejoin:miter;stroke-opacity:1"
       xml:space="preserve"><tspan
         style="font-style:normal;font-variant:normal;font-weight:normal;font-stretch:normal;font-size:28.90860748px;font-family:Roboto;-inkscape-font-specification:Roboto"
         y="1400.3881"
         x="-169.12399"
         id="tspan4341"
         sodipodi:role="line">0</tspan></text>
    <text
       xml:space="preserve"
       style="font-style:normal;font-variant:normal;font-weight:normal;font-stretch:normal;font-size:2.40905046px;line-height:125%;font-family:'Latin Modern Roman';-inkscape-font-specification:'Latin Modern Roman, Normal';text-align:start;letter-spacing:0px;word-spacing:0px;writing-mode:lr-tb;text-anchor:start;fill:#000000;fill-opacity:1;stroke:none;stroke-width:1px;stroke-linecap:butt;stroke-linejoin:miter;stroke-opacity:1"
       x="6.1825833"
       y="1400.3881"
       id="text4343"
       sodipodi:linespacing="125%"><tspan
         sodipodi:role="line"
         id="tspan4345"
         x="6.1825833"
         y="1400.3881"
         style="font-style:normal;font-variant:normal;font-weight:normal;font-stretch:normal;font-size:28.90860748px;font-family:Roboto;-inkscape-font-specification:Roboto">1</tspan></text>
    <text
       sodipodi:linespacing="125%"
       id="text4347"
       y="1400.3881"
       x="174.85596"
       style="font-style:normal;font-variant:normal;font-weight:normal;font-stretch:normal;font-size:2.40905046px;line-height:125%;font-family:'Latin Modern Roman';-inkscape-font-specification:'Latin Modern Roman, Normal';text-align:start;letter-spacing:0px;word-spacing:0px;writing-mode:lr-tb;text-anchor:start;fill:#000000;fill-opacity:1;stroke:none;stroke-width:1px;stroke-linecap:butt;stroke-linejoin:miter;stroke-opacity:1"
       xml:space="preserve"><tspan
         style="font-style:normal;font-variant:normal;font-weight:normal;font-stretch:normal;font-size:28.90860748px;font-family:Roboto;-inkscape-font-specification:Roboto"
         y="1400.3881"
         x="174.85596"
         id="tspan4349"
         sodipodi:role="line">1</tspan></text>
    <text
       xml:space="preserve"
       style="font-style:normal;font-variant:normal;font-weight:normal;font-stretch:normal;font-size:2.40905046px;line-height:125%;font-family:'Latin Modern Roman';-inkscape-font-specification:'Latin Modern Roman, Normal';text-align:start;letter-spacing:0px;word-spacing:0px;writing-mode:lr-tb;text-anchor:start;fill:#000000;fill-opacity:1;stroke:none;stroke-width:1px;stroke-linecap:butt;stroke-linejoin:miter;stroke-opacity:1"
       x="342.58173"
       y="1400.3881"
       id="text4351"
       sodipodi:linespacing="125%"><tspan
         sodipodi:role="line"
         id="tspan4353"
         x="342.58173"
         y="1400.3881"
         style="font-style:normal;font-variant:normal;font-weight:normal;font-stretch:normal;font-size:28.90860748px;font-family:Roboto;-inkscape-font-specification:Roboto">0</tspan></text>
    <text
       sodipodi:linespacing="125%"
       id="text4355"
       y="1400.3881"
       x="516.94067"
       style="font-style:normal;font-variant:normal;font-weight:normal;font-stretch:normal;font-size:2.40905046px;line-height:125%;font-family:'Latin Modern Roman';-inkscape-font-specification:'Latin Modern Roman, Normal';text-align:start;letter-spacing:0px;word-spacing:0px;writing-mode:lr-tb;text-anchor:start;fill:#000000;fill-opacity:1;stroke:none;stroke-width:1px;stroke-linecap:butt;stroke-linejoin:miter;stroke-opacity:1"
       xml:space="preserve"><tspan
         style="font-style:normal;font-variant:normal;font-weight:normal;font-stretch:normal;font-size:28.90860748px;font-family:Roboto;-inkscape-font-specification:Roboto"
         y="1400.3881"
         x="516.94067"
         id="tspan4357"
         sodipodi:role="line">1</tspan></text>
    <path
       inkscape:connector-curvature="0"
       id="path4382"
       d="m -251.36445,1554.5228 861.07495,0"
       style="fill:none;fill-rule:evenodd;stroke:#000000;stroke-width:1.60000014;stroke-linecap:butt;stroke-linejoin:miter;stroke-opacity:1;stroke-miterlimit:4;stroke-dasharray:none" />
  </g>
</svg>
