<?xml version="1.0" encoding="UTF-8" standalone="no"?>
<!-- Created with Inkscape (http://www.inkscape.org/) -->

<svg
   xmlns:dc="http://purl.org/dc/elements/1.1/"
   xmlns:cc="http://creativecommons.org/ns#"
   xmlns:rdf="http://www.w3.org/1999/02/22-rdf-syntax-ns#"
   xmlns:svg="http://www.w3.org/2000/svg"
   xmlns="http://www.w3.org/2000/svg"
   xmlns:sodipodi="http://sodipodi.sourceforge.net/DTD/sodipodi-0.dtd"
   xmlns:inkscape="http://www.inkscape.org/namespaces/inkscape"
   width="1321.8549"
   height="808.14288"
   id="svg2"
   version="1.1"
   inkscape:version="0.48.5 r10040"
   sodipodi:docname="New document 1">
  <defs
     id="defs4">
    <inkscape:perspective
       sodipodi:type="inkscape:persp3d"
       inkscape:vp_x="28.284271 : 515.06941 : 1"
       inkscape:vp_y="0 : 1000 : 0"
       inkscape:vp_z="744.09448 : 526.18109 : 1"
       inkscape:persp3d-origin="372.04724 : 350.78739 : 1"
       id="perspective3769" />
  </defs>
  <sodipodi:namedview
     id="base"
     pagecolor="#ffffff"
     bordercolor="#666666"
     borderopacity="1.0"
     inkscape:pageopacity="0.0"
     inkscape:pageshadow="2"
     inkscape:zoom="0.49497475"
     inkscape:cx="600.74672"
     inkscape:cy="455.86864"
     inkscape:document-units="px"
     inkscape:current-layer="layer1"
     showgrid="false"
     fit-margin-top="0"
     fit-margin-left="0"
     fit-margin-right="0"
     fit-margin-bottom="0"
     inkscape:window-width="1920"
     inkscape:window-height="1027"
     inkscape:window-x="0"
     inkscape:window-y="31"
     inkscape:window-maximized="1" />
  <metadata
     id="metadata7">
    <rdf:RDF>
      <cc:Work
         rdf:about="">
        <dc:format>image/svg+xml</dc:format>
        <dc:type
           rdf:resource="http://purl.org/dc/dcmitype/StillImage" />
        <dc:title></dc:title>
      </cc:Work>
    </rdf:RDF>
  </metadata>
  <g
     inkscape:label="Layer 1"
     inkscape:groupmode="layer"
     id="layer1"
     transform="translate(-8.6064758,-19.005039)">
    <g
       id="g3785"
       transform="translate(412.85715,-85.714285)">
      <rect
         ry="2.1465743"
         y="122.25987"
         x="30.189241"
         height="39.648487"
         width="4.2931485"
         id="rect3767"
         style="fill:#000000;fill-opacity:1;stroke:#000000;stroke-width:2;stroke-miterlimit:4;stroke-opacity:1;stroke-dasharray:none;stroke-dashoffset:8.2" />
      <rect
         style="fill:none;stroke:#000000;stroke-width:2;stroke-miterlimit:4;stroke-opacity:1;stroke-dasharray:none;stroke-dashoffset:8.2"
         id="rect3755"
         width="73.741142"
         height="49.497478"
         x="-63.290375"
         y="158.2392"
         ry="19.192892"
         transform="matrix(0.87588437,-0.48252106,0.48252106,0.87588437,0,0)" />
      <rect
         transform="matrix(0.87588437,-0.48252106,0.48252106,0.87588437,0,0)"
         ry="19.192892"
         y="151.64841"
         x="-58.506237"
         height="49.497478"
         width="73.741142"
         id="rect2985"
         style="fill:#edecea;fill-opacity:1;stroke:#000000;stroke-width:2;stroke-miterlimit:4;stroke-opacity:1;stroke-dasharray:none;stroke-dashoffset:8.2" />
      <path
         transform="matrix(0.62992013,0,0,0.47244009,31.755126,94.340177)"
         d="m 45.709405,224.28963 c 0,1.11578 -0.678391,2.0203 -1.515229,2.0203 -0.836838,0 -1.515229,-0.90452 -1.515229,-2.0203 0,-1.11579 0.678391,-2.02031 1.515229,-2.02031 0.836838,0 1.515229,0.90452 1.515229,2.02031 z"
         sodipodi:ry="2.0203052"
         sodipodi:rx="1.5152289"
         sodipodi:cy="224.28963"
         sodipodi:cx="44.194176"
         id="path3757"
         style="fill:#00f200;fill-opacity:1;stroke:#00e200;stroke-width:2;stroke-miterlimit:4;stroke-opacity:1;stroke-dasharray:none;stroke-dashoffset:8.2"
         sodipodi:type="arc" />
      <path
         sodipodi:type="arc"
         style="fill:#00f200;fill-opacity:1;stroke:#00e200;stroke-width:2;stroke-miterlimit:4;stroke-opacity:1;stroke-dasharray:none;stroke-dashoffset:8.2"
         id="path3759"
         sodipodi:cx="44.194176"
         sodipodi:cy="224.28963"
         sodipodi:rx="1.5152289"
         sodipodi:ry="2.0203052"
         d="m 45.709405,224.28963 c 0,1.11578 -0.678391,2.0203 -1.515229,2.0203 -0.836838,0 -1.515229,-0.90452 -1.515229,-2.0203 0,-1.11579 0.678391,-2.02031 1.515229,-2.02031 0.836838,0 1.515229,0.90452 1.515229,2.02031 z"
         transform="matrix(0.62992013,0,0,0.47244009,39.397983,90.608034)" />
      <path
         transform="matrix(0.62992013,0,0,0.47244009,45.826554,86.94732)"
         d="m 45.709405,224.28963 c 0,1.11578 -0.678391,2.0203 -1.515229,2.0203 -0.836838,0 -1.515229,-0.90452 -1.515229,-2.0203 0,-1.11579 0.678391,-2.02031 1.515229,-2.02031 0.836838,0 1.515229,0.90452 1.515229,2.02031 z"
         sodipodi:ry="2.0203052"
         sodipodi:rx="1.5152289"
         sodipodi:cy="224.28963"
         sodipodi:cx="44.194176"
         id="path3761"
         style="fill:#00f200;fill-opacity:1;stroke:#00e200;stroke-width:2;stroke-miterlimit:4;stroke-opacity:1;stroke-dasharray:none;stroke-dashoffset:8.2"
         sodipodi:type="arc" />
      <path
         sodipodi:type="arc"
         style="fill:#00f200;fill-opacity:1;stroke:#00e200;stroke-width:2;stroke-miterlimit:4;stroke-opacity:1;stroke-dasharray:none;stroke-dashoffset:8.2"
         id="path3763"
         sodipodi:cx="44.194176"
         sodipodi:cy="224.28963"
         sodipodi:rx="1.5152289"
         sodipodi:ry="2.0203052"
         d="m 45.709405,224.28963 c 0,1.11578 -0.678391,2.0203 -1.515229,2.0203 -0.836838,0 -1.515229,-0.90452 -1.515229,-2.0203 0,-1.11579 0.678391,-2.02031 1.515229,-2.02031 0.836838,0 1.515229,0.90452 1.515229,2.02031 z"
         transform="matrix(0.62992013,0,0,0.47244009,52.344411,83.375891)" />
      <path
         transform="matrix(0.62992013,0,0,0.47244009,61.719411,77.929462)"
         d="m 45.709405,224.28963 c 0,1.11578 -0.678391,2.0203 -1.515229,2.0203 -0.836838,0 -1.515229,-0.90452 -1.515229,-2.0203 0,-1.11579 0.678391,-2.02031 1.515229,-2.02031 0.836838,0 1.515229,0.90452 1.515229,2.02031 z"
         sodipodi:ry="2.0203052"
         sodipodi:rx="1.5152289"
         sodipodi:cy="224.28963"
         sodipodi:cx="44.194176"
         id="path3765"
         style="fill:#e1de00;fill-opacity:1;stroke:#e0e200;stroke-width:2;stroke-miterlimit:4;stroke-opacity:1;stroke-dasharray:none;stroke-dashoffset:8.2"
         sodipodi:type="arc" />
    </g>
    <g
       id="g3795"
       transform="translate(955,612.14285)">
      <rect
         style="fill:#000000;fill-opacity:1;stroke:#000000;stroke-width:2;stroke-miterlimit:4;stroke-opacity:1;stroke-dasharray:none;stroke-dashoffset:8.2"
         id="rect3797"
         width="4.2931485"
         height="39.648487"
         x="30.189241"
         y="122.25987"
         ry="2.1465743" />
      <rect
         transform="matrix(0.87588437,-0.48252106,0.48252106,0.87588437,0,0)"
         ry="19.192892"
         y="158.2392"
         x="-63.290375"
         height="49.497478"
         width="73.741142"
         id="rect3799"
         style="fill:none;stroke:#000000;stroke-width:2;stroke-miterlimit:4;stroke-opacity:1;stroke-dasharray:none;stroke-dashoffset:8.2" />
      <rect
         style="fill:#edecea;fill-opacity:1;stroke:#000000;stroke-width:2;stroke-miterlimit:4;stroke-opacity:1;stroke-dasharray:none;stroke-dashoffset:8.2"
         id="rect3801"
         width="73.741142"
         height="49.497478"
         x="-58.506237"
         y="151.64841"
         ry="19.192892"
         transform="matrix(0.87588437,-0.48252106,0.48252106,0.87588437,0,0)" />
      <path
         sodipodi:type="arc"
         style="fill:#00f200;fill-opacity:1;stroke:#00e200;stroke-width:2;stroke-miterlimit:4;stroke-opacity:1;stroke-dasharray:none;stroke-dashoffset:8.2"
         id="path3803"
         sodipodi:cx="44.194176"
         sodipodi:cy="224.28963"
         sodipodi:rx="1.5152289"
         sodipodi:ry="2.0203052"
         d="m 45.709405,224.28963 c 0,1.11578 -0.678391,2.0203 -1.515229,2.0203 -0.836838,0 -1.515229,-0.90452 -1.515229,-2.0203 0,-1.11579 0.678391,-2.02031 1.515229,-2.02031 0.836838,0 1.515229,0.90452 1.515229,2.02031 z"
         transform="matrix(0.62992013,0,0,0.47244009,31.755126,94.340177)" />
      <path
         transform="matrix(0.62992013,0,0,0.47244009,39.397983,90.608034)"
         d="m 45.709405,224.28963 c 0,1.11578 -0.678391,2.0203 -1.515229,2.0203 -0.836838,0 -1.515229,-0.90452 -1.515229,-2.0203 0,-1.11579 0.678391,-2.02031 1.515229,-2.02031 0.836838,0 1.515229,0.90452 1.515229,2.02031 z"
         sodipodi:ry="2.0203052"
         sodipodi:rx="1.5152289"
         sodipodi:cy="224.28963"
         sodipodi:cx="44.194176"
         id="path3805"
         style="fill:#00f200;fill-opacity:1;stroke:#00e200;stroke-width:2;stroke-miterlimit:4;stroke-opacity:1;stroke-dasharray:none;stroke-dashoffset:8.2"
         sodipodi:type="arc" />
      <path
         sodipodi:type="arc"
         style="fill:#00f200;fill-opacity:1;stroke:#00e200;stroke-width:2;stroke-miterlimit:4;stroke-opacity:1;stroke-dasharray:none;stroke-dashoffset:8.2"
         id="path3807"
         sodipodi:cx="44.194176"
         sodipodi:cy="224.28963"
         sodipodi:rx="1.5152289"
         sodipodi:ry="2.0203052"
         d="m 45.709405,224.28963 c 0,1.11578 -0.678391,2.0203 -1.515229,2.0203 -0.836838,0 -1.515229,-0.90452 -1.515229,-2.0203 0,-1.11579 0.678391,-2.02031 1.515229,-2.02031 0.836838,0 1.515229,0.90452 1.515229,2.02031 z"
         transform="matrix(0.62992013,0,0,0.47244009,45.826554,86.94732)" />
      <path
         transform="matrix(0.62992013,0,0,0.47244009,52.344411,83.375891)"
         d="m 45.709405,224.28963 c 0,1.11578 -0.678391,2.0203 -1.515229,2.0203 -0.836838,0 -1.515229,-0.90452 -1.515229,-2.0203 0,-1.11579 0.678391,-2.02031 1.515229,-2.02031 0.836838,0 1.515229,0.90452 1.515229,2.02031 z"
         sodipodi:ry="2.0203052"
         sodipodi:rx="1.5152289"
         sodipodi:cy="224.28963"
         sodipodi:cx="44.194176"
         id="path3809"
         style="fill:#00f200;fill-opacity:1;stroke:#00e200;stroke-width:2;stroke-miterlimit:4;stroke-opacity:1;stroke-dasharray:none;stroke-dashoffset:8.2"
         sodipodi:type="arc" />
      <path
         sodipodi:type="arc"
         style="fill:#e1de00;fill-opacity:1;stroke:#e0e200;stroke-width:2;stroke-miterlimit:4;stroke-opacity:1;stroke-dasharray:none;stroke-dashoffset:8.2"
         id="path3811"
         sodipodi:cx="44.194176"
         sodipodi:cy="224.28963"
         sodipodi:rx="1.5152289"
         sodipodi:ry="2.0203052"
         d="m 45.709405,224.28963 c 0,1.11578 -0.678391,2.0203 -1.515229,2.0203 -0.836838,0 -1.515229,-0.90452 -1.515229,-2.0203 0,-1.11579 0.678391,-2.02031 1.515229,-2.02031 0.836838,0 1.515229,0.90452 1.515229,2.02031 z"
         transform="matrix(0.62992013,0,0,0.47244009,61.719411,77.929462)" />
    </g>
    <g
       transform="translate(1207.1429,-78.57143)"
       id="g3813">
      <rect
         ry="2.1465743"
         y="122.25987"
         x="30.189241"
         height="39.648487"
         width="4.2931485"
         id="rect3815"
         style="fill:#000000;fill-opacity:1;stroke:#000000;stroke-width:2;stroke-miterlimit:4;stroke-opacity:1;stroke-dasharray:none;stroke-dashoffset:8.2" />
      <rect
         style="fill:none;stroke:#000000;stroke-width:2;stroke-miterlimit:4;stroke-opacity:1;stroke-dasharray:none;stroke-dashoffset:8.2"
         id="rect3817"
         width="73.741142"
         height="49.497478"
         x="-63.290375"
         y="158.2392"
         ry="19.192892"
         transform="matrix(0.87588437,-0.48252106,0.48252106,0.87588437,0,0)" />
      <rect
         transform="matrix(0.87588437,-0.48252106,0.48252106,0.87588437,0,0)"
         ry="19.192892"
         y="151.64841"
         x="-58.506237"
         height="49.497478"
         width="73.741142"
         id="rect3819"
         style="fill:#edecea;fill-opacity:1;stroke:#000000;stroke-width:2;stroke-miterlimit:4;stroke-opacity:1;stroke-dasharray:none;stroke-dashoffset:8.2" />
      <path
         transform="matrix(0.62992013,0,0,0.47244009,31.755126,94.340177)"
         d="m 45.709405,224.28963 c 0,1.11578 -0.678391,2.0203 -1.515229,2.0203 -0.836838,0 -1.515229,-0.90452 -1.515229,-2.0203 0,-1.11579 0.678391,-2.02031 1.515229,-2.02031 0.836838,0 1.515229,0.90452 1.515229,2.02031 z"
         sodipodi:ry="2.0203052"
         sodipodi:rx="1.5152289"
         sodipodi:cy="224.28963"
         sodipodi:cx="44.194176"
         id="path3821"
         style="fill:#00f200;fill-opacity:1;stroke:#00e200;stroke-width:2;stroke-miterlimit:4;stroke-opacity:1;stroke-dasharray:none;stroke-dashoffset:8.2"
         sodipodi:type="arc" />
      <path
         sodipodi:type="arc"
         style="fill:#00f200;fill-opacity:1;stroke:#00e200;stroke-width:2;stroke-miterlimit:4;stroke-opacity:1;stroke-dasharray:none;stroke-dashoffset:8.2"
         id="path3823"
         sodipodi:cx="44.194176"
         sodipodi:cy="224.28963"
         sodipodi:rx="1.5152289"
         sodipodi:ry="2.0203052"
         d="m 45.709405,224.28963 c 0,1.11578 -0.678391,2.0203 -1.515229,2.0203 -0.836838,0 -1.515229,-0.90452 -1.515229,-2.0203 0,-1.11579 0.678391,-2.02031 1.515229,-2.02031 0.836838,0 1.515229,0.90452 1.515229,2.02031 z"
         transform="matrix(0.62992013,0,0,0.47244009,39.397983,90.608034)" />
      <path
         transform="matrix(0.62992013,0,0,0.47244009,45.826554,86.94732)"
         d="m 45.709405,224.28963 c 0,1.11578 -0.678391,2.0203 -1.515229,2.0203 -0.836838,0 -1.515229,-0.90452 -1.515229,-2.0203 0,-1.11579 0.678391,-2.02031 1.515229,-2.02031 0.836838,0 1.515229,0.90452 1.515229,2.02031 z"
         sodipodi:ry="2.0203052"
         sodipodi:rx="1.5152289"
         sodipodi:cy="224.28963"
         sodipodi:cx="44.194176"
         id="path3825"
         style="fill:#00f200;fill-opacity:1;stroke:#00e200;stroke-width:2;stroke-miterlimit:4;stroke-opacity:1;stroke-dasharray:none;stroke-dashoffset:8.2"
         sodipodi:type="arc" />
      <path
         sodipodi:type="arc"
         style="fill:#00f200;fill-opacity:1;stroke:#00e200;stroke-width:2;stroke-miterlimit:4;stroke-opacity:1;stroke-dasharray:none;stroke-dashoffset:8.2"
         id="path3827"
         sodipodi:cx="44.194176"
         sodipodi:cy="224.28963"
         sodipodi:rx="1.5152289"
         sodipodi:ry="2.0203052"
         d="m 45.709405,224.28963 c 0,1.11578 -0.678391,2.0203 -1.515229,2.0203 -0.836838,0 -1.515229,-0.90452 -1.515229,-2.0203 0,-1.11579 0.678391,-2.02031 1.515229,-2.02031 0.836838,0 1.515229,0.90452 1.515229,2.02031 z"
         transform="matrix(0.62992013,0,0,0.47244009,52.344411,83.375891)" />
      <path
         transform="matrix(0.62992013,0,0,0.47244009,61.719411,77.929462)"
         d="m 45.709405,224.28963 c 0,1.11578 -0.678391,2.0203 -1.515229,2.0203 -0.836838,0 -1.515229,-0.90452 -1.515229,-2.0203 0,-1.11579 0.678391,-2.02031 1.515229,-2.02031 0.836838,0 1.515229,0.90452 1.515229,2.02031 z"
         sodipodi:ry="2.0203052"
         sodipodi:rx="1.5152289"
         sodipodi:cy="224.28963"
         sodipodi:cx="44.194176"
         id="path3829"
         style="fill:#e1de00;fill-opacity:1;stroke:#e0e200;stroke-width:2;stroke-miterlimit:4;stroke-opacity:1;stroke-dasharray:none;stroke-dashoffset:8.2"
         sodipodi:type="arc" />
    </g>
    <g
       id="g3831"
       transform="translate(234.2857,614.99999)">
      <rect
         style="fill:#000000;fill-opacity:1;stroke:#000000;stroke-width:2;stroke-miterlimit:4;stroke-opacity:1;stroke-dasharray:none;stroke-dashoffset:8.2"
         id="rect3833"
         width="4.2931485"
         height="39.648487"
         x="30.189241"
         y="122.25987"
         ry="2.1465743" />
      <rect
         transform="matrix(0.87588437,-0.48252106,0.48252106,0.87588437,0,0)"
         ry="19.192892"
         y="158.2392"
         x="-63.290375"
         height="49.497478"
         width="73.741142"
         id="rect3835"
         style="fill:none;stroke:#000000;stroke-width:2;stroke-miterlimit:4;stroke-opacity:1;stroke-dasharray:none;stroke-dashoffset:8.2" />
      <rect
         style="fill:#edecea;fill-opacity:1;stroke:#000000;stroke-width:2;stroke-miterlimit:4;stroke-opacity:1;stroke-dasharray:none;stroke-dashoffset:8.2"
         id="rect3837"
         width="73.741142"
         height="49.497478"
         x="-58.506237"
         y="151.64841"
         ry="19.192892"
         transform="matrix(0.87588437,-0.48252106,0.48252106,0.87588437,0,0)" />
      <path
         sodipodi:type="arc"
         style="fill:#00f200;fill-opacity:1;stroke:#00e200;stroke-width:2;stroke-miterlimit:4;stroke-opacity:1;stroke-dasharray:none;stroke-dashoffset:8.2"
         id="path3839"
         sodipodi:cx="44.194176"
         sodipodi:cy="224.28963"
         sodipodi:rx="1.5152289"
         sodipodi:ry="2.0203052"
         d="m 45.709405,224.28963 c 0,1.11578 -0.678391,2.0203 -1.515229,2.0203 -0.836838,0 -1.515229,-0.90452 -1.515229,-2.0203 0,-1.11579 0.678391,-2.02031 1.515229,-2.02031 0.836838,0 1.515229,0.90452 1.515229,2.02031 z"
         transform="matrix(0.62992013,0,0,0.47244009,31.755126,94.340177)" />
      <path
         transform="matrix(0.62992013,0,0,0.47244009,39.397983,90.608034)"
         d="m 45.709405,224.28963 c 0,1.11578 -0.678391,2.0203 -1.515229,2.0203 -0.836838,0 -1.515229,-0.90452 -1.515229,-2.0203 0,-1.11579 0.678391,-2.02031 1.515229,-2.02031 0.836838,0 1.515229,0.90452 1.515229,2.02031 z"
         sodipodi:ry="2.0203052"
         sodipodi:rx="1.5152289"
         sodipodi:cy="224.28963"
         sodipodi:cx="44.194176"
         id="path3841"
         style="fill:#00f200;fill-opacity:1;stroke:#00e200;stroke-width:2;stroke-miterlimit:4;stroke-opacity:1;stroke-dasharray:none;stroke-dashoffset:8.2"
         sodipodi:type="arc" />
      <path
         sodipodi:type="arc"
         style="fill:#00f200;fill-opacity:1;stroke:#00e200;stroke-width:2;stroke-miterlimit:4;stroke-opacity:1;stroke-dasharray:none;stroke-dashoffset:8.2"
         id="path3843"
         sodipodi:cx="44.194176"
         sodipodi:cy="224.28963"
         sodipodi:rx="1.5152289"
         sodipodi:ry="2.0203052"
         d="m 45.709405,224.28963 c 0,1.11578 -0.678391,2.0203 -1.515229,2.0203 -0.836838,0 -1.515229,-0.90452 -1.515229,-2.0203 0,-1.11579 0.678391,-2.02031 1.515229,-2.02031 0.836838,0 1.515229,0.90452 1.515229,2.02031 z"
         transform="matrix(0.62992013,0,0,0.47244009,45.826554,86.94732)" />
      <path
         transform="matrix(0.62992013,0,0,0.47244009,52.344411,83.375891)"
         d="m 45.709405,224.28963 c 0,1.11578 -0.678391,2.0203 -1.515229,2.0203 -0.836838,0 -1.515229,-0.90452 -1.515229,-2.0203 0,-1.11579 0.678391,-2.02031 1.515229,-2.02031 0.836838,0 1.515229,0.90452 1.515229,2.02031 z"
         sodipodi:ry="2.0203052"
         sodipodi:rx="1.5152289"
         sodipodi:cy="224.28963"
         sodipodi:cx="44.194176"
         id="path3845"
         style="fill:#00f200;fill-opacity:1;stroke:#00e200;stroke-width:2;stroke-miterlimit:4;stroke-opacity:1;stroke-dasharray:none;stroke-dashoffset:8.2"
         sodipodi:type="arc" />
      <path
         sodipodi:type="arc"
         style="fill:#e1de00;fill-opacity:1;stroke:#e0e200;stroke-width:2;stroke-miterlimit:4;stroke-opacity:1;stroke-dasharray:none;stroke-dashoffset:8.2"
         id="path3847"
         sodipodi:cx="44.194176"
         sodipodi:cy="224.28963"
         sodipodi:rx="1.5152289"
         sodipodi:ry="2.0203052"
         d="m 45.709405,224.28963 c 0,1.11578 -0.678391,2.0203 -1.515229,2.0203 -0.836838,0 -1.515229,-0.90452 -1.515229,-2.0203 0,-1.11579 0.678391,-2.02031 1.515229,-2.02031 0.836838,0 1.515229,0.90452 1.515229,2.02031 z"
         transform="matrix(0.62992013,0,0,0.47244009,61.719411,77.929462)" />
    </g>
    <rect
       style="fill:none;stroke:#000000;stroke-width:1;stroke-miterlimit:4;stroke-opacity:1;stroke-dasharray:none;stroke-dashoffset:8.2"
       id="rect3849"
       width="1320.8549"
       height="806.23523"
       x="9.1064758"
       y="20.040085"
       ry="1.8272257" />
    <path
       style="fill:none;stroke:#000000;stroke-width:1px;stroke-linecap:butt;stroke-linejoin:miter;stroke-opacity:1"
       d="m 538.57143,19.505039 0,342.857141 -442.857144,0"
       id="path3851"
       inkscape:connector-curvature="0" />
    <path
       style="fill:none;stroke:#000000;stroke-width:1px;stroke-linecap:butt;stroke-linejoin:miter;stroke-opacity:1"
       d="m 251.42857,589.50504 0,237.14286"
       id="path3857"
       inkscape:connector-curvature="0" />
    <path
       style="fill:none;stroke:#000000;stroke-width:1px;stroke-linecap:butt;stroke-linejoin:miter;stroke-opacity:1"
       d="m 535.71429,589.50504 0,234.28571"
       id="path3859"
       inkscape:connector-curvature="0" />
    <path
       style="fill:none;stroke:#000000;stroke-width:1px;stroke-linecap:butt;stroke-linejoin:miter;stroke-opacity:1"
       d="m 807.14286,589.50504 0,237.14286"
       id="path3861"
       inkscape:connector-curvature="0" />
    <path
       style="fill:none;stroke:#000000;stroke-width:1px;stroke-linecap:butt;stroke-linejoin:miter;stroke-opacity:1"
       d="m 1072.5714,588.07647 0,238.57143"
       id="path3863"
       inkscape:connector-curvature="0" />
    <g
       id="g3865"
       transform="translate(604.28576,372.85714)">
      <rect
         style="fill:#000000;fill-opacity:1;stroke:#000000;stroke-width:2;stroke-miterlimit:4;stroke-opacity:1;stroke-dasharray:none;stroke-dashoffset:8.2"
         id="rect3867"
         width="4.2931485"
         height="39.648487"
         x="30.189241"
         y="122.25987"
         ry="2.1465743" />
      <rect
         transform="matrix(0.87588437,-0.48252106,0.48252106,0.87588437,0,0)"
         ry="19.192892"
         y="158.2392"
         x="-63.290375"
         height="49.497478"
         width="73.741142"
         id="rect3869"
         style="fill:none;stroke:#000000;stroke-width:2;stroke-miterlimit:4;stroke-opacity:1;stroke-dasharray:none;stroke-dashoffset:8.2" />
      <rect
         style="fill:#edecea;fill-opacity:1;stroke:#000000;stroke-width:2;stroke-miterlimit:4;stroke-opacity:1;stroke-dasharray:none;stroke-dashoffset:8.2"
         id="rect3871"
         width="73.741142"
         height="49.497478"
         x="-58.506237"
         y="151.64841"
         ry="19.192892"
         transform="matrix(0.87588437,-0.48252106,0.48252106,0.87588437,0,0)" />
      <path
         sodipodi:type="arc"
         style="fill:#00f200;fill-opacity:1;stroke:#00e200;stroke-width:2;stroke-miterlimit:4;stroke-opacity:1;stroke-dasharray:none;stroke-dashoffset:8.2"
         id="path3873"
         sodipodi:cx="44.194176"
         sodipodi:cy="224.28963"
         sodipodi:rx="1.5152289"
         sodipodi:ry="2.0203052"
         d="m 45.709405,224.28963 c 0,1.11578 -0.678391,2.0203 -1.515229,2.0203 -0.836838,0 -1.515229,-0.90452 -1.515229,-2.0203 0,-1.11579 0.678391,-2.02031 1.515229,-2.02031 0.836838,0 1.515229,0.90452 1.515229,2.02031 z"
         transform="matrix(0.62992013,0,0,0.47244009,31.755126,94.340177)" />
      <path
         transform="matrix(0.62992013,0,0,0.47244009,39.397983,90.608034)"
         d="m 45.709405,224.28963 c 0,1.11578 -0.678391,2.0203 -1.515229,2.0203 -0.836838,0 -1.515229,-0.90452 -1.515229,-2.0203 0,-1.11579 0.678391,-2.02031 1.515229,-2.02031 0.836838,0 1.515229,0.90452 1.515229,2.02031 z"
         sodipodi:ry="2.0203052"
         sodipodi:rx="1.5152289"
         sodipodi:cy="224.28963"
         sodipodi:cx="44.194176"
         id="path3875"
         style="fill:#00f200;fill-opacity:1;stroke:#00e200;stroke-width:2;stroke-miterlimit:4;stroke-opacity:1;stroke-dasharray:none;stroke-dashoffset:8.2"
         sodipodi:type="arc" />
      <path
         sodipodi:type="arc"
         style="fill:#00f200;fill-opacity:1;stroke:#00e200;stroke-width:2;stroke-miterlimit:4;stroke-opacity:1;stroke-dasharray:none;stroke-dashoffset:8.2"
         id="path3877"
         sodipodi:cx="44.194176"
         sodipodi:cy="224.28963"
         sodipodi:rx="1.5152289"
         sodipodi:ry="2.0203052"
         d="m 45.709405,224.28963 c 0,1.11578 -0.678391,2.0203 -1.515229,2.0203 -0.836838,0 -1.515229,-0.90452 -1.515229,-2.0203 0,-1.11579 0.678391,-2.02031 1.515229,-2.02031 0.836838,0 1.515229,0.90452 1.515229,2.02031 z"
         transform="matrix(0.62992013,0,0,0.47244009,45.826554,86.94732)" />
      <path
         transform="matrix(0.62992013,0,0,0.47244009,52.344411,83.375891)"
         d="m 45.709405,224.28963 c 0,1.11578 -0.678391,2.0203 -1.515229,2.0203 -0.836838,0 -1.515229,-0.90452 -1.515229,-2.0203 0,-1.11579 0.678391,-2.02031 1.515229,-2.02031 0.836838,0 1.515229,0.90452 1.515229,2.02031 z"
         sodipodi:ry="2.0203052"
         sodipodi:rx="1.5152289"
         sodipodi:cy="224.28963"
         sodipodi:cx="44.194176"
         id="path3879"
         style="fill:#00f200;fill-opacity:1;stroke:#00e200;stroke-width:2;stroke-miterlimit:4;stroke-opacity:1;stroke-dasharray:none;stroke-dashoffset:8.2"
         sodipodi:type="arc" />
      <path
         sodipodi:type="arc"
         style="fill:#e1de00;fill-opacity:1;stroke:#e0e200;stroke-width:2;stroke-miterlimit:4;stroke-opacity:1;stroke-dasharray:none;stroke-dashoffset:8.2"
         id="path3881"
         sodipodi:cx="44.194176"
         sodipodi:cy="224.28963"
         sodipodi:rx="1.5152289"
         sodipodi:ry="2.0203052"
         d="m 45.709405,224.28963 c 0,1.11578 -0.678391,2.0203 -1.515229,2.0203 -0.836838,0 -1.515229,-0.90452 -1.515229,-2.0203 0,-1.11579 0.678391,-2.02031 1.515229,-2.02031 0.836838,0 1.515229,0.90452 1.515229,2.02031 z"
         transform="matrix(0.62992013,0,0,0.47244009,61.719411,77.929462)" />
    </g>
    <path
       style="fill:none;stroke:#000000;stroke-width:1px;stroke-linecap:butt;stroke-linejoin:miter;stroke-opacity:1"
       d="m 251.971,589.1479 -167.5,0"
       id="path3883"
       inkscape:connector-curvature="0" />
    <path
       inkscape:connector-curvature="0"
       id="path3885"
       d="m 529.971,589.1479 -167.5,0"
       style="fill:none;stroke:#000000;stroke-width:1px;stroke-linecap:butt;stroke-linejoin:miter;stroke-opacity:1" />
    <path
       style="fill:none;stroke:#000000;stroke-width:1px;stroke-linecap:butt;stroke-linejoin:miter;stroke-opacity:1"
       d="m 807.25671,589.1479 -167.5,0"
       id="path3887"
       inkscape:connector-curvature="0" />
    <path
       inkscape:connector-curvature="0"
       id="path3889"
       d="m 1071.5424,589.1479 -167.49998,0"
       style="fill:none;stroke:#000000;stroke-width:1px;stroke-linecap:butt;stroke-linejoin:miter;stroke-opacity:1" />
    <path
       style="fill:none;stroke:#000000;stroke-width:1px;stroke-linecap:butt;stroke-linejoin:miter;stroke-opacity:1"
       d="m 1329.3995,589.1479 -167.4999,0"
       id="path3891"
       inkscape:connector-curvature="0" />
    <g
       id="g3897"
       transform="matrix(0.57715873,0,0,0.57715873,52.960593,158.02277)">
      <rect
         ry="18.970076"
         y="-175.24518"
         x="125.74934"
         height="114.28571"
         width="59.999992"
         id="rect3893"
         style="fill:#292828;fill-opacity:1;stroke:#000000;stroke-width:1;stroke-miterlimit:4;stroke-opacity:1;stroke-dasharray:none;stroke-dashoffset:8.2" />
      <rect
         ry="0"
         transform="translate(8.6064758,19.005039)"
         y="-178.77615"
         x="120.71323"
         height="83.337585"
         width="53.538086"
         id="rect3895"
         style="fill:#e6e6e6;fill-opacity:1;stroke:#000000;stroke-width:1;stroke-miterlimit:4;stroke-opacity:1;stroke-dasharray:none;stroke-dashoffset:8.2" />
    </g>
    <g
       transform="matrix(0.57715873,0,0,0.57715873,188.32103,323.68779)"
       id="g3901">
      <rect
         style="fill:#292828;fill-opacity:1;stroke:#000000;stroke-width:1;stroke-miterlimit:4;stroke-opacity:1;stroke-dasharray:none;stroke-dashoffset:8.2"
         id="rect3903"
         width="59.999992"
         height="114.28571"
         x="125.74934"
         y="-175.24518"
         ry="18.970076" />
      <rect
         style="fill:#e6e6e6;fill-opacity:1;stroke:#000000;stroke-width:1;stroke-miterlimit:4;stroke-opacity:1;stroke-dasharray:none;stroke-dashoffset:8.2"
         id="rect3905"
         width="53.538086"
         height="83.337585"
         x="120.71323"
         y="-178.77615"
         transform="translate(8.6064758,19.005039)"
         ry="0" />
    </g>
    <g
       id="g3907"
       transform="matrix(0.57715873,0,0,0.57715873,2.4529618,764.1143)">
      <rect
         ry="18.970076"
         y="-175.24518"
         x="125.74934"
         height="114.28571"
         width="59.999992"
         id="rect3909"
         style="fill:#292828;fill-opacity:1;stroke:#000000;stroke-width:1;stroke-miterlimit:4;stroke-opacity:1;stroke-dasharray:none;stroke-dashoffset:8.2" />
      <rect
         ry="0"
         transform="translate(8.6064758,19.005039)"
         y="-178.77615"
         x="120.71323"
         height="83.337585"
         width="53.538086"
         id="rect3911"
         style="fill:#e6e6e6;fill-opacity:1;stroke:#000000;stroke-width:1;stroke-miterlimit:4;stroke-opacity:1;stroke-dasharray:none;stroke-dashoffset:8.2" />
    </g>
    <g
       transform="matrix(0.57715873,0,0,0.57715873,588.34144,226.71315)"
       id="g3913">
      <rect
         style="fill:#292828;fill-opacity:1;stroke:#000000;stroke-width:1;stroke-miterlimit:4;stroke-opacity:1;stroke-dasharray:none;stroke-dashoffset:8.2"
         id="rect3915"
         width="59.999992"
         height="114.28571"
         x="125.74934"
         y="-175.24518"
         ry="18.970076" />
      <rect
         style="fill:#e6e6e6;fill-opacity:1;stroke:#000000;stroke-width:1;stroke-miterlimit:4;stroke-opacity:1;stroke-dasharray:none;stroke-dashoffset:8.2"
         id="rect3917"
         width="53.538086"
         height="83.337585"
         x="120.71323"
         y="-178.77615"
         transform="translate(8.6064758,19.005039)"
         ry="0" />
    </g>
    <g
       id="g3919"
       transform="matrix(0.57715873,0,0,0.57715873,848.9608,426.72335)">
      <rect
         ry="18.970076"
         y="-175.24518"
         x="125.74934"
         height="114.28571"
         width="59.999992"
         id="rect3921"
         style="fill:#292828;fill-opacity:1;stroke:#000000;stroke-width:1;stroke-miterlimit:4;stroke-opacity:1;stroke-dasharray:none;stroke-dashoffset:8.2" />
      <rect
         ry="0"
         transform="translate(8.6064758,19.005039)"
         y="-178.77615"
         x="120.71323"
         height="83.337585"
         width="53.538086"
         id="rect3923"
         style="fill:#e6e6e6;fill-opacity:1;stroke:#000000;stroke-width:1;stroke-miterlimit:4;stroke-opacity:1;stroke-dasharray:none;stroke-dashoffset:8.2" />
    </g>
    <g
       transform="matrix(0.57715873,0,0,0.57715873,935.83392,248.9365)"
       id="g3925">
      <rect
         style="fill:#292828;fill-opacity:1;stroke:#000000;stroke-width:1;stroke-miterlimit:4;stroke-opacity:1;stroke-dasharray:none;stroke-dashoffset:8.2"
         id="rect3927"
         width="59.999992"
         height="114.28571"
         x="125.74934"
         y="-175.24518"
         ry="18.970076" />
      <rect
         style="fill:#e6e6e6;fill-opacity:1;stroke:#000000;stroke-width:1;stroke-miterlimit:4;stroke-opacity:1;stroke-dasharray:none;stroke-dashoffset:8.2"
         id="rect3929"
         width="53.538086"
         height="83.337585"
         x="120.71323"
         y="-178.77615"
         transform="translate(8.6064758,19.005039)"
         ry="0" />
    </g>
    <g
       id="g3931"
       transform="matrix(0.57715873,0,0,0.57715873,592.38205,782.29704)">
      <rect
         ry="18.970076"
         y="-175.24518"
         x="125.74934"
         height="114.28571"
         width="59.999992"
         id="rect3933"
         style="fill:#292828;fill-opacity:1;stroke:#000000;stroke-width:1;stroke-miterlimit:4;stroke-opacity:1;stroke-dasharray:none;stroke-dashoffset:8.2" />
      <rect
         ry="0"
         transform="translate(8.6064758,19.005039)"
         y="-178.77615"
         x="120.71323"
         height="83.337585"
         width="53.538086"
         id="rect3935"
         style="fill:#e6e6e6;fill-opacity:1;stroke:#000000;stroke-width:1;stroke-miterlimit:4;stroke-opacity:1;stroke-dasharray:none;stroke-dashoffset:8.2" />
    </g>
    <g
       transform="matrix(0.57715873,0,0,0.57715873,283.27537,731.78941)"
       id="g3937">
      <rect
         style="fill:#292828;fill-opacity:1;stroke:#000000;stroke-width:1;stroke-miterlimit:4;stroke-opacity:1;stroke-dasharray:none;stroke-dashoffset:8.2"
         id="rect3939"
         width="59.999992"
         height="114.28571"
         x="125.74934"
         y="-175.24518"
         ry="18.970076" />
      <rect
         style="fill:#e6e6e6;fill-opacity:1;stroke:#000000;stroke-width:1;stroke-miterlimit:4;stroke-opacity:1;stroke-dasharray:none;stroke-dashoffset:8.2"
         id="rect3941"
         width="53.538086"
         height="83.337585"
         x="120.71323"
         y="-178.77615"
         transform="translate(8.6064758,19.005039)"
         ry="0" />
    </g>
    <g
       id="g3943"
       transform="matrix(0.57715873,0,0,0.57715873,374.1891,806.5407)">
      <rect
         ry="18.970076"
         y="-175.24518"
         x="125.74934"
         height="114.28571"
         width="59.999992"
         id="rect3945"
         style="fill:#292828;fill-opacity:1;stroke:#000000;stroke-width:1;stroke-miterlimit:4;stroke-opacity:1;stroke-dasharray:none;stroke-dashoffset:8.2" />
      <rect
         ry="0"
         transform="translate(8.6064758,19.005039)"
         y="-178.77615"
         x="120.71323"
         height="83.337585"
         width="53.538086"
         id="rect3947"
         style="fill:#e6e6e6;fill-opacity:1;stroke:#000000;stroke-width:1;stroke-miterlimit:4;stroke-opacity:1;stroke-dasharray:none;stroke-dashoffset:8.2" />
    </g>
    <g
       transform="matrix(0.57715873,0,0,0.57715873,1057.0522,741.89094)"
       id="g3949">
      <rect
         style="fill:#292828;fill-opacity:1;stroke:#000000;stroke-width:1;stroke-miterlimit:4;stroke-opacity:1;stroke-dasharray:none;stroke-dashoffset:8.2"
         id="rect3951"
         width="59.999992"
         height="114.28571"
         x="125.74934"
         y="-175.24518"
         ry="18.970076" />
      <rect
         style="fill:#e6e6e6;fill-opacity:1;stroke:#000000;stroke-width:1;stroke-miterlimit:4;stroke-opacity:1;stroke-dasharray:none;stroke-dashoffset:8.2"
         id="rect3953"
         width="53.538086"
         height="83.337585"
         x="120.71323"
         y="-178.77615"
         transform="translate(8.6064758,19.005039)"
         ry="0" />
    </g>
    <g
       id="g3955"
       transform="matrix(0.57715873,0,0,0.57715873,1093.4177,537.84013)">
      <rect
         ry="18.970076"
         y="-175.24518"
         x="125.74934"
         height="114.28571"
         width="59.999992"
         id="rect3957"
         style="fill:#292828;fill-opacity:1;stroke:#000000;stroke-width:1;stroke-miterlimit:4;stroke-opacity:1;stroke-dasharray:none;stroke-dashoffset:8.2" />
      <rect
         ry="0"
         transform="translate(8.6064758,19.005039)"
         y="-178.77615"
         x="120.71323"
         height="83.337585"
         width="53.538086"
         id="rect3959"
         style="fill:#e6e6e6;fill-opacity:1;stroke:#000000;stroke-width:1;stroke-miterlimit:4;stroke-opacity:1;stroke-dasharray:none;stroke-dashoffset:8.2" />
    </g>
    <g
       transform="matrix(0.57715873,0,0,0.57715873,95.386986,545.92135)"
       id="g3961">
      <rect
         style="fill:#292828;fill-opacity:1;stroke:#000000;stroke-width:1;stroke-miterlimit:4;stroke-opacity:1;stroke-dasharray:none;stroke-dashoffset:8.2"
         id="rect3963"
         width="59.999992"
         height="114.28571"
         x="125.74934"
         y="-175.24518"
         ry="18.970076" />
      <rect
         style="fill:#e6e6e6;fill-opacity:1;stroke:#000000;stroke-width:1;stroke-miterlimit:4;stroke-opacity:1;stroke-dasharray:none;stroke-dashoffset:8.2"
         id="rect3965"
         width="53.538086"
         height="83.337585"
         x="120.71323"
         y="-178.77615"
         transform="translate(8.6064758,19.005039)"
         ry="0" />
    </g>
  </g>
</svg>
