<!-- Created with Inkscape (http://www.inkscape.org/) -->
<svg id="svg3671" xmlns:rdf="http://www.w3.org/1999/02/22-rdf-syntax-ns#" xmlns="http://www.w3.org/2000/svg" height="342.02" width="803.34" version="1.1" xmlns:cc="http://creativecommons.org/ns#" xmlns:xlink="http://www.w3.org/1999/xlink" xmlns:dc="http://purl.org/dc/elements/1.1/">
<defs id="defs3673">
<clipPath id="clipPath24065" clipPathUnits="userSpaceOnUse">
<path id="path24067" clip-rule="evenodd" d="M0.000010729,0,720,0v540h-720v-540z"/>
</clipPath>
<clipPath id="clipPath24053" clipPathUnits="userSpaceOnUse">
<path id="path24055" clip-rule="evenodd" d="M0.000010729,0,720,0v540h-720v-540z"/>
</clipPath>
<clipPath id="clipPath24037" clipPathUnits="userSpaceOnUse">
<path id="path24039" clip-rule="evenodd" d="M0.000010729,0,720,0v540h-720v-540z"/>
</clipPath>
<clipPath id="clipPath24025" clipPathUnits="userSpaceOnUse">
<path id="path24027" clip-rule="evenodd" d="M0.000010729,0,720,0v540h-720v-540z"/>
</clipPath>
<clipPath id="clipPath24013" clipPathUnits="userSpaceOnUse">
<path id="path24015" clip-rule="evenodd" d="M0.000010729,0,720,0v540h-720v-540z"/>
</clipPath>
<clipPath id="clipPath24001" clipPathUnits="userSpaceOnUse">
<path id="path24003" clip-rule="evenodd" d="M0.000010729,0,720,0v540h-720v-540z"/>
</clipPath>
<clipPath id="clipPath23989" clipPathUnits="userSpaceOnUse">
<path id="path23991" clip-rule="evenodd" d="M0.000010729,0,720,0v540h-720v-540z"/>
</clipPath>
<clipPath id="clipPath23979" clipPathUnits="userSpaceOnUse">
<path id="path23981" clip-rule="evenodd" d="M-0.000032208,540,720,540,720,0.00012207h-720"/>
</clipPath>
<clipPath id="clipPath23967" clipPathUnits="userSpaceOnUse">
<path id="path23969" clip-rule="evenodd" d="M-0.000022173,540,720,540,720,0.00012207h-720"/>
</clipPath>
<clipPath id="clipPath23955" clipPathUnits="userSpaceOnUse">
<path id="path23957" clip-rule="evenodd" d="M-0.000012139,540,720,540,720,0.00012207h-720"/>
</clipPath>
<clipPath id="clipPath23943" clipPathUnits="userSpaceOnUse">
<path id="path23945" clip-rule="evenodd" d="M-0.000002104,540,720,540,720,0.00012207h-720"/>
</clipPath>
<clipPath id="clipPath23931" clipPathUnits="userSpaceOnUse">
<path id="path23933" clip-rule="evenodd" d="M0.000007931,540,720,540,720,0.00012207,0.000007931,0.00012207"/>
</clipPath>
<clipPath id="clipPath23919" clipPathUnits="userSpaceOnUse">
<path id="path23921" clip-rule="evenodd" d="M0.000017966,540,720,540,720,0.00012207h-720"/>
</clipPath>
<clipPath id="clipPath23907" clipPathUnits="userSpaceOnUse">
<path id="path23909" clip-rule="evenodd" d="M-0.000002517,540,720,540,720,0.00012207-0.000002517,0.00012207"/>
</clipPath>
<clipPath id="clipPath23895" clipPathUnits="userSpaceOnUse">
<path id="path23897" clip-rule="evenodd" d="M-0.000003462,540,720,540,720,0.00012207-0.000003462,0.00012207"/>
</clipPath>
<clipPath id="clipPath23883" clipPathUnits="userSpaceOnUse">
<path id="path23885" clip-rule="evenodd" d="M0.000006573,540,720,540,720,0.00012207h-720"/>
</clipPath>
<clipPath id="clipPath23871" clipPathUnits="userSpaceOnUse">
<path id="path23873" clip-rule="evenodd" d="M0.000016608,540,720,540,720,0.00012207h-720"/>
</clipPath>
<clipPath id="clipPath23859" clipPathUnits="userSpaceOnUse">
<path id="path23861" clip-rule="evenodd" d="M-0.000003875,540,720,540,720,0.00012207-0.000003875,0.00012207"/>
</clipPath>
<clipPath id="clipPath23845" clipPathUnits="userSpaceOnUse">
<path id="path23847" clip-rule="evenodd" d="M0.000010729,0,720,0v540h-720v-540z"/>
</clipPath>
<clipPath id="clipPath23833" clipPathUnits="userSpaceOnUse">
<path id="path23835" clip-rule="evenodd" d="M0.000010729,0,720,0v540h-720v-540z"/>
</clipPath>
<clipPath id="clipPath23819" clipPathUnits="userSpaceOnUse">
<path id="path23821" clip-rule="evenodd" d="M0.000010729,0,720,0v540h-720v-540z"/>
</clipPath>
<clipPath id="clipPath23807" clipPathUnits="userSpaceOnUse">
<path id="path23809" clip-rule="evenodd" d="M0.000010729,0,720,0v540h-720v-540z"/>
</clipPath>
<clipPath id="clipPath23795" clipPathUnits="userSpaceOnUse">
<path id="path23797" clip-rule="evenodd" d="M0.000010729,0,720,0v540h-720v-540z"/>
</clipPath>
<clipPath id="clipPath23783" clipPathUnits="userSpaceOnUse">
<path id="path23785" clip-rule="evenodd" d="M0.000010729,0,720,0v540h-720v-540z"/>
</clipPath>
<clipPath id="clipPath23773" clipPathUnits="userSpaceOnUse">
<path id="path23775" clip-rule="evenodd" d="M0.000016534,540,720,540,720,0.00012207h-720"/>
</clipPath>
<clipPath id="clipPath23761" clipPathUnits="userSpaceOnUse">
<path id="path23763" clip-rule="evenodd" d="M-0.0000078,540,720,540,720,0.00012207h-720"/>
</clipPath>
<clipPath id="clipPath23749" clipPathUnits="userSpaceOnUse">
<path id="path23751" clip-rule="evenodd" d="M0.000004478,540,720,540,720,0.00018311,0.000004478,0.00018311"/>
</clipPath>
<clipPath id="clipPath23737" clipPathUnits="userSpaceOnUse">
<path id="path23739" clip-rule="evenodd" d="M0.000016933,540,720,540,720,0.00012207h-720"/>
</clipPath>
<clipPath id="clipPath23725" clipPathUnits="userSpaceOnUse">
<path id="path23727" clip-rule="evenodd" d="M-0.000004185,540,720,540,720,0.00012207-0.000004185,0.00012207"/>
</clipPath>
<clipPath id="clipPath23713" clipPathUnits="userSpaceOnUse">
<path id="path23715" clip-rule="evenodd" d="M0.000021537,540,720,540,720,0.00012207h-720"/>
</clipPath>
<clipPath id="clipPath23701" clipPathUnits="userSpaceOnUse">
<path id="path23703" clip-rule="evenodd" d="M0.000018438,540,720,540,720,0.00012207h-720"/>
</clipPath>
<clipPath id="clipPath23689" clipPathUnits="userSpaceOnUse">
<path id="path23691" clip-rule="evenodd" d="M0.000006633,540,720,540,720,0.00012207h-720"/>
</clipPath>
<clipPath id="clipPath23677" clipPathUnits="userSpaceOnUse">
<path id="path23679" clip-rule="evenodd" d="M-0.000006678,540,720,540,720,0.00012207-0.000006678,0.00012207"/>
</clipPath>
<clipPath id="clipPath23665" clipPathUnits="userSpaceOnUse">
<path id="path23667" clip-rule="evenodd" d="M0.00000197,540,720,540,720,0.00012207h-720"/>
</clipPath>
<clipPath id="clipPath23653" clipPathUnits="userSpaceOnUse">
<path id="path23655" clip-rule="evenodd" d="M0.000008197,540,720,540,720,0.00012207,0.000008197,0.00012207"/>
</clipPath>
<clipPath id="clipPath23639" clipPathUnits="userSpaceOnUse">
<path id="path23641" clip-rule="evenodd" d="M0.000010729,0,720,0v540h-720v-540z"/>
</clipPath>
<clipPath id="clipPath23629" clipPathUnits="userSpaceOnUse">
<path id="path23631" clip-rule="evenodd" d="M-0.000003496,540,720,540,720,0-0.000005802,0"/>
</clipPath>
<clipPath id="clipPath23619" clipPathUnits="userSpaceOnUse">
<path id="path23621" clip-rule="evenodd" d="M-0.000017657,540,720,540,720,0.00012207h-720"/>
</clipPath>
<clipPath id="clipPath23607" clipPathUnits="userSpaceOnUse">
<path id="path23609" clip-rule="evenodd" d="M-0.000007622,540,720,540,720,0.00012207-0.000007622,0.00012207"/>
</clipPath>
<clipPath id="clipPath23595" clipPathUnits="userSpaceOnUse">
<path id="path23597" clip-rule="evenodd" d="M0.000002412,540,720,540,720,0.00018311h-720"/>
</clipPath>
<clipPath id="clipPath23583" clipPathUnits="userSpaceOnUse">
<path id="path23585" clip-rule="evenodd" d="M-0.000002812,540,720,540,720,0.00018311h-720"/>
</clipPath>
<clipPath id="clipPath23571" clipPathUnits="userSpaceOnUse">
<path id="path23573" clip-rule="evenodd" d="M0.000007223,540,720,540,720,0.00012207,0.000007223,0.00012207"/>
</clipPath>
<clipPath id="clipPath23559" clipPathUnits="userSpaceOnUse">
<path id="path23561" clip-rule="evenodd" d="M0.000001999,540,720,540,720,0.00012207,0.000001999,0.00012207"/>
</clipPath>
<clipPath id="clipPath23547" clipPathUnits="userSpaceOnUse">
<path id="path23549" clip-rule="evenodd" d="M0.000012034,540,720,540,720,0.00012207h-720"/>
</clipPath>
<clipPath id="clipPath23535" clipPathUnits="userSpaceOnUse">
<path id="path23537" clip-rule="evenodd" d="M0.000011089,540,720,540,720,0.00012207h-720"/>
</clipPath>
<clipPath id="clipPath23523" clipPathUnits="userSpaceOnUse">
<path id="path23525" clip-rule="evenodd" d="M-0.000003977,540,720,540,720,0.00012207h-720"/>
</clipPath>
<clipPath id="clipPath23511" clipPathUnits="userSpaceOnUse">
<path id="path23513" clip-rule="evenodd" d="M-0.000009201,540,720,540,720,0.00012207h-720"/>
</clipPath>
<clipPath id="clipPath23499" clipPathUnits="userSpaceOnUse">
<path id="path23501" clip-rule="evenodd" d="M8.34E-7,540,720,540,720,0.00012207,8.34E-7,0.00012207"/>
</clipPath>
<clipPath id="clipPath23485" clipPathUnits="userSpaceOnUse">
<path id="path23487" clip-rule="evenodd" d="M0.000010729,0,720,0v540h-720v-540z"/>
</clipPath>
<clipPath id="clipPath23473" clipPathUnits="userSpaceOnUse">
<path id="path23475" clip-rule="evenodd" d="M0.000010729,0,720,0v540h-720v-540z"/>
</clipPath>
<clipPath id="clipPath23461" clipPathUnits="userSpaceOnUse">
<path id="path23463" clip-rule="evenodd" d="M0.000010729,0,720,0v540h-720v-540z"/>
</clipPath>
</defs>
<metadata id="metadata3676">
<rdf:RDF>
<cc:Work rdf:about="">
<dc:format>image/svg+xml</dc:format>
<dc:type rdf:resource="http://purl.org/dc/dcmitype/StillImage"/>
<dc:title/>
</cc:Work>
</rdf:RDF>
</metadata>
<g id="layer1" transform="translate(241.00742,-245.78125)">
<path id="path23453" stroke-linejoin="round" d="m-205.97,245.77,0,280.8" stroke="#000" stroke-linecap="butt" stroke-miterlimit="10" stroke-dasharray="none" stroke-width="2.8499999" fill="none"/>
<path id="path23455" d="m555.2,524.26-762.08,1.3375,0.005,2.85,762.08-1.3375-0.0125-2.85zm-1.4125,5.7,8.5375-4.2875-8.5625-4.2625,0.025,8.55z" fill-rule="nonzero" fill="#000"/>
<g id="g23457" transform="matrix(1.25,0,0,-1.25,-288.54617,773.99331)">
<g id="g23459" clip-path="url(#clipPath23461)">
<text id="text23465" transform="matrix(1,0,0,-1,158.02,393.34)">
<tspan id="tspan23467" style="writing-mode:lr-tb;" font-weight="normal" fill-rule="nonzero" font-size="18px" font-variant="normal" y="0" x="0 9 19.007999 28.926001 37.925999 42.93 52.938 62.891998 67.896004 72.954002 82.961998 86.867996 91.872002" font-family="Arial" fill="#ff0000">constant bit</tspan>
</text>
</g>
</g>
<g id="g23469" transform="matrix(1.25,0,0,-1.25,-288.54617,773.99331)">
<g id="g23471" clip-path="url(#clipPath23473)">
<text id="text23477" transform="matrix(1,0,0,-1,197.98,371.74)">
<tspan id="tspan23479" style="writing-mode:lr-tb;" font-weight="normal" fill-rule="nonzero" font-size="18px" font-variant="normal" y="0" x="0 5.994 16.002001 21.006001" font-family="Arial" fill="#ff0000">rate</tspan>
</text>
</g>
</g>
<g id="g23481" transform="matrix(1.25,0,0,-1.25,-288.54617,773.99331)">
<g id="g23483" clip-path="url(#clipPath23485)">
<text id="text23489" transform="matrix(1,0,0,-1,122.98,350.14)">
<tspan id="tspan23491" style="writing-mode:lr-tb;" font-weight="normal" fill-rule="nonzero" font-size="18px" font-variant="normal" y="0" x="0 5.0040002 10.998 21.006001 30.959999 39.959999 54.953999 58.950001 67.949997 76.949997 80.874001 90.882004" font-family="Arial" fill="#ff0000">transmission</tspan>
</text>
</g>
</g>
<path id="path23493" stroke-linejoin="round" d="m-168.47,504.37,0,22.5" stroke="#F00" stroke-linecap="butt" stroke-miterlimit="10" stroke-dasharray="none" stroke-width="1.94999993" fill="none"/>
<g id="g23495" transform="matrix(1.25,0,0,-1.25,-288.54617,773.99331)">
<g id="g23497" clip-path="url(#clipPath23499)">
<path id="path23503" stroke-linejoin="round" d="m114.18,215.7-18,0" stroke="#F00" stroke-linecap="butt" stroke-miterlimit="10" stroke-dasharray="none" stroke-width="1.55999994" fill="none"/>
</g>
</g>
<path id="path23505" stroke-linejoin="round" d="m-145.67,481.87,0,22.5" stroke="#F00" stroke-linecap="butt" stroke-miterlimit="10" stroke-dasharray="none" stroke-width="1.94999993" fill="none"/>
<g id="g23507" transform="matrix(1.25,0,0,-1.25,-288.54617,773.99331)">
<g id="g23509" clip-path="url(#clipPath23511)">
<path id="path23515" stroke-linejoin="round" d="m132.42,233.7-18,0" stroke="#F00" stroke-linecap="butt" stroke-miterlimit="10" stroke-dasharray="none" stroke-width="1.55999994" fill="none"/>
</g>
</g>
<path id="path23517" stroke-linejoin="round" d="m-122.87,459.07,0,22.5" stroke="#F00" stroke-linecap="butt" stroke-miterlimit="10" stroke-dasharray="none" stroke-width="1.94999993" fill="none"/>
<g id="g23519" transform="matrix(1.25,0,0,-1.25,-288.54617,773.99331)">
<g id="g23521" clip-path="url(#clipPath23523)">
<path id="path23527" stroke-linejoin="round" d="m150.66,251.94-18,0" stroke="#F00" stroke-linecap="butt" stroke-miterlimit="10" stroke-dasharray="none" stroke-width="1.55999994" fill="none"/>
</g>
</g>
<path id="path23529" stroke-linejoin="round" d="m-100.07,436.57,0,22.5" stroke="#F00" stroke-linecap="butt" stroke-miterlimit="10" stroke-dasharray="none" stroke-width="1.94999993" fill="none"/>
<g id="g23531" transform="matrix(1.25,0,0,-1.25,-288.54617,773.99331)">
<g id="g23533" clip-path="url(#clipPath23535)">
<path id="path23539" stroke-linejoin="round" d="m168.9,269.94-18,0" stroke="#F00" stroke-linecap="butt" stroke-miterlimit="10" stroke-dasharray="none" stroke-width="1.55999994" fill="none"/>
</g>
</g>
<path id="path23541" stroke-linejoin="round" d="m-76.821,413.92,0,22.5" stroke="#F00" stroke-linecap="butt" stroke-miterlimit="10" stroke-dasharray="none" stroke-width="1.94999993" fill="none"/>
<g id="g23543" transform="matrix(1.25,0,0,-1.25,-288.54617,773.99331)">
<g id="g23545" clip-path="url(#clipPath23547)">
<path id="path23551" stroke-linejoin="round" d="m187.62,288.06-18,0" stroke="#F00" stroke-linecap="butt" stroke-miterlimit="10" stroke-dasharray="none" stroke-width="1.55999994" fill="none"/>
</g>
</g>
<path id="path23553" stroke-linejoin="round" d="m-53.871,391.42,0,22.5" stroke="#F00" stroke-linecap="butt" stroke-miterlimit="10" stroke-dasharray="none" stroke-width="1.94999993" fill="none"/>
<g id="g23555" transform="matrix(1.25,0,0,-1.25,-288.54617,773.99331)">
<g id="g23557" clip-path="url(#clipPath23559)">
<path id="path23563" stroke-linejoin="round" d="m205.86,306.06-18,0" stroke="#F00" stroke-linecap="butt" stroke-miterlimit="10" stroke-dasharray="none" stroke-width="1.55999994" fill="none"/>
</g>
</g>
<path id="path23565" stroke-linejoin="round" d="m-31.071,368.62,0,22.5" stroke="#F00" stroke-linecap="butt" stroke-miterlimit="10" stroke-dasharray="none" stroke-width="1.94999993" fill="none"/>
<g id="g23567" transform="matrix(1.25,0,0,-1.25,-288.54617,773.99331)">
<g id="g23569" clip-path="url(#clipPath23571)">
<path id="path23575" stroke-linejoin="round" d="m224.1,324.3-18,0" stroke="#F00" stroke-linecap="butt" stroke-miterlimit="10" stroke-dasharray="none" stroke-width="1.55999994" fill="none"/>
</g>
</g>
<path id="path23577" stroke-linejoin="round" d="m-8.2712,346.12,0,22.5" stroke="#F00" stroke-linecap="butt" stroke-miterlimit="10" stroke-dasharray="none" stroke-width="1.94999993" fill="none"/>
<g id="g23579" transform="matrix(1.25,0,0,-1.25,-288.54617,773.99331)">
<g id="g23581" clip-path="url(#clipPath23583)">
<path id="path23587" stroke-linejoin="round" d="m242.34,342.3-18,0" stroke="#F00" stroke-linecap="butt" stroke-miterlimit="10" stroke-dasharray="none" stroke-width="1.55999994" fill="none"/>
</g>
</g>
<path id="path23589" stroke-linejoin="round" d="m14.529,323.62,0,22.5" stroke="#F00" stroke-linecap="butt" stroke-miterlimit="10" stroke-dasharray="none" stroke-width="1.94999993" fill="none"/>
<g id="g23591" transform="matrix(1.25,0,0,-1.25,-288.54617,773.99331)">
<g id="g23593" clip-path="url(#clipPath23595)">
<path id="path23599" stroke-linejoin="round" d="m260.58,360.3-18,0" stroke="#F00" stroke-linecap="butt" stroke-miterlimit="10" stroke-dasharray="none" stroke-width="1.55999994" fill="none"/>
</g>
</g>
<path id="path23601" stroke-linejoin="round" d="m37.329,300.82,0,22.5" stroke="#F00" stroke-linecap="butt" stroke-miterlimit="10" stroke-dasharray="none" stroke-width="1.94999993" fill="none"/>
<g id="g23603" transform="matrix(1.25,0,0,-1.25,-288.54617,773.99331)">
<g id="g23605" clip-path="url(#clipPath23607)">
<path id="path23611" stroke-linejoin="round" d="m278.82,378.54-18,0" stroke="#F00" stroke-linecap="butt" stroke-miterlimit="10" stroke-dasharray="none" stroke-width="1.55999994" fill="none"/>
</g>
</g>
<path id="path23613" stroke-linejoin="round" d="m60.129,278.32,0,22.5" stroke="#F00" stroke-linecap="butt" stroke-miterlimit="10" stroke-dasharray="none" stroke-width="1.94999993" fill="none"/>
<g id="g23615" transform="matrix(1.25,0,0,-1.25,-288.54617,773.99331)">
<g id="g23617" clip-path="url(#clipPath23619)">
<path id="path23623" stroke-linejoin="round" d="m297.06,396.54-18,0" stroke="#F00" stroke-linecap="butt" stroke-miterlimit="10" stroke-dasharray="none" stroke-width="1.55999994" fill="none"/>
</g>
</g>
<g id="g23625" transform="matrix(1.25,0,0,-1.25,-288.54617,773.99331)">
<g id="g23627" clip-path="url(#clipPath23629)">
<path id="path23633" d="m47.303,258.56,0.414,1.7c1.404-0.34,2.478-0.97,3.222-1.89,0.745-0.92,1.123-2.06,1.136-3.4,0.014-1.39-0.258-2.52-0.815-3.39-0.557-0.88-1.369-1.55-2.437-2.01-1.068-0.47-2.217-0.71-3.447-0.72-1.342-0.01-2.515,0.23-3.519,0.74-1.004,0.5-1.77,1.22-2.297,2.16-0.528,0.94-0.797,1.98-0.808,3.12-0.013,1.29,0.305,2.38,0.952,3.26,0.648,0.89,1.565,1.51,2.751,1.86l0.412-1.67c-0.935-0.31-1.613-0.75-2.035-1.32-0.423-0.57-0.63-1.29-0.621-2.15,0.009-0.99,0.255-1.82,0.736-2.48s1.123-1.12,1.925-1.38,1.628-0.39,2.478-0.38c1.095,0.01,2.05,0.18,2.865,0.51,0.814,0.32,1.42,0.83,1.818,1.5,0.397,0.68,0.592,1.41,0.585,2.2-0.009,0.95-0.293,1.76-0.85,2.41-0.557,0.66-1.379,1.1-2.465,1.33zm4.423,9.72-1.371-0.01c1.062-0.72,1.599-1.7,1.611-2.95,0.005-0.55-0.095-1.06-0.301-1.54-0.207-0.48-0.468-0.84-0.785-1.08-0.317-0.23-0.707-0.4-1.169-0.49-0.31-0.07-0.802-0.11-1.475-0.12l-5.783-0.05-0.016,1.58,5.177,0.05c0.826,0.01,1.382,0.05,1.669,0.11,0.415,0.11,0.739,0.32,0.973,0.65,0.235,0.32,0.349,0.72,0.345,1.19-0.005,0.48-0.131,0.92-0.378,1.34-0.247,0.41-0.581,0.7-1.002,0.87-0.42,0.17-1.029,0.25-1.826,0.24l-5.001-0.05-0.015,1.59,9.334,0.09,0.013-1.42zm-0.037,3.84-9.333-0.09-0.014,1.42,1.309,0.01c-0.46,0.29-0.831,0.68-1.114,1.16s-0.428,1.03-0.434,1.66c-0.006,0.69,0.132,1.26,0.414,1.7,0.283,0.45,0.682,0.76,1.195,0.95-1.097,0.73-1.651,1.68-1.662,2.87-0.009,0.92,0.24,1.64,0.748,2.14s1.295,0.76,2.361,0.77l6.407,0.06,0.016-1.57-5.88-0.06c-0.633-0.01-1.088-0.06-1.365-0.17-0.278-0.1-0.5-0.29-0.667-0.56s-0.249-0.59-0.246-0.95c0.007-0.66,0.23-1.2,0.671-1.63s1.141-0.64,2.102-0.63l5.423,0.05,0.015-1.58-6.064-0.06c-0.703-0.01-1.229-0.14-1.578-0.4s-0.521-0.69-0.515-1.27c0.004-0.45,0.125-0.86,0.363-1.23,0.238-0.38,0.584-0.65,1.037-0.82,0.452-0.16,1.104-0.24,1.953-0.23l4.843,0.05,0.015-1.59zm-0.205,21.12-1.371-0.01c1.062-0.72,1.599-1.7,1.611-2.95,0.005-0.55-0.095-1.07-0.302-1.55-0.206-0.48-0.468-0.83-0.785-1.07-0.317-0.23-0.706-0.4-1.168-0.5-0.31-0.06-0.802-0.1-1.476-0.11l-6.197-1.75-0.015,1.58,5.176,0.05c0.826,0.01,1.383,0.04,1.669,0.11,0.415,0.11,0.74,0.32,0.974,0.64,0.234,0.33,0.349,0.73,0.344,1.2-0.004,0.48-0.13,0.92-0.377,1.34-0.248,0.41-0.581,0.7-1.002,0.87s-1.029,0.25-1.826,0.24l-5.001-0.05-0.015,1.58,9.333,0.09,0.014-1.41zm-0.037,3.81-12.884-0.13-0.016,1.58,12.885,0.13,0.015-1.58zm-1.249,10.07c0.503-0.58,0.86-1.14,1.071-1.68,0.21-0.54,0.318-1.12,0.324-1.74,0.01-1.03-0.233-1.82-0.728-2.37-0.496-0.56-1.133-0.84-1.912-0.85-0.457,0-0.876,0.1-1.256,0.3-0.38,0.21-0.686,0.48-0.917,0.81-0.232,0.34-0.409,0.71-0.53,1.13-0.085,0.31-0.169,0.78-0.251,1.41-0.165,1.27-0.355,2.21-0.572,2.81-0.217,0.01-0.355,0.01-0.413,0.01-0.645-0.01-1.098-0.16-1.358-0.46-0.354-0.41-0.527-1.01-0.519-1.81,0.007-0.74,0.143-1.29,0.407-1.64,0.264-0.36,0.728-0.61,1.392-0.78l-0.196-1.55c-0.663,0.14-1.2,0.36-1.611,0.68-0.41,0.32-0.728,0.78-0.953,1.39-0.226,0.61-0.343,1.31-0.351,2.12-0.007,0.79,0.08,1.44,0.263,1.94,0.182,0.5,0.415,0.87,0.697,1.11,0.281,0.23,0.639,0.4,1.071,0.5,0.269,0.05,0.755,0.09,1.459,0.09l2.109,0.02c1.47,0.02,2.4,0.06,2.789,0.13s0.761,0.21,1.117,0.41l0.016-1.65c-0.327-0.17-0.709-0.28-1.148-0.33zm-3.532-0.16c0.24-0.58,0.447-1.44,0.623-2.58,0.1-0.65,0.21-1.11,0.329-1.38,0.12-0.27,0.294-0.47,0.521-0.62,0.227-0.14,0.478-0.21,0.753-0.21,0.422,0,0.772,0.17,1.05,0.49s0.414,0.79,0.408,1.4c-0.005,0.61-0.144,1.15-0.415,1.63-0.271,0.47-0.64,0.81-1.105,1.03-0.359,0.17-0.887,0.25-1.584,0.24h-0.58zm3.197,7.48,1.395,0.24c0.098-0.44,0.149-0.84,0.152-1.19,0.006-0.57-0.081-1.02-0.259-1.34-0.179-0.32-0.415-0.54-0.71-0.67-0.295-0.14-0.916-0.21-1.866-0.21l-5.369-0.06,0.011-1.16-1.231-0.01-0.011,1.16-2.311-0.02-0.965,1.56,3.261,0.03-0.016,1.59,1.231,0.02,0.015-1.59,5.458,0.05c0.451,0,0.741,0.03,0.869,0.09,0.129,0.06,0.23,0.15,0.305,0.28,0.075,0.12,0.111,0.3,0.109,0.54-0.001,0.17-0.024,0.41-0.068,0.69zm-9.665,1.5-1.82-0.01-0.015,1.58,1.819,0.01,0.016-1.58zm11.064,0.11-9.333-0.09-0.015,1.58,9.333,0.09,0.015-1.58zm-0.063,6.54-9.299-3.64-0.016,1.67,5.57,2.06c0.601,0.22,1.226,0.43,1.875,0.62-0.494,0.13-1.088,0.32-1.781,0.57l-5.716,2.02-0.015,1.62,9.368-3.44,0.014-1.48zm-3.13,12.77,0.186,1.64c0.958-0.25,1.703-0.72,2.238-1.41,0.534-0.7,0.806-1.58,0.817-2.67,0.013-1.36-0.397-2.45-1.23-3.26-0.833-0.8-2.008-1.22-3.526-1.23-1.57-0.02-2.793,0.38-3.668,1.18s-1.319,1.84-1.331,3.13c-0.012,1.25,0.403,2.27,1.245,3.07,0.841,0.8,2.033,1.21,3.574,1.22h0.422l0.067-6.96c1.025,0.07,1.807,0.36,2.347,0.89s0.806,1.18,0.799,1.96c-0.006,0.58-0.163,1.07-0.472,1.48-0.308,0.41-0.798,0.73-1.468,0.96zm-2.507-5.22-0.051,5.21c-0.784-0.07-1.371-0.28-1.761-0.61-0.604-0.51-0.902-1.17-0.894-1.97,0.007-0.73,0.256-1.33,0.747-1.83,0.491-0.49,1.144-0.75,1.959-0.8zm5.368,20.16-1.178-0.02c0.932-0.58,1.403-1.44,1.414-2.59,0.007-0.75-0.191-1.43-0.595-2.06s-0.972-1.12-1.704-1.47-1.576-0.53-2.531-0.54c-0.931-0.01-1.778,0.14-2.54,0.44-0.762,0.31-1.348,0.77-1.758,1.39-0.41,0.61-0.619,1.3-0.627,2.07-0.005,0.56,0.109,1.07,0.342,1.51s0.538,0.8,0.917,1.08l-4.623-0.05-0.016,1.58,12.885,0.12,0.014-1.46zm-4.61-5.05c1.196,0.01,2.087,0.27,2.674,0.78,0.586,0.51,0.877,1.11,0.87,1.79-0.007,0.7-0.295,1.28-0.865,1.76s-1.435,0.71-2.596,0.7c-1.277-0.01-2.212-0.27-2.805-0.77s-0.886-1.1-0.879-1.83c0.007-0.7,0.3-1.28,0.879-1.75s1.486-0.69,2.722-0.68zm3.361,15.03c0.504-0.58,0.861-1.14,1.072-1.68,0.21-0.54,0.318-1.12,0.324-1.74,0.01-1.03-0.233-1.82-0.728-2.38-0.496-0.55-1.133-0.83-1.913-0.84-0.457,0-0.875,0.1-1.255,0.3s-0.686,0.47-0.918,0.81c-0.231,0.33-0.408,0.71-0.529,1.13-0.085,0.31-0.169,0.78-0.251,1.4-0.165,1.28-0.356,2.22-0.573,2.82-0.216,0-0.354,0.01-0.413,0.01-0.644-0.01-1.097-0.16-1.358-0.47-0.353-0.4-0.526-1.01-0.518-1.8,0.007-0.75,0.143-1.29,0.407-1.65,0.264-0.35,0.728-0.61,1.392-0.77l-0.196-1.55c-0.664,0.14-1.2,0.36-1.611,0.68-0.41,0.32-0.728,0.78-0.954,1.39-0.225,0.61-0.342,1.31-0.35,2.11s0.08,1.45,0.262,1.95c0.183,0.5,0.415,0.87,0.697,1.1,0.282,0.24,0.639,0.41,1.072,0.51,0.269,0.05,0.755,0.08,1.458,0.09l2.11,0.02c1.47,0.01,2.4,0.06,2.789,0.13s0.761,0.21,1.117,0.41l0.016-1.65c-0.327-0.17-0.71-0.28-1.149-0.33zm-3.531-0.17c0.24-0.57,0.447-1.43,0.622-2.58,0.1-0.64,0.21-1.1,0.33-1.37s0.293-0.48,0.52-0.62c0.227-0.15,0.479-0.22,0.754-0.21,0.422,0,0.772,0.16,1.05,0.49,0.278,0.32,0.414,0.79,0.408,1.4s-0.144,1.15-0.415,1.62c-0.272,0.48-0.64,0.82-1.105,1.04-0.359,0.17-0.887,0.25-1.584,0.24l-0.58-0.01zm3.197,7.49,1.395,0.24c0.098-0.44,0.149-0.84,0.152-1.19,0.006-0.58-0.081-1.02-0.259-1.34-0.179-0.32-0.416-0.54-0.71-0.68-0.295-0.13-0.917-0.2-1.866-0.21l-5.37-0.05,0.012-1.16-1.231-0.01-0.011,1.16-2.312-0.02-0.964,1.56,3.261,0.03-0.016,1.59,1.231,0.01,0.015-1.59,5.458,0.06c0.451,0,0.741,0.03,0.869,0.09s0.23,0.15,0.305,0.27c0.075,0.13,0.111,0.31,0.109,0.55-0.002,0.17-0.025,0.4-0.068,0.69zm0.189,7.68c0.503-0.58,0.861-1.14,1.071-1.68s0.318-1.12,0.324-1.74c0.01-1.03-0.232-1.82-0.728-2.38-0.496-0.55-1.133-0.83-1.912-0.84-0.457-0.01-0.876,0.09-1.256,0.3-0.38,0.2-0.686,0.47-0.917,0.81-0.232,0.33-0.409,0.71-0.53,1.13-0.085,0.31-0.169,0.78-0.251,1.4-0.165,1.28-0.355,2.22-0.572,2.82-0.217,0-0.355,0.01-0.413,0-0.645,0-1.097-0.16-1.358-0.46-0.354-0.4-0.527-1.01-0.519-1.8,0.007-0.75,0.143-1.3,0.407-1.65s0.728-0.61,1.392-0.77l-0.196-1.55c-0.663,0.13-1.2,0.36-1.61,0.68-0.411,0.32-0.729,0.78-0.954,1.39-0.226,0.6-0.343,1.31-0.351,2.11-0.007,0.8,0.08,1.45,0.263,1.95,0.182,0.5,0.415,0.87,0.697,1.1,0.282,0.24,0.639,0.41,1.071,0.51,0.269,0.05,0.756,0.08,1.459,0.09l2.109,0.02c1.471,0.01,2.4,0.06,2.789,0.13s0.761,0.21,1.117,0.41l0.016-1.65c-0.327-0.17-0.709-0.28-1.148-0.33zm-3.532-0.17c0.24-0.57,0.448-1.43,0.623-2.58,0.1-0.65,0.21-1.1,0.33-1.37,0.119-0.27,0.293-0.48,0.52-0.62,0.227-0.15,0.478-0.22,0.753-0.21,0.422,0,0.772,0.16,1.05,0.49,0.278,0.32,0.414,0.79,0.409,1.4-0.006,0.61-0.145,1.15-0.416,1.62-0.271,0.48-0.639,0.82-1.105,1.04-0.359,0.16-0.887,0.24-1.584,0.24l-0.58-0.01z" fill-rule="nonzero" fill="#000"/>
</g>
</g>
<g id="g23635" transform="matrix(1.25,0,0,-1.25,-288.54617,773.99331)">
<g id="g23637" clip-path="url(#clipPath23639)">
<text id="text23643" transform="matrix(1,0,0,-1,645.07,175.8)">
<tspan id="tspan23645" style="writing-mode:lr-tb;" font-weight="normal" fill-rule="nonzero" font-size="18.02400017px" font-variant="normal" y="0" x="0 5.0106721 9.0120001 24.025991" font-family="Arial" fill="#000000">time</tspan>
</text>
</g>
</g>
<path id="path23647" stroke-linejoin="round" d="m14.379,505.27,0,22.5" stroke="#000" stroke-linecap="butt" stroke-miterlimit="10" stroke-dasharray="none" stroke-width="1.94999993" fill="none"/>
<g id="g23649" transform="matrix(1.25,0,0,-1.25,-288.54617,773.99331)">
<g id="g23651" clip-path="url(#clipPath23653)">
<path id="path23657" stroke-linejoin="round" d="m282.18,214.98-39.6,0" stroke="#000" stroke-linecap="butt" stroke-miterlimit="10" stroke-dasharray="none" stroke-width="1.55999994" fill="none"/>
</g>
</g>
<path id="path23659" stroke-linejoin="round" d="m63.429,482.77,0,22.5" stroke="#000" stroke-linecap="butt" stroke-miterlimit="10" stroke-dasharray="none" stroke-width="1.94999993" fill="none"/>
<g id="g23661" transform="matrix(1.25,0,0,-1.25,-288.54617,773.99331)">
<g id="g23663" clip-path="url(#clipPath23665)">
<path id="path23669" stroke-linejoin="round" d="m290.58,232.98-8.88,0" stroke="#000" stroke-linecap="butt" stroke-miterlimit="10" stroke-dasharray="none" stroke-width="1.55999994" fill="none"/>
</g>
</g>
<path id="path23671" stroke-linejoin="round" d="m73.629,460.42,0,22.5" stroke="#000" stroke-linecap="butt" stroke-miterlimit="10" stroke-dasharray="none" stroke-width="1.94999993" fill="none"/>
<g id="g23673" transform="matrix(1.25,0,0,-1.25,-288.54617,773.99331)">
<g id="g23675" clip-path="url(#clipPath23677)">
<path id="path23681" stroke-linejoin="round" d="m297.54,250.86-7.8,0" stroke="#000" stroke-linecap="butt" stroke-miterlimit="10" stroke-dasharray="none" stroke-width="1.55999994" fill="none"/>
</g>
</g>
<path id="path23683" stroke-linejoin="round" d="m83.379,437.92,0,22.5" stroke="#000" stroke-linecap="butt" stroke-miterlimit="10" stroke-dasharray="none" stroke-width="1.94999993" fill="none"/>
<g id="g23685" transform="matrix(1.25,0,0,-1.25,-288.54617,773.99331)">
<g id="g23687" clip-path="url(#clipPath23689)">
<path id="path23693" stroke-linejoin="round" d="m305.46,268.86-7.92,0" stroke="#000" stroke-linecap="butt" stroke-miterlimit="10" stroke-dasharray="none" stroke-width="1.55999994" fill="none"/>
</g>
</g>
<path id="path23695" stroke-linejoin="round" d="m92.979,414.82,0,22.5" stroke="#000" stroke-linecap="butt" stroke-miterlimit="10" stroke-dasharray="none" stroke-width="1.94999993" fill="none"/>
<g id="g23697" transform="matrix(1.25,0,0,-1.25,-288.54617,773.99331)">
<g id="g23699" clip-path="url(#clipPath23701)">
<path id="path23705" stroke-linejoin="round" d="m343.14,287.34-37.68,0" stroke="#000" stroke-linecap="butt" stroke-miterlimit="10" stroke-dasharray="none" stroke-width="1.55999994" fill="none"/>
</g>
</g>
<path id="path23707" stroke-linejoin="round" d="m140.68,392.32,0,22.5" stroke="#000" stroke-linecap="butt" stroke-miterlimit="10" stroke-dasharray="none" stroke-width="1.94999993" fill="none"/>
<g id="g23709" transform="matrix(1.25,0,0,-1.25,-288.54617,773.99331)">
<g id="g23711" clip-path="url(#clipPath23713)">
<path id="path23717" stroke-linejoin="round" d="m381.3,305.34-37.68,0" stroke="#000" stroke-linecap="butt" stroke-miterlimit="10" stroke-dasharray="none" stroke-width="1.55999994" fill="none"/>
</g>
</g>
<path id="path23719" stroke-linejoin="round" d="m187.33,371.02,0,22.5" stroke="#000" stroke-linecap="butt" stroke-miterlimit="10" stroke-dasharray="none" stroke-width="1.94999993" fill="none"/>
<g id="g23721" transform="matrix(1.25,0,0,-1.25,-288.54617,773.99331)">
<g id="g23723" clip-path="url(#clipPath23725)">
<path id="path23729" stroke-linejoin="round" d="m387.18,322.26-6.48,0" stroke="#000" stroke-linecap="butt" stroke-miterlimit="10" stroke-dasharray="none" stroke-width="1.55999994" fill="none"/>
</g>
</g>
<path id="path23731" stroke-linejoin="round" d="m194.68,347.47,0,22.5" stroke="#000" stroke-linecap="butt" stroke-miterlimit="10" stroke-dasharray="none" stroke-width="1.94999993" fill="none"/>
<g id="g23733" transform="matrix(1.25,0,0,-1.25,-288.54617,773.99331)">
<g id="g23735" clip-path="url(#clipPath23737)">
<path id="path23741" stroke-linejoin="round" d="m445.14,341.22-58.2,0" stroke="#000" stroke-linecap="butt" stroke-miterlimit="10" stroke-dasharray="none" stroke-width="1.55999994" fill="none"/>
</g>
</g>
<path id="path23743" stroke-linejoin="round" d="m266.23,324.97,0,22.5" stroke="#000" stroke-linecap="butt" stroke-miterlimit="10" stroke-dasharray="none" stroke-width="1.94999993" fill="none"/>
<g id="g23745" transform="matrix(1.25,0,0,-1.25,-288.54617,773.99331)">
<g id="g23747" clip-path="url(#clipPath23749)">
<path id="path23753" stroke-linejoin="round" d="m461.94,359.22-18,0" stroke="#000" stroke-linecap="butt" stroke-miterlimit="10" stroke-dasharray="none" stroke-width="1.55999994" fill="none"/>
</g>
</g>
<path id="path23755" stroke-linejoin="round" d="m288.13,302.17,0,22.5" stroke="#000" stroke-linecap="butt" stroke-miterlimit="10" stroke-dasharray="none" stroke-width="1.94999993" fill="none"/>
<g id="g23757" transform="matrix(1.25,0,0,-1.25,-288.54617,773.99331)">
<g id="g23759" clip-path="url(#clipPath23761)">
<path id="path23765" stroke-linejoin="round" d="m466.74,377.46-5.4,0" stroke="#000" stroke-linecap="butt" stroke-miterlimit="10" stroke-dasharray="none" stroke-width="1.55999994" fill="none"/>
</g>
</g>
<path id="path23767" stroke-linejoin="round" d="m295.03,279.67,0,22.5" stroke="#000" stroke-linecap="butt" stroke-miterlimit="10" stroke-dasharray="none" stroke-width="1.94999993" fill="none"/>
<g id="g23769" transform="matrix(1.25,0,0,-1.25,-288.54617,773.99331)">
<g id="g23771" clip-path="url(#clipPath23773)">
<path id="path23777" stroke-linejoin="round" d="m472.14,395.46-5.28,0" stroke="#000" stroke-linecap="butt" stroke-miterlimit="10" stroke-dasharray="none" stroke-width="1.55999994" fill="none"/>
</g>
</g>
<g id="g23779" transform="matrix(1.25,0,0,-1.25,-288.54617,773.99331)">
<g id="g23781" clip-path="url(#clipPath23783)">
<text id="text23787" transform="matrix(1,0,0,-1,227.38,303.31)">
<tspan id="tspan23789" style="writing-mode:lr-tb;" font-weight="normal" fill-rule="nonzero" font-size="18px" font-variant="normal" y="0" x="0 9 19.007999 25.002001 28.926001 38.933998 48.852001 52.848" font-family="Arial" fill="#000000">variable</tspan>
</text>
</g>
</g>
<g id="g23791" transform="matrix(1.25,0,0,-1.25,-288.54617,773.99331)">
<g id="g23793" clip-path="url(#clipPath23795)">
<text id="text23799" transform="matrix(1,0,0,-1,227.5,281.71)">
<tspan id="tspan23801" style="writing-mode:lr-tb;" font-weight="normal" fill-rule="nonzero" font-size="18px" font-variant="normal" y="0" x="0 10.008 19.926001 24.93 37.566002 47.574001 53.568001" font-family="Arial" fill="#000000">network</tspan>
</text>
</g>
</g>
<g id="g23803" transform="matrix(1.25,0,0,-1.25,-288.54617,773.99331)">
<g id="g23805" clip-path="url(#clipPath23807)">
<text id="text23811" transform="matrix(1,0,0,-1,237.46,260.11)">
<tspan id="tspan23813" style="writing-mode:lr-tb;" font-weight="normal" fill-rule="nonzero" font-size="18px" font-variant="normal" y="0" x="0 10.008 19.926001 23.922001 33.84" font-family="Arial" fill="#000000">delay</tspan>
</text>
</g>
</g>
<g id="g23815" transform="matrix(1.25,0,0,-1.25,-288.54617,773.99331)">
<g id="g23817" clip-path="url(#clipPath23819)">
<text id="text23823" transform="matrix(1,0,0,-1,235.78,238.51)">
<tspan id="tspan23825" style="writing-mode:lr-tb;" font-weight="normal" fill-rule="nonzero" font-size="18px" font-variant="normal" y="0" x="0 5.994 9.9899998 13.914 18.917999 23.976 33.984001 39.978001" font-family="Arial" fill="#ff0000">(jitter)</tspan>
</text>
</g>
</g>
<path id="path23827" d="m-36.521,400.94,158.95,0,0,1.95-158.95,0,0-1.95zm1.25,4.725-7.5-3.75,7.5-3.75,0,7.5zm156.45-7.5,7.5,3.75-7.5,3.75,0-7.5z" fill-rule="nonzero" fill="#000"/>
<g id="g23829" transform="matrix(1.25,0,0,-1.25,-288.54617,773.99331)">
<g id="g23831" clip-path="url(#clipPath23833)">
<text id="text23837" transform="matrix(1,0,0,-1,391.66,369.34)">
<tspan id="tspan23839" style="writing-mode:lr-tb;" font-weight="normal" fill-rule="nonzero" font-size="18px" font-variant="normal" y="0" x="0 9 12.996 16.92 26.927999 36.846001" font-family="Arial" fill="#000000">client</tspan>
</text>
</g>
</g>
<g id="g23841" transform="matrix(1.25,0,0,-1.25,-288.54617,773.99331)">
<g id="g23843" clip-path="url(#clipPath23845)">
<text id="text23849" transform="matrix(1,0,0,-1,359.71,347.74)">
<tspan id="tspan23851" style="writing-mode:lr-tb;" font-weight="normal" fill-rule="nonzero" font-size="18px" font-variant="normal" y="0" x="0 5.994 16.002001 25.002001 34.919998 44.928001 49.931999 53.928001 63.846001" font-family="Arial" fill="#000000">reception</tspan>
</text>
</g>
</g>
<path id="path23853" stroke-linejoin="round" d="m146.53,503.02,0,22.5" stroke="#33C" stroke-linecap="butt" stroke-miterlimit="10" stroke-dasharray="none" stroke-width="1.94999993" fill="none"/>
<g id="g23855" transform="matrix(1.25,0,0,-1.25,-288.54617,773.99331)">
<g id="g23857" clip-path="url(#clipPath23859)">
<path id="path23863" stroke-linejoin="round" d="m366.18,216.78-18,0" stroke="#33C" stroke-linecap="butt" stroke-miterlimit="10" stroke-dasharray="none" stroke-width="1.55999994" fill="none"/>
</g>
</g>
<path id="path23865" stroke-linejoin="round" d="m169.33,480.52,0,22.5" stroke="#33C" stroke-linecap="butt" stroke-miterlimit="10" stroke-dasharray="none" stroke-width="1.94999993" fill="none"/>
<g id="g23867" transform="matrix(1.25,0,0,-1.25,-288.54617,773.99331)">
<g id="g23869" clip-path="url(#clipPath23871)">
<path id="path23875" stroke-linejoin="round" d="m384.42,234.78-18,0" stroke="#33C" stroke-linecap="butt" stroke-miterlimit="10" stroke-dasharray="none" stroke-width="1.55999994" fill="none"/>
</g>
</g>
<path id="path23877" stroke-linejoin="round" d="m192.13,457.72,0,22.5" stroke="#33C" stroke-linecap="butt" stroke-miterlimit="10" stroke-dasharray="none" stroke-width="1.94999993" fill="none"/>
<g id="g23879" transform="matrix(1.25,0,0,-1.25,-288.54617,773.99331)">
<g id="g23881" clip-path="url(#clipPath23883)">
<path id="path23887" stroke-linejoin="round" d="m402.66,253.02-18,0" stroke="#33C" stroke-linecap="butt" stroke-miterlimit="10" stroke-dasharray="none" stroke-width="1.55999994" fill="none"/>
</g>
</g>
<path id="path23889" stroke-linejoin="round" d="m214.93,435.22,0,22.5" stroke="#33C" stroke-linecap="butt" stroke-miterlimit="10" stroke-dasharray="none" stroke-width="1.94999993" fill="none"/>
<g id="g23891" transform="matrix(1.25,0,0,-1.25,-288.54617,773.99331)">
<g id="g23893" clip-path="url(#clipPath23895)">
<path id="path23899" stroke-linejoin="round" d="m420.9,271.02-18,0" stroke="#33C" stroke-linecap="butt" stroke-miterlimit="10" stroke-dasharray="none" stroke-width="1.55999994" fill="none"/>
</g>
</g>
<path id="path23901" stroke-linejoin="round" d="m238.18,412.57,0,22.5" stroke="#33C" stroke-linecap="butt" stroke-miterlimit="10" stroke-dasharray="none" stroke-width="1.94999993" fill="none"/>
<g id="g23903" transform="matrix(1.25,0,0,-1.25,-288.54617,773.99331)">
<g id="g23905" clip-path="url(#clipPath23907)">
<path id="path23911" stroke-linejoin="round" d="m439.62,289.14-18,0" stroke="#33C" stroke-linecap="butt" stroke-miterlimit="10" stroke-dasharray="none" stroke-width="1.55999994" fill="none"/>
</g>
</g>
<path id="path23913" stroke-linejoin="round" d="m261.13,390.07,0,22.5" stroke="#33C" stroke-linecap="butt" stroke-miterlimit="10" stroke-dasharray="none" stroke-width="1.94999993" fill="none"/>
<g id="g23915" transform="matrix(1.25,0,0,-1.25,-288.54617,773.99331)">
<g id="g23917" clip-path="url(#clipPath23919)">
<path id="path23923" stroke-linejoin="round" d="m457.86,307.14-18,0" stroke="#33C" stroke-linecap="butt" stroke-miterlimit="10" stroke-dasharray="none" stroke-width="1.55999994" fill="none"/>
</g>
</g>
<path id="path23925" stroke-linejoin="round" d="m283.93,367.27,0,22.5" stroke="#33C" stroke-linecap="butt" stroke-miterlimit="10" stroke-dasharray="none" stroke-width="1.94999993" fill="none"/>
<g id="g23927" transform="matrix(1.25,0,0,-1.25,-288.54617,773.99331)">
<g id="g23929" clip-path="url(#clipPath23931)">
<path id="path23935" stroke-linejoin="round" d="m476.1,325.38-18,0" stroke="#33C" stroke-linecap="butt" stroke-miterlimit="10" stroke-dasharray="none" stroke-width="1.55999994" fill="none"/>
</g>
</g>
<path id="path23937" stroke-linejoin="round" d="m306.73,344.77,0,22.5" stroke="#33C" stroke-linecap="butt" stroke-miterlimit="10" stroke-dasharray="none" stroke-width="1.94999993" fill="none"/>
<g id="g23939" transform="matrix(1.25,0,0,-1.25,-288.54617,773.99331)">
<g id="g23941" clip-path="url(#clipPath23943)">
<path id="path23947" stroke-linejoin="round" d="m494.34,343.38-18,0" stroke="#33C" stroke-linecap="butt" stroke-miterlimit="10" stroke-dasharray="none" stroke-width="1.55999994" fill="none"/>
</g>
</g>
<path id="path23949" stroke-linejoin="round" d="m329.53,322.27,0,22.5" stroke="#33C" stroke-linecap="butt" stroke-miterlimit="10" stroke-dasharray="none" stroke-width="1.94999993" fill="none"/>
<g id="g23951" transform="matrix(1.25,0,0,-1.25,-288.54617,773.99331)">
<g id="g23953" clip-path="url(#clipPath23955)">
<path id="path23959" stroke-linejoin="round" d="m512.58,361.38-18,0" stroke="#33C" stroke-linecap="butt" stroke-miterlimit="10" stroke-dasharray="none" stroke-width="1.55999994" fill="none"/>
</g>
</g>
<path id="path23961" stroke-linejoin="round" d="m352.33,299.32,0,22.5" stroke="#33C" stroke-linecap="butt" stroke-miterlimit="10" stroke-dasharray="none" stroke-width="1.94999993" fill="none"/>
<g id="g23963" transform="matrix(1.25,0,0,-1.25,-288.54617,773.99331)">
<g id="g23965" clip-path="url(#clipPath23967)">
<path id="path23971" stroke-linejoin="round" d="m530.82,379.74-18,0" stroke="#33C" stroke-linecap="butt" stroke-miterlimit="10" stroke-dasharray="none" stroke-width="1.55999994" fill="none"/>
</g>
</g>
<path id="path23973" stroke-linejoin="round" d="m375.13,276.82,0,22.5" stroke="#33C" stroke-linecap="butt" stroke-miterlimit="10" stroke-dasharray="none" stroke-width="1.94999993" fill="none"/>
<g id="g23975" transform="matrix(1.25,0,0,-1.25,-288.54617,773.99331)">
<g id="g23977" clip-path="url(#clipPath23979)">
<path id="path23983" stroke-linejoin="round" d="m549.06,397.74-18,0" stroke="#33C" stroke-linecap="butt" stroke-miterlimit="10" stroke-dasharray="none" stroke-width="1.55999994" fill="none"/>
</g>
</g>
<g id="g23985" transform="matrix(1.25,0,0,-1.25,-288.54617,773.99331)">
<g id="g23987" clip-path="url(#clipPath23989)">
<text id="text23993" transform="matrix(1,0,0,-1,515.83,362.59)">
<tspan id="tspan23995" style="writing-mode:lr-tb;" font-weight="normal" fill-rule="nonzero" font-size="18px" font-variant="normal" y="0" x="0 9 19.007999 28.926001 37.925999 42.93 52.938 62.891998 67.896004 72.954002 82.961998 86.867996 91.872002" font-family="Arial" fill="#000099">constant bit</tspan>
</text>
</g>
</g>
<g id="g23997" transform="matrix(1.25,0,0,-1.25,-288.54617,773.99331)">
<g id="g23999" clip-path="url(#clipPath24001)">
<text id="text24005" transform="matrix(1,0,0,-1,505.75,340.99)">
<tspan id="tspan24007" style="writing-mode:lr-tb;" font-weight="normal" fill-rule="nonzero" font-size="18.02400017px" font-variant="normal" y="0" x="0 6.0019922 15.95124 20.961912 30.983255 35.993927 45.943176 49.944504 59.857704 68.617371 78.584641 88.55191" font-family="Arial" fill="#000099">rate playout</tspan>
</text>
</g>
</g>
<g id="g24009" transform="matrix(1.25,0,0,-1.25,-288.54617,773.99331)">
<g id="g24011" clip-path="url(#clipPath24013)">
<text id="text24017" transform="matrix(1,0,0,-1,485.83,319.37)">
<tspan id="tspan24019" style="writing-mode:lr-tb;" font-weight="normal" fill-rule="nonzero" font-size="18px" font-variant="normal" y="0" x="0 10.008 15.012 19.926001 28.926001 32.922001 36.846001 46.854 56.771999" font-family="Arial" fill="#000099">at client</tspan>
</text>
</g>
</g>
<g id="g24021" transform="matrix(1.25,0,0,-1.25,-288.54617,773.99331)">
<g id="g24023" clip-path="url(#clipPath24025)">
<text id="text24029" transform="matrix(1,0,0,-1,248.14,174.29)">
<tspan id="tspan24031" style="writing-mode:lr-tb;" font-weight="normal" fill-rule="nonzero" font-size="18px" font-variant="normal" y="0" x="0 9 12.996 16.92 26.927999 36.846001 41.849998 47.034 57.042 60.948002 70.956001 79.667999 89.676003 99.594002" font-family="Arial" fill="#000099">client playout</tspan>
</text>
</g>
</g>
<g id="g24033" transform="matrix(1.25,0,0,-1.25,-288.54617,773.99331)">
<g id="g24035" clip-path="url(#clipPath24037)">
<text id="text24041" transform="matrix(1,0,0,-1,279.12,152.69)">
<tspan id="tspan24043" style="writing-mode:lr-tb;" font-weight="normal" fill-rule="nonzero" font-size="18px" font-variant="normal" y="0" x="0 10.008 19.926001 23.922001 33.84" font-family="Arial" fill="#000099">delay</tspan>
</text>
</g>
</g>
<path id="path24045" d="m24.391,567.84,115-0.8-0.025-1.95-115,0.8,0.025,1.95zm1.2125-4.725-7.475,3.8,7.525,3.7-0.05-7.5zm112.55,6.7,7.475-3.8-7.525-3.7,0.05,7.5z" fill-rule="nonzero" fill="#33C"/>
<path id="path24047" d="m179.45,473.52,0-75.7-1.95,0,0,75.7,1.95,0zm-4.725-1.25,3.75,7.5,3.75-7.5-7.5,0zm7.5-73.2-3.75-7.5-3.75,7.5,7.5,0z" fill-rule="nonzero" fill="#090"/>
<g id="g24049" transform="matrix(1.25,0,0,-1.25,-288.54617,773.99331)">
<g id="g24051" clip-path="url(#clipPath24053)">
<text id="text24057" transform="matrix(-4.4e-8,1,1,4.4e-8,368.4,242.23)">
<tspan id="tspan24059" style="writing-mode:lr-tb;" font-weight="normal" fill-rule="nonzero" font-size="14.06400013px" font-variant="normal" y="0" x="0 7.8195839 15.639168 19.323936 23.275921 31.095505 35.778816 43.42963" font-family="Arial" fill="#009900">buffered</tspan>
</text>
</g>
</g>
<g id="g24061" transform="matrix(1.25,0,0,-1.25,-288.54617,773.99331)">
<g id="g24063" clip-path="url(#clipPath24065)">
<text id="text24069" transform="matrix(-4.4e-8,1,1,4.4e-8,385.22,254.23)">
<tspan id="tspan24071" style="writing-mode:lr-tb;" font-weight="normal" fill-rule="nonzero" font-size="14.03999996px" font-variant="normal" y="0" x="0 7.8062401 15.61248 19.54368" font-family="Arial" fill="#009900">data</tspan>
</text>
</g>
</g>
</g>
</svg>
