<!-- Created with Inkscape (http://www.inkscape.org/) -->
<svg id="svg3671" xmlns:rdf="http://www.w3.org/1999/02/22-rdf-syntax-ns#" xmlns="http://www.w3.org/2000/svg" height="402.19" width="558.19" version="1.1" xmlns:cc="http://creativecommons.org/ns#" xmlns:xlink="http://www.w3.org/1999/xlink" xmlns:dc="http://purl.org/dc/elements/1.1/">
<defs id="defs3673">
<clipPath id="clipPath25269" clipPathUnits="userSpaceOnUse">
<path id="path25271" clip-rule="evenodd" d="M-0.000002106,0.00012207,720,0.00012207,720,540h-720v-540z"/>
</clipPath>
<clipPath id="clipPath25279" clipPathUnits="userSpaceOnUse">
<path id="path25281" d="m0,0,603.98,0,0,383h-603.98v-383z"/>
</clipPath>
</defs>
<metadata id="metadata3676">
<rdf:RDF>
<cc:Work rdf:about="">
<dc:format>image/svg+xml</dc:format>
<dc:type rdf:resource="http://purl.org/dc/dcmitype/StillImage"/>
<dc:title/>
</cc:Work>
</rdf:RDF>
</metadata>
<g id="layer1" transform="translate(148.67591,-223.84785)">
<g id="g25265" transform="matrix(1.25,0,0,-1.25,-302.45255,631.51171)">
<g id="g25267" clip-path="url(#clipPath25269)">
<g id="g25273" transform="matrix(7.25,0,0,4.595,76.32,6.1035e-5)">
<g id="g25275" transform="scale(0.11921,0.18799)">
<g id="g25277" clip-path="url(#clipPath25279)">
<path id="path25283" stroke-linejoin="round" d="m72.464,66.192,0,281.38" stroke="#000" stroke-linecap="butt" stroke-miterlimit="10" stroke-dasharray="none" stroke-width="0.71960998" fill="none"/>
<path id="path25285" d="m68.506,346.58,3.958,7.95,3.958-7.95-7.916,0z" fill-rule="evenodd" fill="#000"/>
<path id="path25287" stroke-linejoin="round" d="m72.464,66.192,424.88,0" stroke="#000" stroke-linecap="butt" stroke-miterlimit="10" stroke-dasharray="none" stroke-width="0.71960998" fill="none"/>
<path id="path25289" d="m496.38,70.155,7.92-3.963-7.92-3.964,0,7.927z" fill-rule="evenodd" fill="#000"/>
<path id="path25291" stroke-linejoin="round" d="m63.469,102.22,17.99,0" stroke="#000" stroke-linecap="butt" stroke-miterlimit="10" stroke-dasharray="none" stroke-width="0.71960998" fill="none"/>
<path id="path25293" stroke-linejoin="round" d="m63.469,138.28,17.99,0" stroke="#000" stroke-linecap="butt" stroke-miterlimit="10" stroke-dasharray="none" stroke-width="0.71960998" fill="none"/>
<path id="path25295" stroke-linejoin="round" d="m63.469,174.31,17.99,0" stroke="#000" stroke-linecap="butt" stroke-miterlimit="10" stroke-dasharray="none" stroke-width="0.71960998" fill="none"/>
<path id="path25297" stroke-linejoin="round" d="m63.469,210.36,17.99,0" stroke="#000" stroke-linecap="butt" stroke-miterlimit="10" stroke-dasharray="none" stroke-width="0.71960998" fill="none"/>
<path id="path25299" stroke-linejoin="round" d="m63.469,246.39,17.99,0" stroke="#000" stroke-linecap="butt" stroke-miterlimit="10" stroke-dasharray="none" stroke-width="0.71960998" fill="none"/>
<path id="path25301" stroke-linejoin="round" d="m63.469,282.45,17.99,0" stroke="#000" stroke-linecap="butt" stroke-miterlimit="10" stroke-dasharray="none" stroke-width="0.71960998" fill="none"/>
<path id="path25303" stroke-linejoin="round" d="m63.469,318.48,17.99,0" stroke="#000" stroke-linecap="butt" stroke-miterlimit="10" stroke-dasharray="none" stroke-width="0.71960998" fill="none"/>
<path id="path25305" stroke-linejoin="round" d="m108.44,75.199,0-18.039" stroke="#000" stroke-linecap="butt" stroke-miterlimit="10" stroke-dasharray="none" stroke-width="0.71960998" fill="none"/>
<path id="path25307" stroke-linejoin="round" d="m144.42,75.199,0-18.039" stroke="#000" stroke-linecap="butt" stroke-miterlimit="10" stroke-dasharray="none" stroke-width="0.71960998" fill="none"/>
<path id="path25309" stroke-linejoin="round" d="m180.43,75.199,0-18.039" stroke="#000" stroke-linecap="butt" stroke-miterlimit="10" stroke-dasharray="none" stroke-width="0.71960998" fill="none"/>
<path id="path25311" stroke-linejoin="round" d="m108.44,66.192,0,36.028,35.98,0,0,36.06,36.01,0,0,36.03,35.98,0,0,36.05,35.98,0,0,36.03,35.98,0,0,36.06,36,0" stroke="#00F" stroke-linecap="butt" stroke-miterlimit="10" stroke-dasharray="none" stroke-width="2.15879989" fill="none"/>
<path id="path25313" stroke-linejoin="round" d="m216.41,75.199,0-18.039" stroke="#000" stroke-linecap="butt" stroke-miterlimit="10" stroke-dasharray="none" stroke-width="0.71960998" fill="none"/>
<path id="path25315" stroke-linejoin="round" d="m252.39,75.199,0-18.039" stroke="#000" stroke-linecap="butt" stroke-miterlimit="10" stroke-dasharray="none" stroke-width="0.71960998" fill="none"/>
<path id="path25317" stroke-linejoin="round" d="m288.37,75.199,0-18.039" stroke="#000" stroke-linecap="butt" stroke-miterlimit="10" stroke-dasharray="none" stroke-width="0.71960998" fill="none"/>
<path id="path25319" stroke-linejoin="round" d="m324.37,75.199,0-18.039" stroke="#000" stroke-linecap="butt" stroke-miterlimit="10" stroke-dasharray="none" stroke-width="0.71960998" fill="none"/>
<path id="path25321" stroke-linejoin="round" d="m261.38,66.192,0,36.028,36.01,0,0,36.06,17.99,0,0,36.03,80.95,0,0,36.05,9,0,0,36.03,27.01,0,0,36.06,17.99,0" stroke="#F00" stroke-linecap="butt" stroke-miterlimit="10" stroke-dasharray="none" stroke-width="2.15879989" fill="none"/>
<path id="path25323" stroke-linejoin="round" d="M270.38,102.22,450.33,282.45" stroke="#000" stroke-linecap="butt" stroke-miterlimit="10" stroke-dasharray="none" stroke-width="1.19930005" fill="none"/>
<path id="path25325" stroke-linejoin="round" d="m338.77,174.31,0.12,1.2,0.72,1.08,0.96,0.84,1.07,0.48,1.32,0,1.2-0.48,0.96-0.84,0.6-1.08,0.24-1.2-0.24-1.2-0.6-1.08-0.96-0.85-1.2-0.48-1.32,0-1.07,0.48-0.96,0.85-0.72,1.08-0.12,1.2z" fill-rule="evenodd" stroke="#000" stroke-linecap="butt" stroke-miterlimit="10" stroke-dasharray="none" stroke-width="0.71960998" fill="#F0F"/>
<path id="path25327" stroke-linejoin="round" d="m374.75,210.36,0.12,1.2,0.72,1.08,0.96,0.84,1.07,0.48,1.32,0,1.2-0.48,0.96-0.84,0.6-1.08,0.24-1.2-0.24-1.2-0.6-1.08-0.96-0.84-1.2-0.48-1.32,0-1.07,0.48-0.96,0.84-0.72,1.08-0.12,1.2z" fill-rule="evenodd" stroke="#000" stroke-linecap="butt" stroke-miterlimit="10" stroke-dasharray="none" stroke-width="0.71960998" fill="#F0F"/>
<path id="path25329" stroke-linejoin="round" d="m302.79,138.28,0.12,1.2,0.72,1.08,0.96,0.84,1.07,0.48,1.32,0,1.2-0.48,0.96-0.84,0.6-1.08,0.24-1.2-0.24-1.2-0.6-1.09-0.96-0.84-1.2-0.48-1.32,0-1.07,0.48-0.96,0.84-0.72,1.09-0.12,1.2z" fill-rule="evenodd" stroke="#000" stroke-linecap="butt" stroke-miterlimit="10" stroke-dasharray="none" stroke-width="0.71960998" fill="#F0F"/>
<path id="path25331" stroke-linejoin="round" d="m266.78,103.54,0.12,1.32,0.72,1.09,0.96,0.72,1.08,0.48,1.32,0,1.2-0.48,0.96-0.72,0.6-1.09,0.24-1.32-0.24-1.2-0.6-1.08-0.96-0.84-1.2-0.36-1.32,0-1.08,0.36-0.96,0.84-0.72,1.08-0.12,1.2z" fill-rule="evenodd" stroke="#000" stroke-linecap="butt" stroke-miterlimit="10" stroke-dasharray="none" stroke-width="0.71960998" fill="#F0F"/>
<path id="path25333" stroke-linejoin="round" d="m360.35,75.199,0-18.039" stroke="#000" stroke-linecap="butt" stroke-miterlimit="10" stroke-dasharray="none" stroke-width="0.71960998" fill="none"/>
<path id="path25335" stroke-linejoin="round" d="m396.33,75.199,0-18.039" stroke="#000" stroke-linecap="butt" stroke-miterlimit="10" stroke-dasharray="none" stroke-width="0.71960998" fill="none"/>
<path id="path25337" stroke-linejoin="round" d="m410.75,246.39,0.12,1.2,0.72,1.08,0.96,0.84,1.08,0.49,1.32,0,1.2-0.49,0.96-0.84,0.6-1.08,0.24-1.2-0.24-1.2-0.6-1.08-0.96-0.84-1.2-0.48-1.32,0-1.08,0.48-0.96,0.84-0.72,1.08-0.12,1.2z" fill-rule="evenodd" stroke="#000" stroke-linecap="butt" stroke-miterlimit="10" stroke-dasharray="none" stroke-width="0.71960998" fill="#F0F"/>
<path id="path25339" stroke-linejoin="round" d="m446.73,282.45,0.12,1.2,0.72,1.08,0.96,0.84,1.08,0.48,1.32,0,1.2-0.48,0.96-0.84,0.6-1.08,0.24-1.2-0.24-1.2-0.6-1.09-0.96-0.84-1.2-0.48-1.32,0-1.08,0.48-0.96,0.84-0.72,1.09-0.12,1.2z" fill-rule="evenodd" stroke="#000" stroke-linecap="butt" stroke-miterlimit="10" stroke-dasharray="none" stroke-width="0.71960998" fill="#F0F"/>
<text id="text25341" transform="matrix(1,0,0,-1,53.131,367.38)">
<tspan id="tspan25343" style="writing-mode:lr-tb;" font-weight="normal" fill-rule="nonzero" font-size="14.03199959px" font-variant="normal" y="0" x="0 7.8017921 15.603584 22.647648 29.705744 37.507538 41.450527" font-family="Arial" fill="#000000">packets</tspan>
</text>
<text id="text25345" transform="matrix(1,0,0,-1,512.93,61.027)">
<tspan id="tspan25347" style="writing-mode:lr-tb;" font-weight="normal" fill-rule="nonzero" font-size="14.03199959px" font-variant="normal" y="0" x="0 3.942992 7.0580959 18.690624" font-family="Arial" fill="#000000">time</tspan>
</text>
<path id="path25349" stroke-linejoin="round" d="M333.37,102.22,513.29,282.45" stroke="#000" stroke-linecap="butt" stroke-miterlimit="10" stroke-dasharray="none" stroke-width="1.19930005" fill="none"/>
<path id="path25351" stroke-linejoin="round" d="m329.77,102.22,0.12,1.2,0.72,1.08,0.96,0.84,1.08,0.49,1.32,0,1.2-0.49,0.96-0.84,0.6-1.08,0.24-1.2-0.24-1.2-0.6-1.08-0.96-0.84-1.2-0.481-1.32,0-1.08,0.481-0.96,0.84-0.72,1.08-0.12,1.2z" fill-rule="evenodd" stroke="#000" stroke-linecap="butt" stroke-miterlimit="10" stroke-dasharray="none" stroke-width="0.71960998" fill="#F0F"/>
<path id="path25353" stroke-linejoin="round" d="m437.74,210.36,0.12,1.2,0.72,1.08,0.96,0.84,1.07,0.48,1.32,0,1.2-0.48,0.96-0.84,0.6-1.08,0.24-1.2-0.24-1.2-0.6-1.08-0.96-0.84-1.2-0.48-1.32,0-1.07,0.48-0.96,0.84-0.72,1.08-0.12,1.2z" fill-rule="evenodd" stroke="#000" stroke-linecap="butt" stroke-miterlimit="10" stroke-dasharray="none" stroke-width="0.71960998" fill="#F0F"/>
<path id="path25355" stroke-linejoin="round" d="m401.73,174.31,0.12,1.2,0.72,1.08,0.96,0.84,1.08,0.48,1.32,0,1.2-0.48,0.98-0.84,0.6-1.08,0.24-1.2-0.24-1.2-0.6-1.08-0.98-0.85-1.2-0.48-1.32,0-1.08,0.48-0.96,0.85-0.72,1.08-0.12,1.2z" fill-rule="evenodd" stroke="#000" stroke-linecap="butt" stroke-miterlimit="10" stroke-dasharray="none" stroke-width="0.71960998" fill="#F0F"/>
<path id="path25357" stroke-linejoin="round" d="m365.75,138.28,0.12,1.2,0.72,1.08,0.96,0.84,1.08,0.48,1.32,0,1.2-0.48,0.96-0.84,0.6-1.08,0.24-1.2-0.24-1.2-0.6-1.09-0.96-0.84-1.2-0.48-1.32,0-1.08,0.48-0.96,0.84-0.72,1.09-0.12,1.2z" fill-rule="evenodd" stroke="#000" stroke-linecap="butt" stroke-miterlimit="10" stroke-dasharray="none" stroke-width="0.71960998" fill="#F0F"/>
<path id="path25359" stroke-linejoin="round" d="m468.32,75.199,0-18.039" stroke="#000" stroke-linecap="butt" stroke-miterlimit="10" stroke-dasharray="none" stroke-width="0.71960998" fill="none"/>
<path id="path25361" stroke-linejoin="round" d="m432.34,75.199,0-18.039" stroke="#000" stroke-linecap="butt" stroke-miterlimit="10" stroke-dasharray="none" stroke-width="0.71960998" fill="none"/>
<path id="path25363" stroke-linejoin="round" d="m473.72,246.39,0.12,1.2,0.72,1.08,0.96,0.84,1.07,0.49,1.32,0,1.2-0.49,0.96-0.84,0.6-1.08,0.24-1.2-0.24-1.2-0.6-1.08-0.96-0.84-1.2-0.48-1.32,0-1.07,0.48-0.96,0.84-0.72,1.08-0.12,1.2z" fill-rule="evenodd" stroke="#000" stroke-linecap="butt" stroke-miterlimit="10" stroke-dasharray="none" stroke-width="0.71960998" fill="#F0F"/>
<path id="path25365" stroke-linejoin="round" d="m509.7,282.45,0.12,1.2,0.72,1.08,0.96,0.84,1.08,0.48,1.31,0,1.2-0.48,0.96-0.84,0.6-1.08,0.24-1.2-0.24-1.2-0.6-1.09-0.96-0.84-1.2-0.48-1.31,0-1.08,0.48-0.96,0.84-0.72,1.09-0.12,1.2z" fill-rule="evenodd" stroke="#000" stroke-linecap="butt" stroke-miterlimit="10" stroke-dasharray="none" stroke-width="0.71960998" fill="#F0F"/>
<text id="text25367" transform="matrix(1,0,0,-1,162.89,231.02)">
<tspan id="tspan25369" style="writing-mode:lr-tb;" font-weight="bold" fill-rule="nonzero" font-size="11.99300003px" font-variant="normal" y="0" x="0 7.327723 14.019817 20.723904 27.427992 34.132076 38.125748" font-family="Arial" fill="#0000ff">packets</tspan>
</text>
<text id="text25371" transform="matrix(1,0,0,-1,156.66,216.61)">
<tspan id="tspan25373" style="writing-mode:lr-tb;" font-weight="bold" fill-rule="nonzero" font-size="11.99300003px" font-variant="normal" y="0" x="0 7.327723 14.019817 21.34754 28.039635 32.70491 39.42099 43.414661 50.082767" font-family="Arial" fill="#0000ff">generated</tspan>
</text>
<path id="path25375" stroke-linejoin="round" d="m189.42,210.36,17.99-14.43" stroke="#00F" stroke-linecap="butt" stroke-miterlimit="10" stroke-dasharray="none" stroke-width="0.71960998" fill="none"/>
<path id="path25377" d="m208.85,198.93,3-6.61-7.07,1.56,4.07,5.05z" fill-rule="evenodd" fill="#00F"/>
<text id="text25379" transform="matrix(1,0,0,-1,269.9,195.93)">
<tspan id="tspan25381" style="writing-mode:lr-tb;" font-weight="bold" fill-rule="nonzero" font-size="11.99300003px" font-variant="normal" y="0" x="0 7.327723 14.019817 20.723904 27.427992 34.132076 38.125748" font-family="Arial" fill="#ff0000">packets</tspan>
</text>
<text id="text25383" transform="matrix(1,0,0,-1,267.98,181.51)">
<tspan id="tspan25385" style="writing-mode:lr-tb;" font-weight="bold" fill-rule="nonzero" font-size="11.99300003px" font-variant="normal" y="0" x="0 4.665277 11.381357 18.085443 24.789532 28.123585 34.623791 41.327877" font-family="Arial" fill="#ff0000">received</tspan>
</text>
<path id="path25387" stroke-linejoin="round" d="m288.37,174.31,13.46-10.09" stroke="#F00" stroke-linecap="butt" stroke-miterlimit="10" stroke-dasharray="none" stroke-width="0.71960998" fill="none"/>
<path id="path25389" d="m303.15,167.22,3.23-6.48-7.19,1.32,3.96,5.16z" fill-rule="evenodd" fill="#F00"/>
<text id="text25391" transform="matrix(1,0,0,-1,334.81,232.22)">
<tspan id="tspan25393" style="writing-mode:lr-tb;" font-weight="normal" fill-rule="nonzero" font-size="14.03199959px" font-variant="normal" y="0" x="0 3.115104 10.916896 17.974993" font-family="Arial" fill="#000000">loss</tspan>
</text>
<path id="path25395" stroke-linejoin="round" d="m351.36,228.38,13.43-10.09" stroke="#000" stroke-linecap="butt" stroke-miterlimit="10" stroke-dasharray="none" stroke-width="0.71960998" fill="none"/>
<path id="path25397" d="m366.11,221.29,3.24-6.48-7.2,1.32,3.96,5.16z" fill-rule="evenodd" fill="#000"/>
<text id="text25399" transform="matrix(1,0,0,-1,259.35,27.495)">
<tspan id="tspan25401" style="writing-mode:lr-tb;" font-weight="normal" fill-rule="nonzero" font-size="11.99300003px" font-variant="normal" y="0" x="0" font-family="Arial" fill="#000000">r</tspan>
</text>
<text id="text25403" transform="matrix(1,0,0,-1,267.02,7.5582)">
<tspan id="tspan25405" style="writing-mode:lr-tb;" font-weight="normal" fill-rule="nonzero" font-size="11.99300003px" font-variant="normal" y="0" x="0" font-family="Arial" fill="#000000">p</tspan>
</text>
<path id="path25407" stroke-linejoin="round" d="m261.38,43.589,0,11.169" stroke="#000" stroke-linecap="butt" stroke-miterlimit="10" stroke-dasharray="none" stroke-width="0.71960998" fill="none"/>
<path id="path25409" d="m257.43,53.677,3.95,7.951,3.96-7.951-7.91,0z" fill-rule="evenodd" fill="#000"/>
<path id="path25411" stroke-linejoin="round" d="m270.38,21.13,0,33.628" stroke="#000" stroke-linecap="butt" stroke-miterlimit="10" stroke-dasharray="none" stroke-width="0.71960998" fill="none"/>
<path id="path25413" d="m266.42,53.677,3.96,7.951,3.96-7.951-7.92,0z" fill-rule="evenodd" fill="#000"/>
<path id="path25415" stroke-linejoin="round" d="m333.37,21.13,0,33.628" stroke="#000" stroke-linecap="butt" stroke-miterlimit="10" stroke-dasharray="none" stroke-width="0.71960998" fill="none"/>
<path id="path25417" d="m329.41,53.677,3.96,7.951,3.96-7.951-7.92,0z" fill-rule="evenodd" fill="#000"/>
<text id="text25419" transform="matrix(1,0,0,-1,328.81,8.519)">
<tspan id="tspan25421" style="writing-mode:lr-tb;" font-weight="normal" fill-rule="nonzero" font-size="11.99300003px" font-variant="normal" y="0" x="0 6.7161078" font-family="Arial" fill="#000000">p&apos;</tspan>
</text>
<text id="text25423" transform="matrix(1,0,0,-1,473.36,187.88)">
<tspan id="tspan25425" style="writing-mode:lr-tb;" font-weight="bold" fill-rule="nonzero" font-size="11.99300003px" font-variant="normal" y="0" x="0 7.327723 10.661777 17.377857 23.734146 31.061871 38.389591 42.323296 45.657352 52.385426 59.089512 66.417236 73.109329 80.43705 87.764771 91.098831" font-family="Arial" fill="#000000">playout schedule</tspan>
</text>
<text id="text25427" transform="matrix(1,0,0,-1,509.46,173.47)">
<tspan id="tspan25429" style="writing-mode:lr-tb;" font-weight="bold" fill-rule="nonzero" font-size="11.99300003px" font-variant="normal" y="0" x="0 7.327723 10.182057 13.540097 17.533766 20.867821" font-family="Arial" fill="#000000">p&apos; - r</tspan>
</text>
<path id="path25431" stroke-linejoin="round" d="m486.31,201.33-57.69,49.51" stroke="#000" stroke-linecap="butt" stroke-miterlimit="10" stroke-dasharray="none" stroke-width="0.71960998" fill="none"/>
<path id="path25433" d="m426.7,247.23-3.36,8.17,8.52-2.16-5.16-6.01z" fill-rule="evenodd" fill="#000"/>
<text id="text25435" transform="matrix(1,0,0,-1,419.39,133.83)">
<tspan id="tspan25437" style="writing-mode:lr-tb;" font-weight="bold" fill-rule="nonzero" font-size="11.99300003px" font-variant="normal" y="0" x="0 7.327723 10.661777 17.377857 23.734146 31.061871 38.389591 42.323296 45.657352 52.385426 59.089512 66.417236 73.109329 80.43705 87.764771 91.098831" font-family="Arial" fill="#000000">playout schedule</tspan>
</text>
<text id="text25439" transform="matrix(1,0,0,-1,456.93,119.4)">
<tspan id="tspan25441" style="writing-mode:lr-tb;" font-weight="bold" fill-rule="nonzero" font-size="11.99300003px" font-variant="normal" y="0" x="0 7.327723 10.661777 14.655446 17.9895" font-family="Arial" fill="#000000">p - r</tspan>
</text>
<path id="path25443" stroke-linejoin="round" d="m450.33,151.73-30.82,27.02" stroke="#000" stroke-linecap="butt" stroke-miterlimit="10" stroke-dasharray="none" stroke-width="0.71960998" fill="none"/>
<path id="path25445" d="m417.71,175.15-3.36,8.16,8.51-2.28-5.15-5.88z" fill-rule="evenodd" fill="#000"/>
</g>
</g>
</g>
</g>
</g>
</g>
</svg>
