<?xml version="1.0" encoding="UTF-8" standalone="no"?>
<svg width="142.61mm" height="108.479mm"
 xmlns="http://www.w3.org/2000/svg" xmlns:xlink="http://www.w3.org/1999/xlink"  version="1.2" baseProfile="tiny">
<title>Qt Svg Document</title>
<desc>Generated with Qt</desc>
<defs>
</defs>
<g fill="none" stroke="black" stroke-width="1" fill-rule="evenodd" stroke-linecap="square" stroke-linejoin="bevel" >

<g fill="#ffffff" fill-opacity="0" stroke="none" transform="matrix(1,0,0,1,0,0)"
font-family="Sans Serif" font-size="12" font-weight="400" font-style="normal" 
>
<path vector-effect="non-scaling-stroke" fill-rule="evenodd" d="M5,5 L534,5 L534,400 L5,400 L5,5"/>
</g>

<g fill="none" stroke="none" transform="matrix(1,0,0,1,0,0)"
font-family="Sans Serif" font-size="12" font-weight="400" font-style="normal" 
>
<path vector-effect="non-scaling-stroke" fill-rule="evenodd" d="M5,5 L534,5 L534,400 L5,400 L5,5"/>
</g>

<g fill="none" stroke="#000000" stroke-opacity="1" stroke-width="1" stroke-linecap="square" stroke-linejoin="bevel" transform="matrix(1,0,0,1,0,0)"
font-family="Sans Serif" font-size="12" font-weight="400" font-style="normal" 
>
</g>

<g fill="#ffffff" fill-opacity="0" stroke="none" transform="matrix(1,0,0,1,0,0)"
font-family="Sans Serif" font-size="12" font-weight="400" font-style="normal" 
>
<path vector-effect="non-scaling-stroke" fill-rule="evenodd" d="M70,36 L509,36 L509,355 L70,355 L70,36"/>
</g>

<g fill="none" stroke="#000000" stroke-opacity="1" stroke-width="1" stroke-linecap="square" stroke-linejoin="bevel" transform="matrix(1,0,0,1,0,0)"
font-family="Sans Serif" font-size="12" font-weight="400" font-style="normal" 
>
</g>

<g fill="none" stroke="#000000" stroke-opacity="1" stroke-width="1" stroke-linecap="square" stroke-linejoin="bevel" transform="matrix(1,0,0,1,0,0)"
font-family="Sans Serif" font-size="12" font-weight="400" font-style="normal" 
>
</g>

<g fill="none" stroke="#000000" stroke-opacity="1" stroke-width="1" stroke-linecap="square" stroke-linejoin="bevel" transform="matrix(1,0,0,1,0,0)"
font-family="Sans Serif" font-size="12" font-weight="400" font-style="normal" 
>
</g>

<g fill="none" stroke="#000000" stroke-opacity="1" stroke-width="1" stroke-linecap="square" stroke-linejoin="bevel" transform="matrix(1,0,0,1,0,0)"
font-family="Sans Serif" font-size="12" font-weight="400" font-style="normal" 
>
</g>

<g fill="none" stroke="#ff0000" stroke-opacity="1" stroke-width="2" stroke-linecap="square" stroke-linejoin="miter" stroke-miterlimit="2" transform="matrix(1,0,0,1,0,0)"
font-family="Sans Serif" font-size="12" font-weight="400" font-style="normal" 
>
<polyline fill="none" vector-effect="non-scaling-stroke" points="70,347.784 102.397,340.657 121.348,338.883 134.793,337.531 145.223,337.41 177.62,330.975 196.571,328.16 210.016,321.351 220.446,319.702 228.967,312.903 252.843,294.254 285.239,250.733 360.462,220.105 392.859,138.309 500.479,84.9993 " />
</g>

<g fill="none" stroke="#000000" stroke-opacity="1" stroke-width="1" stroke-linecap="square" stroke-linejoin="bevel" transform="matrix(1,0,0,1,0,0)"
font-family="Sans Serif" font-size="12" font-weight="400" font-style="normal" 
>
</g>

<g fill="#000000" fill-opacity="1" stroke="#000000" stroke-opacity="1" stroke-width="1" stroke-linecap="butt" stroke-linejoin="miter" stroke-miterlimit="2" transform="matrix(1,0,0,1,0,0)"
font-family="Sans Serif" font-size="12" font-weight="400" font-style="normal" 
>
<path vector-effect="non-scaling-stroke" fill-rule="evenodd" d="M106,341.5 C106,343.433 104.433,345 102.5,345 C100.567,345 99,343.433 99,341.5 C99,339.567 100.567,338 102.5,338 C104.433,338 106,339.567 106,341.5 "/>
<path vector-effect="non-scaling-stroke" fill-rule="evenodd" d="M125,339.5 C125,341.433 123.433,343 121.5,343 C119.567,343 118,341.433 118,339.5 C118,337.567 119.567,336 121.5,336 C123.433,336 125,337.567 125,339.5 "/>
<path vector-effect="non-scaling-stroke" fill-rule="evenodd" d="M139,338.5 C139,340.433 137.433,342 135.5,342 C133.567,342 132,340.433 132,338.5 C132,336.567 133.567,335 135.5,335 C137.433,335 139,336.567 139,338.5 "/>
<path vector-effect="non-scaling-stroke" fill-rule="evenodd" d="M149,337.5 C149,339.433 147.433,341 145.5,341 C143.567,341 142,339.433 142,337.5 C142,335.567 143.567,334 145.5,334 C147.433,334 149,335.567 149,337.5 "/>
<path vector-effect="non-scaling-stroke" fill-rule="evenodd" d="M182,331.5 C182,333.433 180.433,335 178.5,335 C176.567,335 175,333.433 175,331.5 C175,329.567 176.567,328 178.5,328 C180.433,328 182,329.567 182,331.5 "/>
<path vector-effect="non-scaling-stroke" fill-rule="evenodd" d="M201,328.5 C201,330.433 199.433,332 197.5,332 C195.567,332 194,330.433 194,328.5 C194,326.567 195.567,325 197.5,325 C199.433,325 201,326.567 201,328.5 "/>
<path vector-effect="non-scaling-stroke" fill-rule="evenodd" d="M214,321.5 C214,323.433 212.433,325 210.5,325 C208.567,325 207,323.433 207,321.5 C207,319.567 208.567,318 210.5,318 C212.433,318 214,319.567 214,321.5 "/>
<path vector-effect="non-scaling-stroke" fill-rule="evenodd" d="M224,320.5 C224,322.433 222.433,324 220.5,324 C218.567,324 217,322.433 217,320.5 C217,318.567 218.567,317 220.5,317 C222.433,317 224,318.567 224,320.5 "/>
<path vector-effect="non-scaling-stroke" fill-rule="evenodd" d="M233,313.5 C233,315.433 231.433,317 229.5,317 C227.567,317 226,315.433 226,313.5 C226,311.567 227.567,310 229.5,310 C231.433,310 233,311.567 233,313.5 "/>
<path vector-effect="non-scaling-stroke" fill-rule="evenodd" d="M257,294.5 C257,296.433 255.433,298 253.5,298 C251.567,298 250,296.433 250,294.5 C250,292.567 251.567,291 253.5,291 C255.433,291 257,292.567 257,294.5 "/>
<path vector-effect="non-scaling-stroke" fill-rule="evenodd" d="M289,251.5 C289,253.433 287.433,255 285.5,255 C283.567,255 282,253.433 282,251.5 C282,249.567 283.567,248 285.5,248 C287.433,248 289,249.567 289,251.5 "/>
<path vector-effect="non-scaling-stroke" fill-rule="evenodd" d="M364,220.5 C364,222.433 362.433,224 360.5,224 C358.567,224 357,222.433 357,220.5 C357,218.567 358.567,217 360.5,217 C362.433,217 364,218.567 364,220.5 "/>
<path vector-effect="non-scaling-stroke" fill-rule="evenodd" d="M397,138.5 C397,140.433 395.433,142 393.5,142 C391.567,142 390,140.433 390,138.5 C390,136.567 391.567,135 393.5,135 C395.433,135 397,136.567 397,138.5 "/>
<path vector-effect="non-scaling-stroke" fill-rule="evenodd" d="M504,85.5 C504,87.433 502.433,89 500.5,89 C498.567,89 497,87.433 497,85.5 C497,83.567 498.567,82 500.5,82 C502.433,82 504,83.567 504,85.5 "/>
</g>

<g fill="none" stroke="#000000" stroke-opacity="1" stroke-width="1" stroke-linecap="square" stroke-linejoin="bevel" transform="matrix(1,0,0,1,0,0)"
font-family="Sans Serif" font-size="12" font-weight="400" font-style="normal" 
>
</g>

<g fill="none" stroke="#000000" stroke-opacity="1" stroke-width="1" stroke-linecap="square" stroke-linejoin="bevel" transform="matrix(1,0,0,1,0,0)"
font-family="Sans Serif" font-size="12" font-weight="400" font-style="normal" 
>
</g>

<g fill="none" stroke="#000000" stroke-opacity="1" stroke-width="1" stroke-linecap="square" stroke-linejoin="bevel" transform="matrix(1,0,0,1,0,0)"
font-family="Sans Serif" font-size="12" font-weight="400" font-style="normal" 
>
</g>

<g fill="none" stroke="#000000" stroke-opacity="1" stroke-width="1" stroke-linecap="square" stroke-linejoin="bevel" transform="matrix(1,0,0,1,0,0)"
font-family="DejaVu Sans" font-size="18.6667" font-weight="700" font-style="normal" 
>
</g>

<g fill="none" stroke="#000000" stroke-opacity="1" stroke-width="1" stroke-linecap="square" stroke-linejoin="bevel" transform="matrix(1,0,0,1,0,0)"
font-family="Sans Serif" font-size="14.6667" font-weight="700" font-style="normal" 
>
<text fill="#000000" fill-opacity="1" stroke="none" xml:space="preserve" x="299.391" y="19" font-family="Sans Serif" font-size="14.6667" font-weight="700" font-style="normal" 
 > </text>
</g>

<g fill="none" stroke="#000000" stroke-opacity="1" stroke-width="1" stroke-linecap="square" stroke-linejoin="bevel" transform="matrix(1,0,0,1,0,0)"
font-family="DejaVu Sans" font-size="18.6667" font-weight="700" font-style="normal" 
>
</g>

<g fill="none" stroke="#000000" stroke-opacity="1" stroke-width="1" stroke-linecap="square" stroke-linejoin="bevel" transform="matrix(0,-1,1,0,5,361)"
font-family="Sans Serif" font-size="12" font-weight="400" font-style="normal" 
>
</g>

<g fill="none" stroke="#000000" stroke-opacity="1" stroke-width="1" stroke-linecap="square" stroke-linejoin="bevel" transform="matrix(0,-1,1,0,5,361)"
font-family="Sans Serif" font-size="12" font-weight="700" font-style="normal" 
>
<text fill="#000000" fill-opacity="1" stroke="none" xml:space="preserve" x="133" y="11" font-family="Sans Serif" font-size="12" font-weight="700" font-style="normal" 
 >cwnd (kb)</text>
</g>

<g fill="none" stroke="#000000" stroke-opacity="1" stroke-width="1" stroke-linecap="square" stroke-linejoin="bevel" transform="matrix(0,-1,1,0,5,361)"
font-family="Sans Serif" font-size="12" font-weight="400" font-style="normal" 
>
</g>

<g fill="none" stroke="#000000" stroke-opacity="1" stroke-width="1" stroke-linecap="square" stroke-linejoin="bevel" transform="matrix(1,0,0,1,0,0)"
font-family="DejaVu Sans" font-size="18.6667" font-weight="700" font-style="normal" 
>
</g>

<g fill="none" stroke="#000000" stroke-opacity="1" stroke-width="1" stroke-linecap="square" stroke-linejoin="bevel" transform="matrix(1,0,0,1,0,0)"
font-family="Sans Serif" font-size="12" font-weight="400" font-style="normal" 
>
</g>

<g fill="none" stroke="#000000" stroke-opacity="1" stroke-width="1" stroke-linecap="square" stroke-linejoin="bevel" transform="matrix(1,0,0,1,0,0)"
font-family="Sans Serif" font-size="12" font-weight="400" font-style="normal" 
>
</g>

<g fill="none" stroke="#000000" stroke-opacity="1" stroke-width="1" stroke-linecap="square" stroke-linejoin="bevel" transform="matrix(1,0,0,1,49,348)"
font-family="Sans Serif" font-size="12" font-weight="400" font-style="normal" 
>
<text fill="#000000" fill-opacity="1" stroke="none" xml:space="preserve" x="0" y="11" font-family="Sans Serif" font-size="12" font-weight="400" font-style="normal" 
 >0</text>
</g>

<g fill="none" stroke="#000000" stroke-opacity="1" stroke-width="1" stroke-linecap="square" stroke-linejoin="bevel" transform="matrix(1,0,0,1,49,348)"
font-family="Sans Serif" font-size="12" font-weight="400" font-style="normal" 
>
</g>

<g fill="none" stroke="#000000" stroke-opacity="1" stroke-width="1" stroke-linecap="square" stroke-linejoin="bevel" transform="matrix(1,0,0,1,0,0)"
font-family="Sans Serif" font-size="12" font-weight="400" font-style="normal" 
>
</g>

<g fill="none" stroke="#000000" stroke-opacity="1" stroke-width="1" stroke-linecap="square" stroke-linejoin="bevel" transform="matrix(1,0,0,1,22,295)"
font-family="Sans Serif" font-size="12" font-weight="400" font-style="normal" 
>
<text fill="#000000" fill-opacity="1" stroke="none" xml:space="preserve" x="0" y="11" font-family="Sans Serif" font-size="12" font-weight="400" font-style="normal" 
 >1,000</text>
</g>

<g fill="none" stroke="#000000" stroke-opacity="1" stroke-width="1" stroke-linecap="square" stroke-linejoin="bevel" transform="matrix(1,0,0,1,22,295)"
font-family="Sans Serif" font-size="12" font-weight="400" font-style="normal" 
>
</g>

<g fill="none" stroke="#000000" stroke-opacity="1" stroke-width="1" stroke-linecap="square" stroke-linejoin="bevel" transform="matrix(1,0,0,1,0,0)"
font-family="Sans Serif" font-size="12" font-weight="400" font-style="normal" 
>
</g>

<g fill="none" stroke="#000000" stroke-opacity="1" stroke-width="1" stroke-linecap="square" stroke-linejoin="bevel" transform="matrix(1,0,0,1,22,242)"
font-family="Sans Serif" font-size="12" font-weight="400" font-style="normal" 
>
<text fill="#000000" fill-opacity="1" stroke="none" xml:space="preserve" x="0" y="11" font-family="Sans Serif" font-size="12" font-weight="400" font-style="normal" 
 >2,000</text>
</g>

<g fill="none" stroke="#000000" stroke-opacity="1" stroke-width="1" stroke-linecap="square" stroke-linejoin="bevel" transform="matrix(1,0,0,1,22,242)"
font-family="Sans Serif" font-size="12" font-weight="400" font-style="normal" 
>
</g>

<g fill="none" stroke="#000000" stroke-opacity="1" stroke-width="1" stroke-linecap="square" stroke-linejoin="bevel" transform="matrix(1,0,0,1,0,0)"
font-family="Sans Serif" font-size="12" font-weight="400" font-style="normal" 
>
</g>

<g fill="none" stroke="#000000" stroke-opacity="1" stroke-width="1" stroke-linecap="square" stroke-linejoin="bevel" transform="matrix(1,0,0,1,22,189)"
font-family="Sans Serif" font-size="12" font-weight="400" font-style="normal" 
>
<text fill="#000000" fill-opacity="1" stroke="none" xml:space="preserve" x="0" y="11" font-family="Sans Serif" font-size="12" font-weight="400" font-style="normal" 
 >3,000</text>
</g>

<g fill="none" stroke="#000000" stroke-opacity="1" stroke-width="1" stroke-linecap="square" stroke-linejoin="bevel" transform="matrix(1,0,0,1,22,189)"
font-family="Sans Serif" font-size="12" font-weight="400" font-style="normal" 
>
</g>

<g fill="none" stroke="#000000" stroke-opacity="1" stroke-width="1" stroke-linecap="square" stroke-linejoin="bevel" transform="matrix(1,0,0,1,0,0)"
font-family="Sans Serif" font-size="12" font-weight="400" font-style="normal" 
>
</g>

<g fill="none" stroke="#000000" stroke-opacity="1" stroke-width="1" stroke-linecap="square" stroke-linejoin="bevel" transform="matrix(1,0,0,1,22,135)"
font-family="Sans Serif" font-size="12" font-weight="400" font-style="normal" 
>
<text fill="#000000" fill-opacity="1" stroke="none" xml:space="preserve" x="0" y="11" font-family="Sans Serif" font-size="12" font-weight="400" font-style="normal" 
 >4,000</text>
</g>

<g fill="none" stroke="#000000" stroke-opacity="1" stroke-width="1" stroke-linecap="square" stroke-linejoin="bevel" transform="matrix(1,0,0,1,22,135)"
font-family="Sans Serif" font-size="12" font-weight="400" font-style="normal" 
>
</g>

<g fill="none" stroke="#000000" stroke-opacity="1" stroke-width="1" stroke-linecap="square" stroke-linejoin="bevel" transform="matrix(1,0,0,1,0,0)"
font-family="Sans Serif" font-size="12" font-weight="400" font-style="normal" 
>
</g>

<g fill="none" stroke="#000000" stroke-opacity="1" stroke-width="1" stroke-linecap="square" stroke-linejoin="bevel" transform="matrix(1,0,0,1,22,82)"
font-family="Sans Serif" font-size="12" font-weight="400" font-style="normal" 
>
<text fill="#000000" fill-opacity="1" stroke="none" xml:space="preserve" x="0" y="11" font-family="Sans Serif" font-size="12" font-weight="400" font-style="normal" 
 >5,000</text>
</g>

<g fill="none" stroke="#000000" stroke-opacity="1" stroke-width="1" stroke-linecap="square" stroke-linejoin="bevel" transform="matrix(1,0,0,1,22,82)"
font-family="Sans Serif" font-size="12" font-weight="400" font-style="normal" 
>
</g>

<g fill="none" stroke="#000000" stroke-opacity="1" stroke-width="1" stroke-linecap="square" stroke-linejoin="bevel" transform="matrix(1,0,0,1,0,0)"
font-family="Sans Serif" font-size="12" font-weight="400" font-style="normal" 
>
</g>

<g fill="none" stroke="#000000" stroke-opacity="1" stroke-width="1" stroke-linecap="square" stroke-linejoin="bevel" transform="matrix(1,0,0,1,22,29)"
font-family="Sans Serif" font-size="12" font-weight="400" font-style="normal" 
>
<text fill="#000000" fill-opacity="1" stroke="none" xml:space="preserve" x="0" y="11" font-family="Sans Serif" font-size="12" font-weight="400" font-style="normal" 
 >6,000</text>
</g>

<g fill="none" stroke="#000000" stroke-opacity="1" stroke-width="1" stroke-linecap="square" stroke-linejoin="bevel" transform="matrix(1,0,0,1,22,29)"
font-family="Sans Serif" font-size="12" font-weight="400" font-style="normal" 
>
</g>

<g fill="none" stroke="#000000" stroke-opacity="1" stroke-width="1" stroke-linecap="square" stroke-linejoin="bevel" transform="matrix(1,0,0,1,0,0)"
font-family="Sans Serif" font-size="12" font-weight="400" font-style="normal" 
>
</g>

<g fill="none" stroke="#000000" stroke-opacity="1" stroke-width="1" stroke-linecap="square" stroke-linejoin="bevel" transform="matrix(1,0,0,1,0,0)"
font-family="Sans Serif" font-size="12" font-weight="400" font-style="normal" 
>
<polyline fill="none" vector-effect="none" points="70,344 65,344 " />
<polyline fill="none" vector-effect="none" points="70,334 65,334 " />
<polyline fill="none" vector-effect="none" points="70,323 65,323 " />
<polyline fill="none" vector-effect="none" points="70,312 65,312 " />
<polyline fill="none" vector-effect="none" points="70,291 65,291 " />
<polyline fill="none" vector-effect="none" points="70,281 65,281 " />
<polyline fill="none" vector-effect="none" points="70,270 65,270 " />
<polyline fill="none" vector-effect="none" points="70,259 65,259 " />
<polyline fill="none" vector-effect="none" points="70,238 65,238 " />
<polyline fill="none" vector-effect="none" points="70,227 65,227 " />
<polyline fill="none" vector-effect="none" points="70,217 65,217 " />
<polyline fill="none" vector-effect="none" points="70,206 65,206 " />
<polyline fill="none" vector-effect="none" points="70,185 65,185 " />
<polyline fill="none" vector-effect="none" points="70,174 65,174 " />
<polyline fill="none" vector-effect="none" points="70,164 65,164 " />
<polyline fill="none" vector-effect="none" points="70,153 65,153 " />
<polyline fill="none" vector-effect="none" points="70,132 65,132 " />
<polyline fill="none" vector-effect="none" points="70,121 65,121 " />
<polyline fill="none" vector-effect="none" points="70,110 65,110 " />
<polyline fill="none" vector-effect="none" points="70,100 65,100 " />
<polyline fill="none" vector-effect="none" points="70,79 65,79 " />
<polyline fill="none" vector-effect="none" points="70,68 65,68 " />
<polyline fill="none" vector-effect="none" points="70,57 65,57 " />
<polyline fill="none" vector-effect="none" points="70,47 65,47 " />
<polyline fill="none" vector-effect="none" points="70,355 61,355 " />
<polyline fill="none" vector-effect="none" points="70,302 61,302 " />
<polyline fill="none" vector-effect="none" points="70,249 61,249 " />
<polyline fill="none" vector-effect="none" points="70,196 61,196 " />
<polyline fill="none" vector-effect="none" points="70,142 61,142 " />
<polyline fill="none" vector-effect="none" points="70,89 61,89 " />
<polyline fill="none" vector-effect="none" points="70,36 61,36 " />
</g>

<g fill="none" stroke="#000000" stroke-opacity="1" stroke-width="1" stroke-linecap="square" stroke-linejoin="bevel" transform="matrix(1,0,0,1,0,0)"
font-family="Sans Serif" font-size="12" font-weight="400" font-style="normal" 
>
<polyline fill="none" vector-effect="none" points="70,36 70,355 " />
</g>

<g fill="none" stroke="#000000" stroke-opacity="1" stroke-width="1" stroke-linecap="square" stroke-linejoin="bevel" transform="matrix(1,0,0,1,0,0)"
font-family="Sans Serif" font-size="12" font-weight="400" font-style="normal" 
>
</g>

<g fill="none" stroke="#000000" stroke-opacity="1" stroke-width="1" stroke-linecap="square" stroke-linejoin="bevel" transform="matrix(1,0,0,1,0,0)"
font-family="Sans Serif" font-size="12" font-weight="400" font-style="normal" 
>
</g>

<g fill="none" stroke="#000000" stroke-opacity="1" stroke-width="1" stroke-linecap="square" stroke-linejoin="bevel" transform="matrix(1,0,0,1,0,0)"
font-family="DejaVu Sans" font-size="18.6667" font-weight="700" font-style="normal" 
>
</g>

<g fill="none" stroke="#000000" stroke-opacity="1" stroke-width="1" stroke-linecap="square" stroke-linejoin="bevel" transform="matrix(1,0,0,1,66,385)"
font-family="Sans Serif" font-size="12" font-weight="400" font-style="normal" 
>
</g>

<g fill="none" stroke="#000000" stroke-opacity="1" stroke-width="1" stroke-linecap="square" stroke-linejoin="bevel" transform="matrix(1,0,0,1,66,385)"
font-family="Sans Serif" font-size="12" font-weight="700" font-style="normal" 
>
<text fill="#000000" fill-opacity="1" stroke="none" xml:space="preserve" x="136.453" y="12" font-family="Sans Serif" font-size="12" font-weight="700" font-style="normal" 
 >Tamanho do Buffer (Pacotes)</text>
</g>

<g fill="none" stroke="#000000" stroke-opacity="1" stroke-width="1" stroke-linecap="square" stroke-linejoin="bevel" transform="matrix(1,0,0,1,66,385)"
font-family="Sans Serif" font-size="12" font-weight="400" font-style="normal" 
>
</g>

<g fill="none" stroke="#000000" stroke-opacity="1" stroke-width="1" stroke-linecap="square" stroke-linejoin="bevel" transform="matrix(1,0,0,1,0,0)"
font-family="DejaVu Sans" font-size="18.6667" font-weight="700" font-style="normal" 
>
</g>

<g fill="none" stroke="#000000" stroke-opacity="1" stroke-width="1" stroke-linecap="square" stroke-linejoin="bevel" transform="matrix(1,0,0,1,0,0)"
font-family="Sans Serif" font-size="12" font-weight="400" font-style="normal" 
>
</g>

<g fill="none" stroke="#000000" stroke-opacity="1" stroke-width="1" stroke-linecap="square" stroke-linejoin="bevel" transform="matrix(1,0,0,1,0,0)"
font-family="Sans Serif" font-size="12" font-weight="400" font-style="normal" 
>
</g>

<g fill="none" stroke="#000000" stroke-opacity="1" stroke-width="1" stroke-linecap="square" stroke-linejoin="bevel" transform="matrix(1,0,0,1,66,369)"
font-family="Sans Serif" font-size="12" font-weight="400" font-style="normal" 
>
<text fill="#000000" fill-opacity="1" stroke="none" xml:space="preserve" x="0" y="11" font-family="Sans Serif" font-size="12" font-weight="400" font-style="normal" 
 >1</text>
</g>

<g fill="none" stroke="#000000" stroke-opacity="1" stroke-width="1" stroke-linecap="square" stroke-linejoin="bevel" transform="matrix(1,0,0,1,66,369)"
font-family="Sans Serif" font-size="12" font-weight="400" font-style="normal" 
>
</g>

<g fill="none" stroke="#000000" stroke-opacity="1" stroke-width="1" stroke-linecap="square" stroke-linejoin="bevel" transform="matrix(1,0,0,1,0,0)"
font-family="Sans Serif" font-size="12" font-weight="400" font-style="normal" 
>
</g>

<g fill="none" stroke="#000000" stroke-opacity="1" stroke-width="1" stroke-linecap="square" stroke-linejoin="bevel" transform="matrix(1,0,0,1,170,369)"
font-family="Sans Serif" font-size="12" font-weight="400" font-style="normal" 
>
<text fill="#000000" fill-opacity="1" stroke="none" xml:space="preserve" x="0" y="11" font-family="Sans Serif" font-size="12" font-weight="400" font-style="normal" 
 >10</text>
</g>

<g fill="none" stroke="#000000" stroke-opacity="1" stroke-width="1" stroke-linecap="square" stroke-linejoin="bevel" transform="matrix(1,0,0,1,170,369)"
font-family="Sans Serif" font-size="12" font-weight="400" font-style="normal" 
>
</g>

<g fill="none" stroke="#000000" stroke-opacity="1" stroke-width="1" stroke-linecap="square" stroke-linejoin="bevel" transform="matrix(1,0,0,1,0,0)"
font-family="Sans Serif" font-size="12" font-weight="400" font-style="normal" 
>
</g>

<g fill="none" stroke="#000000" stroke-opacity="1" stroke-width="1" stroke-linecap="square" stroke-linejoin="bevel" transform="matrix(1,0,0,1,274,369)"
font-family="Sans Serif" font-size="12" font-weight="400" font-style="normal" 
>
<text fill="#000000" fill-opacity="1" stroke="none" xml:space="preserve" x="0" y="11" font-family="Sans Serif" font-size="12" font-weight="400" font-style="normal" 
 >100</text>
</g>

<g fill="none" stroke="#000000" stroke-opacity="1" stroke-width="1" stroke-linecap="square" stroke-linejoin="bevel" transform="matrix(1,0,0,1,274,369)"
font-family="Sans Serif" font-size="12" font-weight="400" font-style="normal" 
>
</g>

<g fill="none" stroke="#000000" stroke-opacity="1" stroke-width="1" stroke-linecap="square" stroke-linejoin="bevel" transform="matrix(1,0,0,1,0,0)"
font-family="Sans Serif" font-size="12" font-weight="400" font-style="normal" 
>
</g>

<g fill="none" stroke="#000000" stroke-opacity="1" stroke-width="1" stroke-linecap="square" stroke-linejoin="bevel" transform="matrix(1,0,0,1,376,369)"
font-family="Sans Serif" font-size="12" font-weight="400" font-style="normal" 
>
<text fill="#000000" fill-opacity="1" stroke="none" xml:space="preserve" x="0" y="11" font-family="Sans Serif" font-size="12" font-weight="400" font-style="normal" 
 >1,000</text>
</g>

<g fill="none" stroke="#000000" stroke-opacity="1" stroke-width="1" stroke-linecap="square" stroke-linejoin="bevel" transform="matrix(1,0,0,1,376,369)"
font-family="Sans Serif" font-size="12" font-weight="400" font-style="normal" 
>
</g>

<g fill="none" stroke="#000000" stroke-opacity="1" stroke-width="1" stroke-linecap="square" stroke-linejoin="bevel" transform="matrix(1,0,0,1,0,0)"
font-family="Sans Serif" font-size="12" font-weight="400" font-style="normal" 
>
</g>

<g fill="none" stroke="#000000" stroke-opacity="1" stroke-width="1" stroke-linecap="square" stroke-linejoin="bevel" transform="matrix(1,0,0,1,479,369)"
font-family="Sans Serif" font-size="12" font-weight="400" font-style="normal" 
>
<text fill="#000000" fill-opacity="1" stroke="none" xml:space="preserve" x="0" y="11" font-family="Sans Serif" font-size="12" font-weight="400" font-style="normal" 
 >10,000</text>
</g>

<g fill="none" stroke="#000000" stroke-opacity="1" stroke-width="1" stroke-linecap="square" stroke-linejoin="bevel" transform="matrix(1,0,0,1,479,369)"
font-family="Sans Serif" font-size="12" font-weight="400" font-style="normal" 
>
</g>

<g fill="none" stroke="#000000" stroke-opacity="1" stroke-width="1" stroke-linecap="square" stroke-linejoin="bevel" transform="matrix(1,0,0,1,0,0)"
font-family="Sans Serif" font-size="12" font-weight="400" font-style="normal" 
>
</g>

<g fill="none" stroke="#000000" stroke-opacity="1" stroke-width="1" stroke-linecap="square" stroke-linejoin="bevel" transform="matrix(1,0,0,1,0,0)"
font-family="Sans Serif" font-size="12" font-weight="400" font-style="normal" 
>
<polyline fill="none" vector-effect="none" points="102,355 102,360 " />
<polyline fill="none" vector-effect="none" points="135,355 135,360 " />
<polyline fill="none" vector-effect="none" points="154,355 154,360 " />
<polyline fill="none" vector-effect="none" points="167,355 167,360 " />
<polyline fill="none" vector-effect="none" points="210,355 210,360 " />
<polyline fill="none" vector-effect="none" points="242,355 242,360 " />
<polyline fill="none" vector-effect="none" points="261,355 261,360 " />
<polyline fill="none" vector-effect="none" points="275,355 275,360 " />
<polyline fill="none" vector-effect="none" points="318,355 318,360 " />
<polyline fill="none" vector-effect="none" points="350,355 350,360 " />
<polyline fill="none" vector-effect="none" points="369,355 369,360 " />
<polyline fill="none" vector-effect="none" points="382,355 382,360 " />
<polyline fill="none" vector-effect="none" points="425,355 425,360 " />
<polyline fill="none" vector-effect="none" points="458,355 458,360 " />
<polyline fill="none" vector-effect="none" points="477,355 477,360 " />
<polyline fill="none" vector-effect="none" points="490,355 490,360 " />
<polyline fill="none" vector-effect="none" points="70,355 70,364 " />
<polyline fill="none" vector-effect="none" points="178,355 178,364 " />
<polyline fill="none" vector-effect="none" points="285,355 285,364 " />
<polyline fill="none" vector-effect="none" points="393,355 393,364 " />
<polyline fill="none" vector-effect="none" points="500,355 500,364 " />
</g>

<g fill="none" stroke="#000000" stroke-opacity="1" stroke-width="1" stroke-linecap="square" stroke-linejoin="bevel" transform="matrix(1,0,0,1,0,0)"
font-family="Sans Serif" font-size="12" font-weight="400" font-style="normal" 
>
<polyline fill="none" vector-effect="none" points="70,355 509,355 " />
</g>

<g fill="none" stroke="#000000" stroke-opacity="1" stroke-width="1" stroke-linecap="square" stroke-linejoin="bevel" transform="matrix(1,0,0,1,0,0)"
font-family="Sans Serif" font-size="12" font-weight="400" font-style="normal" 
>
</g>

<g fill="none" stroke="#000000" stroke-opacity="1" stroke-width="1" stroke-linecap="square" stroke-linejoin="bevel" transform="matrix(1,0,0,1,0,0)"
font-family="Sans Serif" font-size="12" font-weight="400" font-style="normal" 
>
</g>

<g fill="none" stroke="#000000" stroke-opacity="1" stroke-width="1" stroke-linecap="square" stroke-linejoin="bevel" transform="matrix(1,0,0,1,0,0)"
font-family="DejaVu Sans" font-size="18.6667" font-weight="700" font-style="normal" 
>
</g>

<g fill="none" stroke="#000000" stroke-opacity="1" stroke-width="1" stroke-linecap="square" stroke-linejoin="bevel" transform="matrix(1,0,0,1,0,0)"
font-family="Sans Serif" font-size="12" font-weight="400" font-style="normal" 
>
</g>
</g>
</svg>
