<?xml version="1.0" encoding="UTF-8" standalone="no"?>
<!-- Created with Inkscape (http://www.inkscape.org/) -->

<svg
   xmlns:dc="http://purl.org/dc/elements/1.1/"
   xmlns:cc="http://creativecommons.org/ns#"
   xmlns:rdf="http://www.w3.org/1999/02/22-rdf-syntax-ns#"
   xmlns:svg="http://www.w3.org/2000/svg"
   xmlns="http://www.w3.org/2000/svg"
   xmlns:sodipodi="http://sodipodi.sourceforge.net/DTD/sodipodi-0.dtd"
   xmlns:inkscape="http://www.inkscape.org/namespaces/inkscape"
   width="6.2645297"
   height="3.191134"
   id="svg36370"
   version="1.1"
   inkscape:version="0.48.3.1 r9886"
   sodipodi:docname="Chave.svg">
  <defs
     id="defs36372">
    <clipPath
       clipPathUnits="userSpaceOnUse"
       id="clipPath344">
      <path
         inkscape:connector-curvature="0"
         d="M 9.99e-7,6.104e-6 720,6.104e-6 720,540.00001 9.99e-7,540.00001 9.99e-7,6.104e-6 z"
         clip-rule="evenodd"
         id="path346" />
    </clipPath>
    <clipPath
       clipPathUnits="userSpaceOnUse"
       id="clipPath348">
      <path
         inkscape:connector-curvature="0"
         d="m 0,0 361.12,0 0,186.9 L 0,186.9 0,0 z"
         id="path350" />
    </clipPath>
  </defs>
  <sodipodi:namedview
     id="base"
     pagecolor="#ffffff"
     bordercolor="#666666"
     borderopacity="1.0"
     inkscape:pageopacity="0.0"
     inkscape:pageshadow="2"
     inkscape:zoom="15.839192"
     inkscape:cx="5.0860844"
     inkscape:cy="-4.737959"
     inkscape:document-units="px"
     inkscape:current-layer="layer1"
     showgrid="false"
     fit-margin-top="0"
     fit-margin-left="0"
     fit-margin-right="0"
     fit-margin-bottom="0"
     inkscape:window-width="1615"
     inkscape:window-height="1026"
     inkscape:window-x="65"
     inkscape:window-y="24"
     inkscape:window-maximized="1" />
  <metadata
     id="metadata36375">
    <rdf:RDF>
      <cc:Work
         rdf:about="">
        <dc:format>image/svg+xml</dc:format>
        <dc:type
           rdf:resource="http://purl.org/dc/dcmitype/StillImage" />
        <dc:title></dc:title>
      </cc:Work>
    </rdf:RDF>
  </metadata>
  <g
     inkscape:label="Layer 1"
     inkscape:groupmode="layer"
     id="layer1"
     transform="translate(-285.43917,-522.19519)">
    <g
       id="g446"
       transform="matrix(0.1722375,0,0,-0.1722375,271.46579,540.90235)">
      <g
         clip-path="url(#clipPath344)"
         id="g448">
        <g
           transform="matrix(-0.50868,0,0,-0.26389,117.5,108.87)"
           id="g450">
          <g
             transform="scale(0.19938,0.38524)"
             id="g452">
            <g
               clip-path="url(#clipPath348)"
               id="g454">
              <g
                 id="g456">
                <g
                   id="g458">
                  <g
                     id="g460" />
                </g>
                <path
                   d="m 314.78,86.105 -9.63,-13.909 33.99,-36.14 13.42,18.308 -37.78,31.741 z"
                   style="fill:#ffcc00;fill-opacity:1;fill-rule:evenodd;stroke:none"
                   id="path462"
                   inkscape:connector-curvature="0" />
                <path
                   d="M 341.99,42.238 285.9,11.329 225.18,44.854 197.97,28.567 189.29,53.056 161.13,39.147 142.95,52.105 98.509,33.917 71.772,50.679 43.016,42.476 6.1791,67.441 12.833,81.35 l 167.427,24.37 1.9,36.85 25.79,-12.95 56.44,48.5 42.19,-2.02 41.59,-46.48 -1.67,-78.585 -33.27,30.077 6.66,22.228 -9.04,9.63 -6.77,6.18 -8.08,3.81 -11.05,-1.9 -15.69,-15.34 -7.72,-27.817 18.18,-15.812 30.18,13.434 32.09,-33.287 z"
                   style="fill:#ffcc00;fill-opacity:1;fill-rule:evenodd;stroke:none"
                   id="path464"
                   inkscape:connector-curvature="0" />
                <path
                   d="m 181.81,58.049 -4.28,-2.972 4.28,-13.314 4.99,-14.742 3.09,-3.804 6.18,-1.783 5.82,0.832 5.58,3.091 5.47,4.161 5.59,3.923 3.44,-3.923 5.59,-4.518 3.44,-2.496 3.92,-2.497 4.28,-2.377 4.64,-2.378 4.87,-2.377 5.23,-2.14 10.93,-3.9234 11.64,-2.8531 11.89,-1.4266 23.41,1.9021 10.93,4.2797 5.23,3.2103 4.87,3.804 4.63,4.517 4.28,5.35 3.8,6.063 3.45,7.014 5.58,16.762 3.45,20.685 0.59,17.476 -1.66,16.405 -1.66,7.85 -2.14,7.49 -2.62,7.01 -3.09,6.78 -3.44,6.42 -3.8,5.94 -4.16,5.59 -4.64,5.11 -4.75,4.64 -5.11,4.16 -5.47,3.68 -5.58,3.09 -5.82,2.62 -5.95,2.02 -12.35,2.38 -12.84,-0.24 -12.83,-2.85 -12.95,-5.59 -6.3,-3.92 -6.3,-4.64 -6.18,-5.47 -6.06,-6.18 -2.85,-3.45 -2.97,-3.68 -5.59,-7.85 -2.25,-2.5 -2.86,-0.35 -7.01,3.33 -4.04,2.49 -4.27,2.38 -4.52,1.54 -4.75,0.12 -4.99,-2.02 -4.4,-34.47 -5.35,-14.982 14.74,0.238 8.2,1.189 -2.26,15.815 -1.07,15.57 3.68,2.14 3.33,-0.24 6.06,-4.64 2.85,-2.97 2.85,-2.61 2.97,-1.31 3.21,0.48 8.68,7.01 2.73,3.45 2.97,3.8 3.21,4.16 3.56,4.4 3.93,4.52 4.15,4.4 4.52,4.28 4.99,4.04 5.23,3.56 5.58,3.1 6.06,2.49 6.54,1.67 20.08,-2.02 9.03,-3.81 8.2,-5.59 7.49,-6.89 3.33,-3.92 3.2,-4.17 5.59,-9.03 4.63,-9.87 6.06,-20.8 1.43,-21.162 -1.19,-10.105 -2.49,-9.511 -1.79,-4.398 -2.14,-4.161 -2.49,-4.042 -2.85,-3.566 -2.38,-3.21 -2.49,-2.853 -5.47,-5.231 -2.85,-2.259 -2.85,-2.021 -6.18,-3.447 -6.42,-2.616 -6.54,-1.664 -13.42,-0.951 -13.31,2.259 -12.6,5.468 -5.94,3.804 -5.47,4.637 -5.11,5.349 -4.51,6.182 -5.11,2.853 -4.52,0 -7.6,-5.587 -3.33,-4.042 -3.33,-3.804 -3.32,-2.853 -3.33,-1.189 -3.92,7.133 -1.9,8.559 -1.43,3.804 -2.02,2.853 -3.33,1.427 -4.87,-0.476 -4.51,-2.021 z"
                   style="fill:#000000;fill-opacity:1;fill-rule:evenodd;stroke:none"
                   id="path466"
                   inkscape:connector-curvature="0" />
                <path
                   d="m 181.81,96.686 5.23,1.545 -1.79,30.199 2.14,18.07 -5.58,1.42 -0.95,-0.12 -6.78,-3.21 -3.8,-4.87 -1.54,-12.36 1.07,-11.42 -0.48,-3.68 -2.26,-1.43 -11.17,-1.9 -17.11,-2.38 L 117.52,103.7 93.874,100.61 69.633,97.161 46.462,93.476 26.261,89.553 10.695,85.749 3.0895,81.469 0,75.525 0.35648,68.392 1.7824,64.588 3.8025,60.665 6.4167,56.861 9.5063,53.056 13.071,49.49 l 3.684,-3.329 4.04,-2.972 4.04,-2.615 4.04,-2.14 3.922,-1.664 9.031,-1.665 8.436,1.784 8.081,3.447 7.961,3.448 7.249,-3.686 6.06,-3.209 5.109,-2.497 4.278,-2.14 6.774,-2.496 5.224,-0.595 11.17,3.686 8.44,3.804 5.59,2.377 6.53,2.735 5.82,-3.091 4.99,-2.259 7.97,-2.972 10.1,-0.357 7.84,4.399 4.87,3.091 6.77,3.21 0.72,-2.021 3.68,-5.825 3.33,23.895 -7.01,-1.784 -18.54,-8.559 -6.65,2.496 -6.06,4.518 -3.09,2.021 -3.09,1.427 -7.01,-0.595 -9.15,-3.566 -4.16,-3.448 -4.04,-3.447 -4.04,-2.854 -4.28,-1.545 -4.64,0.475 -5.22,3.21 -7.728,5.825 -6.417,3.686 -10.813,1.783 -11.051,-2.972 -6.773,-2.497 -8.318,-2.615 -15.567,3.21 -9.625,5.35 -4.278,6.657 -0.475,3.804 0.475,4.042 7.011,2.497 8.08,2.258 9.031,2.14 9.982,1.902 21.745,3.21 23.291,2.734 45.51,4.161 35.89,3.329 z"
                   style="fill:#000000;fill-opacity:1;fill-rule:evenodd;stroke:none"
                   id="path468"
                   inkscape:connector-curvature="0" />
                <path
                   d="M 225.42,71.721 186.2,69.938 134.04,67.56 40.283,61.854 l -0.119,3.091 1.664,1.545 2.851,1.664 8.437,3.448 11.645,3.447 14.379,3.329 16.398,3.21 17.702,2.734 18.3,2.259 36.25,2.615 31.25,-0.951 20.91,-5.468 4.99,-4.756 0.48,-6.3 z"
                   style="fill:#000000;fill-opacity:1;fill-rule:evenodd;stroke:none"
                   id="path470"
                   inkscape:connector-curvature="0" />
                <path
                   d="m 296.71,126.64 -0.35,-2.25 -1.9,-2.74 -3.21,-3.09 -3.8,-3.57 -3.93,-3.92 -3.8,-4.52 -4.87,-10.34 0.36,-12.126 2.37,-4.279 3.57,-2.735 9.5,-0.832 11.29,6.539 5.94,6.776 3.81,7.133 0.47,5.824 -1.31,1.9 -2.61,0.95 -2.61,-2.85 -2.62,-1.19 -4.39,2.02 -0.96,5.71 1.67,3.45 3.56,3.44 3.57,1.91 3.21,0.59 5.82,-2.5 4.16,-6.18 2.37,-8.68 0.36,-4.989 -0.36,-5.23 -2.73,-10.462 -2.49,-4.993 -3.45,-4.636 -4.16,-4.161 -5.23,-3.448 -6.18,-3.091 -5.58,-2.139 -9.98,-1.903 -8.32,0.833 -6.54,3.209 -8.31,11.651 -2.38,16.049 0.83,4.874 2.26,6.419 3.44,7.017 4.64,6.89 2.73,3.33 2.97,2.97 3.33,2.62 3.45,2.14 7.84,2.73 8.55,-0.12 z"
                   style="fill:#000000;fill-opacity:1;fill-rule:evenodd;stroke:none"
                   id="path472"
                   inkscape:connector-curvature="0" />
              </g>
            </g>
          </g>
        </g>
      </g>
    </g>
  </g>
</svg>
