<?xml version="1.0" encoding="UTF-8" standalone="no"?>
<!-- Created with Inkscape (http://www.inkscape.org/) -->

<svg
   xmlns:dc="http://purl.org/dc/elements/1.1/"
   xmlns:cc="http://creativecommons.org/ns#"
   xmlns:rdf="http://www.w3.org/1999/02/22-rdf-syntax-ns#"
   xmlns:svg="http://www.w3.org/2000/svg"
   xmlns="http://www.w3.org/2000/svg"
   xmlns:sodipodi="http://sodipodi.sourceforge.net/DTD/sodipodi-0.dtd"
   xmlns:inkscape="http://www.inkscape.org/namespaces/inkscape"
   id="svg3322"
   height="513.19"
   width="814.22"
   version="1.1"
   inkscape:version="0.91 r13725"
   sodipodi:docname="TCPSender.svg">
  <defs
     id="defs94" />
  <sodipodi:namedview
     pagecolor="#ffffff"
     bordercolor="#666666"
     borderopacity="1"
     objecttolerance="10"
     gridtolerance="10"
     guidetolerance="10"
     inkscape:pageopacity="0"
     inkscape:pageshadow="2"
     inkscape:window-width="1301"
     inkscape:window-height="744"
     id="namedview92"
     showgrid="false"
     inkscape:zoom="1.0351887"
     inkscape:cx="331.09349"
     inkscape:cy="248.82758"
     inkscape:window-x="65"
     inkscape:window-y="24"
     inkscape:window-maximized="1"
     inkscape:current-layer="svg3322" />
  <metadata
     id="metadata3327">
    <rdf:RDF>
      <cc:Work
         rdf:about="">
        <dc:format>image/svg+xml</dc:format>
        <dc:type
           rdf:resource="http://purl.org/dc/dcmitype/StillImage" />
        <dc:title />
      </cc:Work>
    </rdf:RDF>
  </metadata>
  <path
     style="fill:#000099;fill-rule:evenodd"
     inkscape:connector-curvature="0"
     d="m 244.53657,175.94178 c 0,-26.4 23.6,-47.812 52.725,-47.812 29.125,0 52.738,21.412 52.738,47.812 0,26.4 -23.612,47.812 -52.738,47.812 -29.125,0 -52.725,-21.412 -52.725,-47.812 z"
     id="path58" />
  <path
     style="fill:#ffffff;fill-rule:evenodd"
     inkscape:connector-curvature="0"
     d="m 237.18657,180.63178 c 0,-26.4 23.612,-47.812 52.738,-47.812 29.125,0 52.738,21.412 52.738,47.812 0,26.4 -23.612,47.812 -52.738,47.812 -29.125,0 -52.738,-21.412 -52.738,-47.812 z"
     id="path60" />
  <path
     style="fill:none;stroke:#000000;stroke-width:0.9375;stroke-linecap:butt;stroke-linejoin:round;stroke-miterlimit:10;stroke-dasharray:none"
     inkscape:connector-curvature="0"
     stroke-miterlimit="10"
     d="m 237.18657,180.63178 c 0,-26.4 23.612,-47.812 52.738,-47.812 29.125,0 52.738,21.412 52.738,47.812 0,26.4 -23.612,47.812 -52.738,47.812 -29.125,0 -52.738,-21.412 -52.738,-47.812 z"
     id="path62" />
  <text
     style="font-size:15px"
     font-size="15px"
     x="269.5625"
     y="159.75781"
     id="text72">
    <tspan
       x="269.5625 285.31183 297.8392 302.84116"
       y="159.75781"
       font-variant="normal"
       font-size="22.53125px"
       font-weight="normal"
       style="font-variant:normal;font-weight:normal;font-size:22.53125px;font-family:Arial;writing-mode:lr-tb;fill:#000000;fill-rule:nonzero"
       id="tspan74">wait</tspan>
  </text>
  <text
     style="font-size:15px"
     font-size="15px"
     x="273.0625"
     y="186.75781"
     id="text76">
    <tspan
       x="273.0625 279.54251 292.05249 299.54501"
       y="186.75781"
       font-variant="normal"
       font-size="22.5px"
       font-weight="normal"
       style="font-variant:normal;font-weight:normal;font-size:22.5px;font-family:Arial;writing-mode:lr-tb;fill:#000000;fill-rule:nonzero"
       id="tspan78">for</tspan>
  </text>
  <text
     style="font-size:15px"
     font-size="15px"
     x="261.8125"
     y="213.75781"
     id="text80">
    <tspan
       x="261.8125 274.3125 285.55249 298.05249 310.55249"
       y="213.75781"
       font-variant="normal"
       font-size="22.5px"
       font-weight="normal"
       style="font-variant:normal;font-weight:normal;font-size:22.5px;font-family:Arial;writing-mode:lr-tb;fill:#000000;fill-rule:nonzero"
       id="tspan82">event</tspan>
  </text>
  <path
     style="fill:#000000;fill-rule:nonzero"
     inkscape:connector-curvature="0"
     d="m 142.37457,80.11178 4.2,2.7 -0.675,1.05 -4.2125,-2.7 0.6875,-1.05 z m 7.35,4.7375 4.2125,2.7 -0.675,1.05 -4.2125,-2.7 0.675,-1.05 z m 7.3625,4.725 4.2125,2.7 -0.675,1.0625 -4.2125,-2.7125 0.675,-1.05 z m 7.3625,4.7375 4.2,2.7 -0.675,1.05 -4.2,-2.7 0.675,-1.05 z m 7.3625,4.725 4.2,2.7125 -0.675,1.05 -4.2,-2.7125 0.675,-1.05 z m 7.3625,4.7375 4.2,2.7 -0.675,1.05 -4.2125,-2.7 0.6875,-1.05 z m 7.35,4.725 4.2125,2.7125 -0.675,1.05 -4.2125,-2.7125 0.675,-1.05 z m 7.3625,4.7375 4.2125,2.7 -0.6875,1.05 -4.2,-2.7 0.675,-1.05 z m 7.3625,4.7375 4.2,2.7 -0.675,1.05 -4.2,-2.7 0.675,-1.05 z m 7.3625,4.725 4.2,2.7 -0.675,1.0625 -4.2,-2.7125 0.675,-1.05 z m 7.35,4.7375 4.2125,2.7 -0.675,1.05 -4.2125,-2.7 0.675,-1.05 z m 7.3625,4.725 4.2125,2.7125 -0.675,1.05 -4.2125,-2.7125 0.675,-1.05 z m 7.3625,4.7375 4.2125,2.7 -0.6875,1.05 -4.2,-2.7 0.675,-1.05 z m 7.3625,4.725 4.2,2.7125 -0.675,1.05 -4.2,-2.7 0.675,-1.0625 z m 5.175,-0.3875 4.275,7.2125 -8.3375,-0.9 4.0625,-6.3125 z"
     id="path84" />
  <text
     style="font-size:15px"
     font-size="15px"
     x="-0.68749857"
     y="163.97031"
     id="text86">
    <tspan
       x="-0.68749857 12.052501 21.782499 30.305 35.047501 46.772499 56.502499 66.232498 79.0075 88.737503 103.525 107.7775 117.9975 122.77499 127.5175 137.2475 141.255 145.9975 149.9875 159.7175 163.72501 175.45001 185.17999 194.91 207.685 217.41499"
       y="163.97031"
       font-variant="normal"
       font-size="17.5px"
       font-weight="normal"
       style="font-variant:normal;font-weight:normal;font-size:17.5px;font-family:Arial;writing-mode:lr-tb;fill:#000000;fill-rule:nonzero"
       id="tspan88">NextSeqNum = InitialSeqNum</tspan>
  </text>
  <text
     style="font-size:15px"
     font-size="15px"
     x="-0.68749857"
     y="184.98285"
     id="text90">
    <tspan
       x="-0.68749857 11.037499 20.7675 30.497499 40.262497 51.987499 61.717499 70.467499 80.197502 84.485001 94.705002 99.482498 104.225 113.95499 117.96249 122.70499 126.695 136.425 140.43251 152.1575 161.8875 171.61749 184.39249 194.12251"
       y="184.98285"
       font-variant="normal"
       font-size="17.5px"
       font-weight="normal"
       style="font-variant:normal;font-weight:normal;font-size:17.5px;font-family:Arial;writing-mode:lr-tb;fill:#000000;fill-rule:nonzero"
       id="tspan92">SendBase = InitialSeqNum</tspan>
  </text>
  <path
     style="fill:none;stroke:#000000;stroke-width:0.9375;stroke-linecap:butt;stroke-linejoin:round;stroke-miterlimit:10;stroke-dasharray:none"
     inkscape:connector-curvature="0"
     stroke-miterlimit="10"
     d="m 0.468574,143.76178 214.529996,0"
     id="path94" />
  <text
     style="font-size:15px"
     font-size="15px"
     x="424.27499"
     y="44.357815"
     id="text100">
    <tspan
       x="424.27499 433.495 440.755 451.27499 461.77499 468.45502 478.97501 484.755 493.73502 504.255 515.23499 532.03497 542.495 553.71503 560.45502 566.51501 572.71503 581.69501 592.21503 603.19501 609.255 615.45502 630.01501 636.95502 643.21497 656.45502 666.97498 676.935 683.67499 694.91498 705.435 716.41498 729.67499 740.89502"
       y="44.357815"
       font-variant="normal"
       font-size="20px"
       font-weight="normal"
       style="font-variant:normal;font-weight:normal;font-size:20px;font-family:Tahoma;writing-mode:lr-tb;fill:#000000;fill-rule:nonzero"
       id="tspan102">create segment, seq. #: NextSeqNum</tspan>
  </text>
  <text
     style="font-size:15px"
     font-size="15px"
     x="424.27499"
     y="69.382812"
     id="text104">
    <tspan
       x="424.27499 435.27216 445.78857 454.7225 463.75659 469.76596 478.73996 489.2764 500.23349 516.97961 527.51605 538.69348 545.46405 551.47345 558.16388 568.98077 575.45081 582.92249 593.95972 600.22949 607.90149 612.48865 618.45795 628.99438 633.70172 639.71112"
       y="69.382812"
       font-variant="normal"
       font-size="20.03125px"
       font-weight="normal"
       style="font-variant:normal;font-weight:normal;font-size:20.03125px;font-family:Tahoma;writing-mode:lr-tb;fill:#000000;fill-rule:nonzero"
       id="tspan106">pass segment to IP (i.e.,</tspan>
  </text>
  <text
     style="font-size:15px"
     font-size="15px"
     x="646.34998"
     y="69.382812"
     id="text108">
    <tspan
       x="646.34998"
       y="69.382812"
       font-variant="normal"
       font-size="20.03125px"
       font-weight="normal"
       style="font-variant:normal;font-weight:normal;font-size:20.03125px;font-family:'MS PGothic';writing-mode:lr-tb;fill:#000000;fill-rule:nonzero"
       id="tspan110">“</tspan>
  </text>
  <text
     style="font-size:15px"
     font-size="15px"
     x="656.34998"
     y="69.382812"
     id="text112">
    <tspan
       x="656.34998 665.32397 675.86041 687.0379"
       y="69.382812"
       font-variant="normal"
       font-size="20.03125px"
       font-weight="normal"
       style="font-variant:normal;font-weight:normal;font-size:20.03125px;font-family:Tahoma;writing-mode:lr-tb;fill:#000000;fill-rule:nonzero"
       id="tspan114">send</tspan>
  </text>
  <text
     style="font-size:15px"
     font-size="15px"
     x="698.125"
     y="69.382812"
     id="text116">
    <tspan
       x="698.125"
       y="69.382812"
       font-variant="normal"
       font-size="20.03125px"
       font-weight="normal"
       style="font-variant:normal;font-weight:normal;font-size:20.03125px;font-family:'MS PGothic';writing-mode:lr-tb;fill:#000000;fill-rule:nonzero"
       id="tspan118">”</tspan>
  </text>
  <text
     style="font-size:15px"
     font-size="15px"
     x="708.125"
     y="69.382812"
     id="text120">
    <tspan
       x="708.125"
       y="69.382812"
       font-variant="normal"
       font-size="20.03125px"
       font-weight="normal"
       style="font-variant:normal;font-weight:normal;font-size:20.03125px;font-family:Tahoma;writing-mode:lr-tb;fill:#000000;fill-rule:nonzero"
       id="tspan122">)</tspan>
  </text>
  <text
     style="font-size:15px"
     font-size="15px"
     x="424.27499"
     y="94.632812"
     id="text124">
    <tspan
       x="424.27499 437.535 448.05499 458.01501 464.755 475.995 486.51501 497.495 510.755 521.97498 538.77502 544.47498 559.03497 565.23499 578.495 589.01501 598.97498 605.71497 616.95502 627.47498 638.45502 651.71497 662.935 679.73499 685.69501 700.255 706.45502 710.95502 721.47498 732.67499 743.73499 750.41498 761.65497 769.39502 780.45502 790.95502 797.63501 808.13501 815.875"
       y="94.632812"
       font-variant="normal"
       font-size="20px"
       font-weight="normal"
       style="font-variant:normal;font-weight:normal;font-size:20px;font-family:Tahoma;writing-mode:lr-tb;fill:#000000;fill-rule:nonzero"
       id="tspan126">NextSeqNum = NextSeqNum + length(data)</tspan>
  </text>
  <text
     style="font-size:15px"
     font-size="15px"
     x="424.27499"
     y="119.88281"
     id="text128">
    <tspan
       x="424.27499 428.77499 435.035 441.29501 449.01501 455.755 460.255 477.05499 487.51498 494.715 500.97501 510.255 521.47498 528.67499 535.95502 546.47498 557.67499 564.41498 568.91498 578.875 584.41498 595.63501 606.39502 613.13501 619.39502 626.59503 637.875 649.09503 660.315 664.815 676.03503 687.09497"
       y="119.88281"
       font-variant="normal"
       font-size="20px"
       font-weight="normal"
       style="font-variant:normal;font-weight:normal;font-size:20px;font-family:Tahoma;writing-mode:lr-tb;fill:#000000;fill-rule:nonzero"
       id="tspan130">if (timer currently not running)</tspan>
  </text>
  <text
     style="font-size:15px"
     font-size="15px"
     x="449.03751"
     y="145.13281"
     id="text132">
    <tspan
       x="449.03751 458.01749 464.75751 475.25751 482.45749 489.23749 495.23749 501.97751 506.47751 523.27753 533.73749"
       y="145.13281"
       font-variant="normal"
       font-size="20px"
       font-weight="normal"
       style="font-variant:normal;font-weight:normal;font-size:20px;font-family:Tahoma;writing-mode:lr-tb;fill:#000000;fill-rule:nonzero"
       id="tspan134">start timer</tspan>
  </text>
  <text
     style="font-size:15px"
     font-size="15px"
     x="422.35001"
     y="15.195311"
     id="text136">
    <tspan
       x="422.35001 433.41 443.91 450.59 461.09 467.09 474.29001 484.81 494.07001 504.59 509.07001 518.83002 529.34998 540.33002 546.59003 552.83002 560.02997 570.89001 587.57001 594.04999 604.54999 615.60999 626.54999 631.04999 635.54999 644.77002 655.27002 662.03003 666.52997 677.28998 688.51001 694.77002 705.27002 716.27002 727.03003 736.78998"
       y="15.195311"
       font-variant="normal"
       font-size="20px"
       font-weight="normal"
       style="font-variant:normal;font-weight:normal;font-size:20px;font-family:Tahoma;writing-mode:lr-tb;fill:#000000;fill-rule:nonzero"
       id="tspan138">data received from application above</tspan>
  </text>
  <path
     style="fill:none;stroke:#000000;stroke-width:0.9375;stroke-linecap:butt;stroke-linejoin:round;stroke-miterlimit:10;stroke-dasharray:none"
     inkscape:connector-curvature="0"
     stroke-miterlimit="10"
     d="m 424.84657,26.11178 272.34,0"
     id="path140" />
  <text
     style="font-size:15px"
     font-size="15px"
     x="442.25"
     y="251.07031"
     id="text142">
    <tspan
       x="442.25 449.45001 459.97 466.73001 473.73001 484.23001 495.47 504.45001 521.25 525.72998 532.47003 537.96997 549.19 559.95001"
       y="251.07031"
       font-variant="normal"
       font-size="20px"
       font-weight="normal"
       style="font-variant:normal;font-weight:normal;font-size:20px;font-family:Tahoma;writing-mode:lr-tb;fill:#000000;fill-rule:nonzero"
       id="tspan144">retransmit not</tspan>
  </text>
  <text
     style="font-size:15px"
     font-size="15px"
     x="566.27502"
     y="251.07031"
     id="text146">
    <tspan
       x="566.27502"
       y="251.07031"
       font-variant="normal"
       font-size="20px"
       font-weight="normal"
       style="font-variant:normal;font-weight:normal;font-size:20px;font-family:Tahoma;writing-mode:lr-tb;fill:#000000;fill-rule:nonzero"
       id="tspan148">-</tspan>
  </text>
  <text
     style="font-size:15px"
     font-size="15px"
     x="573.0625"
     y="251.07031"
     id="text150">
    <tspan
       x="573.0625 582.82251 593.34253"
       y="251.07031"
       font-variant="normal"
       font-size="20px"
       font-weight="normal"
       style="font-variant:normal;font-weight:normal;font-size:20px;font-family:Tahoma;writing-mode:lr-tb;fill:#000000;fill-rule:nonzero"
       id="tspan152">yet</tspan>
  </text>
  <text
     style="font-size:15px"
     font-size="15px"
     x="599.5625"
     y="251.07031"
     id="text154">
    <tspan
       x="599.5625"
       y="251.07031"
       font-variant="normal"
       font-size="20px"
       font-weight="normal"
       style="font-variant:normal;font-weight:normal;font-size:20px;font-family:Tahoma;writing-mode:lr-tb;fill:#000000;fill-rule:nonzero"
       id="tspan156">-</tspan>
  </text>
  <text
     style="font-size:15px"
     font-size="15px"
     x="606.5625"
     y="251.07031"
     id="text158">
    <tspan
       x="606.5625 617.0625 626.28247 636.0625 646.58252 657.5625 664.54248 673.52252 684.04248 695.02252 711.82251 722.34253 733.5025 740.28247"
       y="251.07031"
       font-variant="normal"
       font-size="20px"
       font-weight="normal"
       style="font-variant:normal;font-weight:normal;font-size:20px;font-family:Tahoma;writing-mode:lr-tb;fill:#000000;fill-rule:nonzero"
       id="tspan160">acked segment</tspan>
  </text>
  <text
     style="font-size:15px"
     font-size="15px"
     x="532.28748"
     y="275.07031"
     id="text162">
    <tspan
       x="532.28748 547.1275 551.5675 558.3075 569.52753 575.52753 584.50751 601.3075 611.8075 616.28748 620.78748 631.3075 640.22748 647.02753 653.28748 662.2475 672.76752 683.7475 689.8075 696.00751"
       y="275.07031"
       font-variant="normal"
       font-size="20px"
       font-weight="normal"
       style="font-variant:normal;font-weight:normal;font-size:20px;font-family:Tahoma;writing-mode:lr-tb;fill:#000000;fill-rule:nonzero"
       id="tspan164">with smallest seq. #</tspan>
  </text>
  <text
     style="font-size:15px"
     font-size="15px"
     x="442.25"
     y="299.07031"
     id="text166">
    <tspan
       x="442.25 451.23001 457.97 468.47 475.67001 482.45001 488.20999 494.95001 499.45001 516.25 526.77002"
       y="299.07031"
       font-variant="normal"
       font-size="20px"
       font-weight="normal"
       style="font-variant:normal;font-weight:normal;font-size:20px;font-family:Tahoma;writing-mode:lr-tb;fill:#000000;fill-rule:nonzero"
       id="tspan168">start timer</tspan>
  </text>
  <text
     style="font-size:15px"
     font-size="15px"
     x="441.53751"
     y="219.32031"
     id="text170">
    <tspan
       x="441.53751 448.2775 452.7775 469.57748 480.03751 490.79752 502.01749"
       y="219.32031"
       font-variant="normal"
       font-size="20px"
       font-weight="normal"
       style="font-variant:normal;font-weight:normal;font-size:20px;font-family:Tahoma;writing-mode:lr-tb;fill:#000000;fill-rule:nonzero"
       id="tspan172">timeout</tspan>
  </text>
  <path
     style="fill:none;stroke:#000000;stroke-width:0.9375;stroke-linecap:butt;stroke-linejoin:round;stroke-miterlimit:10;stroke-dasharray:none"
     inkscape:connector-curvature="0"
     stroke-miterlimit="10"
     d="m 443.59657,229.54178 293.9,0"
     id="path174" />
  <text
     style="font-size:15px"
     font-size="15px"
     x="62.15625"
     y="364.98285"
     id="text176">
    <tspan
       x="62.15625 66.596252 72.376251 77.616249 84.356247 94.116249 99.83625 111.55625 117.11625 130.31625 141.31625 152.31625 163.31625 176.57625 187.57625 197.57625 208.57625 215.31625 221.55624 228.29625"
       y="364.98285"
       font-variant="normal"
       font-size="20px"
       font-weight="normal"
       style="font-variant:normal;font-weight:normal;font-size:20px;font-family:Arial;writing-mode:lr-tb;fill:#000000;fill-rule:nonzero"
       id="tspan178">if (y &gt; SendBase) {</tspan>
  </text>
  <text
     style="font-size:15px"
     font-size="15px"
     x="84.400002"
     y="388.97034"
     id="text180">
    <tspan
       x="84.400002 97.659996 108.66 119.66 130.66 143.92001 154.92001 164.92001 175.92 182.16 193.88 199.44 209.14"
       y="388.97034"
       font-variant="normal"
       font-size="20px"
       font-weight="normal"
       style="font-variant:normal;font-weight:normal;font-size:20px;font-family:Arial;writing-mode:lr-tb;fill:#000000;fill-rule:nonzero"
       id="tspan182">SendBase = y</tspan>
  </text>
  <text
     style="font-size:15px"
     font-size="15px"
     x="84.400002"
     y="413.00781"
     id="text184">
    <tspan
       x="84.400002 89.959999 97.659996 103.38 116.64 127.64 138.64 149.64 162.89999 173.89999 183.89999"
       y="413.00781"
       font-variant="normal"
       font-size="20px"
       font-weight="normal"
       style="font-variant:normal;font-weight:normal;font-size:20px;font-family:Arial;writing-mode:lr-tb;fill:#000000;fill-rule:nonzero"
       id="tspan186">/* SendBase</tspan>
  </text>
  <text
     style="font-size:15px"
     font-size="15px"
     x="194.9375"
     y="413.00781"
     id="text188">
    <tspan
       x="194.9375"
       y="413.00781"
       font-variant="normal"
       font-size="20px"
       font-weight="normal"
       style="font-variant:normal;font-weight:normal;font-size:20px;font-family:Arial;writing-mode:lr-tb;fill:#000000;fill-rule:nonzero"
       id="tspan190">–</tspan>
  </text>
  <text
     style="font-size:15px"
     font-size="15px"
     x="205.9375"
     y="413.00781"
     id="text192">
    <tspan
       x="205.9375 216.9375 222.4975 228.9175 233.3575 244.4175 254.4175 259.91751 265.63751 275.63751 286.63751 303.35748 314.35751 318.79752 329.85751 335.41751 339.85751 350.0975 361.0975 365.53751 375.33749 379.83749 393.0975 407.57748 420.83749 431.83749 442.83749 448.5575 459.5575 469.3175 474.8775 485.8175 492.0575 499.83749"
       y="413.00781"
       font-variant="normal"
       font-size="20px"
       font-weight="normal"
       style="font-variant:normal;font-weight:normal;font-size:20px;font-family:Arial;writing-mode:lr-tb;fill:#000000;fill-rule:nonzero"
       id="tspan194">1: last cumulatively ACKed byte */</tspan>
  </text>
  <text
     style="font-size:15px"
     font-size="15px"
     x="84.400002"
     y="437.00781"
     id="text196">
    <tspan
       x="84.400002 88.839996 94.620003 100.18 106.84 112.4 123.38 134.38 141.12 152.12 157.84 168.84 175.58 186.58 192.56 202.56 213.56 220.3 227.03999 238.04001 249.04001 254.60001 259.04001 268.80002 274.78 285.78 296.78"
       y="437.00781"
       font-variant="normal"
       font-size="20px"
       font-weight="normal"
       style="font-variant:normal;font-weight:normal;font-size:20px;font-family:Arial;writing-mode:lr-tb;fill:#000000;fill-rule:nonzero"
       id="tspan198">if (there are currently not</tspan>
  </text>
  <text
     style="font-size:15px"
     font-size="15px"
     x="302.47501"
     y="437.00781"
     id="text200">
    <tspan
       x="302.47501"
       y="437.00781"
       font-variant="normal"
       font-size="20px"
       font-weight="normal"
       style="font-variant:normal;font-weight:normal;font-size:20px;font-family:Arial;writing-mode:lr-tb;fill:#000000;fill-rule:nonzero"
       id="tspan202">-</tspan>
  </text>
  <text
     style="font-size:15px"
     font-size="15px"
     x="309.22501"
     y="437.00781"
     id="text204">
    <tspan
       x="309.22501 318.98499 329.98499"
       y="437.00781"
       font-variant="normal"
       font-size="20px"
       font-weight="normal"
       style="font-variant:normal;font-weight:normal;font-size:20px;font-family:Arial;writing-mode:lr-tb;fill:#000000;fill-rule:nonzero"
       id="tspan206">yet</tspan>
  </text>
  <text
     style="font-size:15px"
     font-size="15px"
     x="335.47501"
     y="437.00781"
     id="text208">
    <tspan
       x="335.47501"
       y="437.00781"
       font-variant="normal"
       font-size="20px"
       font-weight="normal"
       style="font-variant:normal;font-weight:normal;font-size:20px;font-family:Arial;writing-mode:lr-tb;fill:#000000;fill-rule:nonzero"
       id="tspan210">-</tspan>
  </text>
  <text
     style="font-size:15px"
     font-size="15px"
     x="342.21249"
     y="437.00781"
     id="text212">
    <tspan
       x="342.21249 353.21249 363.21249 373.21249 384.21249 395.21249 401.6925 411.6925 422.6925 433.6925 450.41251 461.41251 472.41251 477.9725 487.91251"
       y="437.00781"
       font-variant="normal"
       font-size="20px"
       font-weight="normal"
       style="font-variant:normal;font-weight:normal;font-size:20px;font-family:Arial;writing-mode:lr-tb;fill:#000000;fill-rule:nonzero"
       id="tspan214">acked segments)</tspan>
  </text>
  <text
     style="font-size:15px"
     font-size="15px"
     x="112.65"
     y="461.00781"
     id="text216">
    <tspan
       x="112.65 122.65 128.14999 139.14999 145.89 151.45 157.13 162.69 167.13 183.87 194.87"
       y="461.00781"
       font-variant="normal"
       font-size="20px"
       font-weight="normal"
       style="font-variant:normal;font-weight:normal;font-size:20px;font-family:Arial;writing-mode:lr-tb;fill:#000000;fill-rule:nonzero"
       id="tspan218">start timer</tspan>
  </text>
  <text
     style="font-size:15px"
     font-size="15px"
     x="101.4"
     y="485.03906"
     id="text220">
    <tspan
       x="101.4 112.39716 116.84409 126.85972 137.89694 143.40553 153.42117 158.90971 169.90688 180.90404 186.89337 192.40196 196.84891 213.6351 224.63225 231.36275"
       y="485.03906"
       font-variant="normal"
       font-size="20.03125px"
       font-weight="normal"
       style="font-variant:normal;font-weight:normal;font-size:20.03125px;font-family:Arial;writing-mode:lr-tb;fill:#000000;fill-rule:nonzero"
       id="tspan222">else stop timer</tspan>
  </text>
  <text
     style="font-size:15px"
     font-size="15px"
     x="90.150002"
     y="509.03906"
     id="text224">
    <tspan
       x="90.150002 96.900002"
       y="509.03906"
       font-variant="normal"
       font-size="20px"
       font-weight="normal"
       style="font-variant:normal;font-weight:normal;font-size:20px;font-family:Arial;writing-mode:lr-tb;fill:#000000;fill-rule:nonzero"
       id="tspan226">}</tspan>
  </text>
  <text
     style="font-size:15px"
     font-size="15px"
     x="66.9375"
     y="328.28284"
     id="text228">
    <tspan
       x="66.9375 78.9375 90.957497 102.7175 108.6975 115.8975 126.4175 135.67751 146.19749 150.67749 160.4375 170.9575 181.9375 187.9975 194.19749 208.95749 213.4575 220.19751 231.4175 237.67749 249.67751 261.69751 273.45752 279.7175 285.91751 290.41748 300.9375 305.41748 316.47751 322.89752 332.39749 342.89752 347.39749 358.61749 369.13748 375.39752 385.35748"
       y="328.28284"
       font-variant="normal"
       font-size="20px"
       font-weight="normal"
       style="font-variant:normal;font-weight:normal;font-size:20px;font-family:Tahoma;writing-mode:lr-tb;fill:#000000;fill-rule:nonzero"
       id="tspan230">ACK received, with ACK field value y</tspan>
  </text>
  <path
     style="fill:none;stroke:#000000;stroke-width:0.9375;stroke-linecap:butt;stroke-linejoin:round;stroke-miterlimit:10;stroke-dasharray:none"
     inkscape:connector-curvature="0"
     stroke-miterlimit="10"
     d="m 64.062574,338.44178 324.689996,0"
     id="path232" />
  <path
     style="fill:#000000;fill-rule:nonzero"
     inkscape:connector-curvature="0"
     d="m 320.72657,124.59178 -0.1375,-1.525 -0.1125,-1.6 -0.15,-3.3375 -0.0625,-3.525 0.05,-3.65 0.15,-3.7625 0.2625,-3.85 0.3875,-3.9125 0.525,-3.9375 0.625,-3.925 0.7875,-3.9125 0.9125,-3.8375 1.075,-3.7625 1.2125,-3.65 1.3875,-3.5 1.55,-3.325 0.8375,-1.6 0.8875,-1.5375 0.9375,-1.4875 0.975,-1.425 1.0125,-1.35 1.0875,-1.2875 1.1125,-1.2125 1.175,-1.1375 1.225,-1.0625 1.275,-0.9625 1.3375,-0.8875 1.3875,-0.7875 1.425,-0.6875 1.5,-0.5875 1.55,-0.4875 1.6,-0.375 1.6625,-0.25 1.7125,-0.15 1.7625,-0.0125 1.8125,0.1125 1.875,0.2375 1.9125,0.3625 1.975,0.5 2.025,0.65 2.0875,0.7875 2.1375,0.9125 2.2,1.075 2.2375,1.225 2.3125,1.3625 2.375,1.5375 2.425,1.6875 2.475,1.85 2.55,2.025 2.6125,2.2 2.5625,2.3 2.35,2.2375 2.1875,2.1875 1.9875,2.175 1.825,2.125 1.65,2.1125 1.475,2.0625 1.3125,2.05 1.1625,2.0125 1,1.9875 0.85,1.9375 0.7,1.9125 0.5625,1.9 0.4125,1.8625 0.275,1.825 0.15,1.8 0.0125,1.75 -0.1125,1.7375 -0.2375,1.6875 -0.3625,1.6625 -0.4625,1.625 -0.575,1.5875 -0.675,1.55 -0.775,1.5125 -0.875,1.475 -0.95,1.4375 -1.05,1.3875 -1.1125,1.3625 -1.2,1.325 -1.2625,1.2875 -1.3375,1.25 -1.3875,1.2125 -1.45,1.175 -1.5,1.1375 -3.1375,2.175 -3.3,2.0375 -3.4375,1.9 -3.525,1.7625 -3.575,1.6375 -3.6125,1.5 -3.6,1.3625 -3.55,1.2375 -3.5,1.1 -3.3625,0.9625 -3.2375,0.8375 -3.0625,0.7125 -1.6125,0.2875 -0.3375,-1.8375 1.525,-0.275 3.0125,-0.7 3.1875,-0.825 3.325,-0.95 3.45,-1.0875 3.5,-1.2125 3.55,-1.35 3.5375,-1.4625 3.525,-1.6125 3.45,-1.725 3.3625,-1.8625 3.225,-1.9875 3.0625,-2.1125 1.4625,-1.1125 1.4,-1.125 1.325,-1.175 1.2875,-1.2 1.2125,-1.225 1.1375,-1.25 1.0625,-1.3 0.9875,-1.3 0.9,-1.3625 0.825,-1.375 0.725,-1.4 0.625,-1.4375 0.5375,-1.4625 0.4375,-1.5 0.325,-1.525 0.225,-1.5625 0.1125,-1.6 -0.0125,-1.6125 -0.125,-1.675 -0.2625,-1.7 -0.375,-1.7375 -0.525,-1.775 -0.65,-1.8125 -0.8125,-1.85 -0.95,-1.9 -1.1125,-1.925 -1.2625,-1.9625 -1.4375,-2.0125 -1.5875,-2.0375 -1.7875,-2.0875 -1.9375,-2.1125 -2.1375,-2.1625 -2.3125,-2.1875 -2.525,-2.275 -2.5625,-2.15 -2.5125,-1.9875 -2.425,-1.825 -2.375,-1.65 -2.3,-1.5 -2.25,-1.3375 -2.175,-1.175 -2.1125,-1.0375 -2.0625,-0.8875 -1.9875,-0.75 -1.925,-0.6125 -1.8625,-0.475 -1.8125,-0.35 -1.7375,-0.225 -1.6875,-0.1125 -1.625,0.0125 -1.575,0.125 -1.525,0.225 -1.475,0.3375 -1.4125,0.4375 -1.3625,0.5375 -1.325,0.6375 -1.275,0.7125 -1.2375,0.825 -1.1875,0.8875 -1.15,0.9875 -1.1,1.075 -1.05,1.125 -1.025,1.225 -0.975,1.275 -0.925,1.3625 -0.9,1.4125 -0.85,1.4875 -0.8,1.5125 -1.5125,3.225 -1.35,3.4 -1.1875,3.575 -1.05,3.6875 -0.9,3.775 -0.775,3.825 -0.625,3.8875 -0.5125,3.875 -0.375,3.85 -0.2625,3.8 -0.15,3.7125 -0.05,3.6 0.0625,3.4625 0.15,3.2875 0.1,1.575 0.1375,1.525 -1.8625,0.1625 z m 30.275,22.95 -8.025,-2.425 6.75,-4.9625 1.275,7.3875 z"
     id="path234" />
  <path
     style="fill:#000000;fill-rule:nonzero"
     inkscape:connector-curvature="0"
     d="m 356.28657,181.79178 1.4375,-0.5375 1.5125,-0.5375 3.1625,-1.0375 3.375,-1 3.5375,-0.9375 3.675,-0.85 3.775,-0.775 3.875,-0.6875 3.925,-0.55 3.9625,-0.4375 3.975,-0.3 3.95,-0.15 3.9,0.025 3.85,0.2 3.7375,0.3875 3.6125,0.6125 1.775,0.3875 1.725,0.4375 1.675,0.5 1.625,0.5625 1.575,0.625 1.525,0.6875 1.4625,0.75 1.4125,0.8375 1.35,0.8875 1.275,0.975 1.2125,1.05 1.125,1.125 1.05,1.2 0.9625,1.275 0.8875,1.3625 0.7875,1.45 0.6875,1.525 0.5875,1.6125 0.4875,1.6875 0.375,1.775 0.275,1.875 0.1625,1.9375 0.0375,2.05 -0.075,2.125 -0.2,2.2125 -0.3125,2.3 -0.45,2.4 -0.575,2.5 -0.7125,2.6 -0.8375,2.675 -0.975,2.7875 -1.125,2.9 -1.275,3 -1.4125,3.1 -1.4875,3.075 -1.5125,2.875 -1.55,2.6875 -1.5375,2.5 -1.5875,2.325 -1.575,2.15 -1.6,1.9875 -1.625,1.8125 -1.625,1.6625 -1.6375,1.4875 -1.6375,1.3375 -1.675,1.2 -1.675,1.0375 -1.675,0.9 -1.6875,0.75 -1.6875,0.625 -1.7,0.475 -1.7,0.35 -1.7,0.2375 -1.6875,0.1 -1.7,-0.0125 -1.675,-0.1375 -1.6625,-0.225 -1.675,-0.35 -1.65,-0.45 -1.6375,-0.5375 -1.625,-0.625 -1.6125,-0.7125 -1.6,-0.8 -1.575,-0.875 -1.55,-0.95 -1.55,-1.0125 -1.525,-1.0875 -1.5,-1.1375 -1.4875,-1.1875 -1.4625,-1.2625 -2.825,-2.625 -2.7625,-2.8 -2.65,-2.9125 -2.525,-3.0125 -2.4125,-3.0875 -2.2875,-3.0875 -2.15,-3.1 -1.9875,-3.075 -1.8375,-2.9875 -1.6875,-2.8875 -1.5125,-2.7625 -0.7125,-1.475 1.6875,-0.8125 0.675,1.3875 1.4875,2.7125 1.65,2.85 1.825,2.95 1.9625,3.025 2.1125,3.05 2.25,3.0625 2.3625,3.025 2.5,2.9625 2.5875,2.8625 2.6875,2.7375 2.7875,2.5875 1.4125,1.2125 1.45,1.1625 1.45,1.1 1.4625,1.05 1.4875,0.975 1.5,0.9125 1.5125,0.8375 1.5,0.7625 1.5375,0.675 1.5375,0.6 1.5375,0.5125 1.55,0.4125 1.55,0.325 1.55,0.225 1.55,0.125 1.5625,0.025 1.5625,-0.1 1.5625,-0.2 1.5625,-0.325 1.5625,-0.4375 1.575,-0.5625 1.575,-0.7125 1.5625,-0.825 1.575,-0.9875 1.575,-1.1125 1.5625,-1.275 1.5625,-1.425 1.5625,-1.5875 1.5625,-1.7375 1.55,-1.925 1.5375,-2.0875 1.5375,-2.2625 1.5125,-2.45 1.5125,-2.6375 1.4875,-2.8 1.475,-3.0375 1.3875,-3.05 1.25,-2.95 1.1,-2.8375 0.9625,-2.7375 0.825,-2.6125 0.6875,-2.525 0.5625,-2.4125 0.425,-2.3125 0.3125,-2.2125 0.1875,-2.1125 0.075,-2.025 -0.0375,-1.925 -0.15,-1.8375 -0.2375,-1.7375 -0.35,-1.6625 -0.45,-1.5625 -0.5375,-1.4875 -0.625,-1.4 -0.7125,-1.325 -0.8125,-1.25 -0.875,-1.175 -0.9625,-1.1 -1.0375,-1.0375 -1.1125,-0.975 -1.175,-0.9 -1.2625,-0.8375 -1.3125,-0.775 -1.3875,-0.7125 -1.45,-0.6625 -1.5,-0.5875 -1.5375,-0.55 -1.6125,-0.475 -1.65,-0.425 -1.675,-0.3625 -3.5125,-0.5875 -3.65,-0.3875 -3.75,-0.2 -3.825,-0.025 -3.875,0.1375 -3.9125,0.3 -3.8875,0.425 -3.875,0.55 -3.8125,0.675 -3.7375,0.7625 -3.625,0.8375 -3.475,0.925 -3.325,0.975 -3.125,1.025 -1.4875,0.5375 -1.4375,0.525 -0.65,-1.75 z m -14.05,35.325 0.1625,-8.375 6.6125,5.1625 -6.775,3.2125 z"
     id="path236" />
  <path
     style="fill:#000000;fill-rule:nonzero"
     inkscape:connector-curvature="0"
     d="m 267.58657,233.74178 0.1875,1.525 0.175,1.5875 0.275,3.3375 0.1875,3.5 0.0875,3.6625 -0.025,3.7625 -0.125,3.8625 -0.2375,3.925 -0.375,3.95 -0.5,3.9625 -0.625,3.9125 -0.7875,3.8875 -0.925,3.8 -1.0875,3.6875 -1.2625,3.5375 -1.425,3.3875 -0.7875,1.6375 -0.8125,1.5625 -0.8875,1.5125 -0.9125,1.45 -0.9875,1.4 -1.0125,1.3125 -1.0875,1.2625 -1.125,1.175 -1.2,1.1 -1.225,1.0125 -1.3125,0.9375 -1.3625,0.8375 -1.4125,0.7375 -1.4625,0.6375 -1.525,0.5375 -1.6,0.4375 -1.6375,0.3125 -1.7125,0.2 -1.7625,0.0875 -1.825,-0.05 -1.8625,-0.1625 -1.9375,-0.3125 -1.9875,-0.4125 -2.0625,-0.5875 -2.1,-0.6875 -2.175,-0.85 -2.225,-1 -2.3,-1.125 -2.3625,-1.3 -2.4125,-1.4375 -2.4875,-1.6125 -2.5625,-1.7625 -2.6125,-1.925 -2.7,-2.1 -2.6125,-2.175 -2.425,-2.1375 -2.2625,-2.1125 -2.075,-2.1 -1.8875,-2.075 -1.7375,-2.025 -1.55,-2.025 -1.3875,-2 -1.2375,-1.95 -1.075,-1.95 -0.9125,-1.9125 -0.775,-1.9 -0.625,-1.875 -0.4875,-1.8375 -0.3375,-1.8125 -0.2125,-1.8 -0.075,-1.75 0.05,-1.7375 0.175,-1.7125 0.3,-1.6625 0.4,-1.6375 0.5125,-1.6125 0.625,-1.575 0.7125,-1.5375 0.8125,-1.5 0.9125,-1.4625 0.9875,-1.4375 1.075,-1.4 1.1375,-1.3625 1.2125,-1.3375 1.3,-1.3 1.3375,-1.2625 1.4125,-1.225 1.45,-1.2 3.05,-2.2875 3.225,-2.1625 3.3625,-2.025 3.45,-1.9 3.525,-1.7625 3.5375,-1.625 3.5625,-1.5 3.5,-1.3625 3.4375,-1.225 3.3375,-1.1 3.2,-0.9625 3.025,-0.8125 1.5875,-0.35 0.4,1.825 -1.5,0.325 -2.975,0.8125 -3.15,0.95 -3.3,1.075 -3.3875,1.2125 -3.45,1.3375 -3.5,1.4875 -3.4875,1.6 -3.45,1.725 -3.4,1.8625 -3.275,1.975 -3.15,2.1125 -2.9875,2.225 -1.4125,1.15 -1.35,1.1875 -1.3,1.225 -1.2375,1.2375 -1.1625,1.275 -1.0875,1.3 -1.0125,1.325 -0.9375,1.35 -0.8625,1.3875 -0.7625,1.4 -0.675,1.425 -0.575,1.4625 -0.475,1.4875 -0.3875,1.5125 -0.2625,1.5375 -0.175,1.5625 -0.05,1.6 0.075,1.625 0.175,1.6625 0.325,1.6875 0.45,1.725 0.575,1.75 0.725,1.8 0.8625,1.8125 1.025,1.8625 1.1875,1.8875 1.3375,1.925 1.5,1.95 1.675,1.975 1.85,2.0125 2.025,2.05 2.2,2.0875 2.4125,2.1 2.5625,2.1375 2.65,2.0625 2.575,1.9 2.5,1.725 2.425,1.575 2.3625,1.4125 2.2875,1.25 2.225,1.1 2.1625,0.9625 2.075,0.8125 2.025,0.675 1.9375,0.55 1.9,0.4 1.8,0.3 1.75,0.15 1.6875,0.05 1.6375,-0.075 1.575,-0.175 1.5,-0.2875 1.4625,-0.3875 1.4,-0.4875 1.35,-0.5875 1.3,-0.675 1.25,-0.7625 1.2,-0.8625 1.1625,-0.9375 1.1,-1.025 1.0625,-1.1 1.025,-1.1875 0.9625,-1.25 0.9375,-1.325 0.875,-1.375 0.85,-1.45 0.7875,-1.5125 0.75,-1.55 1.3875,-3.275 1.225,-3.45 1.0625,-3.6 0.9125,-3.725 0.775,-3.8 0.625,-3.8625 0.4875,-3.9 0.3625,-3.8875 0.2375,-3.875 0.125,-3.8125 0.025,-3.7125 -0.0875,-3.6 -0.1875,-3.45 -0.2625,-3.2875 -0.175,-1.5625 -0.1875,-1.525 1.8625,-0.225 z m -31.162,-21.862 8.1125,2.1125 -6.55,5.225 -1.5625,-7.3375 z"
     id="path238" />
  <text
     xml:space="preserve"
     style="font-style:normal;font-variant:normal;font-weight:normal;font-stretch:normal;font-size:40px;line-height:125%;font-family:FreeSans;-inkscape-font-specification:FreeSans;letter-spacing:0px;word-spacing:0px;fill:#000000;fill-opacity:1;stroke:none;stroke-width:1px;stroke-linecap:butt;stroke-linejoin:miter;stroke-opacity:1"
     x="96.600746"
     y="139.34511"
     id="text3515"
     sodipodi:linespacing="125%"><tspan
       sodipodi:role="line"
       id="tspan3517"
       x="96.600746"
       y="139.34511"
       style="-inkscape-font-specification:Ubuntu;font-family:Ubuntu;font-weight:normal;font-style:normal;font-stretch:normal;font-variant:normal;font-size:27.5px">Λ</tspan></text>
</svg>
