<!-- Created with Inkscape (http://www.inkscape.org/) -->
<svg id="svg4697" xmlns:rdf="http://www.w3.org/1999/02/22-rdf-syntax-ns#" xmlns="http://www.w3.org/2000/svg" xml:space="preserve" height="270.56" width="350.3" version="1.1" xmlns:cc="http://creativecommons.org/ns#" xmlns:xlink="http://www.w3.org/1999/xlink" xmlns:dc="http://purl.org/dc/elements/1.1/"><metadata id="metadata4703"><rdf:RDF><cc:Work rdf:about=""><dc:format>image/svg+xml</dc:format><dc:type rdf:resource="http://purl.org/dc/dcmitype/StillImage"/><dc:title/></cc:Work></rdf:RDF></metadata><defs id="defs4701"><clipPath id="clipPath68114" clipPathUnits="userSpaceOnUse"><path id="path68116" clip-rule="evenodd" d="M0.000010729,0,720,0v540h-720v-540z"/></clipPath><clipPath id="clipPath68102" clipPathUnits="userSpaceOnUse"><path id="path68104" clip-rule="evenodd" d="M0.000010729,0,720,0v540h-720v-540z"/></clipPath><clipPath id="clipPath68084" clipPathUnits="userSpaceOnUse"><path id="path68086" clip-rule="evenodd" d="M0.000010729,0,720,0v540h-720v-540z"/></clipPath><clipPath id="clipPath68066" clipPathUnits="userSpaceOnUse"><path id="path68068" clip-rule="evenodd" d="M0.000010729,0,720,0v540h-720v-540z"/></clipPath><clipPath id="clipPath68048" clipPathUnits="userSpaceOnUse"><path id="path68050" clip-rule="evenodd" d="M0.000010729,0,720,0v540h-720v-540z"/></clipPath><clipPath id="clipPath68030" clipPathUnits="userSpaceOnUse"><path id="path68032" clip-rule="evenodd" d="M0.000010729,0,720,0v540h-720v-540z"/></clipPath><clipPath id="clipPath68012" clipPathUnits="userSpaceOnUse"><path id="path68014" clip-rule="evenodd" d="M0.000010729,0,720,0v540h-720v-540z"/></clipPath><clipPath id="clipPath67994" clipPathUnits="userSpaceOnUse"><path id="path67996" clip-rule="evenodd" d="M0.000010729,0,720,0v540h-720v-540z"/></clipPath><clipPath id="clipPath67978" clipPathUnits="userSpaceOnUse"><path id="path67980" clip-rule="evenodd" d="M0.000010729,0,720,0v540h-720v-540z"/></clipPath><clipPath id="clipPath67962" clipPathUnits="userSpaceOnUse"><path id="path67964" clip-rule="evenodd" d="M0.000010729,0,720,0v540h-720v-540z"/></clipPath><clipPath id="clipPath67950" clipPathUnits="userSpaceOnUse"><path id="path67952" clip-rule="evenodd" d="M-0.000010634,540,720,540,720,0.000061035,0.0000056,0.000061035"/></clipPath><clipPath id="clipPath67940" clipPathUnits="userSpaceOnUse"><path id="path67942" clip-rule="evenodd" d="M-0.000026117,540,720,540,720,0-0.000046904,0"/></clipPath><clipPath id="clipPath67930" clipPathUnits="userSpaceOnUse"><path id="path67932" clip-rule="evenodd" d="M-0.000003168,540,720,540,720,0.000061035,0.000013066,0.00012207"/></clipPath><clipPath id="clipPath67920" clipPathUnits="userSpaceOnUse"><path id="path67922" clip-rule="evenodd" d="m0.000019345,0.000061035,720,0,0,540-720,0,0-540z"/></clipPath><clipPath id="clipPath67910" clipPathUnits="userSpaceOnUse"><path id="path67912" clip-rule="evenodd" d="M-0.000006323,540,720,540,720,0.00012207h-720"/></clipPath><clipPath id="clipPath67900" clipPathUnits="userSpaceOnUse"><path id="path67902" clip-rule="evenodd" d="M-0.000045244,540,720,540,720,0-0.000029089,0"/></clipPath><clipPath id="clipPath67890" clipPathUnits="userSpaceOnUse"><path id="path67892" clip-rule="evenodd" d="M0.000017185,540,720,540,720,0.00012207h-720"/></clipPath><clipPath id="clipPath67880" clipPathUnits="userSpaceOnUse"><path id="path67882" clip-rule="evenodd" d="M-0.000051331,540,720,540,720,0.000061035-0.000038227,0.00012207"/></clipPath><clipPath id="clipPath67870" clipPathUnits="userSpaceOnUse"><path id="path67872" clip-rule="evenodd" d="M-0.000036959,540,720,540,720,0-0.000057746,0"/></clipPath><clipPath id="clipPath67860" clipPathUnits="userSpaceOnUse"><path id="path67862" clip-rule="evenodd" d="M-0.000011622,540,720,540,720,0.000061035,0.000004612,0.00012207"/></clipPath><clipPath id="clipPath67850" clipPathUnits="userSpaceOnUse"><path id="path67852" clip-rule="evenodd" d="M-0.000022006,540,720,540,720,0-0.000042793,0"/></clipPath><clipPath id="clipPath67840" clipPathUnits="userSpaceOnUse"><path id="path67842" clip-rule="evenodd" d="M0.000002636,0.00024414,720,0.00024414,720,540h-720v-540z"/></clipPath><clipPath id="clipPath67798" clipPathUnits="userSpaceOnUse"><path id="path67800" clip-rule="evenodd" d="M0.000010729,0,720,0v540h-720v-540z"/></clipPath><clipPath id="clipPath67772" clipPathUnits="userSpaceOnUse"><path id="path67774" clip-rule="evenodd" d="M0.000010729,0,720,0v540h-720v-540z"/></clipPath><clipPath id="clipPath67760" clipPathUnits="userSpaceOnUse"><path id="path67762" clip-rule="evenodd" d="M0.000010729,0,720,0v540h-720v-540z"/></clipPath><clipPath id="clipPath67748" clipPathUnits="userSpaceOnUse"><path id="path67750" clip-rule="evenodd" d="M0.000010729,0,720,0v540h-720v-540z"/></clipPath><clipPath id="clipPath67706" clipPathUnits="userSpaceOnUse"><path id="path67708" clip-rule="evenodd" d="m0.000008289,0.00018311,720,0,0,540-720,0,0-540z"/></clipPath><clipPath id="clipPath67716" clipPathUnits="userSpaceOnUse"><path id="path67718" d="m0,0,71.129,0,0,21.369h-71.129v-21.369z"/></clipPath><clipPath id="clipPath67694" clipPathUnits="userSpaceOnUse"><path id="path67696" clip-rule="evenodd" d="M-8.6E-7,540,720,540,720,0.000061035h-720"/></clipPath><clipPath id="clipPath67684" clipPathUnits="userSpaceOnUse"><path id="path67686" clip-rule="evenodd" d="M-0.000010334,540,720,540,720,0.000061035-0.000028756,0"/></clipPath><clipPath id="clipPath67674" clipPathUnits="userSpaceOnUse"><path id="path67676" clip-rule="evenodd" d="M0.000002637,540,720,540,720,0.000061035,0.000014141,0.00012207"/></clipPath><clipPath id="clipPath67664" clipPathUnits="userSpaceOnUse"><path id="path67666" clip-rule="evenodd" d="m0.000074542,0.000061035,720,0,0,540-720,0,0-540z"/></clipPath><clipPath id="clipPath67654" clipPathUnits="userSpaceOnUse"><path id="path67656" clip-rule="evenodd" d="M0.000006663,540,720,540,720,0.00012207h-720"/></clipPath><clipPath id="clipPath67644" clipPathUnits="userSpaceOnUse"><path id="path67646" clip-rule="evenodd" d="M-0.000010687,540,720,540,720,0-0.000001422,0"/></clipPath><clipPath id="clipPath67634" clipPathUnits="userSpaceOnUse"><path id="path67636" clip-rule="evenodd" d="M0.000005445,540,720,540,720,0.00012207h-720"/></clipPath><clipPath id="clipPath67624" clipPathUnits="userSpaceOnUse"><path id="path67626" clip-rule="evenodd" d="M-0.000006938,540,720,540,720,0.000061035-0.000001188,0.00012207"/></clipPath><clipPath id="clipPath67614" clipPathUnits="userSpaceOnUse"><path id="path67616" clip-rule="evenodd" d="M-0.000008209,540,720,540,720,0-0.000026631,0"/></clipPath><clipPath id="clipPath67604" clipPathUnits="userSpaceOnUse"><path id="path67606" clip-rule="evenodd" d="M-0.000003987,540,720,540,720,0.000061035,0.000006335,0.00012207"/></clipPath><clipPath id="clipPath67594" clipPathUnits="userSpaceOnUse"><path id="path67596" clip-rule="evenodd" d="M-0.000007998,540,720,540,720,0-0.000026421,0"/></clipPath><clipPath id="clipPath67584" clipPathUnits="userSpaceOnUse"><path id="path67586" clip-rule="evenodd" d="M5.66E-7,0.00024414,720,0.00024414,720,540,5.66E-7,540v-540z"/></clipPath></defs><g id="g4705" transform="matrix(1.25,0,0,-1.25,-69.439387,653.42421)"><path id="path67548" d="m110.23,381.87,36.162,23.86-1.26,1.9-36.158-23.86,1.256-1.9zm36.462,21.33,3.83,6.62-7.59-0.91,3.76-5.71z" fill-rule="nonzero" fill="#F00"/><path id="path67550" stroke-linejoin="round" d="m80.618,381.32-10.56-29.4" stroke="#000" stroke-linecap="butt" stroke-miterlimit="10" stroke-dasharray="none" stroke-width="0.72000003" fill="none"/><path id="path67552" stroke-linejoin="round" d="m80.618,381.32,10.8-29.16" stroke="#000" stroke-linecap="butt" stroke-miterlimit="10" stroke-dasharray="none" stroke-width="0.72000003" fill="none"/><path id="path67554" stroke-linejoin="round" d="m70.058,352.16,10.56-3.24" stroke="#000" stroke-linecap="butt" stroke-miterlimit="10" stroke-dasharray="none" stroke-width="0.72000003" fill="none"/><path id="path67556" stroke-linejoin="round" d="m91.418,352.16-10.8-3.24" stroke="#000" stroke-linecap="butt" stroke-miterlimit="10" stroke-dasharray="none" stroke-width="0.72000003" fill="none"/><path id="path67558" stroke-linejoin="round" d="m80.618,380.72,0-31.8" stroke="#000" stroke-linecap="butt" stroke-miterlimit="10" stroke-dasharray="none" stroke-width="0.72000003" fill="none"/><path id="path67560" stroke-linejoin="round" d="m70.058,351.92,10.56,3.24" stroke="#000" stroke-linecap="butt" stroke-miterlimit="10" stroke-dasharray="none" stroke-width="0.72000003" fill="none"/><path id="path67562" stroke-linejoin="round" d="m91.418,352.16-10.8,3" stroke="#000" stroke-linecap="butt" stroke-miterlimit="10" stroke-dasharray="none" stroke-width="0.72000003" fill="none"/><path id="path67564" stroke-linejoin="round" d="m74.498,364.64,6.12-2.4" stroke="#000" stroke-linecap="butt" stroke-miterlimit="10" stroke-dasharray="none" stroke-width="0.72000003" fill="none"/><path id="path67566" stroke-linejoin="round" d="m80.618,362.24,6.48,2.4" stroke="#000" stroke-linecap="butt" stroke-miterlimit="10" stroke-dasharray="none" stroke-width="0.72000003" fill="none"/><path id="path67568" stroke-linejoin="round" d="m72.578,360.44,7.92-3.24" stroke="#000" stroke-linecap="butt" stroke-miterlimit="10" stroke-dasharray="none" stroke-width="0.72000003" fill="none"/><path id="path67570" stroke-linejoin="round" d="m80.618,356.96,8.04,2.88" stroke="#000" stroke-linecap="butt" stroke-miterlimit="10" stroke-dasharray="none" stroke-width="0.72000003" fill="none"/><path id="path67572" stroke-linejoin="round" d="m80.618,367.88,4.2,1.2" stroke="#000" stroke-linecap="butt" stroke-miterlimit="10" stroke-dasharray="none" stroke-width="0.72000003" fill="none"/><path id="path67574" stroke-linejoin="round" d="m80.618,374.24,2.64,0.96" stroke="#000" stroke-linecap="butt" stroke-miterlimit="10" stroke-dasharray="none" stroke-width="0.72000003" fill="none"/><path id="path67576" stroke-linejoin="round" d="m76.178,369.56,4.8-1.68" stroke="#000" stroke-linecap="butt" stroke-miterlimit="10" stroke-dasharray="none" stroke-width="0.72000003" fill="none"/><path id="path67578" stroke-linejoin="round" d="m78.338,375.44,2.76-1.56" stroke="#000" stroke-linecap="butt" stroke-miterlimit="10" stroke-dasharray="none" stroke-width="0.72000003" fill="none"/><g id="g67580" transform="translate(32.137939,141.79937)"><g id="g67582" clip-path="url(#clipPath67584)"><path id="path67588" stroke-linejoin="round" d="m50.52,237.12,0,0" stroke="#000" stroke-linecap="butt" stroke-miterlimit="10" stroke-dasharray="none" stroke-width="0.72000003" fill="none"/></g></g><g id="g67590" transform="translate(32.137939,141.79937)"><g id="g67592" clip-path="url(#clipPath67594)"><path id="path67598" stroke-linejoin="round" d="m51.79,239.77,11.031,0.85" stroke="#000" stroke-linecap="butt" stroke-miterlimit="10" stroke-dasharray="none" stroke-width="2.5" fill="none"/></g></g><g id="g67600" transform="translate(32.137939,141.79937)"><g id="g67602" clip-path="url(#clipPath67604)"><path id="path67608" stroke-linejoin="round" d="m62.689,240.61-4.996-2.46" stroke="#000" stroke-linecap="butt" stroke-miterlimit="10" stroke-dasharray="none" stroke-width="2.5" fill="none"/></g></g><g id="g67610" transform="translate(32.137939,141.79937)"><g id="g67612" clip-path="url(#clipPath67614)"><path id="path67618" stroke-linejoin="round" d="m57.662,238.12,10.912,0.89" stroke="#000" stroke-linecap="butt" stroke-miterlimit="10" stroke-dasharray="none" stroke-width="2.5" fill="none"/></g></g><g id="g67620" transform="translate(32.137939,141.79937)"><g id="g67622" clip-path="url(#clipPath67624)"><path id="path67628" stroke-linejoin="round" d="m47.637,257.51,0,0" stroke="#000" stroke-linecap="butt" stroke-miterlimit="10" stroke-dasharray="none" stroke-width="0.75" fill="none"/></g></g><g id="g67630" transform="translate(32.137939,141.79937)"><g id="g67632" clip-path="url(#clipPath67634)"><path id="path67638" stroke-linejoin="round" d="M50.061,256.23,50.82,246.02" stroke="#000" stroke-linecap="butt" stroke-miterlimit="10" stroke-dasharray="none" stroke-width="2.5" fill="none"/></g></g><g id="g67640" transform="translate(32.137939,141.79937)"><g id="g67642" clip-path="url(#clipPath67644)"><path id="path67648" stroke-linejoin="round" d="m50.687,246.21-2.735,5.08" stroke="#000" stroke-linecap="butt" stroke-miterlimit="10" stroke-dasharray="none" stroke-width="2.5" fill="none"/></g></g><g id="g67650" transform="translate(32.137939,141.79937)"><g id="g67652" clip-path="url(#clipPath67654)"><path id="path67658" stroke-linejoin="round" d="M47.682,251.23,48.44,241.02" stroke="#000" stroke-linecap="butt" stroke-miterlimit="10" stroke-dasharray="none" stroke-width="2.5" fill="none"/></g></g><g id="g67660" transform="translate(32.137939,141.79937)"><g id="g67662" clip-path="url(#clipPath67664)"><path id="path67668" stroke-linejoin="round" d="m46.68,242.16,0,0" stroke="#000" stroke-linecap="butt" stroke-miterlimit="10" stroke-dasharray="none" stroke-width="0.72000003" fill="none"/></g></g><g id="g67670" transform="translate(32.137939,141.79937)"><g id="g67672" clip-path="url(#clipPath67674)"><path id="path67678" stroke-linejoin="round" d="M45.223,239.49,34.151,238.5" stroke="#000" stroke-linecap="butt" stroke-miterlimit="10" stroke-dasharray="none" stroke-width="2.5" fill="none"/></g></g><g id="g67680" transform="translate(32.137939,141.79937)"><g id="g67682" clip-path="url(#clipPath67684)"><path id="path67688" stroke-linejoin="round" d="m34.297,238.64,5.029,2.58" stroke="#000" stroke-linecap="butt" stroke-miterlimit="10" stroke-dasharray="none" stroke-width="2.5" fill="none"/></g></g><g id="g67690" transform="translate(32.137939,141.79937)"><g id="g67692" clip-path="url(#clipPath67694)"><path id="path67698" stroke-linejoin="round" d="M39.465,241.24,28.552,240.36" stroke="#000" stroke-linecap="butt" stroke-miterlimit="10" stroke-dasharray="none" stroke-width="2.5" fill="none"/></g></g><path id="path67700" stroke-linejoin="round" d="m80.018,350.12,92.64,61.2" stroke="#000" stroke-linecap="butt" stroke-miterlimit="10" stroke-dasharray="none" stroke-width="0.72000003" fill="none"/><g id="g67702" transform="translate(32.137939,141.79937)"><g id="g67704" clip-path="url(#clipPath67706)"><g id="g67710" transform="matrix(-1.1767,0,0,0.37833,205.32,164.04)"><g id="g67712" transform="scale(1.0122,3.3694)"><g id="g67714" clip-path="url(#clipPath67716)"><g id="g67720"><g id="g67722"/><path id="path67726" d="M14.927,10.806,17.247,10.374,18.842,9.1483,19.857,7.4907,20.146,5.6168,19.857,3.6709,18.842,2.0132,17.247,0.78798,14.927,0.35555,12.68,0.78798,11.085,2.0132,10.142,3.6709,9.8525,5.6168,10.142,7.4907,11.085,9.1483,12.68,10.374,14.927,10.806,15.144,8.4997,13.84,8.2114,12.97,7.5628,12.462,6.6258,12.317,5.5447l0.145-1.081,0.58-0.937,0.87-0.6486,1.232-0.2883,1.305,0.2883,0.87,0.6486,0.58,0.937,0.218,1.081-0.145,1.0811-0.58,0.937-0.943,0.6486-1.305,0.2883-0.217,2.3063z" fill-rule="evenodd" fill="#000"/><path id="path67728" d="m57.046,10.806,2.319-0.432,1.668-1.2257,0.942-1.6576,0.363-1.8739-0.29-1.9459-1.015-1.6577-1.668-1.2252-2.319-0.43243-2.32,0.43243-1.595,1.2252-1.015,1.6577-0.29,1.9459,0.362,1.8739,0.943,1.6576,1.667,1.2257,2.248,0.432,0,0,0-2.3063-1.305-0.2883-0.87-0.6486-0.508-0.937-0.145-1.0811,0.145-1.081,0.58-0.937,0.87-0.6486,1.233-0.2883,0,0,1.304,0.2883,0.87,0.6486,0.58,0.937,0.218,1.081-0.145,1.0811-0.58,0.937-0.943,0.6486-1.304,0.2883,0,2.3063z" fill-rule="evenodd" fill="#000"/><path id="path67730" d="m28.048,12.68,0.725,0,0.798,0,0.797,0,0.797-0.072,0.798,0,0.797,0,0.87,0,0.87,0,0.87,0,0.942,0,0.87,0,0.943,0,0.942,0,1.015,0,0.943,0,1.014,0,0.508-0.577-4.64-0.36,4.93-0.433,0.507-1.441,0-1.1532l-0.362-0.9369-0.58-0.8649-0.653-0.7207-0.652-0.7928-0.435-0.8648-0.217-1.009-13.774,0.2882-0.073,1.1532-0.217,1.2973-0.29,1.3694-0.508,1.5855,2.465,3.5317z" fill-rule="evenodd" fill="#000"/><path id="path67732" d="M44.214,7.779,43.924,7.2745,43.489,6.77,43.127,6.2655,42.692,5.761,42.329,5.2565,42.039,4.7519,41.822,4.1033,41.749,3.4547l8.192,0.072,0.145,2.0901,0.508,1.7297,0.725,1.5136,0.942,1.2249,1.087,0.937,1.233,0.649,1.377,0.432,1.378,0.144,1.304-0.144,1.378-0.36,1.232-0.577,1.088-0.865,0.942-1.1527,0.725-1.2973,0.507-1.5855,0.145-1.8018,6.162,0.7928-0.362,0.7927,0.29,0.3604,0.435,0.2162,0.217,0.4325-0.725,1.081-0.362,0.7928-0.073,0.6487,0.218,0.5042,0.29,0.505,0.362,0.504,0.218,0.649,0.145,0.793h-1.16l-1.088,0.072h-1.087l-1.087,0.072-1.015,0.144-1.088,0.144-1.015,0.144-1.015,0.217-1.014,0.216-1.015,0.216-1.015,0.36-0.943,0.289-1.015,0.36-1.014,0.432-1.015,0.433-1.015,0.504-2.103,0.937-2.174,0.793-2.175,0.577-2.247,0.432-2.32,0.216-2.248,0.144-2.319-0.072-2.248-0.144-2.319-0.36-2.32-0.433-2.247-0.504-2.175-0.649-2.175-0.793-2.175-0.864-2.03-0.937-2.029-1.009,1.522-0.289,0.58,0.289,0.797,0.36,1.015,0.432,1.16,0.505,1.305,0.504,1.522,0.649,1.74,0.649,1.885,0.72-5.799-4.108h-4.205l-1.522,0.289-1.378,0.144-1.377,0.144-1.305,0.072h-1.232l-1.233-0.072-1.232-0.144-1.16-0.216-1.16-0.217-1.1599-0.36-1.0874-0.432-1.1599-0.577-1.0874-0.577-1.0874-0.72-1.0149-0.7931-1.0874-0.8648-1.0874-1.0091,6.1619-0.8648-0.7974-0.4324-0.7974-0.2883-0.8699-0.2163h-0.87l-0.9424,0.0721-0.7974,0.2162-0.86991,0.2883-0.72493,0.4325v-0.3604l0.21748-0.4324,0.28997-0.5766,0.50749-0.7207h7.1043l0.145,1.7297,0.4349,1.5135,0.725,1.2973,0.87,1.0093,1.015,0.793,1.16,0.504,1.305,0.36,1.304,0.072,1.233-0.216,1.305-0.432,1.16-0.649,1.015-0.937,0.869-1.225,0.725-1.3694,0.435-1.7297,0.145-1.946h3.552l-0.072,1.2973-0.29,1.3694-0.435,1.3694-0.58,1.5135,8.554,8.0725,11.672,0.576-0.145-1.585,1.885-0.217h0.942,0.797,0.943,0.725,1.015l-0.798-2.09h-0.942l0.725,2.09h-0.725l-0.798-2.09h-0.942l0.797,2.09h-0.797l-0.652-2.09h-1.015l0.725,2.09-1.885,0.217-0.363-3.532-0.942-0.144,0.29-0.649,0.507,0.216,0.798,0.217,0.942,0.072,1.015,0.072h0.942l0.798-0.144,0.58-0.289,0.217-0.504-0.217-0.288-0.58-0.145-0.798-0.072h-1.014-0.943-0.87l-0.652,0.072h-0.363l0.508-1.081,0.217-0.8645-0.072-0.7928-0.218-0.7207,1.305,0.072,0.798,0.937-0.653,0.8649h0.798l0.797-0.8649-0.652-0.937h-1.088l-1.305-0.072z" fill-rule="evenodd" fill="#000"/></g></g></g></g></g></g><path id="path67734" stroke-linejoin="round" d="m144.94,324.68-15.36,0" stroke="#000" stroke-linecap="butt" stroke-miterlimit="10" stroke-dasharray="none" stroke-width="0.72000003" fill="none"/><path id="path67736" stroke-linejoin="round" d="m149.14,329.12-25.08,0" stroke="#000" stroke-linecap="butt" stroke-miterlimit="10" stroke-dasharray="none" stroke-width="0.72000003" fill="none"/><path id="path67738" d="m160.78,410.12,77.64,0,0,53.28-77.64,0,0-53.28z" fill-rule="evenodd" fill="#0C9"/><path id="path67740" stroke-linejoin="miter" d="m160.78,410.12,77.64,0,0,53.28-77.64,0,0-53.28z" stroke="#000" stroke-linecap="butt" stroke-miterlimit="8" stroke-dasharray="none" stroke-width="0.72000003" fill="none"/><path id="path67742" d="m164.86,431.96,14.52,0,0,28.8-14.52,0,0-28.8z" fill-rule="evenodd" fill="#0C9"/><g id="g67744" transform="translate(32.137939,141.79937)"><g id="g67746" clip-path="url(#clipPath67748)"><text id="text67752" transform="matrix(1,0,0,-1,146.33,307.03)"><tspan id="tspan67754" style="writing-mode:lr-tb;" font-weight="normal" fill-rule="nonzero" font-size="14.03999996px" font-variant="normal" y="0" x="0 11.63916 19.4454 27.25164 30.368521 33.485401 41.291641" font-family="Arial" fill="#000000">Mobile</tspan></text>
</g></g><g id="g67756" transform="translate(32.137939,141.79937)"><g id="g67758" clip-path="url(#clipPath67760)"><text id="text67764" transform="matrix(1,0,0,-1,136.97,290.23)"><tspan id="tspan67766" style="writing-mode:lr-tb;" font-weight="normal" fill-rule="nonzero" font-size="14.03999996px" font-variant="normal" y="0" x="0 9.3646803 19.31904 22.435921 26.381161 33.443279 41.249519 44.366402 52.172642 59.978882" font-family="Arial" fill="#000000">Switching</tspan></text>
</g></g><g id="g67768" transform="translate(32.137939,141.79937)"><g id="g67770" clip-path="url(#clipPath67772)"><text id="text67776" transform="matrix(1,0,0,-1,145.97,273.43)"><tspan id="tspan67778" style="writing-mode:lr-tb;" font-weight="normal" fill-rule="nonzero" font-size="14.03999996px" font-variant="normal" y="0" x="0 10.08072 17.886959 25.693199 29.624399 37.430641" font-family="Arial" fill="#000000">Center</tspan></text>
</g></g><path id="path67780" d="m122.38,448.1c0,2.49,11.2,4.5,25.02,4.5s25.02-2.01,25.02-4.5-11.2-4.5-25.02-4.5-25.02,2.01-25.02,4.5z" fill-rule="evenodd" fill="#0C9"/><path id="path67782" stroke-linejoin="round" d="m122.38,448.1c0,2.49,11.2,4.5,25.02,4.5s25.02-2.01,25.02-4.5-11.2-4.5-25.02-4.5-25.02,2.01-25.02,4.5z" stroke="#000" stroke-linecap="butt" stroke-miterlimit="8" stroke-dasharray="none" stroke-width="0.72000003" fill="none"/><path id="path67784" stroke-linejoin="round" d="m122.5,477.44,0-29.28" stroke="#000" stroke-linecap="butt" stroke-miterlimit="8" stroke-dasharray="none" stroke-width="0.72000003" fill="none"/><path id="path67786" d="m123.22,448.88,49.2,0,0,29.28-49.2,0,0-29.28z" fill-rule="evenodd" fill="#0C9"/><path id="path67788" d="m122.26,477.98c0,2.49,11.2,4.5,25.02,4.5s25.02-2.01,25.02-4.5-11.2-4.5-25.02-4.5-25.02,2.01-25.02,4.5z" fill-rule="evenodd" fill="#0C9"/><path id="path67790" stroke-linejoin="round" d="m122.26,477.98c0,2.49,11.2,4.5,25.02,4.5s25.02-2.01,25.02-4.5-11.2-4.5-25.02-4.5-25.02,2.01-25.02,4.5z" stroke="#000" stroke-linecap="butt" stroke-miterlimit="8" stroke-dasharray="none" stroke-width="0.72000003" fill="none"/><path id="path67792" stroke-linejoin="round" d="m172.42,477.08,0-29.28" stroke="#000" stroke-linecap="butt" stroke-miterlimit="8" stroke-dasharray="none" stroke-width="0.72000003" fill="none"/><g id="g67794" transform="translate(32.137939,141.79937)"><g id="g67796" clip-path="url(#clipPath67798)"><text id="text67802" transform="matrix(1,0,0,-1,99.336,311.23)"><tspan id="tspan67804" style="writing-mode:lr-tb;" font-weight="normal" fill-rule="nonzero" font-size="15.96000004px" font-variant="normal" y="0" x="0 10.64532 19.519079" font-family="Arial" fill="#000000">VLR</tspan></text>
</g></g><path id="path67806" stroke-linejoin="round" d="m315.7,381.32-10.68-29.4" stroke="#000" stroke-linecap="butt" stroke-miterlimit="8" stroke-dasharray="none" stroke-width="0.72000003" fill="none"/><path id="path67808" stroke-linejoin="round" d="m315.7,381.32,10.68-29.16" stroke="#000" stroke-linecap="butt" stroke-miterlimit="8" stroke-dasharray="none" stroke-width="0.72000003" fill="none"/><path id="path67810" stroke-linejoin="round" d="m305.02,352.16,10.68-3.24" stroke="#000" stroke-linecap="butt" stroke-miterlimit="8" stroke-dasharray="none" stroke-width="0.72000003" fill="none"/><path id="path67812" stroke-linejoin="round" d="m326.38,352.16-10.68-3.24" stroke="#000" stroke-linecap="butt" stroke-miterlimit="8" stroke-dasharray="none" stroke-width="0.72000003" fill="none"/><path id="path67814" stroke-linejoin="round" d="m315.7,380.72,0-31.8" stroke="#000" stroke-linecap="butt" stroke-miterlimit="8" stroke-dasharray="none" stroke-width="0.72000003" fill="none"/><path id="path67816" stroke-linejoin="round" d="m305.02,351.92,10.68,3.24" stroke="#000" stroke-linecap="butt" stroke-miterlimit="8" stroke-dasharray="none" stroke-width="0.72000003" fill="none"/><path id="path67818" stroke-linejoin="round" d="m326.38,352.16-10.68,3" stroke="#000" stroke-linecap="butt" stroke-miterlimit="8" stroke-dasharray="none" stroke-width="0.72000003" fill="none"/><path id="path67820" stroke-linejoin="round" d="m309.58,364.64,6.12-2.4" stroke="#000" stroke-linecap="butt" stroke-miterlimit="8" stroke-dasharray="none" stroke-width="0.72000003" fill="none"/><path id="path67822" stroke-linejoin="round" d="m315.7,362.24,6.48,2.4" stroke="#000" stroke-linecap="butt" stroke-miterlimit="8" stroke-dasharray="none" stroke-width="0.72000003" fill="none"/><path id="path67824" stroke-linejoin="round" d="m307.54,360.44,7.92-3.24" stroke="#000" stroke-linecap="butt" stroke-miterlimit="8" stroke-dasharray="none" stroke-width="0.72000003" fill="none"/><path id="path67826" stroke-linejoin="round" d="m315.7,356.96,7.92,2.88" stroke="#000" stroke-linecap="butt" stroke-miterlimit="8" stroke-dasharray="none" stroke-width="0.72000003" fill="none"/><path id="path67828" stroke-linejoin="round" d="m315.7,367.88,4.08,1.2" stroke="#000" stroke-linecap="butt" stroke-miterlimit="8" stroke-dasharray="none" stroke-width="0.72000003" fill="none"/><path id="path67830" stroke-linejoin="round" d="m315.7,374.24,2.64,0.96" stroke="#000" stroke-linecap="butt" stroke-miterlimit="8" stroke-dasharray="none" stroke-width="0.72000003" fill="none"/><path id="path67832" stroke-linejoin="round" d="m311.14,369.56,4.92-1.68" stroke="#000" stroke-linecap="butt" stroke-miterlimit="8" stroke-dasharray="none" stroke-width="0.72000003" fill="none"/><path id="path67834" stroke-linejoin="round" d="m313.42,375.44,2.76-1.56" stroke="#000" stroke-linecap="butt" stroke-miterlimit="8" stroke-dasharray="none" stroke-width="0.72000003" fill="none"/><g id="g67836" transform="translate(32.137939,141.79937)"><g id="g67838" clip-path="url(#clipPath67840)"><path id="path67844" stroke-linejoin="round" d="m285.48,237.12,0,0" stroke="#000" stroke-linecap="butt" stroke-miterlimit="8" stroke-dasharray="none" stroke-width="0.72000003" fill="none"/></g></g><g id="g67846" transform="translate(32.137939,141.79937)"><g id="g67848" clip-path="url(#clipPath67850)"><path id="path67854" stroke-linejoin="round" d="m286.79,239.77,11.03,0.85" stroke="#000" stroke-linecap="butt" stroke-miterlimit="8" stroke-dasharray="none" stroke-width="2.5" fill="none"/></g></g><g id="g67856" transform="translate(32.137939,141.79937)"><g id="g67858" clip-path="url(#clipPath67860)"><path id="path67864" stroke-linejoin="round" d="m297.69,240.61-5-2.46" stroke="#000" stroke-linecap="butt" stroke-miterlimit="8" stroke-dasharray="none" stroke-width="2.5" fill="none"/></g></g><g id="g67866" transform="translate(32.137939,141.79937)"><g id="g67868" clip-path="url(#clipPath67870)"><path id="path67874" stroke-linejoin="round" d="m292.66,238.12,10.91,0.89" stroke="#000" stroke-linecap="butt" stroke-miterlimit="8" stroke-dasharray="none" stroke-width="2.5" fill="none"/></g></g><g id="g67876" transform="translate(32.137939,141.79937)"><g id="g67878" clip-path="url(#clipPath67880)"><path id="path67884" stroke-linejoin="round" d="m282.64,257.51,0,0" stroke="#000" stroke-linecap="butt" stroke-miterlimit="8" stroke-dasharray="none" stroke-width="0.75" fill="none"/></g></g><g id="g67886" transform="translate(32.137939,141.79937)"><g id="g67888" clip-path="url(#clipPath67890)"><path id="path67894" stroke-linejoin="round" d="m285.06,256.23,0.76-10.21" stroke="#000" stroke-linecap="butt" stroke-miterlimit="8" stroke-dasharray="none" stroke-width="2.5" fill="none"/></g></g><g id="g67896" transform="translate(32.137939,141.79937)"><g id="g67898" clip-path="url(#clipPath67900)"><path id="path67904" stroke-linejoin="round" d="m285.69,246.21-2.74,5.08" stroke="#000" stroke-linecap="butt" stroke-miterlimit="8" stroke-dasharray="none" stroke-width="2.5" fill="none"/></g></g><g id="g67906" transform="translate(32.137939,141.79937)"><g id="g67908" clip-path="url(#clipPath67910)"><path id="path67914" stroke-linejoin="round" d="m282.68,251.23,0.76-10.21" stroke="#000" stroke-linecap="butt" stroke-miterlimit="8" stroke-dasharray="none" stroke-width="2.5" fill="none"/></g></g><g id="g67916" transform="translate(32.137939,141.79937)"><g id="g67918" clip-path="url(#clipPath67920)"><path id="path67924" stroke-linejoin="round" d="m281.64,242.16,0,0" stroke="#000" stroke-linecap="butt" stroke-miterlimit="8" stroke-dasharray="none" stroke-width="0.72000003" fill="none"/></g></g><g id="g67926" transform="translate(32.137939,141.79937)"><g id="g67928" clip-path="url(#clipPath67930)"><path id="path67934" stroke-linejoin="round" d="M280.22,239.49,269.15,238.5" stroke="#000" stroke-linecap="butt" stroke-miterlimit="8" stroke-dasharray="none" stroke-width="2.5" fill="none"/></g></g><g id="g67936" transform="translate(32.137939,141.79937)"><g id="g67938" clip-path="url(#clipPath67940)"><path id="path67944" stroke-linejoin="round" d="m269.3,238.64,5.03,2.58" stroke="#000" stroke-linecap="butt" stroke-miterlimit="8" stroke-dasharray="none" stroke-width="2.5" fill="none"/></g></g><g id="g67946" transform="translate(32.137939,141.79937)"><g id="g67948" clip-path="url(#clipPath67950)"><path id="path67954" stroke-linejoin="round" d="m274.46,241.24-10.91-0.88" stroke="#000" stroke-linecap="butt" stroke-miterlimit="8" stroke-dasharray="none" stroke-width="2.5" fill="none"/></g></g><path id="path67956" stroke-linejoin="round" d="m317.62,349.16-92.64,61.08" stroke="#000" stroke-linecap="butt" stroke-miterlimit="8" stroke-dasharray="none" stroke-width="0.72000003" fill="none"/><g id="g67958" transform="translate(32.137939,141.79937)"><g id="g67960" clip-path="url(#clipPath67962)"><text id="text67966" transform="matrix(1,0,0,-1,22.824,189.5)"><tspan id="tspan67968" style="writing-mode:lr-tb;" font-weight="normal" fill-rule="nonzero" font-size="14.03999996px" font-variant="normal" y="0" x="0 7.8062401 10.92312 18.729361 22.435921 31.8006 41.165279" font-family="Arial" fill="#000000">old BSS</tspan></text>
</g></g><path id="path67970" d="m116.8,394.16c0,5.47,4.191,9.9,9.36,9.9s9.36-4.43,9.36-9.9-4.191-9.9-9.36-9.9-9.36,4.43-9.36,9.9z" fill-rule="evenodd" fill="#FFF"/><path id="path67972" stroke-linejoin="round" d="m116.8,394.16c0,5.47,4.191,9.9,9.36,9.9s9.36-4.43,9.36-9.9-4.191-9.9-9.36-9.9-9.36,4.43-9.36,9.9z" stroke="#F00" stroke-linecap="butt" stroke-miterlimit="8" stroke-dasharray="none" stroke-width="1.55999994" fill="none"/><g id="g67974" transform="translate(32.137939,141.79937)"><g id="g67976" clip-path="url(#clipPath67978)"><text id="text67982" transform="matrix(1,0,0,-1,89.088,246.1)"><tspan id="tspan67984" style="writing-mode:lr-tb;" font-weight="normal" fill-rule="nonzero" font-size="15.96000004px" font-variant="normal" y="0" x="0" font-family="Arial" fill="#ff0000">1</tspan></text>
</g></g><path id="path67986" d="m296.32,360.14c0,5.5,4.19,9.96,9.36,9.96s9.36-4.46,9.36-9.96-4.19-9.96-9.36-9.96-9.36,4.46-9.36,9.96z" fill-rule="evenodd" fill="#FFF"/><path id="path67988" stroke-linejoin="round" d="m296.32,360.14c0,5.5,4.19,9.96,9.36,9.96s9.36-4.46,9.36-9.96-4.19-9.96-9.36-9.96-9.36,4.46-9.36,9.96z" stroke="#F00" stroke-linecap="butt" stroke-miterlimit="8" stroke-dasharray="none" stroke-width="1.55999994" fill="none"/><g id="g67990" transform="translate(32.137939,141.79937)"><g id="g67992" clip-path="url(#clipPath67994)"><text id="text67998" transform="matrix(1,0,0,-1,268.63,212.09)"><tspan id="tspan68000" style="writing-mode:lr-tb;" font-weight="normal" fill-rule="nonzero" font-size="15.96000004px" font-variant="normal" y="0" x="0" font-family="Arial" fill="#ff0000">3</tspan></text>
</g></g><path id="path68002" d="m229.73,418.34,67.67-42.9-1.22-1.93-67.67,42.91,1.22,1.92zm67.92-40.37,3.95-6.55-7.61,0.77,3.66,5.78z" fill-rule="nonzero" fill="#F00"/><path id="path68004" d="m222.28,416.18c0,5.5,4.22,9.96,9.42,9.96s9.42-4.46,9.42-9.96-4.22-9.96-9.42-9.96-9.42,4.46-9.42,9.96z" fill-rule="evenodd" fill="#FFF"/><path id="path68006" stroke-linejoin="round" d="m222.28,416.18c0,5.5,4.22,9.96,9.42,9.96s9.42-4.46,9.42-9.96-4.22-9.96-9.42-9.96-9.42,4.46-9.42,9.96z" stroke="#F00" stroke-linecap="butt" stroke-miterlimit="8" stroke-dasharray="none" stroke-width="1.55999994" fill="none"/><g id="g68008" transform="translate(32.137939,141.79937)"><g id="g68010" clip-path="url(#clipPath68012)"><text id="text68016" transform="matrix(1,0,0,-1,194.62,268.1)"><tspan id="tspan68018" style="writing-mode:lr-tb;" font-weight="normal" fill-rule="nonzero" font-size="15.96000004px" font-variant="normal" y="0" x="0" font-family="Arial" fill="#ff0000">2</tspan></text>
</g></g><path id="path68020" d="m287.34,359.44-8.79,6.83-4.38,3.38-4.34,3.32-4.32,3.27-4.28,3.18-4.23,3.09-4.18,2.97-4.12,2.84-4.06,2.71-3.98,2.54-1.95,1.21-1.94,1.16-1.92,1.11-1.89,1.07-1.88,1.01-1.84,0.96-1.82,0.9-1.79,0.85-1.76,0.78-1.74,0.73-1.69,0.68-1.65,0.65-1.58,0.61-1.53,0.58-1.47,0.53-1.43,0.5-2.74,0.88-2.6,0.72-2.5,0.55-2.44,0.38-1.19,0.12-1.22,0.09-1.21,0.03-1.22-0.01-1.25-0.06-1.27-0.09-1.28-0.15-1.33-0.2-1.35-0.24-1.41-0.3-1.45-0.34-1.49-0.4-1.56-0.46-1.62-0.5-1.68-0.56-1.75-0.62-1.82-0.67-1.9-0.73-1.96-0.8-2.01-0.86-2.04-0.93-2.11-1-2.13-1.07-2.19-1.13-2.22-1.2-2.26-1.25-2.3-1.3-2.34-1.36-2.36-1.42-2.41-1.47-2.43-1.51-2.46-1.55-5.01-3.24-5.1-3.39-5.181-3.53-5.258-3.64-5.318-3.74-5.365-3.81-5.404-3.87-6.237-4.51-1.336,1.84,6.245,4.52,5.411,3.88,5.375,3.82,5.332,3.75,5.272,3.65,5.204,3.54,5.12,3.4,5.03,3.26,2.48,1.56,2.44,1.52,2.42,1.48,2.39,1.43,2.36,1.37,2.32,1.32,2.29,1.27,2.26,1.2,2.21,1.15,2.17,1.09,2.14,1.01,2.09,0.96,2.05,0.88,2,0.81,1.93,0.74,1.86,0.69,1.79,0.62,1.71,0.57,1.66,0.52,1.61,0.47,1.55,0.41,1.51,0.36,1.47,0.31,1.44,0.26,1.38,0.2,1.38,0.16,1.34,0.1,1.33,0.06,1.31,0.01,1.3-0.04,1.29-0.09,1.31-0.14,2.58-0.4,2.62-0.58,2.68-0.75,2.8-0.9,1.46-0.51,1.5-0.54,1.54-0.58,1.6-0.62,1.66-0.66,1.72-0.69,1.79-0.75,1.81-0.8,1.83-0.87,1.85-0.92,1.88-0.98,1.9-1.03,1.92-1.08,1.95-1.12,1.96-1.18,1.99-1.22,4.02-2.57,4.09-2.73,4.14-2.87,4.2-2.98,4.25-3.1,4.3-3.19,4.32-3.27,4.36-3.34,4.38-3.37,8.79-6.84-1.4-1.8zm-182.67-2.86-7.547-1.24,3.539,6.78,4.008-5.54z" fill-rule="nonzero" fill="#F00"/><path id="path68022" d="m188.32,405.68c0,5.47,4.19,9.9,9.36,9.9s9.36-4.43,9.36-9.9-4.19-9.9-9.36-9.9-9.36,4.43-9.36,9.9z" fill-rule="evenodd" fill="#FFF"/><path id="path68024" stroke-linejoin="round" d="m188.32,405.68c0,5.47,4.19,9.9,9.36,9.9s9.36-4.43,9.36-9.9-4.19-9.9-9.36-9.9-9.36,4.43-9.36,9.9z" stroke="#F00" stroke-linecap="butt" stroke-miterlimit="8" stroke-dasharray="none" stroke-width="1.55999994" fill="none"/><g id="g68026" transform="translate(32.137939,141.79937)"><g id="g68028" clip-path="url(#clipPath68030)"><text id="text68034" transform="matrix(1,0,0,-1,160.61,257.62)"><tspan id="tspan68036" style="writing-mode:lr-tb;" font-weight="normal" fill-rule="nonzero" font-size="15.98400021px" font-variant="normal" y="0" x="0" font-family="Arial" fill="#ff0000">4</tspan></text>
</g></g><path id="path68038" d="m108,347.39,41.795-17.7-0.89-2.1-41.795,17.7,0.89,2.1zm41.635-15.15,4.96-5.82-7.63-0.48,2.67,6.3z" fill-rule="nonzero" fill="#F00"/><path id="path68040" d="m119.32,338.66c0,5.5,4.191,9.96,9.36,9.96,5.17,0,9.36-4.46,9.36-9.96s-4.19-9.96-9.36-9.96c-5.169,0-9.36,4.46-9.36,9.96z" fill-rule="evenodd" fill="#FFF"/><path id="path68042" stroke-linejoin="round" d="m119.32,338.66c0,5.5,4.191,9.96,9.36,9.96,5.17,0,9.36-4.46,9.36-9.96s-4.19-9.96-9.36-9.96c-5.169,0-9.36,4.46-9.36,9.96z" stroke="#F00" stroke-linecap="butt" stroke-miterlimit="8" stroke-dasharray="none" stroke-width="1.55999994" fill="none"/><g id="g68044" transform="translate(32.137939,141.79937)"><g id="g68046" clip-path="url(#clipPath68048)"><text id="text68052" transform="matrix(1,0,0,-1,91.584,190.58)"><tspan id="tspan68054" style="writing-mode:lr-tb;" font-weight="normal" fill-rule="nonzero" font-size="15.96000004px" font-variant="normal" y="0" x="0" font-family="Arial" fill="#ff0000">5</tspan></text>
</g></g><path id="path68056" d="m230.57,325.92,0.51,0.23,0.53,0.26,0.59,0.3,0.65,0.33,0.68,0.36,0.74,0.39,1.6,0.87,1.77,0.97,1.9,1.06,2.03,1.13,2.14,1.2,2.24,1.27,2.33,1.31,2.39,1.34,2.46,1.37,5.01,2.75,5.08,2.72,2.52,1.32,2.49,1.27,2.46,1.22,2.39,1.16,2.33,1.08,2.24,0.99,2.15,0.9,2.04,0.78,1.92,0.67,1.77,0.54,1.65,0.39,0.79,0.15,0.74,0.1,0.69,0.06,0.67,0.01,0.62-0.03,0.62-0.1,0.56-0.16c0.06-0.02,0.12-0.04,0.17-0.06l0.38-0.18c0.05-0.03,0.11-0.06,0.16-0.1l0.32-0.22c0.06-0.05,0.12-0.1,0.18-0.15l0.26-0.28c0.05-0.06,0.1-0.12,0.14-0.18l0.21-0.34c0.04-0.07,0.08-0.14,0.1-0.22l0.12-0.34c0.03-0.07,0.05-0.14,0.06-0.21l0.05-0.35c0.01-0.08,0.01-0.15,0.01-0.22l-0.01-0.37c-0.01-0.07-0.02-0.14-0.03-0.21l-0.09-0.39c-0.01-0.06-0.03-0.11-0.05-0.16l-0.16-0.41-0.26-0.53-0.33-0.53-0.4-0.54-0.44-0.52-0.48-0.52-0.55-0.54-0.59-0.55-0.63-0.55-0.69-0.56-0.72-0.57-1.56-1.15-1.73-1.19-1.87-1.22-1.98-1.24-2.09-1.27-2.2-1.28-2.26-1.28-2.33-1.3-2.37-1.3-2.41-1.29-4.82-2.56-2.4-1.25-2.36-1.23-2.3-1.2-2.25-1.16-2.15-1.12-2.06-1.09-1.95-1.03-2.52-1.4-1.1,1.99,2.55,1.42,1.96,1.04,2.06,1.09,2.17,1.12,2.24,1.17,2.3,1.2,2.36,1.23,2.39,1.24,4.81,2.54,2.39,1.29,2.35,1.29,2.31,1.29,2.24,1.28,2.17,1.25,2.06,1.24,1.95,1.23,1.82,1.19,1.66,1.15,1.51,1.11,0.69,0.54,0.64,0.52,0.58,0.5,0.53,0.49,0.47,0.46,0.42,0.45,0.36,0.43,0.29,0.37,0.23,0.36,0.17,0.32,0.15,0.41-0.04-0.16,0.09,0.39-0.03-0.21,0.01,0.37,0.01-0.21-0.05,0.35,0.06-0.21-0.12,0.34,0.1-0.22-0.21,0.33,0.14-0.18-0.26,0.28,0.18-0.15-0.33,0.22,0.16-0.09-0.37,0.18,0.17-0.07-0.31,0.1-0.36,0.07-0.46,0.03-0.51-0.01-0.58-0.04-0.63-0.08-0.67-0.13-1.51-0.35-1.69-0.51-1.85-0.64-1.98-0.76-2.11-0.89-2.2-0.97-2.3-1.07-2.37-1.14-2.43-1.21-2.47-1.26-2.51-1.31-5.05-2.71-5-2.75-2.45-1.36-2.39-1.34-2.33-1.3-2.24-1.27-2.15-1.2-2.03-1.15-1.92-1.07-1.77-0.96-1.62-0.89-0.75-0.39-0.71-0.37-0.65-0.33-0.63-0.32-0.58-0.28-0.51-0.23-0.94,2.07zm16.57-7.54-7.63-0.47,4.2,6.39,3.43-5.92z" fill-rule="nonzero" fill="#F00"/><path id="path68058" d="m256.36,337.16c0,5.47,4.19,9.9,9.36,9.9s9.36-4.43,9.36-9.9-4.19-9.9-9.36-9.9-9.36,4.43-9.36,9.9z" fill-rule="evenodd" fill="#FFF"/><path id="path68060" stroke-linejoin="round" d="m256.36,337.16c0,5.47,4.19,9.9,9.36,9.9s9.36-4.43,9.36-9.9-4.19-9.9-9.36-9.9-9.36,4.43-9.36,9.9z" stroke="#F00" stroke-linecap="butt" stroke-miterlimit="8" stroke-dasharray="none" stroke-width="1.55999994" fill="none"/><g id="g68062" transform="translate(32.137939,141.79937)"><g id="g68064" clip-path="url(#clipPath68066)"><text id="text68070" transform="matrix(1,0,0,-1,228.62,189.1)"><tspan id="tspan68072" style="writing-mode:lr-tb;" font-weight="normal" fill-rule="nonzero" font-size="15.96000004px" font-variant="normal" y="0" x="0" font-family="Arial" fill="#ff0000">6</tspan></text>
</g></g><path id="path68074" d="m221.42,329.31,0.42,0.26,0.46,0.29,0.53,0.31,0.56,0.33,1.25,0.7,1.38,0.77,1.55,0.83,1.65,0.89,1.76,0.94,1.86,0.99,1.96,1.04,2.02,1.08,2.08,1.11,2.13,1.13,4.32,2.34,4.34,2.41,2.14,1.2,2.09,1.21,2.06,1.2,1.99,1.19,1.89,1.18,1.82,1.15,1.71,1.13,1.58,1.09,1.44,1.06,1.3,1.02,1.14,0.96,0.48,0.44,0.44,0.44,0.4,0.42,0.36,0.4,0.28,0.37,0.24,0.36,0.16,0.3,0.13,0.29,0.07,0.23-0.04-0.17,0.05,0.33-0.01-0.23-0.02,0.31,0.02-0.17-0.07,0.36,0.05-0.17-0.15,0.4-0.16,0.3-0.23,0.36-0.28,0.39-0.36,0.44-0.4,0.45-0.48,0.5-0.53,0.52-0.58,0.54-0.64,0.56-0.69,0.59-0.73,0.59-1.61,1.26-1.76,1.31-1.91,1.37-2.04,1.4-2.16,1.45-2.26,1.48-2.34,1.5-2.4,1.52-2.47,1.53-5.03,3.07-5.06,3.04-2.5,1.48-2.47,1.48-2.41,1.42-2.34,1.4-2.26,1.33-2.17,1.29-2.05,1.23-1.92,1.17-1.29,0.81,1.22,1.93,1.25-0.79,1.91-1.16,2.05-1.23,2.15-1.29,2.27-1.34,2.34-1.39,2.42-1.43,2.46-1.46,2.51-1.49,5.08-3.05,5.04-3.08,2.48-1.54,2.43-1.53,2.35-1.51,2.29-1.5,2.17-1.46,2.08-1.43,1.94-1.39,1.81-1.35,1.64-1.29,0.76-0.62,0.72-0.61,0.68-0.6,0.64-0.58,0.58-0.57,0.52-0.56,0.5-0.55,0.42-0.53,0.38-0.53,0.31-0.52,0.26-0.53,0.15-0.39c0.02-0.06,0.04-0.12,0.05-0.18l0.08-0.37c0.01-0.05,0.02-0.11,0.02-0.17l0.01-0.31c0.01-0.07,0-0.15-0.01-0.23l-0.05-0.34c-0.01-0.05-0.02-0.11-0.04-0.17l-0.16-0.48-0.22-0.45-0.27-0.48-0.32-0.46-0.37-0.48-0.41-0.47-0.46-0.48-0.5-0.49-0.55-0.5-1.21-1.02-1.35-1.06-1.5-1.1-1.61-1.11-1.75-1.15-1.84-1.17-1.93-1.2-2-1.19-2.07-1.22-2.12-1.22-2.15-1.21-4.36-2.41-4.33-2.35-2.13-1.13-2.08-1.11-2.03-1.08-1.94-1.04-1.86-0.99-1.76-0.93-1.65-0.9-1.52-0.81-1.37-0.76-1.22-0.7-0.55-0.32-0.48-0.28-0.46-0.28-0.42-0.27-1.21,1.94zm-3.98,64.97-3.93,6.56,7.61-0.79-3.68-5.77z" fill-rule="nonzero" fill="#F00"/><path id="path68076" d="m224.8,383.18c0,5.5,4.19,9.96,9.36,9.96s9.36-4.46,9.36-9.96-4.19-9.96-9.36-9.96-9.36,4.46-9.36,9.96z" fill-rule="evenodd" fill="#FFF"/><path id="path68078" stroke-linejoin="round" d="m224.8,383.18c0,5.5,4.19,9.96,9.36,9.96s9.36-4.46,9.36-9.96-4.19-9.96-9.36-9.96-9.36,4.46-9.36,9.96z" stroke="#F00" stroke-linecap="butt" stroke-miterlimit="8" stroke-dasharray="none" stroke-width="1.55999994" fill="none"/><g id="g68080" transform="translate(32.137939,141.79937)"><g id="g68082" clip-path="url(#clipPath68084)"><text id="text68088" transform="matrix(1,0,0,-1,197.11,235.1)"><tspan id="tspan68090" style="writing-mode:lr-tb;" font-weight="normal" fill-rule="nonzero" font-size="15.96000004px" font-variant="normal" y="0" x="0" font-family="Arial" fill="#ff0000">7</tspan></text>
</g></g><path id="path68092" d="m178.93,399.37-59.218-39.44,1.264-1.9,59.214,39.44-1.26,1.9zm-59.533-36.91-3.797-6.64,7.589,0.95-3.792,5.69z" fill-rule="nonzero" fill="#F00"/><path id="path68094" d="m142.84,374.18c0,5.5,4.19,9.96,9.36,9.96s9.36-4.46,9.36-9.96-4.19-9.96-9.36-9.96-9.36,4.46-9.36,9.96z" fill-rule="evenodd" fill="#FFF"/><path id="path68096" stroke-linejoin="round" d="m142.84,374.18c0,5.5,4.19,9.96,9.36,9.96s9.36-4.46,9.36-9.96-4.19-9.96-9.36-9.96-9.36,4.46-9.36,9.96z" stroke="#F00" stroke-linecap="butt" stroke-miterlimit="8" stroke-dasharray="none" stroke-width="1.55999994" fill="none"/><g id="g68098" transform="translate(32.137939,141.79937)"><g id="g68100" clip-path="url(#clipPath68102)"><text id="text68106" transform="matrix(1,0,0,-1,115.1,226.1)"><tspan id="tspan68108" style="writing-mode:lr-tb;" font-weight="normal" fill-rule="nonzero" font-size="15.96000004px" font-variant="normal" y="0" x="0" font-family="Arial" fill="#ff0000">8</tspan></text>
</g></g><g id="g68110" transform="translate(32.137939,141.79937)"><g id="g68112" clip-path="url(#clipPath68114)"><text id="text68118" transform="matrix(1,0,0,-1,245.38,179.38)"><tspan id="tspan68120" style="writing-mode:lr-tb;" font-weight="normal" fill-rule="nonzero" font-size="14.03999996px" font-variant="normal" y="0" x="0 7.8062401 15.61248 25.566839 29.512079 38.876759 48.24144" font-family="Arial" fill="#000000">new BSS</tspan></text>
</g></g><path id="path68362" d="m199.18,522.74,0-51.66-3,0,0,51.66,3,0zm3-50.16-4.5-9-4.5,9,9,0z" fill-rule="nonzero" fill="#F30"/></g></svg>
