<?xml version="1.0" encoding="UTF-8" standalone="no"?>
<!-- Created with Inkscape (http://www.inkscape.org/) -->

<svg
   xmlns:dc="http://purl.org/dc/elements/1.1/"
   xmlns:cc="http://creativecommons.org/ns#"
   xmlns:rdf="http://www.w3.org/1999/02/22-rdf-syntax-ns#"
   xmlns:svg="http://www.w3.org/2000/svg"
   xmlns="http://www.w3.org/2000/svg"
   xmlns:sodipodi="http://sodipodi.sourceforge.net/DTD/sodipodi-0.dtd"
   xmlns:inkscape="http://www.inkscape.org/namespaces/inkscape"
   width="108.16869"
   height="27.78363"
   id="svg36370"
   version="1.1"
   inkscape:version="0.48.3.1 r9886"
   sodipodi:docname="AP5_Problema2.svg">
  <defs
     id="defs36372">
    <clipPath
       clipPathUnits="userSpaceOnUse"
       id="clipPath344">
      <path
         inkscape:connector-curvature="0"
         d="M 9.99e-7,6.104e-6 720,6.104e-6 720,540.00001 9.99e-7,540.00001 9.99e-7,6.104e-6 z"
         clip-rule="evenodd"
         id="path346" />
    </clipPath>
    <clipPath
       clipPathUnits="userSpaceOnUse"
       id="clipPath348">
      <path
         inkscape:connector-curvature="0"
         d="m 0,0 361.12,0 0,186.9 L 0,186.9 0,0 z"
         id="path350" />
    </clipPath>
    <clipPath
       clipPathUnits="userSpaceOnUse"
       id="clipPath496">
      <path
         inkscape:connector-curvature="0"
         d="M -4.349e-6,1.8311e-4 720,1.8311e-4 720,540.00018 l -720.000004349,0 0,-539.99999689 z"
         clip-rule="evenodd"
         id="path498" />
    </clipPath>
    <clipPath
       clipPathUnits="userSpaceOnUse"
       id="clipPath646">
      <path
         inkscape:connector-curvature="0"
         d="M 3.229e-6,6.104e-6 720,6.104e-6 720,540.00001 3.229e-6,540.00001 3.229e-6,6.104e-6 z"
         clip-rule="evenodd"
         id="path648" />
    </clipPath>
    <clipPath
       clipPathUnits="userSpaceOnUse"
       id="clipPath650">
      <path
         inkscape:connector-curvature="0"
         d="m 0,0 361.12,0 0,186.9 L 0,186.9 0,0 z"
         id="path652" />
    </clipPath>
    <clipPath
       clipPathUnits="userSpaceOnUse"
       id="clipPath638">
      <path
         inkscape:connector-curvature="0"
         d="M -1.459e-6,6.104e-6 720,6.104e-6 720,540.00001 -1.459e-6,540.00001 -1.459e-6,6.104e-6 z"
         clip-rule="evenodd"
         id="path640" />
    </clipPath>
    <clipPath
       clipPathUnits="userSpaceOnUse"
       id="clipPath642">
      <path
         inkscape:connector-curvature="0"
         d="m 0,0 361.12,0 0,186.9 L 0,186.9 0,0 z"
         id="path644" />
    </clipPath>
    <clipPath
       clipPathUnits="userSpaceOnUse"
       id="clipPath634">
      <path
         inkscape:connector-curvature="0"
         d="M -2.855e-6,1.8311e-4 720,1.8311e-4 720,540.00018 l -720.000002855,0 0,-539.99999689 z"
         clip-rule="evenodd"
         id="path636" />
    </clipPath>
    <clipPath
       clipPathUnits="userSpaceOnUse"
       id="clipPath630">
      <path
         inkscape:connector-curvature="0"
         d="M -8.02e-7,1.8311e-4 720,1.8311e-4 720,540.00018 -8.02e-7,540.00018 l 0,-539.99999689 z"
         clip-rule="evenodd"
         id="path632" />
    </clipPath>
    <clipPath
       clipPathUnits="userSpaceOnUse"
       id="clipPath1214">
      <path
         inkscape:connector-curvature="0"
         d="M -2.332e-6,1.2207e-4 720,1.2207e-4 720,540.00012 l -720.000002332,0 0,-539.99999793 z"
         clip-rule="evenodd"
         id="path1216" />
    </clipPath>
    <clipPath
       clipPathUnits="userSpaceOnUse"
       id="clipPath1210">
      <path
         inkscape:connector-curvature="0"
         d="M 1.03e-6,1.8311e-4 720,1.8311e-4 720,540.00018 1.03e-6,540.00018 l 0,-539.99999689 z"
         clip-rule="evenodd"
         id="path1212" />
    </clipPath>
    <clipPath
       clipPathUnits="userSpaceOnUse"
       id="clipPath1206">
      <path
         inkscape:connector-curvature="0"
         d="M -1.84e-7,1.8311e-4 720,1.8311e-4 720,540.00018 -1.84e-7,540.00018 l 0,-539.99999689 z"
         clip-rule="evenodd"
         id="path1208" />
    </clipPath>
    <clipPath
       clipPathUnits="userSpaceOnUse"
       id="clipPath1386">
      <path
         inkscape:connector-curvature="0"
         d="M -2.329e-6,1.8311e-4 720,1.8311e-4 720,540.00018 l -720.000002329,0 0,-539.99999689 z"
         clip-rule="evenodd"
         id="path1388" />
    </clipPath>
    <clipPath
       clipPathUnits="userSpaceOnUse"
       id="clipPath1382">
      <path
         inkscape:connector-curvature="0"
         d="M 1.03e-6,1.8311e-4 720,1.8311e-4 720,540.00018 1.03e-6,540.00018 l 0,-539.99999689 z"
         clip-rule="evenodd"
         id="path1384" />
    </clipPath>
    <clipPath
       clipPathUnits="userSpaceOnUse"
       id="clipPath1378">
      <path
         inkscape:connector-curvature="0"
         d="M -1.84e-7,1.8311e-4 720,1.8311e-4 720,540.00018 -1.84e-7,540.00018 l 0,-539.99999689 z"
         clip-rule="evenodd"
         id="path1380" />
    </clipPath>
    <clipPath
       clipPathUnits="userSpaceOnUse"
       id="clipPath1758">
      <path
         inkscape:connector-curvature="0"
         d="m -5.996e-6,1.8311e-4 719.999995996,0 0,539.99999689 -719.999995996,0 0,-539.99999689 z"
         clip-rule="evenodd"
         id="path1760" />
    </clipPath>
    <clipPath
       clipPathUnits="userSpaceOnUse"
       id="clipPath1754">
      <path
         inkscape:connector-curvature="0"
         d="M 1.03e-6,1.8311e-4 720,1.8311e-4 720,540.00018 1.03e-6,540.00018 l 0,-539.99999689 z"
         clip-rule="evenodd"
         id="path1756" />
    </clipPath>
    <clipPath
       clipPathUnits="userSpaceOnUse"
       id="clipPath1750">
      <path
         inkscape:connector-curvature="0"
         d="m 0,1.8311e-4 720,0 0,539.99999689 -720,0 L 0,1.8311e-4 z"
         clip-rule="evenodd"
         id="path1752" />
    </clipPath>
    <clipPath
       clipPathUnits="userSpaceOnUse"
       id="clipPath1958">
      <path
         inkscape:connector-curvature="0"
         d="M -1.795e-6,1.8311e-4 720,1.8311e-4 720,540.00018 l -720.000001795,0 0,-539.99999689 z"
         clip-rule="evenodd"
         id="path1960" />
    </clipPath>
    <clipPath
       clipPathUnits="userSpaceOnUse"
       id="clipPath1954">
      <path
         inkscape:connector-curvature="0"
         d="M -6.68e-7,1.8311e-4 720,1.8311e-4 720,540.00018 -6.68e-7,540.00018 l 0,-539.99999689 z"
         clip-rule="evenodd"
         id="path1956" />
    </clipPath>
    <clipPath
       clipPathUnits="userSpaceOnUse"
       id="clipPath1950">
      <path
         inkscape:connector-curvature="0"
         d="m 0,1.8311e-4 720,0 0,539.99999689 -720,0 L 0,1.8311e-4 z"
         clip-rule="evenodd"
         id="path1952" />
    </clipPath>
    <clipPath
       clipPathUnits="userSpaceOnUse"
       id="clipPath2206">
      <path
         inkscape:connector-curvature="0"
         d="M -1.645e-6,2.4414e-4 720,2.4414e-4 720,540.00024 -1.645e-6,540.00024 l 0,-539.99999586 z"
         clip-rule="evenodd"
         id="path2208" />
    </clipPath>
    <clipPath
       clipPathUnits="userSpaceOnUse"
       id="clipPath2210">
      <path
         inkscape:connector-curvature="0"
         d="m 0,0 352.7,0 0,273.15 L 0,273.15 0,0 z"
         id="path2212" />
    </clipPath>
    <clipPath
       clipPathUnits="userSpaceOnUse"
       id="clipPath2202">
      <path
         inkscape:connector-curvature="0"
         d="M -1.795e-6,1.8311e-4 720,1.8311e-4 720,540.00018 l -720.000001795,0 0,-539.99999689 z"
         clip-rule="evenodd"
         id="path2204" />
    </clipPath>
    <clipPath
       clipPathUnits="userSpaceOnUse"
       id="clipPath2198">
      <path
         inkscape:connector-curvature="0"
         d="M -6.68e-7,1.8311e-4 720,1.8311e-4 720,540.00018 -6.68e-7,540.00018 l 0,-539.99999689 z"
         clip-rule="evenodd"
         id="path2200" />
    </clipPath>
    <clipPath
       clipPathUnits="userSpaceOnUse"
       id="clipPath2194">
      <path
         inkscape:connector-curvature="0"
         d="m 0,1.8311e-4 720,0 0,539.99999689 -720,0 L 0,1.8311e-4 z"
         clip-rule="evenodd"
         id="path2196" />
    </clipPath>
    <clipPath
       clipPathUnits="userSpaceOnUse"
       id="clipPath2610">
      <path
         inkscape:connector-curvature="0"
         d="M -1.795e-6,1.8311e-4 720,1.8311e-4 720,540.00018 l -720.000001795,0 0,-539.99999689 z"
         clip-rule="evenodd"
         id="path2612" />
    </clipPath>
    <clipPath
       clipPathUnits="userSpaceOnUse"
       id="clipPath2606">
      <path
         inkscape:connector-curvature="0"
         d="M -6.68e-7,1.8311e-4 720,1.8311e-4 720,540.00018 -6.68e-7,540.00018 l 0,-539.99999689 z"
         clip-rule="evenodd"
         id="path2608" />
    </clipPath>
    <clipPath
       clipPathUnits="userSpaceOnUse"
       id="clipPath2602">
      <path
         inkscape:connector-curvature="0"
         d="m 0,1.8311e-4 720,0 0,539.99999689 -720,0 L 0,1.8311e-4 z"
         clip-rule="evenodd"
         id="path2604" />
    </clipPath>
    <clipPath
       clipPathUnits="userSpaceOnUse"
       id="clipPath2854">
      <path
         inkscape:connector-curvature="0"
         d="M -1.645e-6,2.4414e-4 720,2.4414e-4 720,540.00024 -1.645e-6,540.00024 l 0,-539.99999586 z"
         clip-rule="evenodd"
         id="path2856" />
    </clipPath>
    <clipPath
       clipPathUnits="userSpaceOnUse"
       id="clipPath2858">
      <path
         inkscape:connector-curvature="0"
         d="m 0,0 352.7,0 0,273.15 L 0,273.15 0,0 z"
         id="path2860" />
    </clipPath>
    <clipPath
       clipPathUnits="userSpaceOnUse"
       id="clipPath2850">
      <path
         inkscape:connector-curvature="0"
         d="M -1.795e-6,1.8311e-4 720,1.8311e-4 720,540.00018 l -720.000001795,0 0,-539.99999689 z"
         clip-rule="evenodd"
         id="path2852" />
    </clipPath>
    <clipPath
       clipPathUnits="userSpaceOnUse"
       id="clipPath2846">
      <path
         inkscape:connector-curvature="0"
         d="M -6.68e-7,1.8311e-4 720,1.8311e-4 720,540.00018 -6.68e-7,540.00018 l 0,-539.99999689 z"
         clip-rule="evenodd"
         id="path2848" />
    </clipPath>
    <clipPath
       clipPathUnits="userSpaceOnUse"
       id="clipPath2842">
      <path
         inkscape:connector-curvature="0"
         d="m 0,1.8311e-4 720,0 0,539.99999689 -720,0 L 0,1.8311e-4 z"
         clip-rule="evenodd"
         id="path2844" />
    </clipPath>
    <clipPath
       clipPathUnits="userSpaceOnUse"
       id="clipPath3234">
      <path
         inkscape:connector-curvature="0"
         d="M -4.492e-6,1.8311e-4 720,1.8311e-4 720,540.00018 l -720.000004492,0 0,-539.99999689 z"
         clip-rule="evenodd"
         id="path3236" />
    </clipPath>
    <clipPath
       clipPathUnits="userSpaceOnUse"
       id="clipPath3230">
      <path
         inkscape:connector-curvature="0"
         d="M -1.43e-7,1.8311e-4 720,1.8311e-4 720,540.00018 -1.43e-7,540.00018 l 0,-539.99999689 z"
         clip-rule="evenodd"
         id="path3232" />
    </clipPath>
    <clipPath
       clipPathUnits="userSpaceOnUse"
       id="clipPath3480">
      <path
         inkscape:connector-curvature="0"
         d="M -1.712e-6,1.8311e-4 720,1.8311e-4 720,540.00018 -1.712e-6,540.00018 l 0,-539.99999689 z"
         clip-rule="evenodd"
         id="path3482" />
    </clipPath>
    <clipPath
       clipPathUnits="userSpaceOnUse"
       id="clipPath3476">
      <path
         inkscape:connector-curvature="0"
         d="M -3.97e-7,1.8311e-4 720,1.8311e-4 720,540.00018 l -720.000000397,0 0,-539.99999689 z"
         clip-rule="evenodd"
         id="path3478" />
    </clipPath>
    <clipPath
       clipPathUnits="userSpaceOnUse"
       id="clipPath3720">
      <path
         inkscape:connector-curvature="0"
         d="M -1.866e-6,1.8311e-4 720,1.8311e-4 720,540.00018 l -720.000001866,0 0,-539.99999689 z"
         clip-rule="evenodd"
         id="path3722" />
    </clipPath>
    <clipPath
       clipPathUnits="userSpaceOnUse"
       id="clipPath3716">
      <path
         inkscape:connector-curvature="0"
         d="M -3.27e-7,1.8311e-4 720,1.8311e-4 720,540.00018 -3.27e-7,540.00018 l 0,-539.99999689 z"
         clip-rule="evenodd"
         id="path3718" />
    </clipPath>
    <clipPath
       clipPathUnits="userSpaceOnUse"
       id="clipPath3712">
      <path
         inkscape:connector-curvature="0"
         d="M 3.635e-6,1.8311e-4 720,1.8311e-4 720,540.00018 l -719.999996365,0 0,-539.99999689 z"
         clip-rule="evenodd"
         id="path3714" />
    </clipPath>
    <clipPath
       clipPathUnits="userSpaceOnUse"
       id="clipPath4024">
      <path
         inkscape:connector-curvature="0"
         d="M -3.27e-7,1.8311e-4 720,1.8311e-4 720,540.00018 -3.27e-7,540.00018 l 0,-539.99999689 z"
         clip-rule="evenodd"
         id="path4026" />
    </clipPath>
    <clipPath
       clipPathUnits="userSpaceOnUse"
       id="clipPath4020">
      <path
         inkscape:connector-curvature="0"
         d="M 5.61e-7,1.8311e-4 720,1.8311e-4 720,540.00018 5.61e-7,540.00018 l 0,-539.99999689 z"
         clip-rule="evenodd"
         id="path4022" />
    </clipPath>
    <clipPath
       clipPathUnits="userSpaceOnUse"
       id="clipPath4016">
      <path
         inkscape:connector-curvature="0"
         d="M 5.39e-7,2.4414e-4 720,2.4414e-4 720,540.00024 5.39e-7,540.00024 l 0,-539.99999586 z"
         clip-rule="evenodd"
         id="path4018" />
    </clipPath>
    <clipPath
       clipPathUnits="userSpaceOnUse"
       id="clipPath4172">
      <path
         inkscape:connector-curvature="0"
         d="M -8.71e-7,0 720,0 720,540 -8.71e-7,540 l 0,-540 z"
         clip-rule="evenodd"
         id="path4174" />
    </clipPath>
    <clipPath
       clipPathUnits="userSpaceOnUse"
       id="clipPath4176">
      <path
         inkscape:connector-curvature="0"
         d="m 0,0 361.12,0 0,186.9 L 0,186.9 0,0 z"
         id="path4178" />
    </clipPath>
  </defs>
  <sodipodi:namedview
     id="base"
     pagecolor="#ffffff"
     bordercolor="#666666"
     borderopacity="1.0"
     inkscape:pageopacity="0.0"
     inkscape:pageshadow="2"
     inkscape:zoom="7.9195959"
     inkscape:cx="93.982776"
     inkscape:cy="7.5473395"
     inkscape:document-units="px"
     inkscape:current-layer="layer1"
     showgrid="false"
     fit-margin-top="0"
     fit-margin-left="0"
     fit-margin-right="0"
     fit-margin-bottom="0"
     inkscape:window-width="1615"
     inkscape:window-height="1026"
     inkscape:window-x="65"
     inkscape:window-y="24"
     inkscape:window-maximized="1" />
  <metadata
     id="metadata36375">
    <rdf:RDF>
      <cc:Work
         rdf:about="">
        <dc:format>image/svg+xml</dc:format>
        <dc:type
           rdf:resource="http://purl.org/dc/dcmitype/StillImage" />
        <dc:title></dc:title>
      </cc:Work>
    </rdf:RDF>
  </metadata>
  <g
     inkscape:label="Layer 1"
     inkscape:groupmode="layer"
     id="layer1"
     transform="translate(-198.45631,-514.90387)">
    <path
       d="m 275.20965,542.63411 31.34722,0 0,-21.01298 -31.34722,0 0,21.01298 z"
       style="fill:#ffffff;fill-opacity:1;fill-rule:evenodd;stroke:none"
       id="path4214"
       inkscape:connector-curvature="0" />
    <path
       d="m 275.20965,542.63411 31.34722,0 0,-21.01298 -31.34722,0 0,21.01298 z"
       style="fill:none;stroke:#000000;stroke-width:0.12917814;stroke-linecap:butt;stroke-linejoin:miter;stroke-miterlimit:10;stroke-opacity:1;stroke-dasharray:none"
       id="path4216"
       inkscape:connector-curvature="0" />
    <path
       d="m 202.52542,541.60068 31.34723,0 0,-21.01297 -31.34723,0 0,21.01297 z"
       style="fill:#ffffff;fill-opacity:1;fill-rule:evenodd;stroke:none"
       id="path4218"
       inkscape:connector-curvature="0" />
    <path
       d="m 202.52542,541.60068 31.34723,0 0,-21.01297 -31.34723,0 0,21.01297 z"
       style="fill:none;stroke:#000000;stroke-width:0.12917814;stroke-linecap:butt;stroke-linejoin:miter;stroke-miterlimit:10;stroke-opacity:1;stroke-dasharray:none"
       id="path4220"
       inkscape:connector-curvature="0" />
    <text
       id="text4278"
       x="204.28639"
       y="524.23743"
       style="font-size:2.06685019px">
      <tspan
         style="font-size:3.10440874px;font-variant:normal;font-weight:normal;writing-mode:lr-tb;fill:#000000;fill-opacity:1;fill-rule:nonzero;stroke:none;font-family:Arial Black;-inkscape-font-specification:Arial"
         x="204.28639 206.52776 208.23517 209.95193 210.98572 211.66862 213.73932 214.41605 215.10521 216.65741"
         y="524.23743"
         sodipodi:role="line"
         id="tspan4280">Dear Alice</tspan>
    </text>
    <text
       id="text4282"
       x="204.28639"
       y="528.72247"
       style="font-size:2.06685019px">
      <tspan
         style="font-size:2.41821456px;font-variant:normal;font-weight:normal;writing-mode:lr-tb;fill:#000000;fill-opacity:1;fill-rule:nonzero;stroke:none;font-family:Arial Black;-inkscape-font-specification:Arial"
         x="204.28639 206.16776 207.51228 208.18939 208.80844 210.15297 211.4975 213.21198 213.89153 214.57108 215.21187 216.5564 217.90092 219.07616 220.42068 221.10023 223.10493 223.64174 224.85809 226.07452 227.41905 228.76358"
         y="528.72247"
         sodipodi:role="line"
         id="tspan4284">Oh, how I have missed</tspan>
    </text>
    <text
       id="text4286"
       x="204.28639"
       y="531.61609"
       style="font-size:2.06685019px">
      <tspan
         style="font-size:2.41821456px;font-variant:normal;font-weight:normal;writing-mode:lr-tb;fill:#000000;fill-opacity:1;fill-rule:nonzero;stroke:none;font-family:Arial Black;-inkscape-font-specification:Arial"
         x="204.28639 205.46407 206.80859 208.15312 208.83018 209.47102 210.15053 210.81314 211.49269 212.83722 213.37402 214.71855 215.93491 216.55396 217.89848 218.57803 219.21883 220.3965 221.74103 223.08556 223.76266 225.10719 225.64407 226.18088 226.84349 227.52296 228.86749 230.21202"
         y="531.61609"
         sodipodi:role="line"
         id="tspan4288">you. I think of you all the</tspan>
    </text>
    <text
       id="text4290"
       x="204.28639"
       y="534.5097"
       style="font-size:2.06685019px">
      <tspan
         style="font-size:2.41821456px;font-variant:normal;font-weight:normal;writing-mode:lr-tb;fill:#000000;fill-opacity:1;fill-rule:nonzero;stroke:none;font-family:Arial Black;-inkscape-font-specification:Arial"
         x="204.28639 204.9659 205.50275 207.50745 208.85197 209.47102 210.13359 212.5518 213.35709 214.70161 215.23849 216.58302 217.92755 218.5659 219.91043 220.44731 221.79184 223.13637 223.7748 225.11932 225.65613 227.00066 228.34518"
         y="534.5097"
         sodipodi:role="line"
         id="tspan4292">time! …(blah blah blah)</tspan>
    </text>
    <text
       id="text4294"
       x="204.28639"
       y="539.9455"
       style="font-size:2.06685019px">
      <tspan
         style="font-size:3.10027504px;font-variant:normal;font-weight:normal;writing-mode:lr-tb;fill:#000000;fill-opacity:1;fill-rule:nonzero;stroke:none;font-family:Arial Black;-inkscape-font-specification:Arial"
         x="204.28639 206.35426 208.0687"
         y="539.9455"
         sodipodi:role="line"
         id="tspan4296">Bob</tspan>
    </text>
    <path
       d="m 198.45631,520.28629 37.09479,0 0,-5.38242 -37.09479,0 0,5.38242 z"
       style="fill:#ffffff;fill-opacity:1;fill-rule:evenodd;stroke:none"
       id="path4298"
       inkscape:connector-curvature="0" />
    <text
       id="text4300"
       x="202.37248"
       y="518.92218"
       style="font-size:2.06685019px">
      <tspan
         style="font-size:3.45163965px;font-variant:normal;font-weight:normal;writing-mode:lr-tb;fill:#c00000;fill-opacity:1;fill-rule:nonzero;stroke:none;font-family:Arial Black;-inkscape-font-specification:Arial"
         x="202.37248 204.67473 206.59383"
         y="518.92218"
         sodipodi:role="line"
         id="tspan4302">Bob</tspan>
    </text>
    <text
       id="text4304"
       x="208.51067"
       y="518.92218"
       style="font-size:2.06685019px">
      <tspan
         style="font-size:3.45163965px;font-variant:normal;font-weight:normal;writing-mode:lr-tb;fill:#c00000;fill-opacity:1;fill-rule:nonzero;stroke:none;font-family:MS PGothic;-inkscape-font-specification:MS PGothic"
         x="208.51067"
         y="518.92218"
         id="tspan4306">’</tspan>
    </text>
    <text
       id="text4308"
       x="210.24681"
       y="518.92218"
       style="font-size:2.06685019px">
      <tspan
         style="font-size:3.45163965px;font-variant:normal;font-weight:normal;writing-mode:lr-tb;fill:#c00000;fill-opacity:1;fill-rule:nonzero;stroke:none;font-family:Arial Black;-inkscape-font-specification:Arial"
         x="210.24681 211.97266 212.8701 215.74532 217.66441 219.39713 221.12297 223.05244 224.97154 226.89064 227.85019 228.73726"
         y="518.92218"
         sodipodi:role="line"
         id="tspan4310">s message, m</tspan>
    </text>
    <path
       d="m 245.77942,539.92137 19.22515,0 0,-14.68325 -19.22515,0 0,14.68325 z"
       style="fill:#008000;fill-opacity:1;fill-rule:evenodd;stroke:none"
       id="path4312"
       inkscape:connector-curvature="0" />
    <path
       d="m 245.77942,539.92137 19.22515,0 0,-14.68325 -19.22515,0 0,14.68325 z"
       style="fill:none;stroke:#000000;stroke-width:0.12917814;stroke-linecap:butt;stroke-linejoin:miter;stroke-miterlimit:10;stroke-opacity:1;stroke-dasharray:none"
       id="path4314"
       inkscape:connector-curvature="0" />
    <text
       id="text4316"
       x="247.73949"
       y="529.69049"
       style="font-size:2.06685019px">
      <tspan
         style="font-size:3.45163965px;font-variant:normal;font-weight:normal;writing-mode:lr-tb;fill:#ffffff;fill-opacity:1;fill-rule:nonzero;stroke:none;font-family:Arial Black;-inkscape-font-specification:Arial"
         x="247.73949 250.04173 251.96083 253.87994 254.64624 255.41245 257.13831 258.07373 259.7995 261.72897"
         y="529.69049"
         sodipodi:role="line"
         id="tspan4318">Public key</tspan>
    </text>
    <text
       id="text4320"
       x="247.63618"
       y="533.82764"
       style="font-size:2.06685019px">
      <tspan
         style="font-size:3.45577288px;font-variant:normal;font-weight:normal;writing-mode:lr-tb;fill:#ffffff;fill-opacity:1;fill-rule:nonzero;stroke:none;font-family:Arial Black;-inkscape-font-specification:Arial"
         x="247.63618 249.55757 251.47896 253.20688 254.37149 256.08551 258.0069 258.96768 259.72443 261.6459"
         y="533.82764"
         sodipodi:role="line"
         id="tspan4322">encryption</tspan>
    </text>
    <text
       id="text4324"
       x="248.50426"
       y="537.9613"
       style="font-size:2.06685019px">
      <tspan
         style="font-size:3.45163965px;font-variant:normal;font-weight:normal;writing-mode:lr-tb;fill:#ffffff;fill-opacity:1;fill-rule:nonzero;stroke:none;font-family:Arial Black;-inkscape-font-specification:Arial"
         x="248.50426 250.42336 251.18958 253.10876 255.02786 256.19104 256.95734 257.91687 259.83597"
         y="537.9613"
         sodipodi:role="line"
         id="tspan4326">algorithm</tspan>
    </text>
    <path
       d="m 235.85337,531.26643 7.85748,0 0,0.51671 -7.85748,0 0,-0.51671 z m 7.59913,-0.51671 1.55013,0.77508 -1.55013,0.77506 0,-1.55014 z"
       style="fill:#000000;fill-opacity:1;fill-rule:nonzero;stroke:none"
       id="path4328"
       inkscape:connector-curvature="0" />
    <text
       id="text4330"
       x="257.4296"
       y="517.92664"
       style="font-size:2.06685019px">
      <tspan
         style="font-size:3.10027504px;font-variant:normal;font-weight:normal;writing-mode:lr-tb;fill:#000000;fill-opacity:1;fill-rule:nonzero;stroke:none;font-family:Arial Black;-inkscape-font-specification:Arial"
         x="257.4296 259.49747 261.21194"
         y="517.92664"
         sodipodi:role="line"
         id="tspan4332">Bob</tspan>
    </text>
    <text
       id="text4334"
       x="262.9274"
       y="517.92664"
       style="font-size:2.06685019px">
      <tspan
         style="font-size:3.10027504px;font-variant:normal;font-weight:normal;writing-mode:lr-tb;fill:#000000;fill-opacity:1;fill-rule:nonzero;stroke:none;font-family:MS PGothic;-inkscape-font-specification:MS PGothic"
         x="262.9274"
         y="517.92664"
         id="tspan4336">’</tspan>
    </text>
    <text
       id="text4338"
       x="264.47754"
       y="517.92664"
       style="font-size:2.06685019px">
      <tspan
         style="font-size:3.10027504px;font-variant:normal;font-weight:normal;writing-mode:lr-tb;fill:#000000;fill-opacity:1;fill-rule:nonzero;stroke:none;font-family:Arial Black;-inkscape-font-specification:Arial"
         x="264.47754 266.02768 266.87408 268.59781 269.63022 270.30609 271.85617 273.57996 274.44183"
         y="517.92664"
         sodipodi:role="line"
         id="tspan4340">s private</tspan>
    </text>
    <text
       id="text4342"
       x="257.4296"
       y="521.62634"
       style="font-size:2.06685019px">
      <tspan
         style="font-size:3.10027504px;font-variant:normal;font-weight:normal;writing-mode:lr-tb;fill:#000000;fill-opacity:1;fill-rule:nonzero;stroke:none;font-family:Arial Black;-inkscape-font-specification:Arial"
         x="257.4296 258.97974 260.70343 262.20398"
         y="521.62634"
         sodipodi:role="line"
         id="tspan4344">key</tspan>
    </text>
    <g
       id="g4348"
       clip-path="url(#clipPath4172)"
       transform="matrix(0.1722375,0,0,-0.1722375,189.60761,563.17343)">
      <g
         id="g4350"
         transform="matrix(-0.50174,0,0,-0.25868,352.25,269.75)">
        <g
           id="g4352"
           transform="scale(0.19938,0.38524)">
          <g
             id="g4354"
             clip-path="url(#clipPath4176)">
            <g
               id="g4356">
              <g
                 id="g4358">
                <g
                   id="g4360" />
              </g>
              <path
                 inkscape:connector-curvature="0"
                 id="path4362"
                 style="fill:#ffcc00;fill-opacity:1;fill-rule:evenodd;stroke:none"
                 d="m 314.78,86.105 -9.63,-13.909 33.99,-36.14 13.42,18.308 -37.78,31.741 z" />
              <path
                 inkscape:connector-curvature="0"
                 id="path4364"
                 style="fill:#ffcc00;fill-opacity:1;fill-rule:evenodd;stroke:none"
                 d="M 341.99,42.238 285.9,11.329 225.18,44.854 197.97,28.567 189.29,53.056 161.13,39.147 142.95,52.105 98.509,33.917 71.772,50.679 43.016,42.476 6.1791,67.441 12.833,81.35 l 167.427,24.37 1.9,36.85 25.79,-12.95 56.44,48.5 42.19,-2.02 41.59,-46.48 -1.67,-78.585 -33.27,30.077 6.66,22.228 -9.04,9.63 -6.77,6.18 -8.08,3.81 -11.05,-1.9 -15.69,-15.34 -7.72,-27.817 18.18,-15.812 30.18,13.434 32.09,-33.287 z" />
              <path
                 inkscape:connector-curvature="0"
                 id="path4366"
                 style="fill:#000000;fill-opacity:1;fill-rule:evenodd;stroke:none"
                 d="m 181.81,58.049 -4.28,-2.972 4.28,-13.314 4.99,-14.742 3.09,-3.804 6.18,-1.783 5.82,0.832 5.58,3.091 5.47,4.161 5.59,3.923 3.44,-3.923 5.59,-4.518 3.44,-2.496 3.92,-2.497 4.28,-2.377 4.64,-2.378 4.87,-2.377 5.23,-2.14 10.93,-3.9234 11.64,-2.8531 11.89,-1.4266 23.41,1.9021 10.93,4.2797 5.23,3.2103 4.87,3.804 4.63,4.517 4.28,5.35 3.8,6.063 3.45,7.014 5.58,16.762 3.45,20.685 0.59,17.476 -1.66,16.405 -1.66,7.85 -2.14,7.49 -2.62,7.01 -3.09,6.78 -3.44,6.42 -3.8,5.94 -4.16,5.59 -4.64,5.11 -4.75,4.64 -5.11,4.16 -5.47,3.68 -5.58,3.09 -5.82,2.62 -5.95,2.02 -12.35,2.38 -12.84,-0.24 -12.83,-2.85 -12.95,-5.59 -6.3,-3.92 -6.3,-4.64 -6.18,-5.47 -6.06,-6.18 -2.85,-3.45 -2.97,-3.68 -5.59,-7.85 -2.25,-2.5 -2.86,-0.35 -7.01,3.33 -4.04,2.49 -4.27,2.38 -4.52,1.54 -4.75,0.12 -4.99,-2.02 -4.4,-34.47 -5.35,-14.982 14.74,0.238 8.2,1.189 -2.26,15.815 -1.07,15.57 3.68,2.14 3.33,-0.24 6.06,-4.64 2.85,-2.97 2.85,-2.61 2.97,-1.31 3.21,0.48 8.68,7.01 2.73,3.45 2.97,3.8 3.21,4.16 3.56,4.4 3.93,4.52 4.15,4.4 4.52,4.28 4.99,4.04 5.23,3.56 5.58,3.1 6.06,2.49 6.54,1.67 20.08,-2.02 9.03,-3.81 8.2,-5.59 7.49,-6.89 3.33,-3.92 3.2,-4.17 5.59,-9.03 4.63,-9.87 6.06,-20.8 1.43,-21.162 -1.19,-10.105 -2.49,-9.511 -1.79,-4.398 -2.14,-4.161 -2.49,-4.042 -2.85,-3.566 -2.38,-3.21 -2.49,-2.853 -5.47,-5.231 -2.85,-2.259 -2.85,-2.021 -6.18,-3.447 -6.42,-2.616 -6.54,-1.664 -13.42,-0.951 -13.31,2.259 -12.6,5.468 -5.94,3.804 -5.47,4.637 -5.11,5.349 -4.51,6.182 -5.11,2.853 -4.52,0 -7.6,-5.587 -3.33,-4.042 -3.33,-3.804 -3.32,-2.853 -3.33,-1.189 -3.92,7.133 -1.9,8.559 -1.43,3.804 -2.02,2.853 -3.33,1.427 -4.87,-0.476 -4.51,-2.021 z" />
              <path
                 inkscape:connector-curvature="0"
                 id="path4368"
                 style="fill:#000000;fill-opacity:1;fill-rule:evenodd;stroke:none"
                 d="m 181.81,96.686 5.23,1.545 -1.79,30.199 2.14,18.07 -5.58,1.42 -0.95,-0.12 -6.78,-3.21 -3.8,-4.87 -1.54,-12.36 1.07,-11.42 -0.48,-3.68 -2.26,-1.43 -11.17,-1.9 -17.11,-2.38 L 117.52,103.7 93.874,100.61 69.633,97.161 46.462,93.476 26.261,89.553 10.695,85.749 3.0895,81.469 0,75.525 0.35648,68.392 1.7824,64.588 3.8025,60.665 6.4167,56.861 9.5063,53.056 13.071,49.49 l 3.684,-3.329 4.04,-2.972 4.04,-2.615 4.04,-2.14 3.922,-1.664 9.031,-1.665 8.436,1.784 8.081,3.447 7.961,3.448 7.249,-3.686 6.06,-3.209 5.109,-2.497 4.278,-2.14 6.774,-2.496 5.224,-0.595 11.17,3.686 8.44,3.804 5.59,2.377 6.53,2.735 5.82,-3.091 4.99,-2.259 7.97,-2.972 10.1,-0.357 7.84,4.399 4.87,3.091 6.77,3.21 0.72,-2.021 3.68,-5.825 3.33,23.895 -7.01,-1.784 -18.54,-8.559 -6.65,2.496 -6.06,4.518 -3.09,2.021 -3.09,1.427 -7.01,-0.595 -9.15,-3.566 -4.16,-3.448 -4.04,-3.447 -4.04,-2.854 -4.28,-1.545 -4.64,0.475 -5.22,3.21 -7.728,5.825 -6.417,3.686 -10.813,1.783 -11.051,-2.972 -6.773,-2.497 -8.318,-2.615 -15.567,3.21 -9.625,5.35 -4.278,6.657 -0.475,3.804 0.475,4.042 7.011,2.497 8.08,2.258 9.031,2.14 9.982,1.902 21.745,3.21 23.291,2.734 45.51,4.161 35.89,3.329 z" />
              <path
                 inkscape:connector-curvature="0"
                 id="path4370"
                 style="fill:#000000;fill-opacity:1;fill-rule:evenodd;stroke:none"
                 d="M 225.42,71.721 186.2,69.938 134.04,67.56 40.283,61.854 l -0.119,3.091 1.664,1.545 2.851,1.664 8.437,3.448 11.645,3.447 14.379,3.329 16.398,3.21 17.702,2.734 18.3,2.259 36.25,2.615 31.25,-0.951 20.91,-5.468 4.99,-4.756 0.48,-6.3 z" />
              <path
                 inkscape:connector-curvature="0"
                 id="path4372"
                 style="fill:#000000;fill-opacity:1;fill-rule:evenodd;stroke:none"
                 d="m 296.71,126.64 -0.35,-2.25 -1.9,-2.74 -3.21,-3.09 -3.8,-3.57 -3.93,-3.92 -3.8,-4.52 -4.87,-10.34 0.36,-12.126 2.37,-4.279 3.57,-2.735 9.5,-0.832 11.29,6.539 5.94,6.776 3.81,7.133 0.47,5.824 -1.31,1.9 -2.61,0.95 -2.61,-2.85 -2.62,-1.19 -4.39,2.02 -0.96,5.71 1.67,3.45 3.56,3.44 3.57,1.91 3.21,0.59 5.82,-2.5 4.16,-6.18 2.37,-8.68 0.36,-4.989 -0.36,-5.23 -2.73,-10.462 -2.49,-4.993 -3.45,-4.636 -4.16,-4.161 -5.23,-3.448 -6.18,-3.091 -5.58,-2.139 -9.98,-1.903 -8.32,0.833 -6.54,3.209 -8.31,11.651 -2.38,16.049 0.83,4.874 2.26,6.419 3.44,7.017 4.64,6.89 2.73,3.33 2.97,2.97 3.33,2.62 3.45,2.14 7.84,2.73 8.55,-0.12 z" />
            </g>
          </g>
        </g>
      </g>
    </g>
    <text
       id="text4374"
       x="251.74919"
       y="519.39758"
       style="font-size:2.06685019px">
      <tspan
         style="font-size:3.45163965px;font-variant:normal;font-weight:normal;writing-mode:lr-tb;fill:#c00000;fill-opacity:1;fill-rule:nonzero;stroke:none;font-family:Arial Black;-inkscape-font-specification:Arial"
         x="251.74919 254.04337"
         y="519.39758"
         sodipodi:role="line"
         id="tspan4376">K</tspan>
    </text>
    <text
       id="text4378"
       x="254.59283"
       y="520.82715"
       style="font-size:2.06685019px">
      <tspan
         style="font-size:2.75304437px;font-variant:normal;font-weight:normal;writing-mode:lr-tb;fill:#c00000;fill-opacity:1;fill-rule:nonzero;stroke:none;font-family:Arial Black;-inkscape-font-specification:Arial"
         x="254.59283"
         y="520.82715"
         id="tspan4380">B</tspan>
    </text>
    <text
       id="text4382"
       x="254.87527"
       y="516.88464"
       style="font-size:2.06685019px">
      <tspan
         style="font-size:2.74891043px;font-variant:normal;font-weight:normal;writing-mode:lr-tb;fill:#c00000;fill-opacity:1;fill-rule:nonzero;stroke:none;font-family:Arial Black;-inkscape-font-specification:Arial"
         x="254.87527"
         y="516.88464"
         id="tspan4384">-</tspan>
    </text>
    <path
       d="m 250.75192,518.77749 10e-4,0.51672 -0.51671,10e-4 -0.001,-0.51672 0.51671,-0.001 z m 0.004,1.03343 0.001,0.51671 -0.51661,10e-4 -0.001,-0.51671 0.51671,-10e-4 z m 0.004,1.03342 0.001,0.51672 -0.51671,0.001 -0.001,-0.51672 0.51671,-10e-4 z m 0.004,1.03343 10e-4,0.51671 -0.51661,10e-4 -0.001,-0.51671 0.51671,-10e-4 z m 0.004,1.03342 0.001,0.51672 -0.51671,10e-4 -0.001,-0.51672 0.51671,-10e-4 z m 0.51844,0.68723 -0.7699,1.55359 -0.78024,-1.5467 1.55014,-0.008 z"
       style="fill:#000000;fill-opacity:1;fill-rule:nonzero;stroke:none"
       id="path4386"
       inkscape:connector-curvature="0" />
    <path
       d="m 265.47822,531.26643 7.85748,0 0,0.51671 -7.85748,0 0,-0.51671 z m 7.59913,-0.51671 1.55013,0.77508 -1.55013,0.77506 0,-1.55014 z"
       style="fill:#000000;fill-opacity:1;fill-rule:nonzero;stroke:none"
       id="path4388"
       inkscape:connector-curvature="0" />
    <text
       id="text4390"
       x="280.32166"
       y="526.60742"
       style="font-size:2.06685019px">
      <tspan
         style="font-size:3.10027504px;font-variant:normal;font-weight:normal;writing-mode:lr-tb;fill:#000000;fill-opacity:1;fill-rule:nonzero;stroke:none;font-family:Arial Black;-inkscape-font-specification:Arial"
         x="280.32166 282.38953 284.104"
         y="526.60742"
         sodipodi:role="line"
         id="tspan4392">Bob</tspan>
    </text>
    <text
       id="text4394"
       x="285.82291"
       y="526.60742"
       style="font-size:2.06685019px">
      <tspan
         style="font-size:3.10027504px;font-variant:normal;font-weight:normal;writing-mode:lr-tb;fill:#000000;fill-opacity:1;fill-rule:nonzero;stroke:none;font-family:Arial Black;-inkscape-font-specification:Arial Unicode MS"
         x="285.82291"
         y="526.60742"
         id="tspan4396">’</tspan>
    </text>
    <text
       id="text4398"
       x="286.50497"
       y="526.60742"
       style="font-size:2.06685019px">
      <tspan
         style="font-size:3.10027504px;font-variant:normal;font-weight:normal;writing-mode:lr-tb;fill:#000000;fill-opacity:1;fill-rule:nonzero;stroke:none;font-family:Arial Black;-inkscape-font-specification:Arial"
         x="286.50497 288.05511 288.91702 291.49957 293.22327 294.77341 296.32355 298.03802 299.76175 301.47003 302.33194"
         y="526.60742"
         sodipodi:role="line"
         id="tspan4400">s message,</tspan>
    </text>
    <text
       id="text4402"
       x="284.64487"
       y="530.36908"
       style="font-size:2.06685019px">
      <tspan
         style="font-size:3.10027504px;font-variant:normal;font-weight:normal;writing-mode:lr-tb;fill:#000000;fill-opacity:1;fill-rule:nonzero;stroke:none;font-family:Arial Black;-inkscape-font-specification:Arial"
         x="284.64487 287.22733 288.08923 288.92319 290.47333 291.16159 292.86987 294.5936 296.30188 298.0256"
         y="530.36908"
         sodipodi:role="line"
         id="tspan4404">m, signed</tspan>
    </text>
    <text
       id="text4406"
       x="280.34235"
       y="534.08942"
       style="font-size:2.06685019px">
      <tspan
         style="font-size:3.10027504px;font-variant:normal;font-weight:normal;writing-mode:lr-tb;fill:#000000;fill-opacity:1;fill-rule:nonzero;stroke:none;font-family:Arial Black;-inkscape-font-specification:Arial"
         x="280.34235 281.37476 283.09845 284.80676 286.3569 287.38922 288.89908 290.62286 291.48468 293.19916 294.92294 295.95529 296.8544 299.0246 299.71283 300.57474 302.29852"
         y="534.08942"
         sodipodi:role="line"
         id="tspan4408">(encrypted) with</tspan>
    </text>
    <text
       id="text4410"
       x="281.45844"
       y="537.81323"
       style="font-size:2.06685019px">
      <tspan
         style="font-size:3.10440874px;font-variant:normal;font-weight:normal;writing-mode:lr-tb;fill:#000000;fill-opacity:1;fill-rule:nonzero;stroke:none;font-family:Arial Black;-inkscape-font-specification:Arial"
         x="281.45844 283.1752 283.86438 285.41656 286.25473 287.9715 289.00528 289.69446 291.23734 292.95404 293.81708 295.54315 296.4248 297.97699 299.69061"
         y="537.81323"
         sodipodi:role="line"
         id="tspan4412">his private key</tspan>
    </text>
    <text
       id="text4414"
       x="283.94211"
       y="519.91425"
       style="font-size:2.06685019px">
      <tspan
         style="font-size:3.45163965px;font-variant:normal;font-weight:normal;writing-mode:lr-tb;fill:#c00000;fill-opacity:1;fill-rule:nonzero;stroke:none;font-family:Arial Black;-inkscape-font-specification:Arial"
         x="283.94211 286.81732 287.76651 290.06876"
         y="519.91425"
         sodipodi:role="line"
         id="tspan4416">m,K</tspan>
    </text>
    <text
       id="text4418"
       x="290.63867"
       y="521.34387"
       style="font-size:2.06685019px">
      <tspan
         style="font-size:2.74891043px;font-variant:normal;font-weight:normal;writing-mode:lr-tb;fill:#c00000;fill-opacity:1;fill-rule:nonzero;stroke:none;font-family:Arial Black;-inkscape-font-specification:Arial"
         x="290.63867"
         y="521.34387"
         id="tspan4420">B</tspan>
    </text>
    <text
       id="text4422"
       x="290.74722"
       y="517.27216"
       style="font-size:2.06685019px">
      <tspan
         style="font-size:2.74891043px;font-variant:normal;font-weight:normal;writing-mode:lr-tb;fill:#c00000;fill-opacity:1;fill-rule:nonzero;stroke:none;font-family:Arial Black;-inkscape-font-specification:Arial"
         x="290.74722"
         y="517.27216"
         id="tspan4424">-</tspan>
    </text>
    <text
       id="text4426"
       x="292.20261"
       y="519.50433"
       style="font-size:2.06685019px">
      <tspan
         style="font-size:3.45163965px;font-variant:normal;font-weight:normal;writing-mode:lr-tb;fill:#c00000;fill-opacity:1;fill-rule:nonzero;stroke:none;font-family:Arial Black;-inkscape-font-specification:Arial"
         x="292.20261 293.35199 296.2272"
         y="519.50433"
         sodipodi:role="line"
         id="tspan4428">(m)</tspan>
    </text>
  </g>
</svg>
