<?xml version="1.0" encoding="UTF-8" standalone="no"?>
<!-- Created with Inkscape (http://www.inkscape.org/) -->

<svg
   xmlns:dc="http://purl.org/dc/elements/1.1/"
   xmlns:cc="http://creativecommons.org/ns#"
   xmlns:rdf="http://www.w3.org/1999/02/22-rdf-syntax-ns#"
   xmlns:svg="http://www.w3.org/2000/svg"
   xmlns="http://www.w3.org/2000/svg"
   xmlns:sodipodi="http://sodipodi.sourceforge.net/DTD/sodipodi-0.dtd"
   xmlns:inkscape="http://www.inkscape.org/namespaces/inkscape"
   width="40.3125"
   height="25.59375"
   id="svg36370"
   version="1.1"
   inkscape:version="0.48.3.1 r9886"
   sodipodi:docname="AssinaturaDigital.svg">
  <defs
     id="defs36372">
    <clipPath
       clipPathUnits="userSpaceOnUse"
       id="clipPath344">
      <path
         inkscape:connector-curvature="0"
         d="M 9.99e-7,6.104e-6 720,6.104e-6 720,540.00001 9.99e-7,540.00001 9.99e-7,6.104e-6 z"
         clip-rule="evenodd"
         id="path346" />
    </clipPath>
    <clipPath
       clipPathUnits="userSpaceOnUse"
       id="clipPath348">
      <path
         inkscape:connector-curvature="0"
         d="m 0,0 361.12,0 0,186.9 L 0,186.9 0,0 z"
         id="path350" />
    </clipPath>
    <clipPath
       clipPathUnits="userSpaceOnUse"
       id="clipPath496">
      <path
         inkscape:connector-curvature="0"
         d="M -4.349e-6,1.8311e-4 720,1.8311e-4 720,540.00018 l -720.000004349,0 0,-539.99999689 z"
         clip-rule="evenodd"
         id="path498" />
    </clipPath>
    <clipPath
       clipPathUnits="userSpaceOnUse"
       id="clipPath646">
      <path
         inkscape:connector-curvature="0"
         d="M 3.229e-6,6.104e-6 720,6.104e-6 720,540.00001 3.229e-6,540.00001 3.229e-6,6.104e-6 z"
         clip-rule="evenodd"
         id="path648" />
    </clipPath>
    <clipPath
       clipPathUnits="userSpaceOnUse"
       id="clipPath650">
      <path
         inkscape:connector-curvature="0"
         d="m 0,0 361.12,0 0,186.9 L 0,186.9 0,0 z"
         id="path652" />
    </clipPath>
    <clipPath
       clipPathUnits="userSpaceOnUse"
       id="clipPath638">
      <path
         inkscape:connector-curvature="0"
         d="M -1.459e-6,6.104e-6 720,6.104e-6 720,540.00001 -1.459e-6,540.00001 -1.459e-6,6.104e-6 z"
         clip-rule="evenodd"
         id="path640" />
    </clipPath>
    <clipPath
       clipPathUnits="userSpaceOnUse"
       id="clipPath642">
      <path
         inkscape:connector-curvature="0"
         d="m 0,0 361.12,0 0,186.9 L 0,186.9 0,0 z"
         id="path644" />
    </clipPath>
    <clipPath
       clipPathUnits="userSpaceOnUse"
       id="clipPath634">
      <path
         inkscape:connector-curvature="0"
         d="M -2.855e-6,1.8311e-4 720,1.8311e-4 720,540.00018 l -720.000002855,0 0,-539.99999689 z"
         clip-rule="evenodd"
         id="path636" />
    </clipPath>
    <clipPath
       clipPathUnits="userSpaceOnUse"
       id="clipPath630">
      <path
         inkscape:connector-curvature="0"
         d="M -8.02e-7,1.8311e-4 720,1.8311e-4 720,540.00018 -8.02e-7,540.00018 l 0,-539.99999689 z"
         clip-rule="evenodd"
         id="path632" />
    </clipPath>
    <clipPath
       clipPathUnits="userSpaceOnUse"
       id="clipPath1214">
      <path
         inkscape:connector-curvature="0"
         d="M -2.332e-6,1.2207e-4 720,1.2207e-4 720,540.00012 l -720.000002332,0 0,-539.99999793 z"
         clip-rule="evenodd"
         id="path1216" />
    </clipPath>
    <clipPath
       clipPathUnits="userSpaceOnUse"
       id="clipPath1210">
      <path
         inkscape:connector-curvature="0"
         d="M 1.03e-6,1.8311e-4 720,1.8311e-4 720,540.00018 1.03e-6,540.00018 l 0,-539.99999689 z"
         clip-rule="evenodd"
         id="path1212" />
    </clipPath>
    <clipPath
       clipPathUnits="userSpaceOnUse"
       id="clipPath1206">
      <path
         inkscape:connector-curvature="0"
         d="M -1.84e-7,1.8311e-4 720,1.8311e-4 720,540.00018 -1.84e-7,540.00018 l 0,-539.99999689 z"
         clip-rule="evenodd"
         id="path1208" />
    </clipPath>
    <clipPath
       clipPathUnits="userSpaceOnUse"
       id="clipPath1386">
      <path
         inkscape:connector-curvature="0"
         d="M -2.329e-6,1.8311e-4 720,1.8311e-4 720,540.00018 l -720.000002329,0 0,-539.99999689 z"
         clip-rule="evenodd"
         id="path1388" />
    </clipPath>
    <clipPath
       clipPathUnits="userSpaceOnUse"
       id="clipPath1382">
      <path
         inkscape:connector-curvature="0"
         d="M 1.03e-6,1.8311e-4 720,1.8311e-4 720,540.00018 1.03e-6,540.00018 l 0,-539.99999689 z"
         clip-rule="evenodd"
         id="path1384" />
    </clipPath>
    <clipPath
       clipPathUnits="userSpaceOnUse"
       id="clipPath1378">
      <path
         inkscape:connector-curvature="0"
         d="M -1.84e-7,1.8311e-4 720,1.8311e-4 720,540.00018 -1.84e-7,540.00018 l 0,-539.99999689 z"
         clip-rule="evenodd"
         id="path1380" />
    </clipPath>
    <clipPath
       clipPathUnits="userSpaceOnUse"
       id="clipPath1758">
      <path
         inkscape:connector-curvature="0"
         d="m -5.996e-6,1.8311e-4 719.999995996,0 0,539.99999689 -719.999995996,0 0,-539.99999689 z"
         clip-rule="evenodd"
         id="path1760" />
    </clipPath>
    <clipPath
       clipPathUnits="userSpaceOnUse"
       id="clipPath1754">
      <path
         inkscape:connector-curvature="0"
         d="M 1.03e-6,1.8311e-4 720,1.8311e-4 720,540.00018 1.03e-6,540.00018 l 0,-539.99999689 z"
         clip-rule="evenodd"
         id="path1756" />
    </clipPath>
    <clipPath
       clipPathUnits="userSpaceOnUse"
       id="clipPath1750">
      <path
         inkscape:connector-curvature="0"
         d="m 0,1.8311e-4 720,0 0,539.99999689 -720,0 L 0,1.8311e-4 z"
         clip-rule="evenodd"
         id="path1752" />
    </clipPath>
    <clipPath
       clipPathUnits="userSpaceOnUse"
       id="clipPath1958">
      <path
         inkscape:connector-curvature="0"
         d="M -1.795e-6,1.8311e-4 720,1.8311e-4 720,540.00018 l -720.000001795,0 0,-539.99999689 z"
         clip-rule="evenodd"
         id="path1960" />
    </clipPath>
    <clipPath
       clipPathUnits="userSpaceOnUse"
       id="clipPath1954">
      <path
         inkscape:connector-curvature="0"
         d="M -6.68e-7,1.8311e-4 720,1.8311e-4 720,540.00018 -6.68e-7,540.00018 l 0,-539.99999689 z"
         clip-rule="evenodd"
         id="path1956" />
    </clipPath>
    <clipPath
       clipPathUnits="userSpaceOnUse"
       id="clipPath1950">
      <path
         inkscape:connector-curvature="0"
         d="m 0,1.8311e-4 720,0 0,539.99999689 -720,0 L 0,1.8311e-4 z"
         clip-rule="evenodd"
         id="path1952" />
    </clipPath>
    <clipPath
       clipPathUnits="userSpaceOnUse"
       id="clipPath2206">
      <path
         inkscape:connector-curvature="0"
         d="M -1.645e-6,2.4414e-4 720,2.4414e-4 720,540.00024 -1.645e-6,540.00024 l 0,-539.99999586 z"
         clip-rule="evenodd"
         id="path2208" />
    </clipPath>
    <clipPath
       clipPathUnits="userSpaceOnUse"
       id="clipPath2210">
      <path
         inkscape:connector-curvature="0"
         d="m 0,0 352.7,0 0,273.15 L 0,273.15 0,0 z"
         id="path2212" />
    </clipPath>
    <clipPath
       clipPathUnits="userSpaceOnUse"
       id="clipPath2202">
      <path
         inkscape:connector-curvature="0"
         d="M -1.795e-6,1.8311e-4 720,1.8311e-4 720,540.00018 l -720.000001795,0 0,-539.99999689 z"
         clip-rule="evenodd"
         id="path2204" />
    </clipPath>
    <clipPath
       clipPathUnits="userSpaceOnUse"
       id="clipPath2198">
      <path
         inkscape:connector-curvature="0"
         d="M -6.68e-7,1.8311e-4 720,1.8311e-4 720,540.00018 -6.68e-7,540.00018 l 0,-539.99999689 z"
         clip-rule="evenodd"
         id="path2200" />
    </clipPath>
    <clipPath
       clipPathUnits="userSpaceOnUse"
       id="clipPath2194">
      <path
         inkscape:connector-curvature="0"
         d="m 0,1.8311e-4 720,0 0,539.99999689 -720,0 L 0,1.8311e-4 z"
         clip-rule="evenodd"
         id="path2196" />
    </clipPath>
    <clipPath
       clipPathUnits="userSpaceOnUse"
       id="clipPath2610">
      <path
         inkscape:connector-curvature="0"
         d="M -1.795e-6,1.8311e-4 720,1.8311e-4 720,540.00018 l -720.000001795,0 0,-539.99999689 z"
         clip-rule="evenodd"
         id="path2612" />
    </clipPath>
    <clipPath
       clipPathUnits="userSpaceOnUse"
       id="clipPath2606">
      <path
         inkscape:connector-curvature="0"
         d="M -6.68e-7,1.8311e-4 720,1.8311e-4 720,540.00018 -6.68e-7,540.00018 l 0,-539.99999689 z"
         clip-rule="evenodd"
         id="path2608" />
    </clipPath>
    <clipPath
       clipPathUnits="userSpaceOnUse"
       id="clipPath2602">
      <path
         inkscape:connector-curvature="0"
         d="m 0,1.8311e-4 720,0 0,539.99999689 -720,0 L 0,1.8311e-4 z"
         clip-rule="evenodd"
         id="path2604" />
    </clipPath>
    <clipPath
       clipPathUnits="userSpaceOnUse"
       id="clipPath2854">
      <path
         inkscape:connector-curvature="0"
         d="M -1.645e-6,2.4414e-4 720,2.4414e-4 720,540.00024 -1.645e-6,540.00024 l 0,-539.99999586 z"
         clip-rule="evenodd"
         id="path2856" />
    </clipPath>
    <clipPath
       clipPathUnits="userSpaceOnUse"
       id="clipPath2858">
      <path
         inkscape:connector-curvature="0"
         d="m 0,0 352.7,0 0,273.15 L 0,273.15 0,0 z"
         id="path2860" />
    </clipPath>
    <clipPath
       clipPathUnits="userSpaceOnUse"
       id="clipPath2850">
      <path
         inkscape:connector-curvature="0"
         d="M -1.795e-6,1.8311e-4 720,1.8311e-4 720,540.00018 l -720.000001795,0 0,-539.99999689 z"
         clip-rule="evenodd"
         id="path2852" />
    </clipPath>
    <clipPath
       clipPathUnits="userSpaceOnUse"
       id="clipPath2846">
      <path
         inkscape:connector-curvature="0"
         d="M -6.68e-7,1.8311e-4 720,1.8311e-4 720,540.00018 -6.68e-7,540.00018 l 0,-539.99999689 z"
         clip-rule="evenodd"
         id="path2848" />
    </clipPath>
    <clipPath
       clipPathUnits="userSpaceOnUse"
       id="clipPath2842">
      <path
         inkscape:connector-curvature="0"
         d="m 0,1.8311e-4 720,0 0,539.99999689 -720,0 L 0,1.8311e-4 z"
         clip-rule="evenodd"
         id="path2844" />
    </clipPath>
    <clipPath
       clipPathUnits="userSpaceOnUse"
       id="clipPath3234">
      <path
         inkscape:connector-curvature="0"
         d="M -4.492e-6,1.8311e-4 720,1.8311e-4 720,540.00018 l -720.000004492,0 0,-539.99999689 z"
         clip-rule="evenodd"
         id="path3236" />
    </clipPath>
    <clipPath
       clipPathUnits="userSpaceOnUse"
       id="clipPath3230">
      <path
         inkscape:connector-curvature="0"
         d="M -1.43e-7,1.8311e-4 720,1.8311e-4 720,540.00018 -1.43e-7,540.00018 l 0,-539.99999689 z"
         clip-rule="evenodd"
         id="path3232" />
    </clipPath>
    <clipPath
       clipPathUnits="userSpaceOnUse"
       id="clipPath3480">
      <path
         inkscape:connector-curvature="0"
         d="M -1.712e-6,1.8311e-4 720,1.8311e-4 720,540.00018 -1.712e-6,540.00018 l 0,-539.99999689 z"
         clip-rule="evenodd"
         id="path3482" />
    </clipPath>
    <clipPath
       clipPathUnits="userSpaceOnUse"
       id="clipPath3476">
      <path
         inkscape:connector-curvature="0"
         d="M -3.97e-7,1.8311e-4 720,1.8311e-4 720,540.00018 l -720.000000397,0 0,-539.99999689 z"
         clip-rule="evenodd"
         id="path3478" />
    </clipPath>
    <clipPath
       clipPathUnits="userSpaceOnUse"
       id="clipPath3720">
      <path
         inkscape:connector-curvature="0"
         d="M -1.866e-6,1.8311e-4 720,1.8311e-4 720,540.00018 l -720.000001866,0 0,-539.99999689 z"
         clip-rule="evenodd"
         id="path3722" />
    </clipPath>
    <clipPath
       clipPathUnits="userSpaceOnUse"
       id="clipPath3716">
      <path
         inkscape:connector-curvature="0"
         d="M -3.27e-7,1.8311e-4 720,1.8311e-4 720,540.00018 -3.27e-7,540.00018 l 0,-539.99999689 z"
         clip-rule="evenodd"
         id="path3718" />
    </clipPath>
    <clipPath
       clipPathUnits="userSpaceOnUse"
       id="clipPath3712">
      <path
         inkscape:connector-curvature="0"
         d="M 3.635e-6,1.8311e-4 720,1.8311e-4 720,540.00018 l -719.999996365,0 0,-539.99999689 z"
         clip-rule="evenodd"
         id="path3714" />
    </clipPath>
    <clipPath
       clipPathUnits="userSpaceOnUse"
       id="clipPath4024">
      <path
         inkscape:connector-curvature="0"
         d="M -3.27e-7,1.8311e-4 720,1.8311e-4 720,540.00018 -3.27e-7,540.00018 l 0,-539.99999689 z"
         clip-rule="evenodd"
         id="path4026" />
    </clipPath>
    <clipPath
       clipPathUnits="userSpaceOnUse"
       id="clipPath4020">
      <path
         inkscape:connector-curvature="0"
         d="M 5.61e-7,1.8311e-4 720,1.8311e-4 720,540.00018 5.61e-7,540.00018 l 0,-539.99999689 z"
         clip-rule="evenodd"
         id="path4022" />
    </clipPath>
    <clipPath
       clipPathUnits="userSpaceOnUse"
       id="clipPath4016">
      <path
         inkscape:connector-curvature="0"
         d="M 5.39e-7,2.4414e-4 720,2.4414e-4 720,540.00024 5.39e-7,540.00024 l 0,-539.99999586 z"
         clip-rule="evenodd"
         id="path4018" />
    </clipPath>
    <clipPath
       clipPathUnits="userSpaceOnUse"
       id="clipPath4172">
      <path
         inkscape:connector-curvature="0"
         d="M -8.71e-7,0 720,0 720,540 -8.71e-7,540 l 0,-540 z"
         clip-rule="evenodd"
         id="path4174" />
    </clipPath>
    <clipPath
       clipPathUnits="userSpaceOnUse"
       id="clipPath4176">
      <path
         inkscape:connector-curvature="0"
         d="m 0,0 361.12,0 0,186.9 L 0,186.9 0,0 z"
         id="path4178" />
    </clipPath>
  </defs>
  <sodipodi:namedview
     id="base"
     pagecolor="#ffffff"
     bordercolor="#666666"
     borderopacity="1.0"
     inkscape:pageopacity="0.0"
     inkscape:pageshadow="2"
     inkscape:zoom="7.9195959"
     inkscape:cx="60.220336"
     inkscape:cy="6.9535892"
     inkscape:document-units="px"
     inkscape:current-layer="layer1"
     showgrid="false"
     fit-margin-top="0"
     fit-margin-left="0"
     fit-margin-right="0"
     fit-margin-bottom="0"
     inkscape:window-width="1615"
     inkscape:window-height="1026"
     inkscape:window-x="65"
     inkscape:window-y="24"
     inkscape:window-maximized="1" />
  <metadata
     id="metadata36375">
    <rdf:RDF>
      <cc:Work
         rdf:about="">
        <dc:format>image/svg+xml</dc:format>
        <dc:type
           rdf:resource="http://purl.org/dc/dcmitype/StillImage" />
        <dc:title></dc:title>
      </cc:Work>
    </rdf:RDF>
  </metadata>
  <g
     inkscape:label="Layer 1"
     inkscape:groupmode="layer"
     id="layer1"
     transform="translate(-232.21875,-516.5)">
    <path
       inkscape:connector-curvature="0"
       id="path4666"
       style="fill:#ffffff;fill-opacity:1;fill-rule:evenodd;stroke:none"
       d="m 258.98282,542.02659 10.91555,0 0,-5.7269 -10.91555,0 0,5.7269 z" />
    <path
       inkscape:connector-curvature="0"
       id="path4668"
       style="fill:none;stroke:#000000;stroke-width:0.12917814;stroke-linecap:butt;stroke-linejoin:miter;stroke-miterlimit:10;stroke-opacity:1;stroke-dasharray:none"
       d="m 258.98282,542.02659 10.91555,0 0,-5.7269 -10.91555,0 0,5.7269 z" />
    <path
       inkscape:connector-curvature="0"
       id="path4670"
       style="fill:#ffffff;fill-opacity:1;fill-rule:evenodd;stroke:none"
       d="m 232.28601,529.38953 18.38635,0 0,-12.81016 -18.38635,0 0,12.81016 z" />
    <path
       inkscape:connector-curvature="0"
       id="path4672"
       style="fill:none;stroke:#000000;stroke-width:0.12917814;stroke-linecap:butt;stroke-linejoin:miter;stroke-miterlimit:10;stroke-opacity:1;stroke-dasharray:none"
       d="m 232.28601,529.38953 18.38635,0 0,-12.81016 -18.38635,0 0,12.81016 z" />
    <text
       id="text4674"
       x="237.4893"
       y="520.39874"
       style="font-size:2.06685019px">
      <tspan
         id="tspan4676"
         sodipodi:role="line"
         y="520.39874"
         x="237.4893 238.25557 240.17467 241.32407 243.25354 245.17265"
         style="font-size:3.45163965px;font-variant:normal;font-weight:normal;writing-mode:lr-tb;fill:#c00000;fill-opacity:1;fill-rule:nonzero;stroke:none;font-family:Arial Black;-inkscape-font-specification:Arial">large</tspan>
    </text>
    <text
       id="text4678"
       x="234.30635"
       y="524.53241"
       style="font-size:2.06685019px">
      <tspan
         id="tspan4680"
         sodipodi:role="line"
         y="524.53241"
         x="234.30635 237.18156 239.10068 240.8334 242.55922 244.48869 246.40779"
         style="font-size:3.45163965px;font-variant:normal;font-weight:normal;writing-mode:lr-tb;fill:#c00000;fill-opacity:1;fill-rule:nonzero;stroke:none;font-family:Arial Black;-inkscape-font-specification:Arial">message</tspan>
    </text>
    <text
       id="text4682"
       x="239.88684"
       y="528.66614"
       style="font-size:2.06685019px">
      <tspan
         id="tspan4684"
         y="528.66614"
         x="239.88684"
         style="font-size:3.45163965px;font-variant:normal;font-weight:normal;writing-mode:lr-tb;fill:#c00000;fill-opacity:1;fill-rule:nonzero;stroke:none;font-family:Arial Black;-inkscape-font-specification:Arial">m</tspan>
    </text>
    <path
       inkscape:connector-curvature="0"
       id="path4686"
       style="fill:#008000;fill-opacity:1;fill-rule:evenodd;stroke:none"
       d="m 257.43268,528.44223 15.02772,0 0,-10.2912 -15.02772,0 0,10.2912 z" />
    <path
       inkscape:connector-curvature="0"
       id="path4688"
       style="fill:none;stroke:#000000;stroke-width:0.12917814;stroke-linecap:butt;stroke-linejoin:miter;stroke-miterlimit:10;stroke-opacity:1;stroke-dasharray:none"
       d="m 257.43268,528.44223 15.02772,0 0,-10.2912 -15.02772,0 0,10.2912 z" />
    <text
       id="text4690"
       x="258.7572"
       y="522.05737"
       style="font-size:2.06685019px">
      <tspan
         id="tspan4692"
         sodipodi:role="line"
         y="522.05737"
         x="258.7572 261.24927 262.20883 263.11661 265.6087 267.5347 269.26053"
         style="font-size:3.45163965px;font-variant:normal;font-weight:normal;writing-mode:lr-tb;fill:#ffffff;fill-opacity:1;fill-rule:nonzero;stroke:none;font-family:Arial Black;-inkscape-font-specification:Arial">H: Hash</tspan>
    </text>
    <text
       id="text4694"
       x="258.34381"
       y="526.19104"
       style="font-size:2.06685019px">
      <tspan
         id="tspan4696"
         sodipodi:role="line"
         y="526.19104"
         x="258.34381 260.45279 262.37189 264.29099 266.03064 266.99017 267.75644 269.67557"
         style="font-size:3.45163965px;font-variant:normal;font-weight:normal;writing-mode:lr-tb;fill:#ffffff;fill-opacity:1;fill-rule:nonzero;stroke:none;font-family:Arial Black;-inkscape-font-specification:Arial">Function</tspan>
    </text>
    <path
       inkscape:connector-curvature="0"
       id="path4698"
       style="fill:#000000;fill-opacity:1;fill-rule:nonzero;stroke:none"
       d="m 250.73609,522.69294 5.57533,0 0,0.5167 -5.57533,0 0,-0.5167 z m 5.31697,-0.51672 1.55014,0.77507 -1.55014,0.77507 0,-1.55014 z" />
    <text
       id="text4700"
       x="260.54675"
       y="540.59705"
       style="font-size:2.06685019px">
      <tspan
         id="tspan4702"
         sodipodi:role="line"
         y="540.59705"
         x="260.54675 263.03882 264.20203 267.07724"
         style="font-size:3.45163965px;font-variant:normal;font-weight:normal;writing-mode:lr-tb;fill:#c00000;fill-opacity:1;fill-rule:nonzero;stroke:none;font-family:Arial Black;-inkscape-font-specification:Arial">H(m)</tspan>
    </text>
    <path
       inkscape:connector-curvature="0"
       id="path4704"
       style="fill:#000000;fill-opacity:1;fill-rule:nonzero;stroke:none"
       d="m 263.54539,528.63513 0,6.15749 -0.51671,0 0,-6.15749 0.51671,0 z m 0.51671,5.89914 -0.77506,1.55014 -0.77507,-1.55014 1.55013,0 z" />
  </g>
</svg>
