<!-- Created with Inkscape (http://www.inkscape.org/) -->
<svg id="svg3671" xmlns:rdf="http://www.w3.org/1999/02/22-rdf-syntax-ns#" xmlns="http://www.w3.org/2000/svg" height="305.73" width="350.47" version="1.1" xmlns:cc="http://creativecommons.org/ns#" xmlns:dc="http://purl.org/dc/elements/1.1/">
<defs id="defs3673">
<clipPath id="clipPath572" clipPathUnits="userSpaceOnUse">
<path id="path574" clip-rule="evenodd" d="M0.000010729,0,720,0v540h-720v-540z"/>
</clipPath>
<clipPath id="clipPath560" clipPathUnits="userSpaceOnUse">
<path id="path562" clip-rule="evenodd" d="M0.000010729,0,720,0v540h-720v-540z"/>
</clipPath>
<clipPath id="clipPath548" clipPathUnits="userSpaceOnUse">
<path id="path550" clip-rule="evenodd" d="M0.000010729,0,720,0v540h-720v-540z"/>
</clipPath>
<clipPath id="clipPath536" clipPathUnits="userSpaceOnUse">
<path id="path538" clip-rule="evenodd" d="M0.000010729,0,720,0v540h-720v-540z"/>
</clipPath>
<clipPath id="clipPath518" clipPathUnits="userSpaceOnUse">
<path id="path520" clip-rule="evenodd" d="M0.000010729,0,720,0v540h-720v-540z"/>
</clipPath>
<clipPath id="clipPath506" clipPathUnits="userSpaceOnUse">
<path id="path508" clip-rule="evenodd" d="M0.000010729,0,720,0v540h-720v-540z"/>
</clipPath>
<clipPath id="clipPath492" clipPathUnits="userSpaceOnUse">
<path id="path494" clip-rule="evenodd" d="M0.000010729,0,720,0v540h-720v-540z"/>
</clipPath>
<clipPath id="clipPath480" clipPathUnits="userSpaceOnUse">
<path id="path482" clip-rule="evenodd" d="M0.000010729,0,720,0v540h-720v-540z"/>
</clipPath>
<clipPath id="clipPath468" clipPathUnits="userSpaceOnUse">
<path id="path470" clip-rule="evenodd" d="M0.000010729,0,720,0v540h-720v-540z"/>
</clipPath>
<clipPath id="clipPath450" clipPathUnits="userSpaceOnUse">
<path id="path452" clip-rule="evenodd" d="M0.000010729,0,720,0v540h-720v-540z"/>
</clipPath>
<clipPath id="clipPath438" clipPathUnits="userSpaceOnUse">
<path id="path440" clip-rule="evenodd" d="M0.000010729,0,720,0v540h-720v-540z"/>
</clipPath>
<clipPath id="clipPath426" clipPathUnits="userSpaceOnUse">
<path id="path428" clip-rule="evenodd" d="M0.000010729,0,720,0v540h-720v-540z"/>
</clipPath>
<clipPath id="clipPath414" clipPathUnits="userSpaceOnUse">
<path id="path416" clip-rule="evenodd" d="M0.000010729,0,720,0v540h-720v-540z"/>
</clipPath>
</defs>
<metadata id="metadata3676">
<rdf:RDF>
<cc:Work rdf:about="">
<dc:format>image/svg+xml</dc:format>
<dc:type rdf:resource="http://purl.org/dc/dcmitype/StillImage"/>
<dc:title/>
</cc:Work>
</rdf:RDF>
</metadata>
<g id="layer1" transform="translate(-107.62343,-339.49622)">
<path id="path374" stroke-linejoin="round" d="m133.11,350.37,0,217.81" stroke="#000" stroke-linecap="butt" stroke-miterlimit="10" stroke-dasharray="none" stroke-width="0.90000004" fill="none"/>
<path id="path376" stroke-linejoin="round" d="m132.96,566.52,15.3,0,0-103.8-15.3,0,0,103.8z" stroke="#7f7f7f" stroke-linecap="butt" stroke-miterlimit="10" stroke-dasharray="none" stroke-width="0.90000004" fill="none"/>
<path id="path378" stroke-linejoin="round" d="m148.41,566.82,15.45,0,0-115.65-15.45,0,0,115.65z" stroke="#7f7f7f" stroke-linecap="butt" stroke-miterlimit="10" stroke-dasharray="none" stroke-width="0.90000004" fill="none"/>
<path id="path380" stroke-linejoin="round" d="m163.86,566.07,15.3,0,0-130.95-15.3,0,0,130.95z" stroke="#7f7f7f" stroke-linecap="butt" stroke-miterlimit="10" stroke-dasharray="none" stroke-width="0.90000004" fill="none"/>
<path id="path382" stroke-linejoin="round" d="m179.31,566.22,15.45,0,0-144.3-15.45,0,0,144.3z" stroke="#7f7f7f" stroke-linecap="butt" stroke-miterlimit="10" stroke-dasharray="none" stroke-width="0.90000004" fill="none"/>
<path id="path384" stroke-linejoin="round" d="m195.21,567.27,15.3,0,0-147-15.3,0,0,147z" stroke="#7f7f7f" stroke-linecap="butt" stroke-miterlimit="10" stroke-dasharray="none" stroke-width="0.90000004" fill="none"/>
<path id="path386" stroke-linejoin="round" d="m210.66,567.42,15.3,0,0-132.3-15.3,0,0,132.3z" stroke="#7f7f7f" stroke-linecap="butt" stroke-miterlimit="10" stroke-dasharray="none" stroke-width="0.90000004" fill="none"/>
<path id="path388" stroke-linejoin="round" d="m225.96,566.97,15.45,0,0-118.5-15.45,0,0,118.5z" stroke="#7f7f7f" stroke-linecap="butt" stroke-miterlimit="10" stroke-dasharray="none" stroke-width="0.90000004" fill="none"/>
<path id="path390" stroke-linejoin="round" d="m241.56,567.12,15.3,0,0-111.75-15.3,0,0,111.75z" stroke="#7f7f7f" stroke-linecap="butt" stroke-miterlimit="10" stroke-dasharray="none" stroke-width="0.90000004" fill="none"/>
<path id="path392" stroke-linejoin="round" d="m257.01,566.07,15.3,0,0-109.2-15.3,0,0,109.2z" stroke="#7f7f7f" stroke-linecap="butt" stroke-miterlimit="10" stroke-dasharray="none" stroke-width="0.90000004" fill="none"/>
<path id="path394" stroke-linejoin="round" d="m272.61,566.22,15.3,0,0-121.05-15.3,0,0,121.05z" stroke="#7f7f7f" stroke-linecap="butt" stroke-miterlimit="10" stroke-dasharray="none" stroke-width="0.90000004" fill="none"/>
<path id="path396" stroke-linejoin="round" d="m287.91,566.22,15.3,0,0-142.8-15.3,0,0,142.8z" stroke="#7f7f7f" stroke-linecap="butt" stroke-miterlimit="10" stroke-dasharray="none" stroke-width="0.90000004" fill="none"/>
<path id="path398" stroke-linejoin="round" d="m303.51,565.92,15.3,0,0-168.45-15.3,0,0,168.45z" stroke="#7f7f7f" stroke-linecap="butt" stroke-miterlimit="10" stroke-dasharray="none" stroke-width="0.90000004" fill="none"/>
<path id="path400" stroke-linejoin="round" d="m319.26,566.22,15.3,0,0-157.65-15.3,0,0,157.65z" stroke="#7f7f7f" stroke-linecap="butt" stroke-miterlimit="10" stroke-dasharray="none" stroke-width="0.90000004" fill="none"/>
<path id="path402" stroke-linejoin="round" d="m334.71,566.37,15.3,0,0-131.25-15.3,0,0,131.25z" stroke="#7f7f7f" stroke-linecap="butt" stroke-miterlimit="10" stroke-dasharray="none" stroke-width="0.90000004" fill="none"/>
<path id="path404" stroke-linejoin="round" d="m350.01,565.92,15.45,0,0-104.85-15.45,0,0,104.85z" stroke="#7f7f7f" stroke-linecap="butt" stroke-miterlimit="10" stroke-dasharray="none" stroke-width="0.90000004" fill="none"/>
<path id="path406" stroke-linejoin="round" d="m365.61,566.07,15.3,0,0-91.2-15.3,0,0,91.2z" stroke="#7f7f7f" stroke-linecap="butt" stroke-miterlimit="10" stroke-dasharray="none" stroke-width="0.90000004" fill="none"/>
<path id="path408" stroke-linejoin="round" d="m133.11,566.82,322.96,0" stroke="#000" stroke-linecap="butt" stroke-miterlimit="10" stroke-dasharray="none" stroke-width="0.90000004" fill="none"/>
<g id="g410" transform="matrix(1.25,0,0,-1.25,-365.94492,808.61536)">
<g id="g412" clip-path="url(#clipPath414)">
<text id="text418" transform="matrix(1,0,0,-1,628.8,178.3)">
<tspan id="tspan420" style="writing-mode:lr-tb;" font-weight="normal" fill-rule="nonzero" font-size="12px" font-variant="normal" y="0" x="0 3.336 6 16.068001" font-family="Arial" fill="#000000">time</tspan>
</text>
</g>
</g>
<g id="g422" transform="matrix(1.25,0,0,-1.25,-365.94492,808.61536)">
<g id="g424" clip-path="url(#clipPath426)">
<text id="text430" transform="matrix(-4.4e-8,1,1,4.4e-8,387.55,216.74)">
<tspan id="tspan432" style="writing-mode:lr-tb;" font-weight="normal" fill-rule="nonzero" font-size="12px" font-variant="normal" y="0" x="0 6.7080002 13.416 20.124001 22.788 29.459999 32.484001 38.484001 41.147999 47.723999 54.431999 61.139999 63.804001 66.900002 73.608002 83.676003 90.384003 93.047997 95.664001 99 105.732 112.332" font-family="Arial" fill="#000000">audio signal amplitude</tspan>
</text>
</g>
</g>
<g id="g434" transform="matrix(1.25,0,0,-1.25,-365.94492,808.61536)">
<g id="g436" clip-path="url(#clipPath438)">
<text id="text442" transform="matrix(1,0,0,-1,618.43,295.58)">
<tspan id="tspan444" style="writing-mode:lr-tb;" font-weight="normal" fill-rule="nonzero" font-size="12px" font-variant="normal" y="0" x="0 6.7080002 13.416 20.124001 22.788 29.459999" font-family="Arial" fill="#0000ff">analog</tspan>
</text>
</g>
</g>
<g id="g446" transform="matrix(1.25,0,0,-1.25,-365.94492,808.61536)">
<g id="g448" clip-path="url(#clipPath450)">
<text id="text454" transform="matrix(1,0,0,-1,618.43,281.16)">
<tspan id="tspan456" style="writing-mode:lr-tb;" font-weight="normal" fill-rule="nonzero" font-size="12px" font-variant="normal" y="0" x="0 6 8.6639996 15.24 21.948 28.656" font-family="Arial" fill="#0000ff">signal</tspan>
</text>
</g>
</g>
<path id="path458" stroke-linejoin="round" d="m133.33,462.03c3.85,4.7625,41.425-47.825,62.488-48.962,21.05-1.125,43.463,46.25,63.838,42.162,20.375-4.075,39.85-68.675,58.412-66.638,18.562,2.0375,30.788,59.612,52.975,78.875,22.188,19.275,52.4,27.2,80.138,36.725" stroke="#00F" stroke-linecap="butt" stroke-miterlimit="10" stroke-dasharray="none" stroke-width="2.25" fill="none"/>
<path id="path460" stroke-linejoin="round" d="m433.79,458.22-17.338,29.062" stroke="#00F" stroke-linecap="butt" stroke-miterlimit="10" stroke-dasharray="none" stroke-width="0.90000004" fill="none"/>
<path id="path462" stroke-linejoin="round" d="m318.13,407.89,18.262,0.725" stroke="#800000" stroke-linecap="butt" stroke-miterlimit="10" stroke-dasharray="none" stroke-width="3.75" fill="none"/>
<g id="g464" transform="matrix(1.25,0,0,-1.25,-365.94492,808.61536)">
<g id="g466" clip-path="url(#clipPath468)">
<text id="text472" transform="matrix(1,0,0,-1,592.08,361.7)">
<tspan id="tspan474" style="writing-mode:lr-tb;" font-weight="normal" fill-rule="nonzero" font-size="12px" font-variant="normal" y="0" x="0 6.5999999 13.308 20.016001 26.724001 30.059999 32.723999 38.604 45.312 52.02" font-family="Arial" fill="#800000">quantized</tspan>
</text>
</g>
</g>
<g id="g476" transform="matrix(1.25,0,0,-1.25,-365.94492,808.61536)">
<g id="g478" clip-path="url(#clipPath480)">
<text id="text484" transform="matrix(1,0,0,-1,592.08,347.3)">
<tspan id="tspan486" style="writing-mode:lr-tb;" font-weight="normal" fill-rule="nonzero" font-size="12px" font-variant="normal" y="0" x="0 5.8800001 12.588 15.252 21.924 28.656 31.896 38.604" font-family="Arial" fill="#800000">value of</tspan>
</text>
</g>
</g>
<g id="g488" transform="matrix(1.25,0,0,-1.25,-365.94492,808.61536)">
<g id="g490" clip-path="url(#clipPath492)">
<text id="text496" transform="matrix(1,0,0,-1,592.08,332.9)">
<tspan id="tspan498" style="writing-mode:lr-tb;" font-weight="normal" fill-rule="nonzero" font-size="12px" font-variant="normal" y="0" x="0 6.7080002 13.416 20.124001 22.788 29.459999 36.084 39.084 44.964001 51.672001 54.335999 61.007999" font-family="Arial" fill="#800000">analog value</tspan>
</text>
</g>
</g>
<path id="path500" stroke-linejoin="round" d="m371.47,352.02-42.012,53.35" stroke="#800000" stroke-linecap="butt" stroke-miterlimit="10" stroke-dasharray="none" stroke-width="0.90000004" fill="none"/>
<g id="g502" transform="matrix(1.25,0,0,-1.25,-365.94492,808.61536)">
<g id="g504" clip-path="url(#clipPath506)">
<text id="text510" transform="matrix(1,0,0,-1,452.09,366.6)">
<tspan id="tspan512" style="writing-mode:lr-tb;" font-weight="normal" fill-rule="nonzero" font-size="12px" font-variant="normal" y="0" x="0 6.5999999 13.308 20.016001 26.724001 30.059999 32.723999 38.604 45.312 48.647999 51.312 58.02 64.620003" font-family="Arial" fill="#ff0000">quantization</tspan>
</text>
</g>
</g>
<g id="g514" transform="matrix(1.25,0,0,-1.25,-365.94492,808.61536)">
<g id="g516" clip-path="url(#clipPath518)">
<text id="text522" transform="matrix(1,0,0,-1,491.45,352.2)">
<tspan id="tspan524" style="writing-mode:lr-tb;" font-weight="normal" fill-rule="nonzero" font-size="12.02400017px" font-variant="normal" y="0" x="0 6.6853442 10.689336 14.645232 21.330576" font-family="Arial" fill="#ff0000">error</tspan>
</text>
</g>
</g>
<path id="path526" stroke-linejoin="round" d="m321.96,388.62,0.375,19.988" stroke="#F00" stroke-linecap="butt" stroke-miterlimit="10" stroke-dasharray="none" stroke-width="1.19999993" fill="none"/>
<path id="path528" stroke-linejoin="round" d="m289.11,353.97,28.812,38.688" stroke="#F00" stroke-linecap="butt" stroke-miterlimit="10" stroke-dasharray="none" stroke-width="0.90000004" fill="none"/>
<path id="path530" d="m132.99,540.64,251.75-1.3875,0-1.25-251.75,1.3875,0,1.25zm7.1625-5.5875-8.4,4.9625,8.45,4.875c0.3,0.175,0.675,0.0625,0.85-0.2375s0.075-0.675-0.225-0.85l-7.525-4.3375v1.0875l7.475-4.425c0.3-0.175,0.4-0.55,0.225-0.85s-0.5625-0.4-0.85-0.225zm237.43,8.525,8.4-4.9625-8.45-4.8625c-0.3-0.175-0.6875-0.075-0.8625,0.225s-0.0625,0.675,0.2375,0.85l7.525,4.3375-0.0125-1.0875-7.475,4.425c-0.3,0.175-0.4,0.5625-0.225,0.85,0.175,0.3,0.5625,0.4,0.8625,0.225z" fill-rule="nonzero" fill="#008000"/>
<g id="g532" transform="matrix(1.25,0,0,-1.25,-365.94492,808.61536)">
<g id="g534" clip-path="url(#clipPath536)">
<text id="text540" transform="matrix(1,0,0,-1,441.58,147.6)">
<tspan id="tspan542" style="writing-mode:lr-tb;" font-weight="normal" fill-rule="nonzero" font-size="12px" font-variant="normal" y="0" x="0 6 12.708 22.799999 29.507999 32.172001 34.787998 41.495998 48.096001 51.096001 55.091999 61.764 65.099998" font-family="Arial" fill="#006633">sampling rate</tspan>
</text>
</g>
</g>
<g id="g544" transform="matrix(1.25,0,0,-1.25,-365.94492,808.61536)">
<g id="g546" clip-path="url(#clipPath548)">
<text id="text552" transform="matrix(1,0,0,-1,441.58,133.2)">
<tspan id="tspan554" style="writing-mode:lr-tb;" font-weight="normal" fill-rule="nonzero" font-size="12px" font-variant="normal" y="0" x="0" font-family="Arial" fill="#006633">(</tspan>
</text>
</g>
</g>
<g id="g556" transform="matrix(1.25,0,0,-1.25,-365.94492,808.61536)">
<g id="g558" clip-path="url(#clipPath560)">
<text id="text564" transform="matrix(1,0,0,-1,445.54,133.2)">
<tspan id="tspan566" style="writing-mode:lr-tb;" font-weight="normal" fill-rule="nonzero" font-size="12px" font-style="italic" font-variant="normal" y="0" x="0 8.6400003" font-family="Arial" fill="#006633">N</tspan>
</text>
</g>
</g>
<g id="g568" transform="matrix(1.25,0,0,-1.25,-365.94492,808.61536)">
<g id="g570" clip-path="url(#clipPath572)">
<text id="text576" transform="matrix(1,0,0,-1,457.56,133.2)">
<tspan id="tspan578" style="writing-mode:lr-tb;" font-weight="normal" fill-rule="nonzero" font-size="12px" font-variant="normal" y="0" x="0 6 12.708 22.775999 29.483999 32.147999 38.82 42.192001 48.192001 54.792 60.792" font-family="Arial" fill="#006633">sample/sec)</tspan>
</text>
</g>
</g>
<path id="path580" stroke-linejoin="round" d="m276.36,612.98,21.062-70.162" stroke="#063" stroke-linecap="butt" stroke-miterlimit="10" stroke-dasharray="none" stroke-width="0.90000004" fill="none"/>
</g>
</svg>
