<!-- Created with Inkscape (http://www.inkscape.org/) -->
<svg id="svg3671" xmlns:rdf="http://www.w3.org/1999/02/22-rdf-syntax-ns#" xmlns="http://www.w3.org/2000/svg" height="342.03" width="803.34" version="1.1" xmlns:cc="http://creativecommons.org/ns#" xmlns:xlink="http://www.w3.org/1999/xlink" xmlns:dc="http://purl.org/dc/elements/1.1/">
<defs id="defs3673">
<clipPath id="clipPath8170" clipPathUnits="userSpaceOnUse">
<path id="path8172" clip-rule="evenodd" d="M0.000010729,0,720,0v540h-720v-540z"/>
</clipPath>
<clipPath id="clipPath8158" clipPathUnits="userSpaceOnUse">
<path id="path8160" clip-rule="evenodd" d="M0.000010729,0,720,0v540h-720v-540z"/>
</clipPath>
<clipPath id="clipPath8142" clipPathUnits="userSpaceOnUse">
<path id="path8144" clip-rule="evenodd" d="M0.000010729,0,720,0v540h-720v-540z"/>
</clipPath>
<clipPath id="clipPath8130" clipPathUnits="userSpaceOnUse">
<path id="path8132" clip-rule="evenodd" d="M0.000010729,0,720,0v540h-720v-540z"/>
</clipPath>
<clipPath id="clipPath8118" clipPathUnits="userSpaceOnUse">
<path id="path8120" clip-rule="evenodd" d="M0.000010729,0,720,0v540h-720v-540z"/>
</clipPath>
<clipPath id="clipPath8106" clipPathUnits="userSpaceOnUse">
<path id="path8108" clip-rule="evenodd" d="M0.000010729,0,720,0v540h-720v-540z"/>
</clipPath>
<clipPath id="clipPath8094" clipPathUnits="userSpaceOnUse">
<path id="path8096" clip-rule="evenodd" d="M0.000010729,0,720,0v540h-720v-540z"/>
</clipPath>
<clipPath id="clipPath8084" clipPathUnits="userSpaceOnUse">
<path id="path8086" clip-rule="evenodd" d="M-0.000032208,540,720,540,720,0.00012207h-720"/>
</clipPath>
<clipPath id="clipPath8072" clipPathUnits="userSpaceOnUse">
<path id="path8074" clip-rule="evenodd" d="M-0.000022173,540,720,540,720,0.00012207h-720"/>
</clipPath>
<clipPath id="clipPath8060" clipPathUnits="userSpaceOnUse">
<path id="path8062" clip-rule="evenodd" d="M-0.000012139,540,720,540,720,0.00012207h-720"/>
</clipPath>
<clipPath id="clipPath8048" clipPathUnits="userSpaceOnUse">
<path id="path8050" clip-rule="evenodd" d="M-0.000002104,540,720,540,720,0.00012207h-720"/>
</clipPath>
<clipPath id="clipPath8036" clipPathUnits="userSpaceOnUse">
<path id="path8038" clip-rule="evenodd" d="M0.000007931,540,720,540,720,0.00012207,0.000007931,0.00012207"/>
</clipPath>
<clipPath id="clipPath8024" clipPathUnits="userSpaceOnUse">
<path id="path8026" clip-rule="evenodd" d="M0.000017966,540,720,540,720,0.00012207h-720"/>
</clipPath>
<clipPath id="clipPath8012" clipPathUnits="userSpaceOnUse">
<path id="path8014" clip-rule="evenodd" d="M-0.000002517,540,720,540,720,0.00012207-0.000002517,0.00012207"/>
</clipPath>
<clipPath id="clipPath8000" clipPathUnits="userSpaceOnUse">
<path id="path8002" clip-rule="evenodd" d="M-0.000003462,540,720,540,720,0.00012207-0.000003462,0.00012207"/>
</clipPath>
<clipPath id="clipPath7988" clipPathUnits="userSpaceOnUse">
<path id="path7990" clip-rule="evenodd" d="M0.000006573,540,720,540,720,0.00012207h-720"/>
</clipPath>
<clipPath id="clipPath7976" clipPathUnits="userSpaceOnUse">
<path id="path7978" clip-rule="evenodd" d="M0.000016608,540,720,540,720,0.00012207h-720"/>
</clipPath>
<clipPath id="clipPath7964" clipPathUnits="userSpaceOnUse">
<path id="path7966" clip-rule="evenodd" d="M-0.000003875,540,720,540,720,0.00012207-0.000003875,0.00012207"/>
</clipPath>
<clipPath id="clipPath7950" clipPathUnits="userSpaceOnUse">
<path id="path7952" clip-rule="evenodd" d="M0.000010729,0,720,0v540h-720v-540z"/>
</clipPath>
<clipPath id="clipPath7938" clipPathUnits="userSpaceOnUse">
<path id="path7940" clip-rule="evenodd" d="M0.000010729,0,720,0v540h-720v-540z"/>
</clipPath>
<clipPath id="clipPath7924" clipPathUnits="userSpaceOnUse">
<path id="path7926" clip-rule="evenodd" d="M0.000010729,0,720,0v540h-720v-540z"/>
</clipPath>
<clipPath id="clipPath7912" clipPathUnits="userSpaceOnUse">
<path id="path7914" clip-rule="evenodd" d="M0.000010729,0,720,0v540h-720v-540z"/>
</clipPath>
<clipPath id="clipPath7900" clipPathUnits="userSpaceOnUse">
<path id="path7902" clip-rule="evenodd" d="M0.000010729,0,720,0v540h-720v-540z"/>
</clipPath>
<clipPath id="clipPath7890" clipPathUnits="userSpaceOnUse">
<path id="path7892" clip-rule="evenodd" d="M0.000016534,540,720,540,720,0.00012207h-720"/>
</clipPath>
<clipPath id="clipPath7878" clipPathUnits="userSpaceOnUse">
<path id="path7880" clip-rule="evenodd" d="M-0.0000078,540,720,540,720,0.00012207h-720"/>
</clipPath>
<clipPath id="clipPath7866" clipPathUnits="userSpaceOnUse">
<path id="path7868" clip-rule="evenodd" d="M0.000004478,540,720,540,720,0.00018311,0.000004478,0.00018311"/>
</clipPath>
<clipPath id="clipPath7854" clipPathUnits="userSpaceOnUse">
<path id="path7856" clip-rule="evenodd" d="M0.000016933,540,720,540,720,0.00012207h-720"/>
</clipPath>
<clipPath id="clipPath7842" clipPathUnits="userSpaceOnUse">
<path id="path7844" clip-rule="evenodd" d="M-0.000004185,540,720,540,720,0.00012207-0.000004185,0.00012207"/>
</clipPath>
<clipPath id="clipPath7830" clipPathUnits="userSpaceOnUse">
<path id="path7832" clip-rule="evenodd" d="M0.000021537,540,720,540,720,0.00012207h-720"/>
</clipPath>
<clipPath id="clipPath7818" clipPathUnits="userSpaceOnUse">
<path id="path7820" clip-rule="evenodd" d="M0.000018438,540,720,540,720,0.00012207h-720"/>
</clipPath>
<clipPath id="clipPath7806" clipPathUnits="userSpaceOnUse">
<path id="path7808" clip-rule="evenodd" d="M0.000006633,540,720,540,720,0.00012207h-720"/>
</clipPath>
<clipPath id="clipPath7794" clipPathUnits="userSpaceOnUse">
<path id="path7796" clip-rule="evenodd" d="M-0.000006678,540,720,540,720,0.00012207-0.000006678,0.00012207"/>
</clipPath>
<clipPath id="clipPath7782" clipPathUnits="userSpaceOnUse">
<path id="path7784" clip-rule="evenodd" d="M0.00000197,540,720,540,720,0.00012207h-720"/>
</clipPath>
<clipPath id="clipPath7770" clipPathUnits="userSpaceOnUse">
<path id="path7772" clip-rule="evenodd" d="M0.000008197,540,720,540,720,0.00012207,0.000008197,0.00012207"/>
</clipPath>
<clipPath id="clipPath7756" clipPathUnits="userSpaceOnUse">
<path id="path7758" clip-rule="evenodd" d="M0.000010729,0,720,0v540h-720v-540z"/>
</clipPath>
<clipPath id="clipPath7746" clipPathUnits="userSpaceOnUse">
<path id="path7748" clip-rule="evenodd" d="M-0.000003496,540,720,540,720,0-0.000005802,0"/>
</clipPath>
<clipPath id="clipPath7736" clipPathUnits="userSpaceOnUse">
<path id="path7738" clip-rule="evenodd" d="M-0.000017657,540,720,540,720,0.00012207h-720"/>
</clipPath>
<clipPath id="clipPath7724" clipPathUnits="userSpaceOnUse">
<path id="path7726" clip-rule="evenodd" d="M-0.000007622,540,720,540,720,0.00012207-0.000007622,0.00012207"/>
</clipPath>
<clipPath id="clipPath7712" clipPathUnits="userSpaceOnUse">
<path id="path7714" clip-rule="evenodd" d="M0.000002412,540,720,540,720,0.00018311h-720"/>
</clipPath>
<clipPath id="clipPath7700" clipPathUnits="userSpaceOnUse">
<path id="path7702" clip-rule="evenodd" d="M-0.000002812,540,720,540,720,0.00018311h-720"/>
</clipPath>
<clipPath id="clipPath7688" clipPathUnits="userSpaceOnUse">
<path id="path7690" clip-rule="evenodd" d="M0.000007223,540,720,540,720,0.00012207,0.000007223,0.00012207"/>
</clipPath>
<clipPath id="clipPath7676" clipPathUnits="userSpaceOnUse">
<path id="path7678" clip-rule="evenodd" d="M0.000001999,540,720,540,720,0.00012207,0.000001999,0.00012207"/>
</clipPath>
<clipPath id="clipPath7664" clipPathUnits="userSpaceOnUse">
<path id="path7666" clip-rule="evenodd" d="M0.000012034,540,720,540,720,0.00012207h-720"/>
</clipPath>
<clipPath id="clipPath7652" clipPathUnits="userSpaceOnUse">
<path id="path7654" clip-rule="evenodd" d="M0.000011089,540,720,540,720,0.00012207h-720"/>
</clipPath>
<clipPath id="clipPath7640" clipPathUnits="userSpaceOnUse">
<path id="path7642" clip-rule="evenodd" d="M-0.000003977,540,720,540,720,0.00012207h-720"/>
</clipPath>
<clipPath id="clipPath7628" clipPathUnits="userSpaceOnUse">
<path id="path7630" clip-rule="evenodd" d="M-0.000009201,540,720,540,720,0.00012207h-720"/>
</clipPath>
<clipPath id="clipPath7616" clipPathUnits="userSpaceOnUse">
<path id="path7618" clip-rule="evenodd" d="M8.34E-7,540,720,540,720,0.00012207,8.34E-7,0.00012207"/>
</clipPath>
<clipPath id="clipPath7602" clipPathUnits="userSpaceOnUse">
<path id="path7604" clip-rule="evenodd" d="M0.000010729,0,720,0v540h-720v-540z"/>
</clipPath>
<clipPath id="clipPath7590" clipPathUnits="userSpaceOnUse">
<path id="path7592" clip-rule="evenodd" d="M0.000010729,0,720,0v540h-720v-540z"/>
</clipPath>
<clipPath id="clipPath7578" clipPathUnits="userSpaceOnUse">
<path id="path7580" clip-rule="evenodd" d="M0.000010729,0,720,0v540h-720v-540z"/>
</clipPath>
</defs>
<metadata id="metadata3676">
<rdf:RDF>
<cc:Work rdf:about="">
<dc:format>image/svg+xml</dc:format>
<dc:type rdf:resource="http://purl.org/dc/dcmitype/StillImage"/>
<dc:title/>
</cc:Work>
</rdf:RDF>
</metadata>
<g id="layer1" transform="translate(182.92208,-278.03125)">
<path id="path7570" stroke-linejoin="round" d="m-147.89,278.03,0,280.8" stroke="#000" stroke-linecap="butt" stroke-miterlimit="10" stroke-dasharray="none" stroke-width="2.8499999" fill="none"/>
<path id="path7572" d="m613.29,556.52-762.08,1.3375,0.005,2.85,762.08-1.3375-0.0125-2.85zm-1.4125,5.7,8.5375-4.2875-8.5625-4.2625,0.025,8.55z" fill-rule="nonzero" fill="#000"/>
<g id="g7574" transform="matrix(1.25,0,0,-1.25,-230.46083,806.25817)">
<g id="g7576" clip-path="url(#clipPath7578)">
<text id="text7582" transform="matrix(1,0,0,-1,158.02,393.34)">
<tspan id="tspan7584" style="writing-mode:lr-tb;" font-weight="normal" fill-rule="nonzero" font-size="18px" font-variant="normal" y="0" x="0 9 19.007999 28.926001 37.925999 42.93 52.938 62.891998 67.896004 72.954002 82.961998 86.867996 91.872002" font-family="Arial" fill="#cc0000">constant bit</tspan>
</text>
</g>
</g>
<g id="g7586" transform="matrix(1.25,0,0,-1.25,-230.46083,806.25817)">
<g id="g7588" clip-path="url(#clipPath7590)">
<text id="text7594" transform="matrix(1,0,0,-1,152.98,371.74)">
<tspan id="tspan7596" style="writing-mode:lr-tb;" font-weight="normal" fill-rule="nonzero" font-size="18px" font-variant="normal" y="0" x="0 5.994 16.002001 21.006001 30.959999 35.964001 44.964001 48.959999 58.967999 68.886002" font-family="Arial" fill="#cc0000">rate video</tspan>
</text>
</g>
</g>
<g id="g7598" transform="matrix(1.25,0,0,-1.25,-230.46083,806.25817)">
<g id="g7600" clip-path="url(#clipPath7602)">
<text id="text7606" transform="matrix(1,0,0,-1,122.98,350.14)">
<tspan id="tspan7608" style="writing-mode:lr-tb;" font-weight="normal" fill-rule="nonzero" font-size="18px" font-variant="normal" y="0" x="0 5.0040002 10.998 21.006001 30.959999 39.959999 54.953999 58.950001 67.949997 76.949997 80.874001 90.882004" font-family="Arial" fill="#cc0000">transmission</tspan>
</text>
</g>
</g>
<path id="path7610" stroke-linejoin="round" d="m-110.39,536.63,0,22.5" stroke="#F00" stroke-linecap="butt" stroke-miterlimit="10" stroke-dasharray="none" stroke-width="1.94999993" fill="none"/>
<g id="g7612" transform="matrix(1.25,0,0,-1.25,-230.46083,806.25817)">
<g id="g7614" clip-path="url(#clipPath7616)">
<path id="path7620" stroke-linejoin="round" d="m114.18,215.7-18,0" stroke="#F00" stroke-linecap="butt" stroke-miterlimit="10" stroke-dasharray="none" stroke-width="1.55999994" fill="none"/>
</g>
</g>
<path id="path7622" stroke-linejoin="round" d="m-87.586,514.13,0,22.5" stroke="#F00" stroke-linecap="butt" stroke-miterlimit="10" stroke-dasharray="none" stroke-width="1.94999993" fill="none"/>
<g id="g7624" transform="matrix(1.25,0,0,-1.25,-230.46083,806.25817)">
<g id="g7626" clip-path="url(#clipPath7628)">
<path id="path7632" stroke-linejoin="round" d="m132.42,233.7-18,0" stroke="#F00" stroke-linecap="butt" stroke-miterlimit="10" stroke-dasharray="none" stroke-width="1.55999994" fill="none"/>
</g>
</g>
<path id="path7634" stroke-linejoin="round" d="m-64.786,491.33,0,22.5" stroke="#F00" stroke-linecap="butt" stroke-miterlimit="10" stroke-dasharray="none" stroke-width="1.94999993" fill="none"/>
<g id="g7636" transform="matrix(1.25,0,0,-1.25,-230.46083,806.25817)">
<g id="g7638" clip-path="url(#clipPath7640)">
<path id="path7644" stroke-linejoin="round" d="m150.66,251.94-18,0" stroke="#F00" stroke-linecap="butt" stroke-miterlimit="10" stroke-dasharray="none" stroke-width="1.55999994" fill="none"/>
</g>
</g>
<path id="path7646" stroke-linejoin="round" d="m-41.986,468.83,0,22.5" stroke="#F00" stroke-linecap="butt" stroke-miterlimit="10" stroke-dasharray="none" stroke-width="1.94999993" fill="none"/>
<g id="g7648" transform="matrix(1.25,0,0,-1.25,-230.46083,806.25817)">
<g id="g7650" clip-path="url(#clipPath7652)">
<path id="path7656" stroke-linejoin="round" d="m168.9,269.94-18,0" stroke="#F00" stroke-linecap="butt" stroke-miterlimit="10" stroke-dasharray="none" stroke-width="1.55999994" fill="none"/>
</g>
</g>
<path id="path7658" stroke-linejoin="round" d="m-18.736,446.18,0,22.5" stroke="#F00" stroke-linecap="butt" stroke-miterlimit="10" stroke-dasharray="none" stroke-width="1.94999993" fill="none"/>
<g id="g7660" transform="matrix(1.25,0,0,-1.25,-230.46083,806.25817)">
<g id="g7662" clip-path="url(#clipPath7664)">
<path id="path7668" stroke-linejoin="round" d="m187.62,288.06-18,0" stroke="#F00" stroke-linecap="butt" stroke-miterlimit="10" stroke-dasharray="none" stroke-width="1.55999994" fill="none"/>
</g>
</g>
<path id="path7670" stroke-linejoin="round" d="m4.2142,423.68,0,22.5" stroke="#F00" stroke-linecap="butt" stroke-miterlimit="10" stroke-dasharray="none" stroke-width="1.94999993" fill="none"/>
<g id="g7672" transform="matrix(1.25,0,0,-1.25,-230.46083,806.25817)">
<g id="g7674" clip-path="url(#clipPath7676)">
<path id="path7680" stroke-linejoin="round" d="m205.86,306.06-18,0" stroke="#F00" stroke-linecap="butt" stroke-miterlimit="10" stroke-dasharray="none" stroke-width="1.55999994" fill="none"/>
</g>
</g>
<path id="path7682" stroke-linejoin="round" d="m27.014,400.88,0,22.5" stroke="#F00" stroke-linecap="butt" stroke-miterlimit="10" stroke-dasharray="none" stroke-width="1.94999993" fill="none"/>
<g id="g7684" transform="matrix(1.25,0,0,-1.25,-230.46083,806.25817)">
<g id="g7686" clip-path="url(#clipPath7688)">
<path id="path7692" stroke-linejoin="round" d="m224.1,324.3-18,0" stroke="#F00" stroke-linecap="butt" stroke-miterlimit="10" stroke-dasharray="none" stroke-width="1.55999994" fill="none"/>
</g>
</g>
<path id="path7694" stroke-linejoin="round" d="m49.814,378.38,0,22.5" stroke="#F00" stroke-linecap="butt" stroke-miterlimit="10" stroke-dasharray="none" stroke-width="1.94999993" fill="none"/>
<g id="g7696" transform="matrix(1.25,0,0,-1.25,-230.46083,806.25817)">
<g id="g7698" clip-path="url(#clipPath7700)">
<path id="path7704" stroke-linejoin="round" d="m242.34,342.3-18,0" stroke="#F00" stroke-linecap="butt" stroke-miterlimit="10" stroke-dasharray="none" stroke-width="1.55999994" fill="none"/>
</g>
</g>
<path id="path7706" stroke-linejoin="round" d="m72.614,355.88,0,22.5" stroke="#F00" stroke-linecap="butt" stroke-miterlimit="10" stroke-dasharray="none" stroke-width="1.94999993" fill="none"/>
<g id="g7708" transform="matrix(1.25,0,0,-1.25,-230.46083,806.25817)">
<g id="g7710" clip-path="url(#clipPath7712)">
<path id="path7716" stroke-linejoin="round" d="m260.58,360.3-18,0" stroke="#F00" stroke-linecap="butt" stroke-miterlimit="10" stroke-dasharray="none" stroke-width="1.55999994" fill="none"/>
</g>
</g>
<path id="path7718" stroke-linejoin="round" d="m95.414,333.08,0,22.5" stroke="#F00" stroke-linecap="butt" stroke-miterlimit="10" stroke-dasharray="none" stroke-width="1.94999993" fill="none"/>
<g id="g7720" transform="matrix(1.25,0,0,-1.25,-230.46083,806.25817)">
<g id="g7722" clip-path="url(#clipPath7724)">
<path id="path7728" stroke-linejoin="round" d="m278.82,378.54-18,0" stroke="#F00" stroke-linecap="butt" stroke-miterlimit="10" stroke-dasharray="none" stroke-width="1.55999994" fill="none"/>
</g>
</g>
<path id="path7730" stroke-linejoin="round" d="m118.21,310.58,0,22.5" stroke="#F00" stroke-linecap="butt" stroke-miterlimit="10" stroke-dasharray="none" stroke-width="1.94999993" fill="none"/>
<g id="g7732" transform="matrix(1.25,0,0,-1.25,-230.46083,806.25817)">
<g id="g7734" clip-path="url(#clipPath7736)">
<path id="path7740" stroke-linejoin="round" d="m297.06,396.54-18,0" stroke="#F00" stroke-linecap="butt" stroke-miterlimit="10" stroke-dasharray="none" stroke-width="1.55999994" fill="none"/>
</g>
</g>
<g id="g7742" transform="matrix(1.25,0,0,-1.25,-230.46083,806.25817)">
<g id="g7744" clip-path="url(#clipPath7746)">
<path id="path7750" d="m47.303,258.56,0.414,1.7c1.404-0.34,2.478-0.97,3.222-1.89,0.745-0.92,1.123-2.06,1.136-3.4,0.014-1.39-0.258-2.52-0.815-3.39-0.557-0.88-1.369-1.55-2.437-2.01-1.068-0.47-2.217-0.71-3.447-0.72-1.342-0.01-2.515,0.23-3.519,0.74-1.004,0.5-1.77,1.22-2.297,2.16-0.528,0.94-0.797,1.98-0.808,3.12-0.013,1.29,0.305,2.38,0.952,3.26,0.648,0.89,1.565,1.51,2.751,1.86l0.412-1.67c-0.935-0.31-1.613-0.75-2.035-1.32-0.423-0.57-0.63-1.29-0.621-2.15,0.009-0.99,0.255-1.82,0.736-2.48s1.123-1.12,1.925-1.38,1.628-0.39,2.478-0.38c1.095,0.01,2.05,0.18,2.865,0.51,0.814,0.32,1.42,0.83,1.818,1.5,0.397,0.68,0.592,1.41,0.585,2.2-0.009,0.95-0.293,1.76-0.85,2.41-0.557,0.66-1.379,1.1-2.465,1.33zm4.423,9.72-1.371-0.01c1.062-0.72,1.599-1.7,1.611-2.95,0.005-0.55-0.095-1.06-0.301-1.54-0.207-0.48-0.468-0.84-0.785-1.08-0.317-0.23-0.707-0.4-1.169-0.49-0.31-0.07-0.802-0.11-1.475-0.12l-5.783-0.05-0.016,1.58,5.177,0.05c0.826,0.01,1.382,0.05,1.669,0.11,0.415,0.11,0.739,0.32,0.973,0.65,0.235,0.32,0.349,0.72,0.345,1.19-0.005,0.48-0.131,0.92-0.378,1.34-0.247,0.41-0.581,0.7-1.002,0.87-0.42,0.17-1.029,0.25-1.826,0.24l-5.001-0.05-0.015,1.59,9.334,0.09,0.013-1.42zm-0.037,3.84-9.333-0.09-0.014,1.42,1.309,0.01c-0.46,0.29-0.831,0.68-1.114,1.16s-0.428,1.03-0.434,1.66c-0.006,0.69,0.132,1.26,0.414,1.7,0.283,0.45,0.682,0.76,1.195,0.95-1.097,0.73-1.651,1.68-1.662,2.87-0.009,0.92,0.24,1.64,0.748,2.14s1.295,0.76,2.361,0.77l6.407,0.06,0.016-1.57-5.88-0.06c-0.633-0.01-1.088-0.06-1.365-0.17-0.278-0.1-0.5-0.29-0.667-0.56s-0.249-0.59-0.246-0.95c0.007-0.66,0.23-1.2,0.671-1.63s1.141-0.64,2.102-0.63l5.423,0.05,0.015-1.58-6.064-0.06c-0.703-0.01-1.229-0.14-1.578-0.4s-0.521-0.69-0.515-1.27c0.004-0.45,0.125-0.86,0.363-1.23,0.238-0.38,0.584-0.65,1.037-0.82,0.452-0.16,1.104-0.24,1.953-0.23l4.843,0.05,0.015-1.59zm-0.205,21.12-1.371-0.01c1.062-0.72,1.599-1.7,1.611-2.95,0.005-0.55-0.095-1.07-0.302-1.55-0.206-0.48-0.468-0.83-0.785-1.07-0.317-0.23-0.706-0.4-1.168-0.5-0.31-0.06-0.802-0.1-1.476-0.11l-6.197-1.75-0.015,1.58,5.176,0.05c0.826,0.01,1.383,0.04,1.669,0.11,0.415,0.11,0.74,0.32,0.974,0.64,0.234,0.33,0.349,0.73,0.344,1.2-0.004,0.48-0.13,0.92-0.377,1.34-0.248,0.41-0.581,0.7-1.002,0.87s-1.029,0.25-1.826,0.24l-5.001-0.05-0.015,1.58,9.333,0.09,0.014-1.41zm-0.037,3.81-12.884-0.13-0.016,1.58,12.885,0.13,0.015-1.58zm-1.249,10.07c0.503-0.58,0.86-1.14,1.071-1.68,0.21-0.54,0.318-1.12,0.324-1.74,0.01-1.03-0.233-1.82-0.728-2.37-0.496-0.56-1.133-0.84-1.912-0.85-0.457,0-0.876,0.1-1.256,0.3-0.38,0.21-0.686,0.48-0.917,0.81-0.232,0.34-0.409,0.71-0.53,1.13-0.085,0.31-0.169,0.78-0.251,1.41-0.165,1.27-0.355,2.21-0.572,2.81-0.217,0.01-0.355,0.01-0.413,0.01-0.645-0.01-1.098-0.16-1.358-0.46-0.354-0.41-0.527-1.01-0.519-1.81,0.007-0.74,0.143-1.29,0.407-1.64,0.264-0.36,0.728-0.61,1.392-0.78l-0.196-1.55c-0.663,0.14-1.2,0.36-1.611,0.68-0.41,0.32-0.728,0.78-0.953,1.39-0.226,0.61-0.343,1.31-0.351,2.12-0.007,0.79,0.08,1.44,0.263,1.94,0.182,0.5,0.415,0.87,0.697,1.11,0.281,0.23,0.639,0.4,1.071,0.5,0.269,0.05,0.755,0.09,1.459,0.09l2.109,0.02c1.47,0.02,2.4,0.06,2.789,0.13s0.761,0.21,1.117,0.41l0.016-1.65c-0.327-0.17-0.709-0.28-1.148-0.33zm-3.532-0.16c0.24-0.58,0.447-1.44,0.623-2.58,0.1-0.65,0.21-1.11,0.329-1.38,0.12-0.27,0.294-0.47,0.521-0.62,0.227-0.14,0.478-0.21,0.753-0.21,0.422,0,0.772,0.17,1.05,0.49s0.414,0.79,0.408,1.4c-0.005,0.61-0.144,1.15-0.415,1.63-0.271,0.47-0.64,0.81-1.105,1.03-0.359,0.17-0.887,0.25-1.584,0.24h-0.58zm3.197,7.48,1.395,0.24c0.098-0.44,0.149-0.84,0.152-1.19,0.006-0.57-0.081-1.02-0.259-1.34-0.179-0.32-0.415-0.54-0.71-0.67-0.295-0.14-0.916-0.21-1.866-0.21l-5.369-0.06,0.011-1.16-1.231-0.01-0.011,1.16-2.311-0.02-0.965,1.56,3.261,0.03-0.016,1.59,1.231,0.02,0.015-1.59,5.458,0.05c0.451,0,0.741,0.03,0.869,0.09,0.129,0.06,0.23,0.15,0.305,0.28,0.075,0.12,0.111,0.3,0.109,0.54-0.001,0.17-0.024,0.41-0.068,0.69zm-9.665,1.5-1.82-0.01-0.015,1.58,1.819,0.01,0.016-1.58zm11.064,0.11-9.333-0.09-0.015,1.58,9.333,0.09,0.015-1.58zm-0.063,6.54-9.299-3.64-0.016,1.67,5.57,2.06c0.601,0.22,1.226,0.43,1.875,0.62-0.494,0.13-1.088,0.32-1.781,0.57l-5.716,2.02-0.015,1.62,9.368-3.44,0.014-1.48zm-3.13,12.77,0.186,1.64c0.958-0.25,1.703-0.72,2.238-1.41,0.534-0.7,0.806-1.58,0.817-2.67,0.013-1.36-0.397-2.45-1.23-3.26-0.833-0.8-2.008-1.22-3.526-1.23-1.57-0.02-2.793,0.38-3.668,1.18s-1.319,1.84-1.331,3.13c-0.012,1.25,0.403,2.27,1.245,3.07,0.841,0.8,2.033,1.21,3.574,1.22h0.422l0.067-6.96c1.025,0.07,1.807,0.36,2.347,0.89s0.806,1.18,0.799,1.96c-0.006,0.58-0.163,1.07-0.472,1.48-0.308,0.41-0.798,0.73-1.468,0.96zm-2.507-5.22-0.051,5.21c-0.784-0.07-1.371-0.28-1.761-0.61-0.604-0.51-0.902-1.17-0.894-1.97,0.007-0.73,0.256-1.33,0.747-1.83,0.491-0.49,1.144-0.75,1.959-0.8zm5.368,20.16-1.178-0.02c0.932-0.58,1.403-1.44,1.414-2.59,0.007-0.75-0.191-1.43-0.595-2.06s-0.972-1.12-1.704-1.47-1.576-0.53-2.531-0.54c-0.931-0.01-1.778,0.14-2.54,0.44-0.762,0.31-1.348,0.77-1.758,1.39-0.41,0.61-0.619,1.3-0.627,2.07-0.005,0.56,0.109,1.07,0.342,1.51s0.538,0.8,0.917,1.08l-4.623-0.05-0.016,1.58,12.885,0.12,0.014-1.46zm-4.61-5.05c1.196,0.01,2.087,0.27,2.674,0.78,0.586,0.51,0.877,1.11,0.87,1.79-0.007,0.7-0.295,1.28-0.865,1.76s-1.435,0.71-2.596,0.7c-1.277-0.01-2.212-0.27-2.805-0.77s-0.886-1.1-0.879-1.83c0.007-0.7,0.3-1.28,0.879-1.75s1.486-0.69,2.722-0.68zm3.361,15.03c0.504-0.58,0.861-1.14,1.072-1.68,0.21-0.54,0.318-1.12,0.324-1.74,0.01-1.03-0.233-1.82-0.728-2.38-0.496-0.55-1.133-0.83-1.913-0.84-0.457,0-0.875,0.1-1.255,0.3s-0.686,0.47-0.918,0.81c-0.231,0.33-0.408,0.71-0.529,1.13-0.085,0.31-0.169,0.78-0.251,1.4-0.165,1.28-0.356,2.22-0.573,2.82-0.216,0-0.354,0.01-0.413,0.01-0.644-0.01-1.097-0.16-1.358-0.47-0.353-0.4-0.526-1.01-0.518-1.8,0.007-0.75,0.143-1.29,0.407-1.65,0.264-0.35,0.728-0.61,1.392-0.77l-0.196-1.55c-0.664,0.14-1.2,0.36-1.611,0.68-0.41,0.32-0.728,0.78-0.954,1.39-0.225,0.61-0.342,1.31-0.35,2.11s0.08,1.45,0.262,1.95c0.183,0.5,0.415,0.87,0.697,1.1,0.282,0.24,0.639,0.41,1.072,0.51,0.269,0.05,0.755,0.08,1.458,0.09l2.11,0.02c1.47,0.01,2.4,0.06,2.789,0.13s0.761,0.21,1.117,0.41l0.016-1.65c-0.327-0.17-0.71-0.28-1.149-0.33zm-3.531-0.17c0.24-0.57,0.447-1.43,0.622-2.58,0.1-0.64,0.21-1.1,0.33-1.37s0.293-0.48,0.52-0.62c0.227-0.15,0.479-0.22,0.754-0.21,0.422,0,0.772,0.16,1.05,0.49,0.278,0.32,0.414,0.79,0.408,1.4s-0.144,1.15-0.415,1.62c-0.272,0.48-0.64,0.82-1.105,1.04-0.359,0.17-0.887,0.25-1.584,0.24l-0.58-0.01zm3.197,7.49,1.395,0.24c0.098-0.44,0.149-0.84,0.152-1.19,0.006-0.58-0.081-1.02-0.259-1.34-0.179-0.32-0.416-0.54-0.71-0.68-0.295-0.13-0.917-0.2-1.866-0.21l-5.37-0.05,0.012-1.16-1.231-0.01-0.011,1.16-2.312-0.02-0.964,1.56,3.261,0.03-0.016,1.59,1.231,0.01,0.015-1.59,5.458,0.06c0.451,0,0.741,0.03,0.869,0.09s0.23,0.15,0.305,0.27c0.075,0.13,0.111,0.31,0.109,0.55-0.002,0.17-0.025,0.4-0.068,0.69zm0.189,7.68c0.503-0.58,0.861-1.14,1.071-1.68s0.318-1.12,0.324-1.74c0.01-1.03-0.232-1.82-0.728-2.38-0.496-0.55-1.133-0.83-1.912-0.84-0.457-0.01-0.876,0.09-1.256,0.3-0.38,0.2-0.686,0.47-0.917,0.81-0.232,0.33-0.409,0.71-0.53,1.13-0.085,0.31-0.169,0.78-0.251,1.4-0.165,1.28-0.355,2.22-0.572,2.82-0.217,0-0.355,0.01-0.413,0-0.645,0-1.097-0.16-1.358-0.46-0.354-0.4-0.527-1.01-0.519-1.8,0.007-0.75,0.143-1.3,0.407-1.65s0.728-0.61,1.392-0.77l-0.196-1.55c-0.663,0.13-1.2,0.36-1.61,0.68-0.411,0.32-0.729,0.78-0.954,1.39-0.226,0.6-0.343,1.31-0.351,2.11-0.007,0.8,0.08,1.45,0.263,1.95,0.182,0.5,0.415,0.87,0.697,1.1,0.282,0.24,0.639,0.41,1.071,0.51,0.269,0.05,0.756,0.08,1.459,0.09l2.109,0.02c1.471,0.01,2.4,0.06,2.789,0.13s0.761,0.21,1.117,0.41l0.016-1.65c-0.327-0.17-0.709-0.28-1.148-0.33zm-3.532-0.17c0.24-0.57,0.448-1.43,0.623-2.58,0.1-0.65,0.21-1.1,0.33-1.37,0.119-0.27,0.293-0.48,0.52-0.62,0.227-0.15,0.478-0.22,0.753-0.21,0.422,0,0.772,0.16,1.05,0.49,0.278,0.32,0.414,0.79,0.409,1.4-0.006,0.61-0.145,1.15-0.416,1.62-0.271,0.48-0.639,0.82-1.105,1.04-0.359,0.16-0.887,0.24-1.584,0.24l-0.58-0.01z" fill-rule="nonzero" fill="#000"/>
</g>
</g>
<g id="g7752" transform="matrix(1.25,0,0,-1.25,-230.46083,806.25817)">
<g id="g7754" clip-path="url(#clipPath7756)">
<text id="text7760" transform="matrix(1,0,0,-1,645.07,175.8)">
<tspan id="tspan7762" style="writing-mode:lr-tb;" font-weight="normal" fill-rule="nonzero" font-size="18.02400017px" font-variant="normal" y="0" x="0 5.0106721 9.0120001 24.025991" font-family="Arial" fill="#000000">time</tspan>
</text>
</g>
</g>
<path id="path7764" stroke-linejoin="round" d="m72.464,537.53,0,22.5" stroke="#000" stroke-linecap="butt" stroke-miterlimit="10" stroke-dasharray="none" stroke-width="1.94999993" fill="none"/>
<g id="g7766" transform="matrix(1.25,0,0,-1.25,-230.46083,806.25817)">
<g id="g7768" clip-path="url(#clipPath7770)">
<path id="path7774" stroke-linejoin="round" d="m282.18,214.98-39.6,0" stroke="#000" stroke-linecap="butt" stroke-miterlimit="10" stroke-dasharray="none" stroke-width="1.55999994" fill="none"/>
</g>
</g>
<path id="path7776" stroke-linejoin="round" d="m121.51,515.03,0,22.5" stroke="#000" stroke-linecap="butt" stroke-miterlimit="10" stroke-dasharray="none" stroke-width="1.94999993" fill="none"/>
<g id="g7778" transform="matrix(1.25,0,0,-1.25,-230.46083,806.25817)">
<g id="g7780" clip-path="url(#clipPath7782)">
<path id="path7786" stroke-linejoin="round" d="m290.58,232.98-8.88,0" stroke="#000" stroke-linecap="butt" stroke-miterlimit="10" stroke-dasharray="none" stroke-width="1.55999994" fill="none"/>
</g>
</g>
<path id="path7788" stroke-linejoin="round" d="m131.71,492.68,0,22.5" stroke="#000" stroke-linecap="butt" stroke-miterlimit="10" stroke-dasharray="none" stroke-width="1.94999993" fill="none"/>
<g id="g7790" transform="matrix(1.25,0,0,-1.25,-230.46083,806.25817)">
<g id="g7792" clip-path="url(#clipPath7794)">
<path id="path7798" stroke-linejoin="round" d="m297.54,250.86-7.8,0" stroke="#000" stroke-linecap="butt" stroke-miterlimit="10" stroke-dasharray="none" stroke-width="1.55999994" fill="none"/>
</g>
</g>
<path id="path7800" stroke-linejoin="round" d="m141.46,470.18,0,22.5" stroke="#000" stroke-linecap="butt" stroke-miterlimit="10" stroke-dasharray="none" stroke-width="1.94999993" fill="none"/>
<g id="g7802" transform="matrix(1.25,0,0,-1.25,-230.46083,806.25817)">
<g id="g7804" clip-path="url(#clipPath7806)">
<path id="path7810" stroke-linejoin="round" d="m305.46,268.86-7.92,0" stroke="#000" stroke-linecap="butt" stroke-miterlimit="10" stroke-dasharray="none" stroke-width="1.55999994" fill="none"/>
</g>
</g>
<path id="path7812" stroke-linejoin="round" d="m151.06,447.08,0,22.5" stroke="#000" stroke-linecap="butt" stroke-miterlimit="10" stroke-dasharray="none" stroke-width="1.94999993" fill="none"/>
<g id="g7814" transform="matrix(1.25,0,0,-1.25,-230.46083,806.25817)">
<g id="g7816" clip-path="url(#clipPath7818)">
<path id="path7822" stroke-linejoin="round" d="m343.14,287.34-37.68,0" stroke="#000" stroke-linecap="butt" stroke-miterlimit="10" stroke-dasharray="none" stroke-width="1.55999994" fill="none"/>
</g>
</g>
<path id="path7824" stroke-linejoin="round" d="m198.76,424.58,0,22.5" stroke="#000" stroke-linecap="butt" stroke-miterlimit="10" stroke-dasharray="none" stroke-width="1.94999993" fill="none"/>
<g id="g7826" transform="matrix(1.25,0,0,-1.25,-230.46083,806.25817)">
<g id="g7828" clip-path="url(#clipPath7830)">
<path id="path7834" stroke-linejoin="round" d="m381.3,305.34-37.68,0" stroke="#000" stroke-linecap="butt" stroke-miterlimit="10" stroke-dasharray="none" stroke-width="1.55999994" fill="none"/>
</g>
</g>
<path id="path7836" stroke-linejoin="round" d="m245.41,403.28,0,22.5" stroke="#000" stroke-linecap="butt" stroke-miterlimit="10" stroke-dasharray="none" stroke-width="1.94999993" fill="none"/>
<g id="g7838" transform="matrix(1.25,0,0,-1.25,-230.46083,806.25817)">
<g id="g7840" clip-path="url(#clipPath7842)">
<path id="path7846" stroke-linejoin="round" d="m387.18,322.26-6.48,0" stroke="#000" stroke-linecap="butt" stroke-miterlimit="10" stroke-dasharray="none" stroke-width="1.55999994" fill="none"/>
</g>
</g>
<path id="path7848" stroke-linejoin="round" d="m252.76,379.73,0,22.5" stroke="#000" stroke-linecap="butt" stroke-miterlimit="10" stroke-dasharray="none" stroke-width="1.94999993" fill="none"/>
<g id="g7850" transform="matrix(1.25,0,0,-1.25,-230.46083,806.25817)">
<g id="g7852" clip-path="url(#clipPath7854)">
<path id="path7858" stroke-linejoin="round" d="m445.14,341.22-58.2,0" stroke="#000" stroke-linecap="butt" stroke-miterlimit="10" stroke-dasharray="none" stroke-width="1.55999994" fill="none"/>
</g>
</g>
<path id="path7860" stroke-linejoin="round" d="m324.31,357.23,0,22.5" stroke="#000" stroke-linecap="butt" stroke-miterlimit="10" stroke-dasharray="none" stroke-width="1.94999993" fill="none"/>
<g id="g7862" transform="matrix(1.25,0,0,-1.25,-230.46083,806.25817)">
<g id="g7864" clip-path="url(#clipPath7866)">
<path id="path7870" stroke-linejoin="round" d="m461.94,359.22-18,0" stroke="#000" stroke-linecap="butt" stroke-miterlimit="10" stroke-dasharray="none" stroke-width="1.55999994" fill="none"/>
</g>
</g>
<path id="path7872" stroke-linejoin="round" d="m346.21,334.43,0,22.5" stroke="#000" stroke-linecap="butt" stroke-miterlimit="10" stroke-dasharray="none" stroke-width="1.94999993" fill="none"/>
<g id="g7874" transform="matrix(1.25,0,0,-1.25,-230.46083,806.25817)">
<g id="g7876" clip-path="url(#clipPath7878)">
<path id="path7882" stroke-linejoin="round" d="m466.74,377.46-5.4,0" stroke="#000" stroke-linecap="butt" stroke-miterlimit="10" stroke-dasharray="none" stroke-width="1.55999994" fill="none"/>
</g>
</g>
<path id="path7884" stroke-linejoin="round" d="m353.11,311.93,0,22.5" stroke="#000" stroke-linecap="butt" stroke-miterlimit="10" stroke-dasharray="none" stroke-width="1.94999993" fill="none"/>
<g id="g7886" transform="matrix(1.25,0,0,-1.25,-230.46083,806.25817)">
<g id="g7888" clip-path="url(#clipPath7890)">
<path id="path7894" stroke-linejoin="round" d="m472.14,395.46-5.28,0" stroke="#000" stroke-linecap="butt" stroke-miterlimit="10" stroke-dasharray="none" stroke-width="1.55999994" fill="none"/>
</g>
</g>
<g id="g7896" transform="matrix(1.25,0,0,-1.25,-230.46083,806.25817)">
<g id="g7898" clip-path="url(#clipPath7900)">
<text id="text7904" transform="matrix(1,0,0,-1,227.38,303.31)">
<tspan id="tspan7906" style="writing-mode:lr-tb;" font-weight="normal" fill-rule="nonzero" font-size="18px" font-variant="normal" y="0" x="0 9 19.007999 25.002001 28.926001 38.933998 48.852001 52.848" font-family="Arial" fill="#000000">variable</tspan>
</text>
</g>
</g>
<g id="g7908" transform="matrix(1.25,0,0,-1.25,-230.46083,806.25817)">
<g id="g7910" clip-path="url(#clipPath7912)">
<text id="text7916" transform="matrix(1,0,0,-1,227.5,281.71)">
<tspan id="tspan7918" style="writing-mode:lr-tb;" font-weight="normal" fill-rule="nonzero" font-size="18px" font-variant="normal" y="0" x="0 10.008 19.926001 24.93 37.566002 47.574001 53.568001" font-family="Arial" fill="#000000">network</tspan>
</text>
</g>
</g>
<g id="g7920" transform="matrix(1.25,0,0,-1.25,-230.46083,806.25817)">
<g id="g7922" clip-path="url(#clipPath7924)">
<text id="text7928" transform="matrix(1,0,0,-1,237.46,260.11)">
<tspan id="tspan7930" style="writing-mode:lr-tb;" font-weight="normal" fill-rule="nonzero" font-size="18px" font-variant="normal" y="0" x="0 10.008 19.926001 23.922001 33.84" font-family="Arial" fill="#000000">delay</tspan>
</text>
</g>
</g>
<path id="path7932" d="m21.564,433.21,158.95,0,0,1.95-158.95,0,0-1.95zm1.25,4.725-7.5-3.75,7.5-3.75,0,7.5zm156.45-7.5,7.5,3.75-7.5,3.75,0-7.5z" fill-rule="nonzero" fill="#000"/>
<g id="g7934" transform="matrix(1.25,0,0,-1.25,-230.46083,806.25817)">
<g id="g7936" clip-path="url(#clipPath7938)">
<text id="text7942" transform="matrix(1,0,0,-1,343.58,369.34)">
<tspan id="tspan7944" style="writing-mode:lr-tb;" font-weight="normal" fill-rule="nonzero" font-size="18px" font-variant="normal" y="0" x="0 9 12.996 16.92 26.927999 36.846001 41.849998 47.034 56.034 60.029999 69.947998 79.956001" font-family="Arial" fill="#000000">client video</tspan>
</text>
</g>
</g>
<g id="g7946" transform="matrix(1.25,0,0,-1.25,-230.46083,806.25817)">
<g id="g7948" clip-path="url(#clipPath7950)">
<text id="text7954" transform="matrix(1,0,0,-1,359.66,347.74)">
<tspan id="tspan7956" style="writing-mode:lr-tb;" font-weight="normal" fill-rule="nonzero" font-size="18px" font-variant="normal" y="0" x="0 5.994 16.002001 25.002001 34.919998 44.928001 49.931999 53.928001 63.846001" font-family="Arial" fill="#000000">reception</tspan>
</text>
</g>
</g>
<path id="path7958" stroke-linejoin="round" d="m204.61,535.28,0,22.5" stroke="#33C" stroke-linecap="butt" stroke-miterlimit="10" stroke-dasharray="none" stroke-width="1.94999993" fill="none"/>
<g id="g7960" transform="matrix(1.25,0,0,-1.25,-230.46083,806.25817)">
<g id="g7962" clip-path="url(#clipPath7964)">
<path id="path7968" stroke-linejoin="round" d="m366.18,216.78-18,0" stroke="#33C" stroke-linecap="butt" stroke-miterlimit="10" stroke-dasharray="none" stroke-width="1.55999994" fill="none"/>
</g>
</g>
<path id="path7970" stroke-linejoin="round" d="m227.41,512.78,0,22.5" stroke="#33C" stroke-linecap="butt" stroke-miterlimit="10" stroke-dasharray="none" stroke-width="1.94999993" fill="none"/>
<g id="g7972" transform="matrix(1.25,0,0,-1.25,-230.46083,806.25817)">
<g id="g7974" clip-path="url(#clipPath7976)">
<path id="path7980" stroke-linejoin="round" d="m384.42,234.78-18,0" stroke="#33C" stroke-linecap="butt" stroke-miterlimit="10" stroke-dasharray="none" stroke-width="1.55999994" fill="none"/>
</g>
</g>
<path id="path7982" stroke-linejoin="round" d="m250.21,489.98,0,22.5" stroke="#33C" stroke-linecap="butt" stroke-miterlimit="10" stroke-dasharray="none" stroke-width="1.94999993" fill="none"/>
<g id="g7984" transform="matrix(1.25,0,0,-1.25,-230.46083,806.25817)">
<g id="g7986" clip-path="url(#clipPath7988)">
<path id="path7992" stroke-linejoin="round" d="m402.66,253.02-18,0" stroke="#33C" stroke-linecap="butt" stroke-miterlimit="10" stroke-dasharray="none" stroke-width="1.55999994" fill="none"/>
</g>
</g>
<path id="path7994" stroke-linejoin="round" d="m273.01,467.48,0,22.5" stroke="#33C" stroke-linecap="butt" stroke-miterlimit="10" stroke-dasharray="none" stroke-width="1.94999993" fill="none"/>
<g id="g7996" transform="matrix(1.25,0,0,-1.25,-230.46083,806.25817)">
<g id="g7998" clip-path="url(#clipPath8000)">
<path id="path8004" stroke-linejoin="round" d="m420.9,271.02-18,0" stroke="#33C" stroke-linecap="butt" stroke-miterlimit="10" stroke-dasharray="none" stroke-width="1.55999994" fill="none"/>
</g>
</g>
<path id="path8006" stroke-linejoin="round" d="m296.26,444.83,0,22.5" stroke="#33C" stroke-linecap="butt" stroke-miterlimit="10" stroke-dasharray="none" stroke-width="1.94999993" fill="none"/>
<g id="g8008" transform="matrix(1.25,0,0,-1.25,-230.46083,806.25817)">
<g id="g8010" clip-path="url(#clipPath8012)">
<path id="path8016" stroke-linejoin="round" d="m439.62,289.14-18,0" stroke="#33C" stroke-linecap="butt" stroke-miterlimit="10" stroke-dasharray="none" stroke-width="1.55999994" fill="none"/>
</g>
</g>
<path id="path8018" stroke-linejoin="round" d="m319.21,422.33,0,22.5" stroke="#33C" stroke-linecap="butt" stroke-miterlimit="10" stroke-dasharray="none" stroke-width="1.94999993" fill="none"/>
<g id="g8020" transform="matrix(1.25,0,0,-1.25,-230.46083,806.25817)">
<g id="g8022" clip-path="url(#clipPath8024)">
<path id="path8028" stroke-linejoin="round" d="m457.86,307.14-18,0" stroke="#33C" stroke-linecap="butt" stroke-miterlimit="10" stroke-dasharray="none" stroke-width="1.55999994" fill="none"/>
</g>
</g>
<path id="path8030" stroke-linejoin="round" d="m342.01,399.53,0,22.5" stroke="#33C" stroke-linecap="butt" stroke-miterlimit="10" stroke-dasharray="none" stroke-width="1.94999993" fill="none"/>
<g id="g8032" transform="matrix(1.25,0,0,-1.25,-230.46083,806.25817)">
<g id="g8034" clip-path="url(#clipPath8036)">
<path id="path8040" stroke-linejoin="round" d="m476.1,325.38-18,0" stroke="#33C" stroke-linecap="butt" stroke-miterlimit="10" stroke-dasharray="none" stroke-width="1.55999994" fill="none"/>
</g>
</g>
<path id="path8042" stroke-linejoin="round" d="m364.81,377.03,0,22.5" stroke="#33C" stroke-linecap="butt" stroke-miterlimit="10" stroke-dasharray="none" stroke-width="1.94999993" fill="none"/>
<g id="g8044" transform="matrix(1.25,0,0,-1.25,-230.46083,806.25817)">
<g id="g8046" clip-path="url(#clipPath8048)">
<path id="path8052" stroke-linejoin="round" d="m494.34,343.38-18,0" stroke="#33C" stroke-linecap="butt" stroke-miterlimit="10" stroke-dasharray="none" stroke-width="1.55999994" fill="none"/>
</g>
</g>
<path id="path8054" stroke-linejoin="round" d="m387.61,354.53,0,22.5" stroke="#33C" stroke-linecap="butt" stroke-miterlimit="10" stroke-dasharray="none" stroke-width="1.94999993" fill="none"/>
<g id="g8056" transform="matrix(1.25,0,0,-1.25,-230.46083,806.25817)">
<g id="g8058" clip-path="url(#clipPath8060)">
<path id="path8064" stroke-linejoin="round" d="m512.58,361.38-18,0" stroke="#33C" stroke-linecap="butt" stroke-miterlimit="10" stroke-dasharray="none" stroke-width="1.55999994" fill="none"/>
</g>
</g>
<path id="path8066" stroke-linejoin="round" d="m410.41,331.58,0,22.5" stroke="#33C" stroke-linecap="butt" stroke-miterlimit="10" stroke-dasharray="none" stroke-width="1.94999993" fill="none"/>
<g id="g8068" transform="matrix(1.25,0,0,-1.25,-230.46083,806.25817)">
<g id="g8070" clip-path="url(#clipPath8072)">
<path id="path8076" stroke-linejoin="round" d="m530.82,379.74-18,0" stroke="#33C" stroke-linecap="butt" stroke-miterlimit="10" stroke-dasharray="none" stroke-width="1.55999994" fill="none"/>
</g>
</g>
<path id="path8078" stroke-linejoin="round" d="m433.21,309.08,0,22.5" stroke="#33C" stroke-linecap="butt" stroke-miterlimit="10" stroke-dasharray="none" stroke-width="1.94999993" fill="none"/>
<g id="g8080" transform="matrix(1.25,0,0,-1.25,-230.46083,806.25817)">
<g id="g8082" clip-path="url(#clipPath8084)">
<path id="path8088" stroke-linejoin="round" d="m549.06,397.74-18,0" stroke="#33C" stroke-linecap="butt" stroke-miterlimit="10" stroke-dasharray="none" stroke-width="1.55999994" fill="none"/>
</g>
</g>
<g id="g8090" transform="matrix(1.25,0,0,-1.25,-230.46083,806.25817)">
<g id="g8092" clip-path="url(#clipPath8094)">
<text id="text8098" transform="matrix(1,0,0,-1,515.83,362.59)">
<tspan id="tspan8100" style="writing-mode:lr-tb;" font-weight="normal" fill-rule="nonzero" font-size="18px" font-variant="normal" y="0" x="0 9 19.007999 28.926001 37.925999 42.93 52.938 62.891998 67.896004 72.954002 82.961998 86.867996 91.872002" font-family="Arial" fill="#000099">constant bit</tspan>
</text>
</g>
</g>
<g id="g8102" transform="matrix(1.25,0,0,-1.25,-230.46083,806.25817)">
<g id="g8104" clip-path="url(#clipPath8106)">
<text id="text8110" transform="matrix(1,0,0,-1,505.75,340.99)">
<tspan id="tspan8112" style="writing-mode:lr-tb;" font-weight="normal" fill-rule="nonzero" font-size="18.02400017px" font-variant="normal" y="0" x="0 6.0019922 15.95124 20.961912 30.983255 35.993927 45.005928 48.953182 58.920456 68.887726" font-family="Arial" fill="#000099">rate video</tspan>
</text>
</g>
</g>
<g id="g8114" transform="matrix(1.25,0,0,-1.25,-230.46083,806.25817)">
<g id="g8116" clip-path="url(#clipPath8118)">
<text id="text8122" transform="matrix(1,0,0,-1,485.83,319.37)">
<tspan id="tspan8124" style="writing-mode:lr-tb;" font-weight="normal" fill-rule="nonzero" font-size="18px" font-variant="normal" y="0" x="0 10.008 13.914 23.922001 32.633999 42.641998 52.560001 57.563999 62.981998 72.989998 77.994003 82.907997 91.907997 95.903999 99.828003 109.836 119.754" font-family="Arial" fill="#000099">playout at client</tspan>
</text>
</g>
</g>
<g id="g8126" transform="matrix(1.25,0,0,-1.25,-230.46083,806.25817)">
<g id="g8128" clip-path="url(#clipPath8130)">
<text id="text8134" transform="matrix(1,0,0,-1,248.14,174.29)">
<tspan id="tspan8136" style="writing-mode:lr-tb;" font-weight="normal" fill-rule="nonzero" font-size="18px" font-variant="normal" y="0" x="0 9 12.996 16.92 26.927999 36.846001 41.849998 47.034 57.042 60.948002 70.956001 79.667999 89.676003 99.594002" font-family="Arial" fill="#000099">client playout</tspan>
</text>
</g>
</g>
<g id="g8138" transform="matrix(1.25,0,0,-1.25,-230.46083,806.25817)">
<g id="g8140" clip-path="url(#clipPath8142)">
<text id="text8146" transform="matrix(1,0,0,-1,279.12,152.69)">
<tspan id="tspan8148" style="writing-mode:lr-tb;" font-weight="normal" fill-rule="nonzero" font-size="18px" font-variant="normal" y="0" x="0 10.008 19.926001 23.922001 33.84" font-family="Arial" fill="#000099">delay</tspan>
</text>
</g>
</g>
<path id="path8150" d="m82.477,600.11,115-0.8-0.025-1.95-115,0.8,0.025,1.95zm1.2125-4.725-7.475,3.8,7.525,3.7-0.05-7.5zm112.55,6.7,7.475-3.8-7.525-3.7,0.05,7.5z" fill-rule="nonzero" fill="#33C"/>
<path id="path8152" d="m237.54,505.78,0-75.7-1.95,0,0,75.7,1.95,0zm-4.725-1.25,3.75,7.5,3.75-7.5-7.5,0zm7.5-73.2-3.75-7.5-3.75,7.5,7.5,0z" fill-rule="nonzero" fill="#090"/>
<g id="g8154" transform="matrix(1.25,0,0,-1.25,-230.46083,806.25817)">
<g id="g8156" clip-path="url(#clipPath8158)">
<text id="text8162" transform="matrix(-4.4e-8,1,1,4.4e-8,368.4,242.23)">
<tspan id="tspan8164" style="writing-mode:lr-tb;" font-weight="normal" fill-rule="nonzero" font-size="14.06400013px" font-variant="normal" y="0" x="0 7.8195839 15.639168 19.323936 23.275921 31.095505 35.778816 43.42963" font-family="Arial" fill="#009900">buffered</tspan>
</text>
</g>
</g>
<g id="g8166" transform="matrix(1.25,0,0,-1.25,-230.46083,806.25817)">
<g id="g8168" clip-path="url(#clipPath8170)">
<text id="text8174" transform="matrix(-4.4e-8,1,1,4.4e-8,385.22,251.23)">
<tspan id="tspan8176" style="writing-mode:lr-tb;" font-weight="normal" fill-rule="nonzero" font-size="14.03999996px" font-variant="normal" y="0" x="0 6.8374801 9.95436 17.760599 25.566839" font-family="Arial" fill="#009900">video</tspan>
</text>
</g>
</g>
</g>
</svg>
