<?xml version="1.0" encoding="UTF-8" standalone="no"?>
<!-- Created with Inkscape (http://www.inkscape.org/) -->

<svg
   xmlns:dc="http://purl.org/dc/elements/1.1/"
   xmlns:cc="http://creativecommons.org/ns#"
   xmlns:rdf="http://www.w3.org/1999/02/22-rdf-syntax-ns#"
   xmlns:svg="http://www.w3.org/2000/svg"
   xmlns="http://www.w3.org/2000/svg"
   xmlns:sodipodi="http://sodipodi.sourceforge.net/DTD/sodipodi-0.dtd"
   xmlns:inkscape="http://www.inkscape.org/namespaces/inkscape"
   width="228.78238mm"
   height="122.93982mm"
   viewBox="0 0 810.64623 435.61353"
   id="svg10221"
   version="1.1"
   inkscape:version="0.91 r13725"
   sodipodi:docname="EstruturaDaInternet1.svg">
  <defs
     id="defs10223">
    <clipPath
       clipPathUnits="userSpaceOnUse"
       id="clipPath9904">
      <path
         d="M -1.097e-6,1.8311e-4 720,1.8311e-4 720,540.00018 -1.097e-6,540.00018 l 0,-539.99999689 z"
         id="path9906"
         inkscape:connector-curvature="0"
         style="clip-rule:evenodd" />
    </clipPath>
    <clipPath
       clipPathUnits="userSpaceOnUse"
       id="clipPath9916">
      <path
         d="M -6.15e-7,2.4414e-4 720,2.4414e-4 720,540.00024 -6.15e-7,540.00024 l 0,-539.99999586 z"
         id="path9918"
         inkscape:connector-curvature="0"
         style="clip-rule:evenodd" />
    </clipPath>
    <clipPath
       clipPathUnits="userSpaceOnUse"
       id="clipPath9952">
      <path
         d="M 3.092e-6,1.8311e-4 720,1.8311e-4 720,540.00018 3.092e-6,540.00018 l 0,-539.99999689 z"
         id="path9954"
         inkscape:connector-curvature="0"
         style="clip-rule:evenodd" />
    </clipPath>
    <clipPath
       clipPathUnits="userSpaceOnUse"
       id="clipPath9968">
      <path
         d="M -3.05e-7,1.2207e-4 720,1.2207e-4 720,540.00012 -3.05e-7,540.00012 l 0,-539.99999793 z"
         id="path9970"
         inkscape:connector-curvature="0"
         style="clip-rule:evenodd" />
    </clipPath>
    <clipPath
       clipPathUnits="userSpaceOnUse"
       id="clipPath9988">
      <path
         d="M 7.63e-7,1.8311e-4 720,1.8311e-4 720,540.00018 7.63e-7,540.00018 l 0,-539.99999689 z"
         id="path9990"
         inkscape:connector-curvature="0"
         style="clip-rule:evenodd" />
    </clipPath>
    <clipPath
       clipPathUnits="userSpaceOnUse"
       id="clipPath10020">
      <path
         d="m -5.62e-6,1.8311e-4 719.99999562,0 0,539.99999689 -719.99999562,0 0,-539.99999689 z"
         id="path10022"
         inkscape:connector-curvature="0"
         style="clip-rule:evenodd" />
    </clipPath>
    <clipPath
       clipPathUnits="userSpaceOnUse"
       id="clipPath10030">
      <path
         d="m 0,0 239.96,0 0,378.34 L 0,378.34 0,0 Z"
         id="path10032"
         inkscape:connector-curvature="0" />
    </clipPath>
    <clipPath
       clipPathUnits="userSpaceOnUse"
       id="clipPath10684">
      <path
         d="M -1.937e-6,540 720,540 720,1.2207e-4 -3.399e-6,6.104e-6"
         id="path10686"
         inkscape:connector-curvature="0"
         style="clip-rule:evenodd" />
    </clipPath>
    <clipPath
       clipPathUnits="userSpaceOnUse"
       id="clipPath10674">
      <path
         d="M -3.84e-7,540 720,540 720,0 -6.81e-7,0"
         id="path10676"
         inkscape:connector-curvature="0"
         style="clip-rule:evenodd" />
    </clipPath>
    <clipPath
       clipPathUnits="userSpaceOnUse"
       id="clipPath10664">
      <path
         d="M -1.4e-8,540 720,540 720,0 1.851e-6,0"
         id="path10666"
         inkscape:connector-curvature="0"
         style="clip-rule:evenodd" />
    </clipPath>
    <clipPath
       clipPathUnits="userSpaceOnUse"
       id="clipPath10654">
      <path
         d="M -2.549e-6,540 720,540 720,0 -2.125e-6,0"
         id="path10656"
         inkscape:connector-curvature="0"
         style="clip-rule:evenodd" />
    </clipPath>
    <clipPath
       clipPathUnits="userSpaceOnUse"
       id="clipPath10644">
      <path
         d="M -5.635e-6,540 720,540 720,1.2207e-4 l -720.00011627,0"
         id="path10646"
         inkscape:connector-curvature="0"
         style="clip-rule:evenodd" />
    </clipPath>
    <clipPath
       clipPathUnits="userSpaceOnUse"
       id="clipPath10634">
      <path
         d="M -4.099e-6,540 720,540 720,6.104e-6 l -720.000006984,0"
         id="path10636"
         inkscape:connector-curvature="0"
         style="clip-rule:evenodd" />
    </clipPath>
  </defs>
  <sodipodi:namedview
     id="base"
     pagecolor="#ffffff"
     bordercolor="#666666"
     borderopacity="1.0"
     inkscape:pageopacity="0.0"
     inkscape:pageshadow="2"
     inkscape:zoom="0.7"
     inkscape:cx="449.30939"
     inkscape:cy="122.87462"
     inkscape:document-units="px"
     inkscape:current-layer="layer1"
     showgrid="false"
     fit-margin-top="0"
     fit-margin-left="0"
     fit-margin-right="0"
     fit-margin-bottom="0"
     inkscape:window-width="1360"
     inkscape:window-height="719"
     inkscape:window-x="0"
     inkscape:window-y="25"
     inkscape:window-maximized="1" />
  <metadata
     id="metadata10226">
    <rdf:RDF>
      <cc:Work
         rdf:about="">
        <dc:format>image/svg+xml</dc:format>
        <dc:type
           rdf:resource="http://purl.org/dc/dcmitype/StillImage" />
        <dc:title></dc:title>
      </cc:Work>
    </rdf:RDF>
  </metadata>
  <g
     inkscape:label="Layer 1"
     inkscape:groupmode="layer"
     id="layer1"
     transform="translate(117.73701,-125.55385)">
    <path
       d="m 40.006383,152.30669 c -3.6375,0.4875 -10.4375,1.35 -14.6375,2.5625 -4.2,1.225 -8.1625,2.875 -10.4375,4.6375 -2.2625,1.775 -1.3,4.3875 -3.0625,6.1 -1.7625,1.7 -6.1249996,1.825 -7.3749996,4.15 -1.25,2.3125 -1.25,7.925 -0.225,9.875 1.025,1.95 2.325,1.525 6.4624996,1.825 4.15,0.3125 14.075,-0.6625 18.5,0 4.425,0.675 5.1625,2.325 7.9375,4.025 2.775,1.7125 6.1875,5.125 8.7375,6.225 2.55,1.1 4.825,0.7875 6.6875,0.2375 1.875,-0.5375 3.525,-1.3375 4.65,-3.5375 1.1375,-2.1875 1.65,-6.4625 2.275,-9.625 0.625,-3.175 1.1875,-5.975 1.475,-9.4 0.2875,-3.4125 1.025,-8.4125 0.225,-11.2125 -0.7875,-2.8125 -2.6625,-4.45 -4.9875,-5.4875 -2.325,-1.0375 -6.2375,-0.8 -8.9625,-0.8625 -2.725,-0.0625 -3.6375,0 -7.2625,0.4875 z"
       style="fill:#00ccff;fill-opacity:1;fill-rule:evenodd;stroke:none"
       id="path10470"
       inkscape:connector-curvature="0" />
    <text
       y="167.84419"
       x="18.98138"
       style="font-variant:normal;font-weight:normal;font-size:12.5px;font-family:Arial;-inkscape-font-specification:Arial;writing-mode:lr-tb;fill:#000000;fill-opacity:1;fill-rule:nonzero;stroke:none"
       id="text10472">
      <tspan
         x="18.98138 25.968884 32.218884 38.468884 45.456387 51.706387"
         y="167.84419"
         sodipodi:role="line"
         id="tspan10474">access</tspan>
    </text>
    <text
       y="180.34419"
       x="29.73138"
       style="font-variant:normal;font-weight:normal;font-size:12.5px;font-family:Arial;-inkscape-font-specification:Arial;writing-mode:lr-tb;fill:#000000;fill-opacity:1;fill-rule:nonzero;stroke:none"
       id="text10476">
      <tspan
         x="29.73138 36.73138 43.73138"
         y="180.34419"
         sodipodi:role="line"
         id="tspan10478">net</tspan>
    </text>
    <path
       d="m -73.759866,231.05669 c -3.63,0.4875 -10.4375,1.3375 -14.635,2.5625 -4.1975,1.2125 -8.16875,2.8625 -10.4375,4.6375 -2.268754,1.7625 -1.305004,4.3875 -3.062504,6.0875 -1.75875,1.7125 -6.12625,1.8375 -7.375,4.15 -1.2475,2.325 -1.2475,7.925 -0.22625,9.875 1.02125,1.9625 2.325,1.525 6.46625,1.8375 4.141254,0.3 14.067504,-0.675 18.492504,0 4.42375,0.675 5.16125,2.3125 7.94125,4.025 2.78,1.7 6.1825,5.125 8.735,6.2125 2.55375,1.1 4.8225,0.8 6.69375,0.25 1.8725,-0.55 3.5175,-1.3375 4.65125,-3.5375 1.135,-2.2 1.645,-6.4625 2.27,-9.6375 0.62375,-3.175 1.19125,-5.975 1.47375,-9.3875 0.28375,-3.4125 1.02125,-8.4125 0.2275,-11.225 -0.79375,-2.8 -2.66625,-4.45 -4.99125,-5.4875 -2.32625,-1.0375 -6.24,-0.7875 -8.9625,-0.85 -2.72375,-0.0625 -3.63125,0 -7.26125,0.4875 z"
       style="fill:#00ccff;fill-opacity:1;fill-rule:evenodd;stroke:none"
       id="path10480"
       inkscape:connector-curvature="0" />
    <text
       y="246.6317"
       x="-94.837364"
       style="font-variant:normal;font-weight:normal;font-size:12.5px;font-family:Arial;-inkscape-font-specification:Arial;writing-mode:lr-tb;fill:#000000;fill-opacity:1;fill-rule:nonzero;stroke:none"
       id="text10482">
      <tspan
         x="-94.837364 -87.849861 -81.599861 -75.349861 -68.362366 -62.112366"
         y="246.6317"
         sodipodi:role="line"
         id="tspan10484">access</tspan>
    </text>
    <text
       y="259.13168"
       x="-84.087364"
       style="font-variant:normal;font-weight:normal;font-size:12.5px;font-family:Arial;-inkscape-font-specification:Arial;writing-mode:lr-tb;fill:#000000;fill-opacity:1;fill-rule:nonzero;stroke:none"
       id="text10486">
      <tspan
         x="-84.087364 -77.087364 -70.087364"
         y="259.13168"
         sodipodi:role="line"
         id="tspan10488">net</tspan>
    </text>
    <path
       d="m 483.81888,177.30669 c -3.6375,0.4875 -10.4375,1.35 -14.6375,2.5625 -4.2,1.225 -8.175,2.8625 -10.4375,4.6375 -2.275,1.7625 -1.3,4.3875 -3.0625,6.1 -1.7625,1.7 -6.125,1.825 -7.375,4.1375 -1.25,2.325 -1.25,7.9375 -0.225,9.8875 1.0125,1.95 2.325,1.525 6.4625,1.825 4.1375,0.3125 14.075,-0.6625 18.4875,0 4.425,0.675 5.1625,2.325 7.95,4.025 2.775,1.7125 6.175,5.125 8.7375,6.225 2.55,1.1 4.8125,0.7875 6.6875,0.2375 1.875,-0.55 3.5125,-1.3375 4.65,-3.5375 1.1375,-2.1875 1.65,-6.4625 2.275,-9.625 0.625,-3.175 1.1875,-5.9875 1.475,-9.4 0.275,-3.4125 1.0125,-8.4125 0.225,-11.2125 -0.8,-2.8125 -2.6625,-4.4625 -4.9875,-5.5 -2.325,-1.025 -6.25,-0.7875 -8.9625,-0.85 -2.725,-0.0625 -3.6375,0 -7.2625,0.4875 z"
       style="fill:#00ccff;fill-opacity:1;fill-rule:evenodd;stroke:none"
       id="path10490"
       inkscape:connector-curvature="0" />
    <text
       y="192.84419"
       x="462.91885"
       style="font-variant:normal;font-weight:normal;font-size:12.5px;font-family:Arial;-inkscape-font-specification:Arial;writing-mode:lr-tb;fill:#000000;fill-opacity:1;fill-rule:nonzero;stroke:none"
       id="text10492">
      <tspan
         x="462.91885 469.90634 476.15634 482.40634 489.39389 495.64389"
         y="192.84419"
         sodipodi:role="line"
         id="tspan10494">access</tspan>
    </text>
    <text
       y="205.3817"
       x="473.66885"
       style="font-variant:normal;font-weight:normal;font-size:12.5px;font-family:Arial;-inkscape-font-specification:Arial;writing-mode:lr-tb;fill:#000000;fill-opacity:1;fill-rule:nonzero;stroke:none"
       id="text10496">
      <tspan
         x="473.66885 480.66885 487.66885"
         y="205.3817"
         sodipodi:role="line"
         id="tspan10498">net</tspan>
    </text>
    <path
       d="m -17.506117,458.53169 c -3.624999,0.4875 -10.437499,1.35 -14.624999,2.5625 -4.2,1.225 -8.175,2.875 -10.4375,4.6375 -2.275,1.775 -1.3125,4.3875 -3.075,6.1 -1.75,1.7125 -6.12,1.825 -7.36875,4.15 -1.2475,2.3125 -1.2475,7.925 -0.22625,9.87625 1.02125,1.95125 2.32,1.52375 6.47,1.82875 4.1375,0.305 14.0625,-0.67 18.4875,0 4.425,0.67125 5.1625,2.3175 7.9375,4.025 2.787499,1.7075 6.187499,5.1225 8.737499,6.22 2.5500004,1.09875 4.8250004,0.79375 6.7000004,0.245 1.8625,-0.54875 3.5125,-1.3425 4.64999998,-3.5375 1.1375,-2.195 1.63750002,-6.46375 2.26250002,-9.635 0.625,-3.17125 1.2,-5.9725 1.475,-9.3975 0.2875,-3.4125 1.025,-8.4125 0.225,-11.2125 -0.7875,-2.8125 -2.6625,-4.45 -4.9875,-5.4875 -2.325,-1.0375 -6.2375,-0.8 -8.9625004,-0.8625 -2.725,-0.05 -3.625,0 -7.2625,0.4875 z"
       style="fill:#00ccff;fill-opacity:1;fill-rule:evenodd;stroke:none"
       id="path10500"
       inkscape:connector-curvature="0" />
    <text
       y="474.1817"
       x="-38.556114"
       style="font-variant:normal;font-weight:normal;font-size:12.5px;font-family:Arial;-inkscape-font-specification:Arial;writing-mode:lr-tb;fill:#000000;fill-opacity:1;fill-rule:nonzero;stroke:none"
       id="text10502">
      <tspan
         x="-38.556114 -31.568615 -25.318615 -19.068615 -12.081113 -5.8311129"
         y="474.1817"
         sodipodi:role="line"
         id="tspan10504">access</tspan>
    </text>
    <text
       y="486.68793"
       x="-27.80611"
       style="font-variant:normal;font-weight:normal;font-size:12.5px;font-family:Arial;-inkscape-font-specification:Arial;writing-mode:lr-tb;fill:#000000;fill-opacity:1;fill-rule:nonzero;stroke:none"
       id="text10506">
      <tspan
         x="-27.80611 -20.80611 -13.806111"
         y="486.68793"
         sodipodi:role="line"
         id="tspan10508">net</tspan>
    </text>
    <path
       d="m -58.757366,397.29419 c -3.63125,0.4875 -10.4375,1.3375 -14.635,2.5625 -4.1975,1.2125 -8.16875,2.8625 -10.4375,4.6375 -2.26875,1.7625 -1.305,4.3875 -3.06375,6.0875 -1.7575,1.7125 -6.12625,1.8375 -7.37375,4.15 -1.2475,2.325 -1.2475,7.925 -0.22625,9.875 1.02,1.9625 2.325,1.525 6.46625,1.8375 4.14,0.3 14.0675,-0.675 18.4925,0 4.42375,0.6625 5.16125,2.3125 7.94125,4.025 2.77875,1.7 6.1825,5.125 8.735,6.2125 2.5525,1.1 4.8275,0.8 6.69,0.25 1.875,-0.55 3.525,-1.3375 4.65,-3.5375 1.1375,-2.2 1.65,-6.4625 2.275,-9.6375 0.625,-3.175 1.1875,-5.975 1.475,-9.3875 0.2875,-3.4125 1.025,-8.4125 0.225,-11.225 -0.7875,-2.8 -2.6625,-4.45 -4.9875,-5.4875 -2.325,-1.0375 -6.2375,-0.7875 -8.96625,-0.85 -2.7225,-0.0625 -3.63,0 -7.26,0.4875 z"
       style="fill:#00ccff;fill-opacity:1;fill-rule:evenodd;stroke:none"
       id="path10510"
       inkscape:connector-curvature="0" />
    <text
       y="412.9317"
       x="-79.837364"
       style="font-variant:normal;font-weight:normal;font-size:12.5px;font-family:Arial;-inkscape-font-specification:Arial;writing-mode:lr-tb;fill:#000000;fill-opacity:1;fill-rule:nonzero;stroke:none"
       id="text10512">
      <tspan
         x="-79.837364 -72.849861 -66.599861 -60.349865 -53.362366 -47.112366"
         y="412.9317"
         sodipodi:role="line"
         id="tspan10514">access</tspan>
    </text>
    <text
       y="425.4317"
       x="-69.087364"
       style="font-variant:normal;font-weight:normal;font-size:12.5px;font-family:Arial;-inkscape-font-specification:Arial;writing-mode:lr-tb;fill:#000000;fill-opacity:1;fill-rule:nonzero;stroke:none"
       id="text10516">
      <tspan
         x="-69.087364 -62.087368 -55.087368"
         y="425.4317"
         sodipodi:role="line"
         id="tspan10518">net</tspan>
    </text>
    <path
       d="m -81.261116,332.29419 c -3.63,0.4875 -10.4375,1.35 -14.635,2.5625 -4.197504,1.225 -8.167504,2.8625 -10.437504,4.6375 -2.26875,1.7625 -1.30375,4.3875 -3.0625,6.1 -1.75875,1.7 -6.12625,1.825 -7.37375,4.15 -1.24875,2.3125 -1.24875,7.925 -0.2275,9.875 1.02125,1.95 2.32625,1.525 6.46625,1.825 4.14125,0.3125 14.067504,-0.6625 18.492504,0 4.425,0.675 5.1625,2.325 7.94125,4.025 2.78,1.7125 6.18375,5.125 8.73625,6.225 2.5525,1.1 4.82125,0.7875 6.6925,0.2375 1.8725,-0.55 3.5175,-1.3375 4.6525,-3.5375 1.13375,-2.1875 1.645,-6.4625 2.26875,-9.625 0.62375,-3.175 1.19125,-5.9875 1.475,-9.4 0.28375,-3.4125 1.02,-8.4125 0.22625,-11.2125 -0.79375,-2.8125 -2.66625,-4.4625 -4.99125,-5.4875 -2.32625,-1.0375 -6.24,-0.8 -8.9625,-0.8625 -2.7225,-0.0625 -3.63125,0 -7.26125,0.4875 z"
       style="fill:#00ccff;fill-opacity:1;fill-rule:evenodd;stroke:none"
       id="path10520"
       inkscape:connector-curvature="0" />
    <text
       y="347.90668"
       x="-102.33736"
       style="font-variant:normal;font-weight:normal;font-size:12.5px;font-family:Arial;-inkscape-font-specification:Arial;writing-mode:lr-tb;fill:#000000;fill-opacity:1;fill-rule:nonzero;stroke:none"
       id="text10522">
      <tspan
         x="-102.33736 -95.349861 -89.099861 -82.849861 -75.862366 -69.612366"
         y="347.90668"
         sodipodi:role="line"
         id="tspan10524">access</tspan>
    </text>
    <text
       y="360.40668"
       x="-91.587364"
       style="font-variant:normal;font-weight:normal;font-size:12.5px;font-family:Arial;-inkscape-font-specification:Arial;writing-mode:lr-tb;fill:#000000;fill-opacity:1;fill-rule:nonzero;stroke:none"
       id="text10526">
      <tspan
         x="-91.587364 -84.587364 -77.587364"
         y="360.40668"
         sodipodi:role="line"
         id="tspan10528">net</tspan>
    </text>
    <path
       d="m 557.56888,219.80669 c -3.625,0.4875 -10.425,1.3375 -14.625,2.5625 -4.2,1.2125 -8.175,2.8625 -10.4375,4.6375 -2.275,1.7625 -1.3125,4.3875 -3.0625,6.0875 -1.7625,1.7125 -6.125,1.8375 -7.375,4.15 -1.25,2.325 -1.25,7.925 -0.225,9.8875 1.0125,1.95 2.325,1.525 6.4625,1.825 4.1375,0.3 14.0625,-0.675 18.4875,0 4.425,0.675 5.1625,2.3125 7.95,4.025 2.775,1.7125 6.175,5.125 8.725,6.225 2.5625,1.0875 4.825,0.7875 6.7,0.2375 1.875,-0.55 3.5125,-1.3375 4.65,-3.5375 1.1375,-2.2 1.65,-6.4625 2.275,-9.6375 0.6125,-3.1625 1.1875,-5.975 1.475,-9.3875 0.275,-3.4125 1.0125,-8.4125 0.225,-11.225 -0.8,-2.8 -2.675,-4.45 -5,-5.4875 -2.325,-1.0375 -6.2375,-0.7875 -8.9625,-0.85 -2.7125,-0.0625 -3.625,0 -7.2625,0.4875 z"
       style="fill:#00ccff;fill-opacity:1;fill-rule:evenodd;stroke:none"
       id="path10530"
       inkscape:connector-curvature="0" />
    <text
       y="235.3817"
       x="536.69391"
       style="font-variant:normal;font-weight:normal;font-size:12.5px;font-family:Arial;-inkscape-font-specification:Arial;writing-mode:lr-tb;fill:#000000;fill-opacity:1;fill-rule:nonzero;stroke:none"
       id="text10532">
      <tspan
         x="536.69391 543.6814 549.9314 556.1814 563.16888 569.41888"
         y="235.3817"
         sodipodi:role="line"
         id="tspan10534">access</tspan>
    </text>
    <text
       y="247.8817"
       x="547.44391"
       style="font-variant:normal;font-weight:normal;font-size:12.5px;font-family:Arial;-inkscape-font-specification:Arial;writing-mode:lr-tb;fill:#000000;fill-opacity:1;fill-rule:nonzero;stroke:none"
       id="text10536">
      <tspan
         x="547.44391 554.44391 561.44391"
         y="247.8817"
         sodipodi:role="line"
         id="tspan10538">net</tspan>
    </text>
    <path
       d="m 197.53138,128.55669 c -3.6375,0.5 -10.4375,1.35 -14.6375,2.5625 -4.2,1.225 -8.175,2.875 -10.4375,4.6375 -2.275,1.775 -1.3125,4.3875 -3.0625,6.1 -1.7625,1.7125 -6.125,1.825 -7.375,4.15 -1.25,2.3125 -1.25,7.925 -0.225,9.875 1.0125,1.95 2.325,1.525 6.4625,1.825 4.1375,0.3125 14.0625,-0.6625 18.4875,0 4.425,0.675 5.1625,2.325 7.95,4.025 2.775,1.7125 6.175,5.125 8.7375,6.225 2.55,1.1 4.8125,0.8 6.6875,0.25 1.875,-0.55 3.5125,-1.35 4.65,-3.5375 1.1375,-2.2 1.65,-6.475 2.275,-9.6375 0.625,-3.175 1.1875,-5.975 1.475,-9.4 0.275,-3.4125 1.0125,-8.4125 0.225,-11.2125 -0.8,-2.8125 -2.6625,-4.45 -5,-5.4875 -2.325,-1.0375 -6.2375,-0.8 -8.9625,-0.8625 -2.7125,-0.05 -3.625,0 -7.25,0.4875 z"
       style="fill:#00ccff;fill-opacity:1;fill-rule:evenodd;stroke:none"
       id="path10540"
       inkscape:connector-curvature="0" />
    <text
       y="144.09419"
       x="176.54387"
       style="font-variant:normal;font-weight:normal;font-size:12.5px;font-family:Arial;-inkscape-font-specification:Arial;writing-mode:lr-tb;fill:#000000;fill-opacity:1;fill-rule:nonzero;stroke:none"
       id="text10542">
      <tspan
         x="176.54387 183.53139 189.78139 196.03139 203.01888 209.26888"
         y="144.09419"
         sodipodi:role="line"
         id="tspan10544">access</tspan>
    </text>
    <text
       y="156.59419"
       x="187.29387"
       style="font-variant:normal;font-weight:normal;font-size:12.5px;font-family:Arial;-inkscape-font-specification:Arial;writing-mode:lr-tb;fill:#000000;fill-opacity:1;fill-rule:nonzero;stroke:none"
       id="text10546">
      <tspan
         x="187.29387 194.29387 201.29387"
         y="156.59419"
         sodipodi:role="line"
         id="tspan10548">net</tspan>
    </text>
    <path
       d="m -36.256116,192.30669 c -3.625,0.4875 -10.4375,1.3375 -14.6375,2.5625 -4.19375,1.225 -8.165,2.8625 -10.43375,4.6375 -2.26875,1.7625 -1.30375,4.3875 -3.0625,6.1 -1.75875,1.7 -6.12625,1.825 -7.375,4.1375 -1.2475,2.325 -1.2475,7.9375 -0.22625,9.8875 1.02125,1.95 2.32625,1.525 6.46625,1.825 4.14125,0.3 14.0675,-0.675 18.49375,0 4.425,0.675 5.1625,2.3125 7.9375,4.025 2.7875,1.7125 6.1875,5.125 8.7375,6.225 2.55,1.1 4.825,0.7875 6.7,0.2375 1.8625,-0.55 3.5125,-1.3375 4.65,-3.5375 1.125,-2.1875 1.637499,-6.4625 2.262499,-9.6375 0.625,-3.1625 1.1875,-5.975 1.475,-9.3875 0.2875,-3.4125 1.025,-8.4125 0.225,-11.225 -0.7875,-2.8 -2.6625,-4.45 -4.987499,-5.4875 -2.325,-1.0375 -6.2375,-0.7875 -8.9625,-0.85 -2.725,-0.0625 -3.625,0 -7.2625,0.4875 z"
       style="fill:#00ccff;fill-opacity:1;fill-rule:evenodd;stroke:none"
       id="path10550"
       inkscape:connector-curvature="0" />
    <text
       y="207.8817"
       x="-57.306114"
       style="font-variant:normal;font-weight:normal;font-size:12.5px;font-family:Arial;-inkscape-font-specification:Arial;writing-mode:lr-tb;fill:#000000;fill-opacity:1;fill-rule:nonzero;stroke:none"
       id="text10552">
      <tspan
         x="-57.306114 -50.318619 -44.068619 -37.818619 -30.831112 -24.581112"
         y="207.8817"
         sodipodi:role="line"
         id="tspan10554">access</tspan>
    </text>
    <text
       y="220.3817"
       x="-46.556114"
       style="font-variant:normal;font-weight:normal;font-size:12.5px;font-family:Arial;-inkscape-font-specification:Arial;writing-mode:lr-tb;fill:#000000;fill-opacity:1;fill-rule:nonzero;stroke:none"
       id="text10556">
      <tspan
         x="-46.556114 -39.556114 -32.55611"
         y="220.3817"
         sodipodi:role="line"
         id="tspan10558">net</tspan>
    </text>
    <path
       d="m 287.54388,126.05669 c -3.6375,0.5 -10.4375,1.35 -14.6375,2.5625 -4.2,1.225 -8.175,2.875 -10.4375,4.6375 -2.275,1.775 -1.3125,4.3875 -3.0625,6.1 -1.7625,1.7125 -6.125,1.825 -7.375,4.15 -1.25,2.3125 -1.25,7.925 -0.225,9.875 1.0125,1.95 2.325,1.525 6.4625,1.825 4.1375,0.3125 14.0625,-0.6625 18.4875,0 4.425,0.675 5.1625,2.325 7.95,4.025 2.775,1.7125 6.175,5.125 8.7375,6.225 2.55,1.1 4.8125,0.8 6.6875,0.25 1.875,-0.55 3.5125,-1.35 4.65,-3.5375 1.1375,-2.2 1.65,-6.4625 2.275,-9.6375 0.625,-3.175 1.1875,-5.975 1.475,-9.3875 0.275,-3.425 1.0125,-8.425 0.225,-11.225 -0.8,-2.8125 -2.6625,-4.45 -5,-5.4875 -2.325,-1.0375 -6.2375,-0.8 -8.9625,-0.8625 -2.7125,-0.05 -3.625,0 -7.25,0.4875 z"
       style="fill:#00ccff;fill-opacity:1;fill-rule:evenodd;stroke:none"
       id="path10560"
       inkscape:connector-curvature="0" />
    <text
       y="141.59419"
       x="266.56885"
       style="font-variant:normal;font-weight:normal;font-size:12.5px;font-family:Arial;-inkscape-font-specification:Arial;writing-mode:lr-tb;fill:#000000;fill-opacity:1;fill-rule:nonzero;stroke:none"
       id="text10562">
      <tspan
         x="266.56885 273.55637 279.80637 286.05637 293.04385 299.29385"
         y="141.59419"
         sodipodi:role="line"
         id="tspan10564">access</tspan>
    </text>
    <text
       y="154.09419"
       x="277.31885"
       style="font-variant:normal;font-weight:normal;font-size:12.5px;font-family:Arial;-inkscape-font-specification:Arial;writing-mode:lr-tb;fill:#000000;fill-opacity:1;fill-rule:nonzero;stroke:none"
       id="text10566">
      <tspan
         x="277.31885 284.31885 291.31885"
         y="154.09419"
         sodipodi:role="line"
         id="tspan10568">net</tspan>
    </text>
    <path
       d="m 588.83138,483.53544 c -3.6375,0.4875 -10.4375,1.34125 -14.6375,2.56125 -4.2,1.22 -8.1625,2.86625 -10.4375,4.635 -2.2625,1.76875 -1.3,4.39 -3.0625,6.0975 -1.7625,1.7075 -6.125,1.83 -7.375,4.1475 -1.25,2.3175 -1.25,7.9275 -0.225,9.87875 1.025,1.95125 2.325,1.525 6.4625,1.83 4.15,0.305 14.075,-0.67125 18.5,0 4.425,0.67125 5.1625,2.3175 7.9375,4.025 2.775,1.7075 6.1875,5.1225 8.7375,6.22 2.55,1.0975 4.825,0.7925 6.6875,0.24375 1.875,-0.54875 3.525,-1.34125 4.65,-3.53625 1.1375,-2.19625 1.65,-6.465 2.275,-9.63625 0.625,-3.17125 1.1875,-5.97625 1.475,-9.39125 0.2875,-3.415 1.025,-8.415 0.225,-11.22125 -0.8,-2.805 -2.6625,-4.45125 -4.9875,-5.4875 -2.325,-1.0375 -6.2375,-0.79375 -8.9625,-0.85375 -2.725,-0.0612 -3.6375,0 -7.2625,0.4875 z"
       style="fill:#00ccff;fill-opacity:1;fill-rule:evenodd;stroke:none"
       id="path10570"
       inkscape:connector-curvature="0" />
    <text
       y="499.18793"
       x="567.94391"
       style="font-variant:normal;font-weight:normal;font-size:12.5px;font-family:Arial;-inkscape-font-specification:Arial;writing-mode:lr-tb;fill:#000000;fill-opacity:1;fill-rule:nonzero;stroke:none"
       id="text10572">
      <tspan
         x="567.94391 574.9314 581.1814 587.4314 594.41888 600.66888"
         y="499.18793"
         sodipodi:role="line"
         id="tspan10574">access</tspan>
    </text>
    <text
       y="511.71918"
       x="578.69391"
       style="font-variant:normal;font-weight:normal;font-size:12.5px;font-family:Arial;-inkscape-font-specification:Arial;writing-mode:lr-tb;fill:#000000;fill-opacity:1;fill-rule:nonzero;stroke:none"
       id="text10576">
      <tspan
         x="578.69391 585.69391 592.69391"
         y="511.71918"
         sodipodi:role="line"
         id="tspan10578">net</tspan>
    </text>
    <path
       d="m 671.34388,419.79419 c -3.6375,0.4875 -10.4375,1.3375 -14.6375,2.5625 -4.2,1.2125 -8.175,2.8625 -10.4375,4.625 -2.275,1.775 -1.3,4.4 -3.0625,6.1 -1.7625,1.7125 -6.125,1.8375 -7.375,4.15 -1.25,2.3125 -1.25,7.925 -0.225,9.875 1.0125,1.95 2.325,1.525 6.4625,1.8375 4.1375,0.3 14.075,-0.675 18.5,0 4.4125,0.6625 5.15,2.3125 7.9375,4.025 2.775,1.7 6.175,5.1125 8.7375,6.2125 2.55,1.1 4.8125,0.8 6.6875,0.25 1.875,-0.55 3.525,-1.35 4.65,-3.5375 1.1375,-2.2 1.65,-6.4625 2.275,-9.6375 0.625,-3.175 1.1875,-5.975 1.475,-9.3875 0.275,-3.4125 1.0125,-8.425 0.225,-11.225 -0.8,-2.8 -2.6625,-4.45 -4.9875,-5.4875 -2.325,-1.0375 -6.25,-0.7875 -8.9625,-0.85 -2.725,-0.0625 -3.6375,0 -7.2625,0.4875 z"
       style="fill:#00ccff;fill-opacity:1;fill-rule:evenodd;stroke:none"
       id="path10580"
       inkscape:connector-curvature="0" />
    <text
       y="435.4317"
       x="650.48138"
       style="font-variant:normal;font-weight:normal;font-size:12.5px;font-family:Arial;-inkscape-font-specification:Arial;writing-mode:lr-tb;fill:#000000;fill-opacity:1;fill-rule:nonzero;stroke:none"
       id="text10582">
      <tspan
         x="650.48138 657.46887 663.71887 669.96887 676.95642 683.20642"
         y="435.4317"
         sodipodi:role="line"
         id="tspan10584">access</tspan>
    </text>
    <text
       y="447.9317"
       x="661.23138"
       style="font-variant:normal;font-weight:normal;font-size:12.5px;font-family:Arial;-inkscape-font-specification:Arial;writing-mode:lr-tb;fill:#000000;fill-opacity:1;fill-rule:nonzero;stroke:none"
       id="text10586">
      <tspan
         x="661.23138 668.23138 675.23138"
         y="447.9317"
         sodipodi:role="line"
         id="tspan10588">net</tspan>
    </text>
    <path
       d="m 648.83138,329.79419 c -3.625,0.4875 -10.4375,1.35 -14.625,2.5625 -4.2,1.225 -8.175,2.8625 -10.4375,4.6375 -2.275,1.7625 -1.3125,4.3875 -3.0625,6.1 -1.7625,1.7 -6.125,1.825 -7.375,4.15 -1.25,2.3125 -1.25,7.925 -0.225,9.875 1.0125,1.95 2.325,1.525 6.4625,1.825 4.1375,0.3125 14.0625,-0.6625 18.4875,0 4.425,0.675 5.1625,2.325 7.95,4.025 2.775,1.7125 6.175,5.125 8.725,6.225 2.5625,1.1 4.825,0.7875 6.7,0.2375 1.875,-0.55 3.5125,-1.3375 4.65,-3.5375 1.1375,-2.1875 1.65,-6.4625 2.275,-9.625 0.6125,-3.175 1.1875,-5.9875 1.475,-9.4 0.275,-3.4125 1.0125,-8.4125 0.225,-11.2125 -0.8,-2.8125 -2.675,-4.4625 -5,-5.4875 -2.325,-1.0375 -6.2375,-0.8 -8.9625,-0.8625 -2.7125,-0.0625 -3.625,0 -7.2625,0.4875 z"
       style="fill:#00ccff;fill-opacity:1;fill-rule:evenodd;stroke:none"
       id="path10590"
       inkscape:connector-curvature="0" />
    <text
       y="345.40668"
       x="627.98138"
       style="font-variant:normal;font-weight:normal;font-size:12.5px;font-family:Arial;-inkscape-font-specification:Arial;writing-mode:lr-tb;fill:#000000;fill-opacity:1;fill-rule:nonzero;stroke:none"
       id="text10592">
      <tspan
         x="627.98138 634.96887 641.21887 647.46887 654.45642 660.70642"
         y="345.40668"
         sodipodi:role="line"
         id="tspan10594">access</tspan>
    </text>
    <text
       y="357.90668"
       x="638.73138"
       style="font-variant:normal;font-weight:normal;font-size:12.5px;font-family:Arial;-inkscape-font-specification:Arial;writing-mode:lr-tb;fill:#000000;fill-opacity:1;fill-rule:nonzero;stroke:none"
       id="text10596">
      <tspan
         x="638.73138 645.73138 652.73138"
         y="357.90668"
         sodipodi:role="line"
         id="tspan10598">net</tspan>
    </text>
    <path
       d="m 368.79388,507.28294 c -3.625,0.48875 -10.4375,1.3425 -14.625,2.5625 -4.2,1.21875 -8.175,2.865 -10.4375,4.63375 -2.275,1.76875 -1.3125,4.39125 -3.0625,6.09875 -1.7625,1.7075 -6.125,1.83 -7.375,4.14625 -1.25,2.3175 -1.25,7.92875 -0.225,9.88 1.0125,1.95125 2.325,1.52375 6.4625,1.82875 4.1375,0.305 14.0625,-0.67 18.4875,0 4.425,0.67125 5.1625,2.3175 7.95,4.025 2.775,1.7075 6.175,5.1225 8.725,6.22 2.5625,1.09875 4.825,0.79375 6.7,0.245 1.875,-0.54875 3.5125,-1.3425 4.65,-3.5375 1.1375,-2.195 1.65,-6.46375 2.275,-9.635 0.6125,-3.17125 1.1875,-5.97625 1.475,-9.39125 0.275,-3.415 1.0125,-8.41625 0.225,-11.22125 -0.8,-2.805 -2.675,-4.45125 -5,-5.48875 -2.325,-1.03625 -6.2375,-0.7925 -8.9625,-0.85375 -2.7125,-0.0612 -3.625,0 -7.2625,0.4875 z"
       style="fill:#00ccff;fill-opacity:1;fill-rule:evenodd;stroke:none"
       id="path10600"
       inkscape:connector-curvature="0" />
    <text
       y="522.96918"
       x="347.84387"
       style="font-variant:normal;font-weight:normal;font-size:12.5px;font-family:Arial;-inkscape-font-specification:Arial;writing-mode:lr-tb;fill:#000000;fill-opacity:1;fill-rule:nonzero;stroke:none"
       id="text10602">
      <tspan
         x="347.84387 354.83136 361.08136 367.33136 374.31885 380.56885"
         y="522.96918"
         sodipodi:role="line"
         id="tspan10604">access</tspan>
    </text>
    <text
       y="535.46918"
       x="358.59387"
       style="font-variant:normal;font-weight:normal;font-size:12.5px;font-family:Arial;-inkscape-font-specification:Arial;writing-mode:lr-tb;fill:#000000;fill-opacity:1;fill-rule:nonzero;stroke:none"
       id="text10606">
      <tspan
         x="358.59387 365.59387 372.59387"
         y="535.46918"
         sodipodi:role="line"
         id="tspan10608">net</tspan>
    </text>
    <path
       d="m 278.78138,521.03294 c -3.625,0.4875 -10.425,1.34125 -14.625,2.56125 -4.2,1.21875 -8.175,2.86625 -10.4375,4.63375 -2.275,1.76875 -1.3125,4.39125 -3.0625,6.09875 -1.7625,1.7075 -6.125,1.83 -7.375,4.14625 -1.25,2.3175 -1.25,7.92875 -0.225,9.88 1.0125,1.95125 2.325,1.525 6.4625,1.83 4.1375,0.30375 14.0625,-0.67125 18.4875,0 4.425,0.67 5.1625,2.31625 7.95,4.02375 2.775,1.7075 6.175,5.1225 8.725,6.22125 2.5625,1.0975 4.825,0.7925 6.7,0.24375 1.875,-0.54875 3.5125,-1.3425 4.65,-3.5375 1.1375,-2.195 1.65,-6.46375 2.275,-9.635 0.6125,-3.17125 1.1875,-5.97625 1.475,-9.39125 0.275,-3.415 1.0125,-8.41625 0.225,-11.22125 -0.8,-2.805 -2.675,-4.45125 -5,-5.48875 -2.325,-1.03625 -6.2375,-0.7925 -8.9625,-0.85375 -2.7125,-0.06 -3.625,0 -7.2625,0.48875 z"
       style="fill:#00ccff;fill-opacity:1;fill-rule:evenodd;stroke:none"
       id="path10610"
       inkscape:connector-curvature="0" />
    <text
       y="536.71918"
       x="257.81885"
       style="font-variant:normal;font-weight:normal;font-size:12.5px;font-family:Arial;-inkscape-font-specification:Arial;writing-mode:lr-tb;fill:#000000;fill-opacity:1;fill-rule:nonzero;stroke:none"
       id="text10612">
      <tspan
         x="257.81885 264.80637 271.05637 277.30637 284.29385 290.54385"
         y="536.71918"
         sodipodi:role="line"
         id="tspan10614">access</tspan>
    </text>
    <text
       y="549.21918"
       x="268.56885"
       style="font-variant:normal;font-weight:normal;font-size:12.5px;font-family:Arial;-inkscape-font-specification:Arial;writing-mode:lr-tb;fill:#000000;fill-opacity:1;fill-rule:nonzero;stroke:none"
       id="text10616">
      <tspan
         x="268.56885 275.56885 282.56885"
         y="549.21918"
         sodipodi:role="line"
         id="tspan10618">net</tspan>
    </text>
    <path
       d="m 158.76888,506.03419 c -3.625,0.4875 -10.4375,1.34125 -14.6375,2.56125 -4.1875,1.21875 -8.1625,2.86625 -10.4375,4.63375 -2.2625,1.76875 -1.3,4.39125 -3.0625,6.09875 -1.75,1.7075 -6.125,1.83 -7.375,4.14625 -1.2375,2.3175 -1.2375,7.92875 -0.225,9.88 1.025,1.95125 2.325,1.525 6.475,1.82875 4.1375,0.305 14.0625,-0.67 18.4875,0 4.425,0.67125 5.1625,2.3175 7.9375,4.025 2.7875,1.7075 6.1875,5.1225 8.7375,6.22125 2.55,1.0975 4.825,0.7925 6.7,0.24375 1.8625,-0.54875 3.5125,-1.3425 4.65,-3.5375 1.1375,-2.195 1.6375,-6.46375 2.2625,-9.635 0.625,-3.17125 1.2,-5.97625 1.475,-9.39125 0.2875,-3.415 1.025,-8.41625 0.225,-11.22125 -0.7875,-2.805 -2.6625,-4.45125 -4.9875,-5.48875 -2.325,-1.03625 -6.2375,-0.7925 -8.9625,-0.85375 -2.725,-0.0612 -3.625,0 -7.2625,0.48875 z"
       style="fill:#00ccff;fill-opacity:1;fill-rule:evenodd;stroke:none"
       id="path10620"
       inkscape:connector-curvature="0" />
    <text
       y="521.71918"
       x="137.75639"
       style="font-variant:normal;font-weight:normal;font-size:12.5px;font-family:Arial;-inkscape-font-specification:Arial;writing-mode:lr-tb;fill:#000000;fill-opacity:1;fill-rule:nonzero;stroke:none"
       id="text10622">
      <tspan
         x="137.75639 144.7439 150.9939 157.2439 164.23137 170.48137"
         y="521.71918"
         sodipodi:role="line"
         id="tspan10624">access</tspan>
    </text>
    <text
       y="534.21918"
       x="148.50638"
       style="font-variant:normal;font-weight:normal;font-size:12.5px;font-family:Arial;-inkscape-font-specification:Arial;writing-mode:lr-tb;fill:#000000;fill-opacity:1;fill-rule:nonzero;stroke:none"
       id="text10626">
      <tspan
         x="148.50638 155.50638 162.50636"
         y="534.21918"
         sodipodi:role="line"
         id="tspan10628">net</tspan>
    </text>
    <g
       transform="matrix(1.25,0,0,-1.25,-176.43112,606.03169)"
       id="g10630">
      <g
         id="g10632"
         clip-path="url(#clipPath10634)">
        <path
           d="m 436.26,363.41 0.84,2.67 2.67,-0.85 -0.84,-2.67 -2.67,0.85 z m 8.9,-2.82 0.84,2.67 2.68,-0.85 -0.85,-2.67 -2.67,0.85 z m 8.89,-2.81 0.84,2.67 2.69,-0.85 -0.85,-2.67 -2.68,0.85 z"
           style="fill:#0000ff;fill-opacity:1;fill-rule:nonzero;stroke:none"
           id="path10638"
           inkscape:connector-curvature="0" />
      </g>
    </g>
    <g
       transform="matrix(1.25,0,0,-1.25,-176.43112,606.03169)"
       id="g10640">
      <g
         id="g10642"
         clip-path="url(#clipPath10644)">
        <path
           d="m 614.88,254.92 2.05,1.91 1.91,-2.05 -2.06,-1.91 -1.9,2.05 z m 6.35,-6.84 2.05,1.9 1.91,-2.05 -2.06,-1.91 -1.9,2.06 z m 6.34,-6.84 2.05,1.91 1.92,-2.07 -2.06,-1.9 -1.91,2.06 z"
           style="fill:#0000ff;fill-opacity:1;fill-rule:nonzero;stroke:none"
           id="path10648"
           inkscape:connector-curvature="0" />
      </g>
    </g>
    <g
       transform="matrix(1.25,0,0,-1.25,-176.43112,606.03169)"
       id="g10650">
      <g
         id="g10652"
         clip-path="url(#clipPath10654)">
        <path
           d="m 532.68,68.783 0.77,-2.696 -2.7,-0.768 -0.76,2.696 2.69,0.768 z m -8.98,-2.559 0.77,-2.695 -2.7,-0.768 -0.76,2.695 2.69,0.768 z m -8.97,-2.555 0.77,-2.695 -2.71,-0.772 -0.77,2.696 2.71,0.771 z"
           style="fill:#0000ff;fill-opacity:1;fill-rule:nonzero;stroke:none"
           id="path10658"
           inkscape:connector-curvature="0" />
      </g>
    </g>
    <g
       transform="matrix(1.25,0,0,-1.25,-176.43112,606.03169)"
       id="g10660">
      <g
         id="g10662"
         clip-path="url(#clipPath10664)">
        <path
           d="m 194.12,70.791 -0.68,-2.717 -2.72,0.687 0.68,2.717 2.72,-0.687 z m -9.05,2.289 -0.69,-2.718 -2.72,0.687 0.69,2.718 2.72,-0.687 z m -9.04,2.285 -0.69,-2.717 -2.73,0.69 0.69,2.717 2.73,-0.69 z"
           style="fill:#0000ff;fill-opacity:1;fill-rule:nonzero;stroke:none"
           id="path10668"
           inkscape:connector-curvature="0" />
      </g>
    </g>
    <g
       transform="matrix(1.25,0,0,-1.25,-176.43112,606.03169)"
       id="g10670">
      <g
         id="g10672"
         clip-path="url(#clipPath10674)">
        <path
           d="m 64.936,233.11 -2.783,0.33 0.331,2.79 2.783,-0.34 -0.331,-2.78 z m 1.103,9.27 -2.783,0.33 0.332,2.79 2.783,-0.33 -0.332,-2.79 z m 1.103,9.26 -2.784,0.33 0.333,2.8 2.783,-0.33 -0.332,-2.8 z"
           style="fill:#0000ff;fill-opacity:1;fill-rule:nonzero;stroke:none"
           id="path10678"
           inkscape:connector-curvature="0" />
      </g>
    </g>
    <g
       transform="matrix(1.25,0,0,-1.25,-176.43112,606.03169)"
       id="g10680">
      <g
         id="g10682"
         clip-path="url(#clipPath10684)">
        <path
           d="m 220.74,360.83 -0.82,2.68 2.68,0.82 0.82,-2.69 -2.68,-0.81 z m 8.93,2.72 -0.82,2.68 2.69,0.82 0.81,-2.68 -2.68,-0.82 z m 8.92,2.72 -0.82,2.68 2.7,0.82 0.81,-2.68 -2.69,-0.82 z"
           style="fill:#0000ff;fill-opacity:1;fill-rule:nonzero;stroke:none"
           id="path10688"
           inkscape:connector-curvature="0" />
      </g>
    </g>
  </g>
</svg>
