<?xml version="1.0" encoding="UTF-8" standalone="no"?>
<svg
   xmlns:dc="http://purl.org/dc/elements/1.1/"
   xmlns:cc="http://creativecommons.org/ns#"
   xmlns:rdf="http://www.w3.org/1999/02/22-rdf-syntax-ns#"
   xmlns:svg="http://www.w3.org/2000/svg"
   xmlns="http://www.w3.org/2000/svg"
   viewBox="0 0 566.92932 400.63068"
   height="400.63068"
   width="566.92932"
   xml:space="preserve"
   id="svg2"
   version="1.1"><metadata
     id="metadata8"><rdf:RDF><cc:Work
         rdf:about=""><dc:format>image/svg+xml</dc:format><dc:type
           rdf:resource="http://purl.org/dc/dcmitype/StillImage" /><dc:title></dc:title></cc:Work></rdf:RDF></metadata><defs
     id="defs6"><clipPath
       id="clipPath22"
       clipPathUnits="userSpaceOnUse"><path
         id="path20"
         d="M 0,300.473 H 425.197 V 0 H 0 Z" /></clipPath></defs><g
     transform="matrix(1.3333333,0,0,-1.3333333,0,400.63067)"
     id="g10"><path
       id="path12"
       style="fill:#a32617;fill-opacity:1;fill-rule:nonzero;stroke:none"
       d="m 181.794,57.828 h -3.08 v 184.816 h 3.08 z" /><path
       id="path14"
       style="fill:#a32617;fill-opacity:1;fill-rule:nonzero;stroke:none"
       d="m 214.192,125.082 h -1.561 v -8.656 h 1.561 z" /><g
       id="g16"><g
         clip-path="url(#clipPath22)"
         id="g18"><g
           transform="translate(221.9775,116.4258)"
           id="g24"><path
             id="path26"
             style="fill:#a32617;fill-opacity:1;fill-rule:nonzero;stroke:none"
             d="M 0,0 H 1.594 V 8.656 H 0.113 L 0.162,4.604 C 0.18,3.588 0.293,2.482 0.314,2.289 0.191,2.512 -0.213,3.412 -0.725,4.295 L -3.244,8.656 H -4.988 V 0 h 1.531 L -3.523,4.152 C -3.541,5.236 -3.588,6.123 -3.625,6.566 -3.559,6.4 -2.98,5.182 -2.475,4.328 Z" /></g><g
           transform="translate(232.4443,119.0547)"
           id="g28"><path
             id="path30"
             style="fill:#a32617;fill-opacity:1;fill-rule:nonzero;stroke:none"
             d="m 0,0 c 0,0.598 -0.23,1.176 -0.631,1.564 -0.394,0.411 -1.068,0.709 -1.742,0.893 l -1.184,0.297 c -0.988,0.275 -1.369,0.578 -1.369,1.117 0,0.691 0.674,1.121 1.682,1.121 0.775,0 1.558,-0.228 2.336,-0.693 l 0.707,1.099 c -0.774,0.532 -1.996,0.86 -3.11,0.86 -1.929,0 -3.293,-1.072 -3.293,-2.596 0,-0.447 0.129,-0.842 0.381,-1.205 0.348,-0.523 0.953,-0.908 1.737,-1.117 l 1.242,-0.315 c 1.08,-0.281 1.529,-0.681 1.529,-1.296 0,-0.436 -0.226,-0.766 -0.64,-0.993 -0.348,-0.197 -0.729,-0.277 -1.299,-0.277 -0.957,0 -1.782,0.227 -2.682,0.703 l -0.6,-1.201 c 0.977,-0.506 2.094,-0.774 3.194,-0.774 0.892,0 1.662,0.168 2.291,0.51 C -0.549,-1.82 0,-0.949 0,0" /></g><g
           transform="translate(240.3877,125.082)"
           id="g32"><path
             id="path34"
             style="fill:#a32617;fill-opacity:1;fill-rule:nonzero;stroke:none"
             d="m 0,0 h -6.713 v -1.264 h 2.465 v -7.392 h 1.533 v 7.392 h 2.506 z" /></g><path
           id="path36"
           style="fill:#a32617;fill-opacity:1;fill-rule:nonzero;stroke:none"
           d="m 243.577,125.082 h -1.561 v -8.656 h 1.561 z" /><g
           transform="translate(247.9053,116.4258)"
           id="g38"><path
             id="path40"
             style="fill:#a32617;fill-opacity:1;fill-rule:nonzero;stroke:none"
             d="M 0,0 H 1.531 V 7.393 H 4.029 L 4.248,8.656 H -2.465 V 7.393 l 2.465,0 z" /></g><g
           transform="translate(259.3936,117.1035)"
           id="g42"><path
             id="path44"
             style="fill:#a32617;fill-opacity:1;fill-rule:nonzero;stroke:none"
             d="M 0,0 C 0.59,0.537 0.773,1.018 0.773,2.402 V 7.979 H -0.795 V 2.467 c 0,-0.842 -0.08,-1.139 -0.33,-1.465 -0.264,-0.348 -0.768,-0.545 -1.445,-0.545 -0.836,0 -1.461,0.326 -1.696,0.891 -0.095,0.23 -0.132,0.691 -0.132,1.306 V 7.979 H -5.943 V 2.373 c 0,-0.978 0.08,-1.338 0.343,-1.836 0.432,-0.754 1.352,-1.365 3.014,-1.365 1.197,0 2.004,0.281 2.586,0.828" /></g><g
           transform="translate(265.9385,116.4258)"
           id="g46"><path
             id="path48"
             style="fill:#a32617;fill-opacity:1;fill-rule:nonzero;stroke:none"
             d="M 0,0 V 7.393 H 2.5 L 2.717,8.656 H -4 V 7.393 h 2.465 l 0,-7.393 z" /></g><g
           transform="translate(275.2549,118.6816)"
           id="g50"><path
             id="path52"
             style="fill:#a32617;fill-opacity:1;fill-rule:nonzero;stroke:none"
             d="m 0,0 c -0.309,-0.861 -0.975,-1.25 -1.945,-1.25 -0.871,0 -1.532,0.293 -1.842,0.84 -0.348,0.59 -0.549,1.449 -0.549,2.599 0,1.018 0.139,1.725 0.449,2.239 0.342,0.556 1.022,0.904 1.813,0.904 0.92,0 1.576,-0.312 1.974,-1.088 C 0.164,3.705 0.277,3.01 0.277,1.937 0.277,1.047 0.211,0.527 0,0 m 1.135,-1.074 c 0.607,0.74 0.886,1.728 0.886,3.129 0,1.386 -0.312,2.402 -0.945,3.131 -0.719,0.882 -1.724,1.351 -3.121,1.351 -2.482,0 -3.998,-1.685 -3.998,-4.453 0,-1.43 0.381,-2.494 1.201,-3.369 0.725,-0.77 1.596,-1.121 2.897,-1.121 1.431,0 2.355,0.424 3.08,1.332" /></g><g
           transform="translate(289.1709,119.0547)"
           id="g54"><path
             id="path56"
             style="fill:#a32617;fill-opacity:1;fill-rule:nonzero;stroke:none"
             d="m 0,0 c 0,0.598 -0.234,1.176 -0.623,1.564 -0.397,0.411 -1.07,0.709 -1.744,0.893 l -1.186,0.297 c -0.992,0.275 -1.373,0.578 -1.373,1.117 0,0.691 0.678,1.121 1.684,1.121 0.777,0 1.564,-0.228 2.334,-0.693 l 0.703,1.099 C -0.971,5.93 -2.188,6.258 -3.311,6.258 -5.234,6.258 -6.6,5.186 -6.6,3.662 -6.6,3.215 -6.475,2.82 -6.219,2.457 -5.875,1.934 -5.268,1.549 -4.482,1.34 l 1.24,-0.315 c 1.088,-0.281 1.527,-0.681 1.527,-1.296 0,-0.436 -0.23,-0.766 -0.64,-0.993 -0.34,-0.197 -0.725,-0.277 -1.301,-0.277 -0.951,0 -1.772,0.227 -2.676,0.703 l -0.594,-1.201 c 0.967,-0.506 2.088,-0.774 3.194,-0.774 0.886,0 1.662,0.168 2.285,0.51 C -0.539,-1.82 0,-0.949 0,0" /></g><g
           transform="translate(296.4619,119.5703)"
           id="g58"><path
             id="path60"
             style="fill:#a32617;fill-opacity:1;fill-rule:nonzero;stroke:none"
             d="m 0,0 c 0,-0.842 -0.084,-1.139 -0.334,-1.465 -0.264,-0.347 -0.779,-0.545 -1.449,-0.545 -0.836,0 -1.459,0.326 -1.69,0.891 -0.105,0.23 -0.131,0.691 -0.131,1.306 v 5.325 h -1.552 v -5.606 c 0,-0.978 0.08,-1.338 0.351,-1.836 0.428,-0.754 1.344,-1.365 3.006,-1.365 1.201,0 2.008,0.281 2.59,0.828 0.59,0.537 0.766,1.018 0.766,2.403 V 5.512 L 0,5.512 Z" /></g><g
           transform="translate(302.2666,123.834)"
           id="g62"><path
             id="path64"
             style="fill:#a32617;fill-opacity:1;fill-rule:nonzero;stroke:none"
             d="m 0,0 h 1.135 c 0.707,0 1.183,-0.084 1.527,-0.363 0.297,-0.248 0.469,-0.596 0.469,-1.084 0,-0.42 -0.113,-0.758 -0.363,-1.039 C 2.494,-2.766 2.102,-2.922 1.377,-2.922 H 0 Z m 0,-4.152 h 1.41 c 1.084,0 1.6,0.131 2.223,0.595 0.717,0.43 1.185,1.184 1.185,2.202 0,0.962 -0.49,1.744 -1.332,2.193 C 2.977,1.131 2.533,1.248 0.98,1.248 H -1.535 V -7.408 H 0 Z" /></g><g
           transform="translate(314.6592,117.7402)"
           id="g66"><path
             id="path68"
             style="fill:#a32617;fill-opacity:1;fill-rule:nonzero;stroke:none"
             d="m 0,0 h -3.996 v 2.566 h 3.039 V 3.83 h -3.057 v 2.248 h 3.672 l 0.213,1.264 H -5.562 V -1.314 H 0 Z" /></g><g
           transform="translate(319.3506,121.2109)"
           id="g70"><path
             id="path72"
             style="fill:#a32617;fill-opacity:1;fill-rule:nonzero;stroke:none"
             d="M 0,0 H -0.84 V 2.631 H 0.113 C 0.607,2.631 0.955,2.607 1.248,2.506 1.779,2.338 2.09,1.908 2.09,1.367 2.09,0.912 1.926,0.564 1.641,0.352 1.314,0.1 0.855,0 0,0 m 4.229,-4.785 c -0.03,0.051 -0.788,1.064 -1.29,1.779 -0.457,0.608 -0.951,1.248 -1.23,1.594 -0.117,0.146 -0.281,0.299 -0.428,0.398 1.465,0.059 2.403,0.989 2.403,2.414 0,0.805 -0.381,1.504 -0.989,1.944 -0.509,0.377 -1.179,0.527 -2.49,0.527 h -2.582 v -8.656 h 1.537 v 3.701 c 0.293,-0.029 0.506,-0.098 0.748,-0.314 0.436,-0.327 0.879,-0.875 1.615,-2.055 0.299,-0.479 0.582,-0.908 0.827,-1.332 z" /></g><path
           id="path74"
           style="fill:#a32617;fill-opacity:1;fill-rule:nonzero;stroke:none"
           d="m 325.55,116.426 h 1.564 v 8.656 h -1.564 z" /><g
           transform="translate(331.6221,118.2715)"
           id="g76"><path
             id="path78"
             style="fill:#a32617;fill-opacity:1;fill-rule:nonzero;stroke:none"
             d="m 0,0 c -0.348,0.59 -0.543,1.449 -0.543,2.6 0,1.017 0.129,1.724 0.447,2.238 0.334,0.557 1.018,0.904 1.809,0.904 0.92,0 1.578,-0.312 1.975,-1.088 C 3.947,4.115 4.064,3.42 4.064,2.348 4.064,1.457 3.998,0.937 3.783,0.41 3.471,-0.451 2.809,-0.84 1.842,-0.84 0.971,-0.84 0.311,-0.547 0,0 m 4.918,-0.664 c 0.615,0.74 0.893,1.728 0.893,3.129 0,1.387 -0.315,2.402 -0.944,3.131 -0.722,0.883 -1.722,1.351 -3.125,1.351 -2.486,0 -3.998,-1.685 -3.998,-4.453 0,-1.43 0.381,-2.494 1.201,-3.369 0.729,-0.77 1.6,-1.121 2.897,-1.121 1.435,0 2.351,0.424 3.076,1.332" /></g><g
           transform="translate(341.2412,123.8418)"
           id="g80"><path
             id="path82"
             style="fill:#a32617;fill-opacity:1;fill-rule:nonzero;stroke:none"
             d="m 0,0 h 0.961 c 0.49,0 0.838,-0.023 1.131,-0.125 0.531,-0.168 0.846,-0.598 0.846,-1.139 0,-0.455 -0.165,-0.802 -0.444,-1.015 C 2.162,-2.531 1.693,-2.631 0.844,-2.631 H 0 Z m 0,-3.715 c 0.297,-0.029 0.514,-0.098 0.762,-0.314 0.433,-0.326 0.873,-0.875 1.615,-2.055 0.293,-0.478 0.576,-0.908 0.82,-1.332 h 1.875 c -0.029,0.051 -0.787,1.064 -1.281,1.779 -0.465,0.608 -0.955,1.248 -1.238,1.594 -0.11,0.147 -0.278,0.299 -0.424,0.398 1.465,0.059 2.398,0.989 2.398,2.415 0,0.804 -0.377,1.503 -0.982,1.943 C 3.033,1.09 2.359,1.24 1.059,1.24 H -1.523 V -7.416 H 0 Z" /></g><g
           transform="translate(353.3154,123.8418)"
           id="g84"><path
             id="path86"
             style="fill:#a32617;fill-opacity:1;fill-rule:nonzero;stroke:none"
             d="m 0,0 h 1.025 c 0.891,0 1.469,-0.176 1.979,-0.791 0.461,-0.539 0.641,-1.275 0.641,-2.414 0,-1.824 -0.69,-2.633 -1.616,-2.863 -0.23,-0.067 -0.539,-0.1 -0.816,-0.1 l -1.213,0 z m 2.523,-7.307 c 1.071,0.239 2.817,1.424 2.817,4.219 0,2.57 -1.197,3.633 -2.486,4.035 C 2.146,1.24 1.305,1.24 0.4,1.24 h -1.941 v -8.656 h 2.52 c 0.644,0 1.167,0.018 1.544,0.109" /></g><g
           transform="translate(366.4893,117.7402)"
           id="g88"><path
             id="path90"
             style="fill:#a32617;fill-opacity:1;fill-rule:nonzero;stroke:none"
             d="m 0,0 h -3.996 v 2.566 h 3.039 V 3.83 h -3.064 v 2.248 h 3.679 l 0.205,1.264 H -5.566 V -1.314 H 0 Z" /></g><g
           transform="translate(214.1592,107.8086)"
           id="g92"><path
             id="path94"
             style="fill:#a32617;fill-opacity:1;fill-rule:nonzero;stroke:none"
             d="M 0,0 H 3.043 V 1.273 H -0.008 V 3.512 H 3.65 l 0.217,1.263 h -5.424 v -8.654 h 5.553 v 1.315 l -3.996,0 z" /></g><g
           transform="translate(225.79,108.5332)"
           id="g96"><path
             id="path98"
             style="fill:#a32617;fill-opacity:1;fill-rule:nonzero;stroke:none"
             d="m 0,0 c 0.021,-1.018 0.135,-2.123 0.15,-2.318 -0.117,0.23 -0.527,1.121 -1.037,2.004 l -2.515,4.365 h -1.75 v -8.655 h 1.531 l -0.063,4.147 c -0.015,1.08 -0.07,1.977 -0.099,2.42 0.066,-0.172 0.644,-1.381 1.154,-2.24 l 2.465,-4.327 h 1.6 v 8.655 h -1.483 z" /></g><g
           transform="translate(233.5205,107.3945)"
           id="g100"><path
             id="path102"
             style="fill:#a32617;fill-opacity:1;fill-rule:nonzero;stroke:none"
             d="M 0,0 H 1.736 V -2.168 C 1.402,-2.336 0.945,-2.432 0.451,-2.432 c -0.576,0 -1.154,0.151 -1.594,0.411 -0.746,0.451 -1.121,1.347 -1.121,2.779 0,0.824 0.112,1.519 0.346,2.092 0.322,0.804 1.084,1.234 2.189,1.234 0.872,0 1.432,-0.264 2.073,-0.689 l 0.773,0.97 C 2.242,5.01 1.334,5.307 0.256,5.307 c -1.01,0 -1.83,-0.256 -2.555,-0.745 -1.103,-0.771 -1.656,-1.992 -1.656,-3.701 0,-1.381 0.355,-2.406 1.135,-3.209 0.748,-0.808 1.795,-1.234 3.183,-1.234 1.094,0 2.061,0.234 2.918,0.728 V 1.26 h -3.508 z" /></g><g
           transform="translate(240.8662,107.8086)"
           id="g104"><path
             id="path106"
             style="fill:#a32617;fill-opacity:1;fill-rule:nonzero;stroke:none"
             d="M 0,0 H 3.041 V 1.273 H -0.018 V 3.512 H 3.648 L 3.871,4.775 H -1.566 V -3.879 H 4 v 1.315 H 0 Z" /></g><g
           transform="translate(252.4912,108.5332)"
           id="g108"><path
             id="path110"
             style="fill:#a32617;fill-opacity:1;fill-rule:nonzero;stroke:none"
             d="m 0,0 c 0.021,-1.018 0.139,-2.123 0.156,-2.318 -0.113,0.23 -0.527,1.121 -1.035,2.004 l -2.527,4.365 h -1.737 v -8.655 h 1.532 l -0.067,4.147 c -0.021,1.08 -0.072,1.977 -0.101,2.42 0.064,-0.172 0.644,-1.381 1.152,-2.24 l 2.469,-4.327 h 1.594 v 8.655 h -1.481 z" /></g><g
           transform="translate(261.8076,109.1445)"
           id="g112"><path
             id="path114"
             style="fill:#a32617;fill-opacity:1;fill-rule:nonzero;stroke:none"
             d="M 0,0 H -3.457 V 3.439 H -5 v -8.654 h 1.543 V -1.27 H 0 V -5.215 H 1.549 V 3.439 H 0 Z" /></g><g
           transform="translate(267.7979,107.4199)"
           id="g116"><path
             id="path118"
             style="fill:#a32617;fill-opacity:1;fill-rule:nonzero;stroke:none"
             d="M 0,0 C 0.066,0.23 1.201,3.549 1.252,3.783 1.305,3.549 2.389,0.293 2.49,0 Z M 0.414,5.178 -2.813,-3.49 h 1.598 l 0.82,2.256 H 2.85 L 3.67,-3.49 H 5.365 L 2.213,5.178 Z" /></g><g
           transform="translate(277.1885,108.7168)"
           id="g120"><path
             id="path122"
             style="fill:#a32617;fill-opacity:1;fill-rule:nonzero;stroke:none"
             d="m 0,0 h -0.836 v 2.633 h 0.949 c 0.502,0 0.85,-0.029 1.143,-0.135 C 1.787,2.332 2.094,1.912 2.094,1.365 2.094,0.908 1.93,0.557 1.654,0.348 1.318,0.102 0.863,0 0,0 m 1.721,-1.414 c -0.117,0.143 -0.289,0.297 -0.432,0.396 1.465,0.059 2.402,0.985 2.402,2.416 0,0.807 -0.38,1.495 -0.986,1.942 -0.512,0.381 -1.189,0.527 -2.49,0.527 h -2.588 v -8.654 h 1.537 v 3.703 c 0.293,-0.033 0.51,-0.103 0.758,-0.314 0.426,-0.331 0.869,-0.873 1.615,-2.063 0.293,-0.469 0.572,-0.9 0.82,-1.326 h 1.879 c -0.033,0.041 -0.791,1.066 -1.285,1.777 -0.465,0.604 -0.953,1.248 -1.23,1.596" /></g><path
           id="path124"
           style="fill:#a32617;fill-opacity:1;fill-rule:nonzero;stroke:none"
           d="m 283.56,103.93 h 1.564 v 8.654 h -1.564 z" /><g
           transform="translate(289.6162,107.4199)"
           id="g126"><path
             id="path128"
             style="fill:#a32617;fill-opacity:1;fill-rule:nonzero;stroke:none"
             d="M 0,0 C 0.066,0.23 1.201,3.549 1.25,3.783 1.301,3.549 2.381,0.293 2.484,0 Z M 0.404,5.178 -2.818,-3.49 h 1.595 l 0.832,2.256 H 2.85 L 3.67,-3.49 h 1.691 l -3.16,8.668 z" /></g><g
           transform="translate(303.8623,105.2773)"
           id="g130"><path
             id="path132"
             style="fill:#a32617;fill-opacity:1;fill-rule:nonzero;stroke:none"
             d="m 0,0 c -0.234,-0.068 -0.545,-0.102 -0.82,-0.102 h -1.201 v 6.174 h 1.011 c 0.893,0 1.465,-0.183 1.977,-0.791 C 1.422,4.746 1.611,3.996 1.611,2.867 1.611,1.033 0.92,0.234 0,0 M 0.82,7.01 C 0.107,7.307 -0.732,7.307 -1.633,7.307 H -3.57 v -8.655 h 2.515 c 0.645,0 1.162,0.016 1.543,0.118 1.08,0.224 2.823,1.414 2.823,4.209 0,2.566 -1.206,3.642 -2.491,4.031" /></g><g
           transform="translate(311.1689,107.8086)"
           id="g134"><path
             id="path136"
             style="fill:#a32617;fill-opacity:1;fill-rule:nonzero;stroke:none"
             d="m 0,0 h 3.047 v 1.273 h -3.063 v 2.239 h 3.67 l 0.217,1.263 h -5.435 v -8.654 h 5.566 v 1.315 l -4.002,0 z" /></g><g
           transform="translate(322.8799,112.584)"
           id="g138"><path
             id="path140"
             style="fill:#a32617;fill-opacity:1;fill-rule:nonzero;stroke:none"
             d="M 0,0 H -1.557 V -8.654 H 3.41 l 0.248,1.267 -3.658,0 z" /></g><path
           id="path142"
           style="fill:#a32617;fill-opacity:1;fill-rule:nonzero;stroke:none"
           d="m 328.183,103.93 h 1.564 v 8.654 h -1.564 z" /><g
           transform="translate(336.4111,109.0137)"
           id="g144"><path
             id="path146"
             style="fill:#a32617;fill-opacity:1;fill-rule:nonzero;stroke:none"
             d="m 0,0 -1.182,0.293 c -0.99,0.285 -1.371,0.574 -1.371,1.117 0,0.692 0.678,1.123 1.686,1.123 0.762,0 1.553,-0.226 2.332,-0.691 l 0.703,1.101 c -0.766,0.528 -1.984,0.858 -3.105,0.858 -1.93,0 -3.295,-1.067 -3.295,-2.6 0,-0.443 0.13,-0.84 0.38,-1.201 0.348,-0.531 0.956,-0.904 1.747,-1.121 l 1.238,-0.311 C 0.217,-1.711 0.656,-2.105 0.656,-2.736 0.656,-3.164 0.43,-3.494 0.012,-3.721 -0.332,-3.912 -0.713,-4 -1.281,-4 c -0.959,0 -1.78,0.23 -2.688,0.707 l -0.59,-1.201 c 0.971,-0.516 2.088,-0.77 3.194,-0.77 0.886,0 1.658,0.162 2.285,0.506 0.904,0.473 1.453,1.352 1.453,2.307 0,0.59 -0.234,1.162 -0.633,1.56 C 1.352,-0.48 0.674,-0.184 0,0" /></g><g
           transform="translate(345.376,105.3613)"
           id="g148"><path
             id="path150"
             style="fill:#a32617;fill-opacity:1;fill-rule:nonzero;stroke:none"
             d="m 0,0 c -0.293,-0.135 -0.707,-0.201 -1.248,-0.201 h -1.465 v 2.633 h 1.494 c 0.399,0 0.858,-0.047 1.157,-0.182 C 0.33,2.084 0.664,1.723 0.664,1.117 0.664,0.627 0.393,0.18 0,0 m -2.734,5.941 h 1.353 c 0.473,0 0.908,-0.07 1.188,-0.234 C 0.1,5.531 0.312,5.219 0.312,4.809 0.312,4.604 0.268,4.428 0.184,4.264 -0.062,3.82 -0.41,3.686 -1.289,3.686 H -2.734 Z M 1.549,2.645 C 1.234,2.895 0.84,3.076 0.367,3.154 0.74,3.256 1.066,3.439 1.314,3.67 1.729,4.029 1.963,4.52 1.963,5.055 1.963,5.941 1.348,6.662 0.459,6.992 0,7.156 -0.41,7.223 -1.465,7.223 h -2.779 v -8.655 h 3.025 c 0.955,0 1.414,0.041 2.01,0.243 0.953,0.369 1.564,1.222 1.564,2.179 0,0.655 -0.285,1.26 -0.806,1.655" /></g><g
           transform="translate(355.5459,106.1855)"
           id="g152"><path
             id="path154"
             style="fill:#a32617;fill-opacity:1;fill-rule:nonzero;stroke:none"
             d="m 0,0 c -0.314,-0.863 -0.971,-1.256 -1.937,-1.256 -0.876,0 -1.534,0.297 -1.85,0.842 -0.344,0.59 -0.541,1.447 -0.541,2.594 0,1.025 0.135,1.732 0.439,2.24 0.348,0.56 1.026,0.908 1.817,0.908 0.916,0 1.574,-0.31 1.97,-1.09 C 0.168,3.695 0.279,3.008 0.279,1.937 0.279,1.051 0.217,0.518 0,0 m -2.043,6.529 c -2.486,0 -4,-1.679 -4,-4.441 0,-1.436 0.385,-2.502 1.205,-3.369 0.719,-0.78 1.598,-1.121 2.901,-1.121 1.425,0 2.347,0.425 3.076,1.33 0.611,0.736 0.882,1.724 0.882,3.127 0,1.384 -0.31,2.398 -0.933,3.131 -0.725,0.882 -1.729,1.343 -3.131,1.343" /></g><g
           transform="translate(361.2549,107.4199)"
           id="g156"><path
             id="path158"
             style="fill:#a32617;fill-opacity:1;fill-rule:nonzero;stroke:none"
             d="M 0,0 C 0.066,0.23 1.201,3.549 1.25,3.783 1.301,3.549 2.385,0.293 2.48,0 Z M 2.205,5.178 H 0.41 L -2.813,-3.49 h 1.598 l 0.82,2.256 H 2.846 L 3.67,-3.49 h 1.691 z" /></g><path
           id="path160"
           style="fill:#a32617;fill-opacity:1;fill-rule:nonzero;stroke:none"
           d="m 212.603,134.553 h 12.818 v 58.585 h -12.818 z" /><g
           transform="translate(263.0225,170.4619)"
           id="g162"><path
             id="path164"
             style="fill:#a32617;fill-opacity:1;fill-rule:nonzero;stroke:none"
             d="m 0,0 -7.379,1.934 c -5.094,1.351 -6.764,2.871 -6.764,5.901 0,3.963 3.516,6.742 8.526,6.742 4.57,0 8.693,-1.264 14.234,-4.466 l 5.797,8.425 c -5.361,3.713 -12.916,5.901 -20.387,5.901 -12.916,0 -21.873,-7.42 -21.873,-18.118 0,-3.285 0.875,-6.319 2.549,-8.935 2.197,-3.536 5.973,-5.818 12.037,-7.412 l 6.768,-1.775 c 5.445,-1.347 7.99,-3.792 7.99,-7.588 0,-5.217 -3.687,-8.001 -10.719,-8.001 -6.152,0 -11.07,1.85 -16.779,4.717 l -4.57,-9.191 c 6.152,-3.369 13.883,-5.303 20.822,-5.303 15.201,0 25.217,7.834 25.217,19.721 C 15.469,-8.76 10.023,-2.616 0,0" /></g><g
           transform="translate(300.1904,160.3457)"
           id="g166"><path
             id="path168"
             style="fill:#a32617;fill-opacity:1;fill-rule:nonzero;stroke:none"
             d="M 0,0 H 17.311 V 9.605 H -0.17 v 13.578 h 19.414 l 3.076,9.609 h -34.791 v -58.585 h 35.578 v 10.119 H 0 Z" /></g><g
           transform="translate(344.7432,144.3301)"
           id="g170"><path
             id="path172"
             style="fill:#a32617;fill-opacity:1;fill-rule:nonzero;stroke:none"
             d="M 0,0 V 48.808 H -12.564 V -9.777 H 18.793 L 21.873,0 Z" /></g><g
           transform="translate(178.7139,120.498)"
           id="g174"><path
             id="path176"
             style="fill:#a32617;fill-opacity:1;fill-rule:nonzero;stroke:none"
             d="m 0,0 c -12.313,-14.334 -30.535,-23.463 -50.826,-23.463 -36.93,0 -67.059,30.127 -67.059,67.082 0,36.918 30.129,67.039 67.059,67.039 20.291,0 38.513,-9.119 50.826,-23.458 v 3.369 c -12.676,13.711 -30.77,22.337 -50.826,22.337 -38.178,0 -69.307,-31.126 -69.307,-69.287 0,-38.195 31.129,-69.328 69.307,-69.328 20.056,0 38.15,8.629 50.826,22.344 z" /></g><g
           transform="translate(129.5283,196.8623)"
           id="g178"><path
             id="path180"
             style="fill:#a32617;fill-opacity:1;fill-rule:nonzero;stroke:none"
             d="M 0,0 -0.305,0.46 V -0.251 C -1.824,-1.515 -3.223,-2.93 -4.49,-4.44 l -4.846,3.314 -0.896,-1.297 -0.235,0.196 3.252,6.228 h -4.721 v 26.145 c 1.7,0.281 3.411,0.49 5.153,0.628 V -2.858 l 1.351,-0.921 v 34.645 c 1.256,0.075 2.524,0.11 3.791,0.11 0.457,0 0.897,0 1.336,-0.013 V 6.855 L -3.234,4.942 Z m 6.877,-4.44 c 3.471,2.322 7.508,3.879 11.81,4.39 l -0.33,-20.257 c -1.314,-0.712 -2.384,-1.833 -3.043,-3.185 L 0.152,-10.978 c 1.84,2.553 4.125,4.776 6.725,6.538 M 21.504,-33.792 V -52.03 c -0.719,-0.213 -1.352,-0.645 -1.817,-1.215 -4.724,0.373 -9.101,1.969 -12.81,4.478 -2.494,1.691 -4.688,3.805 -6.471,6.203 l 6.471,3.625 11.209,6.194 c 0.996,-0.608 2.18,-0.988 3.418,-1.047 m -0.293,-27.246 c 1.014,-0.02 2.043,-0.004 3.035,0.068 v -30.029 c -6.211,-2.772 -12.945,-4.588 -19.998,-5.244 0.879,1.055 1.658,2.205 2.332,3.457 0.201,0.377 0.389,0.765 0.568,1.15 h 9.727 c 2.687,0 5.973,2.34 4.211,5.655 L 5.684,-57.028 c 0.398,-0.217 0.796,-0.422 1.193,-0.616 1.461,-0.685 2.963,-1.304 4.496,-1.794 l -1.197,-5.735 7.064,-1.476 1.201,5.767 c 0.916,-0.109 1.832,-0.156 2.77,-0.156 m 5.103,1.875 h 4.411 v -28.471 c -1.432,-0.849 -2.897,-1.646 -4.411,-2.383 z m 6.508,0 h 4.41 V -83.22 c -1.425,-1.095 -2.9,-2.142 -4.41,-3.113 z m 6.479,0 h 4.428 v -18.281 c -1.407,-1.436 -2.889,-2.803 -4.428,-4.092 z m -41.338,-5.549 -20.914,12.576 1.779,3.373 4.307,8.183 v 14.619 c 0,1.038 -0.34,1.983 -0.922,2.745 l 13.627,-0.075 c -0.539,-0.753 -0.861,-1.67 -0.861,-2.67 v -14.628 l 24.583,-46.205 c 0.788,-1.48 -0.421,-3.113 -2.687,-3.113 H 7.84 c 3.26,9.408 -0.985,19.834 -9.877,25.195 m -28.129,-8.467 c -2.684,-5.039 -3.039,-10.715 -1.479,-15.808 -2.802,1.511 -5.486,3.232 -8.031,5.123 l 13.524,25.652 7.148,-5.328 c -4.637,-1.674 -8.664,-4.992 -11.162,-9.639 m -10.891,-9.617 c -0.451,0.356 -0.894,0.711 -1.33,1.074 l 2.129,0.457 z m -8.265,7.797 1.787,2.377 8.408,-6.508 -0.113,-0.213 -4.725,-1.01 c -1.892,1.674 -3.68,3.465 -5.357,5.354 m -6.563,8.822 7.028,-5.431 -1.579,-2.102 c -1.992,2.377 -3.816,4.889 -5.449,7.533 m -2.959,5.332 6.951,7.02 10.895,-7.363 -6.856,-9.098 -10.195,7.889 c -0.267,0.509 -0.535,1.033 -0.795,1.552 m -1.084,2.315 -0.105,8.672 h 2.281 l 4.457,-3.014 -6.307,-6.373 c -0.113,0.238 -0.22,0.476 -0.326,0.715 m -0.187,15.15 h 1.777 l -1.754,-1.778 z m -0.069,5.499 4.42,-2.9 -0.523,-0.532 h -3.846 z m -0.091,7.48 h 0.765 l 2.08,-1.34 -2.791,-3.047 z m -0.075,6.423 1.661,-1.133 -1.631,-1.708 z m -0.068,6.01 0.762,-0.786 -0.744,-1.084 z m -0.062,4.575 1.464,-0.862 0.795,-2.398 -0.476,-0.7 -1.758,1.822 z m -0.038,3.382 0.725,-1.858 -0.713,0.423 z m -2.527,-39.847 h 1.348 l 0.052,-4.391 c -0.517,1.439 -0.982,2.9 -1.4,4.391 m -1.445,6.478 h 2.717 l 0.05,-4.406 h -1.867 c -0.344,1.451 -0.648,2.916 -0.9,4.406 m -0.762,6.504 h 3.398 l 0.055,-4.437 h -3.01 c -0.195,1.457 -0.345,2.943 -0.443,4.437 m -0.137,4.131 c 0,0.778 0.02,1.565 0.049,2.344 h 3.408 l 0.049,-4.408 h -3.465 c -0.029,0.687 -0.041,1.369 -0.041,2.064 m 0.616,8.822 h 2.765 l 0.051,-4.411 h -3.273 c 0.105,1.485 0.251,2.946 0.457,4.411 m 2.619,11.195 0.113,-9.124 h -2.406 c 0.543,3.119 1.314,6.174 2.293,9.124 m 14.033,23.518 v -32.642 h -5.994 l -5.809,14.879 c 2.934,6.579 6.936,12.573 11.803,17.763 m 0.146,-60.648 h 2.996 l 3.508,-8.998 -9.228,6.236 z m -2.339,0 -1.791,-1.805 -2.674,1.805 z m -1.487,6.478 4.793,-3.147 -1.256,-1.259 h -9.576 l -1.51,1.016 3.352,3.39 z m -0.111,6.504 -2.654,-2.691 -4.102,2.691 z m -4.094,4.219 3.318,-2.152 h -5.289 z m -0.189,2.256 -0.092,-0.101 -0.154,0.101 z m 3.629,0 1.302,-3.345 -3.607,2.332 0.932,1.013 z m 4.445,2.067 h -3.469 l -0.135,0.352 0.067,0.079 -0.129,0.088 -1.524,3.892 h 5.19 z m -0.942,-6.475 -1.724,4.408 h 15.271 l 0.063,-4.408 z m -2.855,-6.504 -1.234,0.808 3.244,3.285 1.599,-4.093 z m 4.412,-2.067 0.432,-1.109 -1.692,1.109 z m 1.721,-4.406 h -0.131 l 0.092,0.088 z m 5.65,0 h -3.863 l -1.721,4.406 h 4.164 l -1.597,-2.168 z m 4.795,4.406 0.026,-1.318 -2.198,1.318 z m -11.191,2.067 -1.725,4.437 h 12.828 l 0.059,-4.437 z m -9.61,16.469 0.871,0.921 h 0.176 l 0.867,-2.226 z m 1.959,-3.352 -0.117,-0.138 h -5.152 l 2.148,2.272 z m -3.343,9.618 0.212,0.322 0.37,-0.921 z m 0.849,-3.274 h -3.088 l 1.28,1.875 z m 20.746,-51.213 -2.414,-4.575 -8.191,6.344 6.533,8.672 z m -7.269,23.207 h 5.838 l 2.138,-1.59 0.274,-19.526 h 0.125 l -0.076,-0.154 z m -3.26,61.983 c 2.443,2.444 5.068,4.679 7.889,6.692 L -26.262,8.659 V 4.001 h -3.615 l -10.561,8.701 v -35.771 l 16.026,-0.096 1.508,-2.9 1.334,2.54 c 1.406,-0.063 2.457,-1.176 2.457,-2.436 v -1.675 l -27.346,0.143 z m 20.197,13.891 V 10.819 l -11.107,9.158 c 3.469,2.364 7.185,4.389 11.107,6.039 m -4.494,-37.036 5.469,-10.475 -13.484,0.079 V 9.17 l 6.283,-5.169 h -6.123 z m 5.842,18.562 4.289,-3.541 h -4.289 z m 0,19.03 c 1.674,0.657 3.381,1.251 5.127,1.771 V 5.475 l -5.127,4.226 z M -2.77,-27.719 v 1.758 c 0,1.302 1.026,2.641 2.506,2.641 h 0.918 l 2.674,-0.021 -2.674,2.205 -0.472,0.381 -14.202,11.698 2.77,5.324 29.197,-24.086 z m -17.357,6.964 5.086,9.735 0.234,0.457 12.375,-10.192 z m 16.83,-8.626 12.477,-0.062 -2.303,-1.26 -9.961,-5.567 c -0.08,0.189 -0.143,0.374 -0.213,0.566 z m -21.269,-5.428 -1.194,4.408 h 7.178 v -4.408 z m -2.303,-8.571 h 2.892 l 0.985,-3.653 z m -6.035,8.571 h -0.887 l -0.063,4.408 h 5.637 z m 2.427,0 3.336,3.131 0.85,-3.131 z m 5.207,-3.792 0.733,-2.712 h -4.006 z m -4.767,-1.783 -3.184,2.997 0.543,0.511 h 6.873 z m -3.611,-2.996 -0.022,-0.021 v 0.021 z m -0.051,2.067 -0.03,2.123 2.249,-2.123 z m 0.234,-17.088 -0.078,5.697 3.359,-2.504 z m 2.061,-6.077 -1.918,-3.644 -0.084,5.549 z m -1.797,4.002 4.369,4.26 1.281,-0.949 -3.047,-5.789 z m 8.517,10.618 -0.783,-0.766 -1.267,0.766 z m -5.49,2.072 -3.467,2.079 v 0.163 l 2.604,2.164 h 1.75 l 4.666,-4.406 z m 9.885,4.406 -1.303,-2.474 -0.656,2.474 z m -2.527,2.067 -1.198,4.437 h 5.432 v -3.281 l -0.615,-1.156 z m 4.406,70.044 c 1.678,0.461 3.387,0.859 5.127,1.185 V 4.001 h -4.729 L -18.41,4.332 Z M 25.904,-0.18 c 4.084,-0.644 7.885,-2.222 11.153,-4.491 7.06,-4.913 11.652,-13.158 11.498,-22.387 -0.026,-1.188 -0.131,-2.364 -0.303,-3.503 H 35.367 l -6.346,3.809 v 0.046 c 0.022,2.603 -1.347,4.951 -3.468,6.257 z M -1.641,33.231 c -36.365,0 -65.996,-29.657 -65.996,-65.976 0,-36.361 29.631,-66.018 65.996,-66.018 20.43,0 38.707,9.401 50.827,24.069 v 3.595 c -1.081,-1.418 -2.194,-2.816 -3.389,-4.138 v 16.074 h 3.389 v 1.67 l -28.631,-0.008 -0.008,1.98 c 0,1.067 0.898,1.975 1.971,1.975 h 26.668 v 1.658 H 23.17 v 19.67 h 26.016 v 27.941 l -0.762,-0.49 c -1.348,1.628 -2.832,3.13 -4.436,4.487 L 47.307,4.558 41.363,8.622 38.049,3.775 C 37.715,3.942 37.383,4.102 37.057,4.286 35.496,5.048 33.893,5.687 32.232,6.22 l 1.196,5.713 -7.035,1.481 -1.198,-5.742 c -0.916,0.1 -1.84,0.154 -2.783,0.154 -1.201,0.022 -2.373,0 -3.545,-0.104 L 17.801,13.46 10.732,12.138 11.807,6.345 C 10.096,5.839 8.463,5.198 6.877,4.437 L 5.965,3.976 2.779,8.868 -0.25,6.894 1.018,7.751 V 30.925 C 20.654,30.121 38.033,20.312 49.186,5.562 V 9.17 C 37.066,23.831 18.789,33.231 -1.641,33.231" /></g></g></g></g></svg>