<?xml version="1.0" encoding="UTF-8" standalone="no"?>
<!-- Created with Inkscape (http://www.inkscape.org/) -->

<svg
   xmlns:dc="http://purl.org/dc/elements/1.1/"
   xmlns:cc="http://creativecommons.org/ns#"
   xmlns:rdf="http://www.w3.org/1999/02/22-rdf-syntax-ns#"
   xmlns:svg="http://www.w3.org/2000/svg"
   xmlns="http://www.w3.org/2000/svg"
   xmlns:sodipodi="http://sodipodi.sourceforge.net/DTD/sodipodi-0.dtd"
   xmlns:inkscape="http://www.inkscape.org/namespaces/inkscape"
   width="200.60002mm"
   height="55.693027mm"
   viewBox="0 0 710.78748 197.3375"
   id="svg3924"
   version="1.1"
   inkscape:version="0.91 r13725"
   sodipodi:docname="BGPPoliticas.svg">
  <defs
     id="defs3926">
    <linearGradient
       x1="197.63"
       y1="99.410004"
       x2="-55.278"
       y2="99.410004"
       gradientUnits="userSpaceOnUse"
       spreadMethod="pad"
       id="linearGradient396">
      <stop
         style="stop-opacity:1;stop-color:#ffffff"
         offset="0"
         id="stop398" />
      <stop
         style="stop-opacity:1;stop-color:#66ccff"
         offset="1"
         id="stop400" />
    </linearGradient>
    <linearGradient
       x1="492.62"
       y1="115.91"
       x2="745.53003"
       y2="115.91"
       gradientUnits="userSpaceOnUse"
       spreadMethod="pad"
       id="linearGradient132">
      <stop
         style="stop-opacity:1;stop-color:#ffffff"
         offset="0"
         id="stop134" />
      <stop
         style="stop-opacity:1;stop-color:#66ccff"
         offset="1"
         id="stop136" />
    </linearGradient>
    <linearGradient
       x1="270.16"
       y1="153.59"
       x2="415.34"
       y2="44.661999"
       gradientUnits="userSpaceOnUse"
       spreadMethod="pad"
       id="linearGradient5191">
      <stop
         style="stop-opacity:1;stop-color:#ffffff"
         offset="0"
         id="stop5193" />
      <stop
         style="stop-opacity:1;stop-color:#ff0000"
         offset="1"
         id="stop5195" />
    </linearGradient>
    <linearGradient
       x1="333.51999"
       y1="88.731003"
       x2="173.98"
       y2="175.27"
       gradientUnits="userSpaceOnUse"
       spreadMethod="pad"
       id="linearGradient5181">
      <stop
         style="stop-opacity:1;stop-color:#ffffff"
         offset="0"
         id="stop5183" />
      <stop
         style="stop-opacity:1;stop-color:#ff0000"
         offset="1"
         id="stop5185" />
    </linearGradient>
  </defs>
  <sodipodi:namedview
     id="base"
     pagecolor="#ffffff"
     bordercolor="#666666"
     borderopacity="1.0"
     inkscape:pageopacity="0.0"
     inkscape:pageshadow="2"
     inkscape:zoom="1.2667005"
     inkscape:cx="379.66162"
     inkscape:cy="162.18689"
     inkscape:document-units="px"
     inkscape:current-layer="layer1"
     showgrid="false"
     fit-margin-top="0"
     fit-margin-left="0"
     fit-margin-right="0"
     fit-margin-bottom="0"
     inkscape:window-width="1166"
     inkscape:window-height="1056"
     inkscape:window-x="2121"
     inkscape:window-y="0"
     inkscape:window-maximized="0" />
  <metadata
     id="metadata3929">
    <rdf:RDF>
      <cc:Work
         rdf:about="">
        <dc:format>image/svg+xml</dc:format>
        <dc:type
           rdf:resource="http://purl.org/dc/dcmitype/StillImage" />
        <dc:title></dc:title>
      </cc:Work>
    </rdf:RDF>
  </metadata>
  <g
     inkscape:label="Layer 1"
     inkscape:groupmode="layer"
     id="layer1"
     transform="translate(32.427219,-435.38244)">
    <path
       d="m 176.01651,443.81994 -4.225,0.775 -2.5,0.475 -2.0375,0.3125 -1.7125,0.9375 -2.1875,0.775 -2.0375,1.25 -1.7125,1.25 -1.725,1.725 -2.025,2.025 -1.725,2.1875 -1.7125,2.5 -1.5625,2.0375 -0.9375,2.5 -0.7875,1.25 0,1.25 -0.4625,0.9375 0,1.25 0,1.25 0,1.25 0.4625,2.5 0.7875,2.025 1.25,2.6625 1.7125,2.5 1.25,2.5 2.1875,2.025 1.5625,2.1875 1.725,2.0375 1.7125,1.7125 1.725,1.5625 1.7125,2.1875 1.25,0.3125 1.25,0.9375 1.25,0.7875 1.25,0.4625 1.725,0.7875 1.5625,0.4625 2.1875,0.475 2.0375,0.3125 1.25,0 1.25,0.4625 2.9625,0.475 3.4375,0.3125 3.2875,0 3.75,0.4625 3.90001,0.475 3.75,0 4.225,0.3125 3.75,0 3.75,-0.3125 3.75,0 3.9,-0.475 2.975,-0.775 2.8125,-0.9375 1.25,-0.3125 1.25,-0.9375 1.4,-0.3125 0.7875,-0.9375 0.775,-0.7875 0.9375,-0.9375 1.25,-2.025 0.7875,-2.0375 0.9375,-2.9625 0.3125,-2.975 0.4625,-2.9625 0.475,-3.2875 0,-3.4375 0,-3.275 -0.475,-2.975 -0.4625,-3.275 0,-2.975 -0.3125,-2.9625 -0.475,-2.5 -0.4625,-2.0375 -0.475,-0.9375 0,-0.775 -0.3125,-1.25 -0.4625,-1.25 -0.475,-1.25 -0.3125,-0.475 -0.4625,-0.775 -0.7875,-0.475 -0.9375,-0.4625 -0.3125,0 -2.1875,-0.3125 -1.7125,0 -2.5,0 -2.0375,0 -1.25,0 -1.25,-0.475 -2.9625,0 -3.4375,0 -3.2875,0 -3.75,0.475 -3.4375,0 -3.4375,0 -2.8125,0 -2.96251,-0.475 -2.975,0 -2.5,-0.775 -2.9625,-0.475 -2.5,-0.4625 -2.1875,-0.3125 -2.0375,0 -0.775,0 -0.9375,0 z"
       style="fill:#33ccff;fill-opacity:1;fill-rule:evenodd;stroke:none"
       id="path5394"
       inkscape:connector-curvature="0" />
    <path
       d="m 74.766507,496.15744 -4.6875,0.775 -2.037501,0.475 -2.1875,0.4625 -2.024999,0.7875 -2.1875,0.775 -2.037501,1.25 -1.7125,1.25 -1.725,1.725 -2.025,2.1875 -1.725,2.025 -1.7125,2.5 -1.25,2.03751 -1.25,2.65 -0.3125,1.25 -0.475,1.25 -0.4625,0.7875 0,1.25 0,1.25 0,1.25 0.4625,1.25 0,1.25 1.25,2.1875 1.25,2.5 1.25,2.5 1.725,2.5 1.7125,2.025 1.5625,2.2 1.725,2.025 1.7125,1.725 1.725001,1.7125 2.025,2.0375 0.7875,0.4625 1.399999,0.7875 1.25,0.775 1.5625,0.475 1.250001,0.775 1.725,0.475 2.1875,0.4625 2.025,0.475 1.25,0 1.25,0.3125 2.975,0.4625 3.4375,0.475 3.275001,0 3.75,0.3125 3.9125,0.4625 3.75,0 4.212502,0.475 3.75,0 3.75,-0.475 3.75,0 3.9125,-0.4625 2.8125,-0.7875 2.9625,-0.775 1.25,-0.475 1.25,-0.9375 1.25,-0.3125 0.9375,-0.9375 0.7875,-0.775 0.9375,-0.7875 1.25,-2.1875 0.775,-2.025 0.7875,-2.975 0.4625,-2.975 0.475,-2.8125 0.3125,-3.4375 0,-3.275 0,-3.4375 -0.3125,-2.975 0,-3.275 -0.475,-2.975 -0.4625,-2.96251 -0.3125,-2.5 0,-2.0375 -0.475,-0.775 0,-0.9375 -0.4625,-1.25 -0.3125,-1.25 -0.475,-1.25 -0.4625,-0.475 -0.7875,-0.775 -0.4625,-0.475 -0.7875,-0.3125 -0.9375,0 -1.5625,-0.4625 -2.1875,0 -2.025,0 -2.5,0 -1.25,0 -1.4125,-0.475 -2.8125,0 -3.4375,0 -3.275,0 -3.9125,0.475 -3.275,0 -3.437502,0 -2.975,0 -2.8125,-0.475 -2.9625,0 -2.5,-0.775 -2.975001,-0.475 -2.5,-0.3125 -2.1875,-0.4625 -1.7125,0 -0.7875,0 -0.775,0 z"
       style="fill:#33ccff;fill-opacity:1;fill-rule:evenodd;stroke:none"
       id="path5396"
       inkscape:connector-curvature="0" />
    <text
       y="533.09491"
       x="83.416512"
       style="font-variant:normal;font-weight:bold;font-size:22.5px;font-family:Arial;-inkscape-font-specification:'Arial Bold';writing-mode:lr-tb;fill:#ffffff;fill-opacity:1;fill-rule:nonzero;stroke:none"
       id="text5398">
      <tspan
         x="83.416512"
         y="533.09491"
         id="tspan5400">A</tspan>
    </text>
    <text
       y="481.80746"
       x="190.16652"
       style="font-variant:normal;font-weight:normal;font-size:22.5px;font-family:Arial;-inkscape-font-specification:Arial;writing-mode:lr-tb;fill:#ffffff;fill-opacity:1;fill-rule:nonzero;stroke:none"
       id="text5402">
      <tspan
         x="190.16652"
         y="481.80746"
         id="tspan5404">B</tspan>
    </text>
    <path
       d="m 182.41651,541.78245 -2.1875,0 -2.5,0.4625 -2.1875,0.475 -2.0375,0.775 -2.025,0.475 -2.1875,1.25 -1.725,1.25 -1.5625,1.25 -1.7125,1.5625 -2.1875,1.7125 -1.5625,2.1875 -1.725,2.5 -1.7125,2.5 -1.25,2.0375 -0.475,1.25 -0.3125,1.25 -0.4625,1.25 0,1.25 0,1.25 0.4625,0.9375 0.3125,2.5 0.9375,2.5 1.25,2.5 1.25,2.5 1.725,2.1875 1.5625,2.025 1.7125,2.0375 1.725,2.1875 1.7125,2.025 2.0375,1.725 1.7125,1.7125 1.25,0.7875 1.25,0.775 1.25,0.9375 1.25,0.3125 1.725,0.9375 1.725,0.3125 2.025,0.475 2.1875,0.4625 1.25,0 1.25,0.3125 2.975,0.475 2.8125,0 3.43751,0.4625 3.75,0.475 3.75,0.3125 3.9,0 4.0625,0 3.9125,0 3.75,0 3.75,-0.3125 3.75,-0.475 2.9625,-0.4625 2.975,-0.7875 1.25,-0.9375 1.25,-0.3125 1.25,-0.4625 0.9375,-0.7875 0.775,-0.9375 0.7875,-0.775 1.25,-2.0375 1.4,-2.65 0.7875,-2.5 0.4625,-2.8125 0.3125,-3.4375 0.475,-2.975 0,-3.275 -0.475,-3.4375 0,-3.2875 -0.3125,-3.275 0,-2.975 -0.4625,-2.5 -0.475,-2.9625 -0.3125,-2.0375 -0.4625,-0.9375 0,-0.775 -0.475,-1.25 -0.4625,-1.25 -0.3125,-0.9375 -0.475,-0.7875 -0.775,-0.4625 -0.475,-0.3125 -0.775,-0.475 -0.9375,0 -1.725,-0.4625 -2.025,0 -2.0375,0 -2.1875,-0.3125 -1.25,0 -1.25,-0.475 -3.4375,0 -3.275,0 -3.4375,0.475 -3.75,0 -3.2875,0 -3.4375,0 -2.9625,0 -2.975,-0.475 -2.8125,0 -2.65001,-0.775 -2.8125,-0.475 -2.5,-0.4625 -2.1875,0 -1.725,0 -0.775,0 -0.7875,0 z"
       style="fill:#33ccff;fill-opacity:1;fill-rule:evenodd;stroke:none"
       id="path5406"
       inkscape:connector-curvature="0" />
    <text
       y="575.59491"
       x="194.70403"
       style="font-variant:normal;font-weight:bold;font-size:22.5px;font-family:Arial;-inkscape-font-specification:'Arial Bold';writing-mode:lr-tb;fill:#ffffff;fill-opacity:1;fill-rule:nonzero;stroke:none"
       id="text5408">
      <tspan
         x="194.70403"
         y="575.59491"
         id="tspan5410">C</tspan>
    </text>
    <path
       d="m -15.239748,503.19494 -1.718751,0 -1.71875,0.4625 -1.5625,0.475 -1.71875,0.4625 -1.71875,0.7875 -1.25,0.775 -1.25,0.9375 -1.25,1.25 -1.25,1.25 -0.9375,1.25 -0.78125,1.25001 -0.78125,1.25 -0.46875,1.725 -0.46875,1.5625 -0.312501,1.7125 0,1.725 0,1.5625 0.312501,1.7125 0.46875,1.725 0.46875,1.7125 0.78125,1.25 0.78125,1.25 0.9375,1.25 1.25,1.25 1.25,1.25 1.25,0.7875 1.25,0.9375 1.71875,0.775 1.71875,0.475 1.5625,0.3125 1.71875,0.4625 1.718751,0 1.71875,0 1.5625,-0.4625 1.71875,-0.3125 1.7187504,-0.475 1.25,-0.775 1.25,-0.9375 1.25,-0.7875 1.25,-1.25 1.25,-1.25 0.9375,-1.25 0.78125001,-1.25 0.78125,-1.25 0.46875,-1.7125 0.46874999,-1.725 0.468751,-1.7125 0,-1.5625 0,-1.725 -0.468751,-1.7125 -0.46874999,-1.5625 -0.46875,-1.725 -0.78125,-1.25 -0.78125001,-1.25001 -0.9375,-1.25 -1.25,-1.25 -1.25,-1.25 -1.25,-0.9375 -1.25,-0.775 -1.25,-0.7875 -1.7187504,-0.4625 -1.71875,-0.475 -1.5625,-0.4625 -1.71875,0 z"
       style="fill:#33ccff;fill-opacity:1;fill-rule:evenodd;stroke:none"
       id="path5412"
       inkscape:connector-curvature="0" />
    <text
       y="529.49493"
       x="-24.583502"
       style="font-variant:normal;font-weight:bold;font-size:20px;font-family:Arial;-inkscape-font-specification:'Arial Bold';writing-mode:lr-tb;fill:#ffffff;fill-opacity:1;fill-rule:nonzero;stroke:none"
       id="text5414">
      <tspan
         x="-24.583502"
         y="529.49493"
         id="tspan5416">W</tspan>
    </text>
    <path
       d="m 319.44152,485.21994 -1.7125,0 -1.725,0.4625 -1.7125,0.475 -1.5625,0.3125 -1.725,0.9375 -1.25,0.775 -1.25,0.7875 -1.25,0.9375 -1.25,1.25 -0.9375,1.25 -0.775,1.25 -0.9375,1.7125 -0.3125,1.25 -0.475,1.5625 -0.4625,1.725 0,1.7125 0,1.5625 0.4625,1.725 0.475,1.7125 0.3125,1.725 0.9375,1.25 0.775,1.25 0.9375,1.25001 1.25,1.25 1.25,1.25 1.25,0.775 1.25,0.9375 1.725,0.7875 1.5625,0.4625 1.7125,0.3125 1.725,0.475 1.7125,0 1.5625,0 1.725,-0.475 1.7125,-0.3125 1.725,-0.4625 1.25,-0.7875 1.25,-0.9375 1.25,-0.775 1.25,-1.25 1.25,-1.25 0.775,-1.25001 0.9375,-1.25 0.7875,-1.25 0.4625,-1.725 0.475,-1.7125 0.3125,-1.725 0,-1.5625 0,-1.7125 -0.3125,-1.725 -0.475,-1.5625 -0.4625,-1.25 -0.7875,-1.7125 -0.9375,-1.25 -0.775,-1.25 -1.25,-1.25 -1.25,-0.9375 -1.25,-0.7875 -1.25,-0.775 -1.25,-0.9375 -1.725,-0.3125 -1.7125,-0.475 -1.725,-0.4625 -1.5625,0 z"
       style="fill:#33ccff;fill-opacity:1;fill-rule:evenodd;stroke:none"
       id="path5418"
       inkscape:connector-curvature="0" />
    <text
       y="511.36996"
       x="311.14154"
       style="font-variant:normal;font-weight:bold;font-size:20.03125px;font-family:Arial;-inkscape-font-specification:'Arial Bold';writing-mode:lr-tb;fill:#ffffff;fill-opacity:1;fill-rule:nonzero;stroke:none"
       id="text5420">
      <tspan
         x="311.14154"
         y="511.36996"
         id="tspan5422">X</tspan>
    </text>
    <path
       d="m 318.20402,599.59495 -1.725,0 -1.7125,0.4625 -1.725,0.475 -1.5625,0.3125 -1.4,0.9375 -1.25,0.775 -1.25,0.7875 -1.25,0.9375 -1.25,1.25 -0.7875,1.25 -0.9375,1.25 -0.775,1.7125 -0.475,1.25 -0.3125,1.5625 -0.4625,1.725 0,1.7125 0,1.725 0.4625,1.5625 0.3125,1.7125 0.475,1.725 0.775,1.25 0.9375,1.25 0.7875,1.25 1.25,1.25 1.25,1.25 1.25,0.775 1.25,0.9375 1.4,0.7875 1.5625,0.4625 1.725,0.3125 1.7125,0.475 1.725,0 1.5625,0 1.7125,-0.475 1.725,-0.3125 1.7125,-0.4625 1.5625,-0.7875 1.25,-0.9375 1.4125,-0.775 1.25,-1.25 1.25,-1.25 0.775,-1.25 0.7875,-1.25 0.9375,-1.25 0.4625,-1.725 0.3125,-1.7125 0.475,-1.5625 0,-1.725 0,-1.7125 -0.475,-1.725 -0.3125,-1.5625 -0.4625,-1.25 -0.9375,-1.7125 -0.7875,-1.25 -0.775,-1.25 -1.25,-1.25 -1.25,-0.9375 -1.4125,-0.7875 -1.25,-0.775 -1.5625,-0.9375 -1.7125,-0.3125 -1.725,-0.475 -1.7125,-0.4625 -1.5625,0 z"
       style="fill:#33ccff;fill-opacity:1;fill-rule:evenodd;stroke:none"
       id="path5424"
       inkscape:connector-curvature="0" />
    <text
       y="624.06995"
       x="313.01654"
       style="font-variant:normal;font-weight:bold;font-size:20px;font-family:Arial;-inkscape-font-specification:'Arial Bold';writing-mode:lr-tb;fill:#ffffff;fill-opacity:1;fill-rule:nonzero;stroke:none"
       id="text5426">
      <tspan
         x="313.01654"
         y="624.06995"
         id="tspan5428">Y</tspan>
    </text>
    <path
       d="m 3.6665034,520.84495 43.7500026,0.1625"
       style="fill:none;stroke:#000000;stroke-width:1.71875;stroke-linecap:butt;stroke-linejoin:round;stroke-miterlimit:10;stroke-dasharray:none;stroke-opacity:1"
       id="path5430"
       inkscape:connector-curvature="0" />
    <path
       d="m 236.64152,472.71994 65.4625,27.1875"
       style="fill:none;stroke:#000000;stroke-width:1.71875;stroke-linecap:butt;stroke-linejoin:round;stroke-miterlimit:10;stroke-dasharray:none;stroke-opacity:1"
       id="path5432"
       inkscape:connector-curvature="0" />
    <path
       d="m 240.85402,566.15745 65.9375,-55.77501"
       style="fill:none;stroke:#000000;stroke-width:1.71875;stroke-linecap:butt;stroke-linejoin:round;stroke-miterlimit:10;stroke-dasharray:none;stroke-opacity:1"
       id="path5434"
       inkscape:connector-curvature="0" />
    <path
       d="m 241.64152,579.11995 60.4625,31.4125"
       style="fill:none;stroke:#000000;stroke-width:1.71875;stroke-linecap:butt;stroke-linejoin:round;stroke-miterlimit:10;stroke-dasharray:none;stroke-opacity:1"
       id="path5436"
       inkscape:connector-curvature="0" />
    <path
       d="m 129.76651,509.59494 28.5875,-23.125"
       style="fill:none;stroke:#000000;stroke-width:5.46875;stroke-linecap:butt;stroke-linejoin:round;stroke-miterlimit:10;stroke-dasharray:none;stroke-opacity:1"
       id="path5438"
       inkscape:connector-curvature="0" />
    <path
       d="m 215.54152,541.00745 0.1625,-41.87501"
       style="fill:none;stroke:#000000;stroke-width:5.46875;stroke-linecap:butt;stroke-linejoin:round;stroke-miterlimit:10;stroke-dasharray:none;stroke-opacity:1"
       id="path5440"
       inkscape:connector-curvature="0" />
    <path
       d="m 132.26651,541.00745 26.0875,16.25"
       style="fill:none;stroke:#000000;stroke-width:5.46875;stroke-linecap:butt;stroke-linejoin:round;stroke-miterlimit:10;stroke-dasharray:none;stroke-opacity:1"
       id="path5442"
       inkscape:connector-curvature="0" />
    <path
       d="m 564.14154,596.31995 114.21875,0 0,-77.96875 -114.21875,0 0,77.96875 z"
       style="fill:#ffffff;fill-opacity:1;fill-rule:evenodd;stroke:none"
       id="path5454"
       inkscape:connector-curvature="0" />
    <path
       d="m 511.47903,435.38244 -2.025,0 -2.1875,0.4625 -2.5,0.3125 -2.0375,0.9375 -1.7125,0.3125 -2.0375,1.4125 -2.1875,1.25 -1.7125,1.25 -1.5625,1.5625 -2.1875,1.7125 -1.725,2.0375 -1.5625,2.65 -1.7125,2.0375 -0.9375,2.5 -0.7875,1.25 0,1.25 -0.4625,0.9375 0,1.25 0,1.25 0,1.25 0.4625,2.5 0.7875,2.5 1.4,2.5 1.5625,2.025 1.25,2.5 2.1875,2.1875 1.725,2.0375 1.5625,2.1875 1.7125,1.5625 1.725,2.1875 1.7125,1.5625 1.25,0.9375 1.25,0.775 1.25,0.475 1.25,0.775 1.725,0.475 1.5625,0.4625 2.1875,0.3125 2.025,0.475 1.25,0 1.4125,0.4625 2.8125,0.3125 3.4375,0.475 3.275,0 3.9125,0.4625 3.75001,0.3125 3.75,0 4.2125,0.475 3.75,0 3.75,-0.475 3.9125,0 3.275,-0.3125 3.4375,-0.9375 2.5,-0.775 1.725,-0.475 0.775,-0.775 1.25,-0.475 0.7875,-0.775 0.9375,-0.7875 0.775,-0.9375 1.25,-2.025 1.25,-2.1875 0.9375,-2.8125 0.3125,-2.975 0.475,-2.9625 0.4625,-3.2875 0,-3.4375 -0.4625,-3.275 0,-2.975 -0.475,-3.4375 0,-2.8125 -0.3125,-2.9625 -0.4625,-2.5 -0.475,-2.1875 -0.3125,-0.7875 0,-0.775 -0.4625,-1.25 -0.475,-1.25 -0.3125,-1.25 -0.4625,-0.475 -0.475,-0.775 -0.775,-0.475 -0.9375,0 -0.3125,-0.4625 -2.1875,0 -1.725,0 -2.5,0 -0.775,-0.475 -1.25,0 -1.25,0 -1.25,-0.3125 -2.975,0 -3.4375,0 -3.275,0.3125 -3.75,0 -3.4375,0 -3.2875,0 -2.9625,0 -2.97501,-0.3125 -2.9625,0 -2.5,-0.9375 -2.975,-0.3125 -2.5,-0.4625 -2.025,0 -2.1875,0 -0.7875,0 -0.9375,0 z"
       style="fill:#33ccff;fill-opacity:1;fill-rule:evenodd;stroke:none"
       id="path5474"
       inkscape:connector-curvature="0" />
    <path
       d="m 550.69154,529.59495 -1.7125,0 -1.725,0.4625 -1.7125,0.475 -1.725,0.3125 -1.5625,0.9375 -1.25,0.775 -1.25,0.9375 -1.25,1.25 -1.4,0.7875 -0.7875,1.25 -0.775,1.7125 -0.9375,1.25 -0.3125,1.725 -0.475,1.25 -0.4625,1.5625 0,1.7125 0,1.725 0.4625,1.5625 0.475,1.7125 0.3125,1.725 0.9375,1.25 0.775,1.25 0.7875,1.25 1.4,1.25 1.25,1.25 1.25,0.775 1.25,0.9375 1.5625,0.7875 1.725,0.4625 1.7125,0.475 1.725,0.3125 1.7125,0 1.5625,0 1.725,-0.3125 1.7125,-0.475 1.725,-0.4625 1.25,-0.7875 1.25,-0.9375 1.25,-0.775 1.25,-1.25 1.25,-1.25 0.775,-1.25 0.9375,-1.25 0.7875,-1.25 0.4625,-1.725 0.3125,-1.7125 0.475,-1.5625 0,-1.725 0,-1.7125 -0.475,-1.5625 -0.3125,-1.25 -0.4625,-1.725 -0.7875,-1.25 -0.9375,-1.7125 -0.775,-1.25 -1.25,-0.7875 -1.25,-1.25 -1.25,-0.9375 -1.25,-0.775 -1.25,-0.9375 -1.725,-0.3125 -1.7125,-0.475 -1.725,-0.4625 -1.5625,0 z"
       style="fill:#33ccff;fill-opacity:1;fill-rule:evenodd;stroke:none"
       id="path5476"
       inkscape:connector-curvature="0" />
    <text
       xml:space="preserve"
       style="font-style:normal;font-weight:normal;font-size:40px;line-height:125%;font-family:sans-serif;letter-spacing:0px;word-spacing:0px;fill:#000000;fill-opacity:1;stroke:none;stroke-width:1px;stroke-linecap:butt;stroke-linejoin:miter;stroke-opacity:1"
       x="371.76257"
       y="465.56607"
       id="text5616"
       sodipodi:linespacing="125%"><tspan
         sodipodi:role="line"
         id="tspan5618"
         x="371.76257"
         y="465.56607"
         style="font-size:22.50000191px">legenda:</tspan></text>
    <text
       sodipodi:linespacing="83.999997%"
       id="text5620"
       y="458.461"
       x="577.02026"
       style="font-style:normal;font-weight:normal;font-size:40px;line-height:83.99999738%;font-family:sans-serif;letter-spacing:0px;word-spacing:0px;fill:#000000;fill-opacity:1;stroke:none;stroke-width:1px;stroke-linecap:butt;stroke-linejoin:miter;stroke-opacity:1"
       xml:space="preserve"><tspan
         style="font-size:22.50000191px;line-height:84.0000093%"
         y="458.461"
         x="577.02026"
         id="tspan5622"
         sodipodi:role="line">rede de</tspan><tspan
         style="font-size:22.50000191px;line-height:84.0000093%"
         y="477.36099"
         x="577.02026"
         sodipodi:role="line"
         id="tspan5624">provedor</tspan></text>
    <text
       xml:space="preserve"
       style="font-style:normal;font-weight:normal;font-size:40px;line-height:84.00000334%;font-family:sans-serif;letter-spacing:0px;word-spacing:0px;fill:#000000;fill-opacity:1;stroke:none;stroke-width:1px;stroke-linecap:butt;stroke-linejoin:miter;stroke-opacity:1"
       x="577.02026"
       y="458.461"
       id="text5626"
       sodipodi:linespacing="84.000003%"><tspan
         sodipodi:role="line"
         id="tspan5628"
         x="577.02026"
         y="458.461"
         style="font-size:22.50000191px;line-height:84.0000093%">rede de</tspan><tspan
         id="tspan5630"
         sodipodi:role="line"
         x="577.02026"
         y="477.36099"
         style="font-size:22.50000191px;line-height:84.0000093%">provedor</tspan></text>
    <text
       sodipodi:linespacing="84.000003%"
       id="text5632"
       y="545.30078"
       x="577.02026"
       style="font-style:normal;font-weight:normal;font-size:40px;line-height:84.00000334%;font-family:sans-serif;letter-spacing:0px;word-spacing:0px;fill:#000000;fill-opacity:1;stroke:none;stroke-width:1px;stroke-linecap:butt;stroke-linejoin:miter;stroke-opacity:1"
       xml:space="preserve"><tspan
         style="font-size:22.50000191px;line-height:84.0000093%"
         y="545.30078"
         x="577.02026"
         id="tspan5634"
         sodipodi:role="line">rede de</tspan><tspan
         style="font-size:22.50000191px;line-height:84.0000093%"
         y="564.20081"
         x="577.02026"
         sodipodi:role="line"
         id="tspan5636">cliente</tspan></text>
  </g>
</svg>
