<?xml version="1.0" encoding="UTF-8" standalone="no"?>
<!-- Created with Inkscape (http://www.inkscape.org/) -->

<svg
   xmlns:dc="http://purl.org/dc/elements/1.1/"
   xmlns:cc="http://creativecommons.org/ns#"
   xmlns:rdf="http://www.w3.org/1999/02/22-rdf-syntax-ns#"
   xmlns:svg="http://www.w3.org/2000/svg"
   xmlns="http://www.w3.org/2000/svg"
   xmlns:sodipodi="http://sodipodi.sourceforge.net/DTD/sodipodi-0.dtd"
   xmlns:inkscape="http://www.inkscape.org/namespaces/inkscape"
   width="216.76183mm"
   height="115.57882mm"
   viewBox="0 0 768.05372 409.53124"
   id="svg2"
   version="1.1"
   inkscape:version="0.91 r13725"
   sodipodi:docname="InternetCamadaDeRede.svg">
  <sodipodi:namedview
     id="base"
     pagecolor="#ffffff"
     bordercolor="#666666"
     borderopacity="1.0"
     inkscape:pageopacity="0.0"
     inkscape:pageshadow="2"
     inkscape:zoom="0.68841549"
     inkscape:cx="445.98985"
     inkscape:cy="188.07933"
     inkscape:document-units="px"
     inkscape:current-layer="layer1"
     showgrid="false"
     fit-margin-top="0"
     fit-margin-left="0"
     fit-margin-right="0"
     fit-margin-bottom="0"
     inkscape:window-width="1360"
     inkscape:window-height="719"
     inkscape:window-x="0"
     inkscape:window-y="25"
     inkscape:window-maximized="1" />
<defs><style type="text/css">@import url(https://fonts.googleapis.com/css?family=Lora:400,400italic,700,700italic)</style></defs>
  <defs
     id="defs4">
    <marker
       inkscape:stockid="Arrow1Lstart"
       orient="auto"
       refY="0"
       refX="0"
       id="marker17899"
       style="overflow:visible"
       inkscape:isstock="true">
      <path
         id="path17901"
         d="M 0,0 5,-5 -12.5,0 5,5 0,0 Z"
         style="fill:#000000;fill-opacity:1;fill-rule:evenodd;stroke:#000000;stroke-width:1pt;stroke-opacity:1"
         transform="matrix(0.8,0,0,0.8,10,0)"
         inkscape:connector-curvature="0" />
    </marker>
    <marker
       inkscape:stockid="Arrow1Lstart"
       orient="auto"
       refY="0"
       refX="0"
       id="Arrow1Lstart"
       style="overflow:visible"
       inkscape:isstock="true">
      <path
         id="path4198"
         d="M 0,0 5,-5 -12.5,0 5,5 0,0 Z"
         style="fill:#000000;fill-opacity:1;fill-rule:evenodd;stroke:#000000;stroke-width:1pt;stroke-opacity:1"
         transform="matrix(0.8,0,0,0.8,10,0)"
         inkscape:connector-curvature="0" />
    </marker>
    <marker
       inkscape:stockid="Arrow1Lend"
       orient="auto"
       refY="0"
       refX="0"
       id="Arrow1Lend"
       style="overflow:visible"
       inkscape:isstock="true">
      <path
         id="path4201"
         d="M 0,0 5,-5 -12.5,0 5,5 0,0 Z"
         style="fill:#000000;fill-opacity:1;fill-rule:evenodd;stroke:#000000;stroke-width:1pt;stroke-opacity:1"
         transform="matrix(-0.8,0,0,-0.8,-10,0)"
         inkscape:connector-curvature="0" />
    </marker>
    <marker
       inkscape:isstock="true"
       style="overflow:visible"
       id="marker16394"
       refX="0"
       refY="0"
       orient="auto"
       inkscape:stockid="Arrow1Lend">
      <path
         transform="matrix(-0.8,0,0,-0.8,-10,0)"
         style="fill:#000000;fill-opacity:1;fill-rule:evenodd;stroke:#000000;stroke-width:1pt;stroke-opacity:1"
         d="M 0,0 5,-5 -12.5,0 5,5 0,0 Z"
         id="path16396"
         inkscape:connector-curvature="0" />
    </marker>
    <marker
       inkscape:stockid="Arrow1Lend"
       orient="auto"
       refY="0"
       refX="0"
       id="marker7729"
       style="overflow:visible"
       inkscape:isstock="true">
      <path
         inkscape:connector-curvature="0"
         id="path7731"
         d="M 0,0 5,-5 -12.5,0 5,5 0,0 Z"
         style="fill:#000000;fill-opacity:1;fill-rule:evenodd;stroke:#000000;stroke-width:1pt;stroke-opacity:1"
         transform="matrix(-0.8,0,0,-0.8,-10,0)" />
    </marker>
  </defs>
  <metadata
     id="metadata7">
    <rdf:RDF>
      <cc:Work
         rdf:about="">
        <dc:format>image/svg+xml</dc:format>
        <dc:type
           rdf:resource="http://purl.org/dc/dcmitype/StillImage" />
        <dc:title></dc:title>
      </cc:Work>
    </rdf:RDF>
  </metadata>
  <g
     inkscape:label="Layer 1"
     inkscape:groupmode="layer"
     id="layer1"
     transform="translate(317.21631,-298.38607)">
    <path
       d="m -192.28759,699.63607 643.125,0 0,-401.25 -643.125,0 0,401.25 z"
       style="fill:#808080;fill-opacity:1;fill-rule:evenodd;stroke:none"
       id="path20229"
       inkscape:connector-curvature="0" />
    <path
       d="m -198.85009,706.97982 643.125,0 0,-401.25 -643.125,0 0,401.25 z"
       style="fill:#ffffff;fill-opacity:1;fill-rule:evenodd;stroke:none"
       id="path20231"
       inkscape:connector-curvature="0" />
    <path
       d="m -198.85009,706.97982 643.125,0 0,-401.25 -643.125,0 0,401.25 z"
       style="fill:none;stroke:#000000;stroke-width:1.875;stroke-linecap:butt;stroke-linejoin:miter;stroke-miterlimit:10;stroke-dasharray:none;stroke-opacity:1"
       id="path20233"
       inkscape:connector-curvature="0" />
    <path
       d="m 16.637414,580.88607 117.639996,0 0,-115.3125 -117.639996,0 0,115.3125 z"
       style="fill:#000099;fill-opacity:1;fill-rule:evenodd;stroke:none"
       id="path20239"
       inkscape:connector-curvature="0" />
    <path
       d="m 11.174914,585.09857 117.639996,0 0,-115.3125 -117.639996,0 0,115.3125 z"
       style="fill:#ffffff;fill-opacity:1;fill-rule:evenodd;stroke:none"
       id="path20241"
       inkscape:connector-curvature="0" />
    <path
       d="m 11.174914,585.09857 117.639996,0 0,-115.3125 -117.639996,0 0,115.3125 z"
       style="fill:none;stroke:#000000;stroke-width:1.875;stroke-linecap:butt;stroke-linejoin:miter;stroke-miterlimit:10;stroke-dasharray:none;stroke-opacity:1"
       id="path20243"
       inkscape:connector-curvature="0" />
    <text
       y="521.61108"
       x="19.524914"
       style="font-variant:normal;font-weight:normal;font-size:22.5px;font-family:Arial;-inkscape-font-specification:Arial;writing-mode:lr-tb;fill:#000000;fill-opacity:1;fill-rule:nonzero;stroke:none"
       id="text20245">
      <tspan
         x="19.524914 26.004925 38.514904 46.007427 61.757427 74.267403 81.759895 94.269897 99.2649 111.77491"
         y="521.61108"
         sodipodi:role="line"
         id="tspan20247">forwarding</tspan>
    </text>
    <text
       y="548.59857"
       x="47.524914"
       style="font-variant:normal;font-weight:normal;font-size:22.5px;font-family:Arial;-inkscape-font-specification:Arial;writing-mode:lr-tb;fill:#000000;fill-opacity:1;fill-rule:nonzero;stroke:none"
       id="text20249">
      <tspan
         x="47.524914 53.774914 66.279915 78.78492 83.77491"
         y="548.59857"
         sodipodi:role="line"
         id="tspan20251">table</tspan>
    </text>
    <path
       d="m 25.124914,482.92357 87.924996,0"
       style="fill:none;stroke:#000000;stroke-width:1.875;stroke-linecap:butt;stroke-linejoin:round;stroke-miterlimit:10;stroke-dasharray:none;stroke-opacity:1"
       id="path20253"
       inkscape:connector-curvature="0" />
    <path
       d="m 26.337414,491.36107 87.924996,0"
       style="fill:none;stroke:#000000;stroke-width:1.875;stroke-linecap:butt;stroke-linejoin:round;stroke-miterlimit:10;stroke-dasharray:none;stroke-opacity:1"
       id="path20255"
       inkscape:connector-curvature="0" />
    <path
       d="m 26.937414,499.79857 87.937496,0"
       style="fill:none;stroke:#000000;stroke-width:1.875;stroke-linecap:butt;stroke-linejoin:round;stroke-miterlimit:10;stroke-dasharray:none;stroke-opacity:1"
       id="path20257"
       inkscape:connector-curvature="0" />
    <path
       d="m 25.124914,558.38607 87.924996,0"
       style="fill:none;stroke:#000000;stroke-width:1.875;stroke-linecap:butt;stroke-linejoin:round;stroke-miterlimit:10;stroke-dasharray:none;stroke-opacity:1"
       id="path20259"
       inkscape:connector-curvature="0" />
    <path
       d="m 25.724914,566.34857 87.937496,0"
       style="fill:none;stroke:#000000;stroke-width:1.875;stroke-linecap:butt;stroke-linejoin:round;stroke-miterlimit:10;stroke-dasharray:none;stroke-opacity:1"
       id="path20261"
       inkscape:connector-curvature="0" />
    <path
       d="m 26.337414,574.32357 87.924996,0"
       style="fill:none;stroke:#000000;stroke-width:1.875;stroke-linecap:butt;stroke-linejoin:round;stroke-miterlimit:10;stroke-dasharray:none;stroke-opacity:1"
       id="path20263"
       inkscape:connector-curvature="0" />
    <path
       d="m -199.78759,664.51107 640.3125,-0.9375"
       style="fill:none;stroke:#000000;stroke-width:1.875;stroke-linecap:butt;stroke-linejoin:round;stroke-miterlimit:10;stroke-dasharray:none;stroke-opacity:1"
       id="path20269"
       inkscape:connector-curvature="0" />
    <path
       d="m -196.97509,620.94857 642.1875,-0.9375"
       style="fill:none;stroke:#000000;stroke-width:1.875;stroke-linecap:butt;stroke-linejoin:round;stroke-miterlimit:10;stroke-dasharray:none;stroke-opacity:1"
       id="path20271"
       inkscape:connector-curvature="0" />
    <path
       d="m -171.66259,466.19857 178.1250038,0 0,-80.625 -178.1250038,0 0,80.625 z"
       style="fill:#000099;fill-opacity:1;fill-rule:evenodd;stroke:none"
       id="path20273"
       inkscape:connector-curvature="0" />
    <path
       d="m -178.22509,472.76107 178.12500383,0 0,-80.625 -178.12500383,0 0,80.625 z"
       style="fill:#ffffff;fill-opacity:1;fill-rule:evenodd;stroke:none"
       id="path20275"
       inkscape:connector-curvature="0" />
    <path
       d="m -178.22509,472.76107 178.12500383,0 0,-80.625 -178.12500383,0 0,80.625 z"
       style="fill:none;stroke:#000000;stroke-width:1.875;stroke-linecap:butt;stroke-linejoin:miter;stroke-miterlimit:8;stroke-dasharray:none;stroke-opacity:1"
       id="path20277"
       inkscape:connector-curvature="0" />
    <text
       y="416.63608"
       x="-170.25008"
       style="font-style:italic;font-variant:normal;font-weight:normal;font-size:22.53125px;font-family:'Gill Sans MT';-inkscape-font-specification:'Gill Sans MT Italic';writing-mode:lr-tb;fill:#cc0000;fill-opacity:1;fill-rule:nonzero;stroke:none"
       id="text20279">
      <tspan
         x="-170.25008 -163.76108 -153.7572 -143.19005 -137.01649 -132.78061 -122.21346 -112.77288 -106.3064 -95.26609 -88.799614 -78.795753 -72.554588 -62.550709 -53.831104 -43.827229 -39.591358"
         y="416.63608"
         sodipodi:role="line"
         id="tspan20281">routing protocols</tspan>
    </text>
    <text
       y="441.38608"
       x="-170.25008"
       style="font-variant:normal;font-weight:normal;font-size:20px;font-family:Arial;-inkscape-font-specification:Arial;writing-mode:lr-tb;fill:#000000;fill-opacity:1;fill-rule:nonzero;stroke:none"
       id="text20283">
      <tspan
         x="-170.25008"
         y="441.38608"
         id="tspan20285">•</tspan>
    </text>
    <text
       y="441.38608"
       x="-157.75008"
       style="font-variant:normal;font-weight:normal;font-size:20px;font-family:Arial;-inkscape-font-specification:Arial;writing-mode:lr-tb;fill:#000000;fill-opacity:1;fill-rule:nonzero;stroke:none"
       id="text20287">
      <tspan
         x="-157.75008 -146.75008 -135.75008 -130.19008 -119.25008 -113.27009 -103.27009 -92.270088 -87.830086 -76.770088 -66.770088 -61.270084 -56.830097 -45.7701"
         y="441.38608"
         sodipodi:role="line"
         id="tspan20289">path selection</tspan>
    </text>
    <text
       y="465.38608"
       x="-170.25008"
       style="font-variant:normal;font-weight:normal;font-size:20px;font-family:Arial;-inkscape-font-specification:Arial;writing-mode:lr-tb;fill:#000000;fill-opacity:1;fill-rule:nonzero;stroke:none"
       id="text20291">
      <tspan
         x="-170.25008"
         y="465.38608"
         id="tspan20293">•</tspan>
    </text>
    <text
       y="465.38608"
       x="-157.75008"
       style="font-variant:normal;font-weight:normal;font-size:20px;font-family:Arial;-inkscape-font-specification:Arial;writing-mode:lr-tb;fill:#000000;fill-opacity:1;fill-rule:nonzero;stroke:none"
       id="text20295">
      <tspan
         x="-157.75008 -143.27008 -137.71008 -127.01009 -121.4501 -116.01009 -100.51009 -87.250084 -73.990089 -63.990086 -58.430073 -52.51009 -39.25008 -23.750078"
         y="465.38608"
         sodipodi:role="line"
         id="tspan20297">RIP, OSPF, BGP</tspan>
    </text>
    <path
       d="m -44.200086,490.08607 1.1125,1.8625 1.1625,2.2 1.2375,2.15 1.3875,2.175 1.5625,2.1875 0.8375,1.0375 0.9125,1.075 0.975,1.05 1.0375,1.0375 1.0875,1.025 1.15,0.975 1.2375,0.9875 1.3,0.9125 1.4,0.9 1.4625,0.8625 1.5,0.7875 1.4875,0.7125 1.4625,0.6375 1.4375,0.55 1.425,0.475 1.4,0.4125 1.375,0.35 1.3625,0.2875 1.325,0.225 1.3125,0.1875 2.5999998,0.225 2.4875,0.05 2.3875,-0.0625 2.3,-0.1625 2.22500003,-0.225 1.89999997,-0.1625 0.3125,3.7375 -1.83749997,0.15 -2.33750003,0.2375 -2.475,0.175 -2.575,0.0625 -2.7125,-0.075 -2.7749998,-0.2375 -1.45,-0.2 -1.4875,-0.2625 -1.4875,-0.325 -1.5125,-0.375 -1.5375,-0.4625 -1.5625,-0.525 -1.5875,-0.6125 -1.6,-0.7 -1.6125,-0.775 -1.65,-0.875 -1.6125,-0.9375 -1.5125,-0.9875 -1.45,-1.0375 -1.35,-1.0625 -1.2875,-1.1 -1.2,-1.125 -1.1125,-1.125 -1.075,-1.175 -0.9875,-1.15 -0.9625,-1.2125 -1.675,-2.35 -1.475,-2.325 -1.3,-2.2625 -1.0625,-2.025 -1.1125,-1.85 3.2125,-1.9375 z m -5.4125,5.5125 -1.1125,-12.525 10.6875,6.625 -9.575,5.9 z m 49.07499983,15.625 11.68750017,4.6625 -10.73750017,6.55 -0.95,-11.2125 z"
       style="fill:#000099;fill-opacity:1;fill-rule:nonzero;stroke:none"
       id="path20299"
       inkscape:connector-curvature="0" />
    <path
       d="m 147.71241,484.48607 288.75,0 0,-107.8125 -288.75,0 0,107.8125 z"
       style="fill:#000099;fill-opacity:1;fill-rule:evenodd;stroke:none"
       id="path20301"
       inkscape:connector-curvature="0" />
    <path
       d="m 141.14991,492.92357 288.75,0 0,-109.6875 -288.75,0 0,109.6875 z"
       style="fill:#ffffff;fill-opacity:1;fill-rule:evenodd;stroke:none"
       id="path20303"
       inkscape:connector-curvature="0" />
    <path
       d="m 141.14991,492.92357 288.75,0 0,-109.6875 -288.75,0 0,109.6875 z"
       style="fill:none;stroke:#000000;stroke-width:1.875;stroke-linecap:butt;stroke-linejoin:miter;stroke-miterlimit:8;stroke-dasharray:none;stroke-opacity:1"
       id="path20305"
       inkscape:connector-curvature="0" />
    <text
       y="407.59857"
       x="152.49992"
       style="font-style:italic;font-variant:normal;font-weight:normal;font-size:25px;font-family:'Gill Sans MT';-inkscape-font-specification:'Gill Sans MT Italic';writing-mode:lr-tb;fill:#cc0000;fill-opacity:1;fill-rule:nonzero;stroke:none"
       id="text20307">
      <tspan
         x="152.49992 158.49992 169.69991 176.24992 188.49992 195.74989 206.94991 213.97493 225.17494 234.79994 245.99988"
         y="407.59857"
         sodipodi:role="line"
         id="tspan20309">IP protocol</tspan>
    </text>
    <text
       y="433.13608"
       x="152.49992"
       style="font-variant:normal;font-weight:normal;font-size:20px;font-family:Arial;-inkscape-font-specification:Arial;writing-mode:lr-tb;fill:#000000;fill-opacity:1;fill-rule:nonzero;stroke:none"
       id="text20311">
      <tspan
         x="152.49992"
         y="433.13608"
         id="tspan20313">•</tspan>
    </text>
    <text
       y="433.13608"
       x="164.99992"
       style="font-variant:normal;font-weight:normal;font-size:20px;font-family:Arial;-inkscape-font-specification:Arial;writing-mode:lr-tb;fill:#000000;fill-opacity:1;fill-rule:nonzero;stroke:none"
       id="text20315">
      <tspan
         x="164.99992 175.99992 186.99992 197.99989 204.73994 215.73994 225.73994 235.73994 240.21992 251.21991 262.21991 268.19989 278.19989 289.19989 300.19989 310.41992 321.41992 332.41992 337.97992 342.41992 353.41992 364.41992"
         y="433.13608"
         sodipodi:role="line"
         id="tspan20317">addressing conventions</tspan>
    </text>
    <text
       y="457.13608"
       x="152.49992"
       style="font-variant:normal;font-weight:normal;font-size:20px;font-family:Arial;-inkscape-font-specification:Arial;writing-mode:lr-tb;fill:#000000;fill-opacity:1;fill-rule:nonzero;stroke:none"
       id="text20319">
      <tspan
         x="152.49992"
         y="457.13608"
         id="tspan20321">•</tspan>
    </text>
    <text
       y="457.13608"
       x="164.99992"
       style="font-variant:normal;font-weight:normal;font-size:20px;font-family:Arial;-inkscape-font-specification:Arial;writing-mode:lr-tb;fill:#000000;fill-opacity:1;fill-rule:nonzero;stroke:none"
       id="text20323">
      <tspan
         x="164.99992 175.99992 186.99992 192.55992 203.49989 214.49989 221.23994 232.23994 248.9599 254.93988 260.65991 271.65991 278.3999 295.11987 306.11993"
         y="457.13608"
         sodipodi:role="line"
         id="tspan20325">datagram format</tspan>
    </text>
    <text
       y="481.13608"
       x="152.49992"
       style="font-variant:normal;font-weight:normal;font-size:20px;font-family:Arial;-inkscape-font-specification:Arial;writing-mode:lr-tb;fill:#000000;fill-opacity:1;fill-rule:nonzero;stroke:none"
       id="text20327">
      <tspan
         x="152.49992"
         y="481.13608"
         id="tspan20329">•</tspan>
    </text>
    <text
       y="481.13608"
       x="164.99992"
       style="font-variant:normal;font-weight:normal;font-size:20px;font-family:Arial;-inkscape-font-specification:Arial;writing-mode:lr-tb;fill:#000000;fill-opacity:1;fill-rule:nonzero;stroke:none"
       id="text20331">
      <tspan
         x="164.99992 175.99992 186.99992 196.99989 206.99989 217.99989 223.55989 229.47993 240.47993 251.47992 262.47992 273.47992 277.91992 282.4599 293.4599 304.4599 310.17987 320.17987 331.17993 342.17993 352.3999 363.3999 374.3999 379.9599 384.3999 395.3999 406.3999"
         y="481.13608"
         sodipodi:role="line"
         id="tspan20333">packet handling conventions</tspan>
    </text>
    <path
       d="m 153.33741,588.22357 190.3125,0 0,-83.4375 -190.3125,0 0,83.4375 z"
       style="fill:#000099;fill-opacity:1;fill-rule:evenodd;stroke:none"
       id="path20335"
       inkscape:connector-curvature="0" />
    <path
       d="m 146.77491,594.94857 190.3125,0 0,-83.4375 -190.3125,0 0,83.4375 z"
       style="fill:#ffffff;fill-opacity:1;fill-rule:evenodd;stroke:none"
       id="path20337"
       inkscape:connector-curvature="0" />
    <path
       d="m 146.77491,594.94857 190.3125,0 0,-83.4375 -190.3125,0 0,83.4375 z"
       style="fill:none;stroke:#000000;stroke-width:1.875;stroke-linecap:butt;stroke-linejoin:miter;stroke-miterlimit:8;stroke-dasharray:none;stroke-opacity:1"
       id="path20339"
       inkscape:connector-curvature="0" />
    <text
       y="536.72357"
       x="157.18742"
       style="font-style:italic;font-variant:normal;font-weight:normal;font-size:25px;font-family:'Gill Sans MT';-inkscape-font-specification:'Gill Sans MT Italic';writing-mode:lr-tb;fill:#cc0000;fill-opacity:1;fill-rule:nonzero;stroke:none"
       id="text20341">
      <tspan
         x="157.18742 163.18742 176.98741 197.18739 208.38741 215.18739 227.43739 234.68739 245.88739 252.91241 264.11243 273.73743 284.93738"
         y="536.72357"
         sodipodi:role="line"
         id="tspan20343">ICMP protocol</tspan>
    </text>
    <text
       y="562.23608"
       x="157.18742"
       style="font-variant:normal;font-weight:normal;font-size:20px;font-family:Arial;-inkscape-font-specification:Arial;writing-mode:lr-tb;fill:#000000;fill-opacity:1;fill-rule:nonzero;stroke:none"
       id="text20345">
      <tspan
         x="157.18742"
         y="562.23608"
         id="tspan20347">•</tspan>
    </text>
    <text
       y="562.23608"
       x="169.68742"
       style="font-variant:normal;font-weight:normal;font-size:20px;font-family:Arial;-inkscape-font-specification:Arial;writing-mode:lr-tb;fill:#000000;fill-opacity:1;fill-rule:nonzero;stroke:none"
       id="text20349">
      <tspan
         x="169.68742 180.68742 187.42741 194.1674 205.16743 211.90742 217.46742 224.1274 235.14742 246.1474 257.1474 263.88739 269.44739 273.88739 284.88739"
         y="562.23608"
         sodipodi:role="line"
         id="tspan20351">error reporting</tspan>
    </text>
    <text
       y="586.26105"
       x="157.18742"
       style="font-variant:normal;font-weight:normal;font-size:20.03125px;font-family:Arial;-inkscape-font-specification:Arial;writing-mode:lr-tb;fill:#000000;fill-opacity:1;fill-rule:nonzero;stroke:none"
       id="text20353">
      <tspan
         x="157.18742"
         y="586.26105"
         id="tspan20355">•</tspan>
    </text>
    <text
       y="586.26105"
       x="169.68742"
       style="font-variant:normal;font-weight:normal;font-size:20.03125px;font-family:Arial;-inkscape-font-specification:Arial;writing-mode:lr-tb;fill:#000000;fill-opacity:1;fill-rule:nonzero;stroke:none"
       id="text20357">
      <tspan
         x="169.68742 176.41792 187.41508 198.41225 203.92085 214.91798 221.64845"
         y="586.26105"
         sodipodi:role="line"
         id="tspan20359">router</tspan>
    </text>
    <text
       y="610.51105"
       x="157.18742"
       style="font-variant:normal;font-weight:normal;font-size:20px;font-family:'MS PGothic';-inkscape-font-specification:'MS PGothic';writing-mode:lr-tb;fill:#000000;fill-opacity:1;fill-rule:nonzero;stroke:none"
       id="text20361">
      <tspan
         x="157.18742"
         y="610.51105"
         id="tspan20363">“</tspan>
    </text>
    <text
       y="610.51105"
       x="167.18742"
       style="font-variant:normal;font-weight:normal;font-size:20px;font-family:Arial;-inkscape-font-specification:Arial;writing-mode:lr-tb;fill:#000000;fill-opacity:1;fill-rule:nonzero;stroke:none"
       id="text20365">
      <tspan
         x="167.18742 177.18742 181.6674 192.6674 203.66743 214.66743 219.10744 223.64742 234.64742"
         y="610.51105"
         sodipodi:role="line"
         id="tspan20367">signaling</tspan>
    </text>
    <text
       y="610.51105"
       x="245.68738"
       style="font-variant:normal;font-weight:normal;font-size:20px;font-family:'MS PGothic';-inkscape-font-specification:'MS PGothic';writing-mode:lr-tb;fill:#000000;fill-opacity:1;fill-rule:nonzero;stroke:none"
       id="text20369">
      <tspan
         x="245.68738"
         y="610.51105"
         id="tspan20371">”</tspan>
    </text>
    <path
       d="m -196.97509,366.82357 642.1875,-0.9375"
       style="fill:none;stroke:#000000;stroke-width:1.875;stroke-linecap:butt;stroke-linejoin:round;stroke-miterlimit:8;stroke-dasharray:none;stroke-opacity:1"
       id="path20373"
       inkscape:connector-curvature="0" />
    <text
       y="345.44858"
       x="-46.012592"
       style="font-variant:normal;font-weight:normal;font-size:22.53125px;font-family:Arial;-inkscape-font-specification:Arial;writing-mode:lr-tb;fill:#808080;fill-opacity:1;fill-rule:nonzero;stroke:none"
       id="text20375">
      <tspan
         x="-46.012592 -39.74889 -32.245991 -19.718615 -7.2588377 4.0067873 16.534163 28.993938 36.496868 42.76054 48.753857 53.755779 66.28315 77.008034 89.535408 97.038307 103.30201 109.56568 123.26469 139.53227 151.51888 157.78258 164.24904 180.51659 196.78413"
         y="345.44858"
         sodipodi:role="line"
         id="tspan20377">transport layer: TCP, UDP</tspan>
    </text>
    <text
       y="650.04858"
       x="63.712414"
       style="font-variant:normal;font-weight:normal;font-size:22.5px;font-family:Arial;-inkscape-font-specification:Arial;writing-mode:lr-tb;fill:#808080;fill-opacity:1;fill-rule:nonzero;stroke:none"
       id="text20379">
      <tspan
         x="63.712414 68.707405 73.7024 86.21241 97.687424 103.44739 108.44242 120.95241 131.70741 144.21742"
         y="650.04858"
         sodipodi:role="line"
         id="tspan20381">link layer</tspan>
    </text>
    <text
       y="693.63605"
       x="48.712414"
       style="font-variant:normal;font-weight:normal;font-size:22.5px;font-family:Arial;-inkscape-font-specification:Arial;writing-mode:lr-tb;fill:#808080;fill-opacity:1;fill-rule:nonzero;stroke:none"
       id="text20383">
      <tspan
         x="48.712414 61.222424 73.732399 84.464912 95.714912 100.70991 111.95991 124.46992 129.46492 135.94493 140.93993 153.44991 164.20491 176.71492"
         y="693.63605"
         sodipodi:role="line"
         id="tspan20385">physical layer</tspan>
    </text>
    <text
       y="477.73608"
       x="-319.19385"
       style="font-variant:normal;font-weight:normal;font-size:30px;font-family:Arial;-inkscape-font-specification:Arial;writing-mode:lr-tb;fill:#cc0000;fill-opacity:1;fill-rule:nonzero;stroke:none"
       id="text20387">
      <tspan
         x="-319.19385 -302.45383 -285.71384 -277.37384 -256.19382 -239.45384 -229.46384"
         y="477.73608"
         sodipodi:role="line"
         id="tspan20389">network</tspan>
    </text>
    <text
       y="513.76105"
       x="-278.9126"
       style="font-variant:normal;font-weight:normal;font-size:30.03125px;font-family:Arial;-inkscape-font-specification:Arial;writing-mode:lr-tb;fill:#cc0000;fill-opacity:1;fill-rule:nonzero;stroke:none"
       id="text20391">
      <tspan
         x="-278.9126 -272.24564 -255.39812 -241.10324 -224.40587"
         y="513.76105"
         sodipodi:role="line"
         id="tspan20393">layer</tspan>
    </text>
    <path
       d="m -225.57509,440.88607 0,-66.1 2.8125,0 0,66.1 -2.8125,0 z m -2.8125,-64.6875 4.225,-8.4375 4.2125,8.4375 -8.4375,0 z"
       style="fill:#cc0000;fill-opacity:1;fill-rule:nonzero;stroke:none"
       id="path20395"
       inkscape:connector-curvature="0" />
    <path
       d="m -222.76259,531.82357 0,66.0875 -2.8125,0 0,-66.0875 2.8125,0 z m 2.8125,64.6875 -4.2125,8.4375 -4.225,-8.4375 8.4375,0 z"
       style="fill:#cc0000;fill-opacity:1;fill-rule:nonzero;stroke:none"
       id="path20397"
       inkscape:connector-curvature="0" />
  </g>
</svg>
