<?xml version="1.0" encoding="UTF-8" standalone="no"?>
<!-- Created with Inkscape (http://www.inkscape.org/) -->

<svg
   xmlns:dc="http://purl.org/dc/elements/1.1/"
   xmlns:cc="http://creativecommons.org/ns#"
   xmlns:rdf="http://www.w3.org/1999/02/22-rdf-syntax-ns#"
   xmlns:svg="http://www.w3.org/2000/svg"
   xmlns="http://www.w3.org/2000/svg"
   xmlns:sodipodi="http://sodipodi.sourceforge.net/DTD/sodipodi-0.dtd"
   xmlns:inkscape="http://www.inkscape.org/namespaces/inkscape"
   width="91.09375"
   height="49.379589"
   id="svg36370"
   version="1.1"
   inkscape:version="0.48.3.1 r9886"
   sodipodi:docname="SSLRecordProtocol.svg">
  <defs
     id="defs36372">
    <clipPath
       clipPathUnits="userSpaceOnUse"
       id="clipPath344">
      <path
         inkscape:connector-curvature="0"
         d="M 9.99e-7,6.104e-6 720,6.104e-6 720,540.00001 9.99e-7,540.00001 9.99e-7,6.104e-6 z"
         clip-rule="evenodd"
         id="path346" />
    </clipPath>
    <clipPath
       clipPathUnits="userSpaceOnUse"
       id="clipPath348">
      <path
         inkscape:connector-curvature="0"
         d="m 0,0 361.12,0 0,186.9 L 0,186.9 0,0 z"
         id="path350" />
    </clipPath>
    <clipPath
       clipPathUnits="userSpaceOnUse"
       id="clipPath496">
      <path
         inkscape:connector-curvature="0"
         d="M -4.349e-6,1.8311e-4 720,1.8311e-4 720,540.00018 l -720.000004349,0 0,-539.99999689 z"
         clip-rule="evenodd"
         id="path498" />
    </clipPath>
    <clipPath
       clipPathUnits="userSpaceOnUse"
       id="clipPath646">
      <path
         inkscape:connector-curvature="0"
         d="M 3.229e-6,6.104e-6 720,6.104e-6 720,540.00001 3.229e-6,540.00001 3.229e-6,6.104e-6 z"
         clip-rule="evenodd"
         id="path648" />
    </clipPath>
    <clipPath
       clipPathUnits="userSpaceOnUse"
       id="clipPath650">
      <path
         inkscape:connector-curvature="0"
         d="m 0,0 361.12,0 0,186.9 L 0,186.9 0,0 z"
         id="path652" />
    </clipPath>
    <clipPath
       clipPathUnits="userSpaceOnUse"
       id="clipPath638">
      <path
         inkscape:connector-curvature="0"
         d="M -1.459e-6,6.104e-6 720,6.104e-6 720,540.00001 -1.459e-6,540.00001 -1.459e-6,6.104e-6 z"
         clip-rule="evenodd"
         id="path640" />
    </clipPath>
    <clipPath
       clipPathUnits="userSpaceOnUse"
       id="clipPath642">
      <path
         inkscape:connector-curvature="0"
         d="m 0,0 361.12,0 0,186.9 L 0,186.9 0,0 z"
         id="path644" />
    </clipPath>
    <clipPath
       clipPathUnits="userSpaceOnUse"
       id="clipPath634">
      <path
         inkscape:connector-curvature="0"
         d="M -2.855e-6,1.8311e-4 720,1.8311e-4 720,540.00018 l -720.000002855,0 0,-539.99999689 z"
         clip-rule="evenodd"
         id="path636" />
    </clipPath>
    <clipPath
       clipPathUnits="userSpaceOnUse"
       id="clipPath630">
      <path
         inkscape:connector-curvature="0"
         d="M -8.02e-7,1.8311e-4 720,1.8311e-4 720,540.00018 -8.02e-7,540.00018 l 0,-539.99999689 z"
         clip-rule="evenodd"
         id="path632" />
    </clipPath>
    <clipPath
       clipPathUnits="userSpaceOnUse"
       id="clipPath1214">
      <path
         inkscape:connector-curvature="0"
         d="M -2.332e-6,1.2207e-4 720,1.2207e-4 720,540.00012 l -720.000002332,0 0,-539.99999793 z"
         clip-rule="evenodd"
         id="path1216" />
    </clipPath>
    <clipPath
       clipPathUnits="userSpaceOnUse"
       id="clipPath1210">
      <path
         inkscape:connector-curvature="0"
         d="M 1.03e-6,1.8311e-4 720,1.8311e-4 720,540.00018 1.03e-6,540.00018 l 0,-539.99999689 z"
         clip-rule="evenodd"
         id="path1212" />
    </clipPath>
    <clipPath
       clipPathUnits="userSpaceOnUse"
       id="clipPath1206">
      <path
         inkscape:connector-curvature="0"
         d="M -1.84e-7,1.8311e-4 720,1.8311e-4 720,540.00018 -1.84e-7,540.00018 l 0,-539.99999689 z"
         clip-rule="evenodd"
         id="path1208" />
    </clipPath>
    <clipPath
       clipPathUnits="userSpaceOnUse"
       id="clipPath1386">
      <path
         inkscape:connector-curvature="0"
         d="M -2.329e-6,1.8311e-4 720,1.8311e-4 720,540.00018 l -720.000002329,0 0,-539.99999689 z"
         clip-rule="evenodd"
         id="path1388" />
    </clipPath>
    <clipPath
       clipPathUnits="userSpaceOnUse"
       id="clipPath1382">
      <path
         inkscape:connector-curvature="0"
         d="M 1.03e-6,1.8311e-4 720,1.8311e-4 720,540.00018 1.03e-6,540.00018 l 0,-539.99999689 z"
         clip-rule="evenodd"
         id="path1384" />
    </clipPath>
    <clipPath
       clipPathUnits="userSpaceOnUse"
       id="clipPath1378">
      <path
         inkscape:connector-curvature="0"
         d="M -1.84e-7,1.8311e-4 720,1.8311e-4 720,540.00018 -1.84e-7,540.00018 l 0,-539.99999689 z"
         clip-rule="evenodd"
         id="path1380" />
    </clipPath>
    <clipPath
       clipPathUnits="userSpaceOnUse"
       id="clipPath1758">
      <path
         inkscape:connector-curvature="0"
         d="m -5.996e-6,1.8311e-4 719.999995996,0 0,539.99999689 -719.999995996,0 0,-539.99999689 z"
         clip-rule="evenodd"
         id="path1760" />
    </clipPath>
    <clipPath
       clipPathUnits="userSpaceOnUse"
       id="clipPath1754">
      <path
         inkscape:connector-curvature="0"
         d="M 1.03e-6,1.8311e-4 720,1.8311e-4 720,540.00018 1.03e-6,540.00018 l 0,-539.99999689 z"
         clip-rule="evenodd"
         id="path1756" />
    </clipPath>
    <clipPath
       clipPathUnits="userSpaceOnUse"
       id="clipPath1750">
      <path
         inkscape:connector-curvature="0"
         d="m 0,1.8311e-4 720,0 0,539.99999689 -720,0 L 0,1.8311e-4 z"
         clip-rule="evenodd"
         id="path1752" />
    </clipPath>
    <clipPath
       clipPathUnits="userSpaceOnUse"
       id="clipPath1958">
      <path
         inkscape:connector-curvature="0"
         d="M -1.795e-6,1.8311e-4 720,1.8311e-4 720,540.00018 l -720.000001795,0 0,-539.99999689 z"
         clip-rule="evenodd"
         id="path1960" />
    </clipPath>
    <clipPath
       clipPathUnits="userSpaceOnUse"
       id="clipPath1954">
      <path
         inkscape:connector-curvature="0"
         d="M -6.68e-7,1.8311e-4 720,1.8311e-4 720,540.00018 -6.68e-7,540.00018 l 0,-539.99999689 z"
         clip-rule="evenodd"
         id="path1956" />
    </clipPath>
    <clipPath
       clipPathUnits="userSpaceOnUse"
       id="clipPath1950">
      <path
         inkscape:connector-curvature="0"
         d="m 0,1.8311e-4 720,0 0,539.99999689 -720,0 L 0,1.8311e-4 z"
         clip-rule="evenodd"
         id="path1952" />
    </clipPath>
    <clipPath
       clipPathUnits="userSpaceOnUse"
       id="clipPath2206">
      <path
         inkscape:connector-curvature="0"
         d="M -1.645e-6,2.4414e-4 720,2.4414e-4 720,540.00024 -1.645e-6,540.00024 l 0,-539.99999586 z"
         clip-rule="evenodd"
         id="path2208" />
    </clipPath>
    <clipPath
       clipPathUnits="userSpaceOnUse"
       id="clipPath2210">
      <path
         inkscape:connector-curvature="0"
         d="m 0,0 352.7,0 0,273.15 L 0,273.15 0,0 z"
         id="path2212" />
    </clipPath>
    <clipPath
       clipPathUnits="userSpaceOnUse"
       id="clipPath2202">
      <path
         inkscape:connector-curvature="0"
         d="M -1.795e-6,1.8311e-4 720,1.8311e-4 720,540.00018 l -720.000001795,0 0,-539.99999689 z"
         clip-rule="evenodd"
         id="path2204" />
    </clipPath>
    <clipPath
       clipPathUnits="userSpaceOnUse"
       id="clipPath2198">
      <path
         inkscape:connector-curvature="0"
         d="M -6.68e-7,1.8311e-4 720,1.8311e-4 720,540.00018 -6.68e-7,540.00018 l 0,-539.99999689 z"
         clip-rule="evenodd"
         id="path2200" />
    </clipPath>
    <clipPath
       clipPathUnits="userSpaceOnUse"
       id="clipPath2194">
      <path
         inkscape:connector-curvature="0"
         d="m 0,1.8311e-4 720,0 0,539.99999689 -720,0 L 0,1.8311e-4 z"
         clip-rule="evenodd"
         id="path2196" />
    </clipPath>
    <clipPath
       clipPathUnits="userSpaceOnUse"
       id="clipPath2610">
      <path
         inkscape:connector-curvature="0"
         d="M -1.795e-6,1.8311e-4 720,1.8311e-4 720,540.00018 l -720.000001795,0 0,-539.99999689 z"
         clip-rule="evenodd"
         id="path2612" />
    </clipPath>
    <clipPath
       clipPathUnits="userSpaceOnUse"
       id="clipPath2606">
      <path
         inkscape:connector-curvature="0"
         d="M -6.68e-7,1.8311e-4 720,1.8311e-4 720,540.00018 -6.68e-7,540.00018 l 0,-539.99999689 z"
         clip-rule="evenodd"
         id="path2608" />
    </clipPath>
    <clipPath
       clipPathUnits="userSpaceOnUse"
       id="clipPath2602">
      <path
         inkscape:connector-curvature="0"
         d="m 0,1.8311e-4 720,0 0,539.99999689 -720,0 L 0,1.8311e-4 z"
         clip-rule="evenodd"
         id="path2604" />
    </clipPath>
    <clipPath
       clipPathUnits="userSpaceOnUse"
       id="clipPath2854">
      <path
         inkscape:connector-curvature="0"
         d="M -1.645e-6,2.4414e-4 720,2.4414e-4 720,540.00024 -1.645e-6,540.00024 l 0,-539.99999586 z"
         clip-rule="evenodd"
         id="path2856" />
    </clipPath>
    <clipPath
       clipPathUnits="userSpaceOnUse"
       id="clipPath2858">
      <path
         inkscape:connector-curvature="0"
         d="m 0,0 352.7,0 0,273.15 L 0,273.15 0,0 z"
         id="path2860" />
    </clipPath>
    <clipPath
       clipPathUnits="userSpaceOnUse"
       id="clipPath2850">
      <path
         inkscape:connector-curvature="0"
         d="M -1.795e-6,1.8311e-4 720,1.8311e-4 720,540.00018 l -720.000001795,0 0,-539.99999689 z"
         clip-rule="evenodd"
         id="path2852" />
    </clipPath>
    <clipPath
       clipPathUnits="userSpaceOnUse"
       id="clipPath2846">
      <path
         inkscape:connector-curvature="0"
         d="M -6.68e-7,1.8311e-4 720,1.8311e-4 720,540.00018 -6.68e-7,540.00018 l 0,-539.99999689 z"
         clip-rule="evenodd"
         id="path2848" />
    </clipPath>
    <clipPath
       clipPathUnits="userSpaceOnUse"
       id="clipPath2842">
      <path
         inkscape:connector-curvature="0"
         d="m 0,1.8311e-4 720,0 0,539.99999689 -720,0 L 0,1.8311e-4 z"
         clip-rule="evenodd"
         id="path2844" />
    </clipPath>
    <clipPath
       clipPathUnits="userSpaceOnUse"
       id="clipPath3234">
      <path
         inkscape:connector-curvature="0"
         d="M -4.492e-6,1.8311e-4 720,1.8311e-4 720,540.00018 l -720.000004492,0 0,-539.99999689 z"
         clip-rule="evenodd"
         id="path3236" />
    </clipPath>
    <clipPath
       clipPathUnits="userSpaceOnUse"
       id="clipPath3230">
      <path
         inkscape:connector-curvature="0"
         d="M -1.43e-7,1.8311e-4 720,1.8311e-4 720,540.00018 -1.43e-7,540.00018 l 0,-539.99999689 z"
         clip-rule="evenodd"
         id="path3232" />
    </clipPath>
    <clipPath
       clipPathUnits="userSpaceOnUse"
       id="clipPath3480">
      <path
         inkscape:connector-curvature="0"
         d="M -1.712e-6,1.8311e-4 720,1.8311e-4 720,540.00018 -1.712e-6,540.00018 l 0,-539.99999689 z"
         clip-rule="evenodd"
         id="path3482" />
    </clipPath>
    <clipPath
       clipPathUnits="userSpaceOnUse"
       id="clipPath3476">
      <path
         inkscape:connector-curvature="0"
         d="M -3.97e-7,1.8311e-4 720,1.8311e-4 720,540.00018 l -720.000000397,0 0,-539.99999689 z"
         clip-rule="evenodd"
         id="path3478" />
    </clipPath>
    <clipPath
       clipPathUnits="userSpaceOnUse"
       id="clipPath3720">
      <path
         inkscape:connector-curvature="0"
         d="M -1.866e-6,1.8311e-4 720,1.8311e-4 720,540.00018 l -720.000001866,0 0,-539.99999689 z"
         clip-rule="evenodd"
         id="path3722" />
    </clipPath>
    <clipPath
       clipPathUnits="userSpaceOnUse"
       id="clipPath3716">
      <path
         inkscape:connector-curvature="0"
         d="M -3.27e-7,1.8311e-4 720,1.8311e-4 720,540.00018 -3.27e-7,540.00018 l 0,-539.99999689 z"
         clip-rule="evenodd"
         id="path3718" />
    </clipPath>
    <clipPath
       clipPathUnits="userSpaceOnUse"
       id="clipPath3712">
      <path
         inkscape:connector-curvature="0"
         d="M 3.635e-6,1.8311e-4 720,1.8311e-4 720,540.00018 l -719.999996365,0 0,-539.99999689 z"
         clip-rule="evenodd"
         id="path3714" />
    </clipPath>
    <clipPath
       clipPathUnits="userSpaceOnUse"
       id="clipPath4024">
      <path
         inkscape:connector-curvature="0"
         d="M -3.27e-7,1.8311e-4 720,1.8311e-4 720,540.00018 -3.27e-7,540.00018 l 0,-539.99999689 z"
         clip-rule="evenodd"
         id="path4026" />
    </clipPath>
    <clipPath
       clipPathUnits="userSpaceOnUse"
       id="clipPath4020">
      <path
         inkscape:connector-curvature="0"
         d="M 5.61e-7,1.8311e-4 720,1.8311e-4 720,540.00018 5.61e-7,540.00018 l 0,-539.99999689 z"
         clip-rule="evenodd"
         id="path4022" />
    </clipPath>
    <clipPath
       clipPathUnits="userSpaceOnUse"
       id="clipPath4016">
      <path
         inkscape:connector-curvature="0"
         d="M 5.39e-7,2.4414e-4 720,2.4414e-4 720,540.00024 5.39e-7,540.00024 l 0,-539.99999586 z"
         clip-rule="evenodd"
         id="path4018" />
    </clipPath>
    <clipPath
       clipPathUnits="userSpaceOnUse"
       id="clipPath4172">
      <path
         inkscape:connector-curvature="0"
         d="M -8.71e-7,0 720,0 720,540 -8.71e-7,540 l 0,-540 z"
         clip-rule="evenodd"
         id="path4174" />
    </clipPath>
    <clipPath
       clipPathUnits="userSpaceOnUse"
       id="clipPath4176">
      <path
         inkscape:connector-curvature="0"
         d="m 0,0 361.12,0 0,186.9 L 0,186.9 0,0 z"
         id="path4178" />
    </clipPath>
    <clipPath
       clipPathUnits="userSpaceOnUse"
       id="clipPath4992">
      <path
         inkscape:connector-curvature="0"
         d="M -2.38e-7,1.8311e-4 720,1.8311e-4 720,540.00018 -2.38e-7,540.00018 l 0,-539.99999689 z"
         clip-rule="evenodd"
         id="path4994" />
    </clipPath>
    <clipPath
       clipPathUnits="userSpaceOnUse"
       id="clipPath4996">
      <path
         inkscape:connector-curvature="0"
         d="m 0,0 223.12,0 0,273.15 L 0,273.15 0,0 z"
         id="path4998" />
    </clipPath>
    <clipPath
       clipPathUnits="userSpaceOnUse"
       id="clipPath4984">
      <path
         inkscape:connector-curvature="0"
         d="M -1.773e-6,6.104e-6 720,6.104e-6 720,540.00001 -1.773e-6,540.00001 -1.773e-6,6.104e-6 z"
         clip-rule="evenodd"
         id="path4986" />
    </clipPath>
    <clipPath
       clipPathUnits="userSpaceOnUse"
       id="clipPath4988">
      <path
         inkscape:connector-curvature="0"
         d="m 0,0 361.12,0 0,186.9 L 0,186.9 0,0 z"
         id="path4990" />
    </clipPath>
    <clipPath
       clipPathUnits="userSpaceOnUse"
       id="clipPath5008">
      <path
         inkscape:connector-curvature="0"
         d="m 5.981e-6,6.104e-6 720.000004019,0 0,540.0000038959999 -720.000004019,0 L 5.981e-6,6.104e-6 z"
         clip-rule="evenodd"
         id="path5010" />
    </clipPath>
    <clipPath
       clipPathUnits="userSpaceOnUse"
       id="clipPath5012">
      <path
         inkscape:connector-curvature="0"
         d="m 0,0 361.12,0 0,186.9 L 0,186.9 0,0 z"
         id="path5014" />
    </clipPath>
    <clipPath
       clipPathUnits="userSpaceOnUse"
       id="clipPath5000">
      <path
         inkscape:connector-curvature="0"
         d="M -7.29e-7,2.4414e-4 720,2.4414e-4 720,540.00024 -7.29e-7,540.00024 l 0,-539.99999586 z"
         clip-rule="evenodd"
         id="path5002" />
    </clipPath>
    <clipPath
       clipPathUnits="userSpaceOnUse"
       id="clipPath5004">
      <path
         inkscape:connector-curvature="0"
         d="m 0,0 223.12,0 0,273.15 L 0,273.15 0,0 z"
         id="path5006" />
    </clipPath>
    <clipPath
       clipPathUnits="userSpaceOnUse"
       id="clipPath6288">
      <path
         inkscape:connector-curvature="0"
         d="M 2.671e-6,1.2207e-4 720,1.2207e-4 720,540.00012 l -719.999997329,0 0,-539.99999793 z"
         clip-rule="evenodd"
         id="path6290" />
    </clipPath>
    <clipPath
       clipPathUnits="userSpaceOnUse"
       id="clipPath6292">
      <path
         inkscape:connector-curvature="0"
         d="m 0,0 361.12,0 0,186.9 L 0,186.9 0,0 z"
         id="path6294" />
    </clipPath>
    <clipPath
       clipPathUnits="userSpaceOnUse"
       id="clipPath6280">
      <path
         inkscape:connector-curvature="0"
         d="M -1.747e-6,1.8311e-4 720,1.8311e-4 720,540.00018 l -720.000001747,0 0,-539.99999689 z"
         clip-rule="evenodd"
         id="path6282" />
    </clipPath>
    <clipPath
       clipPathUnits="userSpaceOnUse"
       id="clipPath6284">
      <path
         inkscape:connector-curvature="0"
         d="m 0,0 202.56,0 0,273.15 L 0,273.15 0,0 z"
         id="path6286" />
    </clipPath>
    <clipPath
       clipPathUnits="userSpaceOnUse"
       id="clipPath6272">
      <path
         inkscape:connector-curvature="0"
         d="m 5.583e-6,6.104e-6 720.000004417,0 0,540.0000038959999 -720.000004417,0 L 5.583e-6,6.104e-6 z"
         clip-rule="evenodd"
         id="path6274" />
    </clipPath>
    <clipPath
       clipPathUnits="userSpaceOnUse"
       id="clipPath6276">
      <path
         inkscape:connector-curvature="0"
         d="m 0,0 361.12,0 0,186.9 L 0,186.9 0,0 z"
         id="path6278" />
    </clipPath>
    <clipPath
       clipPathUnits="userSpaceOnUse"
       id="clipPath6264">
      <path
         inkscape:connector-curvature="0"
         d="M 7.2e-8,6.104e-6 720,6.104e-6 720,540.00001 7.2e-8,540.00001 7.2e-8,6.104e-6 z"
         clip-rule="evenodd"
         id="path6266" />
    </clipPath>
    <clipPath
       clipPathUnits="userSpaceOnUse"
       id="clipPath6268">
      <path
         inkscape:connector-curvature="0"
         d="m 0,0 361.12,0 0,186.9 L 0,186.9 0,0 z"
         id="path6270" />
    </clipPath>
    <clipPath
       clipPathUnits="userSpaceOnUse"
       id="clipPath6260">
      <path
         inkscape:connector-curvature="0"
         d="M -9.93e-7,2.4414e-4 720,2.4414e-4 720,540.00024 -9.93e-7,540.00024 l 0,-539.99999586 z"
         clip-rule="evenodd"
         id="path6262" />
    </clipPath>
    <clipPath
       clipPathUnits="userSpaceOnUse"
       id="clipPath6252">
      <path
         inkscape:connector-curvature="0"
         d="M -1.959e-6,2.4414e-4 720,2.4414e-4 720,540.00024 -1.959e-6,540.00024 l 0,-539.99999586 z"
         clip-rule="evenodd"
         id="path6254" />
    </clipPath>
    <clipPath
       clipPathUnits="userSpaceOnUse"
       id="clipPath6256">
      <path
         inkscape:connector-curvature="0"
         d="m 0,0 143.34,0 0,113.71 L 0,113.71 0,0 z"
         id="path6258" />
    </clipPath>
    <clipPath
       clipPathUnits="userSpaceOnUse"
       id="clipPath7010">
      <path
         inkscape:connector-curvature="0"
         d="m 0,0 361.12,0 0,186.9 L 0,186.9 0,0 z"
         id="path7012" />
    </clipPath>
    <clipPath
       clipPathUnits="userSpaceOnUse"
       id="clipPath7002">
      <path
         inkscape:connector-curvature="0"
         d="m 0,0 361.12,0 0,186.9 L 0,186.9 0,0 z"
         id="path7004" />
    </clipPath>
    <clipPath
       clipPathUnits="userSpaceOnUse"
       id="clipPath6994">
      <path
         inkscape:connector-curvature="0"
         d="m 0,0 223.12,0 0,273.15 L 0,273.15 0,0 z"
         id="path6996" />
    </clipPath>
    <clipPath
       clipPathUnits="userSpaceOnUse"
       id="clipPath6982">
      <path
         inkscape:connector-curvature="0"
         d="m 0,0 361.12,0 0,186.9 L 0,186.9 0,0 z"
         id="path6984" />
    </clipPath>
    <clipPath
       clipPathUnits="userSpaceOnUse"
       id="clipPath6974">
      <path
         inkscape:connector-curvature="0"
         d="m 0,0 223.12,0 0,273.15 L 0,273.15 0,0 z"
         id="path6976" />
    </clipPath>
    <clipPath
       clipPathUnits="userSpaceOnUse"
       id="clipPath6966">
      <path
         inkscape:connector-curvature="0"
         d="m 0,0 361.12,0 0,186.9 L 0,186.9 0,0 z"
         id="path6968" />
    </clipPath>
    <clipPath
       clipPathUnits="userSpaceOnUse"
       id="clipPath7954">
      <path
         inkscape:connector-curvature="0"
         d="m 0,0 361.12,0 0,186.9 L 0,186.9 0,0 z"
         id="path7956" />
    </clipPath>
    <clipPath
       clipPathUnits="userSpaceOnUse"
       id="clipPath7942">
      <path
         inkscape:connector-curvature="0"
         d="m 0,0 223.12,0 0,273.15 L 0,273.15 0,0 z"
         id="path7944" />
    </clipPath>
    <clipPath
       clipPathUnits="userSpaceOnUse"
       id="clipPath7930">
      <path
         inkscape:connector-curvature="0"
         d="m 0,0 361.12,0 0,186.9 L 0,186.9 0,0 z"
         id="path7932" />
    </clipPath>
    <clipPath
       clipPathUnits="userSpaceOnUse"
       id="clipPath7922">
      <path
         inkscape:connector-curvature="0"
         d="m 0,0 223.12,0 0,273.15 L 0,273.15 0,0 z"
         id="path7924" />
    </clipPath>
    <clipPath
       clipPathUnits="userSpaceOnUse"
       id="clipPath9450">
      <path
         inkscape:connector-curvature="0"
         d="m 0,0 361.12,0 0,186.9 L 0,186.9 0,0 z"
         id="path9452" />
    </clipPath>
    <clipPath
       clipPathUnits="userSpaceOnUse"
       id="clipPath9442">
      <path
         inkscape:connector-curvature="0"
         d="m 0,0 361.12,0 0,186.9 L 0,186.9 0,0 z"
         id="path9444" />
    </clipPath>
    <clipPath
       clipPathUnits="userSpaceOnUse"
       id="clipPath9434">
      <path
         inkscape:connector-curvature="0"
         d="m 0,0 223.12,0 0,273.15 L 0,273.15 0,0 z"
         id="path9436" />
    </clipPath>
    <clipPath
       clipPathUnits="userSpaceOnUse"
       id="clipPath9426">
      <path
         inkscape:connector-curvature="0"
         d="m 0,0 361.12,0 0,186.9 L 0,186.9 0,0 z"
         id="path9428" />
    </clipPath>
    <clipPath
       clipPathUnits="userSpaceOnUse"
       id="clipPath9414">
      <path
         inkscape:connector-curvature="0"
         d="m 0,0 361.12,0 0,186.9 L 0,186.9 0,0 z"
         id="path9416" />
    </clipPath>
    <clipPath
       clipPathUnits="userSpaceOnUse"
       id="clipPath10078">
      <path
         inkscape:connector-curvature="0"
         d="M -5.78e-7,540 720,540 720,1.2207e-4 -2.806e-6,1.2207e-4"
         clip-rule="evenodd"
         id="path10080" />
    </clipPath>
    <clipPath
       clipPathUnits="userSpaceOnUse"
       id="clipPath10074">
      <path
         inkscape:connector-curvature="0"
         d="M -5.78e-7,540 720,540 720,1.2207e-4 -2.806e-6,1.2207e-4"
         clip-rule="evenodd"
         id="path10076" />
    </clipPath>
    <clipPath
       clipPathUnits="userSpaceOnUse"
       id="clipPath10070">
      <path
         inkscape:connector-curvature="0"
         d="M -5.78e-7,540 720,540 720,1.2207e-4 -2.806e-6,1.2207e-4"
         clip-rule="evenodd"
         id="path10072" />
    </clipPath>
    <clipPath
       clipPathUnits="userSpaceOnUse"
       id="clipPath10066">
      <path
         inkscape:connector-curvature="0"
         d="M -5.78e-7,540 720,540 720,1.2207e-4 -2.806e-6,1.2207e-4"
         clip-rule="evenodd"
         id="path10068" />
    </clipPath>
    <clipPath
       clipPathUnits="userSpaceOnUse"
       id="clipPath10062">
      <path
         inkscape:connector-curvature="0"
         d="M -1.046e-6,540 720,540 720,6.104e-6 l -720.000002643,0"
         clip-rule="evenodd"
         id="path10064" />
    </clipPath>
    <clipPath
       clipPathUnits="userSpaceOnUse"
       id="clipPath10058">
      <path
         inkscape:connector-curvature="0"
         d="M -3.919e-6,1.8311e-4 720,1.8311e-4 720,540.00018 l -720.000003919,0 0,-539.99999689 z"
         clip-rule="evenodd"
         id="path10060" />
    </clipPath>
    <clipPath
       clipPathUnits="userSpaceOnUse"
       id="clipPath10054">
      <path
         inkscape:connector-curvature="0"
         d="M -1.27e-7,1.8311e-4 720,1.8311e-4 720,540.00018 -1.27e-7,540.00018 l 0,-539.99999689 z"
         clip-rule="evenodd"
         id="path10056" />
    </clipPath>
    <clipPath
       clipPathUnits="userSpaceOnUse"
       id="clipPath10050">
      <path
         inkscape:connector-curvature="0"
         d="M -7.55e-7,540 720,540 720,1.2207e-4 -3.756e-6,1.2207e-4"
         clip-rule="evenodd"
         id="path10052" />
    </clipPath>
    <clipPath
       clipPathUnits="userSpaceOnUse"
       id="clipPath10628">
      <path
         inkscape:connector-curvature="0"
         d="M -3.941e-6,1.8311e-4 720,1.8311e-4 720,540.00018 l -720.000003941,0 0,-539.99999689 z"
         clip-rule="evenodd"
         id="path10630" />
    </clipPath>
    <clipPath
       clipPathUnits="userSpaceOnUse"
       id="clipPath10624">
      <path
         inkscape:connector-curvature="0"
         d="M -5.21e-7,1.8311e-4 720,1.8311e-4 720,540.00018 -5.21e-7,540.00018 l 0,-539.99999689 z"
         clip-rule="evenodd"
         id="path10626" />
    </clipPath>
    <clipPath
       clipPathUnits="userSpaceOnUse"
       id="clipPath10620">
      <path
         inkscape:connector-curvature="0"
         d="M -2.256e-6,540 720,540 720,6.104e-6 -4.141e-6,6.104e-6"
         clip-rule="evenodd"
         id="path10622" />
    </clipPath>
    <clipPath
       clipPathUnits="userSpaceOnUse"
       id="clipPath10616">
      <path
         inkscape:connector-curvature="0"
         d="M 2.21e-7,540 720,540 720,1.2207e-4 -1.445e-6,1.2207e-4"
         clip-rule="evenodd"
         id="path10618" />
    </clipPath>
    <clipPath
       clipPathUnits="userSpaceOnUse"
       id="clipPath10612">
      <path
         inkscape:connector-curvature="0"
         d="M 1.542e-6,540 720,540 720,6.104e-6 -1.23e-7,6.104e-6"
         clip-rule="evenodd"
         id="path10614" />
    </clipPath>
    <clipPath
       clipPathUnits="userSpaceOnUse"
       id="clipPath10608">
      <path
         inkscape:connector-curvature="0"
         d="M -5.69e-7,540 720,540 720,1.2207e-4 -2.083e-6,6.104e-6"
         clip-rule="evenodd"
         id="path10610" />
    </clipPath>
    <clipPath
       clipPathUnits="userSpaceOnUse"
       id="clipPath10604">
      <path
         inkscape:connector-curvature="0"
         d="M -4.59e-7,540 720,540 720,1.2207e-4 -6.62e-7,1.2207e-4"
         clip-rule="evenodd"
         id="path10606" />
    </clipPath>
    <clipPath
       clipPathUnits="userSpaceOnUse"
       id="clipPath10600">
      <path
         inkscape:connector-curvature="0"
         d="M -6.79e-7,540 720,540 720,6.104e-6 -8.01e-7,1.2207e-4"
         clip-rule="evenodd"
         id="path10602" />
    </clipPath>
    <clipPath
       clipPathUnits="userSpaceOnUse"
       id="clipPath10596">
      <path
         inkscape:connector-curvature="0"
         d="M -1.963e-6,540 720,540 720,6.104e-6 -2.443e-6,6.104e-6"
         clip-rule="evenodd"
         id="path10598" />
    </clipPath>
    <clipPath
       clipPathUnits="userSpaceOnUse"
       id="clipPath10592">
      <path
         inkscape:connector-curvature="0"
         d="M -1.963e-6,540 720,540 720,6.104e-6 -2.443e-6,6.104e-6"
         clip-rule="evenodd"
         id="path10594" />
    </clipPath>
    <clipPath
       clipPathUnits="userSpaceOnUse"
       id="clipPath10588">
      <path
         inkscape:connector-curvature="0"
         d="M -1.963e-6,540 720,540 720,6.104e-6 -2.443e-6,6.104e-6"
         clip-rule="evenodd"
         id="path10590" />
    </clipPath>
    <clipPath
       clipPathUnits="userSpaceOnUse"
       id="clipPath10584">
      <path
         inkscape:connector-curvature="0"
         d="M -1.963e-6,540 720,540 720,6.104e-6 -2.443e-6,6.104e-6"
         clip-rule="evenodd"
         id="path10586" />
    </clipPath>
    <clipPath
       clipPathUnits="userSpaceOnUse"
       id="clipPath10580">
      <path
         inkscape:connector-curvature="0"
         d="M 6.3e-8,540 720,540 720,1.2207e-4 -8.42e-7,1.2207e-4"
         clip-rule="evenodd"
         id="path10582" />
    </clipPath>
    <clipPath
       clipPathUnits="userSpaceOnUse"
       id="clipPath10576">
      <path
         inkscape:connector-curvature="0"
         d="M -1.657e-6,540 720,540 720,1.2207e-4 -3.843e-6,1.2207e-4"
         clip-rule="evenodd"
         id="path10578" />
    </clipPath>
  </defs>
  <sodipodi:namedview
     id="base"
     pagecolor="#ffffff"
     bordercolor="#666666"
     borderopacity="1.0"
     inkscape:pageopacity="0.0"
     inkscape:pageshadow="2"
     inkscape:zoom="7.9195959"
     inkscape:cx="54.457875"
     inkscape:cy="25.238799"
     inkscape:document-units="px"
     inkscape:current-layer="layer1"
     showgrid="false"
     fit-margin-top="0"
     fit-margin-left="0"
     fit-margin-right="0"
     fit-margin-bottom="0"
     inkscape:window-width="1615"
     inkscape:window-height="1026"
     inkscape:window-x="65"
     inkscape:window-y="24"
     inkscape:window-maximized="1" />
  <metadata
     id="metadata36375">
    <rdf:RDF>
      <cc:Work
         rdf:about="">
        <dc:format>image/svg+xml</dc:format>
        <dc:type
           rdf:resource="http://purl.org/dc/dcmitype/StillImage" />
        <dc:title></dc:title>
      </cc:Work>
    </rdf:RDF>
  </metadata>
  <g
     inkscape:label="Layer 1"
     inkscape:groupmode="layer"
     id="layer1"
     transform="translate(-226.0625,-526.15166)">
    <path
       inkscape:connector-curvature="0"
       id="path11078"
       style="fill:#ccccff;fill-opacity:1;fill-rule:evenodd;stroke:none"
       d="m 226.15934,568.45658 90.9414,0 0,-38.83094 -90.9414,0 0,38.83094 z" />
    <path
       inkscape:connector-curvature="0"
       id="path11080"
       style="fill:none;stroke:#000000;stroke-width:0.12917814;stroke-linecap:butt;stroke-linejoin:miter;stroke-miterlimit:10;stroke-opacity:1;stroke-dasharray:none"
       d="m 226.15934,568.45658 90.9414,0 0,-38.83094 -90.9414,0 0,38.83094 z" />
    <path
       inkscape:connector-curvature="0"
       id="path11082"
       style="fill:#ffff99;fill-opacity:1;fill-rule:evenodd;stroke:none"
       d="m 226.15934,538.14967 16.5348,0 0,-8.52403 -16.5348,0 0,8.52403 z" />
    <path
       inkscape:connector-curvature="0"
       id="path11084"
       style="fill:none;stroke:#000000;stroke-width:0.12917814;stroke-linecap:butt;stroke-linejoin:miter;stroke-miterlimit:10;stroke-opacity:1;stroke-dasharray:none"
       d="m 226.15934,538.14967 16.5348,0 0,-8.52403 -16.5348,0 0,8.52403 z" />
    <path
       inkscape:connector-curvature="0"
       id="path11086"
       style="fill:#ffff99;fill-opacity:1;fill-rule:evenodd;stroke:none"
       d="m 242.69414,538.14967 29.96932,0 0,-8.52403 -29.96932,0 0,8.52403 z" />
    <path
       inkscape:connector-curvature="0"
       id="path11088"
       style="fill:none;stroke:#000000;stroke-width:0.12917814;stroke-linecap:butt;stroke-linejoin:miter;stroke-miterlimit:10;stroke-opacity:1;stroke-dasharray:none"
       d="m 242.69414,538.14967 29.96932,0 0,-8.52403 -29.96932,0 0,8.52403 z" />
    <path
       inkscape:connector-curvature="0"
       id="path11090"
       style="fill:#ffff99;fill-opacity:1;fill-rule:evenodd;stroke:none"
       d="m 272.66346,538.14967 29.96933,0 0,-8.52403 -29.96933,0 0,8.52403 z" />
    <path
       inkscape:connector-curvature="0"
       id="path11092"
       style="fill:none;stroke:#000000;stroke-width:0.12917814;stroke-linecap:butt;stroke-linejoin:miter;stroke-miterlimit:10;stroke-opacity:1;stroke-dasharray:none"
       d="m 272.66346,538.14967 29.96933,0 0,-8.52403 -29.96933,0 0,8.52403 z" />
    <path
       inkscape:connector-curvature="0"
       id="path11094"
       style="fill:#ccffff;fill-opacity:1;fill-rule:evenodd;stroke:none"
       d="m 226.11629,575.48043 90.9414,0 0,-9.05676 -90.9414,0 0,9.05676 z" />
    <path
       inkscape:connector-curvature="0"
       id="path11096"
       style="fill:none;stroke:#000000;stroke-width:0.12917814;stroke-linecap:butt;stroke-linejoin:miter;stroke-miterlimit:10;stroke-opacity:1;stroke-dasharray:none"
       d="m 226.11629,575.48043 90.9414,0 0,-9.05676 -90.9414,0 0,9.05676 z" />
    <text
       id="text11098"
       x="229.45427"
       y="533.13586"
       style="font-size:2.06685019px">
      <tspan
         id="tspan11100"
         sodipodi:role="line"
         y="533.13586"
         x="229.45427 231.18213 233.10356 235.02495 235.98567 237.90706 239.82849"
         style="font-size:3.45577288px;font-variant:normal;font-weight:normal;writing-mode:lr-tb;fill:#000000;fill-opacity:1;fill-rule:nonzero;stroke:none;font-family:Arial Black;-inkscape-font-specification:Arial">content</tspan>
    </text>
    <text
       id="text11102"
       x="231.87248"
       y="536.56677"
       style="font-size:2.06685019px">
      <tspan
         id="tspan11104"
         sodipodi:role="line"
         y="536.56677"
         x="231.87248 232.83203 234.53712 236.45625"
         style="font-size:3.45163965px;font-variant:normal;font-weight:normal;writing-mode:lr-tb;fill:#000000;fill-opacity:1;fill-rule:nonzero;stroke:none;font-family:Arial Black;-inkscape-font-specification:Arial">type</tspan>
    </text>
    <text
       id="text11106"
       x="247.85782"
       y="535.71246"
       style="font-size:2.06685019px">
      <tspan
         id="tspan11108"
         sodipodi:role="line"
         y="535.71246"
         x="247.85782 250.16006 252.44507 254.24335 255.17184 256.89767 258.81677 259.96616 261.69891 262.46515 264.38428"
         style="font-size:3.45163965px;font-variant:normal;font-weight:normal;writing-mode:lr-tb;fill:#000000;fill-opacity:1;fill-rule:nonzero;stroke:none;font-family:Arial Black;-inkscape-font-specification:Arial">SSL version</tspan>
    </text>
    <text
       id="text11110"
       x="282.89093"
       y="535.31464"
       style="font-size:2.06685019px">
      <tspan
         id="tspan11112"
         sodipodi:role="line"
         y="535.31464"
         x="282.89093 283.65717 285.57632 287.49542 289.41452 290.37405"
         style="font-size:3.45163965px;font-variant:normal;font-weight:normal;writing-mode:lr-tb;fill:#000000;fill-opacity:1;fill-rule:nonzero;stroke:none;font-family:Arial Black;-inkscape-font-specification:Arial">length</tspan>
    </text>
    <text
       id="text11114"
       x="263.7691"
       y="571.98572"
       style="font-size:2.06685019px">
      <tspan
         id="tspan11116"
         sodipodi:role="line"
         y="571.98572"
         x="263.7691 266.64435 268.94656"
         style="font-size:3.45163965px;font-variant:normal;font-weight:normal;writing-mode:lr-tb;fill:#000000;fill-opacity:1;fill-rule:nonzero;stroke:none;font-family:Arial Black;-inkscape-font-specification:Arial">MAC</tspan>
    </text>
    <text
       id="text11118"
       x="264.26517"
       y="550.25452"
       style="font-size:2.06685019px">
      <tspan
         id="tspan11120"
         sodipodi:role="line"
         y="550.25452"
         x="264.26517 266.18427 268.10339 269.06296"
         style="font-size:3.45163965px;font-variant:normal;font-weight:normal;writing-mode:lr-tb;fill:#000000;fill-opacity:1;fill-rule:nonzero;stroke:none;font-family:Arial Black;-inkscape-font-specification:Arial">data</tspan>
    </text>
    <text
       id="text11122"
       x="228.82213"
       y="528.66455"
       style="font-size:2.06685019px">
      <tspan
         id="tspan11124"
         sodipodi:role="line"
         y="528.66455"
         x="228.82213 230.74127 231.6732 233.5923 235.31815 236.26041"
         style="font-size:3.45163965px;font-variant:normal;font-weight:normal;writing-mode:lr-tb;fill:#000000;fill-opacity:1;fill-rule:nonzero;stroke:none;font-family:Arial Black;-inkscape-font-specification:Arial">1 byte</tspan>
    </text>
    <text
       id="text11126"
       x="252.07935"
       y="528.8833"
       style="font-size:2.06685019px">
      <tspan
         id="tspan11128"
         sodipodi:role="line"
         y="528.8833"
         x="252.07935 253.99849 254.93042 256.84952 258.57535 259.51764 261.43677"
         style="font-size:3.45163965px;font-variant:normal;font-weight:normal;writing-mode:lr-tb;fill:#000000;fill-opacity:1;fill-rule:nonzero;stroke:none;font-family:Arial Black;-inkscape-font-specification:Arial">2 bytes</tspan>
    </text>
    <text
       id="text11130"
       x="280.93256"
       y="528.8833"
       style="font-size:2.06685019px">
      <tspan
         id="tspan11132"
         sodipodi:role="line"
         y="528.8833"
         x="280.93256 282.85172 283.78363 285.70273 287.42859 288.37085 290.28998"
         style="font-size:3.45163965px;font-variant:normal;font-weight:normal;writing-mode:lr-tb;fill:#000000;fill-opacity:1;fill-rule:nonzero;stroke:none;font-family:Arial Black;-inkscape-font-specification:Arial">3 bytes</tspan>
    </text>
  </g>
</svg>
