<?xml version="1.0" encoding="UTF-8" standalone="no"?>
<!-- Created with Inkscape (http://www.inkscape.org/) -->

<svg
   xmlns:dc="http://purl.org/dc/elements/1.1/"
   xmlns:cc="http://creativecommons.org/ns#"
   xmlns:rdf="http://www.w3.org/1999/02/22-rdf-syntax-ns#"
   xmlns:svg="http://www.w3.org/2000/svg"
   xmlns="http://www.w3.org/2000/svg"
   xmlns:sodipodi="http://sodipodi.sourceforge.net/DTD/sodipodi-0.dtd"
   xmlns:inkscape="http://www.inkscape.org/namespaces/inkscape"
   width="729.62262"
   height="325.12698"
   id="svg3250"
   version="1.1"
   inkscape:version="0.48.5 r10040"
   sodipodi:docname="CaminhoIP.svg">
  <defs
     id="defs3252">
    <linearGradient
       id="linearGradient4177">
      <stop
         style="stop-color:#8f9e88;stop-opacity:1;"
         offset="0"
         id="stop4179" />
      <stop
         style="stop-color:#ffffff;stop-opacity:0;"
         offset="1"
         id="stop4181" />
    </linearGradient>
    <linearGradient
       x1="284"
       y1="255.63"
       x2="284"
       y2="84.875"
       gradientUnits="userSpaceOnUse"
       spreadMethod="pad"
       id="linearGradient96">
      <stop
         style="stop-opacity:1;stop-color:#ffffff"
         offset="0"
         id="stop98" />
      <stop
         style="stop-opacity:1;stop-color:#ffffff"
         offset="1"
         id="stop100" />
    </linearGradient>
  </defs>
  <sodipodi:namedview
     id="base"
     pagecolor="#ffffff"
     bordercolor="#666666"
     borderopacity="1.0"
     inkscape:pageopacity="0.0"
     inkscape:pageshadow="2"
     inkscape:zoom="0.98994949"
     inkscape:cx="276.72086"
     inkscape:cy="208.90558"
     inkscape:document-units="px"
     inkscape:current-layer="layer1"
     showgrid="false"
     inkscape:window-width="1920"
     inkscape:window-height="1027"
     inkscape:window-x="0"
     inkscape:window-y="31"
     inkscape:window-maximized="1"
     fit-margin-top="1.1"
     fit-margin-bottom="1"
     fit-margin-right="1"
     fit-margin-left="1" />
  <metadata
     id="metadata3255">
    <rdf:RDF>
      <cc:Work
         rdf:about="">
        <dc:format>image/svg+xml</dc:format>
        <dc:type
           rdf:resource="http://purl.org/dc/dcmitype/StillImage" />
        <dc:title></dc:title>
      </cc:Work>
    </rdf:RDF>
  </metadata>
  <g
     inkscape:label="Layer 1"
     inkscape:groupmode="layer"
     id="layer1"
     transform="translate(-92.579199,-416.16013)">
    <path
       inkscape:connector-curvature="0"
       d="m 611.79563,537.74607 c 0,-6.5125 16.75,-11.8 37.425,-11.8 l 0,0 c 20.6625,0 37.425,5.2875 37.425,11.8 0,0 0,0 0,0 l 0,0 c 0,6.5125 -16.7625,11.8 -37.425,11.8 0,0 0,0 0,0 l 0,0 c -20.675,0 -37.425,-5.2875 -37.425,-11.8 0,0 0,0 0,0 z"
       style="fill:#ffffff;fill-opacity:1;fill-rule:evenodd;stroke:none"
       id="path4571" />
    <path
       inkscape:connector-curvature="0"
       d="m 611.79563,537.74607 c 0,-6.5125 16.75,-11.8 37.425,-11.8 l 0,0 c 20.6625,0 37.425,5.2875 37.425,11.8 0,0 0,0 0,0 l 0,0 c 0,6.5125 -16.7625,11.8 -37.425,11.8 0,0 0,0 0,0 l 0,0 c -20.675,0 -37.425,-5.2875 -37.425,-11.8 0,0 0,0 0,0 z"
       style="fill:none;stroke:#000000;stroke-width:1.25;stroke-linecap:butt;stroke-linejoin:round;stroke-miterlimit:10;stroke-opacity:1;stroke-dasharray:none"
       id="path4573" />
    <path
       inkscape:connector-curvature="0"
       d="m 611.48313,521.72107 0,16.875"
       style="fill:none;stroke:#000000;stroke-width:1.25;stroke-linecap:butt;stroke-linejoin:round;stroke-miterlimit:10;stroke-opacity:1;stroke-dasharray:none"
       id="path4575" />
    <path
       inkscape:connector-curvature="0"
       d="m 686.02063,520.47107 0.625,17.1875"
       style="fill:none;stroke:#000000;stroke-width:1.25;stroke-linecap:butt;stroke-linejoin:round;stroke-miterlimit:10;stroke-opacity:1;stroke-dasharray:none"
       id="path4577" />
    <path
       inkscape:connector-curvature="0"
       d="m 612.42063,538.28357 73.59375,0 0,-14.375 -73.59375,0 0,14.375 z"
       style="fill:#ffffff;fill-opacity:1;fill-rule:evenodd;stroke:none"
       id="path4579" />
    <path
       inkscape:connector-curvature="0"
       d="m 611.17063,520.63357 c 0,-7.6 16.75,-13.75 37.425,-13.75 l 0,0 c 20.6625,0 37.425,6.15 37.425,13.75 0,0 0,0 0,0 l 0,0 c 0,7.6 -16.7625,13.75 -37.425,13.75 0,0 0,0 0,0 l 0,0 c -20.675,0 -37.425,-6.15 -37.425,-13.75 0,0 0,0 0,0 z"
       style="fill:#ffffff;fill-opacity:1;fill-rule:evenodd;stroke:none"
       id="path4581" />
    <path
       inkscape:connector-curvature="0"
       d="m 611.17063,520.63357 c 0,-7.6 16.75,-13.75 37.425,-13.75 l 0,0 c 20.6625,0 37.425,6.15 37.425,13.75 0,0 0,0 0,0 l 0,0 c 0,7.6 -16.7625,13.75 -37.425,13.75 0,0 0,0 0,0 l 0,0 c -20.675,0 -37.425,-6.15 -37.425,-13.75 0,0 0,0 0,0 z"
       style="fill:none;stroke:#000000;stroke-width:1.25;stroke-linecap:butt;stroke-linejoin:round;stroke-miterlimit:10;stroke-opacity:1;stroke-dasharray:none"
       id="path4583" />
    <path
       inkscape:connector-curvature="0"
       d="m 629.14563,513.30857 13.275,-0.3375"
       style="fill:none;stroke:#000000;stroke-width:2.8125;stroke-linecap:butt;stroke-linejoin:round;stroke-miterlimit:10;stroke-opacity:1;stroke-dasharray:none"
       id="path4585" />
    <path
       inkscape:connector-curvature="0"
       d="m 654.64563,529.07107 11.6875,0"
       style="fill:none;stroke:#000000;stroke-width:2.8125;stroke-linecap:butt;stroke-linejoin:round;stroke-miterlimit:10;stroke-opacity:1;stroke-dasharray:none"
       id="path4587" />
    <path
       inkscape:connector-curvature="0"
       d="m 641.35813,513.30857 13.8125,15.7625"
       style="fill:none;stroke:#000000;stroke-width:2.8125;stroke-linecap:butt;stroke-linejoin:round;stroke-miterlimit:10;stroke-opacity:1;stroke-dasharray:none"
       id="path4589" />
    <path
       inkscape:connector-curvature="0"
       d="m 629.14563,528.43357 13.275,0.325"
       style="fill:none;stroke:#000000;stroke-width:2.8125;stroke-linecap:butt;stroke-linejoin:round;stroke-miterlimit:10;stroke-opacity:1;stroke-dasharray:none"
       id="path4591" />
    <path
       inkscape:connector-curvature="0"
       d="m 654.64563,512.65857 11.6875,0"
       style="fill:none;stroke:#000000;stroke-width:2.8125;stroke-linecap:butt;stroke-linejoin:round;stroke-miterlimit:10;stroke-opacity:1;stroke-dasharray:none"
       id="path4593" />
    <path
       inkscape:connector-curvature="0"
       d="m 641.35813,528.43357 13.8125,-15.775"
       style="fill:none;stroke:#000000;stroke-width:2.8125;stroke-linecap:butt;stroke-linejoin:round;stroke-miterlimit:10;stroke-opacity:1;stroke-dasharray:none"
       id="path4595" />
    <text
       xml:space="preserve"
       style="font-size:24px;font-style:normal;font-variant:normal;font-weight:normal;font-stretch:normal;text-align:start;line-height:125%;letter-spacing:0px;word-spacing:0px;writing-mode:lr-tb;text-anchor:start;fill:#000000;fill-opacity:1;stroke:none;font-family:Latin Modern Roman;-inkscape-font-specification:'Latin Modern Roman,'"
       x="693.11646"
       y="534.27576"
       id="text5177"
       sodipodi:linespacing="125%"><tspan
         sodipodi:role="line"
         id="tspan5179"
         x="693.11646"
         y="534.27576">Roteador IP</tspan></text>
    <path
       inkscape:connector-curvature="0"
       d="m 611.55183,593.26194 c 0,-6.5375 16.75,-11.825 37.4125,-11.825 l 0,0 c 20.675,0 37.425,5.2875 37.425,11.825 0,0 0,0 0,0 l 0,0 c 0,6.525 -16.75,11.81875 -37.425,11.81875 0,0 0,0 0,0 l 0,0 c -20.6625,0 -37.4125,-5.29375 -37.4125,-11.81875 0,0 0,0 0,0 z"
       style="fill:#ccccff;fill-opacity:1;fill-rule:evenodd;stroke:none"
       id="path5581" />
    <path
       inkscape:connector-curvature="0"
       d="m 611.55183,593.26194 c 0,-6.5375 16.75,-11.825 37.4125,-11.825 l 0,0 c 20.675,0 37.425,5.2875 37.425,11.825 0,0 0,0 0,0 l 0,0 c 0,6.525 -16.75,11.81875 -37.425,11.81875 0,0 0,0 0,0 l 0,0 c -20.6625,0 -37.4125,-5.29375 -37.4125,-11.81875 0,0 0,0 0,0 z"
       style="fill:none;stroke:#000000;stroke-width:1.25;stroke-linecap:butt;stroke-linejoin:round;stroke-miterlimit:10;stroke-opacity:1;stroke-dasharray:none"
       id="path5583" />
    <path
       inkscape:connector-curvature="0"
       d="m 611.55183,579.48694 0,14.625"
       style="fill:none;stroke:#000000;stroke-width:1.25;stroke-linecap:butt;stroke-linejoin:round;stroke-miterlimit:10;stroke-opacity:1;stroke-dasharray:none"
       id="path5585" />
    <path
       inkscape:connector-curvature="0"
       d="m 686.38933,579.48694 0,14.625"
       style="fill:none;stroke:#000000;stroke-width:1.25;stroke-linecap:butt;stroke-linejoin:round;stroke-miterlimit:10;stroke-opacity:1;stroke-dasharray:none"
       id="path5587" />
    <path
       inkscape:connector-curvature="0"
       d="m 611.55183,593.87444 74.21125,0 0,-14.38125 -74.21125,0 0,14.38125 z"
       style="fill:#ccccff;fill-opacity:1;fill-rule:evenodd;stroke:none"
       id="path5589" />
    <path
       inkscape:connector-curvature="0"
       d="m 610.92683,576.19944 c 0,-7.6125 16.75,-13.775 37.4125,-13.775 l 0,0 c 20.6625,0 37.425,6.1625 37.425,13.775 0,0 0,0 0,0 l 0,0 c 0,7.6 -16.7625,13.775 -37.425,13.775 0,0 0,0 0,0 l 0,0 c -20.6625,0 -37.4125,-6.175 -37.4125,-13.775 0,0 0,0 0,0 z"
       style="fill:#ccccff;fill-opacity:1;fill-rule:evenodd;stroke:none"
       id="path5591" />
    <path
       inkscape:connector-curvature="0"
       d="m 610.92683,576.19944 c 0,-7.6125 16.75,-13.775 37.4125,-13.775 l 0,0 c 20.6625,0 37.425,6.1625 37.425,13.775 0,0 0,0 0,0 l 0,0 c 0,7.6 -16.7625,13.775 -37.425,13.775 0,0 0,0 0,0 l 0,0 c -20.6625,0 -37.4125,-6.175 -37.4125,-13.775 0,0 0,0 0,0 z"
       style="fill:none;stroke:#000000;stroke-width:1.25;stroke-linecap:butt;stroke-linejoin:round;stroke-miterlimit:10;stroke-opacity:1;stroke-dasharray:none"
       id="path5593" />
    <path
       inkscape:connector-curvature="0"
       d="m 628.95183,568.84944 13.25,-0.3375"
       style="fill:none;stroke:#000000;stroke-width:2.8125;stroke-linecap:butt;stroke-linejoin:round;stroke-miterlimit:10;stroke-opacity:1;stroke-dasharray:none"
       id="path5595" />
    <path
       inkscape:connector-curvature="0"
       d="m 654.38933,584.59944 11.6625,0"
       style="fill:none;stroke:#000000;stroke-width:2.8125;stroke-linecap:butt;stroke-linejoin:round;stroke-miterlimit:10;stroke-opacity:1;stroke-dasharray:none"
       id="path5597" />
    <path
       inkscape:connector-curvature="0"
       d="m 641.13933,568.84944 13.7875,15.75"
       style="fill:none;stroke:#000000;stroke-width:2.8125;stroke-linecap:butt;stroke-linejoin:round;stroke-miterlimit:10;stroke-opacity:1;stroke-dasharray:none"
       id="path5599" />
    <path
       inkscape:connector-curvature="0"
       d="m 628.95183,584.03694 13.25,0.325"
       style="fill:none;stroke:#000000;stroke-width:2.8125;stroke-linecap:butt;stroke-linejoin:round;stroke-miterlimit:10;stroke-opacity:1;stroke-dasharray:none"
       id="path5601" />
    <path
       inkscape:connector-curvature="0"
       d="m 654.38933,568.27444 11.6625,0"
       style="fill:none;stroke:#000000;stroke-width:2.8125;stroke-linecap:butt;stroke-linejoin:round;stroke-miterlimit:10;stroke-opacity:1;stroke-dasharray:none"
       id="path5603" />
    <path
       inkscape:connector-curvature="0"
       d="m 641.13933,584.03694 13.7875,-15.7625"
       style="fill:none;stroke:#000000;stroke-width:2.8125;stroke-linecap:butt;stroke-linejoin:round;stroke-miterlimit:10;stroke-opacity:1;stroke-dasharray:none"
       id="path5605" />
    <text
       xml:space="preserve"
       style="font-size:24px;font-style:normal;font-variant:normal;font-weight:normal;font-stretch:normal;text-align:start;line-height:125%;letter-spacing:0px;word-spacing:0px;writing-mode:lr-tb;text-anchor:start;fill:#000000;fill-opacity:1;stroke:none;font-family:Latin Modern Roman;-inkscape-font-specification:'Latin Modern Roman,'"
       x="691.75635"
       y="580.72211"
       id="text5741"
       sodipodi:linespacing="125%"><tspan
         sodipodi:role="line"
         id="tspan5743"
         x="691.75635"
         y="580.72211">Roteador IP</tspan><tspan
         sodipodi:role="line"
         x="691.75635"
         y="610.72211"
         id="tspan5745">e MPLS</tspan></text>
    <path
       inkscape:connector-curvature="0"
       d="m 529.6792,703.98711 c 0,-6.525 16.75,-11.8125 37.4125,-11.8125 l 0,0 c 20.675,0 37.425,5.2875 37.425,11.8125 0,0 0,0 0,0 l 0,0 c 0,6.5375 -16.75,11.825 -37.425,11.825 0,0 0,0 0,0 l 0,0 c -20.6625,0 -37.4125,-5.2875 -37.4125,-11.825 0,0 0,0 0,0 z"
       style="fill:#ccccff;fill-opacity:1;fill-rule:evenodd;stroke:none"
       id="path5299" />
    <path
       inkscape:connector-curvature="0"
       d="m 529.6792,703.98711 c 0,-6.525 16.75,-11.8125 37.4125,-11.8125 l 0,0 c 20.675,0 37.425,5.2875 37.425,11.8125 0,0 0,0 0,0 l 0,0 c 0,6.5375 -16.75,11.825 -37.425,11.825 0,0 0,0 0,0 l 0,0 c -20.6625,0 -37.4125,-5.2875 -37.4125,-11.825 0,0 0,0 0,0 z"
       style="fill:none;stroke:#000000;stroke-width:1.25;stroke-linecap:butt;stroke-linejoin:round;stroke-miterlimit:10;stroke-opacity:1;stroke-dasharray:none"
       id="path5301" />
    <path
       inkscape:connector-curvature="0"
       d="m 529.6792,690.22461 0,14.625"
       style="fill:none;stroke:#000000;stroke-width:1.25;stroke-linecap:butt;stroke-linejoin:round;stroke-miterlimit:10;stroke-opacity:1;stroke-dasharray:none"
       id="path5303" />
    <path
       inkscape:connector-curvature="0"
       d="m 604.5167,690.22461 0,14.625"
       style="fill:none;stroke:#000000;stroke-width:1.25;stroke-linecap:butt;stroke-linejoin:round;stroke-miterlimit:10;stroke-opacity:1;stroke-dasharray:none"
       id="path5305" />
    <path
       inkscape:connector-curvature="0"
       d="m 529.6792,704.59961 74.21125,0 0,-14.38125 -74.21125,0 0,14.38125 z"
       style="fill:#ccccff;fill-opacity:1;fill-rule:evenodd;stroke:none"
       id="path5307" />
    <path
       inkscape:connector-curvature="0"
       d="m 529.0542,686.92461 c 0,-7.6 16.75,-13.7625 37.4125,-13.7625 l 0,0 c 20.6625,0 37.425,6.1625 37.425,13.7625 0,0 0,0 0,0 l 0,0 c 0,7.6125 -16.7625,13.775 -37.425,13.775 0,0 0,0 0,0 l 0,0 c -20.6625,0 -37.4125,-6.1625 -37.4125,-13.775 0,0 0,0 0,0 z"
       style="fill:#ccccff;fill-opacity:1;fill-rule:evenodd;stroke:none"
       id="path5309" />
    <path
       inkscape:connector-curvature="0"
       d="m 529.0542,686.92461 c 0,-7.6 16.75,-13.7625 37.4125,-13.7625 l 0,0 c 20.6625,0 37.425,6.1625 37.425,13.7625 0,0 0,0 0,0 l 0,0 c 0,7.6125 -16.7625,13.775 -37.425,13.775 0,0 0,0 0,0 l 0,0 c -20.6625,0 -37.4125,-6.1625 -37.4125,-13.775 0,0 0,0 0,0 z"
       style="fill:none;stroke:#000000;stroke-width:1.25;stroke-linecap:butt;stroke-linejoin:round;stroke-miterlimit:10;stroke-opacity:1;stroke-dasharray:none"
       id="path5311" />
    <path
       inkscape:connector-curvature="0"
       d="m 547.0792,679.57461 13.25,-0.325"
       style="fill:none;stroke:#000000;stroke-width:2.8125;stroke-linecap:butt;stroke-linejoin:round;stroke-miterlimit:10;stroke-opacity:1;stroke-dasharray:none"
       id="path5313" />
    <path
       inkscape:connector-curvature="0"
       d="m 572.5167,695.33711 11.6625,0"
       style="fill:none;stroke:#000000;stroke-width:2.8125;stroke-linecap:butt;stroke-linejoin:round;stroke-miterlimit:10;stroke-opacity:1;stroke-dasharray:none"
       id="path5315" />
    <path
       inkscape:connector-curvature="0"
       d="m 559.2667,679.57461 13.7875,15.7625"
       style="fill:none;stroke:#000000;stroke-width:2.8125;stroke-linecap:butt;stroke-linejoin:round;stroke-miterlimit:10;stroke-opacity:1;stroke-dasharray:none"
       id="path5317" />
    <path
       inkscape:connector-curvature="0"
       d="m 547.0792,694.76211 13.25,0.3375"
       style="fill:none;stroke:#000000;stroke-width:2.8125;stroke-linecap:butt;stroke-linejoin:round;stroke-miterlimit:10;stroke-opacity:1;stroke-dasharray:none"
       id="path5319" />
    <path
       inkscape:connector-curvature="0"
       d="m 572.5167,679.01211 11.6625,0"
       style="fill:none;stroke:#000000;stroke-width:2.8125;stroke-linecap:butt;stroke-linejoin:round;stroke-miterlimit:10;stroke-opacity:1;stroke-dasharray:none"
       id="path5321" />
    <path
       inkscape:connector-curvature="0"
       d="m 559.2667,694.76211 13.7875,-15.75"
       style="fill:none;stroke:#000000;stroke-width:2.8125;stroke-linecap:butt;stroke-linejoin:round;stroke-miterlimit:10;stroke-opacity:1;stroke-dasharray:none"
       id="path5323" />
    <path
       inkscape:connector-curvature="0"
       d="m 349.9917,703.52461 c 0,-6.5375 16.75,-11.825 37.4125,-11.825 l 0,0 c 20.675,0 37.425,5.2875 37.425,11.825 0,0 0,0 0,0 l 0,0 c 0,6.525 -16.75,11.825 -37.425,11.825 0,0 0,0 0,0 l 0,0 c -20.6625,0 -37.4125,-5.3 -37.4125,-11.825 0,0 0,0 0,0 z"
       style="fill:#ccccff;fill-opacity:1;fill-rule:evenodd;stroke:none"
       id="path5325" />
    <path
       inkscape:connector-curvature="0"
       d="m 349.9917,703.52461 c 0,-6.5375 16.75,-11.825 37.4125,-11.825 l 0,0 c 20.675,0 37.425,5.2875 37.425,11.825 0,0 0,0 0,0 l 0,0 c 0,6.525 -16.75,11.825 -37.425,11.825 0,0 0,0 0,0 l 0,0 c -20.6625,0 -37.4125,-5.3 -37.4125,-11.825 0,0 0,0 0,0 z"
       style="fill:none;stroke:#000000;stroke-width:1.25;stroke-linecap:butt;stroke-linejoin:round;stroke-miterlimit:10;stroke-opacity:1;stroke-dasharray:none"
       id="path5327" />
    <path
       inkscape:connector-curvature="0"
       d="m 349.9917,689.74961 0,14.625"
       style="fill:none;stroke:#000000;stroke-width:1.25;stroke-linecap:butt;stroke-linejoin:round;stroke-miterlimit:10;stroke-opacity:1;stroke-dasharray:none"
       id="path5329" />
    <path
       inkscape:connector-curvature="0"
       d="m 424.8292,689.74961 0,14.625"
       style="fill:none;stroke:#000000;stroke-width:1.25;stroke-linecap:butt;stroke-linejoin:round;stroke-miterlimit:10;stroke-opacity:1;stroke-dasharray:none"
       id="path5331" />
    <path
       inkscape:connector-curvature="0"
       d="m 349.9917,704.13711 74.21125,0 0,-14.38125 -74.21125,0 0,14.38125 z"
       style="fill:#ccccff;fill-opacity:1;fill-rule:evenodd;stroke:none"
       id="path5333" />
    <path
       inkscape:connector-curvature="0"
       d="m 349.3667,686.46211 c 0,-7.6125 16.75,-13.775 37.4125,-13.775 l 0,0 c 20.6625,0 37.425,6.1625 37.425,13.775 0,0 0,0 0,0 l 0,0 c 0,7.6 -16.7625,13.775 -37.425,13.775 0,0 0,0 0,0 l 0,0 c -20.6625,0 -37.4125,-6.175 -37.4125,-13.775 0,0 0,0 0,0 z"
       style="fill:#ccccff;fill-opacity:1;fill-rule:evenodd;stroke:none"
       id="path5335" />
    <path
       inkscape:connector-curvature="0"
       d="m 349.3667,686.46211 c 0,-7.6125 16.75,-13.775 37.4125,-13.775 l 0,0 c 20.6625,0 37.425,6.1625 37.425,13.775 0,0 0,0 0,0 l 0,0 c 0,7.6 -16.7625,13.775 -37.425,13.775 0,0 0,0 0,0 l 0,0 c -20.6625,0 -37.4125,-6.175 -37.4125,-13.775 0,0 0,0 0,0 z"
       style="fill:none;stroke:#000000;stroke-width:1.25;stroke-linecap:butt;stroke-linejoin:round;stroke-miterlimit:10;stroke-opacity:1;stroke-dasharray:none"
       id="path5337" />
    <path
       inkscape:connector-curvature="0"
       d="m 367.3917,679.11211 13.25,-0.325"
       style="fill:none;stroke:#000000;stroke-width:2.8125;stroke-linecap:butt;stroke-linejoin:round;stroke-miterlimit:10;stroke-opacity:1;stroke-dasharray:none"
       id="path5339" />
    <path
       inkscape:connector-curvature="0"
       d="m 392.8292,694.87461 11.6625,0"
       style="fill:none;stroke:#000000;stroke-width:2.8125;stroke-linecap:butt;stroke-linejoin:round;stroke-miterlimit:10;stroke-opacity:1;stroke-dasharray:none"
       id="path5341" />
    <path
       inkscape:connector-curvature="0"
       d="m 379.5792,679.11211 13.7875,15.7625"
       style="fill:none;stroke:#000000;stroke-width:2.8125;stroke-linecap:butt;stroke-linejoin:round;stroke-miterlimit:10;stroke-opacity:1;stroke-dasharray:none"
       id="path5343" />
    <path
       inkscape:connector-curvature="0"
       d="m 367.3917,694.29961 13.25,0.325"
       style="fill:none;stroke:#000000;stroke-width:2.8125;stroke-linecap:butt;stroke-linejoin:round;stroke-miterlimit:10;stroke-opacity:1;stroke-dasharray:none"
       id="path5345" />
    <path
       inkscape:connector-curvature="0"
       d="m 392.8292,678.53711 11.6625,0"
       style="fill:none;stroke:#000000;stroke-width:2.8125;stroke-linecap:butt;stroke-linejoin:round;stroke-miterlimit:10;stroke-opacity:1;stroke-dasharray:none"
       id="path5347" />
    <path
       inkscape:connector-curvature="0"
       d="m 379.5792,694.29961 13.7875,-15.7625"
       style="fill:none;stroke:#000000;stroke-width:2.8125;stroke-linecap:butt;stroke-linejoin:round;stroke-miterlimit:10;stroke-opacity:1;stroke-dasharray:none"
       id="path5349" />
    <path
       inkscape:connector-curvature="0"
       d="m 384.8292,603.36211 c 0,-6.525 16.7625,-11.8125 37.425,-11.8125 l 0,0 c 20.6625,0 37.425,5.2875 37.425,11.8125 0,0 0,0 0,0 l 0,0 c 0,6.5375 -16.7625,11.825 -37.425,11.825 0,0 0,0 0,0 l 0,0 c -20.6625,0 -37.425,-5.2875 -37.425,-11.825 0,0 0,0 0,0 z"
       style="fill:#ccccff;fill-opacity:1;fill-rule:evenodd;stroke:none"
       id="path5351" />
    <path
       inkscape:connector-curvature="0"
       d="m 384.8292,603.36211 c 0,-6.525 16.7625,-11.8125 37.425,-11.8125 l 0,0 c 20.6625,0 37.425,5.2875 37.425,11.8125 0,0 0,0 0,0 l 0,0 c 0,6.5375 -16.7625,11.825 -37.425,11.825 0,0 0,0 0,0 l 0,0 c -20.6625,0 -37.425,-5.2875 -37.425,-11.825 0,0 0,0 0,0 z"
       style="fill:none;stroke:#000000;stroke-width:1.25;stroke-linecap:butt;stroke-linejoin:round;stroke-miterlimit:10;stroke-opacity:1;stroke-dasharray:none"
       id="path5353" />
    <path
       inkscape:connector-curvature="0"
       d="m 384.8292,589.59961 0,14.625"
       style="fill:none;stroke:#000000;stroke-width:1.25;stroke-linecap:butt;stroke-linejoin:round;stroke-miterlimit:10;stroke-opacity:1;stroke-dasharray:none"
       id="path5355" />
    <path
       inkscape:connector-curvature="0"
       d="m 459.6792,589.59961 0,14.625"
       style="fill:none;stroke:#000000;stroke-width:1.25;stroke-linecap:butt;stroke-linejoin:round;stroke-miterlimit:10;stroke-opacity:1;stroke-dasharray:none"
       id="path5357" />
    <path
       inkscape:connector-curvature="0"
       d="m 384.8292,603.97461 74.21125,0 0,-14.38125 -74.21125,0 0,14.38125 z"
       style="fill:#ccccff;fill-opacity:1;fill-rule:evenodd;stroke:none"
       id="path5359" />
    <path
       inkscape:connector-curvature="0"
       d="m 384.2042,586.29961 c 0,-7.6 16.75,-13.7625 37.425,-13.7625 l 0,0 c 20.6625,0 37.4125,6.1625 37.4125,13.7625 0,0 0,0 0,0 l 0,0 c 0,7.6125 -16.75,13.775 -37.4125,13.775 0,0 0,0 0,0 l 0,0 c -20.675,0 -37.425,-6.1625 -37.425,-13.775 0,0 0,0 0,0 z"
       style="fill:#ccccff;fill-opacity:1;fill-rule:evenodd;stroke:none"
       id="path5361" />
    <path
       inkscape:connector-curvature="0"
       d="m 384.2042,586.29961 c 0,-7.6 16.75,-13.7625 37.425,-13.7625 l 0,0 c 20.6625,0 37.4125,6.1625 37.4125,13.7625 0,0 0,0 0,0 l 0,0 c 0,7.6125 -16.75,13.775 -37.4125,13.775 0,0 0,0 0,0 l 0,0 c -20.675,0 -37.425,-6.1625 -37.425,-13.775 0,0 0,0 0,0 z"
       style="fill:none;stroke:#000000;stroke-width:1.25;stroke-linecap:butt;stroke-linejoin:round;stroke-miterlimit:10;stroke-opacity:1;stroke-dasharray:none"
       id="path5363" />
    <path
       inkscape:connector-curvature="0"
       d="m 402.2292,578.94961 13.25,-0.325"
       style="fill:none;stroke:#000000;stroke-width:2.8125;stroke-linecap:butt;stroke-linejoin:round;stroke-miterlimit:10;stroke-opacity:1;stroke-dasharray:none"
       id="path5365" />
    <path
       inkscape:connector-curvature="0"
       d="m 427.6792,594.71211 11.6625,0"
       style="fill:none;stroke:#000000;stroke-width:2.8125;stroke-linecap:butt;stroke-linejoin:round;stroke-miterlimit:10;stroke-opacity:1;stroke-dasharray:none"
       id="path5367" />
    <path
       inkscape:connector-curvature="0"
       d="m 414.4292,578.94961 13.775,15.7625"
       style="fill:none;stroke:#000000;stroke-width:2.8125;stroke-linecap:butt;stroke-linejoin:round;stroke-miterlimit:10;stroke-opacity:1;stroke-dasharray:none"
       id="path5369" />
    <path
       inkscape:connector-curvature="0"
       d="m 402.2292,594.13711 13.25,0.3375"
       style="fill:none;stroke:#000000;stroke-width:2.8125;stroke-linecap:butt;stroke-linejoin:round;stroke-miterlimit:10;stroke-opacity:1;stroke-dasharray:none"
       id="path5371" />
    <path
       inkscape:connector-curvature="0"
       d="m 427.6792,578.38711 11.6625,0"
       style="fill:none;stroke:#000000;stroke-width:2.8125;stroke-linecap:butt;stroke-linejoin:round;stroke-miterlimit:10;stroke-opacity:1;stroke-dasharray:none"
       id="path5373" />
    <path
       inkscape:connector-curvature="0"
       d="m 414.4292,594.13711 13.775,-15.75"
       style="fill:none;stroke:#000000;stroke-width:2.8125;stroke-linecap:butt;stroke-linejoin:round;stroke-miterlimit:10;stroke-opacity:1;stroke-dasharray:none"
       id="path5375" />
    <path
       inkscape:connector-curvature="0"
       d="m 244.3667,602.89961 c 0,-6.5375 16.75,-11.825 37.4125,-11.825 l 0,0 c 20.675,0 37.425,5.2875 37.425,11.825 0,0 0,0 0,0 l 0,0 c 0,6.525 -16.75,11.825 -37.425,11.825 0,0 0,0 0,0 l 0,0 c -20.6625,0 -37.4125,-5.3 -37.4125,-11.825 0,0 0,0 0,0 z"
       style="fill:#ccccff;fill-opacity:1;fill-rule:evenodd;stroke:none"
       id="path5377" />
    <path
       inkscape:connector-curvature="0"
       d="m 244.3667,602.89961 c 0,-6.5375 16.75,-11.825 37.4125,-11.825 l 0,0 c 20.675,0 37.425,5.2875 37.425,11.825 0,0 0,0 0,0 l 0,0 c 0,6.525 -16.75,11.825 -37.425,11.825 0,0 0,0 0,0 l 0,0 c -20.6625,0 -37.4125,-5.3 -37.4125,-11.825 0,0 0,0 0,0 z"
       style="fill:none;stroke:#000000;stroke-width:1.25;stroke-linecap:butt;stroke-linejoin:round;stroke-miterlimit:10;stroke-opacity:1;stroke-dasharray:none"
       id="path5379" />
    <path
       inkscape:connector-curvature="0"
       d="m 244.3667,589.12461 0,14.625"
       style="fill:none;stroke:#000000;stroke-width:1.25;stroke-linecap:butt;stroke-linejoin:round;stroke-miterlimit:10;stroke-opacity:1;stroke-dasharray:none"
       id="path5381" />
    <path
       inkscape:connector-curvature="0"
       d="m 319.2042,589.12461 0,14.625"
       style="fill:none;stroke:#000000;stroke-width:1.25;stroke-linecap:butt;stroke-linejoin:round;stroke-miterlimit:10;stroke-opacity:1;stroke-dasharray:none"
       id="path5383" />
    <path
       inkscape:connector-curvature="0"
       d="m 244.3667,603.51211 74.21125,0 0,-14.38125 -74.21125,0 0,14.38125 z"
       style="fill:#ccccff;fill-opacity:1;fill-rule:evenodd;stroke:none"
       id="path5385" />
    <path
       inkscape:connector-curvature="0"
       d="m 243.7417,585.83711 c 0,-7.6125 16.75,-13.775 37.4125,-13.775 l 0,0 c 20.6625,0 37.425,6.1625 37.425,13.775 0,0 0,0 0,0 l 0,0 c 0,7.6 -16.7625,13.775 -37.425,13.775 0,0 0,0 0,0 l 0,0 c -20.6625,0 -37.4125,-6.175 -37.4125,-13.775 0,0 0,0 0,0 z"
       style="fill:#ccccff;fill-opacity:1;fill-rule:evenodd;stroke:none"
       id="path5387" />
    <path
       inkscape:connector-curvature="0"
       d="m 243.7417,585.83711 c 0,-7.6125 16.75,-13.775 37.4125,-13.775 l 0,0 c 20.6625,0 37.425,6.1625 37.425,13.775 0,0 0,0 0,0 l 0,0 c 0,7.6 -16.7625,13.775 -37.425,13.775 0,0 0,0 0,0 l 0,0 c -20.6625,0 -37.4125,-6.175 -37.4125,-13.775 0,0 0,0 0,0 z"
       style="fill:none;stroke:#000000;stroke-width:1.25;stroke-linecap:butt;stroke-linejoin:round;stroke-miterlimit:10;stroke-opacity:1;stroke-dasharray:none"
       id="path5389" />
    <path
       inkscape:connector-curvature="0"
       d="m 261.7667,578.48711 13.25,-0.325"
       style="fill:none;stroke:#000000;stroke-width:2.8125;stroke-linecap:butt;stroke-linejoin:round;stroke-miterlimit:10;stroke-opacity:1;stroke-dasharray:none"
       id="path5391" />
    <path
       inkscape:connector-curvature="0"
       d="m 287.2042,594.24961 11.6625,0"
       style="fill:none;stroke:#000000;stroke-width:2.8125;stroke-linecap:butt;stroke-linejoin:round;stroke-miterlimit:10;stroke-opacity:1;stroke-dasharray:none"
       id="path5393" />
    <path
       inkscape:connector-curvature="0"
       d="m 273.9542,578.48711 13.7875,15.7625"
       style="fill:none;stroke:#000000;stroke-width:2.8125;stroke-linecap:butt;stroke-linejoin:round;stroke-miterlimit:10;stroke-opacity:1;stroke-dasharray:none"
       id="path5395" />
    <path
       inkscape:connector-curvature="0"
       d="m 261.7667,593.67461 13.25,0.325"
       style="fill:none;stroke:#000000;stroke-width:2.8125;stroke-linecap:butt;stroke-linejoin:round;stroke-miterlimit:10;stroke-opacity:1;stroke-dasharray:none"
       id="path5397" />
    <path
       inkscape:connector-curvature="0"
       d="m 287.2042,577.91211 11.6625,0"
       style="fill:none;stroke:#000000;stroke-width:2.8125;stroke-linecap:butt;stroke-linejoin:round;stroke-miterlimit:10;stroke-opacity:1;stroke-dasharray:none"
       id="path5399" />
    <path
       inkscape:connector-curvature="0"
       d="m 273.9542,593.67461 13.7875,-15.7625"
       style="fill:none;stroke:#000000;stroke-width:2.8125;stroke-linecap:butt;stroke-linejoin:round;stroke-miterlimit:10;stroke-opacity:1;stroke-dasharray:none"
       id="path5401" />
    <path
       inkscape:connector-curvature="0"
       d="m 94.829199,533.38711 c 0,-6.5125 16.750001,-11.7875 37.425001,-11.7875 l 0,0 c 20.6625,0 37.425,5.275 37.425,11.7875 0,0 0,0 0,0 l 0,0 c 0,6.5125 -16.7625,11.8 -37.425,11.8 0,0 0,0 0,0 l 0,0 c -20.675,0 -37.425001,-5.2875 -37.425001,-11.8 0,0 0,0 0,0 z"
       style="fill:#ffffff;fill-opacity:1;fill-rule:evenodd;stroke:none"
       id="path5403" />
    <path
       inkscape:connector-curvature="0"
       d="m 94.829199,533.38711 c 0,-6.5125 16.750001,-11.7875 37.425001,-11.7875 l 0,0 c 20.6625,0 37.425,5.275 37.425,11.7875 0,0 0,0 0,0 l 0,0 c 0,6.5125 -16.7625,11.8 -37.425,11.8 0,0 0,0 0,0 l 0,0 c -20.675,0 -37.425001,-5.2875 -37.425001,-11.8 0,0 0,0 0,0 z"
       style="fill:none;stroke:#000000;stroke-width:1.25;stroke-linecap:butt;stroke-linejoin:round;stroke-miterlimit:10;stroke-opacity:1;stroke-dasharray:none"
       id="path5405" />
    <path
       inkscape:connector-curvature="0"
       d="m 94.516699,517.37461 0,16.875"
       style="fill:none;stroke:#000000;stroke-width:1.25;stroke-linecap:butt;stroke-linejoin:round;stroke-miterlimit:10;stroke-opacity:1;stroke-dasharray:none"
       id="path5407" />
    <path
       inkscape:connector-curvature="0"
       d="m 169.0542,516.12461 0.625,17.1875"
       style="fill:none;stroke:#000000;stroke-width:1.25;stroke-linecap:butt;stroke-linejoin:round;stroke-miterlimit:10;stroke-opacity:1;stroke-dasharray:none"
       id="path5409" />
    <path
       inkscape:connector-curvature="0"
       d="m 95.454199,533.93711 73.593751,0 0,-14.375 -73.593751,0 0,14.375 z"
       style="fill:#ffffff;fill-opacity:1;fill-rule:evenodd;stroke:none"
       id="path5411" />
    <path
       inkscape:connector-curvature="0"
       d="m 94.204199,516.28711 c 0,-7.6 16.750001,-13.75 37.425001,-13.75 l 0,0 c 20.6625,0 37.425,6.15 37.425,13.75 0,0 0,0 0,0 l 0,0 c 0,7.5875 -16.7625,13.75 -37.425,13.75 0,0 0,0 0,0 l 0,0 c -20.675,0 -37.425001,-6.1625 -37.425001,-13.75 0,0 0,0 0,0 z"
       style="fill:#ffffff;fill-opacity:1;fill-rule:evenodd;stroke:none"
       id="path5413" />
    <path
       inkscape:connector-curvature="0"
       d="m 94.204199,516.28711 c 0,-7.6 16.750001,-13.75 37.425001,-13.75 l 0,0 c 20.6625,0 37.425,6.15 37.425,13.75 0,0 0,0 0,0 l 0,0 c 0,7.5875 -16.7625,13.75 -37.425,13.75 0,0 0,0 0,0 l 0,0 c -20.675,0 -37.425001,-6.1625 -37.425001,-13.75 0,0 0,0 0,0 z"
       style="fill:none;stroke:#000000;stroke-width:1.25;stroke-linecap:butt;stroke-linejoin:round;stroke-miterlimit:10;stroke-opacity:1;stroke-dasharray:none"
       id="path5415" />
    <path
       inkscape:connector-curvature="0"
       d="m 112.1792,508.94961 13.275,-0.325"
       style="fill:none;stroke:#000000;stroke-width:2.8125;stroke-linecap:butt;stroke-linejoin:round;stroke-miterlimit:10;stroke-opacity:1;stroke-dasharray:none"
       id="path5417" />
    <path
       inkscape:connector-curvature="0"
       d="m 137.6792,524.71211 11.6875,0"
       style="fill:none;stroke:#000000;stroke-width:2.8125;stroke-linecap:butt;stroke-linejoin:round;stroke-miterlimit:10;stroke-opacity:1;stroke-dasharray:none"
       id="path5419" />
    <path
       inkscape:connector-curvature="0"
       d="m 124.3917,508.94961 13.8125,15.7625"
       style="fill:none;stroke:#000000;stroke-width:2.8125;stroke-linecap:butt;stroke-linejoin:round;stroke-miterlimit:10;stroke-opacity:1;stroke-dasharray:none"
       id="path5421" />
    <path
       inkscape:connector-curvature="0"
       d="m 112.1792,524.07461 13.275,0.325"
       style="fill:none;stroke:#000000;stroke-width:2.8125;stroke-linecap:butt;stroke-linejoin:round;stroke-miterlimit:10;stroke-opacity:1;stroke-dasharray:none"
       id="path5423" />
    <path
       inkscape:connector-curvature="0"
       d="m 137.6792,508.31211 11.6875,0"
       style="fill:none;stroke:#000000;stroke-width:2.8125;stroke-linecap:butt;stroke-linejoin:round;stroke-miterlimit:10;stroke-opacity:1;stroke-dasharray:none"
       id="path5425" />
    <path
       inkscape:connector-curvature="0"
       d="m 124.3917,524.07461 13.8125,-15.7625"
       style="fill:none;stroke:#000000;stroke-width:2.8125;stroke-linecap:butt;stroke-linejoin:round;stroke-miterlimit:10;stroke-opacity:1;stroke-dasharray:none"
       id="path5427" />
    <path
       inkscape:connector-curvature="0"
       d="m 169.9917,526.43711 75,51.5625"
       style="fill:none;stroke:#000000;stroke-width:0.9375;stroke-linecap:butt;stroke-linejoin:round;stroke-miterlimit:10;stroke-opacity:1;stroke-dasharray:none"
       id="path5429" />
    <path
       inkscape:connector-curvature="0"
       d="m 174.6792,618.31211 72.1875,-22.5"
       style="fill:none;stroke:#000000;stroke-width:0.9375;stroke-linecap:butt;stroke-linejoin:round;stroke-miterlimit:10;stroke-opacity:1;stroke-dasharray:none"
       id="path5431" />
    <path
       inkscape:connector-curvature="0"
       d="m 319.0542,595.81211 65.625,0"
       style="fill:none;stroke:#000000;stroke-width:0.9375;stroke-linecap:butt;stroke-linejoin:round;stroke-miterlimit:10;stroke-opacity:1;stroke-dasharray:none"
       id="path5433" />
    <path
       inkscape:connector-curvature="0"
       d="m 304.0542,611.74961 55.3125,64.6875"
       style="fill:none;stroke:#000000;stroke-width:0.9375;stroke-linecap:butt;stroke-linejoin:round;stroke-miterlimit:10;stroke-opacity:1;stroke-dasharray:none"
       id="path5435" />
    <path
       inkscape:connector-curvature="0"
       d="m 427.8042,697.99961 102.1875,0"
       style="fill:none;stroke:#000000;stroke-width:0.9375;stroke-linecap:butt;stroke-linejoin:round;stroke-miterlimit:10;stroke-opacity:1;stroke-dasharray:none"
       id="path5437" />
    <path
       inkscape:connector-curvature="0"
       d="m 455.9292,607.06211 82.5,70.3125"
       style="fill:none;stroke:#000000;stroke-width:0.9375;stroke-linecap:butt;stroke-linejoin:round;stroke-miterlimit:10;stroke-opacity:1;stroke-dasharray:none"
       id="path5439" />
    <path
       inkscape:connector-curvature="0"
       d="m 604.9917,696.12461 69.0625,0"
       style="fill:none;stroke:#000000;stroke-width:0.9375;stroke-linecap:butt;stroke-linejoin:round;stroke-miterlimit:10;stroke-opacity:1;stroke-dasharray:none"
       id="path5441" />
    <text
       style="font-size:15px"
       y="740.28711"
       x="376.45419"
       id="text5443">
      <tspan
         style="font-size:22.53125px;font-variant:normal;font-weight:normal;writing-mode:lr-tb;fill:#000000;fill-opacity:1;fill-rule:nonzero;stroke:none;font-family:Arial;-inkscape-font-specification:Arial"
         x="376.45419 392.70425"
         y="740.28711"
         sodipodi:role="line"
         id="tspan5445">R2</tspan>
    </text>
    <text
       style="font-size:15px"
       y="604.43713"
       x="565.7417"
       id="text5447">
      <tspan
         style="font-size:22.5px;font-variant:normal;font-weight:normal;writing-mode:lr-tb;fill:#000000;fill-opacity:1;fill-rule:nonzero;stroke:none;font-family:Arial;-inkscape-font-specification:Arial"
         x="565.7417"
         y="604.43713"
         id="tspan5449">D</tspan>
    </text>
    <text
       style="font-size:15px"
       y="641.6496"
       x="414.41669"
       id="text5451">
      <tspan
         style="font-size:22.53125px;font-variant:normal;font-weight:normal;writing-mode:lr-tb;fill:#000000;fill-opacity:1;fill-rule:nonzero;stroke:none;font-family:Arial;-inkscape-font-specification:Arial"
         x="414.41669 430.66675"
         y="641.6496"
         sodipodi:role="line"
         id="tspan5453">R3</tspan>
    </text>
    <text
       style="font-size:15px"
       y="635.5246"
       x="250.64171"
       id="text5455">
      <tspan
         style="font-size:22.5px;font-variant:normal;font-weight:normal;writing-mode:lr-tb;fill:#000000;fill-opacity:1;fill-rule:nonzero;stroke:none;font-family:Arial;-inkscape-font-specification:Arial"
         x="250.64171 266.89169"
         y="635.5246"
         sodipodi:role="line"
         id="tspan5457">R4</tspan>
    </text>
    <path
       inkscape:connector-curvature="0"
       d="m 99.366699,626.51211 c 0,-6.5125 16.750001,-11.7875 37.412501,-11.7875 l 0,0 c 20.675,0 37.425,5.275 37.425,11.7875 0,0 0,0 0,0 l 0,0 c 0,6.5125 -16.75,11.8 -37.425,11.8 0,0 0,0 0,0 l 0,0 c -20.6625,0 -37.412501,-5.2875 -37.412501,-11.8 0,0 0,0 0,0 z"
       style="fill:#ffffff;fill-opacity:1;fill-rule:evenodd;stroke:none"
       id="path5459" />
    <path
       inkscape:connector-curvature="0"
       d="m 99.366699,626.51211 c 0,-6.5125 16.750001,-11.7875 37.412501,-11.7875 l 0,0 c 20.675,0 37.425,5.275 37.425,11.7875 0,0 0,0 0,0 l 0,0 c 0,6.5125 -16.75,11.8 -37.425,11.8 0,0 0,0 0,0 l 0,0 c -20.6625,0 -37.412501,-5.2875 -37.412501,-11.8 0,0 0,0 0,0 z"
       style="fill:none;stroke:#000000;stroke-width:1.25;stroke-linecap:butt;stroke-linejoin:round;stroke-miterlimit:10;stroke-opacity:1;stroke-dasharray:none"
       id="path5461" />
    <path
       inkscape:connector-curvature="0"
       d="m 99.054199,610.49961 0,16.875"
       style="fill:none;stroke:#000000;stroke-width:1.25;stroke-linecap:butt;stroke-linejoin:round;stroke-miterlimit:10;stroke-opacity:1;stroke-dasharray:none"
       id="path5463" />
    <path
       inkscape:connector-curvature="0"
       d="m 173.5792,609.24961 0.625,17.1875"
       style="fill:none;stroke:#000000;stroke-width:1.25;stroke-linecap:butt;stroke-linejoin:round;stroke-miterlimit:10;stroke-opacity:1;stroke-dasharray:none"
       id="path5465" />
    <path
       inkscape:connector-curvature="0"
       d="m 99.991699,627.06211 73.593751,0 0,-14.375 -73.593751,0 0,14.375 z"
       style="fill:#ffffff;fill-opacity:1;fill-rule:evenodd;stroke:none"
       id="path5467" />
    <path
       inkscape:connector-curvature="0"
       d="m 98.741699,609.41211 c 0,-7.6 16.750001,-13.75 37.412501,-13.75 l 0,0 c 20.675,0 37.425,6.15 37.425,13.75 0,0 0,0 0,0 l 0,0 c 0,7.5875 -16.75,13.75 -37.425,13.75 0,0 0,0 0,0 l 0,0 c -20.6625,0 -37.412501,-6.1625 -37.412501,-13.75 0,0 0,0 0,0 z"
       style="fill:#ffffff;fill-opacity:1;fill-rule:evenodd;stroke:none"
       id="path5469" />
    <path
       inkscape:connector-curvature="0"
       d="m 98.741699,609.41211 c 0,-7.6 16.750001,-13.75 37.412501,-13.75 l 0,0 c 20.675,0 37.425,6.15 37.425,13.75 0,0 0,0 0,0 l 0,0 c 0,7.5875 -16.75,13.75 -37.425,13.75 0,0 0,0 0,0 l 0,0 c -20.6625,0 -37.412501,-6.1625 -37.412501,-13.75 0,0 0,0 0,0 z"
       style="fill:none;stroke:#000000;stroke-width:1.25;stroke-linecap:butt;stroke-linejoin:round;stroke-miterlimit:10;stroke-opacity:1;stroke-dasharray:none"
       id="path5471" />
    <path
       inkscape:connector-curvature="0"
       d="m 116.7042,602.07461 13.2875,-0.325"
       style="fill:none;stroke:#000000;stroke-width:2.8125;stroke-linecap:butt;stroke-linejoin:round;stroke-miterlimit:10;stroke-opacity:1;stroke-dasharray:none"
       id="path5473" />
    <path
       inkscape:connector-curvature="0"
       d="m 142.2042,617.83711 11.6875,0"
       style="fill:none;stroke:#000000;stroke-width:2.8125;stroke-linecap:butt;stroke-linejoin:round;stroke-miterlimit:10;stroke-opacity:1;stroke-dasharray:none"
       id="path5475" />
    <path
       inkscape:connector-curvature="0"
       d="m 128.9292,602.07461 13.8125,15.7625"
       style="fill:none;stroke:#000000;stroke-width:2.8125;stroke-linecap:butt;stroke-linejoin:round;stroke-miterlimit:10;stroke-opacity:1;stroke-dasharray:none"
       id="path5477" />
    <path
       inkscape:connector-curvature="0"
       d="m 116.7042,617.19961 13.2875,0.325"
       style="fill:none;stroke:#000000;stroke-width:2.8125;stroke-linecap:butt;stroke-linejoin:round;stroke-miterlimit:10;stroke-opacity:1;stroke-dasharray:none"
       id="path5479" />
    <path
       inkscape:connector-curvature="0"
       d="m 142.2042,601.43711 11.6875,0"
       style="fill:none;stroke:#000000;stroke-width:2.8125;stroke-linecap:butt;stroke-linejoin:round;stroke-miterlimit:10;stroke-opacity:1;stroke-dasharray:none"
       id="path5481" />
    <path
       inkscape:connector-curvature="0"
       d="m 128.9292,617.19961 13.8125,-15.7625"
       style="fill:none;stroke:#000000;stroke-width:2.8125;stroke-linecap:butt;stroke-linejoin:round;stroke-miterlimit:10;stroke-opacity:1;stroke-dasharray:none"
       id="path5483" />
    <text
       style="font-size:15px"
       y="664.93713"
       x="126.70421"
       id="text5485">
      <tspan
         style="font-size:22.5px;font-variant:normal;font-weight:normal;writing-mode:lr-tb;fill:#000000;fill-opacity:1;fill-rule:nonzero;stroke:none;font-family:Arial;-inkscape-font-specification:Arial"
         x="126.70421 142.95419"
         y="664.93713"
         sodipodi:role="line"
         id="tspan5487">R5</tspan>
    </text>
    <path
       inkscape:connector-curvature="0"
       d="m 460.1417,594.87461 95.3125,0"
       style="fill:none;stroke:#000000;stroke-width:0.9375;stroke-linecap:butt;stroke-linejoin:round;stroke-miterlimit:10;stroke-opacity:1;stroke-dasharray:none"
       id="path5489" />
    <text
       style="font-size:15px"
       y="704.7746"
       x="679.3667"
       id="text5491">
      <tspan
         style="font-size:22.5px;font-variant:normal;font-weight:normal;writing-mode:lr-tb;fill:#000000;fill-opacity:1;fill-rule:nonzero;stroke:none;font-family:Arial;-inkscape-font-specification:Arial"
         x="679.3667"
         y="704.7746"
         id="tspan5493">A</tspan>
    </text>
    <text
       style="font-size:15px"
       y="571.4621"
       x="123.1167"
       id="text5495">
      <tspan
         style="font-size:22.53125px;font-variant:normal;font-weight:normal;writing-mode:lr-tb;fill:#000000;fill-opacity:1;fill-rule:nonzero;stroke:none;font-family:Arial;-inkscape-font-specification:Arial"
         x="123.1167 139.36676"
         y="571.4621"
         sodipodi:role="line"
         id="tspan5497">R6</tspan>
    </text>
    <path
       inkscape:connector-curvature="0"
       d="m 176.5792,514.82461 120,72 -0.975,-0.2625 149.5875,-0.825 c 0.425,0 0.825,0.1375 1.1625,0.4 l 126.7875,99.5625 -1.2,-0.4 79.2625,-1.55 0.075,3.75 -79.2625,1.55 c -0.4375,0.0125 -0.85,-0.1375 -1.2,-0.4 l -126.775,-99.5625 1.1625,0.4 -149.5875,0.825 c -0.3375,0 -0.675,-0.0875 -0.975,-0.2625 l -120,-72 1.9375,-3.225 z m 472.675,165.2125 11.35,5.4 -11.1375,5.85 -0.2125,-11.25 z"
       style="fill:#0070c0;fill-opacity:1;fill-rule:nonzero;stroke:none"
       id="path5503" />
    <path
       inkscape:connector-curvature="0"
       d="m 160.0667,638.67461 123,-37 c 0.6875,-0.2125 1.4375,0 1.925,0.525 l 94,102 -1.3875,-0.6125 269.6375,0 0,3.75 -269.6375,0 c -0.5125,0 -1.0125,-0.2125 -1.375,-0.6 l -94,-102 1.925,0.525 -123,37 -1.0875,-3.5875 z m 485.2875,61.1625 11.25,5.625 -11.25,5.625 0,-11.25 z"
       style="fill:#00b050;fill-opacity:1;fill-rule:nonzero;stroke:none"
       id="path5505" />
    <path
       inkscape:connector-curvature="0"
       d="m 311.4917,602.88711 c 19.0375,-24.6 37.2875,-42.375 40.775,-39.675 0,0 0,0 0,0 l 0,0 c 3.475,2.6875 -9.1375,24.825 -28.1625,49.425 l 0,0 c -19.0375,24.6125 -37.2875,42.375 -40.775,39.6875 0,0 0,0 0,0 l 0,0 c -3.475,-2.7 9.1375,-24.825 28.1625,-49.4375 z"
       style="fill:none;stroke:#ff0000;stroke-width:0.9375;stroke-linecap:butt;stroke-linejoin:round;stroke-miterlimit:10;stroke-opacity:1;stroke-dasharray:none"
       id="path5655" />
    <path
       inkscape:connector-curvature="0"
       d="m 352.3292,563.16211 20,-36.4125"
       style="fill:none;stroke:#ff0000;stroke-width:0.9375;stroke-linecap:butt;stroke-linejoin:round;stroke-miterlimit:10;stroke-opacity:1;stroke-dasharray:none"
       id="path5657" />
    <text
       xml:space="preserve"
       style="font-size:24px;font-style:normal;font-variant:normal;font-weight:normal;font-stretch:normal;text-align:start;line-height:125%;letter-spacing:0px;word-spacing:0px;writing-mode:lr-tb;text-anchor:start;fill:#000000;fill-opacity:1;stroke:none;font-family:Latin Modern Roman;-inkscape-font-specification:'Latin Modern Roman,'"
       x="220.01512"
       y="435.26013"
       id="text6098"
       sodipodi:linespacing="125%"><tspan
         sodipodi:role="line"
         id="tspan6100"
         x="220.01512"
         y="435.26013">Label Edge Router (R4) - pode usar </tspan><tspan
         sodipodi:role="line"
         x="220.01512"
         y="465.26013"
         id="tspan6102">caminhos MPLS diferentes para </tspan><tspan
         sodipodi:role="line"
         x="220.01512"
         y="495.26013"
         id="tspan6104">encaminhar pacotes para A com base, </tspan><tspan
         sodipodi:role="line"
         x="220.01512"
         y="525.26013"
         id="tspan6114">e.g., no endereço IP de origem</tspan></text>
  </g>
</svg>
