<!-- Created with Inkscape (http://www.inkscape.org/) -->
<svg id="svg15774" xmlns:rdf="http://www.w3.org/1999/02/22-rdf-syntax-ns#" xmlns="http://www.w3.org/2000/svg" height="250.7" width="617.41" version="1.1" xmlns:cc="http://creativecommons.org/ns#" xmlns:xlink="http://www.w3.org/1999/xlink" xmlns:dc="http://purl.org/dc/elements/1.1/">
<defs id="defs15776">
<clipPath id="clipPath19860" clipPathUnits="userSpaceOnUse">
<path id="path19862" clip-rule="evenodd" d="M0.000010729,0,720,0v540h-720v-540z"/>
</clipPath>
<clipPath id="clipPath19846" clipPathUnits="userSpaceOnUse">
<path id="path19848" clip-rule="evenodd" d="M0.000010729,0,720,0v540h-720v-540z"/>
</clipPath>
<clipPath id="clipPath19828" clipPathUnits="userSpaceOnUse">
<path id="path19830" clip-rule="evenodd" d="M0.000010729,0,720,0v540h-720v-540z"/>
</clipPath>
<clipPath id="clipPath19810" clipPathUnits="userSpaceOnUse">
<path id="path19812" clip-rule="evenodd" d="M0.000010729,0,720,0v540h-720v-540z"/>
</clipPath>
<clipPath id="clipPath19794" clipPathUnits="userSpaceOnUse">
<path id="path19796" clip-rule="evenodd" d="M0.000010729,0,720,0v540h-720v-540z"/>
</clipPath>
<clipPath id="clipPath19782" clipPathUnits="userSpaceOnUse">
<path id="path19784" clip-rule="evenodd" d="M0.000010729,0,720,0v540h-720v-540z"/>
</clipPath>
<clipPath id="clipPath19754" clipPathUnits="userSpaceOnUse">
<path id="path19756" clip-rule="evenodd" d="M0.000010729,0,720,0v540h-720v-540z"/>
</clipPath>
<clipPath id="clipPath19708" clipPathUnits="userSpaceOnUse">
<path id="path19710" clip-rule="evenodd" d="M0.000010729,0,720,0v540h-720v-540z"/>
</clipPath>
</defs>
<metadata id="metadata15779">
<rdf:RDF>
<cc:Work rdf:about="">
<dc:format>image/svg+xml</dc:format>
<dc:type rdf:resource="http://purl.org/dc/dcmitype/StillImage"/>
<dc:title/>
</cc:Work>
</rdf:RDF>
</metadata>
<g id="layer1" transform="translate(-29.3125,-285.34375)">
<path id="path19680" d="m285.66,505.7,142.2,0,0-21-142.2,0,0,21z" fill-rule="evenodd" fill="#33C"/>
<path id="path19682" stroke-linejoin="miter" d="m285.66,505.7,142.2,0,0-21-142.2,0,0,21z" stroke="#000" stroke-linecap="butt" stroke-miterlimit="10" stroke-dasharray="none" stroke-width="0.90000004" fill="none"/>
<path id="path19684" d="m73.411,460.1,191.4,0,0-174.3-191.4,0,0,174.3z" fill-rule="evenodd" fill="#FFF"/>
<path id="path19686" stroke-linejoin="miter" d="m73.411,460.1,191.4,0,0-174.3-191.4,0,0,174.3z" stroke="#000" stroke-linecap="butt" stroke-miterlimit="10" stroke-dasharray="none" stroke-width="0.90000004" fill="none"/>
<path id="path19688" d="m83.486,336.95,0,32.45-1.25,0,0-32.45,1.25,0zm3.125,31.2-3.75,7.5-3.75-7.5,7.5,0z" fill-rule="nonzero" fill="#000"/>
<path id="path19690" d="m96.811,453.8,116.85,0,0-85.35-116.85,0,0,85.35z" fill-rule="evenodd" fill="#F00"/>
<g id="g19692" transform="matrix(1.25,0,0,-1.25,-119.18948,825.65107)">
<path id="path19694" stroke-linejoin="miter" d="m172.8,297.48,93.48,0,0,68.28-93.48,0,0-68.28z" stroke-dashoffset="0" stroke="#000" stroke-linecap="butt" stroke-miterlimit="10" stroke-dasharray="2.88, 2.16" stroke-width="0.72000003" fill="none"/>
</g>
<path id="path19696" d="m120.51,445.85,69.3,0,0-22.2-69.3,0,0,22.2z" fill-rule="evenodd" fill="#FFF"/>
<path id="path19698" stroke-linejoin="miter" d="m120.51,445.85,69.3,0,0-22.2-69.3,0,0,22.2z" stroke="#000" stroke-linecap="butt" stroke-miterlimit="10" stroke-dasharray="none" stroke-width="0.90000004" fill="none"/>
<path id="path19700" d="m120.51,418.1,68.4,0,0-40.95-68.4,0,0,40.95z" fill-rule="evenodd" fill="#FFF"/>
<path id="path19702" stroke-linejoin="miter" d="m120.51,418.1,68.4,0,0-40.95-68.4,0,0,40.95z" stroke="#000" stroke-linecap="butt" stroke-miterlimit="10" stroke-dasharray="none" stroke-width="0.90000004" fill="none"/>
<g id="g19704" transform="matrix(1.25,0,0,-1.25,-119.18948,825.65107)">
<g id="g19706" clip-path="url(#clipPath19708)">
<text id="text19712" transform="matrix(1,0,0,-1,194.47,337.9)">
<tspan id="tspan19714" style="writing-mode:lr-tb;" font-weight="normal" fill-rule="nonzero" font-size="12.02400017px" font-variant="normal" y="0" x="0 6.0120001 12.697344 19.430784 22.773457 26.777449 33.462791 36.132118 38.753353 45.438698" font-family="Arial" fill="#000000">controller</tspan>
</text>
</g>
</g>
<path id="path19716" stroke-linejoin="round" d="m111.81,353,141.45,0" stroke="#000" stroke-linecap="butt" stroke-miterlimit="10" stroke-dasharray="none" stroke-width="0.90000004" fill="none"/>
<path id="path19718" stroke-linejoin="round" d="m152.91,377.15,0-23.55" stroke="#000" stroke-linecap="butt" stroke-miterlimit="10" stroke-dasharray="none" stroke-width="0.90000004" fill="none"/>
<path id="path19720" d="m100.26,339.35,68.4,0,0-40.95-68.4,0,0,40.95z" fill-rule="evenodd" fill="#FFF"/>
<path id="path19722" stroke-linejoin="miter" d="m100.26,339.35,68.4,0,0-40.95-68.4,0,0,40.95z" stroke="#000" stroke-linecap="butt" stroke-miterlimit="8" stroke-dasharray="none" stroke-width="0.90000004" fill="none"/>
<path id="path19724" d="m185.46,339.5,68.55,0,0-40.95-68.55,0,0,40.95z" fill-rule="evenodd" fill="#FFF"/>
<path id="path19726" stroke-linejoin="miter" d="m185.46,339.5,68.55,0,0-40.95-68.55,0,0,40.95z" stroke="#000" stroke-linecap="butt" stroke-miterlimit="8" stroke-dasharray="none" stroke-width="0.90000004" fill="none"/>
<path id="path19728" stroke-linejoin="round" d="m132.06,353-0.15-13.65" stroke="#000" stroke-linecap="butt" stroke-miterlimit="8" stroke-dasharray="none" stroke-width="0.90000004" fill="none"/>
<path id="path19730" stroke-linejoin="round" d="m222.81,353.15,0-13.5" stroke="#000" stroke-linecap="butt" stroke-miterlimit="8" stroke-dasharray="none" stroke-width="0.90000004" fill="none"/>
<path id="path19732" d="m454.86,461.9,191.4,0,0-170.4-191.4,0,0,170.4z" fill-rule="evenodd" fill="#FFF"/>
<path id="path19734" stroke-linejoin="miter" d="m454.86,461.9,191.4,0,0-170.4-191.4,0,0,170.4z" stroke="#000" stroke-linecap="butt" stroke-miterlimit="8" stroke-dasharray="none" stroke-width="0.90000004" fill="none"/>
<path id="path19736" d="m478.11,455.6,116.85,0,0-85.2-116.85,0,0,85.2z" fill-rule="evenodd" fill="#F00"/>
<g id="g19738" transform="matrix(1.25,0,0,-1.25,-119.18948,825.65107)">
<path id="path19740" stroke-linejoin="miter" d="m477.84,296.04,93.48,0,0,68.16-93.48,0,0-68.16z" stroke-dashoffset="0" stroke="#000" stroke-linecap="butt" stroke-miterlimit="8" stroke-dasharray="2.88, 2.16" stroke-width="0.72000003" fill="none"/>
</g>
<path id="path19742" d="m501.96,447.65,69.15,0,0-22.2-69.15,0,0,22.2z" fill-rule="evenodd" fill="#FFF"/>
<path id="path19744" stroke-linejoin="miter" d="m501.96,447.65,69.15,0,0-22.2-69.15,0,0,22.2z" stroke="#000" stroke-linecap="butt" stroke-miterlimit="8" stroke-dasharray="none" stroke-width="0.90000004" fill="none"/>
<path id="path19746" d="m501.96,420.05,68.4,0,0-40.95-68.4,0,0,40.95z" fill-rule="evenodd" fill="#FFF"/>
<path id="path19748" stroke-linejoin="miter" d="m501.96,420.05,68.4,0,0-40.95-68.4,0,0,40.95z" stroke="#000" stroke-linecap="butt" stroke-miterlimit="8" stroke-dasharray="none" stroke-width="0.90000004" fill="none"/>
<g id="g19750" transform="matrix(1.25,0,0,-1.25,-119.18948,825.65107)">
<g id="g19752" clip-path="url(#clipPath19754)">
<text id="text19758" transform="matrix(1,0,0,-1,499.66,336.38)">
<tspan id="tspan19760" style="writing-mode:lr-tb;" font-weight="normal" fill-rule="nonzero" font-size="12px" font-variant="normal" y="0" x="0 6 12.708 19.416 22.752001 26.747999 33.444 36.108002 38.723999 45.431999" font-family="Arial" fill="#000000">controller</tspan>
</text>
</g>
</g>
<path id="path19762" stroke-linejoin="round" d="m493.11,354.8,141.6,0" stroke="#000" stroke-linecap="butt" stroke-miterlimit="8" stroke-dasharray="none" stroke-width="0.90000004" fill="none"/>
<path id="path19764" stroke-linejoin="round" d="m534.21,379.1,0-23.55" stroke="#000" stroke-linecap="butt" stroke-miterlimit="8" stroke-dasharray="none" stroke-width="0.90000004" fill="none"/>
<path id="path19766" d="m481.56,341.3,68.4,0,0-40.95-68.4,0,0,40.95z" fill-rule="evenodd" fill="#FFF"/>
<path id="path19768" stroke-linejoin="miter" d="m481.56,341.3,68.4,0,0-40.95-68.4,0,0,40.95z" stroke="#000" stroke-linecap="butt" stroke-miterlimit="8" stroke-dasharray="none" stroke-width="0.90000004" fill="none"/>
<path id="path19770" d="m566.91,341.45,68.4,0,0-40.95-68.4,0,0,40.95z" fill-rule="evenodd" fill="#FFF"/>
<path id="path19772" stroke-linejoin="miter" d="m566.91,341.45,68.4,0,0-40.95-68.4,0,0,40.95z" stroke="#000" stroke-linecap="butt" stroke-miterlimit="8" stroke-dasharray="none" stroke-width="0.90000004" fill="none"/>
<path id="path19774" stroke-linejoin="round" d="m513.51,354.8-0.15-13.5" stroke="#000" stroke-linecap="butt" stroke-miterlimit="8" stroke-dasharray="none" stroke-width="0.90000004" fill="none"/>
<path id="path19776" stroke-linejoin="round" d="m604.26,355.1,0-13.5" stroke="#000" stroke-linecap="butt" stroke-miterlimit="8" stroke-dasharray="none" stroke-width="0.90000004" fill="none"/>
<g id="g19778" transform="matrix(1.25,0,0,-1.25,-119.18948,825.65107)">
<g id="g19780" clip-path="url(#clipPath19782)">
<text id="text19786" transform="matrix(1,0,0,-1,159.6,279.86)">
<tspan id="tspan19788" style="writing-mode:lr-tb;" font-weight="normal" fill-rule="nonzero" font-size="15.96000004px" font-style="italic" font-variant="normal" y="0" x="0 8.0278797 16.90164 25.7754 34.649158 38.256119 47.129879 56.003639 60.3288 69.20256 78.076317 86.120163" font-family="Arial" fill="#000000">sending host</tspan>
</text>
</g>
</g>
<g id="g19790" transform="matrix(1.25,0,0,-1.25,-119.18948,825.65107)">
<g id="g19792" clip-path="url(#clipPath19794)">
<text id="text19798" transform="matrix(1,0,0,-1,458.28,279.98)">
<tspan id="tspan19800" style="writing-mode:lr-tb;" font-weight="normal" fill-rule="nonzero" font-size="15.96000004px" font-style="italic" font-variant="normal" y="0" x="0 5.3146801 14.18844 22.16844 31.0422 34.665119 42.693001 46.284 55.157761 64.031517 68.356682 77.230438 86.104202 94.148041" font-family="Arial" fill="#000000">receiving host</tspan>
</text>
</g>
</g>
<path id="path19802" d="m29.761,360.95,70.65,0,0-16.65-70.65,0,0,16.65z" fill-rule="evenodd" fill="#FFF"/>
<path id="path19804" stroke-linejoin="miter" d="m29.761,360.95,70.65,0,0-16.65-70.65,0,0,16.65z" stroke="#000" stroke-linecap="butt" stroke-miterlimit="8" stroke-dasharray="none" stroke-width="0.90000004" fill="none"/>
<g id="g19806" transform="matrix(1.25,0,0,-1.25,-119.18948,825.65107)">
<g id="g19808" clip-path="url(#clipPath19810)">
<text id="text19814" transform="matrix(1,0,0,-1,123.48,373.34)">
<tspan id="tspan19816" style="writing-mode:lr-tb;" font-weight="normal" fill-rule="nonzero" font-size="12px" font-variant="normal" y="0" x="0 6.7080002 13.416 16.752001 23.483999 30.084 34.080002 40.751999" font-family="Arial" fill="#000000">datagram</tspan>
</text>
</g>
</g>
<path id="path19818" d="m468.09,340.95,0,32.3-1.25,0,0-32.3,1.25,0zm-4.375,1.25,3.75-7.5,3.75,7.5-7.5,0z" fill-rule="nonzero" fill="#000"/>
<path id="path19820" d="m414.51,362.9,70.5,0,0-16.8-70.5,0,0,16.8z" fill-rule="evenodd" fill="#FFF"/>
<path id="path19822" stroke-linejoin="miter" d="m414.51,362.9,70.5,0,0-16.8-70.5,0,0,16.8z" stroke="#000" stroke-linecap="butt" stroke-miterlimit="8" stroke-dasharray="none" stroke-width="0.90000004" fill="none"/>
<g id="g19824" transform="matrix(1.25,0,0,-1.25,-119.18948,825.65107)">
<g id="g19826" clip-path="url(#clipPath19828)">
<text id="text19832" transform="matrix(1,0,0,-1,431.4,371.83)">
<tspan id="tspan19834" style="writing-mode:lr-tb;" font-weight="normal" fill-rule="nonzero" font-size="12px" font-variant="normal" y="0" x="0 6.7080002 13.416 16.752001 23.483999 30.084 34.080002 40.751999" font-family="Arial" fill="#000000">datagram</tspan>
</text>
</g>
</g>
<path id="path19836" d="m153.99,442.65,0,37.85-0.625-0.625,382.2,0-0.625,0.625,0-35.788,1.25,0,0,35.788c0,0.35-0.275,0.625-0.625,0.625h-382.2c-0.35,0-0.625-0.275-0.625-0.625v-37.85h1.25zm-4.375,1.25,3.75-7.5,3.75,7.5-7.5,0zm382.2,2.0625,3.75-7.5,3.75,7.5-7.5,0z" fill-rule="nonzero" fill="#000"/>
<path id="path19838" d="m341.61,503.9,70.65,0,0-16.65-70.65,0,0,16.65z" fill-rule="evenodd" fill="#FFF"/>
<path id="path19840" stroke-linejoin="miter" d="m341.61,503.9,70.65,0,0-16.65-70.65,0,0,16.65z" stroke="#000" stroke-linecap="butt" stroke-miterlimit="8" stroke-dasharray="none" stroke-width="0.90000004" fill="none"/>
<g id="g19842" transform="matrix(1.25,0,0,-1.25,-119.18948,825.65107)">
<g id="g19844" clip-path="url(#clipPath19846)">
<text id="text19850" transform="matrix(1,0,0,-1,373.78,258.94)">
<tspan id="tspan19852" style="writing-mode:lr-tb;" font-weight="normal" fill-rule="nonzero" font-size="12px" font-variant="normal" y="0" x="0 6.7080002 13.416 16.752001 23.483999 30.084 34.080002 40.751999" font-family="Arial" fill="#000000">datagram</tspan>
</text>
</g>
</g>
<path id="path19854" d="m437.31,495.63,21.05,0,0,1.25-21.05,0,0-1.25zm19.8-3.125,7.5,3.75-7.5,3.75,0-7.5z" fill-rule="nonzero" fill="#000"/>
<g id="g19856" transform="matrix(1.25,0,0,-1.25,-119.18948,825.65107)">
<g id="g19858" clip-path="url(#clipPath19860)">
<text id="text19864" transform="matrix(1,0,0,-1,183.98,231.84)">
<tspan id="tspan19866" style="writing-mode:lr-tb;" font-weight="normal" fill-rule="nonzero" font-size="15.96000004px" font-style="italic" font-variant="normal" y="0" x="0 4.4368801 9.7515602 18.62532 31.79232" font-family="Arial" fill="#000000">frame</tspan>
</text>
</g>
</g>
<path id="path19868" stroke-linejoin="round" d="m163.56,523.4,113.85-20.85" stroke="#000" stroke-linecap="butt" stroke-miterlimit="8" stroke-dasharray="none" stroke-width="0.90000004" fill="none"/>
</g>
</svg>
