<!-- Created with Inkscape (http://www.inkscape.org/) -->
<svg id="svg3671" xmlns:rdf="http://www.w3.org/1999/02/22-rdf-syntax-ns#" xmlns="http://www.w3.org/2000/svg" height="449.33" width="387.37" version="1.1" xmlns:cc="http://creativecommons.org/ns#" xmlns:xlink="http://www.w3.org/1999/xlink" xmlns:dc="http://purl.org/dc/elements/1.1/">
<defs id="defs3673">
<clipPath id="clipPath49019" clipPathUnits="userSpaceOnUse">
<path id="path49021" clip-rule="evenodd" d="M0.000010729,0,720,0v540h-720v-540z"/>
</clipPath>
<clipPath id="clipPath49007" clipPathUnits="userSpaceOnUse">
<path id="path49009" clip-rule="evenodd" d="M0.000010729,0,720,0v540h-720v-540z"/>
</clipPath>
<clipPath id="clipPath48995" clipPathUnits="userSpaceOnUse">
<path id="path48997" clip-rule="evenodd" d="M0.000010729,0,720,0v540h-720v-540z"/>
</clipPath>
<clipPath id="clipPath48983" clipPathUnits="userSpaceOnUse">
<path id="path48985" clip-rule="evenodd" d="M0.000010729,0,720,0v540h-720v-540z"/>
</clipPath>
<clipPath id="clipPath48971" clipPathUnits="userSpaceOnUse">
<path id="path48973" clip-rule="evenodd" d="M0.000010729,0,720,0v540h-720v-540z"/>
</clipPath>
<clipPath id="clipPath48959" clipPathUnits="userSpaceOnUse">
<path id="path48961" clip-rule="evenodd" d="M0.000010729,0,720,0v540h-720v-540z"/>
</clipPath>
<clipPath id="clipPath48941" clipPathUnits="userSpaceOnUse">
<path id="path48943" clip-rule="evenodd" d="M0.000010729,0,720,0v540h-720v-540z"/>
</clipPath>
<clipPath id="clipPath48923" clipPathUnits="userSpaceOnUse">
<path id="path48925" clip-rule="evenodd" d="M0.000010729,0,720,0v540h-720v-540z"/>
</clipPath>
<clipPath id="clipPath48905" clipPathUnits="userSpaceOnUse">
<path id="path48907" clip-rule="evenodd" d="M0.000010729,0,720,0v540h-720v-540z"/>
</clipPath>
<clipPath id="clipPath48887" clipPathUnits="userSpaceOnUse">
<path id="path48889" clip-rule="evenodd" d="M0.000010729,0,720,0v540h-720v-540z"/>
</clipPath>
<clipPath id="clipPath48869" clipPathUnits="userSpaceOnUse">
<path id="path48871" clip-rule="evenodd" d="M0.000010729,0,720,0v540h-720v-540z"/>
</clipPath>
<clipPath id="clipPath48851" clipPathUnits="userSpaceOnUse">
<path id="path48853" clip-rule="evenodd" d="M0.000010729,0,720,0v540h-720v-540z"/>
</clipPath>
<clipPath id="clipPath48833" clipPathUnits="userSpaceOnUse">
<path id="path48835" clip-rule="evenodd" d="M0.000010729,0,720,0v540h-720v-540z"/>
</clipPath>
<clipPath id="clipPath48815" clipPathUnits="userSpaceOnUse">
<path id="path48817" clip-rule="evenodd" d="M0.000010729,0,720,0v540h-720v-540z"/>
</clipPath>
<clipPath id="clipPath48797" clipPathUnits="userSpaceOnUse">
<path id="path48799" clip-rule="evenodd" d="M0.000010729,0,720,0v540h-720v-540z"/>
</clipPath>
<clipPath id="clipPath48779" clipPathUnits="userSpaceOnUse">
<path id="path48781" clip-rule="evenodd" d="M0.000010729,0,720,0v540h-720v-540z"/>
</clipPath>
<clipPath id="clipPath48761" clipPathUnits="userSpaceOnUse">
<path id="path48763" clip-rule="evenodd" d="M0.000010729,0,720,0v540h-720v-540z"/>
</clipPath>
<clipPath id="clipPath48743" clipPathUnits="userSpaceOnUse">
<path id="path48745" clip-rule="evenodd" d="M0.000010729,0,720,0v540h-720v-540z"/>
</clipPath>
<clipPath id="clipPath48725" clipPathUnits="userSpaceOnUse">
<path id="path48727" clip-rule="evenodd" d="M0.000010729,0,720,0v540h-720v-540z"/>
</clipPath>
<clipPath id="clipPath48707" clipPathUnits="userSpaceOnUse">
<path id="path48709" clip-rule="evenodd" d="M0.000010729,0,720,0v540h-720v-540z"/>
</clipPath>
<clipPath id="clipPath48685" clipPathUnits="userSpaceOnUse">
<path id="path48687" clip-rule="evenodd" d="M0.000010729,0,720,0v540h-720v-540z"/>
</clipPath>
<clipPath id="clipPath48673" clipPathUnits="userSpaceOnUse">
<path id="path48675" clip-rule="evenodd" d="M0.000010729,0,720,0v540h-720v-540z"/>
</clipPath>
<clipPath id="clipPath48661" clipPathUnits="userSpaceOnUse">
<path id="path48663" clip-rule="evenodd" d="M0.000010729,0,720,0v540h-720v-540z"/>
</clipPath>
<clipPath id="clipPath48645" clipPathUnits="userSpaceOnUse">
<path id="path48647" clip-rule="evenodd" d="M0.000010729,0,720,0v540h-720v-540z"/>
</clipPath>
<clipPath id="clipPath48633" clipPathUnits="userSpaceOnUse">
<path id="path48635" clip-rule="evenodd" d="M0.000010729,0,720,0v540h-720v-540z"/>
</clipPath>
<clipPath id="clipPath48621" clipPathUnits="userSpaceOnUse">
<path id="path48623" clip-rule="evenodd" d="M0.000010729,0,720,0v540h-720v-540z"/>
</clipPath>
<clipPath id="clipPath48609" clipPathUnits="userSpaceOnUse">
<path id="path48611" clip-rule="evenodd" d="M0.000010729,0,720,0v540h-720v-540z"/>
</clipPath>
<clipPath id="clipPath48597" clipPathUnits="userSpaceOnUse">
<path id="path48599" clip-rule="evenodd" d="M0.000010729,0,720,0v540h-720v-540z"/>
</clipPath>
<clipPath id="clipPath48585" clipPathUnits="userSpaceOnUse">
<path id="path48587" clip-rule="evenodd" d="M0.000010729,0,720,0v540h-720v-540z"/>
</clipPath>
<clipPath id="clipPath48559" clipPathUnits="userSpaceOnUse">
<path id="path48561" clip-rule="evenodd" d="M0.000020342,540,720,540,720,0.00012207h-720"/>
</clipPath>
<mask id="mask48497" height="1" width="1" y="0" x="0" maskUnits="userSpaceOnUse">
<g id="g48499">
<g id="g48501" clip-path="url(#clipPath48465)">
<path id="path48503" d="m534.36,305.28,26.52,0,0,43.08-26.52,0,0-43.08z" fill-rule="evenodd" fill="url(#linearGradient48469)"/>
</g>
</g>
</mask>
<clipPath id="clipPath48465" clipPathUnits="userSpaceOnUse">
<path id="path48467" d="m534.36,305.28,26.52,0,0,43.08-26.52,0,0-43.08z"/>
</clipPath>
<linearGradient id="linearGradient48469" y2="326.82" gradientUnits="userSpaceOnUse" x2="560.88" y1="326.82" x1="507.84">
<stop id="stop48471" stop-color="#FFF" offset="0"/>
<stop id="stop48473" stop-opacity="0.90196078" stop-color="#FFF" offset="0.0016667"/>
<stop id="stop48475" stop-opacity="0.80392157" stop-color="#FFF" offset="0.0033333"/>
<stop id="stop48477" stop-opacity="0.70980392" stop-color="#FFF" offset="0.005"/>
<stop id="stop48479" stop-opacity="0.70980392" stop-color="#FFF" offset="0.335"/>
<stop id="stop48481" stop-opacity="0.70980392" stop-color="#FFF" offset="0.5"/>
<stop id="stop48483" stop-opacity="0.70980392" stop-color="#FFF" offset="0.665"/>
<stop id="stop48485" stop-opacity="0.70980392" stop-color="#FFF" offset="0.83"/>
<stop id="stop48487" stop-opacity="0.70980392" stop-color="#FFF" offset="0.995"/>
<stop id="stop48489" stop-opacity="0.80392157" stop-color="#FFF" offset="0.99667"/>
<stop id="stop48493" stop-opacity="0.90196078" stop-color="#FFF" offset="0.99833"/>
<stop id="stop48495" stop-color="#FFF" offset="1"/>
</linearGradient>
<linearGradient id="linearGradient48507" y2="326.82" gradientUnits="userSpaceOnUse" x2="560.88" gradientTransform="translate(376.89643,-102.64648)" y1="326.82" x1="507.84">
<stop id="stop48509" stop-color="#FFF" offset="0"/>
<stop id="stop48511" stop-color="#ACB" offset="0.0016667"/>
<stop id="stop48513" stop-color="#597" offset="0.0033333"/>
<stop id="stop48515" stop-color="#063" offset="0.005"/>
<stop id="stop48517" stop-color="#006532" offset="0.335"/>
<stop id="stop48521" stop-color="#063" offset="0.5"/>
<stop id="stop48523" stop-color="#006532" offset="0.665"/>
<stop id="stop48525" stop-color="#063" offset="0.83"/>
<stop id="stop48527" stop-color="#597" offset="0.99667"/>
<stop id="stop48531" stop-color="#ACB" offset="0.99833"/>
<stop id="stop48533" stop-color="#FFF" offset="1"/>
</linearGradient>
</defs>
<metadata id="metadata3676">
<rdf:RDF>
<cc:Work rdf:about="">
<dc:format>image/svg+xml</dc:format>
<dc:type rdf:resource="http://purl.org/dc/dcmitype/StillImage"/>
<dc:title/>
</cc:Work>
</rdf:RDF>
</metadata>
<g id="layer1" transform="translate(384.47073,-150.44954)">
<path id="path48445" stroke-linejoin="miter" d="m-245.02,316.37,91.5,0,0-55.35-91.5,0,0,55.35z" stroke="#000" stroke-linecap="butt" stroke-miterlimit="10" stroke-dasharray="none" stroke-width="1.94999993" fill="none"/>
<path id="path48447" stroke-linejoin="round" d="m-233.17,261.47-0.45,54.925" stroke="#000" stroke-linecap="butt" stroke-miterlimit="10" stroke-dasharray="none" stroke-width="1.94999993" fill="none"/>
<path id="path48449" stroke-linejoin="round" d="m-220.87,261.32-0.45,54.925" stroke="#000" stroke-linecap="butt" stroke-miterlimit="10" stroke-dasharray="none" stroke-width="1.94999993" fill="none"/>
<path id="path48451" stroke-linejoin="round" d="m-209.47,261.62-0.45,54.925" stroke="#000" stroke-linecap="butt" stroke-miterlimit="10" stroke-dasharray="none" stroke-width="1.94999993" fill="none"/>
<path id="path48453" stroke-linejoin="round" d="m-198.97,261.17-0.45,54.925" stroke="#000" stroke-linecap="butt" stroke-miterlimit="10" stroke-dasharray="none" stroke-width="1.94999993" fill="none"/>
<path id="path48455" stroke-linejoin="round" d="m-188.17,261.32-0.45,54.925" stroke="#000" stroke-linecap="butt" stroke-miterlimit="10" stroke-dasharray="none" stroke-width="1.94999993" fill="none"/>
<path id="path48457" stroke-linejoin="round" d="m-176.17,261.47-0.45,54.925" stroke="#000" stroke-linecap="butt" stroke-miterlimit="10" stroke-dasharray="none" stroke-width="1.94999993" fill="none"/>
<path id="path48459" stroke-linejoin="round" d="m-164.62,261.32-0.45,54.925" stroke="#000" stroke-linecap="butt" stroke-miterlimit="10" stroke-dasharray="none" stroke-width="1.94999993" fill="none"/>
<g id="g48461" transform="matrix(1.25,0,0,-1.25,-855.59126,697.14143)">
<g id="g48505" mask="url(#mask48497)">
<path id="path48535" d="m534.36,305.28,26.52,0,0,43.08-26.52,0,0-43.08z" fill-rule="evenodd" fill="url(#linearGradient48507)"/>
</g>
</g>
<path id="path48537" stroke-linejoin="miter" d="m-248.32,249.92,91.5,0,0-55.5-91.5,0,0,55.5z" stroke="#000" stroke-linecap="butt" stroke-miterlimit="8" stroke-dasharray="none" stroke-width="1.94999993" fill="none"/>
<path id="path48539" stroke-linejoin="round" d="m-236.47,194.87-0.45,54.925" stroke="#000" stroke-linecap="butt" stroke-miterlimit="8" stroke-dasharray="none" stroke-width="1.94999993" fill="none"/>
<path id="path48541" stroke-linejoin="round" d="m-224.17,194.87-0.45,54.925" stroke="#000" stroke-linecap="butt" stroke-miterlimit="8" stroke-dasharray="none" stroke-width="1.94999993" fill="none"/>
<path id="path48543" stroke-linejoin="round" d="m-212.77,195.17-0.45,54.925" stroke="#000" stroke-linecap="butt" stroke-miterlimit="8" stroke-dasharray="none" stroke-width="1.94999993" fill="none"/>
<path id="path48545" stroke-linejoin="round" d="m-202.12,194.57-0.45,54.925" stroke="#000" stroke-linecap="butt" stroke-miterlimit="8" stroke-dasharray="none" stroke-width="1.94999993" fill="none"/>
<path id="path48547" stroke-linejoin="round" d="m-191.32,194.87-0.45,54.925" stroke="#000" stroke-linecap="butt" stroke-miterlimit="8" stroke-dasharray="none" stroke-width="1.94999993" fill="none"/>
<path id="path48549" stroke-linejoin="round" d="m-179.47,195.02-0.45,54.925" stroke="#000" stroke-linecap="butt" stroke-miterlimit="8" stroke-dasharray="none" stroke-width="1.94999993" fill="none"/>
<path id="path48551" stroke-linejoin="round" d="m-167.92,194.87-0.45,54.925" stroke="#000" stroke-linecap="butt" stroke-miterlimit="8" stroke-dasharray="none" stroke-width="1.94999993" fill="none"/>
<path id="path48553" d="m-224.09,249.09,68.25,0,0-53.85-68.25,0,0,53.85z" fill-rule="evenodd" fill-opacity="0.70980003" fill="#C00"/>
<g id="g48555" transform="matrix(1.25,0,0,-1.25,-855.59126,697.14143)">
<g id="g48557" clip-path="url(#clipPath48559)">
<path id="path48563" stroke-linejoin="miter" d="m428.46,377.82,33.84-22.62-33.84-22.62,0,45.24z" stroke="#000" stroke-linecap="butt" stroke-miterlimit="8" stroke-dasharray="none" stroke-width="1.55999994" fill="none"/>
</g>
</g>
<path id="path48565" stroke-linejoin="round" d="m-143.02,256.44c0-17.112,13.938-30.975,31.125-30.975,17.188,0,31.125,13.862,31.125,30.975,0,17.112-13.938,30.975-31.125,30.975-17.188,0-31.125-13.862-31.125-30.975z" stroke="#000" stroke-linecap="butt" stroke-miterlimit="8" stroke-dasharray="none" stroke-width="1.94999993" fill="none"/>
<path id="path48567" d="m-277,253.78,25.012-26.4-1.4125-1.35-25.025,26.412,1.425,1.3375zm26.175-23.588,2.4375-8.025-7.8875,2.8625,5.45,5.1625z" fill-rule="nonzero" fill="#C00"/>
<path id="path48569" d="m-277,252.4,28.362,30.925-1.4375,1.325-28.362-30.925,1.4375-1.325zm29.562,28.125,2.3,8.0625-7.825-2.9875,5.525-5.075z" fill-rule="nonzero" fill="#063"/>
<path id="path48571" d="m-378.5,242.49,41.525-0.525-0.025-1.95-41.525,0.525,0.025,1.95zm40.312,2.2625,7.45-3.8375-7.55-3.65,0.1,7.4875z" fill-rule="nonzero" fill="#C00"/>
<path id="path48573" d="m-378.65,267.84,41.525-0.525-0.025-1.95-41.525,0.525,0.025,1.95zm40.312,2.2625,7.45-3.8375-7.55-3.65,0.1,7.4875z" fill-rule="nonzero" fill="#063"/>
<path id="path48575" d="m-155.44,221.47,16.612,9.2125-0.9375,1.7-16.625-9.2125,0.95-1.7zm16.862,6.175,4.75,6.925-8.3875-0.3625,3.6375-6.5625z" fill-rule="nonzero" fill="#C00"/>
<path id="path48577" d="m-153.04,291.03,13.512-11.425-1.2625-1.4875-13.5,11.425,1.25,1.4875zm14.35-8.5,3.3-7.7125-8.15,1.9875,4.85,5.725z" fill-rule="nonzero" fill="#063"/>
<path id="path48579" d="m-81.066,255.24,32.238,0.1-0.0125,1.95-32.225-0.1,0-1.95zm30.988-2.6875,7.5,3.775-7.5125,3.725,0.0125-7.5z" fill-rule="nonzero" fill="#000"/>
<g id="g48581" transform="matrix(1.25,0,0,-1.25,-855.59126,697.14143)">
<g id="g48583" clip-path="url(#clipPath48585)">
<text id="text48589" transform="matrix(1,0,0,-1,448.87,427.18)">
<tspan id="tspan48591" style="writing-mode:lr-tb;" font-weight="normal" fill-rule="nonzero" font-size="14.03999996px" font-variant="normal" y="0" x="0 7.8062401 10.92312 18.729361 26.535601 30.242161 38.048401 42.723721 45.840599 53.646839 58.322159 61.439041 65.384277 72.221764 75.94236 83.748596 91.55484 99.361076 107.16732" font-family="Arial" fill="#000000">high priority queue</tspan>
</text>
</g>
</g>
<g id="g48593" transform="matrix(1.25,0,0,-1.25,-855.59126,697.14143)">
<g id="g48595" clip-path="url(#clipPath48597)">
<text id="text48601" transform="matrix(1,0,0,-1,463.99,410.38)">
<tspan id="tspan48603" style="writing-mode:lr-tb;" font-weight="normal" fill-rule="nonzero" font-size="14.03999996px" font-variant="normal" y="0" x="0 4.6753201 14.64372 22.449961 25.566839 29.512079 32.62896 40.4352 48.24144 51.948002 59.754238 64.429558 72.235802 80.042038" font-family="Arial" fill="#000000">(waiting area)</tspan>
</text>
</g>
</g>
<g id="g48605" transform="matrix(1.25,0,0,-1.25,-855.59126,697.14143)">
<g id="g48607" clip-path="url(#clipPath48609)">
<text id="text48613" transform="matrix(1,0,0,-1,457.06,290.11)">
<tspan id="tspan48615" style="writing-mode:lr-tb;" font-weight="normal" fill-rule="nonzero" font-size="14.03999996px" font-variant="normal" y="0" x="0 3.1168799 10.92312 20.87748 24.82272 32.62896 37.304279 40.421162 48.227402 52.902721 56.0196 59.96484 66.802322 70.649277 78.455521 86.261757 94.068001 101.87424" font-family="Arial" fill="#000000">low priority queue</tspan>
</text>
</g>
</g>
<g id="g48617" transform="matrix(1.25,0,0,-1.25,-855.59126,697.14143)">
<g id="g48619" clip-path="url(#clipPath48621)">
<text id="text48625" transform="matrix(1,0,0,-1,469.54,273.31)">
<tspan id="tspan48627" style="writing-mode:lr-tb;" font-weight="normal" fill-rule="nonzero" font-size="14.03999996px" font-variant="normal" y="0" x="0 4.6753201 14.64372 22.449961 25.566839 29.512079 32.62896 40.4352 48.24144 51.948002 59.754238 64.429558 72.235802 80.042038" font-family="Arial" fill="#000000">(waiting area)</tspan>
</text>
</g>
</g>
<g id="g48629" transform="matrix(1.25,0,0,-1.25,-855.59126,697.14143)">
<g id="g48631" clip-path="url(#clipPath48633)">
<text id="text48637" transform="matrix(1,0,0,-1,376.3,373.8)">
<tspan id="tspan48639" style="writing-mode:lr-tb;" font-weight="normal" fill-rule="nonzero" font-size="14.03999996px" font-variant="normal" y="0" x="0 7.8062401 12.48156 17.156879 20.27376 27.12528 34.931519 38.048401" font-family="Arial" fill="#000000">arrivals</tspan>
</text>
</g>
</g>
<g id="g48641" transform="matrix(1.25,0,0,-1.25,-855.59126,697.14143)">
<g id="g48643" clip-path="url(#clipPath48645)">
<text id="text48649" transform="matrix(1,0,0,-1,418.3,316.13)">
<tspan id="tspan48651" style="writing-mode:lr-tb;" font-weight="normal" fill-rule="nonzero" font-size="14.03999996px" font-variant="normal" y="0" x="0 7.06212 10.179 17.985241 25.047359 32.109482 35.22636 39.1716" font-family="Arial" fill="#000000">classify</tspan>
</text>
</g>
</g>
<path id="path48653" d="m-68.604,242.49,41.525-0.525-0.025-1.95-41.525,0.525,0.025,1.95zm40.312,2.2625,7.45-3.8375-7.55-3.65,0.1,7.4875z" fill-rule="nonzero" fill="#C00"/>
<path id="path48655" d="m-68.754,267.84,41.525-0.525-0.025-1.95-41.525,0.525,0.025,1.95zm40.312,2.2625,7.45-3.8375-7.55-3.65,0.1,7.4875z" fill-rule="nonzero" fill="#063"/>
<g id="g48657" transform="matrix(1.25,0,0,-1.25,-855.59126,697.14143)">
<g id="g48659" clip-path="url(#clipPath48661)">
<text id="text48665" transform="matrix(1,0,0,-1,613.34,373.78)">
<tspan id="tspan48667" style="writing-mode:lr-tb;" font-weight="normal" fill-rule="nonzero" font-size="14.03999996px" font-variant="normal" y="0" x="0 7.8062401 15.61248 23.41872 31.22496 35.90028 39.803398 47.609638 52.200722 60.006962" font-family="Arial" fill="#000000">departures</tspan>
</text>
</g>
</g>
<g id="g48669" transform="matrix(1.25,0,0,-1.25,-855.59126,697.14143)">
<g id="g48671" clip-path="url(#clipPath48673)">
<text id="text48677" transform="matrix(1,0,0,-1,585.22,316.08)">
<tspan id="tspan48679" style="writing-mode:lr-tb;" font-weight="normal" fill-rule="nonzero" font-size="14.03999996px" font-variant="normal" y="0" x="0 3.1199999 6.2399998 14.04936" font-family="Arial" fill="#000000">link</tspan>
</text>
</g>
</g>
<g id="g48681" transform="matrix(1.25,0,0,-1.25,-855.59126,697.14143)">
<g id="g48683" clip-path="url(#clipPath48685)">
<text id="text48689" transform="matrix(1,0,0,-1,573.58,299.28)">
<tspan id="tspan48691" style="writing-mode:lr-tb;" font-weight="normal" fill-rule="nonzero" font-size="14.03999996px" font-variant="normal" y="0" x="0 4.6753201 11.75148 19.55772 24.23304 31.07052 38.876759 43.552078" font-family="Arial" fill="#000000">(server)</tspan>
</text>
</g>
</g>
<path id="path48693" d="m-315.22,459.99,311.6,0,0,2.55-311.6,0,0-2.55zm310.31-2.55,7.65,3.825-7.65,3.825,0-7.65z" fill-rule="nonzero" fill="#000"/>
<path id="path48695" d="m-315.07,535.89,311.6,0,0,2.55-311.6,0,0-2.55zm310.31-2.55,7.65,3.825-7.65,3.825,0-7.65z" fill-rule="nonzero" fill="#000"/>
<path id="path48697" d="m-304.49,536.04,34.2,0,0-74.25-34.2,0,0,74.25z" fill-rule="evenodd" fill="#C00"/>
<path id="path48699" stroke-linejoin="miter" d="m-304.49,536.04,34.2,0,0-74.25-34.2,0,0,74.25z" stroke="#000" stroke-linecap="butt" stroke-miterlimit="8" stroke-dasharray="none" stroke-width="1.5" fill="none"/>
<path id="path48701" d="m-298.04,499.37c0-5.425,4.875-9.825,10.875-9.825s10.875,4.4,10.875,9.825-4.875,9.825-10.875,9.825-10.875-4.4-10.875-9.825z" fill-rule="evenodd" fill="#FFF"/>
<g id="g48703" transform="matrix(1.25,0,0,-1.25,-855.59126,697.14143)">
<g id="g48705" clip-path="url(#clipPath48707)">
<text id="text48711" transform="matrix(1,0,0,-1,450.1,152.59)">
<tspan id="tspan48713" style="writing-mode:lr-tb;" font-weight="normal" fill-rule="nonzero" font-size="15.96000004px" font-variant="normal" y="0" x="0" font-family="Arial" fill="#000000">1</tspan>
</text>
</g>
</g>
<path id="path48715" d="m-270.14,536.64,34.05,0,0-74.4-34.05,0,0,74.4z" fill-rule="evenodd" fill="#C00"/>
<path id="path48717" stroke-linejoin="miter" d="m-270.14,536.64,34.05,0,0-74.4-34.05,0,0,74.4z" stroke="#000" stroke-linecap="butt" stroke-miterlimit="8" stroke-dasharray="none" stroke-width="1.5" fill="none"/>
<path id="path48719" d="m-263.69,499.89c0-5.4625,4.8375-9.9,10.8-9.9s10.8,4.4375,10.8,9.9-4.8375,9.9-10.8,9.9-10.8-4.4375-10.8-9.9z" fill-rule="evenodd" fill="#FFF"/>
<g id="g48721" transform="matrix(1.25,0,0,-1.25,-855.59126,697.14143)">
<g id="g48723" clip-path="url(#clipPath48725)">
<text id="text48729" transform="matrix(1,0,0,-1,477.58,152.18)">
<tspan id="tspan48731" style="writing-mode:lr-tb;" font-weight="normal" fill-rule="nonzero" font-size="15.96000004px" font-variant="normal" y="0" x="0" font-family="Arial" fill="#000000">3</tspan>
</text>
</g>
</g>
<path id="path48733" d="m-235.64,536.19,34.05,0,0-74.4-34.05,0,0,74.4z" fill-rule="evenodd" fill="#063"/>
<path id="path48735" stroke-linejoin="miter" d="m-235.64,536.19,34.05,0,0-74.4-34.05,0,0,74.4z" stroke="#000" stroke-linecap="butt" stroke-miterlimit="8" stroke-dasharray="none" stroke-width="1.5" fill="none"/>
<path id="path48737" d="m-229.19,499.44c0-5.4625,4.8375-9.9,10.8-9.9s10.8,4.4375,10.8,9.9-4.8375,9.9-10.8,9.9-10.8-4.4375-10.8-9.9z" fill-rule="evenodd" fill="#FFF"/>
<g id="g48739" transform="matrix(1.25,0,0,-1.25,-855.59126,697.14143)">
<g id="g48741" clip-path="url(#clipPath48743)">
<text id="text48747" transform="matrix(1,0,0,-1,505.2,152.54)">
<tspan id="tspan48749" style="writing-mode:lr-tb;" font-weight="normal" fill-rule="nonzero" font-size="15.96000004px" font-variant="normal" y="0" x="0" font-family="Arial" fill="#000000">2</tspan>
</text>
</g>
</g>
<path id="path48751" d="m-200.54,535.89,34.2,0,0-74.25-34.2,0,0,74.25z" fill-rule="evenodd" fill="#C00"/>
<path id="path48753" stroke-linejoin="miter" d="m-200.54,535.89,34.2,0,0-74.25-34.2,0,0,74.25z" stroke="#000" stroke-linecap="butt" stroke-miterlimit="8" stroke-dasharray="none" stroke-width="1.5" fill="none"/>
<path id="path48755" d="m-194.09,499.22c0-5.425,4.875-9.825,10.875-9.825s10.875,4.4,10.875,9.825-4.875,9.825-10.875,9.825-10.875-4.4-10.875-9.825z" fill-rule="evenodd" fill="#FFF"/>
<g id="g48757" transform="matrix(1.25,0,0,-1.25,-855.59126,697.14143)">
<g id="g48759" clip-path="url(#clipPath48761)">
<text id="text48765" transform="matrix(1,0,0,-1,533.23,152.71)">
<tspan id="tspan48767" style="writing-mode:lr-tb;" font-weight="normal" fill-rule="nonzero" font-size="15.96000004px" font-variant="normal" y="0" x="0" font-family="Arial" fill="#000000">4</tspan>
</text>
</g>
</g>
<path id="path48769" d="m-95.991,536.79,34.2,0,0-74.4-34.2,0,0,74.4z" fill-rule="evenodd" fill="#063"/>
<path id="path48771" stroke-linejoin="miter" d="m-95.991,536.79,34.2,0,0-74.4-34.2,0,0,74.4z" stroke="#000" stroke-linecap="butt" stroke-miterlimit="8" stroke-dasharray="none" stroke-width="1.5" fill="none"/>
<path id="path48773" d="m-89.691,500.04c0-5.4625,4.875-9.9,10.875-9.9s10.875,4.4375,10.875,9.9-4.875,9.9-10.875,9.9-10.875-4.4375-10.875-9.9z" fill-rule="evenodd" fill="#FFF"/>
<g id="g48775" transform="matrix(1.25,0,0,-1.25,-855.59126,697.14143)">
<g id="g48777" clip-path="url(#clipPath48779)">
<text id="text48783" transform="matrix(1,0,0,-1,616.87,152.04)">
<tspan id="tspan48785" style="writing-mode:lr-tb;" font-weight="normal" fill-rule="nonzero" font-size="15.96000004px" font-variant="normal" y="0" x="0" font-family="Arial" fill="#000000">5</tspan>
</text>
</g>
</g>
<path id="path48787" d="m-95.091,422.83,0.9875,29.588-2.2375,0.075-1-29.588,2.25-0.075zm3.575,28.25-3.5,7.6125-4-7.3625,7.5-0.25z" fill-rule="nonzero" fill="#063"/>
<path id="path48789" d="m-106.79,411.39c0-5.4625,4.8375-9.9,10.8-9.9s10.8,4.4375,10.8,9.9-4.8375,9.9-10.8,9.9-10.8-4.4375-10.8-9.9z" fill-rule="evenodd" fill="#FFF"/>
<path id="path48791" stroke-linejoin="round" d="m-106.79,411.39c0-5.4625,4.8375-9.9,10.8-9.9s10.8,4.4375,10.8,9.9-4.8375,9.9-10.8,9.9-10.8-4.4375-10.8-9.9z" stroke="#063" stroke-linecap="butt" stroke-miterlimit="8" stroke-dasharray="none" stroke-width="1.5" fill="none"/>
<g id="g48793" transform="matrix(1.25,0,0,-1.25,-855.59126,697.14143)">
<g id="g48795" clip-path="url(#clipPath48797)">
<text id="text48801" transform="matrix(1,0,0,-1,602.81,223.34)">
<tspan id="tspan48803" style="writing-mode:lr-tb;" font-weight="normal" fill-rule="nonzero" font-size="15.96000004px" font-variant="normal" y="0" x="0" font-family="Arial" fill="#000000">5</tspan>
</text>
</g>
</g>
<path id="path48805" d="m-61.191,538.33,0.9875,29.562-2.2375,0.075-1-29.562,2.25-0.075zm3.575,28.225-3.5,7.6175-4-7.3675,7.5-0.25z" fill-rule="nonzero" fill="#063"/>
<path id="path48807" d="m-71.541,589.07c0-5.4262,4.875-9.825,10.875-9.825s10.875,4.3988,10.875,9.825-4.875,9.825-10.875,9.825-10.875-4.3988-10.875-9.825z" fill-rule="evenodd" fill="#FFF"/>
<path id="path48809" stroke-linejoin="round" d="m-71.541,589.07c0-5.4262,4.875-9.825,10.875-9.825s10.875,4.3988,10.875,9.825-4.875,9.825-10.875,9.825-10.875-4.3988-10.875-9.825z" stroke="#063" stroke-linecap="butt" stroke-miterlimit="8" stroke-dasharray="none" stroke-width="1.5" fill="none"/>
<g id="g48811" transform="matrix(1.25,0,0,-1.25,-855.59126,697.14143)">
<g id="g48813" clip-path="url(#clipPath48815)">
<text id="text48819" transform="matrix(1,0,0,-1,631.06,81.12)">
<tspan id="tspan48821" style="writing-mode:lr-tb;" font-weight="normal" fill-rule="nonzero" font-size="15.96000004px" font-variant="normal" y="0" x="0" font-family="Arial" fill="#000000">5</tspan>
</text>
</g>
</g>
<path id="path48823" d="m-291.44,394.94,1.1,58.125-2.25,0.05-1.1-58.125,2.25-0.05zm3.7,56.825-3.6,7.575-3.9-7.4375,7.5-0.1375z" fill-rule="nonzero" fill="#063"/>
<path id="path48825" d="m-303.14,384.62c0-5.425,4.875-9.825,10.875-9.825s10.875,4.4,10.875,9.825-4.875,9.825-10.875,9.825-10.875-4.4-10.875-9.825z" fill-rule="evenodd" fill="#FFF"/>
<path id="path48827" stroke-linejoin="round" d="m-303.14,384.62c0-5.425,4.875-9.825,10.875-9.825s10.875,4.4,10.875,9.825-4.875,9.825-10.875,9.825-10.875-4.4-10.875-9.825z" stroke="#063" stroke-linecap="butt" stroke-miterlimit="8" stroke-dasharray="none" stroke-width="1.5" fill="none"/>
<g id="g48829" transform="matrix(1.25,0,0,-1.25,-855.59126,697.14143)">
<g id="g48831" clip-path="url(#clipPath48833)">
<text id="text48837" transform="matrix(1,0,0,-1,446.4,244.73)">
<tspan id="tspan48839" style="writing-mode:lr-tb;" font-weight="normal" fill-rule="nonzero" font-size="15.96000004px" font-variant="normal" y="0" x="0" font-family="Arial" fill="#000000">2</tspan>
</text>
</g>
</g>
<path id="path48841" d="m-199.94,538.63,0.9875,29.488-2.2375,0.075-1-29.488,2.25-0.075zm3.575,28.15-3.5,7.6262-4-7.3762,7.5-0.25z" fill-rule="nonzero" fill="#063"/>
<path id="path48843" d="m-210.44,589.14c0-5.4675,4.875-9.9,10.875-9.9s10.875,4.4325,10.875,9.9-4.875,9.9-10.875,9.9-10.875-4.4325-10.875-9.9z" fill-rule="evenodd" fill="#FFF"/>
<path id="path48845" stroke-linejoin="round" d="m-210.44,589.14c0-5.4675,4.875-9.9,10.875-9.9s10.875,4.4325,10.875,9.9-4.875,9.9-10.875,9.9-10.875-4.4325-10.875-9.9z" stroke="#063" stroke-linecap="butt" stroke-miterlimit="8" stroke-dasharray="none" stroke-width="1.5" fill="none"/>
<g id="g48847" transform="matrix(1.25,0,0,-1.25,-855.59126,697.14143)">
<g id="g48849" clip-path="url(#clipPath48851)">
<text id="text48855" transform="matrix(1,0,0,-1,520.54,81.072)">
<tspan id="tspan48857" style="writing-mode:lr-tb;" font-weight="normal" fill-rule="nonzero" font-size="15.96000004px" font-variant="normal" y="0" x="0" font-family="Arial" fill="#000000">2</tspan>
</text>
</g>
</g>
<path id="path48859" d="m-305.54,422.98,0.9875,29.55-2.2375,0.075-1-29.55,2.25-0.075zm3.575,28.212-3.5,7.6125-4-7.3625,7.5-0.25z" fill-rule="nonzero" fill="#C00"/>
<path id="path48861" d="m-316.94,413.12c0-5.425,4.8375-9.825,10.8-9.825s10.8,4.4,10.8,9.825-4.8375,9.825-10.8,9.825-10.8-4.4-10.8-9.825z" fill-rule="evenodd" fill="#FFF"/>
<path id="path48863" stroke-linejoin="round" d="m-316.94,413.12c0-5.425,4.8375-9.825,10.8-9.825s10.8,4.4,10.8,9.825-4.8375,9.825-10.8,9.825-10.8-4.4-10.8-9.825z" stroke="#C00" stroke-linecap="butt" stroke-miterlimit="8" stroke-dasharray="none" stroke-width="1.5" fill="none"/>
<g id="g48865" transform="matrix(1.25,0,0,-1.25,-855.59126,697.14143)">
<g id="g48867" clip-path="url(#clipPath48869)">
<text id="text48873" transform="matrix(1,0,0,-1,434.64,221.98)">
<tspan id="tspan48875" style="writing-mode:lr-tb;" font-weight="normal" fill-rule="nonzero" font-size="15.96000004px" font-variant="normal" y="0" x="0" font-family="Arial" fill="#000000">1</tspan>
</text>
</g>
</g>
<path id="path48877" d="m-268.64,539.23,0.9875,29.562-2.2375,0.075-1-29.562,2.25-0.075zm3.575,28.225-3.5,7.625-4-7.375,7.5-0.25z" fill-rule="nonzero" fill="#C00"/>
<path id="path48879" d="m-279.29,588.32c0-5.4262,4.8375-9.825,10.8-9.825s10.8,4.3988,10.8,9.825-4.8375,9.825-10.8,9.825-10.8-4.3988-10.8-9.825z" fill-rule="evenodd" fill="#FFF"/>
<path id="path48881" stroke-linejoin="round" d="m-279.29,588.32c0-5.4262,4.8375-9.825,10.8-9.825s10.8,4.3988,10.8,9.825-4.8375,9.825-10.8,9.825-10.8-4.3988-10.8-9.825z" stroke="#C00" stroke-linecap="butt" stroke-miterlimit="8" stroke-dasharray="none" stroke-width="1.5" fill="none"/>
<g id="g48883" transform="matrix(1.25,0,0,-1.25,-855.59126,697.14143)">
<g id="g48885" clip-path="url(#clipPath48887)">
<text id="text48891" transform="matrix(1,0,0,-1,464.78,81.744)">
<tspan id="tspan48893" style="writing-mode:lr-tb;" font-weight="normal" fill-rule="nonzero" font-size="15.96000004px" font-variant="normal" y="0" x="0" font-family="Arial" fill="#000000">1</tspan>
</text>
</g>
</g>
<path id="path48895" d="m-278.84,424.63,0.9875,29.538-2.2375,0.075-1-29.538,2.25-0.075zm3.575,28.2-3.5,7.625-4-7.375,7.5-0.25z" fill-rule="nonzero" fill="#C00"/>
<path id="path48897" d="m-290.09,414.62c0-5.425,4.8375-9.825,10.8-9.825s10.8,4.4,10.8,9.825-4.8375,9.825-10.8,9.825-10.8-4.4-10.8-9.825z" fill-rule="evenodd" fill="#FFF"/>
<path id="path48899" stroke-linejoin="round" d="m-290.09,414.62c0-5.425,4.8375-9.825,10.8-9.825s10.8,4.4,10.8,9.825-4.8375,9.825-10.8,9.825-10.8-4.4-10.8-9.825z" stroke="#C00" stroke-linecap="butt" stroke-miterlimit="8" stroke-dasharray="none" stroke-width="1.5" fill="none"/>
<g id="g48901" transform="matrix(1.25,0,0,-1.25,-855.59126,697.14143)">
<g id="g48903" clip-path="url(#clipPath48905)">
<text id="text48909" transform="matrix(1,0,0,-1,456.77,220.73)">
<tspan id="tspan48911" style="writing-mode:lr-tb;" font-weight="normal" fill-rule="nonzero" font-size="15.96000004px" font-variant="normal" y="0" x="0" font-family="Arial" fill="#000000">3</tspan>
</text>
</g>
</g>
<path id="path48913" d="m-234.29,538.78,0.9875,29.512-2.2375,0.075-1-29.512,2.25-0.075zm3.575,28.175-3.5,7.6188-4-7.3688,7.5-0.25z" fill-rule="nonzero" fill="#C00"/>
<path id="path48915" d="m-244.79,588.77c0-5.4262,4.875-9.825,10.875-9.825s10.875,4.3988,10.875,9.825-4.875,9.825-10.875,9.825-10.875-4.3988-10.875-9.825z" fill-rule="evenodd" fill="#FFF"/>
<path id="path48917" stroke-linejoin="round" d="m-244.79,588.77c0-5.4262,4.875-9.825,10.875-9.825s10.875,4.3988,10.875,9.825-4.875,9.825-10.875,9.825-10.875-4.3988-10.875-9.825z" stroke="#C00" stroke-linecap="butt" stroke-miterlimit="8" stroke-dasharray="none" stroke-width="1.5" fill="none"/>
<g id="g48919" transform="matrix(1.25,0,0,-1.25,-855.59126,697.14143)">
<g id="g48921" clip-path="url(#clipPath48923)">
<text id="text48927" transform="matrix(1,0,0,-1,493.03,81.336)">
<tspan id="tspan48929" style="writing-mode:lr-tb;" font-weight="normal" fill-rule="nonzero" font-size="15.96000004px" font-variant="normal" y="0" x="0" font-family="Arial" fill="#000000">3</tspan>
</text>
</g>
</g>
<path id="path48931" d="m-165.59,537.58,1,29.462-2.25,0.075-1-29.462,2.25-0.075zm3.575,28.125-3.4875,7.6238-4-7.3738,7.4875-0.25z" fill-rule="nonzero" fill="#C00"/>
<path id="path48933" d="m-176.24,588.62c0-5.4262,4.9-9.825,10.95-9.825s10.95,4.3988,10.95,9.825-4.9,9.825-10.95,9.825-10.95-4.3988-10.95-9.825z" fill-rule="evenodd" fill="#FFF"/>
<path id="path48935" stroke-linejoin="round" d="m-176.24,588.62c0-5.4262,4.9-9.825,10.95-9.825s10.95,4.3988,10.95,9.825-4.9,9.825-10.95,9.825-10.95-4.3988-10.95-9.825z" stroke="#C00" stroke-linecap="butt" stroke-miterlimit="8" stroke-dasharray="none" stroke-width="1.5" fill="none"/>
<g id="g48937" transform="matrix(1.25,0,0,-1.25,-855.59126,697.14143)">
<g id="g48939" clip-path="url(#clipPath48941)">
<text id="text48945" transform="matrix(1,0,0,-1,547.92,81.432)">
<tspan id="tspan48947" style="writing-mode:lr-tb;" font-weight="normal" fill-rule="nonzero" font-size="15.96000004px" font-variant="normal" y="0" x="0" font-family="Arial" fill="#000000">4</tspan>
</text>
</g>
</g>
<path id="path48949" d="m-216.59,423.13,0.9875,29.588-2.2375,0.075-1-29.588,2.25-0.075zm3.575,28.25-3.5,7.625-4-7.375,7.5-0.25z" fill-rule="nonzero" fill="#C00"/>
<path id="path48951" d="m-228.89,412.59c0-5.4625,4.875-9.9,10.875-9.9s10.875,4.4375,10.875,9.9-4.875,9.9-10.875,9.9-10.875-4.4375-10.875-9.9z" fill-rule="evenodd" fill="#FFF"/>
<path id="path48953" stroke-linejoin="round" d="m-228.89,412.59c0-5.4625,4.875-9.9,10.875-9.9s10.875,4.4375,10.875,9.9-4.875,9.9-10.875,9.9-10.875-4.4375-10.875-9.9z" stroke="#C00" stroke-linecap="butt" stroke-miterlimit="8" stroke-dasharray="none" stroke-width="1.5" fill="none"/>
<g id="g48955" transform="matrix(1.25,0,0,-1.25,-855.59126,697.14143)">
<g id="g48957" clip-path="url(#clipPath48959)">
<text id="text48963" transform="matrix(1,0,0,-1,505.78,222.34)">
<tspan id="tspan48965" style="writing-mode:lr-tb;" font-weight="normal" fill-rule="nonzero" font-size="15.96000004px" font-variant="normal" y="0" x="0" font-family="Arial" fill="#000000">4</tspan>
</text>
</g>
</g>
<g id="g48967" transform="matrix(1.25,0,0,-1.25,-855.59126,697.14143)">
<g id="g48969" clip-path="url(#clipPath48971)">
<text id="text48975" transform="matrix(1,0,0,-1,380.76,202.87)">
<tspan id="tspan48977" style="writing-mode:lr-tb;" font-weight="normal" fill-rule="nonzero" font-size="14.03999996px" font-style="italic" font-variant="normal" y="0" x="0 7.8062401 12.48156 17.156879 20.27376 27.34992 35.156158 38.273041" font-family="Arial" fill="#000000">arrivals</tspan>
</text>
</g>
</g>
<g id="g48979" transform="matrix(1.25,0,0,-1.25,-855.59126,697.14143)">
<g id="g48981" clip-path="url(#clipPath48983)">
<text id="text48987" transform="matrix(1,0,0,-1,382.63,108.48)">
<tspan id="tspan48989" style="writing-mode:lr-tb;" font-weight="normal" fill-rule="nonzero" font-size="14.03999996px" font-style="italic" font-variant="normal" y="0" x="0 7.8062401 15.61248 23.41872 31.22496 35.90028 39.803398 47.609638 52.200722 60.006962" font-family="Arial" fill="#000000">departures</tspan>
</text>
</g>
</g>
<g id="g48991" transform="matrix(1.25,0,0,-1.25,-855.59126,697.14143)">
<g id="g48993" clip-path="url(#clipPath48995)">
<text id="text48999" transform="matrix(1,0,0,-1,390.31,166.85)">
<tspan id="tspan49001" style="writing-mode:lr-tb;" font-weight="normal" fill-rule="nonzero" font-size="14.03999996px" font-style="italic" font-variant="normal" y="0" x="0 7.8062401 15.61248 22.660561 29.722679 37.528919 41.474159" font-family="Arial" fill="#000000">packet</tspan>
</text>
</g>
</g>
<g id="g49003" transform="matrix(1.25,0,0,-1.25,-855.59126,697.14143)">
<g id="g49005" clip-path="url(#clipPath49007)">
<text id="text49011" transform="matrix(1,0,0,-1,405.58,153.89)">
<tspan id="tspan49013" style="writing-mode:lr-tb;" font-weight="normal" fill-rule="nonzero" font-size="14.03999996px" font-style="italic" font-variant="normal" y="0" x="0 3.1199999 10.92936" font-family="Arial" fill="#000000">in</tspan>
</text>
</g>
</g>
<g id="g49015" transform="matrix(1.25,0,0,-1.25,-855.59126,697.14143)">
<g id="g49017" clip-path="url(#clipPath49019)">
<text id="text49023" transform="matrix(1,0,0,-1,388.75,140.93)">
<tspan id="tspan49025" style="writing-mode:lr-tb;" font-weight="normal" fill-rule="nonzero" font-size="14.06400013px" font-style="italic" font-variant="normal" y="0" x="0 7.0601282 14.879712 19.563025 26.595024 29.717232 36.805489" font-family="Arial" fill="#000000">service</tspan>
</text>
</g>
</g>
</g>
</svg>
