<!-- Created with Inkscape (http://www.inkscape.org/) -->
<svg id="svg3671" xmlns:rdf="http://www.w3.org/1999/02/22-rdf-syntax-ns#" xmlns="http://www.w3.org/2000/svg" height="251.97" width="424.16" version="1.1" xmlns:cc="http://creativecommons.org/ns#" xmlns:xlink="http://www.w3.org/1999/xlink" xmlns:dc="http://purl.org/dc/elements/1.1/">
<defs id="defs3673">
<clipPath id="clipPath55940" clipPathUnits="userSpaceOnUse">
<path id="path55942" clip-rule="evenodd" d="M0.000010729,0,720,0v540h-720v-540z"/>
</clipPath>
<clipPath id="clipPath55918" clipPathUnits="userSpaceOnUse">
<path id="path55920" clip-rule="evenodd" d="M0.000010729,0,720,0v540h-720v-540z"/>
</clipPath>
<clipPath id="clipPath55906" clipPathUnits="userSpaceOnUse">
<path id="path55908" clip-rule="evenodd" d="M0.000010729,0,720,0v540h-720v-540z"/>
</clipPath>
<clipPath id="clipPath55838" clipPathUnits="userSpaceOnUse">
<path id="path55840" clip-rule="evenodd" d="M0.000010729,0,720,0v540h-720v-540z"/>
</clipPath>
<clipPath id="clipPath55826" clipPathUnits="userSpaceOnUse">
<path id="path55828" clip-rule="evenodd" d="M0.000010729,0,720,0v540h-720v-540z"/>
</clipPath>
</defs>
<metadata id="metadata3676">
<rdf:RDF>
<cc:Work rdf:about="">
<dc:format>image/svg+xml</dc:format>
<dc:type rdf:resource="http://purl.org/dc/dcmitype/StillImage"/>
<dc:title/>
</cc:Work>
</rdf:RDF>
</metadata>
<g id="layer1" transform="translate(516.53842,-192)">
<g id="g55822" transform="matrix(1.25,0,0,-1.25,-801.1277,648.89464)">
<g id="g55824" clip-path="url(#clipPath55826)">
<text id="text55830" transform="matrix(1,0,0,-1,349.37,163.94)">
<tspan id="tspan55832" style="writing-mode:lr-tb;" font-weight="normal" fill-rule="nonzero" font-size="24px" font-style="italic" font-variant="normal" y="0" x="0" font-family="Arial" fill="#000099">:</tspan>
</text>
</g>
</g>
<g id="g55834" transform="matrix(1.25,0,0,-1.25,-801.1277,648.89464)">
<g id="g55836" clip-path="url(#clipPath55838)">
<text id="text55842" transform="matrix(1,0,0,-1,226.37,211.63)">
<tspan id="tspan55844" style="writing-mode:lr-tb;" font-weight="normal" fill-rule="nonzero" font-size="20.04000092px" font-variant="normal" y="0" x="0 11.14224 21.222361 32.364601 39.077999 44.348518 55.490761 66.633003 76.733162 86.753159 97.955521 103.52664" font-family="Arial" fill="#000000">user packets</tspan>
</text>
</g>
</g>
<path id="path55846" d="m-160.48,354.74,22.5,0,0-15-22.5,0,0,15z" fill-rule="evenodd" fill="#0C0"/>
<path id="path55848" stroke-linejoin="miter" d="m-160.48,354.74,22.5,0,0-15-22.5,0,0,15z" stroke="#000" stroke-linecap="butt" stroke-miterlimit="10" stroke-dasharray="none" stroke-width="1.19999993" fill="none"/>
<path id="path55850" d="m-122.98,354.74,22.5,0,0-15-22.5,0,0,15z" fill-rule="evenodd" fill="#0C0"/>
<path id="path55852" stroke-linejoin="miter" d="m-122.98,354.74,22.5,0,0-15-22.5,0,0,15z" stroke="#000" stroke-linecap="butt" stroke-miterlimit="10" stroke-dasharray="none" stroke-width="1.19999993" fill="none"/>
<path id="path55854" d="m-115.48,437.24,22.5,0,0-15-22.5,0,0,15z" fill-rule="evenodd" fill="#F00"/>
<path id="path55856" stroke-linejoin="miter" d="m-115.48,437.24,22.5,0,0-15-22.5,0,0,15z" stroke="#000" stroke-linecap="butt" stroke-miterlimit="10" stroke-dasharray="none" stroke-width="1.19999993" fill="none"/>
<path id="path55858" d="m-152.98,437.24,22.5,0,0-15-22.5,0,0,15z" fill-rule="evenodd" fill="#F00"/>
<path id="path55860" stroke-linejoin="miter" d="m-152.98,437.24,22.5,0,0-15-22.5,0,0,15z" stroke="#000" stroke-linecap="butt" stroke-miterlimit="10" stroke-dasharray="none" stroke-width="1.19999993" fill="none"/>
<path id="path55862" d="m-190.48,437.24,22.5,0,0-15-22.5,0,0,15z" fill-rule="evenodd" fill="#F00"/>
<path id="path55864" stroke-linejoin="miter" d="m-190.48,437.24,22.5,0,0-15-22.5,0,0,15z" stroke="#000" stroke-linecap="butt" stroke-miterlimit="10" stroke-dasharray="none" stroke-width="1.19999993" fill="none"/>
<path id="path55866" stroke-linejoin="round" d="m-242.9,279.82,0,67.5" stroke="#000" stroke-linecap="butt" stroke-miterlimit="10" stroke-dasharray="none" stroke-width="2.8499999" fill="none"/>
<path id="path55868" stroke-linejoin="round" d="m-242.9,347.32,45,0" stroke="#000" stroke-linecap="butt" stroke-miterlimit="10" stroke-dasharray="none" stroke-width="2.8499999" fill="none"/>
<path id="path55870" stroke-linejoin="round" d="m-197.9,347.32,0-67.5" stroke="#000" stroke-linecap="butt" stroke-miterlimit="10" stroke-dasharray="none" stroke-width="2.8499999" fill="none"/>
<path id="path55872" d="m-235.48,377.24c0-8.2875,6.7125-15,15-15s15,6.7125,15,15-6.7125,15-15,15-15-6.7125-15-15z" fill-rule="evenodd" fill="#CCF"/>
<path id="path55874" stroke-linejoin="round" d="m-235.48,377.24c0-8.2875,6.7125-15,15-15s15,6.7125,15,15-6.7125,15-15,15-15-6.7125-15-15z" stroke="#000" stroke-linecap="butt" stroke-miterlimit="10" stroke-dasharray="none" stroke-width="1.19999993" fill="none"/>
<path id="path55876" d="m-355.4,375.89,108.22,0,0,2.85-108.22,0,0-2.85zm106.8-1.425,5.7,2.85-5.7,2.85,0-5.7z" fill-rule="nonzero" fill="#000"/>
<path id="path55878" d="m-347.98,362.24,22.5,0,0-15-22.5,0,0,15z" fill-rule="evenodd" fill="#FFF"/>
<path id="path55880" stroke-linejoin="miter" d="m-347.98,362.24,22.5,0,0-15-22.5,0,0,15z" stroke="#000" stroke-linecap="butt" stroke-miterlimit="8" stroke-dasharray="none" stroke-width="1.19999993" fill="none"/>
<path id="path55882" d="m-310.48,362.24,22.5,0,0-15-22.5,0,0,15z" fill-rule="evenodd" fill="#FFF"/>
<path id="path55884" stroke-linejoin="miter" d="m-310.48,362.24,22.5,0,0-15-22.5,0,0,15z" stroke="#000" stroke-linecap="butt" stroke-miterlimit="8" stroke-dasharray="none" stroke-width="1.19999993" fill="none"/>
<path id="path55886" d="m-227.98,279.74c0-4.1375,3.3625-7.5,7.5-7.5s7.5,3.3625,7.5,7.5-3.3625,7.5-7.5,7.5-7.5-3.3625-7.5-7.5z" fill-rule="evenodd" fill="#0C0"/>
<path id="path55888" stroke-linejoin="round" d="m-227.98,279.74c0-4.1375,3.3625-7.5,7.5-7.5s7.5,3.3625,7.5,7.5-3.3625,7.5-7.5,7.5-7.5-3.3625-7.5-7.5z" stroke="#000" stroke-linecap="butt" stroke-miterlimit="8" stroke-dasharray="none" stroke-width="1.19999993" fill="none"/>
<path id="path55890" d="m-227.98,302.24c0-4.1375,3.3625-7.5,7.5-7.5s7.5,3.3625,7.5,7.5-3.3625,7.5-7.5,7.5-7.5-3.3625-7.5-7.5z" fill-rule="evenodd" fill="#0C0"/>
<path id="path55892" stroke-linejoin="round" d="m-227.98,302.24c0-4.1375,3.3625-7.5,7.5-7.5s7.5,3.3625,7.5,7.5-3.3625,7.5-7.5,7.5-7.5-3.3625-7.5-7.5z" stroke="#000" stroke-linecap="butt" stroke-miterlimit="8" stroke-dasharray="none" stroke-width="1.19999993" fill="none"/>
<path id="path55894" d="m-227.98,332.24c0-4.1375,3.3625-7.5,7.5-7.5s7.5,3.3625,7.5,7.5-3.3625,7.5-7.5,7.5-7.5-3.3625-7.5-7.5z" fill-rule="evenodd" fill="#0C0"/>
<path id="path55896" stroke-linejoin="round" d="m-227.98,332.24c0-4.1375,3.3625-7.5,7.5-7.5s7.5,3.3625,7.5,7.5-3.3625,7.5-7.5,7.5-7.5-3.3625-7.5-7.5z" stroke="#000" stroke-linecap="butt" stroke-miterlimit="8" stroke-dasharray="none" stroke-width="1.19999993" fill="none"/>
<path id="path55898" stroke-linejoin="round" d="m-242.9,279.82,0-37.5" stroke="#000" stroke-linecap="butt" stroke-miterlimit="8" stroke-dasharray="none" stroke-width="2.54999995" fill="none"/>
<path id="path55900" stroke-linejoin="round" d="m-197.9,279.82,0-37.5" stroke="#000" stroke-linecap="butt" stroke-miterlimit="8" stroke-dasharray="none" stroke-width="2.54999995" fill="none"/>
<g id="g55902" transform="matrix(1.25,0,0,-1.25,-801.1277,648.89464)">
<g id="g55904" clip-path="url(#clipPath55906)">
<text id="text55910" transform="matrix(1,0,0,-1,404.02,337.66)">
<tspan id="tspan55912" style="writing-mode:lr-tb;" font-weight="normal" fill-rule="nonzero" font-size="20.04000092px" font-variant="normal" y="0" x="0 6.6733198 17.85564 23.42676 34.569" font-family="Arial" fill="#000000">rate</tspan>
</text>
</g>
</g>
<g id="g55914" transform="matrix(1.25,0,0,-1.25,-801.1277,648.89464)">
<g id="g55916" clip-path="url(#clipPath55918)">
<text id="text55922" transform="matrix(1,0,0,-1,443.86,337.66)">
<tspan id="tspan55924" style="writing-mode:lr-tb;" font-weight="normal" fill-rule="nonzero" font-size="20.04000092px" font-style="italic" font-variant="normal" y="0" x="0" font-family="Arial" fill="#000000">r</tspan>
</text>
</g>
</g>
<path id="path55926" d="m-190.12,391.08,93.775,21.638-0.575,2.4875-93.775-21.65,0.575-2.475zm92.813,20.1,4.4,3.6375-5.5375,1.3375,1.1375-4.975z" fill-rule="nonzero" fill="#F00"/>
<path id="path55928" d="m-190.22,378.58,93.725-14.425-0.3875-2.5125-93.725,14.412,0.3875,2.525zm92.663-12.962,4.65-3.3-5.425-1.75,0.775,5.05z" fill-rule="nonzero" fill="#008000"/>
<path id="path55930" d="m-232.78,241.79,5.325,0,0-49.35,10.65,0,0,49.35,5.325,0-10.65,10.65-10.65-10.65z" fill-rule="evenodd" fill="#0C0"/>
<path id="path55932" stroke-linejoin="miter" d="m-232.78,241.79,5.325,0,0-49.35,10.65,0,0,49.35,5.325,0-10.65,10.65-10.65-10.65z" stroke="#000" stroke-linecap="butt" stroke-miterlimit="8" stroke-dasharray="none" stroke-width="0.90000004" fill="none"/>
<path id="path55934" stroke-linejoin="round" d="m-257.98,258.44,75,0" stroke="#000" stroke-linecap="butt" stroke-miterlimit="8" stroke-dasharray="none" stroke-width="0.90000004" fill="none"/>
<g id="g55936" transform="matrix(1.25,0,0,-1.25,-801.1277,648.89464)">
<g id="g55938" clip-path="url(#clipPath55940)">
<text id="text55944" transform="matrix(1,0,0,-1,399.77,272.28)">
<tspan id="tspan55946" style="writing-mode:lr-tb;" font-weight="normal" fill-rule="nonzero" font-size="20.06399918px" font-variant="normal" y="0" x="0" font-family="Arial" fill="#000000">b</tspan>
</text>
</g>
</g>
<path id="path55948" d="m-256.03,268.53,0,75.075-3.75,0,0-75.075,3.75,0zm-10.062,10.3,8.1875-14.025,8.1875,14.025c0.5125,0.9,0.2125,2.05-0.675,2.575-0.9,0.5125-2.05,0.2125-2.575-0.675l-6.5625-11.25h3.25l-6.5625,11.25c-0.525,0.8875-1.675,1.1875-2.575,0.675-0.8875-0.525-1.1875-1.675-0.675-2.575zm16.375,54.475-8.1875,14.025-8.1875-14.025c-0.5125-0.9-0.2125-2.05,0.675-2.575,0.9-0.5125,2.05-0.2125,2.575,0.675l6.5625,11.25h-3.25l6.5625-11.25c0.525-0.8875,1.675-1.1875,2.575-0.675,0.8875,0.525,1.1875,1.675,0.675,2.575z" fill-rule="nonzero" fill="#000"/>
</g>
</svg>
