<!-- Created with Inkscape (http://www.inkscape.org/) -->
<svg id="svg2" xmlns:rdf="http://www.w3.org/1999/02/22-rdf-syntax-ns#" xmlns="http://www.w3.org/2000/svg" xml:space="preserve" height="262.63" width="585.96" version="1.1" xmlns:cc="http://creativecommons.org/ns#" xmlns:xlink="http://www.w3.org/1999/xlink" xmlns:dc="http://purl.org/dc/elements/1.1/"><metadata id="metadata8"><rdf:RDF><cc:Work rdf:about=""><dc:format>image/svg+xml</dc:format><dc:type rdf:resource="http://purl.org/dc/dcmitype/StillImage"/><dc:title/></cc:Work></rdf:RDF></metadata><defs id="defs6"><clipPath id="clipPath74" clipPathUnits="userSpaceOnUse"><path id="path76" clip-rule="evenodd" d="M0.000010729,0,720,0v540h-720v-540z"/></clipPath><clipPath id="clipPath122" clipPathUnits="userSpaceOnUse"><path id="path124" clip-rule="evenodd" d="M0.000010729,0,720,0v540h-720v-540z"/></clipPath><clipPath id="clipPath170" clipPathUnits="userSpaceOnUse"><path id="path172" clip-rule="evenodd" d="M0.000010729,0,720,0v540h-720v-540z"/></clipPath><clipPath id="clipPath888-8" clipPathUnits="userSpaceOnUse"><path id="path890-0" clip-rule="evenodd" d="m0.000032075,0.000061035,720,0,0,540-720,0,0-540z"/></clipPath><clipPath id="clipPath898-4" clipPathUnits="userSpaceOnUse"><path id="path900-7" d="m0,0,362.37,0,0,187.54h-362.37v-187.54z"/></clipPath><clipPath id="clipPath876-3" clipPathUnits="userSpaceOnUse"><path id="path878-7" clip-rule="evenodd" d="M0.000010729,0,720,0v540h-720v-540z"/></clipPath><clipPath id="clipPath864-4" clipPathUnits="userSpaceOnUse"><path id="path866-1" clip-rule="evenodd" d="M0.000010729,0,720,0v540h-720v-540z"/></clipPath><clipPath id="clipPath852-1" clipPathUnits="userSpaceOnUse"><path id="path854-2" clip-rule="evenodd" d="M0.000010729,0,720,0v540h-720v-540z"/></clipPath><clipPath id="clipPath804-3" clipPathUnits="userSpaceOnUse"><path id="path806-5" clip-rule="evenodd" d="m-0.00002185,0.00018311,720,0,0,540-720,0,0-540z"/></clipPath><clipPath id="clipPath814-1" clipPathUnits="userSpaceOnUse"><path id="path816-8" d="m0,0,203.26,0,0,274.1h-203.26v-274.1z"/></clipPath><clipPath id="clipPath786-3" clipPathUnits="userSpaceOnUse"><path id="path788-5" clip-rule="evenodd" d="M0.000010729,0,720,0v540h-720v-540z"/></clipPath><clipPath id="clipPath774-3" clipPathUnits="userSpaceOnUse"><path id="path776-4" clip-rule="evenodd" d="M0.000010729,0,720,0v540h-720v-540z"/></clipPath><clipPath id="clipPath762-3" clipPathUnits="userSpaceOnUse"><path id="path764-2" clip-rule="evenodd" d="M0.000010729,0,720,0v540h-720v-540z"/></clipPath><clipPath id="clipPath726-2" clipPathUnits="userSpaceOnUse"><path id="path728-8" clip-rule="evenodd" d="m0.000017964,0.000061035,720,0,0,540-720,0,0-540z"/></clipPath><clipPath id="clipPath736-7" clipPathUnits="userSpaceOnUse"><path id="path738-7" d="m0,0,362.37,0,0,187.54h-362.37v-187.54z"/></clipPath><clipPath id="clipPath714-3" clipPathUnits="userSpaceOnUse"><path id="path716-8" clip-rule="evenodd" d="M0.000010729,0,720,0v540h-720v-540z"/></clipPath><clipPath id="clipPath702-6" clipPathUnits="userSpaceOnUse"><path id="path704-2" clip-rule="evenodd" d="M0.000010729,0,720,0v540h-720v-540z"/></clipPath><clipPath id="clipPath690-5" clipPathUnits="userSpaceOnUse"><path id="path692-6" clip-rule="evenodd" d="M0.000010729,0,720,0v540h-720v-540z"/></clipPath><clipPath id="clipPath678-8" clipPathUnits="userSpaceOnUse"><path id="path680-5" clip-rule="evenodd" d="M0.000010729,0,720,0v540h-720v-540z"/></clipPath><clipPath id="clipPath666-9" clipPathUnits="userSpaceOnUse"><path id="path668-2" clip-rule="evenodd" d="M0.000010729,0,720,0v540h-720v-540z"/></clipPath><clipPath id="clipPath654-2" clipPathUnits="userSpaceOnUse"><path id="path656-2" clip-rule="evenodd" d="M0.000010729,0,720,0v540h-720v-540z"/></clipPath><clipPath id="clipPath636-1" clipPathUnits="userSpaceOnUse"><path id="path638-8" clip-rule="evenodd" d="M0.000010729,0,720,0v540h-720v-540z"/></clipPath><clipPath id="clipPath624-5" clipPathUnits="userSpaceOnUse"><path id="path626-4" clip-rule="evenodd" d="M0.000010729,0,720,0v540h-720v-540z"/></clipPath><clipPath id="clipPath612-1" clipPathUnits="userSpaceOnUse"><path id="path614-9" clip-rule="evenodd" d="M0.000010729,0,720,0v540h-720v-540z"/></clipPath><clipPath id="clipPath576-0" clipPathUnits="userSpaceOnUse"><path id="path578-4" clip-rule="evenodd" d="m0.000071178,0.000061035,720,0,0,540-720,0,0-540z"/></clipPath><clipPath id="clipPath586-9" clipPathUnits="userSpaceOnUse"><path id="path588-5" d="m0,0,362.37,0,0,187.54h-362.37v-187.54z"/></clipPath><clipPath id="clipPath564-9" clipPathUnits="userSpaceOnUse"><path id="path566-5" clip-rule="evenodd" d="M0.000010729,0,720,0v540h-720v-540z"/></clipPath><clipPath id="clipPath552-9" clipPathUnits="userSpaceOnUse"><path id="path554-2" clip-rule="evenodd" d="M0.000010729,0,720,0v540h-720v-540z"/></clipPath><clipPath id="clipPath540-7" clipPathUnits="userSpaceOnUse"><path id="path542-4" clip-rule="evenodd" d="M0.000010729,0,720,0v540h-720v-540z"/></clipPath><clipPath id="clipPath528-2" clipPathUnits="userSpaceOnUse"><path id="path530-6" clip-rule="evenodd" d="M0.000010729,0,720,0v540h-720v-540z"/></clipPath><clipPath id="clipPath516-1" clipPathUnits="userSpaceOnUse"><path id="path518-8" clip-rule="evenodd" d="M0.000010729,0,720,0v540h-720v-540z"/></clipPath><clipPath id="clipPath278-6" clipPathUnits="userSpaceOnUse"><path id="path280-8" clip-rule="evenodd" d="m-0.000054219,0.00024414,720,0,0,540-720,0,0-540z"/></clipPath><clipPath id="clipPath288-0" clipPathUnits="userSpaceOnUse"><path id="path290-1" d="m0,0,143.84,0,0,114.1h-143.84v-114.1z"/></clipPath></defs><g id="g10" transform="matrix(1.25,0,0,-1.25,-38.698611,531.75964)"><g id="g70"><g id="g72" clip-path="url(#clipPath74)"><text id="text78" transform="matrix(1,0,0,-1,58.464,408.36)"><tspan id="tspan80" style="writing-mode:lr-tb;" font-weight="normal" fill-rule="nonzero" font-size="16.79999924px" font-variant="normal" y="0" x="0" font-family="Wingdings" fill="#000099"></tspan></text>
</g></g><g id="g118"><g id="g120" clip-path="url(#clipPath122)"><text id="text126" transform="matrix(1,0,0,-1,94.464,373.78)"><tspan id="tspan128" style="writing-mode:lr-tb;" font-weight="normal" fill-rule="nonzero" font-size="24px" font-variant="normal" y="0" x="0" font-family="Wingdings" fill="#000099"></tspan></text>
</g></g><g id="g166"><g id="g168" clip-path="url(#clipPath170)"><text id="text174" transform="matrix(1,0,0,-1,94.464,339.22)"><tspan id="tspan176" style="writing-mode:lr-tb;" font-weight="normal" fill-rule="nonzero" font-size="24px" font-variant="normal" y="0" x="0" font-family="Wingdings" fill="#000099"></tspan></text>
</g></g><g id="g274" transform="translate(-91.801111,146.36002)"><g id="g276" clip-path="url(#clipPath278-6)"><g id="g282" transform="matrix(1.025,0,0,0.81333,329.16,68.64)"><g id="g284" transform="scale(0.50055,0.63104)"><g id="g286" clip-path="url(#clipPath288-0)"><g id="g292"><g id="g294"/><path id="path298" d="m1.4976,0.5902,0,20.392,1.3748,0.721,0.3619,34.011-1.7367,0-1.8091,1.369,0,2.81,3.1839,2.162,0,2.81-1.3748,2.09,0.5789,2.089,1.4472,1.441,0.3618,1.946,38.568,13.835,0,0.144,0.145,0.36,0.217,0.649,0.217,0.72,0.434,0.865,0.435,0.937,0.651,0.936,0.723,0.865,0.796,0.865,1.014,0.72,1.085,0.505,1.302,0.36,1.448,0.072,1.592-0.216,1.809-0.576,1.953-1.009,62.525,21.907,21.7-40.426,0.44-4.107,2.02-3.027,0-1.297-1.73-1.729,0-21.833,1.73-2.45,0-3.315-1.73-1.369,0.29-6.053,1.44-1.729l0.73-18.014-14.47-5.2602-127.72-3.1705z" fill-rule="evenodd" fill="#000"/><path id="path300" d="m4.1026,2.6799,0,19.671,1.3749,0.721,0.3618,32.642-1.7367,0-1.6643,1.369,0,2.738,3.0392,2.018,0,2.666-1.3749,2.089,0.7236,2.018,1.3749,1.297,0.1447,1.657,37.194,13.547,0,0.144,0.072,0.36,0.145,0.505,0.217,0.72,0.289,0.793,0.362,0.793,0.507,0.864,0.579,0.793,0.723,0.792,0.869,0.649,1.013,0.432,1.157,0.289,1.303,0.072,1.52-0.289,1.664-0.576,1.881-0.937,61.579,21.833,20.48-39.126,0.29-3.892,2.75-0.72,0-2.738-2.46-2.306,0-21.041,1.74-2.306,0-3.242-1.74-1.441,0.43-5.693,1.31-1.657,0.72-17.294l-13.97-5.1157-122.87-3.0984z" fill-rule="evenodd" fill="#ffe5b2"/><path id="path302" d="m112.21,25.954-0.14,0.793-0.22,0.792-0.36,0.649-0.44,0.576-0.5,0.433-0.51,0.36-0.58,0.216-0.51,0-0.5-0.144-0.44-0.288-0.43-0.432-0.36-0.505-0.29-0.648-0.22-0.721-0.14-0.793-0.08-0.792,0,0,0.29-12.682,5.79,0.288-0.36,12.898z" fill-rule="evenodd" fill="#000"/><path id="path304" d="M91.733,4.2651,91.299,25.09,82.688,24.513,83.194,4.0489,91.733,4.2651z" fill-rule="evenodd" fill="#000"/><path id="path306" d="M71.761,3.6887,71.327,23.576,63.873,23.072,64.308,3.5445,71.761,3.6887z" fill-rule="evenodd" fill="#000"/><path id="path308" d="m55.624,17.74,0,0.072,0,0.072,0,0,0,0.072,0,0.072,0,0-0.217,1.225-0.362,1.153-0.506,1.009-0.724,0.864-0.868,0.649-0.941,0.504-1.013,0.288-1.158,0l-1.085-0.216-1.013-0.432-0.941-0.649-0.796-0.792-0.724-0.937-0.506-1.009-0.29-1.153-0.144-1.225v-0.072-0.072-0.072-0.072-0.072-0.072-0.072l0.217-13.691,11.433,0.2882-0.362,14.124v0.072,0.072,0.072z" fill-rule="evenodd" fill="#000"/><path id="path310" d="m8.0825,16.947,0.0724,0.649,0.1447,0.576,0.2171,0.577,0.2894,0.432,0.3618,0.432,0.4342,0.288,0.5069,0.217,0.506,0.072,0.796-0.216,0.579-0.577,0.362-0.937,0.145-1.153,0,0l0.217-9.6552-4.4144-0.2162-0.2171,9.5114z" fill-rule="evenodd" fill="#000"/><path id="path312" d="M20.312,1.599,19.95,18.749,25.956,19.253,26.39,1.7431,20.312,1.599z" fill-rule="evenodd" fill="#000"/><path id="path314" d="M33.843,2.1034,33.481,20.046,39.56,20.622,39.994,2.2475,33.843,2.1034z" fill-rule="evenodd" fill="#000"/><path id="path316" d="m17.996,23.144,1.3749,0,0,37.614-1.3749,0,0-37.614z" fill-rule="evenodd" fill="#000"/><path id="path318" d="m89.924,30.566,0.5789,0,0,53.322-0.5789,0,0-53.322z" fill-rule="evenodd" fill="#000"/><path id="path320" d="m35.652,24.657,2.461-0.216,0.289,3.171,21.492,2.81,0.506-2.955,2.171,0.289,27.932,2.81-0.29,16.573-68.671-12.25,0-11.529,14.11,1.297z" fill-rule="evenodd" fill="#000"/><path id="path322" d="m89.707,50.309,0,27.959-68.599-20.104,0-20.753,68.599,12.898z" fill-rule="evenodd" fill="#000"/><path id="path324" d="m22.7,23.865,1.1578,0,0,11.961-1.1578,0,0-11.961z" fill-rule="evenodd" fill="#ffe5b2"/><path id="path326" d="m34.133,24.657,1.5196,0,0,13.619-1.5196,0,0-13.619z" fill-rule="evenodd" fill="#ffe5b2"/><path id="path328" d="m47.809,28.836,1.4472,0,0,11.745-1.4472,0,0-11.745z" fill-rule="evenodd" fill="#ffe5b2"/><path id="path330" d="m63.077,27.612,1.809,0,0,16.141-1.809,0,0-16.141z" fill-rule="evenodd" fill="#ffe5b2"/><path id="path332" d="m79.359,29.485,2.0261,0,0,16.933-2.0261,0,0-16.933z" fill-rule="evenodd" fill="#ffe5b2"/><path id="path334" d="m31.311,35.033,0.434,0.072,0.362,0.289,0.217,0.288,0.072,0.432,0,3.171-0.072,0.432-0.217,0.36-0.362,0.217-0.434,0.072,0,0-0.362-0.072-0.362-0.217-0.217-0.36-0.072-0.432,0-3.171,0.072-0.432,0.217-0.288,0.362-0.289,0.362-0.072z" fill-rule="evenodd" fill="#000"/><path id="path336" d="m43.685,37.483,1.9538,0,0,5.5484-1.9538,0,0-5.5484z" fill-rule="evenodd" fill="#000"/><path id="path338" d="m57.795,39.213,2.4603,0,0,7.4219-2.4603,0,0-7.4219z" fill-rule="evenodd" fill="#000"/><path id="path340" d="m75.524,41.735,1.6643,0,0,8.2865-1.6643,0,0-8.2865z" fill-rule="evenodd" fill="#000"/><path id="path342" d="m10.253,63.496-0.072,3.098-2.0985-0.72,0.0724-2.955,2.0981,0.577z" fill-rule="evenodd" fill="#000"/><path id="path344" d="m13.148,64.361-0.073,3.242-2.098-0.72,0.145-3.099,2.026,0.577z" fill-rule="evenodd" fill="#000"/><path id="path346" d="m16.187,65.297-0.145,3.315-2.098-0.721,0.145-3.242,2.098,0.648z" fill-rule="evenodd" fill="#000"/><path id="path348" d="m86.957,86.482,0,6.701-67.876-23.274,0.362-5.981,67.514,22.554z" fill-rule="evenodd" fill="#000"/><path id="path350" d="m21.252,63.712,0.79598,0,0,8.2865-0.79598,0,0-8.2865z" fill-rule="evenodd" fill="#ffe5b2"/><path id="path352" d="m23.93,64.865,0.79598,0,0,8.3586-0.79598,0,0-8.3586z" fill-rule="evenodd" fill="#ffe5b2"/><path id="path354" d="m26.752,65.513,0.72362,0,0,8.6468-0.72362,0,0-8.6468z" fill-rule="evenodd" fill="#ffe5b2"/><path id="path356" d="m29.719,66.594,0.5789,0,0,9.2233-0.5789,0,0-9.2233z" fill-rule="evenodd" fill="#ffe5b2"/><path id="path358" d="m32.686,67.459,0.65126,0,0,9.5836-0.65126,0,0-9.5836z" fill-rule="evenodd" fill="#ffe5b2"/><path id="path360" d="m35.869,68.468,0.72362,0,0,9.3674-0.72362,0,0-9.3674z" fill-rule="evenodd" fill="#ffe5b2"/><path id="path362" d="m39.56,69.909,0.72362,0,0,9.6556-0.72362,0,0-9.6556z" fill-rule="evenodd" fill="#ffe5b2"/><path id="path364" d="m43.178,71.134,0.9407,0,0,9.4394-0.9407,0,0-9.4394z" fill-rule="evenodd" fill="#ffe5b2"/><path id="path366" d="m47.158,71.854,0.79598,0,0,9.8718-0.79598,0,0-9.8718z" fill-rule="evenodd" fill="#ffe5b2"/><path id="path368" d="m51.427,73.656,0.79598,0,0,10.304-0.79598,0,0-10.304z" fill-rule="evenodd" fill="#ffe5b2"/><path id="path370" d="m54.973,75.025,0.86834,0,0,10.664-0.86834,0,0-10.664z" fill-rule="evenodd" fill="#ffe5b2"/><path id="path372" d="m59.242,76.322,1.0131,0,0,10.52-1.0131,0,0-10.52z" fill-rule="evenodd" fill="#ffe5b2"/><path id="path374" d="m63.295,77.835,0.79598,0,0,10.376-0.79598,0,0-10.376z" fill-rule="evenodd" fill="#ffe5b2"/><path id="path376" d="m67.781,79.204,0.9407,0,0,10.736-0.9407,0,0-10.736z" fill-rule="evenodd" fill="#ffe5b2"/><path id="path378" d="m72.485,80.717,1.2301,0,0,11.025-1.2301,0,0-11.025z" fill-rule="evenodd" fill="#ffe5b2"/><path id="path380" d="m77.043,82.087,1.0854,0,0,11.097-1.0854,0,0-11.097z" fill-rule="evenodd" fill="#ffe5b2"/><path id="path382" d="m82.181,83.456,1.1578,0,0,11.601-1.1578,0,0-11.601z" fill-rule="evenodd" fill="#ffe5b2"/><path id="path384" d="m109.61,94.913-0.29,8.507-15.272-5.265,0.145-7.638,15.417,4.396z" fill-rule="evenodd" fill="#000"/><path id="path386" d="m97.884,90.517,1.1578,0,0,10.664-1.1578,0,0-10.664z" fill-rule="evenodd" fill="#ffe5b2"/><path id="path388" d="m103.02,91.598,1.3749,0,0,11.529-1.3749,0,0-11.529z" fill-rule="evenodd" fill="#ffe5b2"/><path id="path390" d="m27.62,56.29,0.724,2.522-0.29,0.144-0.217,0.144-0.289,0.144-0.217,0.217-0.29,0.144-0.362,0.216-0.361,0.072-0.434,0.072-1.448,0-1.375-0.216-1.085-0.36-1.013-0.505-0.724-0.576-0.579-0.577-0.361-0.504-0.073-0.432,0.217-0.505,0.579-0.432,0.796-0.288,1.013-0.217,1.086-0.144,1.23-0.072,1.23-0.072,1.085,0,0.145,0.216,0.434,0.433,0.362,0.36,0.217,0.216z" fill-rule="evenodd" fill="#000"/><path id="path392" d="m32.396,27.612-1.085,0,0,0.072,0,0.072,0,0,0,0.072,0,29.759,0,0.288-0.145,0.289-0.145,0.216-0.217,0.288,0.217,0,0.073-0.072,0.144-0.072,0.073-0.072,0.072,0,0.362,0.072,0.289,0.288,0.145,0.36,0.072,0.505-0.072,0.432-0.145,0.433-0.289,0.216-0.362,0.144-0.289-0.144-0.29-0.216-0.217-0.433-0.072-0.432-1.809-0.433-0.073,0.217-0.144,0.144-0.218,0.144-0.144,0-0.29-0.072-0.289-0.216-0.145-0.289-0.072-0.432,0.072-0.432,0.145-0.288,0.289-0.289,0.29-0.072,0.217,0.072,0.289,0.216,0.145,0.289,0.072,0.432,0.362,0-0.217-0.216-0.217-0.216-0.072-0.361-0.073-0.288,0-29.759,0-0.072,0,0,0-0.072,0-0.072-0.651,0,0-2.811,4.559,0.072-0.145,2.739z" fill-rule="evenodd" fill="#ffe5b2"/><path id="path394" d="m25.305,59.677-1.086,0-1.013-0.216-0.868-0.289-0.724-0.36-0.579-0.36-0.434-0.432-0.289-0.433-0.145-0.36,0.434,0.072,0.434,0.144,0.507,0.072,0.579,0.072,0.579,0,0.651,0,0.723-0.072,0.724-0.072,0.651-0.072,0.29,0-0.073,0.144-0.217,0.144-0.289,0.216-0.362,0.217-0.217,0.288-0.072,0.288,0.072,0.144,0.362,0.36,0.289,0.361,0.073,0.144z" fill-rule="evenodd" fill="#ffe5b2"/><path id="path396" d="m39.705,59.244,0.868,2.667-0.289,0.144-0.29,0.144-0.289,0.216-0.29,0.216-0.362,0.144-0.289,0.144-0.434,0.145-0.434,0.072-1.52,0-1.375-0.217-1.23-0.36-1.013-0.504-0.796-0.649-0.579-0.576-0.362-0.577-0.145-0.432,0.218-0.577,0.578-0.432,0.869-0.288,1.085-0.216,1.158-0.144,1.23-0.072,1.303-0.072,1.157,0,0.218,0.216,0.434,0.432,0.362,0.36,0.217,0.216z" fill-rule="evenodd" fill="#000"/><path id="path398" d="m37.1,62.703-1.086,0-0.941-0.144-0.868-0.288-0.796-0.36-0.579-0.433-0.506-0.432-0.29-0.432-0.072-0.361,0.434,0.144,0.434,0.072,0.507,0.073,0.651,0.072,0.579,0.072,0.724-0.072,0.723,0,0.796-0.145,0.651-0.072,0.29,0-0.073,0.145-0.217,0.144-0.361,0.288-0.29,0.216-0.289,0.288-0.073,0.288,0.073,0.145,0.361,0.36,0.218,0.288,0,0.144z" fill-rule="evenodd" fill="#ffe5b2"/><path id="path400" d="m45.855,62.703-0.072,0.721-0.289,0.648-0.435,0.361-0.579,0.144-0.361-0.072-0.362-0.289-0.29-0.36-0.217-0.504-0.072,0,0,0-0.072,0-0.073,0-0.289,0-0.362-0.072-0.289-0.144-0.29-0.217-0.145,0.289-0.144,0.144-0.217,0.144-0.218,0.072-0.289-0.072-0.289-0.288-0.217-0.433-0.073-0.504,0.073-0.505,0.217-0.432,0.289-0.288,0.289-0.072,0.073,0,0,0,0,0,0.072,0,0-31.489,0.145-0.721,0.362-0.576,0.579-0.432,0.723-0.144,0.724,0.144,0.651,0.432,0.362,0.576,0.145,0.721,0,31.633,0.361,0.216,0.362,0.36,0.145,0.505,0.072,0.504z" fill-rule="evenodd" fill="#ffe5b2"/><path id="path402" d="m54.249,62.703,0.941,2.955-0.362,0.144-0.289,0.216-0.362,0.216-0.289,0.216-0.29,0.216-0.434,0.144-0.434,0.145-0.507,0.072-1.664,0-1.52-0.217-1.302-0.432-1.158-0.576-0.868-0.649-0.652-0.648-0.434-0.577-0.145-0.504,0.218-0.649,0.651-0.432,0.941-0.36,1.23-0.289,1.302-0.144,1.375-0.072,1.375-0.072,1.302,0,0.218,0.216,0.506,0.433,0.434,0.432,0.217,0.216z" fill-rule="evenodd" fill="#000"/><path id="path404" d="m51.5,66.666-1.303,0l-1.085-0.216-1.013-0.288-0.796-0.432-0.724-0.433-0.434-0.504-0.362-0.432-0.072-0.361,0.434,0.072,0.506,0.072,0.652,0.072,0.651,0.072h0.651,0.796l0.796-0.072,0.796-0.072,0.796-0.072h0.289v0.072l-0.289,0.217-0.362,0.288-0.362,0.288-0.289,0.288-0.072,0.288,0.072,0.217,0.362,0.36,0.362,0.432v0.144z" fill-rule="evenodd" fill="#ffe5b2"/><path id="path406" d="m60.834,66.666-0.144,0.793-0.29,0.648-0.506,0.433-0.579,0.144-0.579-0.144-0.507-0.433-0.362-0.648-0.144-0.793,0-0.072-0.073,0-0.072,0-0.145,0-0.072,0-0.217,0-0.29-0.072-0.217-0.072-0.217-0.072-0.145,0.432-0.217,0.361-0.361,0.288-0.362,0.072-0.362-0.144-0.362-0.288-0.217-0.505-0.072-0.648,0.072-0.505,0.217-0.432,0.217-0.36,0.29-0.216,0,0,0,0,0,0,0-0.072,0-32.642,0.072-0.433,0.072-0.432,0.217-0.36,0.29-0.36,0.362-0.289,0.362-0.216,0.434-0.072,0.434-0.072,0.434,0.072,0.434,0.072,0.362,0.216,0.289,0.289,0.29,0.36,0.217,0.36,0.072,0.432,0.073,0.433,0,32.642,0,0.072,0,0.072,0,0.072,0,0.072,0.506,0.216,0.434,0.432,0.29,0.649,0.072,0.72z" fill-rule="evenodd" fill="#ffe5b2"/><path id="path408" d="m70.169,66.955,1.085,3.17-0.361,0.216-0.362,0.216-0.362,0.217-0.362,0.288-0.362,0.216-0.434,0.216-0.434,0.144-0.507,0.072-1.881,0-1.664-0.288-1.448-0.504-1.23-0.577-1.013-0.72-0.796-0.721-0.434-0.648-0.145-0.577,0.29-0.72,0.651-0.505,1.086-0.432,1.302-0.216,1.447-0.217,1.52-0.072,1.519-0.072,1.375,0,0.29,0.217,0.506,0.576,0.507,0.504,0.217,0.217z" fill-rule="evenodd" fill="#000"/><path id="path410" d="m67.13,71.206-1.303,0-1.23-0.216-1.085-0.361-0.941-0.432-0.724-0.504-0.579-0.505-0.361-0.504-0.145-0.36,0.506,0.072,0.579,0.072,0.652,0.072,0.723,0.072,0.796,0,0.869,0,0.868-0.072,0.941-0.072,0.796-0.072,0.361,0-0.072,0.144-0.289,0.144-0.435,0.288-0.361,0.288-0.29,0.289-0.072,0.36,0.072,0.288,0.362,0.432,0.362,0.361,0,0.216z" fill-rule="evenodd" fill="#ffe5b2"/><path id="path412" d="m76.32,33.16,0,0.072,0.072,0.072,0,0,0,0.072,0,36.101,0,0.072,0,0-0.072,0,0,0.072,0.289,0.36,0.217,0.432,0.145,0.505,0,0.576-0.145,0.937-0.289,0.793-0.507,0.504-0.579,0.144-0.506-0.144-0.507-0.432-0.362-0.577-0.144-0.72-0.073,0-0.289,0-0.362-0.072-0.289-0.145-0.29-0.072-0.144,0.361-0.218,0.288-0.361,0.216-0.29,0.072-0.434-0.144-0.362-0.432-0.289-0.649-0.073-0.72,0.073-0.649,0.144-0.504,0.29-0.433,0.289-0.288,0-35.452,0-0.288,0.073-0.288,0.144-0.361,0.145-0.288-1.664-0.288,0.145-3.387,7.67,0.865,0,4.035-1.447-0.216z" fill-rule="evenodd" fill="#ffe5b2"/><path id="path414" d="m86.378,71.062,1.158,3.386-0.434,0.217-0.435,0.216-0.361,0.288-0.362,0.288-0.362,0.216-0.434,0.217-0.434,0.216-0.507,0.072-2.098,0-1.882-0.288-1.592-0.577-1.375-0.648-1.085-0.793-0.796-0.793-0.507-0.72-0.144-0.577,0.289-0.72,0.796-0.577,1.158-0.432,1.375-0.288,1.592-0.144,1.664-0.144,1.664-0.072,1.52,0,0.289,0.288,0.507,0.576,0.507,0.505,0.289,0.288z" fill-rule="evenodd" fill="#000"/><path id="path416" d="m83.194,75.601-1.52,0-1.374-0.216-1.158-0.36-1.013-0.504-0.869-0.577-0.579-0.576-0.434-0.505-0.144-0.432,0.578,0.144,0.652,0.072,0.723,0.144,0.796,0,0.869,0.072,0.94,0,0.941-0.072,1.013-0.072,0.869-0.144,0.361,0.072-0.072,0.072-0.289,0.216-0.435,0.289-0.434,0.288-0.289,0.36-0.073,0.36,0.073,0.216,0.434,0.505,0.434,0.432,0,0.216z" fill-rule="evenodd" fill="#ffe5b2"/><path id="path418" d="m140.94,10.894-0.72,17.294-1.31,1.657-0.43,5.693,1.74,1.441,0,3.242-1.74,2.306,0,21.041,2.46,2.306,0,2.738-2.75,0.72,0.14,5.044-20.91,37.974,0.51-20.32,2.1-2.017,2.38-54.475,2.54-1.658,1.73-28.102,0.29,0,13.97,5.1157z" fill-rule="evenodd" fill="#963"/><path id="path420" d="m4.1026,22.351,33.358,3.099,0,2.738,23.373,2.666,0-3.098,63.826,7.133,0.29-1.009-65.056-7.421-0.362,3.026-20.985-2.306-0.434-2.738-35.024-3.098,1.0131,1.008z" fill-rule="evenodd" fill="#000"/><path id="path422" d="m109.53,37.195-0.29,16.645-7.23-1.657,0-16.141,7.52,1.153z" fill-rule="evenodd" fill="#000"/><path id="path424" d="m2.0765,58.236,84.374,27.742-0.361,1.008,32.561,9.728,0.51-3.17-29.236-9.008,0-1.08-84.664-25.941-2.7498,0-0.4341,0.721z" fill-rule="evenodd" fill="#000"/><path id="path426" d="m2.0765,57.659,84.374,27.598-0.361,1.009,32.561,9.728,0.51-3.171-29.236-8.935,0-1.081-84.664-26.012-2.7498,0-0.4341,0.864z" fill-rule="evenodd" fill="#C96"/><path id="path428" d="m2.5106,56.795,84.88,27.309-0.434,1.153,31.693,9.439,0.51-3.17-29.236-8.935,0-1.153-84.664-26.013-1.0854,0-1.6644,1.37z" fill-rule="evenodd" fill="#000"/><path id="path430" d="m117.93,92.03,2.53-2.738,8.76-18.663,11.28-6.989,0.95,2.522-0.51,2.45-22.29,28.102,0-2.018-0.72-2.666z" fill-rule="evenodd" fill="#000"/><path id="path432" d="m38.981,21.703,0-0.288-35.023-2.666,0,0.216,35.023,2.738z" fill-rule="evenodd" fill="#000"/><path id="path434" d="m38.981,17.884,0-0.216-35.023-2.378,0,0.216,35.023,2.378z" fill-rule="evenodd" fill="#000"/><path id="path436" d="m38.764,13.777,0-0.217-35.023-2.161,0,0.144,35.023,2.234z" fill-rule="evenodd" fill="#000"/><path id="path438" d="m39.053,9.7414,0-0.2882-35.095-0.9367,0,0.1441,35.095,1.0808z" fill-rule="evenodd" fill="#000"/><path id="path440" d="m39.053,6.0665,0-0.2161-35.095-1.0088,0,0.2161,35.095,1.0088z" fill-rule="evenodd" fill="#000"/><path id="path442" d="m59.387,27.107,0,0.216-20.695-2.378,0-0.288,20.695,2.45z" fill-rule="evenodd" fill="#000"/><path id="path444" d="m59.749,24.081,0,0.216-20.768-2.018,0-0.216,20.768,2.018z" fill-rule="evenodd" fill="#000"/><path id="path446" d="M60.472,20.262,60.4,20.55,39.632,19.037v-0.216l20.84,1.441z" fill-rule="evenodd" fill="#000"/><path id="path448" d="m60.4,16.803-0.072,0.216-20.768-1.441,0-0.288,20.84,1.513z" fill-rule="evenodd" fill="#000"/><path id="path450" d="m61.124,12.912,0,0.144-20.84-0.721,0-0.216,20.84,0.793z" fill-rule="evenodd" fill="#000"/><path id="path452" d="m61.124,9.165,0,0.2161-20.84-0.5044,0-0.2161,20.84,0.5044z" fill-rule="evenodd" fill="#000"/><path id="path454" d="m61.124,6.1386,0,0.2882-20.84-1.0088,0-0.2882,20.84,1.0088z" fill-rule="evenodd" fill="#000"/><path id="path456" d="m59.676,3.1122,1.592,0,0,24.139-1.592,0,0-24.139z" fill-rule="evenodd" fill="#000"/><path id="path458" d="m124.66,30.422,0.07-0.288-63.172-5.549,0,0.288,63.102,5.549z" fill-rule="evenodd" fill="#000"/><path id="path460" d="m124.66,26.387,0.07-0.217-63.244-5.044,0,0.217,63.174,5.044z" fill-rule="evenodd" fill="#000"/><path id="path462" d="m124.51,21.271,0.08-0.217-63.322-3.675,0,0.217,63.242,3.675z" fill-rule="evenodd" fill="#000"/><path id="path464" d="m124.73,16.227,0-0.289-63.317-2.45,0,0.217,63.317,2.522z" fill-rule="evenodd" fill="#000"/><path id="path466" d="m124.73,12.768,0-0.216-63.317-2.45,0,0.216,63.317,2.45z" fill-rule="evenodd" fill="#000"/><path id="path468" d="m124.95,7.7959,0-0.2162-63.392-0.9367,0,0.2162,63.392,0.9367z" fill-rule="evenodd" fill="#000"/><path id="path470" d="m108.95,58.092-0.21,18.518-0.15,0-0.29,0.721-0.36,0.648-0.36,0.505-0.51,0.504-0.5,0.432-0.58,0.289-0.58,0.144-0.65,0.072-0.87-0.072-0.72-0.288-0.73-0.505-0.58-0.576-0.5-0.721-0.36-0.865-0.22-0.864-0.07-1.009,0-3.098,0-6.558,0-6.485,0-2.954,8.24,2.162z" fill-rule="evenodd" fill="#000"/><path id="path472" d="m102.66,78.556-0.65-0.072-0.73-0.289-0.65-0.504-0.58-0.576-0.502-0.721-0.362-0.721-0.289-0.864-0.073-0.793,1.516,0,1.38,0,1.16,0.144,0.94,0.144,0.79,0.144,0.58,0.145,0.44,0.072,0.29,0-0.08,0.144-0.21,0.432-0.29,0.649-0.44,0.648-0.5,0.721-0.51,0.648-0.58,0.433-0.65,0.216z" fill-rule="evenodd" fill="#000"/><path id="path474" d="m108.38,74.376,0,1.442-0.15-0.072-0.22,0.648-0.36,0.576-0.36,0.505-0.43,0.432-0.44,0.288-0.5,0.289-0.58,0.144-0.58,0.072-0.8-0.072-0.79-0.216-0.87-0.433-0.73-0.504-0.72-0.649-0.51-0.72-0.358-0.793-0.145-0.937,1.083,0.505,1.23,0.216,1.31,0.072,1.37-0.144,1.23-0.144,1.09-0.216,0.79-0.144,0.44-0.145z" fill-rule="evenodd" fill="#ffe5b2"/><path id="path476" d="m110.47,57.803-1.15,0.865-11.581-2.738,0.796-0.721,11.935,2.594z" fill-rule="evenodd" fill="#000"/><path id="path478" d="m97.739,55.93,0.72362,0,0,5.6204-0.72362,0,0-5.6204z" fill-rule="evenodd" fill="#000"/><path id="path480" d="m97.811,61.334-0.145,0.721,9.114,1.585,0.22-0.649-9.189-1.657z" fill-rule="evenodd" fill="#000"/><path id="path482" d="m14.595,28.692-0.145,10.232-4.341-1.08,0-9.944,4.486,0.792z" fill-rule="evenodd" fill="#000"/><path id="path484" d="m14.233,41.302-0.144,11.169-0.145,0-0.145,0.432-0.145,0.433-0.289,0.288-0.217,0.288-0.362,0.289-0.289,0.144-0.435,0.072-0.361,0.072l-0.507-0.072-0.434-0.144-0.434-0.289-0.3621-0.36-0.2894-0.432-0.2171-0.505-0.1448-0.576-0.0723-0.577v-1.873-3.963-3.891-1.802l4.9927,1.297z" fill-rule="evenodd" fill="#000"/><path id="path486" d="M10.47,53.696,10.036,53.624,9.6021,53.48,9.2403,53.192,8.8785,52.831,8.589,52.399,8.3719,51.895,8.2272,51.39,8.1549,50.886h0.8683,0.796l0.7238,0.072,0.579,0.144,0.434,0.072,0.362,0.072,0.289,0.072h0.145l-0.145,0.361-0.434,0.792-0.579,0.793-0.724,0.432z" fill-rule="evenodd" fill="#000"/><path id="path488" d="m13.871,51.174,0,0.865-0.144,0,0-0.072,0,0.144,0,0.288-0.145,0.36-0.217,0.361-0.362,0.288-0.579,0.288-0.723,0.072-0.507-0.072-0.506-0.144-0.507-0.216-0.4342-0.288-0.4342-0.433-0.3618-0.432-0.217-0.504-0.0724-0.505,0.6512,0.288,0.7964,0.144,0.796,0,0.868,0,0.724-0.144,0.651-0.144,0.506-0.072,0.217-0.072z" fill-rule="evenodd" fill="#ffe5b2"/><path id="path490" d="m15.102,41.086-0.579,0.505-7.0194-1.586,0.4342-0.576,7.1642,1.657z" fill-rule="evenodd" fill="#000"/><path id="path492" d="m7.5036,40.005,0.36181,0,0,3.4587-0.36181,0,0-3.4587z" fill-rule="evenodd" fill="#000"/><path id="path494" d="M7.5036,43.32,7.4312,43.608,12.931,44.689,13.003,44.185,7.5036,43.32z" fill-rule="evenodd" fill="#000"/><path id="path496" d="m17.272,63.424,0.72362,0,0,9.5836-0.72362,0,0-9.5836z" fill-rule="evenodd" fill="#000"/><path id="path498" d="m88.766,98.804-0.217,1.366,28.221,9.44,0.29-1.8-28.294-9.006z" fill-rule="evenodd" fill="#000"/><path id="path500" d="M87.825,99.02,87.608,97.507,17.055,72.215,17.272,73.007,87.825,99.02z" fill-rule="evenodd" fill="#000"/><path id="path502" d="M17.128,73.368,16.911,72.647,4.1026,68.468,2.8001,68.612,17.128,73.368z" fill-rule="evenodd" fill="#000"/><path id="path504" d="m124.95,33.88,15.41-7.349-0.14,1.657-16.21,7.854,0.94-2.162z" fill-rule="evenodd" fill="#000"/><path id="path506" d="m127.19,28.836,0.72-13.762,7.53,0.216-0.51,9.367-7.74,4.179z" fill-rule="evenodd" fill="#000"/><path id="path508" d="m124.73,53.264,0.58-14.267,10.27-5.693-0.43,11.817-10.42,8.143z" fill-rule="evenodd" fill="#000"/><path id="path510" d="m124.73,71.999,0.58-14.412,10.13-7.71,0,12.25-10.71,9.872z" fill-rule="evenodd" fill="#000"/></g></g></g></g></g></g><g id="g512" transform="translate(-91.801111,146.36002)"><g id="g514" clip-path="url(#clipPath516-1)"><text id="text520" transform="matrix(1,0,0,-1,546.86,247.61)"><tspan id="tspan522" style="writing-mode:lr-tb;" font-weight="normal" fill-rule="nonzero" font-size="15.96000004px" font-variant="normal" y="0" x="0 10.64532 19.519079" font-family="Arial" fill="#000000">Bob</tspan></text>
</g></g><g id="g524" transform="translate(-91.801111,146.36002)"><g id="g526" clip-path="url(#clipPath528-2)"><text id="text532" transform="matrix(1,0,0,-1,575.3,247.61)"><tspan id="tspan534" style="writing-mode:lr-tb;" font-weight="normal" fill-rule="nonzero" font-size="15.96000004px" font-variant="normal" y="0" x="0" font-family="MS PGothic" fill="#000000">’</tspan></text>
</g></g><g id="g536" transform="translate(-91.801111,146.36002)"><g id="g538" clip-path="url(#clipPath540-7)"><text id="text544" transform="matrix(1,0,0,-1,583.34,247.61)"><tspan id="tspan546" style="writing-mode:lr-tb;" font-weight="normal" fill-rule="nonzero" font-size="15.96000004px" font-variant="normal" y="0" x="0 8.04" font-family="Arial" fill="#000000">s</tspan></text>
</g></g><g id="g548" transform="translate(-91.801111,146.36002)"><g id="g550" clip-path="url(#clipPath552-9)"><text id="text556" transform="matrix(1,0,0,-1,549.5,228.53)"><tspan id="tspan558" style="writing-mode:lr-tb;" font-weight="normal" fill-rule="nonzero" font-size="15.96000004px" font-variant="normal" y="0" x="0 8.8737602 17.74752 26.621281 30.228239 33.819241" font-family="Arial" fill="#000000">public</tspan></text>
</g></g><g id="g560" transform="translate(-91.801111,146.36002)"><g id="g562" clip-path="url(#clipPath564-9)"><text id="text568" transform="matrix(1,0,0,-1,566.66,209.33)"><tspan id="tspan570" style="writing-mode:lr-tb;" font-weight="normal" fill-rule="nonzero" font-size="15.98400021px" font-variant="normal" y="0" x="0 8.0239677 16.911072 24.711264" font-family="Arial" fill="#000000">key</tspan></text>
</g></g><g id="g572" transform="translate(-91.801111,146.36002)"><g id="g574" clip-path="url(#clipPath576-0)"><g id="g580" transform="matrix(-0.50167,0,0,-0.26,545.88,257.16)"><g id="g582" transform="scale(0.19869,0.38392)"><g id="g584" clip-path="url(#clipPath586-9)"><g id="g590"><g id="g592"/><path id="path596" d="m316.23,86.526-9.67-13.95,34.14-36.247,13.49,18.362-37.96,31.835z" fill-rule="evenodd" fill="#FC0"/><path id="path598" d="m343.57,42.529-56.35-31.001-61,33.624-27.34-16.335-8.71,24.562-28.3-13.95l-18.26,12.996-44.647-18.242-26.859,16.812-28.89-8.228-37.006,25.04,6.6854,13.95,168.2,24.443,1.91,36.96,25.91-12.99,56.7,48.64,42.38-2.02,41.78-46.62-1.67-78.818-33.42,30.167,6.68,22.301-9.07,9.65-6.8,6.2-8.12,3.82-11.1-1.91-15.76-15.38-7.76-27.901,18.26-15.858,30.32,13.474,32.24-33.386z" fill-rule="evenodd" fill="#FC0"/><path id="path600" d="m182.65,58.387-4.3-2.981,4.3-13.354,5.01-14.785,3.1-3.816,6.21-1.788,5.85,0.835,5.61,3.1,5.49,4.173,5.61,3.935,3.47-3.935,5.61-4.531,3.46-2.504,3.94-2.504,4.3-2.385,4.65-2.384,4.9-2.385,5.25-2.146,10.98-3.9349,11.7-2.8616,11.94-1.4308,23.51,1.9077,10.99,4.2925,5.25,3.2191,4.89,3.816,4.66,4.531,4.3,5.365,3.82,6.081,3.46,7.035,5.61,16.812,3.46,20.747,0.6,17.527-1.67,16.452-1.67,7.87-2.15,7.51-2.63,7.04-3.1,6.79-3.46,6.44-3.82,5.97-4.18,5.6-4.66,5.13-4.77,4.65-5.14,4.17-5.49,3.7-5.61,3.1-5.85,2.62-5.97,2.03-12.41,2.38-12.89-0.24-12.9-2.86-13.01-5.6-6.33-3.94-6.32-4.65-6.21-5.48-6.09-6.2-2.86-3.46-2.99-3.7-5.61-7.87-2.27-2.5-2.86-0.36-7.05,3.34-4.05,2.5-4.3,2.39-4.54,1.55-4.77,0.12-5.02-2.03-4.41-34.58-5.38-15.02,14.81,0.238,8.23,1.193-2.26,15.859-1.08,15.62,3.7,2.14,3.34-0.23,6.09-4.65,2.87-2.98,2.86-2.63,2.99-1.31,3.22,0.48,8.71,7.03,2.75,3.46,2.98,3.82,3.23,4.17,3.58,4.41,3.94,4.53,4.18,4.41,4.53,4.3,5.02,4.05,5.25,3.58,5.61,3.1,6.09,2.5,6.56,1.67,20.18-2.03,9.07-3.81,8.24-5.61,7.52-6.91,3.34-3.94,3.22-4.17,5.62-9.06,4.65-9.9,6.09-20.86,1.43-21.228-1.19-10.135-2.51-9.539-1.79-4.412-2.15-4.173-2.51-4.054-2.86-3.577-2.39-3.219-2.5-2.862-5.5-5.246-2.86-2.266-2.87-2.027-6.2-3.457-6.45-2.623-6.57-1.67-13.49-0.954-13.37,2.266-12.65,5.485-5.97,3.815-5.49,4.65-5.13,5.366-4.54,6.2-5.13,2.862-4.54,0-7.64-5.604-3.34-4.054-3.34-3.816-3.35-2.862-3.34-1.192-3.94,7.154-1.91,8.585-1.43,3.816-2.03,2.861-3.34,1.431-4.9-0.477-4.53-2.027z" fill-rule="evenodd" fill="#000"/><path id="path602" d="m182.65,97.138,5.25,1.55-1.79,30.282,2.15,18.13-5.61,1.43-0.96-0.12-6.8-3.22-3.82-4.89-1.55-12.4,1.07-11.45-0.48-3.69-2.27-1.43-11.22-1.91-17.19-2.39-21.37-2.86-23.752-3.1l-24.353-3.455-23.279-3.696-20.294-3.935-15.638-3.815-7.6402-4.293-3.1038-5.961,0.35813-7.155,1.4326-3.815,2.0294-3.935,2.6262-3.815,3.1038-3.816,3.5809-3.577,3.701-3.338,4.059-2.981,4.059-2.623,4.059-2.147,3.939-1.669,9.073-1.669,8.475,1.788,8.118,3.458,7.998,3.458,7.282-3.696,6.088-3.22,5.134-2.504,4.297-2.146,6.805-2.504,5.252-0.596,11.22,3.696,8.48,3.816,5.61,2.385,6.56,2.742,5.85-3.1,5.02-2.266,8-2.98,10.14-0.358,7.88,4.412,4.9,3.1,6.8,3.219,0.72-2.027,3.7-5.842,3.34,23.966-7.04-1.789-18.63-8.585-6.68,2.504-6.09,4.531-3.1,2.027-3.11,1.431-7.04-0.596-9.19-3.577-4.18-3.458-4.06-3.458-4.06-2.862-4.3-1.55-4.65,0.477-5.25,3.22-7.764,5.842-6.446,3.696-10.863,1.789-11.102-2.981-6.805-2.504-8.356-2.623-15.638,3.219-9.67,5.366-4.298,6.677-0.477,3.815,0.477,4.054,7.044,2.504,8.117,2.266,9.073,2.146,10.028,1.908,21.846,3.219,23.394,2.742,45.72,4.174,36.06,3.338z" fill-rule="evenodd" fill="#000"/><path id="path604" d="m226.46,72.099-39.4-1.788-52.4-2.385-94.191-5.723-0.12,3.1,1.672,1.55,2.865,1.669,8.475,3.458,11.699,3.458,14.445,3.338,16.474,3.219,17.791,2.743,18.38,2.265,36.41,2.623,31.4-0.953,21.01-5.485,5.01-4.77,0.48-6.319z" fill-rule="evenodd" fill="#000"/><path id="path606" d="m298.08,127.19-0.35-2.27-1.91-2.74-3.23-3.1-3.82-3.58-3.94-3.93-3.82-4.54-4.89-10.369,0.36-12.162,2.38-4.292,3.59-2.742,9.55-0.835,11.34,6.558,5.97,6.796,3.82,7.154,0.47,5.842-1.31,1.91-2.63,0.95-2.62-2.86-2.63-1.19-4.42,2.03-0.95,5.72,1.67,3.46,3.58,3.45,3.58,1.91,3.23,0.6,5.85-2.51,4.17-6.2,2.39-8.7,0.36-5.008-0.36-5.246-2.74-10.493-2.51-5.008-3.46-4.65-4.18-4.173-5.25-3.458-6.21-3.1-5.61-2.146-10.03-1.908-8.36,0.835-6.56,3.219-8.36,11.685-2.39,16.097,0.84,4.888,2.27,6.439,3.46,7.037,4.66,6.91,2.74,3.34,2.99,2.98,3.34,2.63,3.46,2.14,7.88,2.74,8.59-0.11z" fill-rule="evenodd" fill="#000"/></g></g></g></g></g></g><g id="g608" transform="translate(-91.801111,146.36002)"><g id="g610" clip-path="url(#clipPath612-1)"><text id="text616" transform="matrix(1,0,0,-1,510.07,206.38)"><tspan id="tspan618" style="writing-mode:lr-tb;" font-weight="normal" fill-rule="nonzero" font-size="20.04000092px" font-variant="normal" y="0" x="0 13.34398" font-family="Arial" fill="#c00000">K</tspan></text>
</g></g><g id="g620" transform="translate(-91.801111,146.36002)"><g id="g622" clip-path="url(#clipPath624-5)"><text id="text628" transform="matrix(1,0,0,-1,526.34,198.1)"><tspan id="tspan630" style="writing-mode:lr-tb;" font-weight="normal" fill-rule="nonzero" font-size="15.96000004px" font-variant="normal" y="0" x="0" font-family="Arial" fill="#c00000">B</tspan></text>
</g></g><g id="g632" transform="translate(-91.801111,146.36002)"><g id="g634" clip-path="url(#clipPath636-1)"><text id="text640" transform="matrix(1,0,0,-1,526.22,219.1)"><tspan id="tspan642" style="writing-mode:lr-tb;" font-weight="normal" fill-rule="nonzero" font-size="15.96000004px" font-variant="normal" y="0" x="0" font-family="Arial" fill="#c00000">+</tspan></text>
</g></g><path id="path644" d="m225.48,341.36,93.84,0,0,75.24-93.84,0,0-75.24z" fill-rule="evenodd" fill="#008000"/><path id="path646" stroke-linejoin="miter" d="m225.48,341.36,93.84,0,0,75.24-93.84,0,0-75.24z" stroke="#000" stroke-linecap="butt" stroke-miterlimit="10" stroke-dasharray="none" stroke-width="0.72000003" fill="none"/><path id="path648" d="m228.24,343.52,89.16,0,0,72.72-89.16,0,0-72.72z" fill-rule="evenodd" fill="#008000"/><g id="g650" transform="translate(-91.801111,146.36002)"><g id="g652" clip-path="url(#clipPath654-2)"><text id="text658" transform="matrix(1,0,0,-1,341.23,248.69)"><tspan id="tspan660" style="writing-mode:lr-tb;" font-weight="normal" fill-rule="nonzero" font-size="18px" font-variant="normal" y="0" x="0 10.008 13.914 23.922001 27.827999 32.832001 42.84" font-family="Arial" fill="#ffffff">digital</tspan></text>
</g></g><g id="g662" transform="translate(-91.801111,146.36002)"><g id="g664" clip-path="url(#clipPath666-9)"><text id="text670" transform="matrix(1,0,0,-1,327.79,227.09)"><tspan id="tspan672" style="writing-mode:lr-tb;" font-weight="normal" fill-rule="nonzero" font-size="18.02400017px" font-variant="normal" y="0" x="0 9.0120001 13.013328 22.926529 32.893799 42.861073 47.871742 57.893089 63.895081" font-family="Arial" fill="#ffffff">signature</tspan></text>
</g></g><g id="g674" transform="translate(-91.801111,146.36002)"><g id="g676" clip-path="url(#clipPath678-8)"><text id="text682" transform="matrix(1,0,0,-1,329.35,205.46)"><tspan id="tspan684" style="writing-mode:lr-tb;" font-weight="normal" fill-rule="nonzero" font-size="18px" font-variant="normal" y="0" x="0 5.994 16.002001 25.92 34.919998 40.914001 49.68 59.688 64.692001" font-family="Arial" fill="#ffffff">(decrypt)</tspan></text>
</g></g><g id="g686" transform="translate(-91.801111,146.36002)"><g id="g688" clip-path="url(#clipPath690-5)"><text id="text694" transform="matrix(1,0,0,-1,327.36,164.59)"><tspan id="tspan696" style="writing-mode:lr-tb;" font-weight="normal" fill-rule="nonzero" font-size="15.98400021px" font-variant="normal" y="0" x="0 11.540448 21.354624" font-family="Arial" fill="#000000">CA</tspan></text>
</g></g><g id="g698" transform="translate(-91.801111,146.36002)"><g id="g700" clip-path="url(#clipPath702-6)"><text id="text706" transform="matrix(1,0,0,-1,306.84,145.37)"><tspan id="tspan708" style="writing-mode:lr-tb;" font-weight="normal" fill-rule="nonzero" font-size="15.96000004px" font-variant="normal" y="0" x="0 8.8737602 17.74752 26.621281 30.228239 33.819241" font-family="Arial" fill="#000000">public</tspan></text>
</g></g><g id="g710" transform="translate(-91.801111,146.36002)"><g id="g712" clip-path="url(#clipPath714-3)"><text id="text718" transform="matrix(1,0,0,-1,324,126.17)"><tspan id="tspan720" style="writing-mode:lr-tb;" font-weight="normal" fill-rule="nonzero" font-size="15.96000004px" font-variant="normal" y="0" x="0 8.0278797 16.90164 24.706079" font-family="Arial" fill="#000000">key</tspan></text>
</g></g><g id="g722" transform="translate(-91.801111,146.36002)"><g id="g724" clip-path="url(#clipPath726-2)"><g id="g730" transform="matrix(-0.50167,0,0,-0.25833,414.12,183.24)"><g id="g732" transform="scale(0.19869,0.38392)"><g id="g734" clip-path="url(#clipPath736-7)"><g id="g740"><g id="g742"/><path id="path746" d="m316.23,86.526-9.67-13.95,34.14-36.247,13.49,18.362-37.96,31.835z" fill-rule="evenodd" fill="#FC0"/><path id="path748" d="m343.57,42.529-56.35-31.001-61,33.624-27.34-16.335-8.71,24.562-28.3-13.95l-18.26,12.996-44.647-18.242-26.859,16.812-28.89-8.228-37.006,25.04,6.6854,13.95,168.2,24.443,1.91,36.96,25.91-12.99,56.7,48.64,42.38-2.02,41.78-46.62-1.67-78.818-33.42,30.167,6.68,22.301-9.07,9.65-6.8,6.2-8.12,3.82-11.1-1.91-15.76-15.38-7.76-27.901,18.26-15.858,30.32,13.474,32.24-33.386z" fill-rule="evenodd" fill="#FC0"/><path id="path750" d="m182.65,58.387-4.3-2.981,4.3-13.354,5.01-14.785,3.1-3.816,6.21-1.788,5.85,0.835,5.61,3.1,5.49,4.173,5.61,3.935,3.47-3.935,5.61-4.531,3.46-2.504,3.94-2.504,4.3-2.385,4.65-2.384,4.9-2.385,5.25-2.146,10.98-3.9349,11.7-2.8616,11.94-1.4308,23.51,1.9077,10.99,4.2925,5.25,3.2191,4.89,3.816,4.66,4.531,4.3,5.365,3.82,6.081,3.46,7.035,5.61,16.812,3.46,20.747,0.6,17.527-1.67,16.452-1.67,7.87-2.15,7.51-2.63,7.04-3.1,6.79-3.46,6.44-3.82,5.97-4.18,5.6-4.66,5.13-4.77,4.65-5.14,4.17-5.49,3.7-5.61,3.1-5.85,2.62-5.97,2.03-12.41,2.38-12.89-0.24-12.9-2.86-13.01-5.6-6.33-3.94-6.32-4.65-6.21-5.48-6.09-6.2-2.86-3.46-2.99-3.7-5.61-7.87-2.27-2.5-2.86-0.36-7.05,3.34-4.05,2.5-4.3,2.39-4.54,1.55-4.77,0.12-5.02-2.03-4.41-34.58-5.38-15.02,14.81,0.238,8.23,1.193-2.26,15.859-1.08,15.62,3.7,2.14,3.34-0.23,6.09-4.65,2.87-2.98,2.86-2.63,2.99-1.31,3.22,0.48,8.71,7.03,2.75,3.46,2.98,3.82,3.23,4.17,3.58,4.41,3.94,4.53,4.18,4.41,4.53,4.3,5.02,4.05,5.25,3.58,5.61,3.1,6.09,2.5,6.56,1.67,20.18-2.03,9.07-3.81,8.24-5.61,7.52-6.91,3.34-3.94,3.22-4.17,5.62-9.06,4.65-9.9,6.09-20.86,1.43-21.228-1.19-10.135-2.51-9.539-1.79-4.412-2.15-4.173-2.51-4.054-2.86-3.577-2.39-3.219-2.5-2.862-5.5-5.246-2.86-2.266-2.87-2.027-6.2-3.457-6.45-2.623-6.57-1.67-13.49-0.954-13.37,2.266-12.65,5.485-5.97,3.815-5.49,4.65-5.13,5.366-4.54,6.2-5.13,2.862-4.54,0-7.64-5.604-3.34-4.054-3.34-3.816-3.35-2.862-3.34-1.192-3.94,7.154-1.91,8.585-1.43,3.816-2.03,2.861-3.34,1.431-4.9-0.477-4.53-2.027z" fill-rule="evenodd" fill="#000"/><path id="path752" d="m182.65,97.138,5.25,1.55-1.79,30.282,2.15,18.13-5.61,1.43-0.96-0.12-6.8-3.22-3.82-4.89-1.55-12.4,1.07-11.45-0.48-3.69-2.27-1.43-11.22-1.91-17.19-2.39-21.37-2.86-23.752-3.1l-24.353-3.455-23.279-3.696-20.294-3.935-15.638-3.815-7.6402-4.293-3.1038-5.961,0.35813-7.155,1.4326-3.815,2.0294-3.935,2.6262-3.815,3.1038-3.816,3.5809-3.577,3.701-3.338,4.059-2.981,4.059-2.623,4.059-2.147,3.939-1.669,9.073-1.669,8.475,1.788,8.118,3.458,7.998,3.458,7.282-3.696,6.088-3.22,5.134-2.504,4.297-2.146,6.805-2.504,5.252-0.596,11.22,3.696,8.48,3.816,5.61,2.385,6.56,2.742,5.85-3.1,5.02-2.266,8-2.98,10.14-0.358,7.88,4.412,4.9,3.1,6.8,3.219,0.72-2.027,3.7-5.842,3.34,23.966-7.04-1.789-18.63-8.585-6.68,2.504-6.09,4.531-3.1,2.027-3.11,1.431-7.04-0.596-9.19-3.577-4.18-3.458-4.06-3.458-4.06-2.862-4.3-1.55-4.65,0.477-5.25,3.22-7.764,5.842-6.446,3.696-10.863,1.789-11.102-2.981-6.805-2.504-8.356-2.623-15.638,3.219-9.67,5.366-4.298,6.677-0.477,3.815,0.477,4.054,7.044,2.504,8.117,2.266,9.073,2.146,10.028,1.908,21.846,3.219,23.394,2.742,45.72,4.174,36.06,3.338z" fill-rule="evenodd" fill="#000"/><path id="path754" d="m226.46,72.099-39.4-1.788-52.4-2.385-94.191-5.723-0.12,3.1,1.672,1.55,2.865,1.669,8.475,3.458,11.699,3.458,14.445,3.338,16.474,3.219,17.791,2.743,18.38,2.265,36.41,2.623,31.4-0.953,21.01-5.485,5.01-4.77,0.48-6.319z" fill-rule="evenodd" fill="#000"/><path id="path756" d="m298.08,127.19-0.35-2.27-1.91-2.74-3.23-3.1-3.82-3.58-3.94-3.93-3.82-4.54-4.89-10.369,0.36-12.162,2.38-4.292,3.59-2.742,9.55-0.835,11.34,6.558,5.97,6.796,3.82,7.154,0.47,5.842-1.31,1.91-2.63,0.95-2.62-2.86-2.63-1.19-4.42,2.03-0.95,5.72,1.67,3.46,3.58,3.45,3.58,1.91,3.23,0.6,5.85-2.51,4.17-6.2,2.39-8.7,0.36-5.008-0.36-5.246-2.74-10.493-2.51-5.008-3.46-4.65-4.18-4.173-5.25-3.458-6.21-3.1-5.61-2.146-10.03-1.908-8.36,0.835-6.56,3.219-8.36,11.685-2.39,16.097,0.84,4.888,2.27,6.439,3.46,7.037,4.66,6.91,2.74,3.34,2.99,2.98,3.34,2.63,3.46,2.14,7.88,2.74,8.59-0.11z" fill-rule="evenodd" fill="#000"/></g></g></g></g></g></g><g id="g758" transform="translate(-91.801111,146.36002)"><g id="g760" clip-path="url(#clipPath762-3)"><text id="text766" transform="matrix(1,0,0,-1,383.81,138.12)"><tspan id="tspan768" style="writing-mode:lr-tb;" font-weight="normal" fill-rule="nonzero" font-size="20.06399918px" font-variant="normal" y="0" x="0 13.319988" font-family="Arial" fill="#c00000">K</tspan></text>
</g></g><g id="g770" transform="translate(-91.801111,146.36002)"><g id="g772" clip-path="url(#clipPath774-3)"><text id="text778" transform="matrix(1,0,0,-1,401.18,130.82)"><tspan id="tspan780" style="writing-mode:lr-tb;" font-weight="normal" fill-rule="nonzero" font-size="15.96000004px" font-variant="normal" y="0" x="0 11.52" font-family="Arial" fill="#c00000">CA</tspan></text>
</g></g><g id="g782" transform="translate(-91.801111,146.36002)"><g id="g784" clip-path="url(#clipPath786-3)"><text id="text790" transform="matrix(1,0,0,-1,400.82,147.14)"><tspan id="tspan792" style="writing-mode:lr-tb;" font-weight="normal" fill-rule="nonzero" font-size="24px" font-variant="normal" y="0" x="0" font-family="Arial" fill="#c00000">+</tspan></text>
</g></g><path id="path794" d="m272.28,265.58,0,3-3,0,0-3,3,0zm0,6,0,3-3,0,0-3,3,0zm0,6,0,3-3,0,0-3,3,0zm0,6,0,3-3,0,0-3,3,0zm0,6,0,3-3,0,0-3,3,0zm0,6,0,3-3,0,0-3,3,0zm0,6,0,3-3,0,0-3,3,0zm0,6,0,3-3,0,0-3,3,0zm0,6,0,3-3,0,0-3,3,0zm0,6,0,3-3,0,0-3,3,0zm0,6,0,2.82-3,0,0-2.82,3,0zm3,1.32-4.5,9-4.5-9,9,0z" fill-rule="nonzero" fill="#000"/><path id="path796" d="m95.589,382.76,120.66-0.45-0.02-3-120.66,0.45,0.02,3zm119.17,2.55,8.98-4.53-9.02-4.47,0.04,9z" fill-rule="nonzero" fill="#000"/><path id="path798" d="m321.55,378.08,81.78,0.66-0.02,3-81.78-0.66,0.02-3zm80.31-2.35,8.96,4.57-9.04,4.43,0.08-9z" fill-rule="nonzero" fill="#000"/><g id="g800" transform="translate(-91.801111,146.36002)"><g id="g802" clip-path="url(#clipPath804-3)"><g id="g808" transform="matrix(0.93833,0,0,1.2667,122.76,188.52)"><g id="g810" transform="scale(0.35422,0.26268)"><g id="g812" clip-path="url(#clipPath814-1)"><g id="g818"><g id="g820"/><path id="path824" d="M184.24,268.98,54.174,256.23,30.786,210.03,46.299,158.82,17.064,96.898,151.19,13.181l44.86,108.61-30.3,82.88,18.49,64.31z" fill-rule="evenodd" fill="#FFF"/><path id="path826" d="m39.02,114.52,0-15.597-23.865-21.912,22.433,8.217-0.477-17.029,11.694-9.765,6.324,31.2,2.387,9.765,10.739,12.151-12.171,10.71-17.064-7.74z" fill-rule="evenodd" fill="#ffe5e5"/><path id="path828" d="m24.701,84.99,17.66,7.145,4.296-24.294,6.802,30.844-13.842,2.025-14.916-15.72z" fill-rule="evenodd" fill="#F00"/><path id="path830" d="m46.657,116.43-4.296-11.67,16.945-1.67-0.597,8.69-12.052,4.65z" fill-rule="evenodd" fill="#ffcc7f"/><path id="path832" d="m156.68,251.23-90.095-4.4-18.019-31.56,72.074,0.83-52.266,10.01,82.816,7.14-77.446,5.36,82.936,12.62z" fill-rule="evenodd" fill="#d1d1ea"/><path id="path834" d="m50.356,196.33,13.484-34.17,93.67-21.56-85.556,29.66,81.976-11.68-86.51,25.13,79.35-2.62-96.414,15.24z" fill-rule="evenodd" fill="#d1d1ea"/><path id="path836" d="m49.521,123.45,9.904,16.2l94.505-43.109-85.556,26.079,81.976-55.85-83.765,35.13-0.955,13.46-16.109,8.09z" fill-rule="evenodd" fill="#d1d1ea"/><path id="path838" d="m54.89,100.11,0-9.88,54.06-28.819-47.735,39.539-6.325-0.84z" fill-rule="evenodd" fill="#d1d1ea"/><path id="path840" d="M50.714,249.92,27.326,209.43,43.435,157.87,12.41,95.827l8.353-7.741,5.489,2.739-4.415,5.597,28.28,60.968-15.512,52.04,16.109,40.49z" fill-rule="evenodd" fill="#000"/><path id="path842" d="M57.516,125.24,42.242,123.45,34.128,110,36.872,101.9,0,78.44h13.484v-13.457l20.644,15.362-8.115-23.459,10.859,6.311,15.274-16.196,3.58,43.229-9.904-26.08-5.37,8.931v17.149l-18.019-9.051,21.599,19.771-2.626,11.79,11.695,5.36,9.904-9.05-8.115-9.889,8.115-1.786,8.114,8.095-3.699,15.36-9.904,4.41z" fill-rule="evenodd" fill="#000"/><path id="path844" d="M60.141,256.47,191.52,272.07,171,205.5,200.95,118.57,153.22,2.7017,52.385,68.675l1.074,8.336,94.271-55.375,34.96,82.884-122.55,50.02,129.71-32.63-27.8,70.85-107.52,13.94h108.71l15.51,55.37-118.61-5.6z" fill-rule="evenodd" fill="#000"/></g></g></g></g></g></g><path id="path846" d="m51.479,371,33.6,0,0,31.44-33.6,0,0-31.44z" fill-rule="evenodd" fill="#FFF"/><g id="g848" transform="translate(-91.801111,146.36002)"><g id="g850" clip-path="url(#clipPath852-1)"><text id="text856" transform="matrix(1,0,0,-1,150.65,233.02)"><tspan id="tspan858" style="writing-mode:lr-tb;" font-weight="normal" fill-rule="nonzero" font-size="20.04000092px" font-variant="normal" y="0" x="0 13.31998" font-family="Arial" fill="#ff0000">K</tspan></text>
</g></g><g id="g860" transform="translate(-91.801111,146.36002)"><g id="g862" clip-path="url(#clipPath864-4)"><text id="text868" transform="matrix(1,0,0,-1,163.9,224.71)"><tspan id="tspan870" style="writing-mode:lr-tb;" font-weight="normal" fill-rule="nonzero" font-size="15.96000004px" font-variant="normal" y="0" x="0" font-family="Arial" fill="#ff0000">B</tspan></text>
</g></g><g id="g872" transform="translate(-91.801111,146.36002)"><g id="g874" clip-path="url(#clipPath876-3)"><text id="text880" transform="matrix(1,0,0,-1,164.52,245.74)"><tspan id="tspan882" style="writing-mode:lr-tb;" font-weight="normal" fill-rule="nonzero" font-size="15.96000004px" font-variant="normal" y="0" x="0" font-family="Arial" fill="#ff0000">+</tspan></text>
</g></g><g id="g884" transform="translate(-91.801111,146.36002)"><g id="g886" clip-path="url(#clipPath888-8)"><g id="g892" transform="matrix(-0.50167,0,0,-0.26,183.12,221.04)"><g id="g894" transform="scale(0.19869,0.38392)"><g id="g896" clip-path="url(#clipPath898-4)"><g id="g902"><g id="g904"/><path id="path908" d="m316.23,86.526-9.67-13.95,34.14-36.247,13.49,18.362-37.96,31.835z" fill-rule="evenodd" fill="#FC0"/><path id="path910" d="m343.57,42.529-56.35-31.001-61,33.624-27.34-16.335-8.71,24.562-28.3-13.95l-18.26,12.996-44.647-18.242-26.859,16.812-28.89-8.228-37.006,25.04,6.6854,13.95,168.2,24.443,1.91,36.96,25.91-12.99,56.7,48.64,42.38-2.02,41.78-46.62-1.67-78.818-33.42,30.167,6.68,22.301-9.07,9.65-6.8,6.2-8.12,3.82-11.1-1.91-15.76-15.38-7.76-27.901,18.26-15.858,30.32,13.474,32.24-33.386z" fill-rule="evenodd" fill="#FC0"/><path id="path912" d="m182.65,58.387-4.3-2.981,4.3-13.354,5.01-14.785,3.1-3.816,6.21-1.788,5.85,0.835,5.61,3.1,5.49,4.173,5.61,3.935,3.47-3.935,5.61-4.531,3.46-2.504,3.94-2.504,4.3-2.385,4.65-2.384,4.9-2.385,5.25-2.146,10.98-3.9349,11.7-2.8616,11.94-1.4308,23.51,1.9077,10.99,4.2925,5.25,3.2191,4.89,3.816,4.66,4.531,4.3,5.365,3.82,6.081,3.46,7.035,5.61,16.812,3.46,20.747,0.6,17.527-1.67,16.452-1.67,7.87-2.15,7.51-2.63,7.04-3.1,6.79-3.46,6.44-3.82,5.97-4.18,5.6-4.66,5.13-4.77,4.65-5.14,4.17-5.49,3.7-5.61,3.1-5.85,2.62-5.97,2.03-12.41,2.38-12.89-0.24-12.9-2.86-13.01-5.6-6.33-3.94-6.32-4.65-6.21-5.48-6.09-6.2-2.86-3.46-2.99-3.7-5.61-7.87-2.27-2.5-2.86-0.36-7.05,3.34-4.05,2.5-4.3,2.39-4.54,1.55-4.77,0.12-5.02-2.03-4.41-34.58-5.38-15.02,14.81,0.238,8.23,1.193-2.26,15.859-1.08,15.62,3.7,2.14,3.34-0.23,6.09-4.65,2.87-2.98,2.86-2.63,2.99-1.31,3.22,0.48,8.71,7.03,2.75,3.46,2.98,3.82,3.23,4.17,3.58,4.41,3.94,4.53,4.18,4.41,4.53,4.3,5.02,4.05,5.25,3.58,5.61,3.1,6.09,2.5,6.56,1.67,20.18-2.03,9.07-3.81,8.24-5.61,7.52-6.91,3.34-3.94,3.22-4.17,5.62-9.06,4.65-9.9,6.09-20.86,1.43-21.228-1.19-10.135-2.51-9.539-1.79-4.412-2.15-4.173-2.51-4.054-2.86-3.577-2.39-3.219-2.5-2.862-5.5-5.246-2.86-2.266-2.87-2.027-6.2-3.457-6.45-2.623-6.57-1.67-13.49-0.954-13.37,2.266-12.65,5.485-5.97,3.815-5.49,4.65-5.13,5.366-4.54,6.2-5.13,2.862-4.54,0-7.64-5.604-3.34-4.054-3.34-3.816-3.35-2.862-3.34-1.192-3.94,7.154-1.91,8.585-1.43,3.816-2.03,2.861-3.34,1.431-4.9-0.477-4.53-2.027z" fill-rule="evenodd" fill="#000"/><path id="path914" d="m182.65,97.138,5.25,1.55-1.79,30.282,2.15,18.13-5.61,1.43-0.96-0.12-6.8-3.22-3.82-4.89-1.55-12.4,1.07-11.45-0.48-3.69-2.27-1.43-11.22-1.91-17.19-2.39-21.37-2.86-23.752-3.1l-24.353-3.455-23.279-3.696-20.294-3.935-15.638-3.815-7.6402-4.293-3.1038-5.961,0.35813-7.155,1.4326-3.815,2.0294-3.935,2.6262-3.815,3.1038-3.816,3.5809-3.577,3.701-3.338,4.059-2.981,4.059-2.623,4.059-2.147,3.939-1.669,9.073-1.669,8.475,1.788,8.118,3.458,7.998,3.458,7.282-3.696,6.088-3.22,5.134-2.504,4.297-2.146,6.805-2.504,5.252-0.596,11.22,3.696,8.48,3.816,5.61,2.385,6.56,2.742,5.85-3.1,5.02-2.266,8-2.98,10.14-0.358,7.88,4.412,4.9,3.1,6.8,3.219,0.72-2.027,3.7-5.842,3.34,23.966-7.04-1.789-18.63-8.585-6.68,2.504-6.09,4.531-3.1,2.027-3.11,1.431-7.04-0.596-9.19-3.577-4.18-3.458-4.06-3.458-4.06-2.862-4.3-1.55-4.65,0.477-5.25,3.22-7.764,5.842-6.446,3.696-10.863,1.789-11.102-2.981-6.805-2.504-8.356-2.623-15.638,3.219-9.67,5.366-4.298,6.677-0.477,3.815,0.477,4.054,7.044,2.504,8.117,2.266,9.073,2.146,10.028,1.908,21.846,3.219,23.394,2.742,45.72,4.174,36.06,3.338z" fill-rule="evenodd" fill="#000"/><path id="path916" d="m226.46,72.099-39.4-1.788-52.4-2.385-94.191-5.723-0.12,3.1,1.672,1.55,2.865,1.669,8.475,3.458,11.699,3.458,14.445,3.338,16.474,3.219,17.791,2.743,18.38,2.265,36.41,2.623,31.4-0.953,21.01-5.485,5.01-4.77,0.48-6.319z" fill-rule="evenodd" fill="#000"/><path id="path918" d="m298.08,127.19-0.35-2.27-1.91-2.74-3.23-3.1-3.82-3.58-3.94-3.93-3.82-4.54-4.89-10.369,0.36-12.162,2.38-4.292,3.59-2.742,9.55-0.835,11.34,6.558,5.97,6.796,3.82,7.154,0.47,5.842-1.31,1.91-2.63,0.95-2.62-2.86-2.63-1.19-4.42,2.03-0.95,5.72,1.67,3.46,3.58,3.45,3.58,1.91,3.23,0.6,5.85-2.51,4.17-6.2,2.39-8.7,0.36-5.008-0.36-5.246-2.74-10.493-2.51-5.008-3.46-4.65-4.18-4.173-5.25-3.458-6.21-3.1-5.61-2.146-10.03-1.908-8.36,0.835-6.56,3.219-8.36,11.685-2.39,16.097,0.84,4.888,2.27,6.439,3.46,7.037,4.66,6.91,2.74,3.34,2.99,2.98,3.34,2.63,3.46,2.14,7.88,2.74,8.59-0.11z" fill-rule="evenodd" fill="#000"/></g></g></g></g></g></g></g></svg>
