<?xml version="1.0" encoding="UTF-8" standalone="no"?>
<!-- Created with Inkscape (http://www.inkscape.org/) -->

<svg
   xmlns:dc="http://purl.org/dc/elements/1.1/"
   xmlns:cc="http://creativecommons.org/ns#"
   xmlns:rdf="http://www.w3.org/1999/02/22-rdf-syntax-ns#"
   xmlns:svg="http://www.w3.org/2000/svg"
   xmlns="http://www.w3.org/2000/svg"
   xmlns:sodipodi="http://sodipodi.sourceforge.net/DTD/sodipodi-0.dtd"
   xmlns:inkscape="http://www.inkscape.org/namespaces/inkscape"
   width="223.02386mm"
   height="62.112171mm"
   viewBox="0 0 790.24204 220.0825"
   id="svg3924"
   version="1.1"
   inkscape:version="0.91 r13725"
   sodipodi:docname="BGPIdentificarPorta.svg">
<defs><style type="text/css">@import url(https://fonts.googleapis.com/css?family=Lora:400,400italic,700,700italic)</style></defs>
  <defs
     id="defs3926">
    <linearGradient
       x1="197.63"
       y1="99.410004"
       x2="-55.278"
       y2="99.410004"
       gradientUnits="userSpaceOnUse"
       spreadMethod="pad"
       id="linearGradient396">
      <stop
         style="stop-opacity:1;stop-color:#ffffff"
         offset="0"
         id="stop398" />
      <stop
         style="stop-opacity:1;stop-color:#66ccff"
         offset="1"
         id="stop400" />
    </linearGradient>
    <linearGradient
       x1="492.62"
       y1="115.91"
       x2="745.53003"
       y2="115.91"
       gradientUnits="userSpaceOnUse"
       spreadMethod="pad"
       id="linearGradient132">
      <stop
         style="stop-opacity:1;stop-color:#ffffff"
         offset="0"
         id="stop134" />
      <stop
         style="stop-opacity:1;stop-color:#66ccff"
         offset="1"
         id="stop136" />
    </linearGradient>
  </defs>
  <sodipodi:namedview
     id="base"
     pagecolor="#ffffff"
     bordercolor="#666666"
     borderopacity="1.0"
     inkscape:pageopacity="0.0"
     inkscape:pageshadow="2"
     inkscape:zoom="1.2667005"
     inkscape:cx="391.76045"
     inkscape:cy="171.87041"
     inkscape:document-units="px"
     inkscape:current-layer="layer1"
     showgrid="false"
     fit-margin-top="0"
     fit-margin-left="0"
     fit-margin-right="0"
     fit-margin-bottom="0"
     inkscape:window-width="1166"
     inkscape:window-height="1056"
     inkscape:window-x="2121"
     inkscape:window-y="0"
     inkscape:window-maximized="0" />
  <metadata
     id="metadata3929">
    <rdf:RDF>
      <cc:Work
         rdf:about="">
        <dc:format>image/svg+xml</dc:format>
        <dc:type
           rdf:resource="http://purl.org/dc/dcmitype/StillImage" />
        <dc:title></dc:title>
      </cc:Work>
    </rdf:RDF>
  </metadata>
  <g
     inkscape:label="Layer 1"
     inkscape:groupmode="layer"
     id="layer1"
     transform="translate(86.909368,-422.32096)">
    <g
       transform="matrix(1.25,0,0,-1.25,-123.19148,687.19575)"
       id="g130">
      <path
         d="m 578,135.38 c 4.25,11.62 9.5,20.75 22.62,27.75 13.13,7 46.88,21.5 56.25,14.5 9.38,-7 -0.5,-36.25 -0.25,-56.63 0.25,-20.37 8.75,-55.875 2,-65.375 -6.75,-9.5 -29.37,4.125 -42.37,8.75 -13,4.625 -29.5,7.25 -35.88,19.125 -6.37,11.75 -1.87,41 -2.37,51.88 z"
         style="fill:url(#linearGradient132);fill-opacity:1;fill-rule:evenodd;stroke:none"
         id="path138"
         inkscape:connector-curvature="0" />
    </g>
    <path
       d="m 402.12102,524.83325 c 9.725,-14.525 27.1875,-31.3875 51.4,-34.675 24.2125,-3.275 72.975,6.5625 94.225,15.225 21.2375,8.675 30.6375,22.9625 33.6,37.4875 2.9625,14.5125 -0.5,37.93875 -15.8125,49.65125 -15.325,11.71125 -49.75,21.54875 -76.1,21.08 -26.3625,-0.4675 -67.5375,-9.135 -82.0375,-23.89125 -14.4875,-14.75625 -4.1125,-51.3025 -5.275,-64.8775 z"
       style="fill:#66ccff;fill-opacity:1;fill-rule:evenodd;stroke:none"
       id="path140"
       inkscape:connector-curvature="0" />
    <path
       d="m 35.671025,472.94575 c 9.8,-11.7125 4.4125,-21.5625 12.7,-28.3375 8.275,-6.775 18.35,-8.9375 36.975,-12.325 18.624995,-3.3875 57.674995,-15.0875 74.512495,-7.3875 16.8375,7.7 28.9875,32.95 26.6375,52.975 -2.35,20.025 -20.2875,54.825 -40.3,66.525 -20,11.7125 -60.712495,7.7 -80.299995,3.7 -19.6,-4 -32.4375,-14.475 -37.4,-27.1 -4.9625,-12.6375 5.6625,-38.2 7.175,-48.05 z"
       style="fill:#66ccff;fill-opacity:1;fill-rule:evenodd;stroke:none"
       id="path142"
       inkscape:connector-curvature="0" />
    <path
       d="m 85.558525,508.28325 39.374995,-17.8125"
       style="fill:none;stroke:#000000;stroke-width:1.25;stroke-linecap:butt;stroke-linejoin:round;stroke-miterlimit:10;stroke-dasharray:none;stroke-opacity:1"
       id="path144"
       inkscape:connector-curvature="0" />
    <text
       y="541.13324"
       x="89.158524"
       style="font-variant:normal;font-weight:normal;font-size:25px;font-family:Arial;-inkscape-font-specification:Arial;writing-mode:lr-tb;fill:#000000;fill-opacity:1;fill-rule:nonzero;stroke:none"
       id="text146">
      <tspan
         x="89.158524 105.90852 122.65852"
         y="541.13324"
         sodipodi:role="line"
         id="tspan148">AS3</tspan>
    </text>
    <text
       y="604.38324"
       x="464.72101"
       style="font-variant:normal;font-weight:normal;font-size:22.5px;font-family:Arial;-inkscape-font-specification:Arial;writing-mode:lr-tb;fill:#000000;fill-opacity:1;fill-rule:nonzero;stroke:none"
       id="text150">
      <tspan
         x="464.72101 479.72101 494.72101"
         y="604.38324"
         sodipodi:role="line"
         id="tspan152">AS2</tspan>
    </text>
    <path
       d="m 443.68352,546.25825 42.8125,-18.9125"
       style="fill:none;stroke:#000000;stroke-width:1.25;stroke-linecap:butt;stroke-linejoin:round;stroke-miterlimit:10;stroke-dasharray:none;stroke-opacity:1"
       id="path154"
       inkscape:connector-curvature="0" />
    <path
       d="m 130.55852,481.40825 -23.75,-17.1875"
       style="fill:none;stroke:#000000;stroke-width:1.25;stroke-linecap:butt;stroke-linejoin:round;stroke-miterlimit:10;stroke-dasharray:none;stroke-opacity:1"
       id="path156"
       inkscape:connector-curvature="0" />
    <path
       d="m 77.908525,463.59575 -14.5375,37.0375"
       style="fill:none;stroke:#000000;stroke-width:1.25;stroke-linecap:butt;stroke-linejoin:round;stroke-miterlimit:10;stroke-dasharray:none;stroke-opacity:1"
       id="path158"
       inkscape:connector-curvature="0" />
    <path
       d="m 37.908525,514.77075 c 0,-3.4875 10.9375,-6.325 24.45,-6.325 l 0,0 c 13.5,0 24.45,2.8375 24.45,6.325 0,0 0,0 0,0 l 0,0 c 0,3.5 -10.95,6.3375 -24.45,6.3375 0,0 0,0 0,0 l 0,0 c -13.5125,0 -24.45,-2.8375 -24.45,-6.3375 0,0 0,0 0,0 z"
       style="fill:#ccccff;fill-opacity:1;fill-rule:evenodd;stroke:none"
       id="path160"
       inkscape:connector-curvature="0" />
    <path
       d="m 37.908525,514.77075 c 0,-3.4875 10.9375,-6.325 24.45,-6.325 l 0,0 c 13.5,0 24.45,2.8375 24.45,6.325 0,0 0,0 0,0 l 0,0 c 0,3.5 -10.95,6.3375 -24.45,6.3375 0,0 0,0 0,0 l 0,0 c -13.5125,0 -24.45,-2.8375 -24.45,-6.3375 0,0 0,0 0,0 z"
       style="fill:none;stroke:#000000;stroke-width:1.25;stroke-linecap:butt;stroke-linejoin:round;stroke-miterlimit:10;stroke-dasharray:none;stroke-opacity:1"
       id="path162"
       inkscape:connector-curvature="0" />
    <path
       d="m 37.908525,507.34575 0,7.8125"
       style="fill:none;stroke:#000000;stroke-width:1.25;stroke-linecap:butt;stroke-linejoin:round;stroke-miterlimit:10;stroke-dasharray:none;stroke-opacity:1"
       id="path164"
       inkscape:connector-curvature="0" />
    <path
       d="m 86.808525,507.34575 0,7.8125"
       style="fill:none;stroke:#000000;stroke-width:1.25;stroke-linecap:butt;stroke-linejoin:round;stroke-miterlimit:10;stroke-dasharray:none;stroke-opacity:1"
       id="path166"
       inkscape:connector-curvature="0" />
    <path
       d="m 37.908525,515.00825 48.4375,0 0,-7.65638 -48.4375,0 0,7.65638 z"
       style="fill:#ccccff;fill-opacity:1;fill-rule:evenodd;stroke:none"
       id="path168"
       inkscape:connector-curvature="0" />
    <path
       d="m 37.433525,505.55825 c 0,-4.1 10.95,-7.425 24.45,-7.425 l 0,0 c 13.5125,0 24.4625,3.325 24.4625,7.425 0,0 0,0 0,0 l 0,0 c 0,4.1 -10.95,7.425 -24.4625,7.425 0,0 0,0 0,0 l 0,0 c -13.5,0 -24.45,-3.325 -24.45,-7.425 0,0 0,0 0,0 z"
       style="fill:#ccccff;fill-opacity:1;fill-rule:evenodd;stroke:none"
       id="path170"
       inkscape:connector-curvature="0" />
    <path
       d="m 37.433525,505.55825 c 0,-4.1 10.95,-7.425 24.45,-7.425 l 0,0 c 13.5125,0 24.4625,3.325 24.4625,7.425 0,0 0,0 0,0 l 0,0 c 0,4.1 -10.95,7.425 -24.4625,7.425 0,0 0,0 0,0 l 0,0 c -13.5,0 -24.45,-3.325 -24.45,-7.425 0,0 0,0 0,0 z"
       style="fill:none;stroke:#000000;stroke-width:1.25;stroke-linecap:butt;stroke-linejoin:round;stroke-miterlimit:10;stroke-dasharray:none;stroke-opacity:1"
       id="path172"
       inkscape:connector-curvature="0" />
    <path
       d="m 51.033525,519.53325 22.03125,0 0,-19.375 -22.03125,0 0,19.375 z"
       style="fill:#ccccff;fill-opacity:1;fill-rule:evenodd;stroke:none"
       id="path174"
       inkscape:connector-curvature="0" />
    <text
       y="518.94574"
       x="48.746014"
       style="font-variant:normal;font-weight:normal;font-size:25px;font-family:Arial;-inkscape-font-specification:Arial;writing-mode:lr-tb;fill:#000000;fill-opacity:1;fill-rule:nonzero;stroke:none"
       id="text176">
      <tspan
         x="48.746014 62.746014"
         y="518.94574"
         sodipodi:role="line"
         id="tspan178">3b</tspan>
    </text>
    <path
       d="m 64.471025,459.30825 c 0,-3.5 10.9375,-6.3375 24.45,-6.3375 l 0,0 c 13.499995,0 24.449995,2.8375 24.449995,6.3375 0,0 0,0 0,0 l 0,0 c 0,3.4875 -10.95,6.325 -24.449995,6.325 0,0 0,0 0,0 l 0,0 c -13.5125,0 -24.45,-2.8375 -24.45,-6.325 0,0 0,0 0,0 z"
       style="fill:#ccccff;fill-opacity:1;fill-rule:evenodd;stroke:none"
       id="path180"
       inkscape:connector-curvature="0" />
    <path
       d="m 64.471025,459.30825 c 0,-3.5 10.9375,-6.3375 24.45,-6.3375 l 0,0 c 13.499995,0 24.449995,2.8375 24.449995,6.3375 0,0 0,0 0,0 l 0,0 c 0,3.4875 -10.95,6.325 -24.449995,6.325 0,0 0,0 0,0 l 0,0 c -13.5125,0 -24.45,-2.8375 -24.45,-6.325 0,0 0,0 0,0 z"
       style="fill:none;stroke:#000000;stroke-width:1.25;stroke-linecap:butt;stroke-linejoin:round;stroke-miterlimit:10;stroke-dasharray:none;stroke-opacity:1"
       id="path182"
       inkscape:connector-curvature="0" />
    <path
       d="m 64.471025,451.88325 0,7.8125"
       style="fill:none;stroke:#000000;stroke-width:1.25;stroke-linecap:butt;stroke-linejoin:round;stroke-miterlimit:10;stroke-dasharray:none;stroke-opacity:1"
       id="path184"
       inkscape:connector-curvature="0" />
    <path
       d="m 113.37102,451.88325 0,7.8125"
       style="fill:none;stroke:#000000;stroke-width:1.25;stroke-linecap:butt;stroke-linejoin:round;stroke-miterlimit:10;stroke-dasharray:none;stroke-opacity:1"
       id="path186"
       inkscape:connector-curvature="0" />
    <path
       d="m 64.471025,459.53325 48.437495,0 0,-7.65625 -48.437495,0 0,7.65625 z"
       style="fill:#ccccff;fill-opacity:1;fill-rule:evenodd;stroke:none"
       id="path188"
       inkscape:connector-curvature="0" />
    <path
       d="m 63.996025,450.08325 c 0,-4.1 10.95,-7.425 24.45,-7.425 l 0,0 c 13.512495,0 24.462495,3.325 24.462495,7.425 0,0 0,0 0,0 l 0,0 c 0,4.1 -10.95,7.425 -24.462495,7.425 0,0 0,0 0,0 l 0,0 c -13.5,0 -24.45,-3.325 -24.45,-7.425 0,0 0,0 0,0 z"
       style="fill:#ccccff;fill-opacity:1;fill-rule:evenodd;stroke:none"
       id="path190"
       inkscape:connector-curvature="0" />
    <path
       d="m 63.996025,450.08325 c 0,-4.1 10.95,-7.425 24.45,-7.425 l 0,0 c 13.512495,0 24.462495,3.325 24.462495,7.425 0,0 0,0 0,0 l 0,0 c 0,4.1 -10.95,7.425 -24.462495,7.425 0,0 0,0 0,0 l 0,0 c -13.5,0 -24.45,-3.325 -24.45,-7.425 0,0 0,0 0,0 z"
       style="fill:none;stroke:#000000;stroke-width:1.25;stroke-linecap:butt;stroke-linejoin:round;stroke-miterlimit:10;stroke-dasharray:none;stroke-opacity:1"
       id="path192"
       inkscape:connector-curvature="0" />
    <path
       d="m 77.246025,464.07075 21.805,0 0,-20.625 -21.805,0 0,20.625 z"
       style="fill:#ccccff;fill-opacity:1;fill-rule:evenodd;stroke:none"
       id="path194"
       inkscape:connector-curvature="0" />
    <text
       y="462.19574"
       x="75.583527"
       style="font-variant:normal;font-weight:normal;font-size:25px;font-family:Arial;-inkscape-font-specification:Arial;writing-mode:lr-tb;fill:#000000;fill-opacity:1;fill-rule:nonzero;stroke:none"
       id="text196">
      <tspan
         x="75.583527 89.614777"
         y="462.19574"
         sodipodi:role="line"
         id="tspan198">3c</tspan>
    </text>
    <path
       d="m 121.34602,496.02075 c 0,-3.4875 10.9375,-6.325 24.45,-6.325 l 0,0 c 13.5,0 24.45,2.8375 24.45,6.325 0,0 0,0 0,0 l 0,0 c 0,3.5 -10.95,6.3375 -24.45,6.3375 0,0 0,0 0,0 l 0,0 c -13.5125,0 -24.45,-2.8375 -24.45,-6.3375 0,0 0,0 0,0 z"
       style="fill:#ccccff;fill-opacity:1;fill-rule:evenodd;stroke:none"
       id="path200"
       inkscape:connector-curvature="0" />
    <path
       d="m 121.34602,496.02075 c 0,-3.4875 10.9375,-6.325 24.45,-6.325 l 0,0 c 13.5,0 24.45,2.8375 24.45,6.325 0,0 0,0 0,0 l 0,0 c 0,3.5 -10.95,6.3375 -24.45,6.3375 0,0 0,0 0,0 l 0,0 c -13.5125,0 -24.45,-2.8375 -24.45,-6.3375 0,0 0,0 0,0 z"
       style="fill:none;stroke:#000000;stroke-width:1.25;stroke-linecap:butt;stroke-linejoin:round;stroke-miterlimit:10;stroke-dasharray:none;stroke-opacity:1"
       id="path202"
       inkscape:connector-curvature="0" />
    <path
       d="m 121.34602,488.59575 0,7.8125"
       style="fill:none;stroke:#000000;stroke-width:1.25;stroke-linecap:butt;stroke-linejoin:round;stroke-miterlimit:10;stroke-dasharray:none;stroke-opacity:1"
       id="path204"
       inkscape:connector-curvature="0" />
    <path
       d="m 170.24602,488.59575 0,7.8125"
       style="fill:none;stroke:#000000;stroke-width:1.25;stroke-linecap:butt;stroke-linejoin:round;stroke-miterlimit:10;stroke-dasharray:none;stroke-opacity:1"
       id="path206"
       inkscape:connector-curvature="0" />
    <path
       d="m 121.34602,496.25825 48.4375,0 0,-7.65638 -48.4375,0 0,7.65638 z"
       style="fill:#ccccff;fill-opacity:1;fill-rule:evenodd;stroke:none"
       id="path208"
       inkscape:connector-curvature="0" />
    <path
       d="m 120.87102,486.80825 c 0,-4.1 10.95,-7.425 24.45,-7.425 l 0,0 c 13.5125,0 24.4625,3.325 24.4625,7.425 0,0 0,0 0,0 l 0,0 c 0,4.1 -10.95,7.425 -24.4625,7.425 0,0 0,0 0,0 l 0,0 c -13.5,0 -24.45,-3.325 -24.45,-7.425 0,0 0,0 0,0 z"
       style="fill:#ccccff;fill-opacity:1;fill-rule:evenodd;stroke:none"
       id="path210"
       inkscape:connector-curvature="0" />
    <path
       d="m 120.87102,486.80825 c 0,-4.1 10.95,-7.425 24.45,-7.425 l 0,0 c 13.5125,0 24.4625,3.325 24.4625,7.425 0,0 0,0 0,0 l 0,0 c 0,4.1 -10.95,7.425 -24.4625,7.425 0,0 0,0 0,0 l 0,0 c -13.5,0 -24.45,-3.325 -24.45,-7.425 0,0 0,0 0,0 z"
       style="fill:none;stroke:#000000;stroke-width:1.25;stroke-linecap:butt;stroke-linejoin:round;stroke-miterlimit:10;stroke-dasharray:none;stroke-opacity:1"
       id="path212"
       inkscape:connector-curvature="0" />
    <path
       d="m 134.47102,498.59575 22.1875,0 0,-17.1875 -22.1875,0 0,17.1875 z"
       style="fill:#ccccff;fill-opacity:1;fill-rule:evenodd;stroke:none"
       id="path214"
       inkscape:connector-curvature="0" />
    <text
       y="499.09576"
       x="132.18352"
       style="font-variant:normal;font-weight:normal;font-size:25px;font-family:Arial;-inkscape-font-specification:Arial;writing-mode:lr-tb;fill:#000000;fill-opacity:1;fill-rule:nonzero;stroke:none"
       id="text216">
      <tspan
         x="132.18352 146.18352"
         y="499.09576"
         sodipodi:role="line"
         id="tspan218">3a</tspan>
    </text>
    <path
       d="m 149.32102,558.17075 c 8.775,-14.1 24.325,-18.8 41.6875,-24.3 17.375,-5.5125 41.8625,-11.9875 62.5375,-8.75 20.675,3.2375 40.0375,17.175 61.5375,28.1875 21.5125,11.0125 64.1875,25.7525 67.3375,37.90125 3.1375,12.14875 -24.325,28.8325 -48.3125,34.9875 -23.9875,6.155 -63.6875,3.23875 -96.275,1.94375 -32.5875,-1.29625 -84.7,1.94375 -99.425,-9.71875 -14.725,-11.6625 2.15,-46.16375 10.9125,-60.25125 z"
       style="fill:#66ccff;fill-opacity:1;fill-rule:evenodd;stroke:none"
       id="path220"
       inkscape:connector-curvature="0" />
    <text
       y="618.19574"
       x="155.74602"
       style="font-variant:normal;font-weight:normal;font-size:25px;font-family:Arial;-inkscape-font-specification:Arial;writing-mode:lr-tb;fill:#000000;fill-opacity:1;fill-rule:nonzero;stroke:none"
       id="text222">
      <tspan
         x="155.74602 172.49603 189.24603"
         y="618.19574"
         sodipodi:role="line"
         id="tspan224">AS1</tspan>
    </text>
    <path
       d="m 226.03352,549.38325 -14.5375,15.9375"
       style="fill:none;stroke:#000000;stroke-width:1.25;stroke-linecap:butt;stroke-linejoin:round;stroke-miterlimit:10;stroke-dasharray:none;stroke-opacity:1"
       id="path226"
       inkscape:connector-curvature="0" />
    <path
       d="m 251.18352,552.82075 0.475,44.53125"
       style="fill:none;stroke:#000000;stroke-width:1.25;stroke-linecap:butt;stroke-linejoin:round;stroke-miterlimit:10;stroke-dasharray:none;stroke-opacity:1"
       id="path228"
       inkscape:connector-curvature="0" />
    <path
       d="m 267.12102,548.13325 48.9125,32.96875"
       style="fill:none;stroke:#000000;stroke-width:1.25;stroke-linecap:butt;stroke-linejoin:round;stroke-miterlimit:10;stroke-dasharray:none;stroke-opacity:1"
       id="path230"
       inkscape:connector-curvature="0" />
    <path
       d="m 316.03352,593.13325 -37.0375,11.875"
       style="fill:none;stroke:#000000;stroke-width:1.25;stroke-linecap:butt;stroke-linejoin:round;stroke-miterlimit:10;stroke-dasharray:none;stroke-opacity:1"
       id="path232"
       inkscape:connector-curvature="0" />
    <path
       d="m 310.87102,583.75825 -88.75,-7.96875"
       style="fill:none;stroke:#000000;stroke-width:1.25;stroke-linecap:butt;stroke-linejoin:round;stroke-miterlimit:10;stroke-dasharray:none;stroke-opacity:1"
       id="path234"
       inkscape:connector-curvature="0" />
    <path
       d="m 212.90852,583.75825 19.8375,13.28125"
       style="fill:none;stroke:#000000;stroke-width:1.25;stroke-linecap:butt;stroke-linejoin:round;stroke-miterlimit:10;stroke-dasharray:none;stroke-opacity:1"
       id="path236"
       inkscape:connector-curvature="0" />
    <path
       d="m 222.59602,547.58325 c 0,-3.4875 10.9375,-6.325 24.45,-6.325 l 0,0 c 13.5,0 24.45,2.8375 24.45,6.325 0,0 0,0 0,0 l 0,0 c 0,3.5 -10.95,6.3375 -24.45,6.3375 0,0 0,0 0,0 l 0,0 c -13.5125,0 -24.45,-2.8375 -24.45,-6.3375 0,0 0,0 0,0 z"
       style="fill:#ccccff;fill-opacity:1;fill-rule:evenodd;stroke:none"
       id="path238"
       inkscape:connector-curvature="0" />
    <path
       d="m 222.59602,547.58325 c 0,-3.4875 10.9375,-6.325 24.45,-6.325 l 0,0 c 13.5,0 24.45,2.8375 24.45,6.325 0,0 0,0 0,0 l 0,0 c 0,3.5 -10.95,6.3375 -24.45,6.3375 0,0 0,0 0,0 l 0,0 c -13.5125,0 -24.45,-2.8375 -24.45,-6.3375 0,0 0,0 0,0 z"
       style="fill:none;stroke:#000000;stroke-width:1.25;stroke-linecap:butt;stroke-linejoin:round;stroke-miterlimit:10;stroke-dasharray:none;stroke-opacity:1"
       id="path240"
       inkscape:connector-curvature="0" />
    <path
       d="m 222.59602,540.17075 0,7.8125"
       style="fill:none;stroke:#000000;stroke-width:1.25;stroke-linecap:butt;stroke-linejoin:round;stroke-miterlimit:10;stroke-dasharray:none;stroke-opacity:1"
       id="path242"
       inkscape:connector-curvature="0" />
    <path
       d="m 271.49602,540.17075 0,7.8125"
       style="fill:none;stroke:#000000;stroke-width:1.25;stroke-linecap:butt;stroke-linejoin:round;stroke-miterlimit:10;stroke-dasharray:none;stroke-opacity:1"
       id="path244"
       inkscape:connector-curvature="0" />
    <path
       d="m 222.59602,547.82075 48.4375,0 0,-7.65625 -48.4375,0 0,7.65625 z"
       style="fill:#ccccff;fill-opacity:1;fill-rule:evenodd;stroke:none"
       id="path246"
       inkscape:connector-curvature="0" />
    <path
       d="m 222.12102,538.37075 c 0,-4.1 10.95,-7.425 24.45,-7.425 l 0,0 c 13.5125,0 24.4625,3.325 24.4625,7.425 0,0 0,0 0,0 l 0,0 c 0,4.1 -10.95,7.425 -24.4625,7.425 0,0 0,0 0,0 l 0,0 c -13.5,0 -24.45,-3.325 -24.45,-7.425 0,0 0,0 0,0 z"
       style="fill:#ccccff;fill-opacity:1;fill-rule:evenodd;stroke:none"
       id="path248"
       inkscape:connector-curvature="0" />
    <path
       d="m 222.12102,538.37075 c 0,-4.1 10.95,-7.425 24.45,-7.425 l 0,0 c 13.5125,0 24.4625,3.325 24.4625,7.425 0,0 0,0 0,0 l 0,0 c 0,4.1 -10.95,7.425 -24.4625,7.425 0,0 0,0 0,0 l 0,0 c -13.5,0 -24.45,-3.325 -24.45,-7.425 0,0 0,0 0,0 z"
       style="fill:none;stroke:#000000;stroke-width:1.25;stroke-linecap:butt;stroke-linejoin:round;stroke-miterlimit:10;stroke-dasharray:none;stroke-opacity:1"
       id="path250"
       inkscape:connector-curvature="0" />
    <path
       d="m 235.45852,552.67075 21.96125,0 0,-20.625 -21.96125,0 0,20.625 z"
       style="fill:#ccccff;fill-opacity:1;fill-rule:evenodd;stroke:none"
       id="path252"
       inkscape:connector-curvature="0" />
    <text
       y="550.84576"
       x="233.93353"
       style="font-variant:normal;font-weight:normal;font-size:25.03125px;font-family:Arial;-inkscape-font-specification:Arial;writing-mode:lr-tb;fill:#000000;fill-opacity:1;fill-rule:nonzero;stroke:none"
       id="text254">
      <tspan
         x="233.93353 247.93353"
         y="550.84576"
         sodipodi:role="line"
         id="tspan256">1c</tspan>
    </text>
    <path
       d="m 174.78352,580.39825 c 0,-3.49375 10.9375,-6.3275 24.45,-6.3275 l 0,0 c 13.5,0 24.45,2.83375 24.45,6.3275 0,0 0,0.001 0,0.001 l 0,0 c 0,3.495 -10.95,6.3275 -24.45,6.3275 0,0 0,0 0,0 l 0,0 c -13.5125,0 -24.45,-2.8325 -24.45,-6.3275 0,0 0,0 0,0 l 0,-0.001 z"
       style="fill:#ccccff;fill-opacity:1;fill-rule:evenodd;stroke:none"
       id="path258"
       inkscape:connector-curvature="0" />
    <path
       d="m 174.78352,580.39825 c 0,-3.49375 10.9375,-6.3275 24.45,-6.3275 l 0,0 c 13.5,0 24.45,2.83375 24.45,6.3275 0,0 0,0.001 0,0.001 l 0,0 c 0,3.495 -10.95,6.3275 -24.45,6.3275 0,0 0,0 0,0 l 0,0 c -13.5125,0 -24.45,-2.8325 -24.45,-6.3275 0,0 0,0 0,0 l 0,-0.001 z"
       style="fill:none;stroke:#000000;stroke-width:1.25;stroke-linecap:butt;stroke-linejoin:round;stroke-miterlimit:10;stroke-dasharray:none;stroke-opacity:1"
       id="path260"
       inkscape:connector-curvature="0" />
    <path
       d="m 174.78352,572.977 0,7.8125"
       style="fill:none;stroke:#000000;stroke-width:1.25;stroke-linecap:butt;stroke-linejoin:round;stroke-miterlimit:10;stroke-dasharray:none;stroke-opacity:1"
       id="path262"
       inkscape:connector-curvature="0" />
    <path
       d="m 223.68352,572.977 0,7.8125"
       style="fill:none;stroke:#000000;stroke-width:1.25;stroke-linecap:butt;stroke-linejoin:round;stroke-miterlimit:10;stroke-dasharray:none;stroke-opacity:1"
       id="path264"
       inkscape:connector-curvature="0" />
    <path
       d="m 174.78352,580.63325 48.4375,0 0,-7.65625 -48.4375,0 0,7.65625 z"
       style="fill:#ccccff;fill-opacity:1;fill-rule:evenodd;stroke:none"
       id="path266"
       inkscape:connector-curvature="0" />
    <path
       d="m 174.30852,571.80575 c 0,-4.1 10.95,-7.4225 24.45,-7.4225 l 0,0 c 13.5125,0 24.4625,3.3225 24.4625,7.4225 0,0 0,0 0,0 l 0,0 c 0,4.09875 -10.95,7.42125 -24.4625,7.42125 0,0 0,0 0,0 l 0,0 c -13.5,0 -24.45,-3.3225 -24.45,-7.42125 0,0 0,0 0,0 z"
       style="fill:#ccccff;fill-opacity:1;fill-rule:evenodd;stroke:none"
       id="path268"
       inkscape:connector-curvature="0" />
    <path
       d="m 174.30852,571.80575 c 0,-4.1 10.95,-7.4225 24.45,-7.4225 l 0,0 c 13.5125,0 24.4625,3.3225 24.4625,7.4225 0,0 0,0 0,0 l 0,0 c 0,4.09875 -10.95,7.42125 -24.4625,7.42125 0,0 0,0 0,0 l 0,0 c -13.5,0 -24.45,-3.3225 -24.45,-7.42125 0,0 0,0 0,0 z"
       style="fill:none;stroke:#000000;stroke-width:1.25;stroke-linecap:butt;stroke-linejoin:round;stroke-miterlimit:10;stroke-dasharray:none;stroke-opacity:1"
       id="path270"
       inkscape:connector-curvature="0" />
    <path
       d="m 187.59602,583.602 22.1875,0 0,-15 -22.1875,0 0,15 z"
       style="fill:#ccccff;fill-opacity:1;fill-rule:evenodd;stroke:none"
       id="path272"
       inkscape:connector-curvature="0" />
    <text
       y="584.28949"
       x="185.97104"
       style="font-variant:normal;font-weight:normal;font-size:25px;font-family:Arial;-inkscape-font-specification:Arial;writing-mode:lr-tb;fill:#000000;fill-opacity:1;fill-rule:nonzero;stroke:none"
       id="text274">
      <tspan
         x="185.97104 199.97104"
         y="584.28949"
         sodipodi:role="line"
         id="tspan276">1a</tspan>
    </text>
    <path
       d="m 228.22102,609.46075 c 0,-3.49375 10.9375,-6.3275 24.45,-6.3275 l 0,0 c 13.5,0 24.45,2.83375 24.45,6.3275 0,0 0,0.001 0,0.001 l 0,0 c 0,3.495 -10.95,6.3275 -24.45,6.3275 0,0 0,0 0,0 l 0,0 c -13.5125,0 -24.45,-2.8325 -24.45,-6.3275 0,0 0,0 0,0 l 0,-0.001 z"
       style="fill:#ccccff;fill-opacity:1;fill-rule:evenodd;stroke:none"
       id="path278"
       inkscape:connector-curvature="0" />
    <path
       d="m 228.22102,609.46075 c 0,-3.49375 10.9375,-6.3275 24.45,-6.3275 l 0,0 c 13.5,0 24.45,2.83375 24.45,6.3275 0,0 0,0.001 0,0.001 l 0,0 c 0,3.495 -10.95,6.3275 -24.45,6.3275 0,0 0,0 0,0 l 0,0 c -13.5125,0 -24.45,-2.8325 -24.45,-6.3275 0,0 0,0 0,0 l 0,-0.001 z"
       style="fill:none;stroke:#000000;stroke-width:1.25;stroke-linecap:butt;stroke-linejoin:round;stroke-miterlimit:10;stroke-dasharray:none;stroke-opacity:1"
       id="path280"
       inkscape:connector-curvature="0" />
    <path
       d="m 228.22102,602.0395 0,7.8125"
       style="fill:none;stroke:#000000;stroke-width:1.25;stroke-linecap:butt;stroke-linejoin:round;stroke-miterlimit:10;stroke-dasharray:none;stroke-opacity:1"
       id="path282"
       inkscape:connector-curvature="0" />
    <path
       d="m 277.12102,602.0395 0,7.8125"
       style="fill:none;stroke:#000000;stroke-width:1.25;stroke-linecap:butt;stroke-linejoin:round;stroke-miterlimit:10;stroke-dasharray:none;stroke-opacity:1"
       id="path284"
       inkscape:connector-curvature="0" />
    <path
       d="m 228.22102,609.69575 48.4375,0 0,-7.65625 -48.4375,0 0,7.65625 z"
       style="fill:#ccccff;fill-opacity:1;fill-rule:evenodd;stroke:none"
       id="path286"
       inkscape:connector-curvature="0" />
    <path
       d="m 227.74602,600.24325 c 0,-4.1 10.95,-7.4225 24.45,-7.4225 l 0,0 c 13.5125,0 24.4625,3.3225 24.4625,7.4225 0,0 0,0 0,0 l 0,0 c 0,4.09875 -10.95,7.42125 -24.4625,7.42125 0,0 0,0 0,0 l 0,0 c -13.5,0 -24.45,-3.3225 -24.45,-7.42125 0,0 0,0 0,0 z"
       style="fill:#ccccff;fill-opacity:1;fill-rule:evenodd;stroke:none"
       id="path288"
       inkscape:connector-curvature="0" />
    <path
       d="m 227.74602,600.24325 c 0,-4.1 10.95,-7.4225 24.45,-7.4225 l 0,0 c 13.5125,0 24.4625,3.3225 24.4625,7.4225 0,0 0,0 0,0 l 0,0 c 0,4.09875 -10.95,7.42125 -24.4625,7.42125 0,0 0,0 0,0 l 0,0 c -13.5,0 -24.45,-3.3225 -24.45,-7.42125 0,0 0,0 0,0 z"
       style="fill:none;stroke:#000000;stroke-width:1.25;stroke-linecap:butt;stroke-linejoin:round;stroke-miterlimit:10;stroke-dasharray:none;stroke-opacity:1"
       id="path290"
       inkscape:connector-curvature="0" />
    <path
       d="m 241.25852,614.5395 22.3475,0 0,-20.625 -22.3475,0 0,20.625 z"
       style="fill:#ccccff;fill-opacity:1;fill-rule:evenodd;stroke:none"
       id="path292"
       inkscape:connector-curvature="0" />
    <text
       y="612.72699"
       x="239.24603"
       style="font-variant:normal;font-weight:normal;font-size:25px;font-family:Arial;-inkscape-font-specification:Arial;writing-mode:lr-tb;fill:#000000;fill-opacity:1;fill-rule:nonzero;stroke:none"
       id="text294">
      <tspan
         x="239.24603 253.24603"
         y="612.72699"
         sodipodi:role="line"
         id="tspan296">1d</tspan>
    </text>
    <path
       d="m 312.59602,591.64825 c 0,-3.49375 10.9375,-6.3275 24.45,-6.3275 l 0,0 c 13.5,0 24.45,2.83375 24.45,6.3275 0,0 0,0.001 0,0.001 l 0,0 c 0,3.495 -10.95,6.3275 -24.45,6.3275 0,0 0,0 0,0 l 0,0 c -13.5125,0 -24.45,-2.8325 -24.45,-6.3275 0,0 0,0 0,0 l 0,-0.001 z"
       style="fill:#ccccff;fill-opacity:1;fill-rule:evenodd;stroke:none"
       id="path298"
       inkscape:connector-curvature="0" />
    <path
       d="m 312.59602,591.64825 c 0,-3.49375 10.9375,-6.3275 24.45,-6.3275 l 0,0 c 13.5,0 24.45,2.83375 24.45,6.3275 0,0 0,0.001 0,0.001 l 0,0 c 0,3.495 -10.95,6.3275 -24.45,6.3275 0,0 0,0 0,0 l 0,0 c -13.5125,0 -24.45,-2.8325 -24.45,-6.3275 0,0 0,0 0,0 l 0,-0.001 z"
       style="fill:none;stroke:#000000;stroke-width:1.25;stroke-linecap:butt;stroke-linejoin:round;stroke-miterlimit:10;stroke-dasharray:none;stroke-opacity:1"
       id="path300"
       inkscape:connector-curvature="0" />
    <path
       d="m 312.59602,584.227 0,7.8125"
       style="fill:none;stroke:#000000;stroke-width:1.25;stroke-linecap:butt;stroke-linejoin:round;stroke-miterlimit:10;stroke-dasharray:none;stroke-opacity:1"
       id="path302"
       inkscape:connector-curvature="0" />
    <path
       d="m 361.49602,584.227 0,7.8125"
       style="fill:none;stroke:#000000;stroke-width:1.25;stroke-linecap:butt;stroke-linejoin:round;stroke-miterlimit:10;stroke-dasharray:none;stroke-opacity:1"
       id="path304"
       inkscape:connector-curvature="0" />
    <path
       d="m 312.59602,591.88325 48.4375,0 0,-7.65625 -48.4375,0 0,7.65625 z"
       style="fill:#ccccff;fill-opacity:1;fill-rule:evenodd;stroke:none"
       id="path306"
       inkscape:connector-curvature="0" />
    <path
       d="m 312.12102,582.43075 c 0,-4.1 10.95,-7.4225 24.45,-7.4225 l 0,0 c 13.5125,0 24.4625,3.3225 24.4625,7.4225 0,0 0,0 0,0 l 0,0 c 0,4.09875 -10.95,7.42125 -24.4625,7.42125 0,0 0,0 0,0 l 0,0 c -13.5,0 -24.45,-3.3225 -24.45,-7.42125 0,0 0,0 0,0 z"
       style="fill:#ccccff;fill-opacity:1;fill-rule:evenodd;stroke:none"
       id="path308"
       inkscape:connector-curvature="0" />
    <path
       d="m 312.12102,582.43075 c 0,-4.1 10.95,-7.4225 24.45,-7.4225 l 0,0 c 13.5125,0 24.4625,3.3225 24.4625,7.4225 0,0 0,0 0,0 l 0,0 c 0,4.09875 -10.95,7.42125 -24.4625,7.42125 0,0 0,0 0,0 l 0,0 c -13.5,0 -24.45,-3.3225 -24.45,-7.42125 0,0 0,0 0,0 z"
       style="fill:none;stroke:#000000;stroke-width:1.25;stroke-linecap:butt;stroke-linejoin:round;stroke-miterlimit:10;stroke-dasharray:none;stroke-opacity:1"
       id="path310"
       inkscape:connector-curvature="0" />
    <path
       d="m 325.37102,596.4145 21.81625,0 0,-20.625 -21.81625,0 0,20.625 z"
       style="fill:#ccccff;fill-opacity:1;fill-rule:evenodd;stroke:none"
       id="path312"
       inkscape:connector-curvature="0" />
    <text
       y="594.60199"
       x="323.34604"
       style="font-variant:normal;font-weight:normal;font-size:25px;font-family:Arial;-inkscape-font-specification:Arial;writing-mode:lr-tb;fill:#000000;fill-opacity:1;fill-rule:nonzero;stroke:none"
       id="text314">
      <tspan
         x="323.34604 337.34604"
         y="594.60199"
         sodipodi:role="line"
         id="tspan316">1b</tspan>
    </text>
    <path
       d="m 411.49602,557.27075 c 0,-3.4875 10.95,-6.325 24.45,-6.325 l 0,0 c 13.5125,0 24.4625,2.8375 24.4625,6.325 0,0 0,0 0,0 l 0,0 c 0,3.5 -10.95,6.33125 -24.4625,6.33125 0,0 0,0 0,0 l 0,0 c -13.5,0 -24.45,-2.83125 -24.45,-6.33125 0,0 0,0 0,0 z"
       style="fill:#ccccff;fill-opacity:1;fill-rule:evenodd;stroke:none"
       id="path318"
       inkscape:connector-curvature="0" />
    <path
       d="m 411.49602,557.27075 c 0,-3.4875 10.95,-6.325 24.45,-6.325 l 0,0 c 13.5125,0 24.4625,2.8375 24.4625,6.325 0,0 0,0 0,0 l 0,0 c 0,3.5 -10.95,6.33125 -24.4625,6.33125 0,0 0,0 0,0 l 0,0 c -13.5,0 -24.45,-2.83125 -24.45,-6.33125 0,0 0,0 0,0 z"
       style="fill:none;stroke:#000000;stroke-width:1.25;stroke-linecap:butt;stroke-linejoin:round;stroke-miterlimit:10;stroke-dasharray:none;stroke-opacity:1"
       id="path320"
       inkscape:connector-curvature="0" />
    <path
       d="m 411.49602,549.84575 0,7.8125"
       style="fill:none;stroke:#000000;stroke-width:1.25;stroke-linecap:butt;stroke-linejoin:round;stroke-miterlimit:10;stroke-dasharray:none;stroke-opacity:1"
       id="path322"
       inkscape:connector-curvature="0" />
    <path
       d="m 460.40852,549.84575 0,7.8125"
       style="fill:none;stroke:#000000;stroke-width:1.25;stroke-linecap:butt;stroke-linejoin:round;stroke-miterlimit:10;stroke-dasharray:none;stroke-opacity:1"
       id="path324"
       inkscape:connector-curvature="0" />
    <path
       d="m 411.49602,557.50825 48.4375,0 0,-7.65625 -48.4375,0 0,7.65625 z"
       style="fill:#ccccff;fill-opacity:1;fill-rule:evenodd;stroke:none"
       id="path326"
       inkscape:connector-curvature="0" />
    <path
       d="m 411.03352,548.05825 c 0,-4.1 10.9375,-7.425 24.45,-7.425 l 0,0 c 13.5,0 24.45,3.325 24.45,7.425 0,0 0,0 0,0 l 0,0 c 0,4.1 -10.95,7.425 -24.45,7.425 0,0 0,0 0,0 l 0,0 c -13.5125,0 -24.45,-3.325 -24.45,-7.425 0,0 0,0 0,0 z"
       style="fill:#ccccff;fill-opacity:1;fill-rule:evenodd;stroke:none"
       id="path328"
       inkscape:connector-curvature="0" />
    <path
       d="m 411.03352,548.05825 c 0,-4.1 10.9375,-7.425 24.45,-7.425 l 0,0 c 13.5,0 24.45,3.325 24.45,7.425 0,0 0,0 0,0 l 0,0 c 0,4.1 -10.95,7.425 -24.45,7.425 0,0 0,0 0,0 l 0,0 c -13.5125,0 -24.45,-3.325 -24.45,-7.425 0,0 0,0 0,0 z"
       style="fill:none;stroke:#000000;stroke-width:1.25;stroke-linecap:butt;stroke-linejoin:round;stroke-miterlimit:10;stroke-dasharray:none;stroke-opacity:1"
       id="path330"
       inkscape:connector-curvature="0" />
    <path
       d="m 424.62102,561.40825 22.03125,0 0,-18.75 -22.03125,0 0,18.75 z"
       style="fill:#ccccff;fill-opacity:1;fill-rule:evenodd;stroke:none"
       id="path332"
       inkscape:connector-curvature="0" />
    <text
       y="560.38324"
       x="422.43353"
       style="font-variant:normal;font-weight:normal;font-size:25.03125px;font-family:Arial;-inkscape-font-specification:Arial;writing-mode:lr-tb;fill:#000000;fill-opacity:1;fill-rule:nonzero;stroke:none"
       id="text334">
      <tspan
         x="422.43353 436.43353"
         y="560.38324"
         sodipodi:role="line"
         id="tspan336">2a</tspan>
    </text>
    <path
       d="m 531.18352,523.28325 84.375,0"
       style="fill:none;stroke:#000000;stroke-width:0.9375;stroke-linecap:butt;stroke-linejoin:round;stroke-miterlimit:10;stroke-dasharray:none;stroke-opacity:1"
       id="path338"
       inkscape:connector-curvature="0" />
    <path
       d="m 556.18352,569.07075 72.35,0"
       style="fill:none;stroke:#000000;stroke-width:0.9375;stroke-linecap:butt;stroke-linejoin:round;stroke-miterlimit:10;stroke-dasharray:none;stroke-opacity:1"
       id="path340"
       inkscape:connector-curvature="0" />
    <path
       d="m 460.87102,553.92075 48.125,14.99375"
       style="fill:none;stroke:#000000;stroke-width:1.25;stroke-linecap:butt;stroke-linejoin:round;stroke-miterlimit:10;stroke-dasharray:none;stroke-opacity:1"
       id="path342"
       inkscape:connector-curvature="0" />
    <path
       d="m 520.87102,534.07075 6.725,22.5"
       style="fill:none;stroke:#000000;stroke-width:1.25;stroke-linecap:butt;stroke-linejoin:round;stroke-miterlimit:10;stroke-dasharray:none;stroke-opacity:1"
       id="path344"
       inkscape:connector-curvature="0" />
    <path
       d="m 483.05852,528.83325 c 0,-3.4875 10.95,-6.325 24.45,-6.325 l 0,0 c 13.5125,0 24.4625,2.8375 24.4625,6.325 0,0 0,0 0,0 l 0,0 c 0,3.5 -10.95,6.3375 -24.4625,6.3375 0,0 0,0 0,0 l 0,0 c -13.5,0 -24.45,-2.8375 -24.45,-6.3375 0,0 0,0 0,0 z"
       style="fill:#ccccff;fill-opacity:1;fill-rule:evenodd;stroke:none"
       id="path346"
       inkscape:connector-curvature="0" />
    <path
       d="m 483.05852,528.83325 c 0,-3.4875 10.95,-6.325 24.45,-6.325 l 0,0 c 13.5125,0 24.4625,2.8375 24.4625,6.325 0,0 0,0 0,0 l 0,0 c 0,3.5 -10.95,6.3375 -24.4625,6.3375 0,0 0,0 0,0 l 0,0 c -13.5,0 -24.45,-2.8375 -24.45,-6.3375 0,0 0,0 0,0 z"
       style="fill:none;stroke:#000000;stroke-width:1.25;stroke-linecap:butt;stroke-linejoin:round;stroke-miterlimit:10;stroke-dasharray:none;stroke-opacity:1"
       id="path348"
       inkscape:connector-curvature="0" />
    <path
       d="m 483.05852,521.40825 0,7.825"
       style="fill:none;stroke:#000000;stroke-width:1.25;stroke-linecap:butt;stroke-linejoin:round;stroke-miterlimit:10;stroke-dasharray:none;stroke-opacity:1"
       id="path350"
       inkscape:connector-curvature="0" />
    <path
       d="m 531.97102,521.40825 0,7.825"
       style="fill:none;stroke:#000000;stroke-width:1.25;stroke-linecap:butt;stroke-linejoin:round;stroke-miterlimit:10;stroke-dasharray:none;stroke-opacity:1"
       id="path352"
       inkscape:connector-curvature="0" />
    <path
       d="m 483.05852,529.07075 48.4375,0 0,-7.65638 -48.4375,0 0,7.65638 z"
       style="fill:#ccccff;fill-opacity:1;fill-rule:evenodd;stroke:none"
       id="path354"
       inkscape:connector-curvature="0" />
    <path
       d="m 482.59602,519.62075 c 0,-4.1 10.9375,-7.425 24.45,-7.425 l 0,0 c 13.5,0 24.45,3.325 24.45,7.425 0,0 0,0 0,0 l 0,0 c 0,4.1 -10.95,7.425 -24.45,7.425 0,0 0,0 0,0 l 0,0 c -13.5125,0 -24.45,-3.325 -24.45,-7.425 0,0 0,0 0,0 z"
       style="fill:#ccccff;fill-opacity:1;fill-rule:evenodd;stroke:none"
       id="path356"
       inkscape:connector-curvature="0" />
    <path
       d="m 482.59602,519.62075 c 0,-4.1 10.9375,-7.425 24.45,-7.425 l 0,0 c 13.5,0 24.45,3.325 24.45,7.425 0,0 0,0 0,0 l 0,0 c 0,4.1 -10.95,7.425 -24.45,7.425 0,0 0,0 0,0 l 0,0 c -13.5125,0 -24.45,-3.325 -24.45,-7.425 0,0 0,0 0,0 z"
       style="fill:none;stroke:#000000;stroke-width:1.25;stroke-linecap:butt;stroke-linejoin:round;stroke-miterlimit:10;stroke-dasharray:none;stroke-opacity:1"
       id="path358"
       inkscape:connector-curvature="0" />
    <path
       d="m 496.18352,532.67075 22.03125,0 0,-18.4375 -22.03125,0 0,18.4375 z"
       style="fill:#ccccff;fill-opacity:1;fill-rule:evenodd;stroke:none"
       id="path360"
       inkscape:connector-curvature="0" />
    <text
       y="533.00824"
       x="494.62103"
       style="font-variant:normal;font-weight:normal;font-size:25px;font-family:Arial;-inkscape-font-specification:Arial;writing-mode:lr-tb;fill:#000000;fill-opacity:1;fill-rule:nonzero;stroke:none"
       id="text362">
      <tspan
         x="494.62103 508.62103"
         y="533.00824"
         sodipodi:role="line"
         id="tspan364">2c</tspan>
    </text>
    <path
       d="m 508.99602,573.68075 c 0,-3.495 10.95,-6.32875 24.45,-6.32875 l 0,0 c 13.5125,0 24.4625,2.83375 24.4625,6.32875 0,0 0,0 0,0 l 0,0 c 0,3.495 -10.95,6.3275 -24.4625,6.3275 0,0 0,0 0,0 l 0,0 c -13.5,0 -24.45,-2.8325 -24.45,-6.3275 0,0 0,0 0,0 z"
       style="fill:#ccccff;fill-opacity:1;fill-rule:evenodd;stroke:none"
       id="path366"
       inkscape:connector-curvature="0" />
    <path
       d="m 508.99602,573.68075 c 0,-3.495 10.95,-6.32875 24.45,-6.32875 l 0,0 c 13.5125,0 24.4625,2.83375 24.4625,6.32875 0,0 0,0 0,0 l 0,0 c 0,3.495 -10.95,6.3275 -24.4625,6.3275 0,0 0,0 0,0 l 0,0 c -13.5,0 -24.45,-2.8325 -24.45,-6.3275 0,0 0,0 0,0 z"
       style="fill:none;stroke:#000000;stroke-width:1.25;stroke-linecap:butt;stroke-linejoin:round;stroke-miterlimit:10;stroke-dasharray:none;stroke-opacity:1"
       id="path368"
       inkscape:connector-curvature="0" />
    <path
       d="m 508.99602,566.25825 0,7.8125"
       style="fill:none;stroke:#000000;stroke-width:1.25;stroke-linecap:butt;stroke-linejoin:round;stroke-miterlimit:10;stroke-dasharray:none;stroke-opacity:1"
       id="path370"
       inkscape:connector-curvature="0" />
    <path
       d="m 557.90852,566.25825 0,7.8125"
       style="fill:none;stroke:#000000;stroke-width:1.25;stroke-linecap:butt;stroke-linejoin:round;stroke-miterlimit:10;stroke-dasharray:none;stroke-opacity:1"
       id="path372"
       inkscape:connector-curvature="0" />
    <path
       d="m 508.99602,573.9145 48.4375,0 0,-7.65637 -48.4375,0 0,7.65637 z"
       style="fill:#ccccff;fill-opacity:1;fill-rule:evenodd;stroke:none"
       id="path374"
       inkscape:connector-curvature="0" />
    <path
       d="m 508.53352,564.462 c 0,-4.10375 10.9375,-7.41625 24.45,-7.41625 l 0,0 c 13.5,0 24.45,3.3125 24.45,7.41625 0,0 0,0 0,0 l 0,0 c 0,4.09875 -10.95,7.42125 -24.45,7.42125 0,0 0,0 0,0 l 0,0 c -13.5125,0 -24.45,-3.3225 -24.45,-7.42125 0,0 0,0 0,0 z"
       style="fill:#ccccff;fill-opacity:1;fill-rule:evenodd;stroke:none"
       id="path376"
       inkscape:connector-curvature="0" />
    <path
       d="m 508.53352,564.462 c 0,-4.10375 10.9375,-7.41625 24.45,-7.41625 l 0,0 c 13.5,0 24.45,3.3125 24.45,7.41625 0,0 0,0 0,0 l 0,0 c 0,4.09875 -10.95,7.42125 -24.45,7.42125 0,0 0,0 0,0 l 0,0 c -13.5125,0 -24.45,-3.3225 -24.45,-7.42125 0,0 0,0 0,0 z"
       style="fill:none;stroke:#000000;stroke-width:1.25;stroke-linecap:butt;stroke-linejoin:round;stroke-miterlimit:10;stroke-dasharray:none;stroke-opacity:1"
       id="path378"
       inkscape:connector-curvature="0" />
    <path
       d="m 522.12102,576.25825 22.1875,0 0,-17.1875 -22.1875,0 0,17.1875 z"
       style="fill:#ccccff;fill-opacity:1;fill-rule:evenodd;stroke:none"
       id="path380"
       inkscape:connector-curvature="0" />
    <text
       y="577.88324"
       x="519.97101"
       style="font-variant:normal;font-weight:normal;font-size:25px;font-family:Arial;-inkscape-font-specification:Arial;writing-mode:lr-tb;fill:#000000;fill-opacity:1;fill-rule:nonzero;stroke:none"
       id="text382">
      <tspan
         x="519.97101 533.97101"
         y="577.88324"
         sodipodi:role="line"
         id="tspan384">2b</tspan>
    </text>
    <g
       transform="matrix(1.25,0,0,-1.25,-123.19148,687.19575)"
       id="g394">
      <path
         d="m 112.25,118.88 c -4.25,11.62 -9.5,20.75 -22.625,27.75 -13.125,7 -46.875,21.5 -56.25,14.5 -9.375,-7 0.5,-36.25 0.25,-56.63 -0.25,-20.375 -8.75,-55.875 -2,-65.375 6.75,-9.5 29.375,4.125 42.375,8.75 13,4.625 29.5,7.25 35.87,19.125 6.38,11.75 1.88,41 2.38,51.88 z"
         style="fill:url(#linearGradient396);fill-opacity:1;fill-rule:evenodd;stroke:none"
         id="path402"
         inkscape:connector-curvature="0" />
    </g>
    <path
       d="m 37.283525,511.09575 -46.1000021,26.4125"
       style="fill:none;stroke:#000000;stroke-width:1.25;stroke-linecap:butt;stroke-linejoin:round;stroke-miterlimit:10;stroke-dasharray:none;stroke-opacity:1"
       id="path412"
       inkscape:connector-curvature="0" />
    <path
       d="m 361.65852,585.00825 51.5625,-25.775"
       style="fill:none;stroke:#000000;stroke-width:1.875;stroke-linecap:butt;stroke-linejoin:round;stroke-miterlimit:10;stroke-dasharray:none;stroke-opacity:1"
       id="path414"
       inkscape:connector-curvature="0" />
    <path
       d="m 153.68352,500.94575 69.375,40.3125"
       style="fill:none;stroke:#000000;stroke-width:1.875;stroke-linecap:butt;stroke-linejoin:round;stroke-miterlimit:10;stroke-dasharray:none;stroke-opacity:1"
       id="path416"
       inkscape:connector-curvature="0" />
    <path
       d="m 275.80852,551.08325 4.05,5.45 2.05,2.6875 2.0625,2.6125 2.1125,2.54375 2.15,2.47875 2.225,2.36875 2.2875,2.25 2.3625,2.13875 2.4625,1.98875 2.5625,1.82375 2.675,1.67 2.7875,1.4825 2.9375,1.29 1.5,0.56 1.55,0.52125 1.6125,0.46375 1.6375,0.4025 1.7125,0.3375 1.8125,0.2875 1.8875,0.21375 1.9875,0.1625 2.0625,0.10875 2.1375,0.045 2.2125,0 2.2625,-0.0563 4.6875,-0.24125 4.8375,-0.4175 4.925,-0.5575 4.9625,-0.67875 4.95,-0.79125 4.9,-0.86625 4.7625,-0.9225 2.3125,-0.475 2.275,-0.48375 2.2125,-0.49375 2.1625,-0.48625 2.0875,-0.485 2.0125,-0.48375 1.9375,-0.47625 1.8375,-0.4575 1.7375,-0.455 1.65,-0.43 1.5625,-0.42625 1.45,-0.445 2.825,-0.93375 2.6,-0.97625 2.3875,-1.0275 2.2125,-1.07375 2.05,-1.11125 2.6625,-1.95625 2.2,3.03125 -3.075,2.22125 -2.2,1.19375 -2.375,1.14 -2.55,1.09125 -2.725,1.02875 -2.9125,0.96 -1.5625,0.475 -1.6,0.43625 -1.65,0.43125 -1.7875,0.465 -1.85,0.46 -1.95,0.48125 -2.0375,0.49125 -2.1125,0.49 -2.1625,0.4875 -2.25,0.50125 -2.3,0.49 -2.3625,0.4825 -4.825,0.93375 -4.95,0.8775 -5.0375,0.8025 -5.05,0.69 -5.0375,0.5675 -4.95,0.42625 -4.8,0.245 -2.35,0.0575 -2.2875,0 -2.25,-0.05 -2.1875,-0.11625 -2.1,-0.17375 -2.05,-0.23625 -1.9625,-0.3125 -1.875,-0.375 -1.7875,-0.4425 -1.75,-0.51 -1.6875,-0.56625 -1.6875,-0.64 -3.175,-1.41 -3.025,-1.6125 -2.875,-1.7975 -2.7375,-1.96375 -2.6125,-2.11875 -2.4875,-2.2475 -2.4,-2.36375 -2.3,-2.46875 -2.2125,-2.545 -2.1625,-2.6125 -2.1125,-2.675 -2.0625,-2.7125 -4.05,-5.4625 3,-2.225 z m 120.675,12.3075 20.325,-5.1075 -8.1125,19.3275 -12.2125,-14.22 z"
       style="fill:#ff0000;fill-opacity:1;fill-rule:nonzero;stroke:none"
       id="path424"
       inkscape:connector-curvature="0" />
    <text
       xml:space="preserve"
       style="font-style:normal;font-weight:normal;font-size:40px;line-height:125%;font-family:sans-serif;letter-spacing:0px;word-spacing:0px;fill:#000000;fill-opacity:1;stroke:none;stroke-width:1px;stroke-linecap:butt;stroke-linejoin:miter;stroke-opacity:1"
       x="-76.51403"
       y="569.73523"
       id="text4232"
       sodipodi:linespacing="125%"><tspan
         sodipodi:role="line"
         id="tspan4234"
         x="-76.51403"
         y="569.73523"
         style="font-size:20px">outras</tspan><tspan
         sodipodi:role="line"
         x="-76.51403"
         y="594.73523"
         id="tspan4236"
         style="font-size:20px">redes</tspan></text>
    <text
       sodipodi:linespacing="125%"
       id="text4238"
       y="539.12958"
       x="626.23792"
       style="font-style:normal;font-weight:normal;font-size:40px;line-height:125%;font-family:sans-serif;letter-spacing:0px;word-spacing:0px;fill:#000000;fill-opacity:1;stroke:none;stroke-width:1px;stroke-linecap:butt;stroke-linejoin:miter;stroke-opacity:1"
       xml:space="preserve"><tspan
         style="font-size:20px"
         y="539.12958"
         x="626.23792"
         id="tspan4240"
         sodipodi:role="line">outras</tspan><tspan
         style="font-size:20px"
         id="tspan4242"
         y="564.12958"
         x="626.23792"
         sodipodi:role="line">redes</tspan></text>
    <path
       d="m 339.29267,506.40942 -43.475,31.6625 -1.4625,-2.0125 43.4625,-31.67501 1.475,2.02501 z m -35.4375,31.0125 -10.775,1.1 4.35,-9.9125 c 0.275,-0.6375 1.0125,-0.925 1.65,-0.6375 0.625,0.275 0.9125,1.0125 0.6375,1.6375 l -3.4875,7.9625 -1.275,-1.75 8.6375,-0.8875 c 0.6875,-0.0625 1.3,0.4375 1.375,1.125 0.075,0.6875 -0.425,1.3 -1.1125,1.3625 z"
       style="fill:#c00000;fill-opacity:1;fill-rule:nonzero;stroke:none"
       id="path4617"
       inkscape:connector-curvature="0" />
    <text
       y="530.08441"
       x="212.64265"
       style="font-variant:normal;font-weight:normal;font-size:22.5px;font-family:Arial;-inkscape-font-specification:Arial;writing-mode:lr-tb;fill:#c00000;fill-opacity:1;fill-rule:nonzero;stroke:none"
       id="text4635">
      <tspan
         x="212.64265"
         y="530.08441"
         id="tspan4637">1</tspan>
    </text>
    <text
       y="558.11566"
       x="203.14265"
       style="font-variant:normal;font-weight:normal;font-size:22.5px;font-family:Arial;-inkscape-font-specification:Arial;writing-mode:lr-tb;fill:#c00000;fill-opacity:1;fill-rule:nonzero;stroke:none"
       id="text4639">
      <tspan
         x="203.14265"
         y="558.11566"
         id="tspan4641">2</tspan>
    </text>
    <text
       y="571.61566"
       x="235.14265"
       style="font-variant:normal;font-weight:normal;font-size:22.5px;font-family:Arial;-inkscape-font-specification:Arial;writing-mode:lr-tb;fill:#c00000;fill-opacity:1;fill-rule:nonzero;stroke:none"
       id="text4643">
      <tspan
         x="235.14265"
         y="571.61566"
         id="tspan4645">3</tspan>
    </text>
    <text
       y="553.12189"
       x="276.68018"
       style="font-variant:normal;font-weight:normal;font-size:22.53125px;font-family:Arial;-inkscape-font-specification:Arial;writing-mode:lr-tb;fill:#c00000;fill-opacity:1;fill-rule:nonzero;stroke:none"
       id="text4647">
      <tspan
         x="276.68018"
         y="553.12189"
         id="tspan4649">4</tspan>
    </text>
    <text
       xml:space="preserve"
       style="font-style:normal;font-weight:normal;font-size:40px;line-height:125%;font-family:sans-serif;letter-spacing:0px;word-spacing:0px;fill:#c00000;fill-opacity:1;stroke:none;stroke-width:1px;stroke-linecap:butt;stroke-linejoin:miter;stroke-opacity:1"
       x="315.71143"
       y="470.3028"
       id="text4786"
       sodipodi:linespacing="125%"><tspan
         sodipodi:role="line"
         id="tspan4788"
         x="315.71143"
         y="470.3028"
         style="font-size:22.50000191px;fill:#c00000;fill-opacity:1">porta do</tspan><tspan
         sodipodi:role="line"
         x="315.71143"
         y="498.4278"
         id="tspan4790"
         style="font-size:22.50000191px;fill:#c00000;fill-opacity:1">roteador</tspan></text>
  </g>
</svg>
