<?xml version="1.0" encoding="UTF-8" standalone="no"?>
<!-- Created with Inkscape (http://www.inkscape.org/) -->

<svg
   xmlns:dc="http://purl.org/dc/elements/1.1/"
   xmlns:cc="http://creativecommons.org/ns#"
   xmlns:rdf="http://www.w3.org/1999/02/22-rdf-syntax-ns#"
   xmlns:svg="http://www.w3.org/2000/svg"
   xmlns="http://www.w3.org/2000/svg"
   xmlns:sodipodi="http://sodipodi.sourceforge.net/DTD/sodipodi-0.dtd"
   xmlns:inkscape="http://www.inkscape.org/namespaces/inkscape"
   width="223.02386mm"
   height="68.71862mm"
   viewBox="0 0 790.24203 243.49117"
   id="svg3991"
   version="1.1"
   inkscape:version="0.91 r13725"
   sodipodi:docname="IntraAS3.svg">
<defs><style type="text/css">@import url(https://fonts.googleapis.com/css?family=Lora:400,400italic,700,700italic)</style></defs>
  <defs
     id="defs3993">
    <linearGradient
       x1="289.84"
       y1="323.98001"
       x2="289.84"
       y2="227.83"
       gradientUnits="userSpaceOnUse"
       spreadMethod="pad"
       id="linearGradient258">
      <stop
         style="stop-opacity:1;stop-color:#5f5f5f"
         offset="0"
         id="stop260" />
      <stop
         style="stop-opacity:1;stop-color:#5f5f5f"
         offset="1"
         id="stop262" />
    </linearGradient>
    <linearGradient
       x1="196.63"
       y1="95.535004"
       x2="-56.278"
       y2="95.535004"
       gradientUnits="userSpaceOnUse"
       spreadMethod="pad"
       id="linearGradient4792">
      <stop
         style="stop-opacity:1;stop-color:#ffffff"
         offset="0"
         id="stop4794" />
      <stop
         style="stop-opacity:1;stop-color:#66ccff"
         offset="1"
         id="stop4796" />
    </linearGradient>
    <linearGradient
       x1="491.62"
       y1="112.04"
       x2="744.53003"
       y2="112.04"
       gradientUnits="userSpaceOnUse"
       spreadMethod="pad"
       id="linearGradient4528">
      <stop
         style="stop-opacity:1;stop-color:#ffffff"
         offset="0"
         id="stop4530" />
      <stop
         style="stop-opacity:1;stop-color:#66ccff"
         offset="1"
         id="stop4532" />
    </linearGradient>
    <clipPath
       clipPathUnits="userSpaceOnUse"
       id="clipPath5727">
      <path
         d="M -5.27e-7,540 720,540 720,6.104e-6 -2.089e-6,6.104e-6"
         id="path5729"
         inkscape:connector-curvature="0"
         style="clip-rule:evenodd" />
    </clipPath>
    <clipPath
       clipPathUnits="userSpaceOnUse"
       id="clipPath6261">
      <path
         d="M -4.301e-6,540 720,540 720,6.104e-6 l -720.000005662,0"
         id="path6263"
         inkscape:connector-curvature="0"
         style="clip-rule:evenodd" />
    </clipPath>
  </defs>
  <sodipodi:namedview
     id="base"
     pagecolor="#ffffff"
     bordercolor="#666666"
     borderopacity="1.0"
     inkscape:pageopacity="0.0"
     inkscape:pageshadow="2"
     inkscape:zoom="1.1937367"
     inkscape:cx="398.32903"
     inkscape:cy="110.04347"
     inkscape:document-units="px"
     inkscape:current-layer="layer1"
     showgrid="false"
     fit-margin-top="0"
     fit-margin-left="0"
     fit-margin-right="0"
     fit-margin-bottom="0"
     inkscape:window-width="1116"
     inkscape:window-height="1062"
     inkscape:window-x="2161"
     inkscape:window-y="0"
     inkscape:window-maximized="0" />
  <metadata
     id="metadata3996">
    <rdf:RDF>
      <cc:Work
         rdf:about="">
        <dc:format>image/svg+xml</dc:format>
        <dc:type
           rdf:resource="http://purl.org/dc/dcmitype/StillImage" />
        <dc:title></dc:title>
      </cc:Work>
    </rdf:RDF>
  </metadata>
  <g
     inkscape:label="Layer 1"
     inkscape:groupmode="layer"
     id="layer1"
     transform="translate(56.094787,-469.03801)">
    <g
       transform="matrix(1.25,0,0,-1.25,-91.126899,752.47773)"
       id="g4526">
      <path
         d="m 577,131.5 c 4.25,11.63 9.5,20.75 22.62,27.75 13.13,7 46.88,21.5 56.25,14.5 9.38,-7 -0.5,-36.25 -0.25,-56.62 0.25,-20.38 8.75,-55.88 2,-65.38 -6.75,-9.5 -29.37,4.125 -42.37,8.75 -13,4.625 -29.5,7.25 -35.88,19.125 C 573,91.375 577.5,120.63 577,131.5 Z"
         style="fill:url(#linearGradient4528);fill-opacity:1;fill-rule:evenodd;stroke:none"
         id="path4534"
         inkscape:connector-curvature="0" />
    </g>
    <path
       d="m 432.9356,594.95273 c 9.725,-14.525 27.1875,-31.3875 51.4,-34.6625 24.2125,-3.2875 72.975,6.5625 94.225,15.225 21.2375,8.6625 30.6375,22.95 33.6,37.475 2.9625,14.5225 -0.5,37.945 -15.8125,49.6575 -15.325,11.71125 -49.75,21.54875 -76.1,21.08 -26.3625,-0.46875 -67.5375,-9.135 -82.0375,-23.89125 -14.4875,-14.75625 -4.1125,-51.29625 -5.275,-64.88375 z"
       style="fill:#66ccff;fill-opacity:1;fill-rule:evenodd;stroke:none"
       id="path4536"
       inkscape:connector-curvature="0" />
    <path
       d="m 66.485605,543.06523 c 9.8,-11.7 4.4125,-21.55 12.7,-28.3375 8.275,-6.775 18.35,-8.925 36.974995,-12.3125 18.625,-3.3875 57.675,-15.1 74.5125,-7.4 16.8375,7.7 28.9875,32.9625 26.6375,52.9875 -2.35,20.0125 -20.2875,54.8125 -40.3,66.525 -20,11.7 -60.7125,7.7 -80.299995,3.6875 -19.6,-4 -32.4375,-14.475 -37.4,-27.1 -4.9625,-12.625 5.6625,-38.1875 7.175,-48.05 z"
       style="fill:#66ccff;fill-opacity:1;fill-rule:evenodd;stroke:none"
       id="path4538"
       inkscape:connector-curvature="0" />
    <path
       d="m 116.3731,578.41523 39.375,-17.8125"
       style="fill:none;stroke:#000000;stroke-width:1.25;stroke-linecap:butt;stroke-linejoin:round;stroke-miterlimit:10;stroke-dasharray:none;stroke-opacity:1"
       id="path4540"
       inkscape:connector-curvature="0" />
    <text
       y="611.29022"
       x="119.9731"
       style="font-variant:normal;font-weight:normal;font-size:25.03125px;font-family:Arial;-inkscape-font-specification:Arial;writing-mode:lr-tb;fill:#000000;fill-opacity:1;fill-rule:nonzero;stroke:none"
       id="text4542">
      <tspan
         x="119.9731 136.72307 153.47304"
         y="611.29022"
         sodipodi:role="line"
         id="tspan4544">AS3</tspan>
    </text>
    <text
       y="674.50897"
       x="495.53561"
       style="font-variant:normal;font-weight:normal;font-size:22.5px;font-family:Arial;-inkscape-font-specification:Arial;writing-mode:lr-tb;fill:#000000;fill-opacity:1;fill-rule:nonzero;stroke:none"
       id="text4546">
      <tspan
         x="495.53561 510.53561 525.53558"
         y="674.50897"
         sodipodi:role="line"
         id="tspan4548">AS2</tspan>
    </text>
    <path
       d="m 474.4981,616.39023 42.8125,-18.9125"
       style="fill:none;stroke:#000000;stroke-width:1.25;stroke-linecap:butt;stroke-linejoin:round;stroke-miterlimit:10;stroke-dasharray:none;stroke-opacity:1"
       id="path4550"
       inkscape:connector-curvature="0" />
    <path
       d="m 161.3731,551.54023 -23.75,-17.1875"
       style="fill:none;stroke:#000000;stroke-width:1.25;stroke-linecap:butt;stroke-linejoin:round;stroke-miterlimit:10;stroke-dasharray:none;stroke-opacity:1"
       id="path4552"
       inkscape:connector-curvature="0" />
    <path
       d="m 108.7231,533.72773 -14.537495,37.025"
       style="fill:none;stroke:#000000;stroke-width:1.25;stroke-linecap:butt;stroke-linejoin:round;stroke-miterlimit:10;stroke-dasharray:none;stroke-opacity:1"
       id="path4554"
       inkscape:connector-curvature="0" />
    <path
       d="m 68.723105,584.90273 c 0,-3.5 10.9375,-6.325 24.45,-6.325 l 0,0 c 13.499995,0 24.449995,2.825 24.449995,6.325 0,0 0,0 0,0 l 0,0 c 0,3.4875 -10.95,6.325 -24.449995,6.325 0,0 0,0 0,0 l 0,0 c -13.5125,0 -24.45,-2.8375 -24.45,-6.325 0,0 0,0 0,0 z"
       style="fill:#ccccff;fill-opacity:1;fill-rule:evenodd;stroke:none"
       id="path4556"
       inkscape:connector-curvature="0" />
    <path
       d="m 68.723105,584.90273 c 0,-3.5 10.9375,-6.325 24.45,-6.325 l 0,0 c 13.499995,0 24.449995,2.825 24.449995,6.325 0,0 0,0 0,0 l 0,0 c 0,3.4875 -10.95,6.325 -24.449995,6.325 0,0 0,0 0,0 l 0,0 c -13.5125,0 -24.45,-2.8375 -24.45,-6.325 0,0 0,0 0,0 z"
       style="fill:none;stroke:#000000;stroke-width:1.25;stroke-linecap:butt;stroke-linejoin:round;stroke-miterlimit:10;stroke-dasharray:none;stroke-opacity:1"
       id="path4558"
       inkscape:connector-curvature="0" />
    <path
       d="m 68.723105,577.47773 0,7.8125"
       style="fill:none;stroke:#000000;stroke-width:1.25;stroke-linecap:butt;stroke-linejoin:round;stroke-miterlimit:10;stroke-dasharray:none;stroke-opacity:1"
       id="path4560"
       inkscape:connector-curvature="0" />
    <path
       d="m 117.6231,577.47773 0,7.8125"
       style="fill:none;stroke:#000000;stroke-width:1.25;stroke-linecap:butt;stroke-linejoin:round;stroke-miterlimit:10;stroke-dasharray:none;stroke-opacity:1"
       id="path4562"
       inkscape:connector-curvature="0" />
    <path
       d="m 68.723105,585.14023 48.437495,0 0,-7.65625 -48.437495,0 0,7.65625 z"
       style="fill:#ccccff;fill-opacity:1;fill-rule:evenodd;stroke:none"
       id="path4564"
       inkscape:connector-curvature="0" />
    <path
       d="m 68.248105,575.67773 c 0,-4.1 10.95,-7.4125 24.45,-7.4125 l 0,0 c 13.512495,0 24.462495,3.3125 24.462495,7.4125 0,0 0,0 0,0 l 0,0 c 0,4.1 -10.95,7.425 -24.462495,7.425 0,0 0,0 0,0 l 0,0 c -13.5,0 -24.45,-3.325 -24.45,-7.425 0,0 0,0 0,0 z"
       style="fill:#ccccff;fill-opacity:1;fill-rule:evenodd;stroke:none"
       id="path4566"
       inkscape:connector-curvature="0" />
    <path
       d="m 68.248105,575.67773 c 0,-4.1 10.95,-7.4125 24.45,-7.4125 l 0,0 c 13.512495,0 24.462495,3.3125 24.462495,7.4125 0,0 0,0 0,0 l 0,0 c 0,4.1 -10.95,7.425 -24.462495,7.425 0,0 0,0 0,0 l 0,0 c -13.5,0 -24.45,-3.325 -24.45,-7.425 0,0 0,0 0,0 z"
       style="fill:none;stroke:#000000;stroke-width:1.25;stroke-linecap:butt;stroke-linejoin:round;stroke-miterlimit:10;stroke-dasharray:none;stroke-opacity:1"
       id="path4568"
       inkscape:connector-curvature="0" />
    <path
       d="m 81.848105,589.66523 22.031245,0 0,-19.375 -22.031245,0 0,19.375 z"
       style="fill:#ccccff;fill-opacity:1;fill-rule:evenodd;stroke:none"
       id="path4570"
       inkscape:connector-curvature="0" />
    <text
       y="589.06525"
       x="79.560593"
       style="font-variant:normal;font-weight:normal;font-size:25px;font-family:Arial;-inkscape-font-specification:Arial;writing-mode:lr-tb;fill:#000000;fill-opacity:1;fill-rule:nonzero;stroke:none"
       id="text4572">
      <tspan
         x="79.560593 93.560593"
         y="589.06525"
         sodipodi:role="line"
         id="tspan4574">3b</tspan>
    </text>
    <path
       d="m 95.285605,529.42773 c 0,-3.4875 10.937495,-6.325 24.449995,-6.325 l 0,0 c 13.5,0 24.45,2.8375 24.45,6.325 0,0 0,0 0,0 l 0,0 c 0,3.5 -10.95,6.3375 -24.45,6.3375 0,0 0,0 0,0 l 0,0 c -13.5125,0 -24.449995,-2.8375 -24.449995,-6.3375 0,0 0,0 0,0 z"
       style="fill:#ccccff;fill-opacity:1;fill-rule:evenodd;stroke:none"
       id="path4576"
       inkscape:connector-curvature="0" />
    <path
       d="m 95.285605,529.42773 c 0,-3.4875 10.937495,-6.325 24.449995,-6.325 l 0,0 c 13.5,0 24.45,2.8375 24.45,6.325 0,0 0,0 0,0 l 0,0 c 0,3.5 -10.95,6.3375 -24.45,6.3375 0,0 0,0 0,0 l 0,0 c -13.5125,0 -24.449995,-2.8375 -24.449995,-6.3375 0,0 0,0 0,0 z"
       style="fill:none;stroke:#000000;stroke-width:1.25;stroke-linecap:butt;stroke-linejoin:round;stroke-miterlimit:10;stroke-dasharray:none;stroke-opacity:1"
       id="path4578"
       inkscape:connector-curvature="0" />
    <path
       d="m 95.285605,522.00273 0,7.8125"
       style="fill:none;stroke:#000000;stroke-width:1.25;stroke-linecap:butt;stroke-linejoin:round;stroke-miterlimit:10;stroke-dasharray:none;stroke-opacity:1"
       id="path4580"
       inkscape:connector-curvature="0" />
    <path
       d="m 144.1856,522.00273 0,7.8125"
       style="fill:none;stroke:#000000;stroke-width:1.25;stroke-linecap:butt;stroke-linejoin:round;stroke-miterlimit:10;stroke-dasharray:none;stroke-opacity:1"
       id="path4582"
       inkscape:connector-curvature="0" />
    <path
       d="m 95.285605,529.66523 48.437495,0 0,-7.65638 -48.437495,0 0,7.65638 z"
       style="fill:#ccccff;fill-opacity:1;fill-rule:evenodd;stroke:none"
       id="path4584"
       inkscape:connector-curvature="0" />
    <path
       d="m 94.810605,520.21523 c 0,-4.1 10.949995,-7.425 24.449995,-7.425 l 0,0 c 13.5125,0 24.4625,3.325 24.4625,7.425 0,0 0,0 0,0 l 0,0 c 0,4.1 -10.95,7.425 -24.4625,7.425 0,0 0,0 0,0 l 0,0 c -13.5,0 -24.449995,-3.325 -24.449995,-7.425 0,0 0,0 0,0 z"
       style="fill:#ccccff;fill-opacity:1;fill-rule:evenodd;stroke:none"
       id="path4586"
       inkscape:connector-curvature="0" />
    <path
       d="m 94.810605,520.21523 c 0,-4.1 10.949995,-7.425 24.449995,-7.425 l 0,0 c 13.5125,0 24.4625,3.325 24.4625,7.425 0,0 0,0 0,0 l 0,0 c 0,4.1 -10.95,7.425 -24.4625,7.425 0,0 0,0 0,0 l 0,0 c -13.5,0 -24.449995,-3.325 -24.449995,-7.425 0,0 0,0 0,0 z"
       style="fill:none;stroke:#000000;stroke-width:1.25;stroke-linecap:butt;stroke-linejoin:round;stroke-miterlimit:10;stroke-dasharray:none;stroke-opacity:1"
       id="path4588"
       inkscape:connector-curvature="0" />
    <path
       d="m 108.0606,534.19023 21.805,0 0,-20.625 -21.805,0 0,20.625 z"
       style="fill:#ccccff;fill-opacity:1;fill-rule:evenodd;stroke:none"
       id="path4590"
       inkscape:connector-curvature="0" />
    <text
       y="532.35272"
       x="106.3981"
       style="font-variant:normal;font-weight:normal;font-size:25.03125px;font-family:Arial;-inkscape-font-specification:Arial;writing-mode:lr-tb;fill:#000000;fill-opacity:1;fill-rule:nonzero;stroke:none"
       id="text4592">
      <tspan
         x="106.3981 120.42935"
         y="532.35272"
         sodipodi:role="line"
         id="tspan4594">3c</tspan>
    </text>
    <path
       d="m 152.1606,566.15273 c 0,-3.5 10.9375,-6.325 24.45,-6.325 l 0,0 c 13.5,0 24.45,2.825 24.45,6.325 0,0 0,0 0,0 l 0,0 c 0,3.4875 -10.95,6.325 -24.45,6.325 0,0 0,0 0,0 l 0,0 c -13.5125,0 -24.45,-2.8375 -24.45,-6.325 0,0 0,0 0,0 z"
       style="fill:#ccccff;fill-opacity:1;fill-rule:evenodd;stroke:none"
       id="path4596"
       inkscape:connector-curvature="0" />
    <path
       d="m 152.1606,566.15273 c 0,-3.5 10.9375,-6.325 24.45,-6.325 l 0,0 c 13.5,0 24.45,2.825 24.45,6.325 0,0 0,0 0,0 l 0,0 c 0,3.4875 -10.95,6.325 -24.45,6.325 0,0 0,0 0,0 l 0,0 c -13.5125,0 -24.45,-2.8375 -24.45,-6.325 0,0 0,0 0,0 z"
       style="fill:none;stroke:#000000;stroke-width:1.25;stroke-linecap:butt;stroke-linejoin:round;stroke-miterlimit:10;stroke-dasharray:none;stroke-opacity:1"
       id="path4598"
       inkscape:connector-curvature="0" />
    <path
       d="m 152.1606,558.72773 0,7.8125"
       style="fill:none;stroke:#000000;stroke-width:1.25;stroke-linecap:butt;stroke-linejoin:round;stroke-miterlimit:10;stroke-dasharray:none;stroke-opacity:1"
       id="path4600"
       inkscape:connector-curvature="0" />
    <path
       d="m 201.0606,558.72773 0,7.8125"
       style="fill:none;stroke:#000000;stroke-width:1.25;stroke-linecap:butt;stroke-linejoin:round;stroke-miterlimit:10;stroke-dasharray:none;stroke-opacity:1"
       id="path4602"
       inkscape:connector-curvature="0" />
    <path
       d="m 152.1606,566.39023 48.4375,0 0,-7.65625 -48.4375,0 0,7.65625 z"
       style="fill:#ccccff;fill-opacity:1;fill-rule:evenodd;stroke:none"
       id="path4604"
       inkscape:connector-curvature="0" />
    <path
       d="m 151.6856,556.92773 c 0,-4.1 10.95,-7.4125 24.45,-7.4125 l 0,0 c 13.5125,0 24.4625,3.3125 24.4625,7.4125 0,0 0,0 0,0 l 0,0 c 0,4.1 -10.95,7.425 -24.4625,7.425 0,0 0,0 0,0 l 0,0 c -13.5,0 -24.45,-3.325 -24.45,-7.425 0,0 0,0 0,0 z"
       style="fill:#ccccff;fill-opacity:1;fill-rule:evenodd;stroke:none"
       id="path4606"
       inkscape:connector-curvature="0" />
    <path
       d="m 151.6856,556.92773 c 0,-4.1 10.95,-7.4125 24.45,-7.4125 l 0,0 c 13.5125,0 24.4625,3.3125 24.4625,7.4125 0,0 0,0 0,0 l 0,0 c 0,4.1 -10.95,7.425 -24.4625,7.425 0,0 0,0 0,0 l 0,0 c -13.5,0 -24.45,-3.325 -24.45,-7.425 0,0 0,0 0,0 z"
       style="fill:none;stroke:#000000;stroke-width:1.25;stroke-linecap:butt;stroke-linejoin:round;stroke-miterlimit:10;stroke-dasharray:none;stroke-opacity:1"
       id="path4608"
       inkscape:connector-curvature="0" />
    <path
       d="m 165.2856,568.72773 22.1875,0 0,-17.1875 -22.1875,0 0,17.1875 z"
       style="fill:#ccccff;fill-opacity:1;fill-rule:evenodd;stroke:none"
       id="path4610"
       inkscape:connector-curvature="0" />
    <text
       y="569.22772"
       x="162.99811"
       style="font-variant:normal;font-weight:normal;font-size:25px;font-family:Arial;-inkscape-font-specification:Arial;writing-mode:lr-tb;fill:#000000;fill-opacity:1;fill-rule:nonzero;stroke:none"
       id="text4612">
      <tspan
         x="162.99811 176.99811"
         y="569.22772"
         sodipodi:role="line"
         id="tspan4614">3a</tspan>
    </text>
    <path
       d="m 180.1356,628.29148 c 8.775,-14.08875 24.325,-18.78875 41.6875,-24.30125 17.375,-5.5 41.8625,-11.9875 62.5375,-8.7375 20.675,3.2375 40.0375,17.1625 61.5375,28.175 21.5125,11.02 64.1875,25.75875 67.3375,37.9075 3.1375,12.14875 -24.325,28.8325 -48.3125,34.9875 -23.9875,6.155 -63.6875,3.23875 -96.275,1.94375 -32.5875,-1.29625 -84.7,1.94375 -99.425,-9.71875 -14.725,-11.6625 2.15,-46.16375 10.9125,-60.25625 z"
       style="fill:#66ccff;fill-opacity:1;fill-rule:evenodd;stroke:none"
       id="path4616"
       inkscape:connector-curvature="0" />
    <text
       y="688.32147"
       x="186.56061"
       style="font-variant:normal;font-weight:normal;font-size:25px;font-family:Arial;-inkscape-font-specification:Arial;writing-mode:lr-tb;fill:#000000;fill-opacity:1;fill-rule:nonzero;stroke:none"
       id="text4618">
      <tspan
         x="186.56061 203.31061 220.06061"
         y="688.32147"
         sodipodi:role="line"
         id="tspan4620">AS1</tspan>
    </text>
    <path
       d="m 256.8481,619.51523 -14.5375,15.93125"
       style="fill:none;stroke:#000000;stroke-width:1.25;stroke-linecap:butt;stroke-linejoin:round;stroke-miterlimit:10;stroke-dasharray:none;stroke-opacity:1"
       id="path4622"
       inkscape:connector-curvature="0" />
    <path
       d="m 281.9981,622.95273 0.475,44.525"
       style="fill:none;stroke:#000000;stroke-width:1.25;stroke-linecap:butt;stroke-linejoin:round;stroke-miterlimit:10;stroke-dasharray:none;stroke-opacity:1"
       id="path4624"
       inkscape:connector-curvature="0" />
    <path
       d="m 297.9356,618.26523 48.9125,32.9625"
       style="fill:none;stroke:#000000;stroke-width:1.25;stroke-linecap:butt;stroke-linejoin:round;stroke-miterlimit:10;stroke-dasharray:none;stroke-opacity:1"
       id="path4626"
       inkscape:connector-curvature="0" />
    <path
       d="m 346.8481,663.25898 -37.0375,11.875"
       style="fill:none;stroke:#000000;stroke-width:1.25;stroke-linecap:butt;stroke-linejoin:round;stroke-miterlimit:10;stroke-dasharray:none;stroke-opacity:1"
       id="path4628"
       inkscape:connector-curvature="0" />
    <path
       d="m 341.6856,653.88398 -88.75,-7.96875"
       style="fill:none;stroke:#000000;stroke-width:1.25;stroke-linecap:butt;stroke-linejoin:round;stroke-miterlimit:10;stroke-dasharray:none;stroke-opacity:1"
       id="path4630"
       inkscape:connector-curvature="0" />
    <path
       d="m 243.7231,653.88398 19.8375,13.28125"
       style="fill:none;stroke:#000000;stroke-width:1.25;stroke-linecap:butt;stroke-linejoin:round;stroke-miterlimit:10;stroke-dasharray:none;stroke-opacity:1"
       id="path4632"
       inkscape:connector-curvature="0" />
    <path
       d="m 253.4106,617.71523 c 0,-3.5 10.9375,-6.325 24.45,-6.325 l 0,0 c 13.5,0 24.45,2.825 24.45,6.325 0,0 0,0 0,0 l 0,0 c 0,3.4875 -10.95,6.325 -24.45,6.325 0,0 0,0 0,0 l 0,0 c -13.5125,0 -24.45,-2.8375 -24.45,-6.325 0,0 0,0 0,0 z"
       style="fill:#ccccff;fill-opacity:1;fill-rule:evenodd;stroke:none"
       id="path4634"
       inkscape:connector-curvature="0" />
    <path
       d="m 253.4106,617.71523 c 0,-3.5 10.9375,-6.325 24.45,-6.325 l 0,0 c 13.5,0 24.45,2.825 24.45,6.325 0,0 0,0 0,0 l 0,0 c 0,3.4875 -10.95,6.325 -24.45,6.325 0,0 0,0 0,0 l 0,0 c -13.5125,0 -24.45,-2.8375 -24.45,-6.325 0,0 0,0 0,0 z"
       style="fill:none;stroke:#000000;stroke-width:1.25;stroke-linecap:butt;stroke-linejoin:round;stroke-miterlimit:10;stroke-dasharray:none;stroke-opacity:1"
       id="path4636"
       inkscape:connector-curvature="0" />
    <path
       d="m 253.4106,610.29023 0,7.8125"
       style="fill:none;stroke:#000000;stroke-width:1.25;stroke-linecap:butt;stroke-linejoin:round;stroke-miterlimit:10;stroke-dasharray:none;stroke-opacity:1"
       id="path4638"
       inkscape:connector-curvature="0" />
    <path
       d="m 302.3106,610.29023 0,7.8125"
       style="fill:none;stroke:#000000;stroke-width:1.25;stroke-linecap:butt;stroke-linejoin:round;stroke-miterlimit:10;stroke-dasharray:none;stroke-opacity:1"
       id="path4640"
       inkscape:connector-curvature="0" />
    <path
       d="m 253.4106,617.95273 48.4375,0 0,-7.65638 -48.4375,0 0,7.65638 z"
       style="fill:#ccccff;fill-opacity:1;fill-rule:evenodd;stroke:none"
       id="path4642"
       inkscape:connector-curvature="0" />
    <path
       d="m 252.9356,608.49023 c 0,-4.1 10.95,-7.4125 24.45,-7.4125 l 0,0 c 13.5125,0 24.4625,3.3125 24.4625,7.4125 0,0 0,0 0,0 l 0,0 c 0,4.1 -10.95,7.425 -24.4625,7.425 0,0 0,0 0,0 l 0,0 c -13.5,0 -24.45,-3.325 -24.45,-7.425 0,0 0,0 0,0 z"
       style="fill:#ccccff;fill-opacity:1;fill-rule:evenodd;stroke:none"
       id="path4644"
       inkscape:connector-curvature="0" />
    <path
       d="m 252.9356,608.49023 c 0,-4.1 10.95,-7.4125 24.45,-7.4125 l 0,0 c 13.5125,0 24.4625,3.3125 24.4625,7.4125 0,0 0,0 0,0 l 0,0 c 0,4.1 -10.95,7.425 -24.4625,7.425 0,0 0,0 0,0 l 0,0 c -13.5,0 -24.45,-3.325 -24.45,-7.425 0,0 0,0 0,0 z"
       style="fill:none;stroke:#000000;stroke-width:1.25;stroke-linecap:butt;stroke-linejoin:round;stroke-miterlimit:10;stroke-dasharray:none;stroke-opacity:1"
       id="path4646"
       inkscape:connector-curvature="0" />
    <path
       d="m 266.2731,622.79023 21.96125,0 0,-20.625 -21.96125,0 0,20.625 z"
       style="fill:#ccccff;fill-opacity:1;fill-rule:evenodd;stroke:none"
       id="path4648"
       inkscape:connector-curvature="0" />
    <text
       y="620.97772"
       x="264.74811"
       style="font-variant:normal;font-weight:normal;font-size:25.03125px;font-family:Arial;-inkscape-font-specification:Arial;writing-mode:lr-tb;fill:#000000;fill-opacity:1;fill-rule:nonzero;stroke:none"
       id="text4650">
      <tspan
         x="264.74811 278.74811"
         y="620.97772"
         sodipodi:role="line"
         id="tspan4652">1c</tspan>
    </text>
    <path
       d="m 205.5981,650.52523 c 0,-3.495 10.9375,-6.32875 24.45,-6.32875 l 0,0 c 13.5,0 24.45,2.83375 24.45,6.32875 0,0 0,0 0,0 l 0,0 c 0,3.495 -10.95,6.3275 -24.45,6.3275 0,0 0,0 0,0 l 0,0 c -13.5125,0 -24.45,-2.8325 -24.45,-6.3275 0,0 0,0 0,0 z"
       style="fill:#ccccff;fill-opacity:1;fill-rule:evenodd;stroke:none"
       id="path4654"
       inkscape:connector-curvature="0" />
    <path
       d="m 205.5981,650.52523 c 0,-3.495 10.9375,-6.32875 24.45,-6.32875 l 0,0 c 13.5,0 24.45,2.83375 24.45,6.32875 0,0 0,0 0,0 l 0,0 c 0,3.495 -10.95,6.3275 -24.45,6.3275 0,0 0,0 0,0 l 0,0 c -13.5125,0 -24.45,-2.8325 -24.45,-6.3275 0,0 0,0 0,0 z"
       style="fill:none;stroke:#000000;stroke-width:1.25;stroke-linecap:butt;stroke-linejoin:round;stroke-miterlimit:10;stroke-dasharray:none;stroke-opacity:1"
       id="path4656"
       inkscape:connector-curvature="0" />
    <path
       d="m 205.5981,643.10273 0,7.8125"
       style="fill:none;stroke:#000000;stroke-width:1.25;stroke-linecap:butt;stroke-linejoin:round;stroke-miterlimit:10;stroke-dasharray:none;stroke-opacity:1"
       id="path4658"
       inkscape:connector-curvature="0" />
    <path
       d="m 254.4981,643.10273 0,7.8125"
       style="fill:none;stroke:#000000;stroke-width:1.25;stroke-linecap:butt;stroke-linejoin:round;stroke-miterlimit:10;stroke-dasharray:none;stroke-opacity:1"
       id="path4660"
       inkscape:connector-curvature="0" />
    <path
       d="m 205.5981,650.75898 48.4375,0 0,-7.65638 -48.4375,0 0,7.65638 z"
       style="fill:#ccccff;fill-opacity:1;fill-rule:evenodd;stroke:none"
       id="path4662"
       inkscape:connector-curvature="0" />
    <path
       d="m 205.1231,641.93148 c 0,-4.1 10.95,-7.4225 24.45,-7.4225 l 0,0 c 13.5125,0 24.4625,3.3225 24.4625,7.4225 0,0 0,0 0,0 l 0,0 c 0,4.09875 -10.95,7.42125 -24.4625,7.42125 0,0 0,0 0,0 l 0,0 c -13.5,0 -24.45,-3.3225 -24.45,-7.42125 0,0 0,0 0,0 z"
       style="fill:#ccccff;fill-opacity:1;fill-rule:evenodd;stroke:none"
       id="path4664"
       inkscape:connector-curvature="0" />
    <path
       d="m 205.1231,641.93148 c 0,-4.1 10.95,-7.4225 24.45,-7.4225 l 0,0 c 13.5125,0 24.4625,3.3225 24.4625,7.4225 0,0 0,0 0,0 l 0,0 c 0,4.09875 -10.95,7.42125 -24.4625,7.42125 0,0 0,0 0,0 l 0,0 c -13.5,0 -24.45,-3.3225 -24.45,-7.42125 0,0 0,0 0,0 z"
       style="fill:none;stroke:#000000;stroke-width:1.25;stroke-linecap:butt;stroke-linejoin:round;stroke-miterlimit:10;stroke-dasharray:none;stroke-opacity:1"
       id="path4666"
       inkscape:connector-curvature="0" />
    <path
       d="m 218.4106,653.72773 22.1875,0 0,-15 -22.1875,0 0,15 z"
       style="fill:#ccccff;fill-opacity:1;fill-rule:evenodd;stroke:none"
       id="path4668"
       inkscape:connector-curvature="0" />
    <text
       y="654.41522"
       x="216.78561"
       style="font-variant:normal;font-weight:normal;font-size:25px;font-family:Arial;-inkscape-font-specification:Arial;writing-mode:lr-tb;fill:#000000;fill-opacity:1;fill-rule:nonzero;stroke:none"
       id="text4670">
      <tspan
         x="216.78561 230.78561"
         y="654.41522"
         sodipodi:role="line"
         id="tspan4672">1a</tspan>
    </text>
    <path
       d="m 259.0356,679.58773 c 0,-3.495 10.9375,-6.32875 24.45,-6.32875 l 0,0 c 13.5,0 24.45,2.83375 24.45,6.32875 0,0 0,0 0,0 l 0,0 c 0,3.495 -10.95,6.3275 -24.45,6.3275 0,0 0,0 0,0 l 0,0 c -13.5125,0 -24.45,-2.8325 -24.45,-6.3275 0,0 0,0 0,0 z"
       style="fill:#ccccff;fill-opacity:1;fill-rule:evenodd;stroke:none"
       id="path4674"
       inkscape:connector-curvature="0" />
    <path
       d="m 259.0356,679.58773 c 0,-3.495 10.9375,-6.32875 24.45,-6.32875 l 0,0 c 13.5,0 24.45,2.83375 24.45,6.32875 0,0 0,0 0,0 l 0,0 c 0,3.495 -10.95,6.3275 -24.45,6.3275 0,0 0,0 0,0 l 0,0 c -13.5125,0 -24.45,-2.8325 -24.45,-6.3275 0,0 0,0 0,0 z"
       style="fill:none;stroke:#000000;stroke-width:1.25;stroke-linecap:butt;stroke-linejoin:round;stroke-miterlimit:10;stroke-dasharray:none;stroke-opacity:1"
       id="path4676"
       inkscape:connector-curvature="0" />
    <path
       d="m 259.0356,672.16523 0,7.8125"
       style="fill:none;stroke:#000000;stroke-width:1.25;stroke-linecap:butt;stroke-linejoin:round;stroke-miterlimit:10;stroke-dasharray:none;stroke-opacity:1"
       id="path4678"
       inkscape:connector-curvature="0" />
    <path
       d="m 307.9356,672.16523 0,7.8125"
       style="fill:none;stroke:#000000;stroke-width:1.25;stroke-linecap:butt;stroke-linejoin:round;stroke-miterlimit:10;stroke-dasharray:none;stroke-opacity:1"
       id="path4680"
       inkscape:connector-curvature="0" />
    <path
       d="m 259.0356,679.82148 48.4375,0 0,-7.65638 -48.4375,0 0,7.65638 z"
       style="fill:#ccccff;fill-opacity:1;fill-rule:evenodd;stroke:none"
       id="path4682"
       inkscape:connector-curvature="0" />
    <path
       d="m 258.5606,670.36898 c 0,-4.1 10.95,-7.4225 24.45,-7.4225 l 0,0 c 13.5125,0 24.4625,3.3225 24.4625,7.4225 0,0 0,0 0,0 l 0,0 c 0,4.09875 -10.95,7.42125 -24.4625,7.42125 0,0 0,0 0,0 l 0,0 c -13.5,0 -24.45,-3.3225 -24.45,-7.42125 0,0 0,0 0,0 z"
       style="fill:#ccccff;fill-opacity:1;fill-rule:evenodd;stroke:none"
       id="path4684"
       inkscape:connector-curvature="0" />
    <path
       d="m 258.5606,670.36898 c 0,-4.1 10.95,-7.4225 24.45,-7.4225 l 0,0 c 13.5125,0 24.4625,3.3225 24.4625,7.4225 0,0 0,0 0,0 l 0,0 c 0,4.09875 -10.95,7.42125 -24.4625,7.42125 0,0 0,0 0,0 l 0,0 c -13.5,0 -24.45,-3.3225 -24.45,-7.42125 0,0 0,0 0,0 z"
       style="fill:none;stroke:#000000;stroke-width:1.25;stroke-linecap:butt;stroke-linejoin:round;stroke-miterlimit:10;stroke-dasharray:none;stroke-opacity:1"
       id="path4686"
       inkscape:connector-curvature="0" />
    <path
       d="m 272.0731,684.66523 22.3475,0 0,-20.625 -22.3475,0 0,20.625 z"
       style="fill:#ccccff;fill-opacity:1;fill-rule:evenodd;stroke:none"
       id="path4688"
       inkscape:connector-curvature="0" />
    <text
       y="682.85272"
       x="270.06061"
       style="font-variant:normal;font-weight:normal;font-size:25px;font-family:Arial;-inkscape-font-specification:Arial;writing-mode:lr-tb;fill:#000000;fill-opacity:1;fill-rule:nonzero;stroke:none"
       id="text4690">
      <tspan
         x="270.06061 284.06061"
         y="682.85272"
         sodipodi:role="line"
         id="tspan4692">1d</tspan>
    </text>
    <path
       d="m 343.4106,661.77523 c 0,-3.495 10.9375,-6.32875 24.45,-6.32875 l 0,0 c 13.5,0 24.45,2.83375 24.45,6.32875 0,0 0,0 0,0 l 0,0 c 0,3.495 -10.95,6.3275 -24.45,6.3275 0,0 0,0 0,0 l 0,0 c -13.5125,0 -24.45,-2.8325 -24.45,-6.3275 0,0 0,0 0,0 z"
       style="fill:#ccccff;fill-opacity:1;fill-rule:evenodd;stroke:none"
       id="path4694"
       inkscape:connector-curvature="0" />
    <path
       d="m 343.4106,661.77523 c 0,-3.495 10.9375,-6.32875 24.45,-6.32875 l 0,0 c 13.5,0 24.45,2.83375 24.45,6.32875 0,0 0,0 0,0 l 0,0 c 0,3.495 -10.95,6.3275 -24.45,6.3275 0,0 0,0 0,0 l 0,0 c -13.5125,0 -24.45,-2.8325 -24.45,-6.3275 0,0 0,0 0,0 z"
       style="fill:none;stroke:#000000;stroke-width:1.25;stroke-linecap:butt;stroke-linejoin:round;stroke-miterlimit:10;stroke-dasharray:none;stroke-opacity:1"
       id="path4696"
       inkscape:connector-curvature="0" />
    <path
       d="m 343.4106,654.35273 0,7.8125"
       style="fill:none;stroke:#000000;stroke-width:1.25;stroke-linecap:butt;stroke-linejoin:round;stroke-miterlimit:10;stroke-dasharray:none;stroke-opacity:1"
       id="path4698"
       inkscape:connector-curvature="0" />
    <path
       d="m 392.3106,654.35273 0,7.8125"
       style="fill:none;stroke:#000000;stroke-width:1.25;stroke-linecap:butt;stroke-linejoin:round;stroke-miterlimit:10;stroke-dasharray:none;stroke-opacity:1"
       id="path4700"
       inkscape:connector-curvature="0" />
    <path
       d="m 343.4106,662.00898 48.4375,0 0,-7.65638 -48.4375,0 0,7.65638 z"
       style="fill:#ccccff;fill-opacity:1;fill-rule:evenodd;stroke:none"
       id="path4702"
       inkscape:connector-curvature="0" />
    <path
       d="m 342.9356,652.55648 c 0,-4.1 10.95,-7.4225 24.45,-7.4225 l 0,0 c 13.5125,0 24.4625,3.3225 24.4625,7.4225 0,0 0,0 0,0 l 0,0 c 0,4.09875 -10.95,7.42125 -24.4625,7.42125 0,0 0,0 0,0 l 0,0 c -13.5,0 -24.45,-3.3225 -24.45,-7.42125 0,0 0,0 0,0 z"
       style="fill:#ccccff;fill-opacity:1;fill-rule:evenodd;stroke:none"
       id="path4704"
       inkscape:connector-curvature="0" />
    <path
       d="m 342.9356,652.55648 c 0,-4.1 10.95,-7.4225 24.45,-7.4225 l 0,0 c 13.5125,0 24.4625,3.3225 24.4625,7.4225 0,0 0,0 0,0 l 0,0 c 0,4.09875 -10.95,7.42125 -24.4625,7.42125 0,0 0,0 0,0 l 0,0 c -13.5,0 -24.45,-3.3225 -24.45,-7.42125 0,0 0,0 0,0 z"
       style="fill:none;stroke:#000000;stroke-width:1.25;stroke-linecap:butt;stroke-linejoin:round;stroke-miterlimit:10;stroke-dasharray:none;stroke-opacity:1"
       id="path4706"
       inkscape:connector-curvature="0" />
    <path
       d="m 356.1856,666.54023 21.81625,0 0,-20.625 -21.81625,0 0,20.625 z"
       style="fill:#ccccff;fill-opacity:1;fill-rule:evenodd;stroke:none"
       id="path4708"
       inkscape:connector-curvature="0" />
    <text
       y="664.72772"
       x="354.16061"
       style="font-variant:normal;font-weight:normal;font-size:25px;font-family:Arial;-inkscape-font-specification:Arial;writing-mode:lr-tb;fill:#000000;fill-opacity:1;fill-rule:nonzero;stroke:none"
       id="text4710">
      <tspan
         x="354.16061 368.16061"
         y="664.72772"
         sodipodi:role="line"
         id="tspan4712">1b</tspan>
    </text>
    <path
       d="m 442.3106,627.40273 c 0,-3.5 10.95,-6.325 24.45,-6.325 l 0,0 c 13.5125,0 24.4625,2.825 24.4625,6.325 0,0 0,0 0,0 l 0,0 c 0,3.4925 -10.95,6.325 -24.4625,6.325 0,0 0,0 0,0 l 0,0 c -13.5,0 -24.45,-2.8325 -24.45,-6.325 0,0 0,0 0,0 z"
       style="fill:#ccccff;fill-opacity:1;fill-rule:evenodd;stroke:none"
       id="path4714"
       inkscape:connector-curvature="0" />
    <path
       d="m 442.3106,627.40273 c 0,-3.5 10.95,-6.325 24.45,-6.325 l 0,0 c 13.5125,0 24.4625,2.825 24.4625,6.325 0,0 0,0 0,0 l 0,0 c 0,3.4925 -10.95,6.325 -24.4625,6.325 0,0 0,0 0,0 l 0,0 c -13.5,0 -24.45,-2.8325 -24.45,-6.325 0,0 0,0 0,0 z"
       style="fill:none;stroke:#000000;stroke-width:1.25;stroke-linecap:butt;stroke-linejoin:round;stroke-miterlimit:10;stroke-dasharray:none;stroke-opacity:1"
       id="path4716"
       inkscape:connector-curvature="0" />
    <path
       d="m 442.3106,619.97773 0,7.8125"
       style="fill:none;stroke:#000000;stroke-width:1.25;stroke-linecap:butt;stroke-linejoin:round;stroke-miterlimit:10;stroke-dasharray:none;stroke-opacity:1"
       id="path4718"
       inkscape:connector-curvature="0" />
    <path
       d="m 491.2231,619.97773 0,7.8125"
       style="fill:none;stroke:#000000;stroke-width:1.25;stroke-linecap:butt;stroke-linejoin:round;stroke-miterlimit:10;stroke-dasharray:none;stroke-opacity:1"
       id="path4720"
       inkscape:connector-curvature="0" />
    <path
       d="m 442.3106,627.63398 48.4375,0 0,-7.65625 -48.4375,0 0,7.65625 z"
       style="fill:#ccccff;fill-opacity:1;fill-rule:evenodd;stroke:none"
       id="path4722"
       inkscape:connector-curvature="0" />
    <path
       d="m 441.8481,618.17773 c 0,-4.1 10.9375,-7.4125 24.45,-7.4125 l 0,0 c 13.5,0 24.45,3.3125 24.45,7.4125 0,0 0,0 0,0 l 0,0 c 0,4.1 -10.95,7.425 -24.45,7.425 0,0 0,0 0,0 l 0,0 c -13.5125,0 -24.45,-3.325 -24.45,-7.425 0,0 0,0 0,0 z"
       style="fill:#ccccff;fill-opacity:1;fill-rule:evenodd;stroke:none"
       id="path4724"
       inkscape:connector-curvature="0" />
    <path
       d="m 441.8481,618.17773 c 0,-4.1 10.9375,-7.4125 24.45,-7.4125 l 0,0 c 13.5,0 24.45,3.3125 24.45,7.4125 0,0 0,0 0,0 l 0,0 c 0,4.1 -10.95,7.425 -24.45,7.425 0,0 0,0 0,0 l 0,0 c -13.5125,0 -24.45,-3.325 -24.45,-7.425 0,0 0,0 0,0 z"
       style="fill:none;stroke:#000000;stroke-width:1.25;stroke-linecap:butt;stroke-linejoin:round;stroke-miterlimit:10;stroke-dasharray:none;stroke-opacity:1"
       id="path4726"
       inkscape:connector-curvature="0" />
    <path
       d="m 455.4356,631.54023 22.03125,0 0,-18.75 -22.03125,0 0,18.75 z"
       style="fill:#ccccff;fill-opacity:1;fill-rule:evenodd;stroke:none"
       id="path4728"
       inkscape:connector-curvature="0" />
    <text
       y="630.50897"
       x="453.24814"
       style="font-variant:normal;font-weight:normal;font-size:25.03125px;font-family:Arial;-inkscape-font-specification:Arial;writing-mode:lr-tb;fill:#000000;fill-opacity:1;fill-rule:nonzero;stroke:none"
       id="text4730">
      <tspan
         x="453.24814 467.24814"
         y="630.50897"
         sodipodi:role="line"
         id="tspan4732">2a</tspan>
    </text>
    <path
       d="m 561.9981,593.41523 84.375,0"
       style="fill:none;stroke:#000000;stroke-width:0.9375;stroke-linecap:butt;stroke-linejoin:round;stroke-miterlimit:10;stroke-dasharray:none;stroke-opacity:1"
       id="path4734"
       inkscape:connector-curvature="0" />
    <path
       d="m 586.9981,639.19648 72.35,0"
       style="fill:none;stroke:#000000;stroke-width:0.9375;stroke-linecap:butt;stroke-linejoin:round;stroke-miterlimit:10;stroke-dasharray:none;stroke-opacity:1"
       id="path4736"
       inkscape:connector-curvature="0" />
    <path
       d="m 491.6856,624.04023 48.125,15"
       style="fill:none;stroke:#000000;stroke-width:1.25;stroke-linecap:butt;stroke-linejoin:round;stroke-miterlimit:10;stroke-dasharray:none;stroke-opacity:1"
       id="path4738"
       inkscape:connector-curvature="0" />
    <path
       d="m 551.6856,604.20273 6.725,22.5"
       style="fill:none;stroke:#000000;stroke-width:1.25;stroke-linecap:butt;stroke-linejoin:round;stroke-miterlimit:10;stroke-dasharray:none;stroke-opacity:1"
       id="path4740"
       inkscape:connector-curvature="0" />
    <path
       d="m 513.8731,598.96523 c 0,-3.5 10.95,-6.325 24.45,-6.325 l 0,0 c 13.5125,0 24.4625,2.825 24.4625,6.325 0,0 0,0 0,0 l 0,0 c 0,3.4875 -10.95,6.325 -24.4625,6.325 0,0 0,0 0,0 l 0,0 c -13.5,0 -24.45,-2.8375 -24.45,-6.325 0,0 0,0 0,0 z"
       style="fill:#ccccff;fill-opacity:1;fill-rule:evenodd;stroke:none"
       id="path4742"
       inkscape:connector-curvature="0" />
    <path
       d="m 513.8731,598.96523 c 0,-3.5 10.95,-6.325 24.45,-6.325 l 0,0 c 13.5125,0 24.4625,2.825 24.4625,6.325 0,0 0,0 0,0 l 0,0 c 0,3.4875 -10.95,6.325 -24.4625,6.325 0,0 0,0 0,0 l 0,0 c -13.5,0 -24.45,-2.8375 -24.45,-6.325 0,0 0,0 0,0 z"
       style="fill:none;stroke:#000000;stroke-width:1.25;stroke-linecap:butt;stroke-linejoin:round;stroke-miterlimit:10;stroke-dasharray:none;stroke-opacity:1"
       id="path4744"
       inkscape:connector-curvature="0" />
    <path
       d="m 513.8731,591.54023 0,7.8125"
       style="fill:none;stroke:#000000;stroke-width:1.25;stroke-linecap:butt;stroke-linejoin:round;stroke-miterlimit:10;stroke-dasharray:none;stroke-opacity:1"
       id="path4746"
       inkscape:connector-curvature="0" />
    <path
       d="m 562.7856,591.54023 0,7.8125"
       style="fill:none;stroke:#000000;stroke-width:1.25;stroke-linecap:butt;stroke-linejoin:round;stroke-miterlimit:10;stroke-dasharray:none;stroke-opacity:1"
       id="path4748"
       inkscape:connector-curvature="0" />
    <path
       d="m 513.8731,599.20273 48.4375,0 0,-7.65625 -48.4375,0 0,7.65625 z"
       style="fill:#ccccff;fill-opacity:1;fill-rule:evenodd;stroke:none"
       id="path4750"
       inkscape:connector-curvature="0" />
    <path
       d="m 513.4106,589.74023 c 0,-4.1 10.9375,-7.4125 24.45,-7.4125 l 0,0 c 13.5,0 24.45,3.3125 24.45,7.4125 0,0 0,0 0,0 l 0,0 c 0,4.1 -10.95,7.425 -24.45,7.425 0,0 0,0 0,0 l 0,0 c -13.5125,0 -24.45,-3.325 -24.45,-7.425 0,0 0,0 0,0 z"
       style="fill:#ccccff;fill-opacity:1;fill-rule:evenodd;stroke:none"
       id="path4752"
       inkscape:connector-curvature="0" />
    <path
       d="m 513.4106,589.74023 c 0,-4.1 10.9375,-7.4125 24.45,-7.4125 l 0,0 c 13.5,0 24.45,3.3125 24.45,7.4125 0,0 0,0 0,0 l 0,0 c 0,4.1 -10.95,7.425 -24.45,7.425 0,0 0,0 0,0 l 0,0 c -13.5125,0 -24.45,-3.325 -24.45,-7.425 0,0 0,0 0,0 z"
       style="fill:none;stroke:#000000;stroke-width:1.25;stroke-linecap:butt;stroke-linejoin:round;stroke-miterlimit:10;stroke-dasharray:none;stroke-opacity:1"
       id="path4754"
       inkscape:connector-curvature="0" />
    <path
       d="m 526.9981,602.79023 22.03125,0 0,-18.4375 -22.03125,0 0,18.4375 z"
       style="fill:#ccccff;fill-opacity:1;fill-rule:evenodd;stroke:none"
       id="path4756"
       inkscape:connector-curvature="0" />
    <text
       y="603.12775"
       x="525.43561"
       style="font-variant:normal;font-weight:normal;font-size:25px;font-family:Arial;-inkscape-font-specification:Arial;writing-mode:lr-tb;fill:#000000;fill-opacity:1;fill-rule:nonzero;stroke:none"
       id="text4758">
      <tspan
         x="525.43561 539.43561"
         y="603.12775"
         sodipodi:role="line"
         id="tspan4760">2c</tspan>
    </text>
    <path
       d="m 539.8106,643.80523 c 0,-3.49375 10.95,-6.3275 24.45,-6.3275 l 0,0 c 13.5125,0 24.4625,2.83375 24.4625,6.3275 0,0 0,10e-4 0,10e-4 l 0,0 c 0,3.495 -10.95,6.3275 -24.4625,6.3275 0,0 0,0 0,0 l 0,0 c -13.5,0 -24.45,-2.8325 -24.45,-6.3275 0,0 0,0 0,0 l 0,-10e-4 z"
       style="fill:#ccccff;fill-opacity:1;fill-rule:evenodd;stroke:none"
       id="path4762"
       inkscape:connector-curvature="0" />
    <path
       d="m 539.8106,643.80523 c 0,-3.49375 10.95,-6.3275 24.45,-6.3275 l 0,0 c 13.5125,0 24.4625,2.83375 24.4625,6.3275 0,0 0,10e-4 0,10e-4 l 0,0 c 0,3.495 -10.95,6.3275 -24.4625,6.3275 0,0 0,0 0,0 l 0,0 c -13.5,0 -24.45,-2.8325 -24.45,-6.3275 0,0 0,0 0,0 l 0,-10e-4 z"
       style="fill:none;stroke:#000000;stroke-width:1.25;stroke-linecap:butt;stroke-linejoin:round;stroke-miterlimit:10;stroke-dasharray:none;stroke-opacity:1"
       id="path4764"
       inkscape:connector-curvature="0" />
    <path
       d="m 539.8106,636.38398 0,7.8125"
       style="fill:none;stroke:#000000;stroke-width:1.25;stroke-linecap:butt;stroke-linejoin:round;stroke-miterlimit:10;stroke-dasharray:none;stroke-opacity:1"
       id="path4766"
       inkscape:connector-curvature="0" />
    <path
       d="m 588.7231,636.38398 0,7.8125"
       style="fill:none;stroke:#000000;stroke-width:1.25;stroke-linecap:butt;stroke-linejoin:round;stroke-miterlimit:10;stroke-dasharray:none;stroke-opacity:1"
       id="path4768"
       inkscape:connector-curvature="0" />
    <path
       d="m 539.8106,644.04023 48.4375,0 0,-7.65625 -48.4375,0 0,7.65625 z"
       style="fill:#ccccff;fill-opacity:1;fill-rule:evenodd;stroke:none"
       id="path4770"
       inkscape:connector-curvature="0" />
    <path
       d="m 539.3481,634.58773 c 0,-4.1 10.9375,-7.4225 24.45,-7.4225 l 0,0 c 13.5,0 24.45,3.3225 24.45,7.4225 0,0 0,0 0,0 l 0,0 c 0,4.09875 -10.95,7.42125 -24.45,7.42125 0,0 0,0 0,0 l 0,0 c -13.5125,0 -24.45,-3.3225 -24.45,-7.42125 0,0 0,0 0,0 z"
       style="fill:#ccccff;fill-opacity:1;fill-rule:evenodd;stroke:none"
       id="path4772"
       inkscape:connector-curvature="0" />
    <path
       d="m 539.3481,634.58773 c 0,-4.1 10.9375,-7.4225 24.45,-7.4225 l 0,0 c 13.5,0 24.45,3.3225 24.45,7.4225 0,0 0,0 0,0 l 0,0 c 0,4.09875 -10.95,7.42125 -24.45,7.42125 0,0 0,0 0,0 l 0,0 c -13.5125,0 -24.45,-3.3225 -24.45,-7.42125 0,0 0,0 0,0 z"
       style="fill:none;stroke:#000000;stroke-width:1.25;stroke-linecap:butt;stroke-linejoin:round;stroke-miterlimit:10;stroke-dasharray:none;stroke-opacity:1"
       id="path4774"
       inkscape:connector-curvature="0" />
    <path
       d="m 552.9356,646.38398 22.1875,0 0,-17.1875 -22.1875,0 0,17.1875 z"
       style="fill:#ccccff;fill-opacity:1;fill-rule:evenodd;stroke:none"
       id="path4776"
       inkscape:connector-curvature="0" />
    <text
       y="648.00897"
       x="550.78558"
       style="font-variant:normal;font-weight:normal;font-size:25px;font-family:Arial;-inkscape-font-specification:Arial;writing-mode:lr-tb;fill:#000000;fill-opacity:1;fill-rule:nonzero;stroke:none"
       id="text4778">
      <tspan
         x="550.78558 564.78558"
         y="648.00897"
         sodipodi:role="line"
         id="tspan4780">2b</tspan>
    </text>
    <g
       transform="matrix(1.25,0,0,-1.25,-91.126899,752.47773)"
       id="g4790">
      <path
         d="m 111.25,115 c -4.25,11.63 -9.5,20.75 -22.625,27.75 -13.125,7 -46.875,21.5 -56.25,14.5 -9.375,-7 0.5,-36.25 0.25,-56.62 -0.25,-20.38 -8.75,-55.88 -2,-65.38 C 37.375,25.75 60,39.375 73,44 c 13,4.625 29.5,7.25 35.87,19.125 6.38,11.75 1.88,41.005 2.38,51.875 z"
         style="fill:url(#linearGradient4792);fill-opacity:1;fill-rule:evenodd;stroke:none"
         id="path4798"
         inkscape:connector-curvature="0" />
    </g>
    <path
       d="m 68.098105,581.22773 -46.1,26.4125"
       style="fill:none;stroke:#000000;stroke-width:1.25;stroke-linecap:butt;stroke-linejoin:round;stroke-miterlimit:10;stroke-dasharray:none;stroke-opacity:1"
       id="path4808"
       inkscape:connector-curvature="0" />
    <path
       d="m 392.4731,655.13398 51.5625,-25.78125"
       style="fill:none;stroke:#000000;stroke-width:1.875;stroke-linecap:butt;stroke-linejoin:round;stroke-miterlimit:10;stroke-dasharray:none;stroke-opacity:1"
       id="path4810"
       inkscape:connector-curvature="0" />
    <path
       d="m 184.4981,571.06523 69.375,40.325"
       style="fill:none;stroke:#000000;stroke-width:1.875;stroke-linecap:butt;stroke-linejoin:round;stroke-miterlimit:10;stroke-dasharray:none;stroke-opacity:1"
       id="path4812"
       inkscape:connector-curvature="0" />
    <text
       xml:space="preserve"
       style="font-style:normal;font-weight:normal;font-size:40px;line-height:114.99999762%;font-family:sans-serif;letter-spacing:0px;word-spacing:0px;fill:#000000;fill-opacity:1;stroke:none;stroke-width:1px;stroke-linecap:butt;stroke-linejoin:miter;stroke-opacity:1"
       x="-46.042316"
       y="634.62262"
       id="text5274"
       sodipodi:linespacing="115%"><tspan
         sodipodi:role="line"
         id="tspan5276"
         x="-46.042316"
         y="634.62262"
         style="font-size:20px;line-height:114.99999762%">outras</tspan><tspan
         sodipodi:role="line"
         x="-46.042316"
         y="657.62262"
         id="tspan5278"
         style="font-size:20px;line-height:114.99999762%">redes</tspan></text>
    <text
       sodipodi:linespacing="115%"
       id="text5280"
       y="610.32916"
       x="659.30585"
       style="font-style:normal;font-weight:normal;font-size:40px;line-height:114.99999762%;font-family:sans-serif;letter-spacing:0px;word-spacing:0px;fill:#000000;fill-opacity:1;stroke:none;stroke-width:1px;stroke-linecap:butt;stroke-linejoin:miter;stroke-opacity:1"
       xml:space="preserve"><tspan
         style="font-size:20px;line-height:114.99999762%"
         y="610.32916"
         x="659.30585"
         id="tspan5282"
         sodipodi:role="line">outras</tspan><tspan
         style="font-size:20px;line-height:114.99999762%"
         id="tspan5284"
         y="633.32916"
         x="659.30585"
         sodipodi:role="line">redes</tspan></text>
    <path
       d="m 261.14114,497.5622 c 5.675,-6.5875 2.5625,-12.15 7.35,-15.9625 4.8,-3.825 10.6375,-5.0375 21.425,-6.95 10.8,-1.9 33.425,-8.5 43.175,-4.1625 9.7625,4.3375 16.8,18.575 15.4375,29.8625 -1.3625,11.275 -11.75,30.8875 -23.35,37.4875 -11.5875,6.5875 -35.175,4.3375 -46.525,2.075 -11.3625,-2.25 -18.7875,-8.15 -21.675,-15.2625 -2.875,-7.125 3.275,-21.525 4.1625,-27.0875 z"
       style="fill:#66ccff;fill-opacity:1;fill-rule:evenodd;stroke:none"
       id="path5715"
       inkscape:connector-curvature="0" />
    <text
       y="515.52472"
       x="294.94113"
       style="font-variant:normal;font-weight:normal;font-size:30px;font-family:Arial;-inkscape-font-specification:Arial;writing-mode:lr-tb;fill:#ffffff;fill-opacity:1;fill-rule:nonzero;stroke:none"
       id="text5717">
      <tspan
         x="294.94113"
         y="515.52472"
         id="tspan5719">x</tspan>
    </text>
    <g
       transform="matrix(1.25,0,0,-1.25,-95.583869,748.3372)"
       id="g5723">
      <g
         id="g5725"
         clip-path="url(#clipPath5727)">
        <path
           d="m 249.24,183.86 -1.33,4.2 4.19,1.33 1.34,-4.19 -4.2,-1.34 z m 13.98,4.46 -1.33,4.2 4.19,1.33 1.34,-4.19 -4.2,-1.34 z m 13.96,4.45 -1.34,4.2 4.22,1.34 1.34,-4.19 -4.22,-1.35 z"
           style="fill:#000000;fill-opacity:1;fill-rule:nonzero;stroke:none"
           id="path5731"
           inkscape:connector-curvature="0" />
      </g>
    </g>
    <g
       transform="matrix(1.2499999,0,0,-1.2499999,-85.609166,730.6368)"
       id="g6257">
      <g
         id="g6259"
         clip-path="url(#clipPath6261)">
        <path
           d="m 352.05,174.56 2.7,3.49 3.48,-2.69 -2.69,-3.49 -3.49,2.69 z m 11.62,-8.97 2.69,3.49 3.48,-2.7 -2.69,-3.48 -3.48,2.69 z m 11.59,-8.96 2.69,3.49 3.51,-2.71 -2.7,-3.48 -3.5,2.7 z m 11.61,-8.97 2.7,3.49 3.48,-2.69 -2.69,-3.49 -3.49,2.69 z m 11.61,-8.97 2.7,3.49 3.48,-2.7 -2.69,-3.48 -3.49,2.69 z m 11.6,-8.96 2.69,3.49 3.5,-2.71 -2.69,-3.48 -3.5,2.7 z"
           style="fill:#000000;fill-opacity:1;fill-rule:nonzero;stroke:none"
           id="path6265"
           inkscape:connector-curvature="0" />
      </g>
    </g>
    <path
       d="m 291.64005,685.44471 35.8,-12.33875 0.4125,1.18125 -35.8125,12.34 -0.4,-1.1825 z m 33.6,-14.88625 8.3125,1.1025 -5.8625,5.98875 -2.45,-7.09125 z"
       style="fill:#ff0000;fill-opacity:1;fill-rule:nonzero;stroke:none"
       id="path6277"
       inkscape:connector-curvature="0" />
    <path
       d="m 291.99005,682.44221 0,-52.18749 1.25,0 0,52.18749 -1.25,0 z m -3.125,-50.93749 3.75,-7.5 3.75,7.5 -7.5,0 z"
       style="fill:#ff0000;fill-opacity:1;fill-rule:nonzero;stroke:none"
       id="path6281"
       inkscape:connector-curvature="0" />
    <text
       y="703.8797"
       x="282.02756"
       style="font-variant:normal;font-weight:bold;font-size:22.53125px;font-family:Arial;-inkscape-font-specification:'Arial Bold';writing-mode:lr-tb;fill:#ff0000;fill-opacity:1;fill-rule:nonzero;stroke:none"
       id="text6283">
      <tspan
         x="282.02756"
         y="703.8797"
         id="tspan6285">?</tspan>
    </text>
  </g>
</svg>
