<?xml version="1.0" encoding="UTF-8" standalone="no"?>
<!-- Created with Inkscape (http://www.inkscape.org/) -->

<svg
   xmlns:dc="http://purl.org/dc/elements/1.1/"
   xmlns:cc="http://creativecommons.org/ns#"
   xmlns:rdf="http://www.w3.org/1999/02/22-rdf-syntax-ns#"
   xmlns:svg="http://www.w3.org/2000/svg"
   xmlns="http://www.w3.org/2000/svg"
   xmlns:sodipodi="http://sodipodi.sourceforge.net/DTD/sodipodi-0.dtd"
   xmlns:inkscape="http://www.inkscape.org/namespaces/inkscape"
   width="218.82999mm"
   height="64.440315mm"
   viewBox="0 0 775.38183 228.33182"
   id="svg3991"
   version="1.1"
   inkscape:version="0.91 r13725"
   sodipodi:docname="RIP1.svg">
<defs><style type="text/css">@import url(https://fonts.googleapis.com/css?family=Lora:400,400italic,700,700italic)</style></defs>
  <defs
     id="defs3993">
    <linearGradient
       x1="289.84"
       y1="323.98001"
       x2="289.84"
       y2="227.83"
       gradientUnits="userSpaceOnUse"
       spreadMethod="pad"
       id="linearGradient258">
      <stop
         style="stop-opacity:1;stop-color:#5f5f5f"
         offset="0"
         id="stop260" />
      <stop
         style="stop-opacity:1;stop-color:#5f5f5f"
         offset="1"
         id="stop262" />
    </linearGradient>
    <linearGradient
       x1="196.63"
       y1="95.535004"
       x2="-56.278"
       y2="95.535004"
       gradientUnits="userSpaceOnUse"
       spreadMethod="pad"
       id="linearGradient4792">
      <stop
         style="stop-opacity:1;stop-color:#ffffff"
         offset="0"
         id="stop4794" />
      <stop
         style="stop-opacity:1;stop-color:#66ccff"
         offset="1"
         id="stop4796" />
    </linearGradient>
    <linearGradient
       x1="491.62"
       y1="112.04"
       x2="744.53003"
       y2="112.04"
       gradientUnits="userSpaceOnUse"
       spreadMethod="pad"
       id="linearGradient4528">
      <stop
         style="stop-opacity:1;stop-color:#ffffff"
         offset="0"
         id="stop4530" />
      <stop
         style="stop-opacity:1;stop-color:#66ccff"
         offset="1"
         id="stop4532" />
    </linearGradient>
    <clipPath
       clipPathUnits="userSpaceOnUse"
       id="clipPath5727">
      <path
         d="M -5.27e-7,540 720,540 720,6.104e-6 -2.089e-6,6.104e-6"
         id="path5729"
         inkscape:connector-curvature="0"
         style="clip-rule:evenodd" />
    </clipPath>
    <clipPath
       clipPathUnits="userSpaceOnUse"
       id="clipPath6261">
      <path
         d="M -4.301e-6,540 720,540 720,6.104e-6 l -720.000005662,0"
         id="path6263"
         inkscape:connector-curvature="0"
         style="clip-rule:evenodd" />
    </clipPath>
    <clipPath
       clipPathUnits="userSpaceOnUse"
       id="clipPath6595">
      <path
         d="m 0,1.2207e-4 720,0 0,539.99999793 -720,0 L 0,1.2207e-4 Z"
         id="path6597"
         inkscape:connector-curvature="0"
         style="clip-rule:evenodd" />
    </clipPath>
  </defs>
  <sodipodi:namedview
     id="base"
     pagecolor="#ffffff"
     bordercolor="#666666"
     borderopacity="1.0"
     inkscape:pageopacity="0.0"
     inkscape:pageshadow="2"
     inkscape:zoom="4.813715"
     inkscape:cx="579.05368"
     inkscape:cy="185.48051"
     inkscape:document-units="px"
     inkscape:current-layer="layer1"
     showgrid="false"
     fit-margin-top="0"
     fit-margin-left="0"
     fit-margin-right="0"
     fit-margin-bottom="0"
     inkscape:window-width="1116"
     inkscape:window-height="1062"
     inkscape:window-x="2161"
     inkscape:window-y="0"
     inkscape:window-maximized="0" />
  <metadata
     id="metadata3996">
    <rdf:RDF>
      <cc:Work
         rdf:about="">
        <dc:format>image/svg+xml</dc:format>
        <dc:type
           rdf:resource="http://purl.org/dc/dcmitype/StillImage" />
        <dc:title></dc:title>
      </cc:Work>
    </rdf:RDF>
  </metadata>
  <g
     inkscape:label="Layer 1"
     inkscape:groupmode="layer"
     id="layer1"
     transform="translate(44.468529,-474.84937)">
    <path
       d="m -44.468529,577.52084 c 0.8675,-19.2625 22.742497,-33.4625 38.0212446,-49.4625 15.2787486,-15.99999 15.2787486,-40.97499 53.8162444,-46.68749 38.549995,-5.7125 135.76249,0.1625 177.43748,12.4125 41.6625,12.2375 53.63749,39.17499 72.38749,60.71249 18.75,21.55 48.9625,46.3625 40.1125,69.05499 -8.8625,22.69 -58.8625,53.54125 -93.74999,66.59999 -34.9,13.05875 -81.07499,10.61 -115.62499,11.7525 -34.549995,1.14375 -65.974992,3.755 -91.674989,-4.89625 -25.687497,-8.65125 -49.474994,-27.09749 -63.016242,-47.01249 -13.542498,-19.915 -14.062498,-57.46124 -17.708748,-72.47374 z"
       style="fill:#99ccff;fill-opacity:1;fill-rule:evenodd;stroke:none"
       id="path6497"
       inkscape:connector-curvature="0" />
    <path
       d="m 63.356458,648.91583 c 0,-2.9475 10.187499,-5.3375 22.749997,-5.3375 l 0,0 c 12.562499,0 22.737495,2.39 22.737495,5.3375 0,0 0,0 0,0 l 0,0 c 0,2.94875 -10.174996,5.33875 -22.737495,5.33875 0,0 0,0 0,0 l 0,0 c -12.562498,0 -22.749997,-2.39 -22.749997,-5.33875 0,0 0,0 0,0 z"
       style="fill:#ccccff;fill-opacity:1;fill-rule:evenodd;stroke:none"
       id="path6499"
       inkscape:connector-curvature="0" />
    <path
       d="m 63.356458,648.91583 c 0,-2.9475 10.187499,-5.3375 22.749997,-5.3375 l 0,0 c 12.562499,0 22.737495,2.39 22.737495,5.3375 0,0 0,0 0,0 l 0,0 c 0,2.94875 -10.174996,5.33875 -22.737495,5.33875 0,0 0,0 0,0 l 0,0 c -12.562498,0 -22.749997,-2.39 -22.749997,-5.33875 0,0 0,0 0,0 z"
       style="fill:none;stroke:#000000;stroke-width:1.25;stroke-linecap:butt;stroke-linejoin:round;stroke-miterlimit:10;stroke-dasharray:none;stroke-opacity:1"
       id="path6501"
       inkscape:connector-curvature="0" />
    <path
       d="m 63.356458,642.65583 0,6.59"
       style="fill:none;stroke:#000000;stroke-width:1.25;stroke-linecap:butt;stroke-linejoin:round;stroke-miterlimit:10;stroke-dasharray:none;stroke-opacity:1"
       id="path6503"
       inkscape:connector-curvature="0" />
    <path
       d="m 108.84395,642.65583 0,6.59"
       style="fill:none;stroke:#000000;stroke-width:1.25;stroke-linecap:butt;stroke-linejoin:round;stroke-miterlimit:10;stroke-dasharray:none;stroke-opacity:1"
       id="path6505"
       inkscape:connector-curvature="0" />
    <path
       d="m 63.356458,649.11333 45.049992,0 0,-6.4585 -45.049992,0 0,6.4585 z"
       style="fill:#ccccff;fill-opacity:1;fill-rule:evenodd;stroke:none"
       id="path6507"
       inkscape:connector-curvature="0" />
    <path
       d="m 62.918958,641.13958 c 0,-3.4575 10.187499,-6.26 22.749997,-6.26 l 0,0 c 12.562499,0 22.737495,2.8025 22.737495,6.26 0,0 0,0 0,0 l 0,0 c 0,3.4575 -10.174996,6.26125 -22.737495,6.26125 0,0 0,0 0,0 l 0,0 c -12.562498,0 -22.749997,-2.80375 -22.749997,-6.26125 0,0 0,0 0,0 z"
       style="fill:#ccccff;fill-opacity:1;fill-rule:evenodd;stroke:none"
       id="path6509"
       inkscape:connector-curvature="0" />
    <path
       d="m 62.918958,641.13958 c 0,-3.4575 10.187499,-6.26 22.749997,-6.26 l 0,0 c 12.562499,0 22.737495,2.8025 22.737495,6.26 0,0 0,0 0,0 l 0,0 c 0,3.4575 -10.174996,6.26125 -22.737495,6.26125 0,0 0,0 0,0 l 0,0 c -12.562498,0 -22.749997,-2.80375 -22.749997,-6.26125 0,0 0,0 0,0 z"
       style="fill:none;stroke:#000000;stroke-width:1.25;stroke-linecap:butt;stroke-linejoin:round;stroke-miterlimit:10;stroke-dasharray:none;stroke-opacity:1"
       id="path6511"
       inkscape:connector-curvature="0" />
    <path
       d="m 62.781458,557.97084 c 0,-2.95 10.174999,-5.3375 22.737498,-5.3375 l 0,0 c 12.562498,0 22.749994,2.3875 22.749994,5.3375 0,0 0,0 0,0 l 0,0 c 0,2.95 -10.187496,5.3375 -22.749994,5.3375 0,0 0,0 0,0 l 0,0 c -12.562499,0 -22.737498,-2.3875 -22.737498,-5.3375 0,0 0,0 0,0 z"
       style="fill:#ccccff;fill-opacity:1;fill-rule:evenodd;stroke:none"
       id="path6513"
       inkscape:connector-curvature="0" />
    <path
       d="m 62.781458,557.97084 c 0,-2.95 10.174999,-5.3375 22.737498,-5.3375 l 0,0 c 12.562498,0 22.749994,2.3875 22.749994,5.3375 0,0 0,0 0,0 l 0,0 c 0,2.95 -10.187496,5.3375 -22.749994,5.3375 0,0 0,0 0,0 l 0,0 c -12.562499,0 -22.737498,-2.3875 -22.737498,-5.3375 0,0 0,0 0,0 z"
       style="fill:none;stroke:#000000;stroke-width:1.25;stroke-linecap:butt;stroke-linejoin:round;stroke-miterlimit:10;stroke-dasharray:none;stroke-opacity:1"
       id="path6515"
       inkscape:connector-curvature="0" />
    <path
       d="m 62.781458,551.70834 0,6.5875"
       style="fill:none;stroke:#000000;stroke-width:1.25;stroke-linecap:butt;stroke-linejoin:round;stroke-miterlimit:10;stroke-dasharray:none;stroke-opacity:1"
       id="path6517"
       inkscape:connector-curvature="0" />
    <path
       d="m 108.11895,551.70834 0,6.5875"
       style="fill:none;stroke:#000000;stroke-width:1.25;stroke-linecap:butt;stroke-linejoin:round;stroke-miterlimit:10;stroke-dasharray:none;stroke-opacity:1"
       id="path6519"
       inkscape:connector-curvature="0" />
    <path
       d="m 62.781458,558.17084 45.339992,0 0,-6.4585 -45.339992,0 0,6.4585 z"
       style="fill:#ccccff;fill-opacity:1;fill-rule:evenodd;stroke:none"
       id="path6521"
       inkscape:connector-curvature="0" />
    <path
       d="m 62.343958,550.19584 c 0,-3.4625 10.187499,-6.2625 22.737498,-6.2625 l 0,0 c 12.562498,0 22.749994,2.8 22.749994,6.2625 0,0 0,0 0,0 l 0,0 c 0,3.45 -10.187496,6.2625 -22.749994,6.2625 0,0 0,0 0,0 l 0,0 c -12.549999,0 -22.737498,-2.8125 -22.737498,-6.2625 0,0 0,0 0,0 z"
       style="fill:#ccccff;fill-opacity:1;fill-rule:evenodd;stroke:none"
       id="path6523"
       inkscape:connector-curvature="0" />
    <path
       d="m 62.343958,550.19584 c 0,-3.4625 10.187499,-6.2625 22.737498,-6.2625 l 0,0 c 12.562498,0 22.749994,2.8 22.749994,6.2625 0,0 0,0 0,0 l 0,0 c 0,3.45 -10.187496,6.2625 -22.749994,6.2625 0,0 0,0 0,0 l 0,0 c -12.549999,0 -22.737498,-2.8125 -22.737498,-6.2625 0,0 0,0 0,0 z"
       style="fill:none;stroke:#000000;stroke-width:1.25;stroke-linecap:butt;stroke-linejoin:round;stroke-miterlimit:10;stroke-dasharray:none;stroke-opacity:1"
       id="path6525"
       inkscape:connector-curvature="0" />
    <path
       d="m 162.03145,557.50834 c 0,-2.9875 10.15,-5.4 22.675,-5.4 l 0,0 c 12.51249,0 22.66249,2.4125 22.66249,5.4 0,0 0,0 0,0 l 0,0 c 0,2.9875 -10.15,5.4 -22.66249,5.4 0,0 0,0 0,0 l 0,0 c -12.525,0 -22.675,-2.4125 -22.675,-5.4 0,0 0,0 0,0 z"
       style="fill:#ccccff;fill-opacity:1;fill-rule:evenodd;stroke:none"
       id="path6527"
       inkscape:connector-curvature="0" />
    <path
       d="m 162.03145,557.50834 c 0,-2.9875 10.15,-5.4 22.675,-5.4 l 0,0 c 12.51249,0 22.66249,2.4125 22.66249,5.4 0,0 0,0 0,0 l 0,0 c 0,2.9875 -10.15,5.4 -22.66249,5.4 0,0 0,0 0,0 l 0,0 c -12.525,0 -22.675,-2.4125 -22.675,-5.4 0,0 0,0 0,0 z"
       style="fill:none;stroke:#000000;stroke-width:1.25;stroke-linecap:butt;stroke-linejoin:round;stroke-miterlimit:10;stroke-dasharray:none;stroke-opacity:1"
       id="path6529"
       inkscape:connector-curvature="0" />
    <path
       d="m 162.03145,551.18334 0,6.725"
       style="fill:none;stroke:#000000;stroke-width:1.25;stroke-linecap:butt;stroke-linejoin:round;stroke-miterlimit:10;stroke-dasharray:none;stroke-opacity:1"
       id="path6531"
       inkscape:connector-curvature="0" />
    <path
       d="m 207.36894,551.18334 0,6.725"
       style="fill:none;stroke:#000000;stroke-width:1.25;stroke-linecap:butt;stroke-linejoin:round;stroke-miterlimit:10;stroke-dasharray:none;stroke-opacity:1"
       id="path6533"
       inkscape:connector-curvature="0" />
    <path
       d="m 162.03145,557.90834 44.90499,0 0,-6.722 -44.90499,0 0,6.722 z"
       style="fill:#ccccff;fill-opacity:1;fill-rule:evenodd;stroke:none"
       id="path6535"
       inkscape:connector-curvature="0" />
    <path
       d="m 162.46895,550.05834 c 0,-3.45 10.2125,-6.2625 22.8125,-6.2625 l 0,0 c 12.59999,0 22.82499,2.8125 22.82499,6.2625 0,0 0,0 0,0 l 0,0 c 0,3.4625 -10.225,6.2625 -22.82499,6.2625 0,0 0,0 0,0 l 0,0 c -12.6,0 -22.8125,-2.8 -22.8125,-6.2625 0,0 0,0 0,0 z"
       style="fill:#ccccff;fill-opacity:1;fill-rule:evenodd;stroke:none"
       id="path6537"
       inkscape:connector-curvature="0" />
    <path
       d="m 162.46895,550.05834 c 0,-3.45 10.2125,-6.2625 22.8125,-6.2625 l 0,0 c 12.59999,0 22.82499,2.8125 22.82499,6.2625 0,0 0,0 0,0 l 0,0 c 0,3.4625 -10.225,6.2625 -22.82499,6.2625 0,0 0,0 0,0 l 0,0 c -12.6,0 -22.8125,-2.8 -22.8125,-6.2625 0,0 0,0 0,0 z"
       style="fill:none;stroke:#000000;stroke-width:1.25;stroke-linecap:butt;stroke-linejoin:round;stroke-miterlimit:10;stroke-dasharray:none;stroke-opacity:1"
       id="path6539"
       inkscape:connector-curvature="0" />
    <path
       d="m 163.48145,648.52083 c 0,-2.94875 10.1875,-5.33875 22.75,-5.33875 l 0,0 c 12.56249,0 22.73749,2.39 22.73749,5.33875 0,0 0,0 0,0 l 0,0 c 0,2.9475 -10.175,5.3375 -22.73749,5.3375 0,0 0,0 0,0 l 0,0 c -12.5625,0 -22.75,-2.39 -22.75,-5.3375 0,0 0,0 0,0 z"
       style="fill:#ccccff;fill-opacity:1;fill-rule:evenodd;stroke:none"
       id="path6541"
       inkscape:connector-curvature="0" />
    <path
       d="m 163.48145,648.52083 c 0,-2.94875 10.1875,-5.33875 22.75,-5.33875 l 0,0 c 12.56249,0 22.73749,2.39 22.73749,5.33875 0,0 0,0 0,0 l 0,0 c 0,2.9475 -10.175,5.3375 -22.73749,5.3375 0,0 0,0 0,0 l 0,0 c -12.5625,0 -22.75,-2.39 -22.75,-5.3375 0,0 0,0 0,0 z"
       style="fill:none;stroke:#000000;stroke-width:1.25;stroke-linecap:butt;stroke-linejoin:round;stroke-miterlimit:10;stroke-dasharray:none;stroke-opacity:1"
       id="path6543"
       inkscape:connector-curvature="0" />
    <path
       d="m 163.48145,642.25958 0,6.59"
       style="fill:none;stroke:#000000;stroke-width:1.25;stroke-linecap:butt;stroke-linejoin:round;stroke-miterlimit:10;stroke-dasharray:none;stroke-opacity:1"
       id="path6545"
       inkscape:connector-curvature="0" />
    <path
       d="m 163.48145,648.84958 45.04999,0 0,-6.59025 -45.04999,0 0,6.59025 z"
       style="fill:#ccccff;fill-opacity:1;fill-rule:evenodd;stroke:none"
       id="path6547"
       inkscape:connector-curvature="0" />
    <path
       d="m 163.05645,640.67833 c 0,-3.49375 10.175,-6.32625 22.7375,-6.32625 l 0,0 c 12.56249,0 22.73749,2.8325 22.73749,6.32625 0,0 0,0 0,0 l 0,0 c 0,3.49375 -10.175,6.32625 -22.73749,6.32625 0,0 0,0 0,0 l 0,0 c -12.5625,0 -22.7375,-2.8325 -22.7375,-6.32625 0,0 0,0 0,0 z"
       style="fill:#ccccff;fill-opacity:1;fill-rule:evenodd;stroke:none"
       id="path6549"
       inkscape:connector-curvature="0" />
    <path
       d="m 163.05645,640.67833 c 0,-3.49375 10.175,-6.32625 22.7375,-6.32625 l 0,0 c 12.56249,0 22.73749,2.8325 22.73749,6.32625 0,0 0,0 0,0 l 0,0 c 0,3.49375 -10.175,6.32625 -22.73749,6.32625 0,0 0,0 0,0 l 0,0 c -12.5625,0 -22.7375,-2.8325 -22.7375,-6.32625 0,0 0,0 0,0 z"
       style="fill:none;stroke:#000000;stroke-width:1.25;stroke-linecap:butt;stroke-linejoin:round;stroke-miterlimit:10;stroke-dasharray:none;stroke-opacity:1"
       id="path6551"
       inkscape:connector-curvature="0" />
    <path
       d="m 186.15645,564.23334 0,68.79999"
       style="fill:none;stroke:#000000;stroke-width:1.25;stroke-linecap:butt;stroke-linejoin:round;stroke-miterlimit:10;stroke-dasharray:none;stroke-opacity:1"
       id="path6553"
       inkscape:connector-curvature="0" />
    <path
       d="m 85.443956,565.02084 0,70.78124"
       style="fill:none;stroke:#000000;stroke-width:1.25;stroke-linecap:butt;stroke-linejoin:round;stroke-miterlimit:10;stroke-dasharray:none;stroke-opacity:1"
       id="path6555"
       inkscape:connector-curvature="0" />
    <path
       d="m 163.48145,646.08208 -53.1875,0"
       style="fill:none;stroke:#000000;stroke-width:1.25;stroke-linecap:butt;stroke-linejoin:round;stroke-miterlimit:10;stroke-dasharray:none;stroke-opacity:1"
       id="path6557"
       inkscape:connector-curvature="0" />
    <path
       d="m 162.61895,555.13334 -53.1875,0"
       style="fill:none;stroke:#000000;stroke-width:1.25;stroke-linecap:butt;stroke-linejoin:round;stroke-miterlimit:10;stroke-dasharray:none;stroke-opacity:1"
       id="path6559"
       inkscape:connector-curvature="0" />
    <path
       d="m 175.89395,653.72708 20.67874,0 0,-17.39875 -20.67874,0 0,17.39875 z"
       style="fill:#ccccff;fill-opacity:1;fill-rule:evenodd;stroke:none"
       id="path6561"
       inkscape:connector-curvature="0" />
    <text
       y="656.47083"
       x="177.81894"
       style="font-variant:normal;font-weight:normal;font-size:25px;font-family:Arial;-inkscape-font-specification:Arial;writing-mode:lr-tb;fill:#000000;fill-opacity:1;fill-rule:nonzero;stroke:none"
       id="text6563">
      <tspan
         x="177.81894"
         y="656.47083"
         id="tspan6565">D</tspan>
    </text>
    <path
       d="m 76.406457,653.33208 20.994997,0 0,-17.53 -20.994997,0 0,17.53 z"
       style="fill:#ccccff;fill-opacity:1;fill-rule:evenodd;stroke:none"
       id="path6567"
       inkscape:connector-curvature="0" />
    <text
       y="657.12708"
       x="76.656456"
       style="font-variant:normal;font-weight:normal;font-size:30px;font-family:Arial;-inkscape-font-specification:Arial;writing-mode:lr-tb;fill:#000000;fill-opacity:1;fill-rule:nonzero;stroke:none"
       id="text6569">
      <tspan
         x="76.656456"
         y="657.12708"
         id="tspan6571">C</tspan>
    </text>
    <path
       d="m 174.74395,562.90834 20.66749,0 0,-17.53 -20.66749,0 0,17.53 z"
       style="fill:#ccccff;fill-opacity:1;fill-rule:evenodd;stroke:none"
       id="path6573"
       inkscape:connector-curvature="0" />
    <text
       y="565.49585"
       x="177.21893"
       style="font-variant:normal;font-weight:normal;font-size:25.03125px;font-family:Arial;-inkscape-font-specification:Arial;writing-mode:lr-tb;fill:#000000;fill-opacity:1;fill-rule:nonzero;stroke:none"
       id="text6575">
      <tspan
         x="177.21893"
         y="565.49585"
         id="tspan6577">B</tspan>
    </text>
    <path
       d="m 75.343957,562.90834 20.668747,0 0,-17.53 -20.668747,0 0,17.53 z"
       style="fill:#ccccff;fill-opacity:1;fill-rule:evenodd;stroke:none"
       id="path6579"
       inkscape:connector-curvature="0" />
    <text
       y="565.49585"
       x="78.156456"
       style="font-variant:normal;font-weight:normal;font-size:25.03125px;font-family:Arial;-inkscape-font-specification:Arial;writing-mode:lr-tb;fill:#000000;fill-opacity:1;fill-rule:nonzero;stroke:none"
       id="text6581">
      <tspan
         x="78.156456"
         y="565.49585"
         id="tspan6583">A</tspan>
    </text>
    <path
       d="m 206.64394,551.58334 49.125,18.8375"
       style="fill:none;stroke:#000000;stroke-width:0.9375;stroke-linecap:butt;stroke-linejoin:round;stroke-miterlimit:10;stroke-dasharray:none;stroke-opacity:1"
       id="path6585"
       inkscape:connector-curvature="0" />
    <path
       d="m 199.81894,545.12084 20.775,-25.31249"
       style="fill:none;stroke:#000000;stroke-width:0.9375;stroke-linecap:butt;stroke-linejoin:round;stroke-miterlimit:10;stroke-dasharray:none;stroke-opacity:1"
       id="path6587"
       inkscape:connector-curvature="0" />
    <path
       d="m 206.64394,640.41458 34.875,-31.89375"
       style="fill:none;stroke:#000000;stroke-width:0.9375;stroke-linecap:butt;stroke-linejoin:round;stroke-miterlimit:10;stroke-dasharray:none;stroke-opacity:1"
       id="path6589"
       inkscape:connector-curvature="0" />
    <g
       transform="matrix(1.2499999,0,0,-1.2499999,-126.65602,742.84582)"
       id="g6591">
      <g
         id="g6593"
         clip-path="url(#clipPath6595)">
        <path
           d="m 266.64,77.094 0,0"
           style="fill:none;stroke:#000000;stroke-width:0.75;stroke-linecap:butt;stroke-linejoin:round;stroke-miterlimit:10;stroke-dasharray:none;stroke-opacity:1"
           id="path6599"
           inkscape:connector-curvature="0" />
      </g>
    </g>
    <path
       d="m 206.64394,646.47833 41.85,12.6525"
       style="fill:none;stroke:#000000;stroke-width:0.9375;stroke-linecap:butt;stroke-linejoin:round;stroke-miterlimit:10;stroke-dasharray:none;stroke-opacity:1"
       id="path6601"
       inkscape:connector-curvature="0" />
    <path
       d="M 74.118957,545.12084 32.256462,513.62085"
       style="fill:none;stroke:#000000;stroke-width:0.9375;stroke-linecap:butt;stroke-linejoin:round;stroke-miterlimit:10;stroke-dasharray:none;stroke-opacity:1"
       id="path6603"
       inkscape:connector-curvature="0" />
    <path
       d="m 67.143958,640.41458 -55.812494,-6.59"
       style="fill:none;stroke:#000000;stroke-width:0.9375;stroke-linecap:butt;stroke-linejoin:round;stroke-miterlimit:10;stroke-dasharray:none;stroke-opacity:1"
       id="path6605"
       inkscape:connector-curvature="0" />
    <text
       y="527.12085"
       x="55.243961"
       style="font-variant:normal;font-weight:normal;font-size:22.53125px;font-family:Arial;-inkscape-font-specification:Arial;writing-mode:lr-tb;fill:#000000;fill-opacity:1;fill-rule:nonzero;stroke:none"
       id="text6607">
      <tspan
         x="55.243961"
         y="527.12085"
         id="tspan6609">u</tspan>
    </text>
    <text
       y="527.50836"
       x="194.80643"
       style="font-variant:normal;font-weight:normal;font-size:22.5px;font-family:Arial;-inkscape-font-specification:Arial;writing-mode:lr-tb;fill:#000000;fill-opacity:1;fill-rule:nonzero;stroke:none"
       id="text6611">
      <tspan
         x="194.80643"
         y="527.50836"
         id="tspan6613">v</tspan>
    </text>
    <text
       y="559.28333"
       x="229.69394"
       style="font-variant:normal;font-weight:normal;font-size:22.5px;font-family:Arial;-inkscape-font-specification:Arial;writing-mode:lr-tb;fill:#000000;fill-opacity:1;fill-rule:nonzero;stroke:none"
       id="text6615">
      <tspan
         x="229.69394"
         y="559.28333"
         id="tspan6617">w</tspan>
    </text>
    <text
       y="635.22083"
       x="236.68143"
       style="font-variant:normal;font-weight:normal;font-size:22.5px;font-family:Arial;-inkscape-font-specification:Arial;writing-mode:lr-tb;fill:#000000;fill-opacity:1;fill-rule:nonzero;stroke:none"
       id="text6619">
      <tspan
         x="236.68143"
         y="635.22083"
         id="tspan6621">x</tspan>
    </text>
    <text
       y="679.40833"
       x="222.71893"
       style="font-variant:normal;font-weight:normal;font-size:22.5px;font-family:Arial;-inkscape-font-specification:Arial;writing-mode:lr-tb;fill:#000000;fill-opacity:1;fill-rule:nonzero;stroke:none"
       id="text6623">
      <tspan
         x="222.71893"
         y="679.40833"
         id="tspan6625">y</tspan>
    </text>
    <text
       y="660.56458"
       x="34.34396"
       style="font-variant:normal;font-weight:normal;font-size:22.53125px;font-family:Arial;-inkscape-font-specification:Arial;writing-mode:lr-tb;fill:#000000;fill-opacity:1;fill-rule:nonzero;stroke:none"
       id="text6627">
      <tspan
         x="34.34396"
         y="660.56458"
         id="tspan6629">z</tspan>
    </text>
    <path
       d="m 454.38141,530.34584 67.5,0 0,-1.25 -67.5,0 0,1.25 z"
       style="fill:#000000;fill-opacity:1;fill-rule:evenodd;stroke:none"
       id="path6635"
       inkscape:connector-curvature="0" />
    <path
       d="m 546.6314,530.34584 48.75,0 0,-1.25 -48.75,0 0,1.25 z"
       style="fill:#000000;fill-opacity:1;fill-rule:evenodd;stroke:none"
       id="path6641"
       inkscape:connector-curvature="0" />
    <text
       y="554.03333"
       x="491.80643"
       style="font-variant:normal;font-weight:normal;font-size:22.5px;font-family:Arial;-inkscape-font-specification:Arial;writing-mode:lr-tb;fill:#000000;fill-opacity:1;fill-rule:nonzero;stroke:none"
       id="text6643">
      <tspan
         x="491.80643 504.30643 560.51141"
         y="554.03333"
         sodipodi:role="line"
         id="tspan6645">u 1</tspan>
    </text>
    <text
       y="581.03333"
       x="491.80643"
       style="font-variant:normal;font-weight:normal;font-size:22.5px;font-family:Arial;-inkscape-font-specification:Arial;writing-mode:lr-tb;fill:#000000;fill-opacity:1;fill-rule:nonzero;stroke:none"
       id="text6647">
      <tspan
         x="491.80643 503.05643 559.35144"
         y="581.03333"
         sodipodi:role="line"
         id="tspan6649">v 2</tspan>
    </text>
    <text
       y="608.05835"
       x="491.80643"
       style="font-variant:normal;font-weight:normal;font-size:22.53125px;font-family:Arial;-inkscape-font-specification:Arial;writing-mode:lr-tb;fill:#000000;fill-opacity:1;fill-rule:nonzero;stroke:none"
       id="text6651">
      <tspan
         x="491.80643 507.55576 558.07086"
         y="608.05835"
         sodipodi:role="line"
         id="tspan6653">w 2</tspan>
    </text>
    <text
       y="635.06458"
       x="491.80643"
       style="font-variant:normal;font-weight:normal;font-size:22.5px;font-family:Arial;-inkscape-font-specification:Arial;writing-mode:lr-tb;fill:#000000;fill-opacity:1;fill-rule:nonzero;stroke:none"
       id="text6655">
      <tspan
         x="491.80643 503.05643 559.35144"
         y="635.06458"
         sodipodi:role="line"
         id="tspan6657">x 3</tspan>
    </text>
    <text
       y="662.06458"
       x="491.80643"
       style="font-variant:normal;font-weight:normal;font-size:22.5px;font-family:Arial;-inkscape-font-specification:Arial;writing-mode:lr-tb;fill:#000000;fill-opacity:1;fill-rule:nonzero;stroke:none"
       id="text6659">
      <tspan
         x="491.80643 502.56143 559.32892"
         y="662.06458"
         sodipodi:role="line"
         id="tspan6661">y 3</tspan>
    </text>
    <text
       y="689.09583"
       x="491.80643"
       style="font-variant:normal;font-weight:normal;font-size:22.53125px;font-family:Arial;-inkscape-font-specification:Arial;writing-mode:lr-tb;fill:#000000;fill-opacity:1;fill-rule:nonzero;stroke:none"
       id="text6663">
      <tspan
         x="491.80643 502.80167 559.31006"
         y="689.09583"
         sodipodi:role="line"
         id="tspan6665">z 2</tspan>
    </text>
    <path
       d="m 346.56893,496.90835 176.47125,0 0,-1.25 -176.47125,0 z"
       style="fill:#000000;fill-opacity:1;fill-rule:evenodd;stroke:none"
       id="path6675"
       inkscape:connector-curvature="0"
       sodipodi:nodetypes="ccccc" />
    <path
       d="m 522.7529,496.90835 183.56598,0 0,-1.25 -183.56598,0 z"
       style="fill:#cc0000;fill-opacity:1;fill-rule:evenodd;stroke:none"
       id="path6679"
       inkscape:connector-curvature="0"
       sodipodi:nodetypes="ccccc" />
    <text
       xml:space="preserve"
       style="font-style:normal;font-weight:normal;font-size:40px;line-height:125%;font-family:sans-serif;letter-spacing:0px;word-spacing:0px;fill:#cc0000;fill-opacity:1;stroke:none;stroke-width:1px;stroke-linecap:butt;stroke-linejoin:miter;stroke-opacity:1"
       x="297.70038"
       y="490.04468"
       id="text6969"
       sodipodi:linespacing="125%"><tspan
         sodipodi:role="line"
         id="tspan6971"
         x="297.70038"
         y="490.04468"
         style="font-size:19.99999809px;fill:#cc0000;fill-opacity:1"><tspan
   style="fill:#000000"
   id="tspan6973">do roteador A para as</tspan> sub-redes de destino</tspan></text>
    <text
       xml:space="preserve"
       style="font-style:normal;font-weight:normal;font-size:40px;line-height:125%;font-family:sans-serif;letter-spacing:0px;word-spacing:0px;fill:#000000;fill-opacity:1;stroke:none;stroke-width:1px;stroke-linecap:butt;stroke-linejoin:miter;stroke-opacity:1"
       x="445.80447"
       y="527.22534"
       id="text6975"
       sodipodi:linespacing="125%"><tspan
         sodipodi:role="line"
         id="tspan6977"
         x="445.80447"
         y="527.22534"
         style="font-size:19.99999809px">sub-rede</tspan></text>
    <text
       sodipodi:linespacing="125%"
       id="text6979"
       y="527.22534"
       x="540.53375"
       style="font-style:normal;font-weight:normal;font-size:40px;line-height:125%;font-family:sans-serif;letter-spacing:0px;word-spacing:0px;fill:#000000;fill-opacity:1;stroke:none;stroke-width:1px;stroke-linecap:butt;stroke-linejoin:miter;stroke-opacity:1"
       xml:space="preserve"><tspan
         style="font-size:19.99999809px"
         y="527.22534"
         x="540.53375"
         id="tspan6981"
         sodipodi:role="line">saltos</tspan></text>
  </g>
</svg>
