<!-- Created with Inkscape (http://www.inkscape.org/) -->
<svg id="svg15774" xmlns:rdf="http://www.w3.org/1999/02/22-rdf-syntax-ns#" xmlns="http://www.w3.org/2000/svg" height="413.35" width="765.58" version="1.1" xmlns:cc="http://creativecommons.org/ns#" xmlns:xlink="http://www.w3.org/1999/xlink" xmlns:dc="http://purl.org/dc/elements/1.1/">
<defs id="defs15776">
<clipPath id="clipPath84910" clipPathUnits="userSpaceOnUse">
<path id="path84912" clip-rule="evenodd" d="M0.000010729,0,720,0v540h-720v-540z"/>
</clipPath>
<clipPath id="clipPath84898" clipPathUnits="userSpaceOnUse">
<path id="path84900" clip-rule="evenodd" d="M0.000010729,0,720,0v540h-720v-540z"/>
</clipPath>
<clipPath id="clipPath84886" clipPathUnits="userSpaceOnUse">
<path id="path84888" clip-rule="evenodd" d="M0.000010729,0,720,0v540h-720v-540z"/>
</clipPath>
<clipPath id="clipPath84866" clipPathUnits="userSpaceOnUse">
<path id="path84868" clip-rule="evenodd" d="M0.000010729,0,720,0v540h-720v-540z"/>
</clipPath>
<clipPath id="clipPath84852" clipPathUnits="userSpaceOnUse">
<path id="path84854" clip-rule="evenodd" d="M0.000010729,0,720,0v540h-720v-540z"/>
</clipPath>
<clipPath id="clipPath84840" clipPathUnits="userSpaceOnUse">
<path id="path84842" clip-rule="evenodd" d="M0.000010729,0,720,0v540h-720v-540z"/>
</clipPath>
<clipPath id="clipPath84826" clipPathUnits="userSpaceOnUse">
<path id="path84828" clip-rule="evenodd" d="M0.000010729,0,720,0v540h-720v-540z"/>
</clipPath>
<clipPath id="clipPath84814" clipPathUnits="userSpaceOnUse">
<path id="path84816" clip-rule="evenodd" d="M0.000010729,0,720,0v540h-720v-540z"/>
</clipPath>
<clipPath id="clipPath84802" clipPathUnits="userSpaceOnUse">
<path id="path84804" clip-rule="evenodd" d="M0.000010729,0,720,0v540h-720v-540z"/>
</clipPath>
<clipPath id="clipPath84778" clipPathUnits="userSpaceOnUse">
<path id="path84780" clip-rule="evenodd" d="M0.000010729,0,720,0v540h-720v-540z"/>
</clipPath>
<clipPath id="clipPath84766" clipPathUnits="userSpaceOnUse">
<path id="path84768" clip-rule="evenodd" d="M0.000010729,0,720,0v540h-720v-540z"/>
</clipPath>
<clipPath id="clipPath84754" clipPathUnits="userSpaceOnUse">
<path id="path84756" clip-rule="evenodd" d="M0.000010729,0,720,0v540h-720v-540z"/>
</clipPath>
<clipPath id="clipPath84742" clipPathUnits="userSpaceOnUse">
<path id="path84744" clip-rule="evenodd" d="M0.000010729,0,720,0v540h-720v-540z"/>
</clipPath>
<clipPath id="clipPath84730" clipPathUnits="userSpaceOnUse">
<path id="path84732" clip-rule="evenodd" d="M0.000010729,0,720,0v540h-720v-540z"/>
</clipPath>
<clipPath id="clipPath84718" clipPathUnits="userSpaceOnUse">
<path id="path84720" clip-rule="evenodd" d="M0.000010729,0,720,0v540h-720v-540z"/>
</clipPath>
<clipPath id="clipPath84706" clipPathUnits="userSpaceOnUse">
<path id="path84708" clip-rule="evenodd" d="M0.000010729,0,720,0v540h-720v-540z"/>
</clipPath>
<clipPath id="clipPath84664" clipPathUnits="userSpaceOnUse">
<path id="path84666" clip-rule="evenodd" d="M0.000010729,0,720,0v540h-720v-540z"/>
</clipPath>
<clipPath id="clipPath84652" clipPathUnits="userSpaceOnUse">
<path id="path84654" clip-rule="evenodd" d="M0.000010729,0,720,0v540h-720v-540z"/>
</clipPath>
<clipPath id="clipPath84628" clipPathUnits="userSpaceOnUse">
<path id="path84630" clip-rule="evenodd" d="M0.000010729,0,720,0v540h-720v-540z"/>
</clipPath>
<clipPath id="clipPath84616" clipPathUnits="userSpaceOnUse">
<path id="path84618" clip-rule="evenodd" d="M0.000010729,0,720,0v540h-720v-540z"/>
</clipPath>
<clipPath id="clipPath84598" clipPathUnits="userSpaceOnUse">
<path id="path84600" clip-rule="evenodd" d="M0.000010729,0,720,0v540h-720v-540z"/>
</clipPath>
<clipPath id="clipPath84586" clipPathUnits="userSpaceOnUse">
<path id="path84588" clip-rule="evenodd" d="M0.000010729,0,720,0v540h-720v-540z"/>
</clipPath>
<clipPath id="clipPath84574" clipPathUnits="userSpaceOnUse">
<path id="path84576" clip-rule="evenodd" d="M0.000010729,0,720,0v540h-720v-540z"/>
</clipPath>
<clipPath id="clipPath84562" clipPathUnits="userSpaceOnUse">
<path id="path84564" clip-rule="evenodd" d="M0.000010729,0,720,0v540h-720v-540z"/>
</clipPath>
<clipPath id="clipPath84550" clipPathUnits="userSpaceOnUse">
<path id="path84552" clip-rule="evenodd" d="M0.000010729,0,720,0v540h-720v-540z"/>
</clipPath>
<clipPath id="clipPath84538" clipPathUnits="userSpaceOnUse">
<path id="path84540" clip-rule="evenodd" d="M0.000010729,0,720,0v540h-720v-540z"/>
</clipPath>
<clipPath id="clipPath84526" clipPathUnits="userSpaceOnUse">
<path id="path84528" clip-rule="evenodd" d="M0.000010729,0,720,0v540h-720v-540z"/>
</clipPath>
<clipPath id="clipPath84514" clipPathUnits="userSpaceOnUse">
<path id="path84516" clip-rule="evenodd" d="M0.000010729,0,720,0v540h-720v-540z"/>
</clipPath>
<clipPath id="clipPath84482" clipPathUnits="userSpaceOnUse">
<path id="path84484" clip-rule="evenodd" d="M0.000010729,0,720,0v540h-720v-540z"/>
</clipPath>
</defs>
<metadata id="metadata15779">
<rdf:RDF>
<cc:Work rdf:about="">
<dc:format>image/svg+xml</dc:format>
<dc:type rdf:resource="http://purl.org/dc/dcmitype/StillImage"/>
<dc:title/>
</cc:Work>
</rdf:RDF>
</metadata>
<g id="layer1" transform="translate(57.937589,-261.44389)">
<g id="g84478" transform="matrix(1.25,0,0,-1.25,-152.43862,786.41616)">
<g id="g84480" clip-path="url(#clipPath84482)">
<text id="text84486" transform="matrix(1,0,0,-1,273.74,412.22)">
<tspan id="tspan84488" style="writing-mode:lr-tb;" font-weight="normal" fill-rule="nonzero" font-size="12px" font-variant="normal" y="0" x="0 3.336 9.2399998 15.948" font-family="Arial" fill="#000000">type</tspan>
</text>
</g>
</g>
<path id="path84490" stroke-linejoin="round" d="m197.81,272.52,0,17.55" stroke="#000" stroke-linecap="butt" stroke-miterlimit="10" stroke-dasharray="none" stroke-width="0.90000004" fill="none"/>
<g id="g84492" transform="matrix(1.25,0,0,-1.25,-152.43862,786.41616)">
<path id="path84494" stroke-linejoin="round" d="m78.72,366.72,0-60.72" stroke-dashoffset="0" stroke="#000" stroke-linecap="butt" stroke-miterlimit="10" stroke-dasharray="2.88, 2.16" stroke-width="0.72000003" fill="none"/>
</g>
<g id="g84496" transform="matrix(1.25,0,0,-1.25,-152.43862,786.41616)">
<path id="path84498" stroke-linejoin="round" d="m269.64,369,0-60.72" stroke-dashoffset="0" stroke="#000" stroke-linecap="butt" stroke-miterlimit="10" stroke-dasharray="2.88, 2.16" stroke-width="0.72000003" fill="none"/>
</g>
<g id="g84500" transform="matrix(1.25,0,0,-1.25,-152.43862,786.41616)">
<path id="path84502" stroke-linejoin="round" d="m272.28,368.64,58.44-63.72" stroke-dashoffset="0" stroke="#000" stroke-linecap="butt" stroke-miterlimit="10" stroke-dasharray="2.88, 2.16" stroke-width="0.72000003" fill="none"/>
</g>
<g id="g84504" transform="matrix(1.25,0,0,-1.25,-152.43862,786.41616)">
<path id="path84506" stroke-linejoin="round" d="m485.64,367.92,55.08-62.64" stroke-dashoffset="0" stroke="#000" stroke-linecap="butt" stroke-miterlimit="10" stroke-dasharray="2.88, 2.16" stroke-width="0.72000003" fill="none"/>
</g>
<path id="path84508" stroke-linejoin="round" d="m202.01,439.02,0,84.45" stroke="#000" stroke-linecap="butt" stroke-miterlimit="10" stroke-dasharray="none" stroke-width="0.90000004" fill="none"/>
<g id="g84510" transform="matrix(1.25,0,0,-1.25,-152.43862,786.41616)">
<g id="g84512" clip-path="url(#clipPath84514)">
<text id="text84518" transform="matrix(1,0,0,-1,280.99,203.28)">
<tspan id="tspan84520" style="writing-mode:lr-tb;" font-weight="normal" fill-rule="nonzero" font-size="14.03999996px" font-variant="normal" y="0" x="0" font-family="Arial" fill="#000000">2</tspan>
</text>
</g>
</g>
<g id="g84522" transform="matrix(1.25,0,0,-1.25,-152.43862,786.41616)">
<g id="g84524" clip-path="url(#clipPath84526)">
<text id="text84530" transform="matrix(1,0,0,-1,288.79,203.28)">
<tspan id="tspan84532" style="writing-mode:lr-tb;" font-weight="normal" fill-rule="nonzero" font-size="14.03999996px" font-variant="normal" y="0" x="0" font-family="Arial" fill="#000000">-</tspan>
</text>
</g>
</g>
<g id="g84534" transform="matrix(1.25,0,0,-1.25,-152.43862,786.41616)">
<g id="g84536" clip-path="url(#clipPath84538)">
<text id="text84542" transform="matrix(1,0,0,-1,293.47,203.28)">
<tspan id="tspan84544" style="writing-mode:lr-tb;" font-weight="normal" fill-rule="nonzero" font-size="14.03999996px" font-variant="normal" y="0" x="0 7.8062401 14.64372 18.588961 26.395201 29.863079 36.82692 44.63316 52.4394 56.145962 65.510643 70.185959 77.992203 81.937439 89.743683 96.805801 104.61204 107.72892 111.32316 115.2684 123.07464 130.88087 138.68712 142.59024 145.70712 149.69447 152.81136 160.49124" font-family="Arial" fill="#000000">byte Tag Protocol Identifier</tspan>
</text>
</g>
</g>
<g id="g84546" transform="matrix(1.25,0,0,-1.25,-152.43862,786.41616)">
<g id="g84548" clip-path="url(#clipPath84550)">
<text id="text84554" transform="matrix(1,0,0,-1,374.14,186.48)">
<tspan id="tspan84556" style="writing-mode:lr-tb;" font-weight="normal" fill-rule="nonzero" font-size="14.03999996px" font-variant="normal" y="0" x="0 4.6753201 11.52684 19.33308 22.449961 30.256201 38.062439 41.965561 45.601921 53.408161" font-family="Arial" fill="#000000">(value: 81</tspan>
</text>
</g>
</g>
<g id="g84558" transform="matrix(1.25,0,0,-1.25,-152.43862,786.41616)">
<g id="g84560" clip-path="url(#clipPath84562)">
<text id="text84566" transform="matrix(1,0,0,-1,435.34,186.48)">
<tspan id="tspan84568" style="writing-mode:lr-tb;" font-weight="normal" fill-rule="nonzero" font-size="14.03999996px" font-variant="normal" y="0" x="0" font-family="Arial" fill="#000000">-</tspan>
</text>
</g>
</g>
<g id="g84570" transform="matrix(1.25,0,0,-1.25,-152.43862,786.41616)">
<g id="g84572" clip-path="url(#clipPath84574)">
<text id="text84578" transform="matrix(1,0,0,-1,440.02,186.48)">
<tspan id="tspan84580" style="writing-mode:lr-tb;" font-weight="normal" fill-rule="nonzero" font-size="14.03999996px" font-variant="normal" y="0" x="0 7.8062401 15.61248 20.2878" font-family="Arial" fill="#000000">00)</tspan>
</text>
</g>
</g>
<g id="g84582" transform="matrix(1.25,0,0,-1.25,-152.43862,786.41616)">
<g id="g84584" clip-path="url(#clipPath84586)">
<text id="text84590" transform="matrix(1,0,0,-1,307.63,112.97)">
<tspan id="tspan84592" style="writing-mode:lr-tb;" font-weight="normal" fill-rule="nonzero" font-size="14.03999996px" font-variant="normal" y="0" x="0 6.96384 14.77008 22.576321 26.282881 36.363602 44.169842 51.976082 55.90728 60.5826 68.38884 71.505722 75.226318 79.171562 86.977798 90.923042 98.729279 103.4046 115.04376 122.72364 126.66888 129.78577 137.46564 145.27188 148.73976 153.41508 161.22131 169.02756 172.73412 180.54036 183.65724 187.60248 191.32307 200.68776 208.494 217.85867 227.92535 231.87061 235.81584 245.89656 249.74352 253.68877 256.80563 264.61188 267.72876 275.535 279.48026" font-family="Arial" fill="#000000">Tag Control Information (12 bit VLAN ID field,</tspan>
</text>
</g>
</g>
<g id="g84594" transform="matrix(1.25,0,0,-1.25,-152.43862,786.41616)">
<g id="g84596" clip-path="url(#clipPath84598)">
<text id="text84602" transform="matrix(1,0,0,-1,408.46,92.208)">
<tspan id="tspan84604" style="writing-mode:lr-tb;" font-weight="normal" fill-rule="nonzero" font-size="14.03999996px" font-variant="normal" y="0" x="0 7.8062401 11.52684 19.33308 22.449961 26.395201 30.242161 38.048401 42.723721 45.840599 53.646839 58.322159 61.439041 65.384277 72.221764 75.94236 79.887604 83.004478 90.810722 93.927597 101.73384 105.45444 108.57132 111.6882 118.76436 126.5706 130.2912 134.23643 143.36244 146.95668 155.24028 166.16341 175.52808" font-family="Arial" fill="#000000">3 bit priority field like IP TOS)</tspan>
</text>
</g>
</g>
<path id="path84606" stroke-linejoin="round" d="m237.71,448.02,0.9,171.3" stroke="#000" stroke-linecap="butt" stroke-miterlimit="10" stroke-dasharray="none" stroke-width="0.90000004" fill="none"/>
<path id="path84608" stroke-linejoin="round" d="m493.46,438.12,0,84.45" stroke="#000" stroke-linecap="butt" stroke-miterlimit="10" stroke-dasharray="none" stroke-width="0.90000004" fill="none"/>
<path id="path84610" stroke-linejoin="round" d="m515.06,414.27-1.35,5.1" stroke="#000" stroke-linecap="butt" stroke-miterlimit="10" stroke-dasharray="none" stroke-width="0.90000004" fill="none"/>
<g id="g84612" transform="matrix(1.25,0,0,-1.25,-152.43862,786.41616)">
<g id="g84614" clip-path="url(#clipPath84616)">
<text id="text84620" transform="matrix(1,0,0,-1,488.04,197.38)">
<tspan id="tspan84622" style="writing-mode:lr-tb;" font-weight="normal" fill-rule="nonzero" font-size="14.03999996px" font-variant="normal" y="0" x="0 10.08072 17.886959 24.94908 32.755322 44.394482 52.200722 60.006962 63.93816 71.7444 79.424278" font-family="Arial" fill="#000000">Recomputed</tspan>
</text>
</g>
</g>
<g id="g84624" transform="matrix(1.25,0,0,-1.25,-152.43862,786.41616)">
<g id="g84626" clip-path="url(#clipPath84628)">
<text id="text84632" transform="matrix(1,0,0,-1,488.04,180.94)">
<tspan id="tspan84634" style="writing-mode:lr-tb;" font-weight="normal" fill-rule="nonzero" font-size="14.03999996px" font-variant="normal" y="0" x="0 10.07998 20.15996" font-family="Arial" fill="#000000">CRC</tspan>
</text>
</g>
</g>
<g id="g84648" transform="matrix(1.25,0,0,-1.25,-152.43862,786.41616)">
<g id="g84650" clip-path="url(#clipPath84652)">
<text id="text84656" transform="matrix(1,0,0,-1,566.42,375.05)">
<tspan id="tspan84658" style="writing-mode:lr-tb;" font-weight="normal" fill-rule="nonzero" font-size="20.04000092px" font-style="italic" font-variant="normal" y="0" x="0 11.14224 22.284479 33.42672 38.997841 50.140079 55.430641 61.001759 67.675079 78.817322 95.390404" font-family="Arial" fill="#000000">802.1 frame</tspan>
</text>
</g>
</g>
<g id="g84660" transform="matrix(1.25,0,0,-1.25,-152.43862,786.41616)">
<g id="g84662" clip-path="url(#clipPath84664)">
<text id="text84668" transform="matrix(1,0,0,-1,566.66,283.27)">
<tspan id="tspan84670" style="writing-mode:lr-tb;" font-weight="normal" fill-rule="nonzero" font-size="20.04000092px" font-style="italic" font-variant="normal" y="0" x="0 11.14224 22.284479 33.42672 38.997841 50.140079 65.731201 71.041801 76.612923 83.28624 94.428482 111.00156" font-family="Arial" fill="#000000">802.1Q frame</tspan>
</text>
</g>
</g>
<path id="path84688" d="m-57.489,319.77,505.95,0,0-40.05-505.95,0,0,40.05z" fill-rule="evenodd" fill="#063"/>
<path id="path84690" stroke-linejoin="round" d="m-57.489,319.77,505.95,0,0-40.05-505.95,0,0,40.05z" stroke="#FFF" stroke-linecap="butt" stroke-miterlimit="10" stroke-dasharray="none" stroke-width="0.90000004" fill="none"/>
<path id="path84692" stroke-linejoin="round" d="m40.386,278.89,0,42.188" stroke="#FFF" stroke-linecap="butt" stroke-miterlimit="10" stroke-dasharray="none" stroke-width="1.94999993" fill="none"/>
<path id="path84694" stroke-linejoin="round" d="m112.39,279.19,0,42.188" stroke="#FFF" stroke-linecap="butt" stroke-miterlimit="10" stroke-dasharray="none" stroke-width="1.94999993" fill="none"/>
<path id="path84696" stroke-linejoin="round" d="m184.09,279.64,0,42.038" stroke="#FFF" stroke-linecap="butt" stroke-miterlimit="10" stroke-dasharray="none" stroke-width="1.94999993" fill="none"/>
<path id="path84698" stroke-linejoin="round" d="m208.99,279.19,0,42.188" stroke="#FFF" stroke-linecap="butt" stroke-miterlimit="10" stroke-dasharray="none" stroke-width="1.94999993" fill="none"/>
<path id="path84700" stroke-linejoin="round" d="m402.64,277.69,0,42.188" stroke="#FFF" stroke-linecap="butt" stroke-miterlimit="10" stroke-dasharray="none" stroke-width="1.94999993" fill="none"/>
<g id="g84702" transform="matrix(1.25,0,0,-1.25,-152.43862,786.41616)">
<g id="g84704" clip-path="url(#clipPath84706)">
<text id="text84710" transform="matrix(1,0,0,-1,169.8,391.49)">
<tspan id="tspan84712" style="writing-mode:lr-tb;" font-weight="normal" fill-rule="nonzero" font-size="12px" font-style="italic" font-variant="normal" y="0" x="0 6.7080002 13.416 19.416 22.752001" font-family="Arial" fill="#ffffff">dest.</tspan>
</text>
</g>
</g>
<g id="g84714" transform="matrix(1.25,0,0,-1.25,-152.43862,786.41616)">
<g id="g84716" clip-path="url(#clipPath84718)">
<text id="text84722" transform="matrix(1,0,0,-1,161.4,379.49)">
<tspan id="tspan84724" style="writing-mode:lr-tb;" font-weight="normal" fill-rule="nonzero" font-size="12px" font-style="italic" font-variant="normal" y="0" x="0 6.7080002 13.416 20.124001 24.120001 30.792 36.792" font-family="Arial" fill="#ffffff">address</tspan>
</text>
</g>
</g>
<g id="g84726" transform="matrix(1.25,0,0,-1.25,-152.43862,786.41616)">
<g id="g84728" clip-path="url(#clipPath84730)">
<text id="text84734" transform="matrix(1,0,0,-1,223.03,391.75)">
<tspan id="tspan84736" style="writing-mode:lr-tb;" font-weight="normal" fill-rule="nonzero" font-size="12px" font-style="italic" font-variant="normal" y="0" x="0 6 12.708 19.416 23.412001 29.412001" font-family="Arial" fill="#ffffff">source</tspan>
</text>
</g>
</g>
<g id="g84738" transform="matrix(1.25,0,0,-1.25,-152.43862,786.41616)">
<g id="g84740" clip-path="url(#clipPath84742)">
<text id="text84746" transform="matrix(1,0,0,-1,219.67,379.75)">
<tspan id="tspan84748" style="writing-mode:lr-tb;" font-weight="normal" fill-rule="nonzero" font-size="12px" font-style="italic" font-variant="normal" y="0" x="0 6.7080002 13.416 20.124001 24.120001 30.792 36.792" font-family="Arial" fill="#ffffff">address</tspan>
</text>
</g>
</g>
<g id="g84750" transform="matrix(1.25,0,0,-1.25,-152.43862,786.41616)">
<g id="g84752" clip-path="url(#clipPath84754)">
<text id="text84758" transform="matrix(1,0,0,-1,326.76,386.11)">
<tspan id="tspan84760" style="writing-mode:lr-tb;" font-weight="normal" fill-rule="nonzero" font-size="12px" font-style="italic" font-variant="normal" y="0" x="0 6.7080002 13.416 16.752001 23.483999 26.604 30.6 37.271999 43.992001 49.992001 52.655998 59.327999 66.059998 72.660004" font-family="Arial" fill="#ffffff">data (payload)</tspan>
</text>
</g>
</g>
<g id="g84762" transform="matrix(1.25,0,0,-1.25,-152.43862,786.41616)">
<g id="g84764" clip-path="url(#clipPath84766)">
<text id="text84770" transform="matrix(1,0,0,-1,449.33,384.62)">
<tspan id="tspan84772" style="writing-mode:lr-tb;" font-weight="normal" fill-rule="nonzero" font-size="12px" font-style="italic" font-variant="normal" y="0" x="0 8.6400003 17.280001" font-family="Arial" fill="#ffffff">CRC</tspan>
</text>
</g>
</g>
<g id="g84774" transform="matrix(1.25,0,0,-1.25,-152.43862,786.41616)">
<g id="g84776" clip-path="url(#clipPath84778)">
<text id="text84782" transform="matrix(1,0,0,-1,89.88,386.38)">
<tspan id="tspan84784" style="writing-mode:lr-tb;" font-weight="normal" fill-rule="nonzero" font-size="12px" font-style="italic" font-variant="normal" y="0" x="0 6.7080002 10.704 17.375999 24.096001 33.936001 40.644001 43.307999" font-family="Arial" fill="#ffffff">preamble</tspan>
</text>
</g>
</g>
<path id="path84786" d="m-54.789,442.77,241.05,0,0-40.05-241.05,0,0,40.05z" fill-rule="evenodd" fill="#063"/>
<path id="path84788" stroke-linejoin="round" d="m-54.789,442.77,241.05,0,0-40.05-241.05,0,0,40.05z" stroke="#FFF" stroke-linecap="butt" stroke-miterlimit="10" stroke-dasharray="none" stroke-width="0.90000004" fill="none"/>
<path id="path84790" stroke-linejoin="round" d="m41.286,401.74,0,42.188" stroke="#FFF" stroke-linecap="butt" stroke-miterlimit="10" stroke-dasharray="none" stroke-width="1.94999993" fill="none"/>
<path id="path84792" stroke-linejoin="round" d="m113.14,402.19,0,42.35" stroke="#FFF" stroke-linecap="butt" stroke-miterlimit="10" stroke-dasharray="none" stroke-width="1.94999993" fill="none"/>
<path id="path84794" stroke-linejoin="round" d="m184.84,402.64,0,42.188" stroke="#FFF" stroke-linecap="butt" stroke-miterlimit="10" stroke-dasharray="none" stroke-width="1.94999993" fill="none"/>
<path id="path84796" d="m41.061,443.37,71.7,0,0-39.45-71.7,0,0,39.45z" fill-rule="evenodd" fill="#063"/>
<g id="g84798" transform="matrix(1.25,0,0,-1.25,-152.43862,786.41616)">
<g id="g84800" clip-path="url(#clipPath84802)">
<text id="text84806" transform="matrix(1,0,0,-1,170.4,293.14)">
<tspan id="tspan84808" style="writing-mode:lr-tb;" font-weight="normal" fill-rule="nonzero" font-size="12px" font-style="italic" font-variant="normal" y="0" x="0 6.7080002 13.416 19.416" font-family="Arial" fill="#ffffff">dest</tspan>
</text>
</g>
</g>
<g id="g84810" transform="matrix(1.25,0,0,-1.25,-152.43862,786.41616)">
<g id="g84812" clip-path="url(#clipPath84814)">
<text id="text84818" transform="matrix(1,0,0,-1,193.22,293.14)">
<tspan id="tspan84820" style="writing-mode:lr-tb;" font-weight="normal" fill-rule="nonzero" font-size="12px" font-style="italic" font-variant="normal" y="0" x="0" font-family="Arial" fill="#ffffff">.</tspan>
</text>
</g>
</g>
<g id="g84822" transform="matrix(1.25,0,0,-1.25,-152.43862,786.41616)">
<g id="g84824" clip-path="url(#clipPath84826)">
<text id="text84830" transform="matrix(1,0,0,-1,162,281.14)">
<tspan id="tspan84832" style="writing-mode:lr-tb;" font-weight="normal" fill-rule="nonzero" font-size="12px" font-style="italic" font-variant="normal" y="0" x="0 6.7080002 13.416 20.124001 24.120001 30.792 36.792" font-family="Arial" fill="#ffffff">address</tspan>
</text>
</g>
</g>
<path id="path84834" d="m113.81,443.07,71.85,0,0-39.6-71.85,0,0,39.6z" fill-rule="evenodd" fill="#063"/>
<g id="g84836" transform="matrix(1.25,0,0,-1.25,-152.43862,786.41616)">
<g id="g84838" clip-path="url(#clipPath84840)">
<text id="text84844" transform="matrix(1,0,0,-1,223.68,293.42)">
<tspan id="tspan84846" style="writing-mode:lr-tb;" font-weight="normal" fill-rule="nonzero" font-size="12px" font-style="italic" font-variant="normal" y="0" x="0 6 12.708 19.416 23.412001 29.412001" font-family="Arial" fill="#ffffff">source</tspan>
</text>
</g>
</g>
<g id="g84848" transform="matrix(1.25,0,0,-1.25,-152.43862,786.41616)">
<g id="g84850" clip-path="url(#clipPath84852)">
<text id="text84856" transform="matrix(1,0,0,-1,220.3,281.42)">
<tspan id="tspan84858" style="writing-mode:lr-tb;" font-weight="normal" fill-rule="nonzero" font-size="12px" font-style="italic" font-variant="normal" y="0" x="0 6.7080002 13.416 20.124001 24.120001 30.792 36.792" font-family="Arial" fill="#ffffff">address</tspan>
</text>
</g>
</g>
<path id="path84860" d="m-48.639,434.67,81,0,0-24.3-81,0,0,24.3z" fill-rule="evenodd" fill="#063"/>
<g id="g84862" transform="matrix(1.25,0,0,-1.25,-152.43862,786.41616)">
<g id="g84864" clip-path="url(#clipPath84866)">
<text id="text84870" transform="matrix(1,0,0,-1,90.408,287.98)">
<tspan id="tspan84872" style="writing-mode:lr-tb;" font-weight="normal" fill-rule="nonzero" font-size="12px" font-style="italic" font-variant="normal" y="0" x="0 6.7080002 10.704 17.375999 24.096001 33.959999 40.667999 43.332001" font-family="Arial" fill="#ffffff">preamble</tspan>
</text>
</g>
</g>
<path id="path84874" d="m259.76,442.62,261.75,0,0-39.9-261.75,0,0,39.9z" fill-rule="evenodd" fill="#063"/>
<path id="path84876" stroke-linejoin="round" d="m259.76,442.62,261.75,0,0-39.9-261.75,0,0,39.9z" stroke="#FFF" stroke-linecap="butt" stroke-miterlimit="10" stroke-dasharray="none" stroke-width="0.90000004" fill="none"/>
<path id="path84878" stroke-linejoin="round" d="m281.89,402.34,0,42.025" stroke="#FFF" stroke-linecap="butt" stroke-miterlimit="10" stroke-dasharray="none" stroke-width="1.94999993" fill="none"/>
<path id="path84880" stroke-linejoin="round" d="m475.39,400.69,0,42.188" stroke="#FFF" stroke-linecap="butt" stroke-miterlimit="10" stroke-dasharray="none" stroke-width="1.94999993" fill="none"/>
<g id="g84882" transform="matrix(1.25,0,0,-1.25,-152.43862,786.41616)">
<g id="g84884" clip-path="url(#clipPath84886)">
<text id="text84890" transform="matrix(1,0,0,-1,385.15,287.71)">
<tspan id="tspan84892" style="writing-mode:lr-tb;" font-weight="normal" fill-rule="nonzero" font-size="12px" font-style="italic" font-variant="normal" y="0" x="0 6.7080002 13.416 16.752001 23.483999 26.604 30.6 37.271999 43.992001 49.992001 52.655998 59.327999 66.059998 72.660004" font-family="Arial" fill="#ffffff">data (payload)</tspan>
</text>
</g>
</g>
<g id="g84894" transform="matrix(1.25,0,0,-1.25,-152.43862,786.41616)">
<g id="g84896" clip-path="url(#clipPath84898)">
<text id="text84902" transform="matrix(1,0,0,-1,507.58,286.22)">
<tspan id="tspan84904" style="writing-mode:lr-tb;" font-weight="normal" fill-rule="nonzero" font-size="12px" font-style="italic" font-variant="normal" y="0" x="0 8.6400003 17.280001" font-family="Arial" fill="#ffffff">CRC</tspan>
</text>
</g>
</g>
<g id="g84906" transform="matrix(1.25,0,0,-1.25,-152.43862,786.41616)">
<g id="g84908" clip-path="url(#clipPath84910)">
<text id="text84914" transform="matrix(1,0,0,-1,329.76,315.34)">
<tspan id="tspan84916" style="writing-mode:lr-tb;" font-weight="normal" fill-rule="nonzero" font-size="12px" font-variant="normal" y="0" x="0 3.336 9.2399998 15.948" font-family="Arial" fill="#000000">type</tspan>
</text>
</g>
</g>
<path id="path84918" stroke-linejoin="round" d="m270.86,395.67,0,17.4" stroke="#000" stroke-linecap="butt" stroke-miterlimit="10" stroke-dasharray="none" stroke-width="0.90000004" fill="none"/>
<path id="path84920" d="m185.06,443.07,72.3,0,0-39.9-72.3,0,0,39.9z" fill-rule="evenodd" fill="#063"/>
<path id="path84922" stroke-linejoin="round" d="m185.06,443.07,72.3,0,0-39.9-72.3,0,0,39.9z" stroke="#FFF" stroke-linecap="butt" stroke-miterlimit="10" stroke-dasharray="none" stroke-width="0.90000004" fill="none"/>
<path id="path84924" stroke-linejoin="round" d="m221.44,403.09,0,42.038" stroke="#FFF" stroke-linecap="butt" stroke-miterlimit="10" stroke-dasharray="none" stroke-width="1.94999993" fill="none"/>
</g>
</svg>
