<!-- Created with Inkscape (http://www.inkscape.org/) -->
<svg id="svg4136" xmlns:rdf="http://www.w3.org/1999/02/22-rdf-syntax-ns#" xmlns="http://www.w3.org/2000/svg" height="462.09" width="353.79" version="1.1" xmlns:cc="http://creativecommons.org/ns#" xmlns:dc="http://purl.org/dc/elements/1.1/">
<defs id="defs4138">
<clipPath id="clipPath928" clipPathUnits="userSpaceOnUse">
<path id="path930" clip-rule="evenodd" d="M0.000010729,0,720,0v540h-720v-540z"/>
</clipPath>
<clipPath id="clipPath916" clipPathUnits="userSpaceOnUse">
<path id="path918" clip-rule="evenodd" d="M0.000010729,0,720,0v540h-720v-540z"/>
</clipPath>
<clipPath id="clipPath904" clipPathUnits="userSpaceOnUse">
<path id="path906" clip-rule="evenodd" d="M0.000010729,0,720,0v540h-720v-540z"/>
</clipPath>
<clipPath id="clipPath892" clipPathUnits="userSpaceOnUse">
<path id="path894" clip-rule="evenodd" d="M0.000010729,0,720,0v540h-720v-540z"/>
</clipPath>
<clipPath id="clipPath880" clipPathUnits="userSpaceOnUse">
<path id="path882" clip-rule="evenodd" d="M0.000010729,0,720,0v540h-720v-540z"/>
</clipPath>
<clipPath id="clipPath868" clipPathUnits="userSpaceOnUse">
<path id="path870" clip-rule="evenodd" d="M0.000010729,0,720,0v540h-720v-540z"/>
</clipPath>
<clipPath id="clipPath856" clipPathUnits="userSpaceOnUse">
<path id="path858" clip-rule="evenodd" d="M0.000010729,0,720,0v540h-720v-540z"/>
</clipPath>
<clipPath id="clipPath844" clipPathUnits="userSpaceOnUse">
<path id="path846" clip-rule="evenodd" d="M0.000010729,0,720,0v540h-720v-540z"/>
</clipPath>
<clipPath id="clipPath832" clipPathUnits="userSpaceOnUse">
<path id="path834" clip-rule="evenodd" d="M0.000010729,0,720,0v540h-720v-540z"/>
</clipPath>
<clipPath id="clipPath820" clipPathUnits="userSpaceOnUse">
<path id="path822" clip-rule="evenodd" d="M0.000010729,0,720,0v540h-720v-540z"/>
</clipPath>
<clipPath id="clipPath808" clipPathUnits="userSpaceOnUse">
<path id="path810" clip-rule="evenodd" d="M0.000010729,0,720,0v540h-720v-540z"/>
</clipPath>
<clipPath id="clipPath796" clipPathUnits="userSpaceOnUse">
<path id="path798" clip-rule="evenodd" d="M0.000010729,0,720,0v540h-720v-540z"/>
</clipPath>
<clipPath id="clipPath784" clipPathUnits="userSpaceOnUse">
<path id="path786" clip-rule="evenodd" d="M0.000010729,0,720,0v540h-720v-540z"/>
</clipPath>
<clipPath id="clipPath772" clipPathUnits="userSpaceOnUse">
<path id="path774" clip-rule="evenodd" d="M0.000010729,0,720,0v540h-720v-540z"/>
</clipPath>
<clipPath id="clipPath760" clipPathUnits="userSpaceOnUse">
<path id="path762" clip-rule="evenodd" d="M0.000010729,0,720,0v540h-720v-540z"/>
</clipPath>
<clipPath id="clipPath748" clipPathUnits="userSpaceOnUse">
<path id="path750" clip-rule="evenodd" d="M0.000010729,0,720,0v540h-720v-540z"/>
</clipPath>
<clipPath id="clipPath736" clipPathUnits="userSpaceOnUse">
<path id="path738" clip-rule="evenodd" d="M0.000010729,0,720,0v540h-720v-540z"/>
</clipPath>
<clipPath id="clipPath724" clipPathUnits="userSpaceOnUse">
<path id="path726" clip-rule="evenodd" d="M0.000010729,0,720,0v540h-720v-540z"/>
</clipPath>
<clipPath id="clipPath712" clipPathUnits="userSpaceOnUse">
<path id="path714" clip-rule="evenodd" d="M0.000010729,0,720,0v540h-720v-540z"/>
</clipPath>
<clipPath id="clipPath700" clipPathUnits="userSpaceOnUse">
<path id="path702" clip-rule="evenodd" d="M0.000010729,0,720,0v540h-720v-540z"/>
</clipPath>
<clipPath id="clipPath688" clipPathUnits="userSpaceOnUse">
<path id="path690" clip-rule="evenodd" d="M0.000010729,0,720,0v540h-720v-540z"/>
</clipPath>
<clipPath id="clipPath676" clipPathUnits="userSpaceOnUse">
<path id="path678" clip-rule="evenodd" d="M0.000010729,0,720,0v540h-720v-540z"/>
</clipPath>
<clipPath id="clipPath664" clipPathUnits="userSpaceOnUse">
<path id="path666" clip-rule="evenodd" d="M0.000010729,0,720,0v540h-720v-540z"/>
</clipPath>
<clipPath id="clipPath652" clipPathUnits="userSpaceOnUse">
<path id="path654" clip-rule="evenodd" d="M0.000010729,0,720,0v540h-720v-540z"/>
</clipPath>
<clipPath id="clipPath640" clipPathUnits="userSpaceOnUse">
<path id="path642" clip-rule="evenodd" d="M0.000010729,0,720,0v540h-720v-540z"/>
</clipPath>
<clipPath id="clipPath628" clipPathUnits="userSpaceOnUse">
<path id="path630" clip-rule="evenodd" d="M0.000010729,0,720,0v540h-720v-540z"/>
</clipPath>
<clipPath id="clipPath606" clipPathUnits="userSpaceOnUse">
<path id="path608" clip-rule="evenodd" d="M0.000010729,0,720,0v540h-720v-540z"/>
</clipPath>
<clipPath id="clipPath594" clipPathUnits="userSpaceOnUse">
<path id="path596" clip-rule="evenodd" d="M0.000010729,0,720,0v540h-720v-540z"/>
</clipPath>
<clipPath id="clipPath582" clipPathUnits="userSpaceOnUse">
<path id="path584" clip-rule="evenodd" d="M0.000010729,0,720,0v540h-720v-540z"/>
</clipPath>
<clipPath id="clipPath570" clipPathUnits="userSpaceOnUse">
<path id="path572" clip-rule="evenodd" d="M0.000010729,0,720,0v540h-720v-540z"/>
</clipPath>
</defs>
<metadata id="metadata4141">
<rdf:RDF>
<cc:Work rdf:about="">
<dc:format>image/svg+xml</dc:format>
<dc:type rdf:resource="http://purl.org/dc/dcmitype/StillImage"/>
<dc:title/>
</cc:Work>
</rdf:RDF>
</metadata>
<g id="layer1" transform="translate(-157.38919,-267.03148)">
<path id="path538" stroke-linejoin="round" d="m222.7,306.66c10.312,17.188,20.775,34.362,28.75,59.988,7.9625,25.625,13.588,62.338,18.75,93.738,5.15,31.4,10.462,79.35,12.5,94.975" stroke="#00F" stroke-linecap="butt" stroke-miterlimit="10" stroke-dasharray="none" stroke-width="2.8499999" fill="none"/>
<g id="g540" transform="matrix(1.25,0,0,-1.25,-317.07411,806.23326)">
<path id="path542" stroke-linejoin="round" d="m482.82,425.7c7.75-12.25,15.62-24.5,21-37,5.37-12.5,7-19.37,11-38,4-18.62,9.37-49,13-74,3.62-25,6.25-50.5,9-76" stroke-dashoffset="0" stroke="#F00" stroke-linecap="butt" stroke-miterlimit="10" stroke-dasharray="9.12, 6.84" stroke-width="2.27999997" fill="none"/>
</g>
<g id="g544" transform="matrix(1.25,0,0,-1.25,-317.07411,806.23326)">
<path id="path546" stroke-linejoin="round" d="m554.82,425.7c7-12.25,14.12-24.63,19-37.01,4.87-12.37,6-18.37,10-37s10.37-50.01,14-75.02c3.62-25,6.62-62.38,8-75.01" stroke-dashoffset="0" stroke="#090" stroke-linecap="butt" stroke-miterlimit="10" stroke-dasharray="2.28, 2.28" stroke-width="2.27999997" fill="none"/>
</g>
<path id="path548" stroke-linejoin="miter" d="m221.88,556.03,281.7,0,0-283.2-281.7,0,0,283.2z" stroke="#000" stroke-linecap="butt" stroke-miterlimit="8" stroke-dasharray="none" stroke-width="0.90000004" fill="none"/>
<path id="path550" stroke-linejoin="round" d="m221.88,321.43,280.2,0" stroke="#000" stroke-linecap="butt" stroke-miterlimit="8" stroke-dasharray="none" stroke-width="0.90000004" fill="none"/>
<path id="path552" stroke-linejoin="round" d="m222.78,367.33,280.35,0" stroke="#000" stroke-linecap="butt" stroke-miterlimit="8" stroke-dasharray="none" stroke-width="0.90000004" fill="none"/>
<path id="path554" stroke-linejoin="round" d="m223.68,414.73,280.35,0" stroke="#000" stroke-linecap="butt" stroke-miterlimit="8" stroke-dasharray="none" stroke-width="0.90000004" fill="none"/>
<path id="path556" stroke-linejoin="round" d="m224.58,460.63,280.35,0" stroke="#000" stroke-linecap="butt" stroke-miterlimit="8" stroke-dasharray="none" stroke-width="0.90000004" fill="none"/>
<path id="path558" stroke-linejoin="round" d="m225.63,507.88,280.2,0" stroke="#000" stroke-linecap="butt" stroke-miterlimit="8" stroke-dasharray="none" stroke-width="0.90000004" fill="none"/>
<path id="path560" stroke-linejoin="round" d="m295.53,272.83,0,283.2" stroke="#000" stroke-linecap="butt" stroke-miterlimit="8" stroke-dasharray="none" stroke-width="0.90000004" fill="none"/>
<path id="path562" stroke-linejoin="round" d="m365.13,274.48,0,283.35" stroke="#000" stroke-linecap="butt" stroke-miterlimit="8" stroke-dasharray="none" stroke-width="0.90000004" fill="none"/>
<path id="path564" stroke-linejoin="round" d="m434.58,273.43,0,283.2" stroke="#000" stroke-linecap="butt" stroke-miterlimit="8" stroke-dasharray="none" stroke-width="0.90000004" fill="none"/>
<g id="g566" transform="matrix(1.25,0,0,-1.25,-317.07411,806.23326)">
<g id="g568" clip-path="url(#clipPath570)">
<text id="text574" transform="matrix(1,0,0,-1,482.66,186.55)">
<tspan id="tspan576" style="writing-mode:lr-tb;" font-weight="normal" fill-rule="nonzero" font-size="12px" font-variant="normal" y="0" x="0 6.7199998" font-family="Arial" fill="#000000">10</tspan>
</text>
</g>
</g>
<g id="g578" transform="matrix(1.25,0,0,-1.25,-317.07411,806.23326)">
<g id="g580" clip-path="url(#clipPath582)">
<text id="text586" transform="matrix(1,0,0,-1,538.42,186.43)">
<tspan id="tspan588" style="writing-mode:lr-tb;" font-weight="normal" fill-rule="nonzero" font-size="12px" font-variant="normal" y="0" x="0 6.7199998" font-family="Arial" fill="#000000">20</tspan>
</text>
</g>
</g>
<g id="g590" transform="matrix(1.25,0,0,-1.25,-317.07411,806.23326)">
<g id="g592" clip-path="url(#clipPath594)">
<text id="text598" transform="matrix(1,0,0,-1,592.8,186.17)">
<tspan id="tspan600" style="writing-mode:lr-tb;" font-weight="normal" fill-rule="nonzero" font-size="12px" font-variant="normal" y="0" x="0 6.7199998" font-family="Arial" fill="#000000">30</tspan>
</text>
</g>
</g>
<g id="g602" transform="matrix(1.25,0,0,-1.25,-317.07411,806.23326)">
<g id="g604" clip-path="url(#clipPath606)">
<text id="text610" transform="matrix(1,0,0,-1,649.68,185.93)">
<tspan id="tspan612" style="writing-mode:lr-tb;" font-weight="normal" fill-rule="nonzero" font-size="12px" font-variant="normal" y="0" x="0 6.7199998" font-family="Arial" fill="#000000">40</tspan>
</text>
</g>
</g>
<path id="path614" stroke-linejoin="round" d="m251.95,718.56,42.45,0" stroke="#00F" stroke-linecap="butt" stroke-miterlimit="8" stroke-dasharray="none" stroke-width="2.8499999" fill="none"/>
<g id="g616" transform="matrix(1.25,0,0,-1.25,-317.07411,806.23326)">
<path id="path618" stroke-linejoin="round" d="m455.22,101.22,33.96,0" stroke-dashoffset="0" stroke="#F00" stroke-linecap="butt" stroke-miterlimit="8" stroke-dasharray="9.12, 6.84" stroke-width="2.27999997" fill="none"/>
</g>
<g id="g620" transform="matrix(1.25,0,0,-1.25,-317.07411,806.23326)">
<path id="path622" stroke-linejoin="round" d="m456.18,134.22,30.96,0" stroke-dashoffset="0" stroke="#090" stroke-linecap="butt" stroke-miterlimit="8" stroke-dasharray="2.28, 2.28" stroke-width="2.27999997" fill="none"/>
</g>
<g id="g624" transform="matrix(1.25,0,0,-1.25,-317.07411,806.23326)">
<g id="g626" clip-path="url(#clipPath628)">
<text id="text632" transform="matrix(1,0,0,-1,494.78,127.49)">
<tspan id="tspan634" style="writing-mode:lr-tb;" font-weight="normal" fill-rule="nonzero" font-size="14.03999996px" font-variant="normal" y="0" x="0 10.92312 20.2878 31.92696 39.7332 47.53944 55.34568 59.052238 63.727558 71.533798 75.254402 86.893562 94.699799 102.50604 109.55412" font-family="Arial" fill="#000000">QAM256 (8 Mbps)</tspan>
</text>
</g>
</g>
<g id="g636" transform="matrix(1.25,0,0,-1.25,-317.07411,806.23326)">
<g id="g638" clip-path="url(#clipPath640)">
<text id="text644" transform="matrix(1,0,0,-1,493.78,96.6)">
<tspan id="tspan646" style="writing-mode:lr-tb;" font-weight="normal" fill-rule="nonzero" font-size="14.03999996px" font-variant="normal" y="0" x="0 10.92312 20.2878 31.92696 39.7332 47.53944 51.245998 55.921322 63.727558 67.448158 79.087318 86.893562 94.699799 101.74788" font-family="Arial" fill="#000000">QAM16 (4 Mbps)</tspan>
</text>
</g>
</g>
<g id="g648" transform="matrix(1.25,0,0,-1.25,-317.07411,806.23326)">
<g id="g650" clip-path="url(#clipPath652)">
<text id="text656" transform="matrix(1,0,0,-1,495.02,64.608)">
<tspan id="tspan658" style="writing-mode:lr-tb;" font-weight="normal" fill-rule="nonzero" font-size="14.06400013px" font-variant="normal" y="0" x="0 9.3806877 18.761375 28.142063 37.522751 41.4888 46.172112 53.991695 57.690529 69.349586 77.169167 84.988754 92.020752" font-family="Arial" fill="#000000">BPSK (1 Mbps)</tspan>
</text>
</g>
</g>
<g id="g660" transform="matrix(1.25,0,0,-1.25,-317.07411,806.23326)">
<g id="g662" clip-path="url(#clipPath664)">
<text id="text668" transform="matrix(1,0,0,-1,514.8,168.86)">
<tspan id="tspan670" style="writing-mode:lr-tb;" font-weight="normal" fill-rule="nonzero" font-size="14.03999996px" font-variant="normal" y="0" x="0 9.3646803 19.4454 29.526119 34.201439 42.007679 51.37236" font-family="Arial" fill="#000000">SNR(dB)</tspan>
</text>
</g>
</g>
<g id="g672" transform="matrix(1.25,0,0,-1.25,-317.07411,806.23326)">
<g id="g674" clip-path="url(#clipPath676)">
<text id="text680" transform="matrix(-4.4e-8,1,1,4.4e-8,389.23,298.01)">
<tspan id="tspan682" style="writing-mode:lr-tb;" font-weight="normal" fill-rule="nonzero" font-size="14.03999996px" font-variant="normal" y="0" x="0 9.3599997 18.719999" font-family="Arial" fill="#000000">BER</tspan>
</text>
</g>
</g>
<g id="g684" transform="matrix(1.25,0,0,-1.25,-317.07411,806.23326)">
<g id="g686" clip-path="url(#clipPath688)">
<text id="text692" transform="matrix(1,0,0,-1,397.9,422.23)">
<tspan id="tspan694" style="writing-mode:lr-tb;" font-weight="normal" fill-rule="nonzero" font-size="12px" font-variant="normal" y="0" x="0 6.7199998" font-family="Arial" fill="#000000">10</tspan>
</text>
</g>
</g>
<g id="g696" transform="matrix(1.25,0,0,-1.25,-317.07411,806.23326)">
<g id="g698" clip-path="url(#clipPath700)">
<text id="text704" transform="matrix(1,0,0,-1,411.34,425.83)">
<tspan id="tspan706" style="writing-mode:lr-tb;" font-weight="normal" fill-rule="nonzero" font-size="8.03999996px" font-variant="normal" y="0" x="0" font-family="Arial" fill="#000000">-</tspan>
</text>
</g>
</g>
<g id="g708" transform="matrix(1.25,0,0,-1.25,-317.07411,806.23326)">
<g id="g710" clip-path="url(#clipPath712)">
<text id="text716" transform="matrix(1,0,0,-1,413.98,425.83)">
<tspan id="tspan718" style="writing-mode:lr-tb;" font-weight="normal" fill-rule="nonzero" font-size="8.03999996px" font-variant="normal" y="0" x="0" font-family="Arial" fill="#000000">1</tspan>
</text>
</g>
</g>
<g id="g720" transform="matrix(1.25,0,0,-1.25,-317.07411,806.23326)">
<g id="g722" clip-path="url(#clipPath724)">
<text id="text728" transform="matrix(1,0,0,-1,399.38,384.34)">
<tspan id="tspan730" style="writing-mode:lr-tb;" font-weight="normal" fill-rule="nonzero" font-size="12px" font-variant="normal" y="0" x="0 6.7199998" font-family="Arial" fill="#000000">10</tspan>
</text>
</g>
</g>
<g id="g732" transform="matrix(1.25,0,0,-1.25,-317.07411,806.23326)">
<g id="g734" clip-path="url(#clipPath736)">
<text id="text740" transform="matrix(1,0,0,-1,412.85,387.94)">
<tspan id="tspan742" style="writing-mode:lr-tb;" font-weight="normal" fill-rule="nonzero" font-size="8.03999996px" font-variant="normal" y="0" x="0" font-family="Arial" fill="#000000">-</tspan>
</text>
</g>
</g>
<g id="g744" transform="matrix(1.25,0,0,-1.25,-317.07411,806.23326)">
<g id="g746" clip-path="url(#clipPath748)">
<text id="text752" transform="matrix(1,0,0,-1,415.49,387.94)">
<tspan id="tspan754" style="writing-mode:lr-tb;" font-weight="normal" fill-rule="nonzero" font-size="8.03999996px" font-variant="normal" y="0" x="0" font-family="Arial" fill="#000000">2</tspan>
</text>
</g>
</g>
<g id="g756" transform="matrix(1.25,0,0,-1.25,-317.07411,806.23326)">
<g id="g758" clip-path="url(#clipPath760)">
<text id="text764" transform="matrix(1,0,0,-1,398.64,347.59)">
<tspan id="tspan766" style="writing-mode:lr-tb;" font-weight="normal" fill-rule="nonzero" font-size="12px" font-variant="normal" y="0" x="0 6.7199998" font-family="Arial" fill="#000000">10</tspan>
</text>
</g>
</g>
<g id="g768" transform="matrix(1.25,0,0,-1.25,-317.07411,806.23326)">
<g id="g770" clip-path="url(#clipPath772)">
<text id="text776" transform="matrix(1,0,0,-1,412.08,351.19)">
<tspan id="tspan778" style="writing-mode:lr-tb;" font-weight="normal" fill-rule="nonzero" font-size="8.03999996px" font-variant="normal" y="0" x="0" font-family="Arial" fill="#000000">-</tspan>
</text>
</g>
</g>
<g id="g780" transform="matrix(1.25,0,0,-1.25,-317.07411,806.23326)">
<g id="g782" clip-path="url(#clipPath784)">
<text id="text788" transform="matrix(1,0,0,-1,414.72,351.19)">
<tspan id="tspan790" style="writing-mode:lr-tb;" font-weight="normal" fill-rule="nonzero" font-size="8.03999996px" font-variant="normal" y="0" x="0" font-family="Arial" fill="#000000">3</tspan>
</text>
</g>
</g>
<g id="g792" transform="matrix(1.25,0,0,-1.25,-317.07411,806.23326)">
<g id="g794" clip-path="url(#clipPath796)">
<text id="text800" transform="matrix(1,0,0,-1,399.38,274.08)">
<tspan id="tspan802" style="writing-mode:lr-tb;" font-weight="normal" fill-rule="nonzero" font-size="12.02400017px" font-variant="normal" y="0" x="0 6.7200441" font-family="Arial" fill="#000000">10</tspan>
</text>
</g>
</g>
<g id="g804" transform="matrix(1.25,0,0,-1.25,-317.07411,806.23326)">
<g id="g806" clip-path="url(#clipPath808)">
<text id="text812" transform="matrix(1,0,0,-1,412.85,277.68)">
<tspan id="tspan814" style="writing-mode:lr-tb;" font-weight="normal" fill-rule="nonzero" font-size="8.03999996px" font-variant="normal" y="0" x="0" font-family="Arial" fill="#000000">-</tspan>
</text>
</g>
</g>
<g id="g816" transform="matrix(1.25,0,0,-1.25,-317.07411,806.23326)">
<g id="g818" clip-path="url(#clipPath820)">
<text id="text824" transform="matrix(1,0,0,-1,415.49,277.68)">
<tspan id="tspan826" style="writing-mode:lr-tb;" font-weight="normal" fill-rule="nonzero" font-size="8.03999996px" font-variant="normal" y="0" x="0" font-family="Arial" fill="#000000">5</tspan>
</text>
</g>
</g>
<g id="g828" transform="matrix(1.25,0,0,-1.25,-317.07411,806.23326)">
<g id="g830" clip-path="url(#clipPath832)">
<text id="text836" transform="matrix(1,0,0,-1,399.77,236.18)">
<tspan id="tspan838" style="writing-mode:lr-tb;" font-weight="normal" fill-rule="nonzero" font-size="12px" font-variant="normal" y="0" x="0 6.7199998" font-family="Arial" fill="#000000">10</tspan>
</text>
</g>
</g>
<g id="g840" transform="matrix(1.25,0,0,-1.25,-317.07411,806.23326)">
<g id="g842" clip-path="url(#clipPath844)">
<text id="text848" transform="matrix(1,0,0,-1,413.21,239.78)">
<tspan id="tspan850" style="writing-mode:lr-tb;" font-weight="normal" fill-rule="nonzero" font-size="8.03999996px" font-variant="normal" y="0" x="0" font-family="Arial" fill="#000000">-</tspan>
</text>
</g>
</g>
<g id="g852" transform="matrix(1.25,0,0,-1.25,-317.07411,806.23326)">
<g id="g854" clip-path="url(#clipPath856)">
<text id="text860" transform="matrix(1,0,0,-1,415.85,239.78)">
<tspan id="tspan862" style="writing-mode:lr-tb;" font-weight="normal" fill-rule="nonzero" font-size="8.03999996px" font-variant="normal" y="0" x="0" font-family="Arial" fill="#000000">6</tspan>
</text>
</g>
</g>
<g id="g864" transform="matrix(1.25,0,0,-1.25,-317.07411,806.23326)">
<g id="g866" clip-path="url(#clipPath868)">
<text id="text872" transform="matrix(1,0,0,-1,399.02,197.18)">
<tspan id="tspan874" style="writing-mode:lr-tb;" font-weight="normal" fill-rule="nonzero" font-size="12px" font-variant="normal" y="0" x="0 6.7199998" font-family="Arial" fill="#000000">10</tspan>
</text>
</g>
</g>
<g id="g876" transform="matrix(1.25,0,0,-1.25,-317.07411,806.23326)">
<g id="g878" clip-path="url(#clipPath880)">
<text id="text884" transform="matrix(1,0,0,-1,412.46,200.78)">
<tspan id="tspan886" style="writing-mode:lr-tb;" font-weight="normal" fill-rule="nonzero" font-size="8.03999996px" font-variant="normal" y="0" x="0" font-family="Arial" fill="#000000">-</tspan>
</text>
</g>
</g>
<g id="g888" transform="matrix(1.25,0,0,-1.25,-317.07411,806.23326)">
<g id="g890" clip-path="url(#clipPath892)">
<text id="text896" transform="matrix(1,0,0,-1,415.1,200.78)">
<tspan id="tspan898" style="writing-mode:lr-tb;" font-weight="normal" fill-rule="nonzero" font-size="8.03999996px" font-variant="normal" y="0" x="0" font-family="Arial" fill="#000000">7</tspan>
</text>
</g>
</g>
<g id="g900" transform="matrix(1.25,0,0,-1.25,-317.07411,806.23326)">
<g id="g902" clip-path="url(#clipPath904)">
<text id="text908" transform="matrix(1,0,0,-1,398.02,309.07)">
<tspan id="tspan910" style="writing-mode:lr-tb;" font-weight="normal" fill-rule="nonzero" font-size="12px" font-variant="normal" y="0" x="0 6.7199998" font-family="Arial" fill="#000000">10</tspan>
</text>
</g>
</g>
<g id="g912" transform="matrix(1.25,0,0,-1.25,-317.07411,806.23326)">
<g id="g914" clip-path="url(#clipPath916)">
<text id="text920" transform="matrix(1,0,0,-1,411.46,312.67)">
<tspan id="tspan922" style="writing-mode:lr-tb;" font-weight="normal" fill-rule="nonzero" font-size="8.03999996px" font-variant="normal" y="0" x="0" font-family="Arial" fill="#000000">-</tspan>
</text>
</g>
</g>
<g id="g924" transform="matrix(1.25,0,0,-1.25,-317.07411,806.23326)">
<g id="g926" clip-path="url(#clipPath928)">
<text id="text932" transform="matrix(1,0,0,-1,414.1,312.67)">
<tspan id="tspan934" style="writing-mode:lr-tb;" font-weight="normal" fill-rule="nonzero" font-size="8.03999996px" font-variant="normal" y="0" x="0" font-family="Arial" fill="#000000">4</tspan>
</text>
</g>
</g>
</g>
</svg>
