<?xml version="1.0" encoding="UTF-8" standalone="no"?>
<svg
   xmlns:dc="http://purl.org/dc/elements/1.1/"
   xmlns:cc="http://creativecommons.org/ns#"
   xmlns:rdf="http://www.w3.org/1999/02/22-rdf-syntax-ns#"
   xmlns:svg="http://www.w3.org/2000/svg"
   xmlns="http://www.w3.org/2000/svg"
   viewBox="0 0 480 288"
   height="288"
   width="480"
   xml:space="preserve"
   id="svg2"
   version="1.1"><metadata
     id="metadata8"><rdf:RDF><cc:Work
         rdf:about=""><dc:format>image/svg+xml</dc:format><dc:type
           rdf:resource="http://purl.org/dc/dcmitype/StillImage" /></cc:Work></rdf:RDF></metadata><defs
     id="defs6"><clipPath
       id="clipPath20"
       clipPathUnits="userSpaceOnUse"><path
         id="path18"
         d="M 70,10 H 3540 V 2070 H 70 Z" /></clipPath></defs><g
     transform="matrix(1.3333333,0,0,-1.3333333,0,288)"
     id="g10"><g
       transform="scale(0.1)"
       id="g12"><g
         id="g14"><g
           clip-path="url(#clipPath20)"
           id="g16"><path
             id="path22"
             style="fill:none;stroke:#000000;stroke-width:2.5;stroke-linecap:square;stroke-linejoin:miter;stroke-miterlimit:3.79999995;stroke-dasharray:none;stroke-opacity:1"
             d="m 632.5,421.988 h 53.012" /><path
             id="path24"
             style="fill:none;stroke:#000000;stroke-width:2.5;stroke-linecap:square;stroke-linejoin:miter;stroke-miterlimit:3.79999995;stroke-dasharray:none;stroke-opacity:1"
             d="m 3448.52,421.988 h -53.01" /><g
             transform="scale(10)"
             id="g26"><text
               id="text30"
               style="font-variant:normal;font-size:9.33300972px;font-family:f-0;-inkscape-font-specification:f-0-0;writing-mode:lr-tb;fill:#000000;fill-opacity:1;fill-rule:nonzero;stroke:none"
               transform="matrix(1,0,0,-1,26.907077,37.1098)"><tspan
                 id="tspan28"
                 y="0"
                 x="0 5.1891537 10.378307 15.567461 20.756615 25.945768">126000</tspan></text>
</g><path
             id="path32"
             style="fill:none;stroke:#000000;stroke-width:2.5;stroke-linecap:square;stroke-linejoin:miter;stroke-miterlimit:3.79999995;stroke-dasharray:none;stroke-opacity:1"
             d="m 632.5,625.512 h 53.012" /><path
             id="path34"
             style="fill:none;stroke:#000000;stroke-width:2.5;stroke-linecap:square;stroke-linejoin:miter;stroke-miterlimit:3.79999995;stroke-dasharray:none;stroke-opacity:1"
             d="m 3448.52,625.512 h -53.01" /><g
             transform="scale(10)"
             id="g36"><text
               id="text40"
               style="font-variant:normal;font-size:9.33300972px;font-family:f-0;-inkscape-font-specification:f-0-0;writing-mode:lr-tb;fill:#000000;fill-opacity:1;fill-rule:nonzero;stroke:none"
               transform="matrix(1,0,0,-1,26.907077,57.4613)"><tspan
                 id="tspan38"
                 y="0"
                 x="0 5.1891537 10.378307 15.567461 20.756615 25.945768">128000</tspan></text>
</g><path
             id="path42"
             style="fill:none;stroke:#000000;stroke-width:2.5;stroke-linecap:square;stroke-linejoin:miter;stroke-miterlimit:3.79999995;stroke-dasharray:none;stroke-opacity:1"
             d="m 632.5,828.98 h 53.012" /><path
             id="path44"
             style="fill:none;stroke:#000000;stroke-width:2.5;stroke-linecap:square;stroke-linejoin:miter;stroke-miterlimit:3.79999995;stroke-dasharray:none;stroke-opacity:1"
             d="m 3448.52,828.98 h -53.01" /><g
             transform="scale(10)"
             id="g46"><text
               id="text50"
               style="font-variant:normal;font-size:9.33300972px;font-family:f-0;-inkscape-font-specification:f-0-0;writing-mode:lr-tb;fill:#000000;fill-opacity:1;fill-rule:nonzero;stroke:none"
               transform="matrix(1,0,0,-1,26.907077,77.809)"><tspan
                 id="tspan48"
                 y="0"
                 x="0 5.1891537 10.378307 15.567461 20.756615 25.945768">130000</tspan></text>
</g><path
             id="path52"
             style="fill:none;stroke:#000000;stroke-width:2.5;stroke-linecap:square;stroke-linejoin:miter;stroke-miterlimit:3.79999995;stroke-dasharray:none;stroke-opacity:1"
             d="m 632.5,1032.5 h 53.012" /><path
             id="path54"
             style="fill:none;stroke:#000000;stroke-width:2.5;stroke-linecap:square;stroke-linejoin:miter;stroke-miterlimit:3.79999995;stroke-dasharray:none;stroke-opacity:1"
             d="m 3448.52,1032.5 h -53.01" /><g
             transform="scale(10)"
             id="g56"><text
               id="text60"
               style="font-variant:normal;font-size:9.33300972px;font-family:f-0;-inkscape-font-specification:f-0-0;writing-mode:lr-tb;fill:#000000;fill-opacity:1;fill-rule:nonzero;stroke:none"
               transform="matrix(1,0,0,-1,26.907077,98.1605)"><tspan
                 id="tspan58"
                 y="0"
                 x="0 5.1891537 10.378307 15.567461 20.756615 25.945768">132000</tspan></text>
</g><path
             id="path62"
             style="fill:none;stroke:#000000;stroke-width:2.5;stroke-linecap:square;stroke-linejoin:miter;stroke-miterlimit:3.79999995;stroke-dasharray:none;stroke-opacity:1"
             d="m 632.5,1236.48 h 53.012" /><path
             id="path64"
             style="fill:none;stroke:#000000;stroke-width:2.5;stroke-linecap:square;stroke-linejoin:miter;stroke-miterlimit:3.79999995;stroke-dasharray:none;stroke-opacity:1"
             d="m 3448.52,1236.48 h -53.01" /><g
             transform="scale(10)"
             id="g66"><text
               id="text70"
               style="font-variant:normal;font-size:9.33300972px;font-family:f-0;-inkscape-font-specification:f-0-0;writing-mode:lr-tb;fill:#000000;fill-opacity:1;fill-rule:nonzero;stroke:none"
               transform="matrix(1,0,0,-1,26.907077,118.559)"><tspan
                 id="tspan68"
                 y="0"
                 x="0 5.1891537 10.378307 15.567461 20.756615 25.945768">134000</tspan></text>
</g><path
             id="path72"
             style="fill:none;stroke:#000000;stroke-width:2.5;stroke-linecap:square;stroke-linejoin:miter;stroke-miterlimit:3.79999995;stroke-dasharray:none;stroke-opacity:1"
             d="m 632.5,1440 h 53.012" /><path
             id="path74"
             style="fill:none;stroke:#000000;stroke-width:2.5;stroke-linecap:square;stroke-linejoin:miter;stroke-miterlimit:3.79999995;stroke-dasharray:none;stroke-opacity:1"
             d="m 3448.52,1440 h -53.01" /><g
             transform="scale(10)"
             id="g76"><text
               id="text80"
               style="font-variant:normal;font-size:9.33300972px;font-family:f-0;-inkscape-font-specification:f-0-0;writing-mode:lr-tb;fill:#000000;fill-opacity:1;fill-rule:nonzero;stroke:none"
               transform="matrix(1,0,0,-1,26.907077,138.911)"><tspan
                 id="tspan78"
                 y="0"
                 x="0 5.1891537 10.378307 15.567461 20.756615 25.945768">136000</tspan></text>
</g><path
             id="path82"
             style="fill:none;stroke:#000000;stroke-width:2.5;stroke-linecap:square;stroke-linejoin:miter;stroke-miterlimit:3.79999995;stroke-dasharray:none;stroke-opacity:1"
             d="m 632.5,1643.52 h 53.012" /><path
             id="path84"
             style="fill:none;stroke:#000000;stroke-width:2.5;stroke-linecap:square;stroke-linejoin:miter;stroke-miterlimit:3.79999995;stroke-dasharray:none;stroke-opacity:1"
             d="m 3448.52,1643.52 h -53.01" /><g
             transform="scale(10)"
             id="g86"><text
               id="text90"
               style="font-variant:normal;font-size:9.33300972px;font-family:f-0;-inkscape-font-specification:f-0-0;writing-mode:lr-tb;fill:#000000;fill-opacity:1;fill-rule:nonzero;stroke:none"
               transform="matrix(1,0,0,-1,26.907077,159.262)"><tspan
                 id="tspan88"
                 y="0"
                 x="0 5.1891537 10.378307 15.567461 20.756615 25.945768">138000</tspan></text>
</g><path
             id="path92"
             style="fill:none;stroke:#000000;stroke-width:2.5;stroke-linecap:square;stroke-linejoin:miter;stroke-miterlimit:3.79999995;stroke-dasharray:none;stroke-opacity:1"
             d="m 632.5,1846.99 h 53.012" /><path
             id="path94"
             style="fill:none;stroke:#000000;stroke-width:2.5;stroke-linecap:square;stroke-linejoin:miter;stroke-miterlimit:3.79999995;stroke-dasharray:none;stroke-opacity:1"
             d="m 3448.52,1846.99 h -53.01" /><g
             transform="scale(10)"
             id="g96"><text
               id="text100"
               style="font-variant:normal;font-size:9.33300972px;font-family:f-0;-inkscape-font-specification:f-0-0;writing-mode:lr-tb;fill:#000000;fill-opacity:1;fill-rule:nonzero;stroke:none"
               transform="matrix(1,0,0,-1,26.907077,179.61)"><tspan
                 id="tspan98"
                 y="0"
                 x="0 5.1891537 10.378307 15.567461 20.756615 25.945768">140000</tspan></text>
</g><path
             id="path102"
             style="fill:none;stroke:#000000;stroke-width:2.5;stroke-linecap:square;stroke-linejoin:miter;stroke-miterlimit:3.79999995;stroke-dasharray:none;stroke-opacity:1"
             d="m 632.5,2050.51 h 53.012" /><path
             id="path104"
             style="fill:none;stroke:#000000;stroke-width:2.5;stroke-linecap:square;stroke-linejoin:miter;stroke-miterlimit:3.79999995;stroke-dasharray:none;stroke-opacity:1"
             d="m 3448.52,2050.51 h -53.01" /><g
             transform="scale(10)"
             id="g106"><text
               id="text110"
               style="font-variant:normal;font-size:9.33300972px;font-family:f-0;-inkscape-font-specification:f-0-0;writing-mode:lr-tb;fill:#000000;fill-opacity:1;fill-rule:nonzero;stroke:none"
               transform="matrix(1,0,0,-1,26.907077,199.961)"><tspan
                 id="tspan108"
                 y="0"
                 x="0 5.1891537 10.378307 15.567461 20.756615 25.945768">142000</tspan></text>
</g><path
             id="path112"
             style="fill:none;stroke:#000000;stroke-width:2.5;stroke-linecap:square;stroke-linejoin:miter;stroke-miterlimit:3.79999995;stroke-dasharray:none;stroke-opacity:1"
             d="M 632.5,421.988 V 475" /><path
             id="path114"
             style="fill:none;stroke:#000000;stroke-width:2.5;stroke-linecap:square;stroke-linejoin:miter;stroke-miterlimit:3.79999995;stroke-dasharray:none;stroke-opacity:1"
             d="M 632.5,2050.51 V 1997.5" /><g
             transform="scale(10)"
             id="g116"><text
               id="text120"
               style="font-variant:normal;font-size:9.33300972px;font-family:f-0;-inkscape-font-specification:f-0-0;writing-mode:lr-tb;fill:#000000;fill-opacity:1;fill-rule:nonzero;stroke:none"
               transform="matrix(1,0,0,-1,56.742977,23.7621)"><tspan
                 id="tspan118"
                 y="0"
                 x="0 5.1891537 10.378307">200</tspan></text>
</g><path
             id="path122"
             style="fill:none;stroke:#000000;stroke-width:2.5;stroke-linecap:square;stroke-linejoin:miter;stroke-miterlimit:3.79999995;stroke-dasharray:none;stroke-opacity:1"
             d="M 1101.99,421.988 V 475" /><path
             id="path124"
             style="fill:none;stroke:#000000;stroke-width:2.5;stroke-linecap:square;stroke-linejoin:miter;stroke-miterlimit:3.79999995;stroke-dasharray:none;stroke-opacity:1"
             d="M 1101.99,2050.51 V 1997.5" /><g
             transform="scale(10)"
             id="g126"><text
               id="text130"
               style="font-variant:normal;font-size:9.33300972px;font-family:f-0;-inkscape-font-specification:f-0-0;writing-mode:lr-tb;fill:#000000;fill-opacity:1;fill-rule:nonzero;stroke:none"
               transform="matrix(1,0,0,-1,103.69258,23.7621)"><tspan
                 id="tspan128"
                 y="0"
                 x="0 5.1891537 10.378307">300</tspan></text>
</g><path
             id="path132"
             style="fill:none;stroke:#000000;stroke-width:2.5;stroke-linecap:square;stroke-linejoin:miter;stroke-miterlimit:3.79999995;stroke-dasharray:none;stroke-opacity:1"
             d="M 1571.02,421.988 V 475" /><path
             id="path134"
             style="fill:none;stroke:#000000;stroke-width:2.5;stroke-linecap:square;stroke-linejoin:miter;stroke-miterlimit:3.79999995;stroke-dasharray:none;stroke-opacity:1"
             d="M 1571.02,2050.51 V 1997.5" /><g
             transform="scale(10)"
             id="g136"><text
               id="text140"
               style="font-variant:normal;font-size:9.33300972px;font-family:f-0;-inkscape-font-specification:f-0-0;writing-mode:lr-tb;fill:#000000;fill-opacity:1;fill-rule:nonzero;stroke:none"
               transform="matrix(1,0,0,-1,150.59458,23.7621)"><tspan
                 id="tspan138"
                 y="0"
                 x="0 5.1891537 10.378307">400</tspan></text>
</g><path
             id="path142"
             style="fill:none;stroke:#000000;stroke-width:2.5;stroke-linecap:square;stroke-linejoin:miter;stroke-miterlimit:3.79999995;stroke-dasharray:none;stroke-opacity:1"
             d="M 2040.51,421.988 V 475" /><path
             id="path144"
             style="fill:none;stroke:#000000;stroke-width:2.5;stroke-linecap:square;stroke-linejoin:miter;stroke-miterlimit:3.79999995;stroke-dasharray:none;stroke-opacity:1"
             d="M 2040.51,2050.51 V 1997.5" /><g
             transform="scale(10)"
             id="g146"><text
               id="text150"
               style="font-variant:normal;font-size:9.33300972px;font-family:f-0;-inkscape-font-specification:f-0-0;writing-mode:lr-tb;fill:#000000;fill-opacity:1;fill-rule:nonzero;stroke:none"
               transform="matrix(1,0,0,-1,197.54358,23.7621)"><tspan
                 id="tspan148"
                 y="0"
                 x="0 5.1891537 10.378307">500</tspan></text>
</g><path
             id="path152"
             style="fill:none;stroke:#000000;stroke-width:2.5;stroke-linecap:square;stroke-linejoin:miter;stroke-miterlimit:3.79999995;stroke-dasharray:none;stroke-opacity:1"
             d="M 2510,421.988 V 475" /><path
             id="path154"
             style="fill:none;stroke:#000000;stroke-width:2.5;stroke-linecap:square;stroke-linejoin:miter;stroke-miterlimit:3.79999995;stroke-dasharray:none;stroke-opacity:1"
             d="M 2510,2050.51 V 1997.5" /><g
             transform="scale(10)"
             id="g156"><text
               id="text160"
               style="font-variant:normal;font-size:9.33300972px;font-family:f-0;-inkscape-font-specification:f-0-0;writing-mode:lr-tb;fill:#000000;fill-opacity:1;fill-rule:nonzero;stroke:none"
               transform="matrix(1,0,0,-1,244.49258,23.7621)"><tspan
                 id="tspan158"
                 y="0"
                 x="0 5.1891537 10.378307">600</tspan></text>
</g><path
             id="path162"
             style="fill:none;stroke:#000000;stroke-width:2.5;stroke-linecap:square;stroke-linejoin:miter;stroke-miterlimit:3.79999995;stroke-dasharray:none;stroke-opacity:1"
             d="M 2978.98,421.988 V 475" /><path
             id="path164"
             style="fill:none;stroke:#000000;stroke-width:2.5;stroke-linecap:square;stroke-linejoin:miter;stroke-miterlimit:3.79999995;stroke-dasharray:none;stroke-opacity:1"
             d="M 2978.98,2050.51 V 1997.5" /><g
             transform="scale(10)"
             id="g166"><text
               id="text170"
               style="font-variant:normal;font-size:9.33300972px;font-family:f-0;-inkscape-font-specification:f-0-0;writing-mode:lr-tb;fill:#000000;fill-opacity:1;fill-rule:nonzero;stroke:none"
               transform="matrix(1,0,0,-1,291.39158,23.7621)"><tspan
                 id="tspan168"
                 y="0"
                 x="0 5.1891537 10.378307">700</tspan></text>
</g><path
             id="path172"
             style="fill:none;stroke:#000000;stroke-width:2.5;stroke-linecap:square;stroke-linejoin:miter;stroke-miterlimit:3.79999995;stroke-dasharray:none;stroke-opacity:1"
             d="M 3448.52,421.988 V 475" /><path
             id="path174"
             style="fill:none;stroke:#000000;stroke-width:2.5;stroke-linecap:square;stroke-linejoin:miter;stroke-miterlimit:3.79999995;stroke-dasharray:none;stroke-opacity:1"
             d="M 3448.52,2050.51 V 1997.5" /><g
             transform="scale(10)"
             id="g176"><text
               id="text180"
               style="font-variant:normal;font-size:9.33300972px;font-family:f-0;-inkscape-font-specification:f-0-0;writing-mode:lr-tb;fill:#000000;fill-opacity:1;fill-rule:nonzero;stroke:none"
               transform="matrix(1,0,0,-1,338.34458,23.7621)"><tspan
                 id="tspan178"
                 y="0"
                 x="0 5.1891537 10.378307">800</tspan></text>
</g><path
             id="path182"
             style="fill:none;stroke:#000000;stroke-width:2.5;stroke-linecap:square;stroke-linejoin:miter;stroke-miterlimit:3.79999995;stroke-dasharray:none;stroke-opacity:1"
             d="m 632.5,421.988 h 2816.02 v 1628.52 H 632.5 Z" /><g
             transform="scale(10)"
             id="g184"><text
               id="text188"
               style="font-variant:normal;font-size:9.33300972px;font-family:f-0;-inkscape-font-specification:f-0-0;writing-mode:lr-tb;fill:#000000;fill-opacity:1;fill-rule:nonzero;stroke:none"
               transform="matrix(0,1,1,0,14.8395,100.203)"><tspan
                 id="tspan186"
                 y="0"
                 x="0 4.8160191 10.005173 17.816801 23.005955 28.195108 30.789684 33.897579 39.086731 43.753235">Tempo (us)</tspan></text>
<text
               id="text192"
               style="font-variant:normal;font-size:9.33300972px;font-family:f-0;-inkscape-font-specification:f-0-0;writing-mode:lr-tb;fill:#000000;fill-opacity:1;fill-rule:nonzero;stroke:none"
               transform="matrix(1,0,0,-1,152.75,3.76211)"><tspan
                 id="tspan190"
                 y="0"
                 x="0 6.2251177 11.414271 16.603424 24.377823 29.566977 34.75613 37.238682 42.427834 47.094341 49.688919 56.427349 61.616505">Segmentos Con</tspan></text>
<text
               id="text196"
               style="font-variant:normal;font-size:9.33300972px;font-family:f-0;-inkscape-font-specification:f-0-1;writing-mode:lr-tb;fill:#000000;fill-opacity:1;fill-rule:nonzero;stroke:none"
               transform="matrix(1,0,0,-1,219.5555,3.76211)"><tspan
                 id="tspan194"
                 y="0"
                 x="0">ﬁ</tspan></text>
<text
               id="text202"
               style="font-variant:normal;font-size:9.33300972px;font-family:f-0;-inkscape-font-specification:f-0-0;writing-mode:lr-tb;fill:#000000;fill-opacity:1;fill-rule:nonzero;stroke:none"
               transform="matrix(1,0,0,-1,224.22191,3.76211)"><tspan
                 id="tspan198"
                 y="0"
                 x="0 3.1078923 10.88229 16.071444 21.260597 26.421869">rmados</tspan><tspan
                 id="tspan200"
                 y="-184.25"
                 x="-142.968 -136.74289 -131.55373 -123.74183 -118.55267 -116.48074 -111.29159 -104.79572 -99.093254">SampleRTT</tspan></text>
</g><path
             id="path204"
             style="fill:none;stroke:#ff0000;stroke-width:2.5;stroke-linecap:square;stroke-linejoin:miter;stroke-miterlimit:3.79999995;stroke-dasharray:none;stroke-opacity:1"
             d="m 1360.51,1931.02 h 260.97" /><path
             id="path206"
             style="fill:none;stroke:#ff0000;stroke-width:2.5;stroke-linecap:square;stroke-linejoin:miter;stroke-miterlimit:3.79999995;stroke-dasharray:none;stroke-opacity:1"
             d="m 632.5,678.98 4.488,2.04 5,25.46 4.492,-19.492 5,-14.488 4.54,-31.48 4.492,-17.5 5,-31.532 4.488,-7.5 4.488,-2.5 5,-8.976 4.492,6.988 5,51.02 4.54,8.468 4.492,26.024 5,19.488 4.488,21.02 5,45.46 4.488,19.032 4.492,-12.5 5,-7.5 4.54,35.968 5,-45.968 4.492,-71.992 4.488,-6.02 5,-29.488 4.488,22.5 4.492,10.968 5,-13.468 4.54,-33.012 5,-17.5 4.492,36.988 4.488,-26.988 5,15 4.488,-11.988 5,-1.532 4.492,-18.468 4.54,-24.032 5,59.54 h 4.492 l 4.488,0.46 5,16.532 4.488,25.968 5,13.008 4.492,21.532 4.54,14.492 5,-18.012 4.492,-41.48 5,-32.5 4.488,46.992 4.488,-1.532 5,39.032 4.492,8.976 4.54,15 5,4.032 4.492,-6.02 5,3.98 4.488,-21.992 4.488,26.992 5,1.532 4.492,5.968 5,-63.468 4.54,-16.992 4.492,-39.032 5,-18.008 4.488,14.032 5,38.468 4.488,27.5 4.492,7.04 5,27.5 4.54,52.5 4.492,-13.52 5,34.488 4.488,-8.468 5,-4.032 4.488,-48.468 4.492,-16.02 5,1.988 4.54,33.524 5,30 4.49,-10.512 4.49,-6.988 5,-13.012 4.49,8.012 4.49,42.5 5,11.476 4.54,-40.508 5,-18.468 4.49,-26.532 4.49,5.508 5,-40.968 4.49,-29.032 5,-6.476 4.49,6.988 4.54,-45 5,23.012 4.49,-27.5 5,-6.992 4.49,0.968 4.49,34.032 5,33.98 4.49,37.5 4.54,11.988 5,-7.5 4.49,27.5 5,32.5 4.49,-26.988 4.49,-50 5,-6.48 4.49,-41.532 5,6.024 4.54,-12.5 h 4.49 l 5,-6.992 4.49,18.468 4.49,8.012 5,53.52 4.49,-7.5 5,-29.54 4.54,-46.992 4.49,36.024 5,34.488 4.49,18.52 5,27.96 4.49,51.532 4.49,-18.524 5,22.5 4.54,36.532 4.49,-1.532 5,-5.968 4.49,-26.02 5,36.02 4.49,34.492 4.49,-11.992 5,30.968 4.54,26.024 5,-28.524 4.49,1.024 h 4.49 l 5,-30 4.49,-34.492 5,25 4.49,21.48 4.54,10.512 5,-3.524 4.49,-6.476 4.49,38.008 5,14.492 4.49,36.988 5,-6.02 4.49,-23.468 4.54,5.968 5,2.04 4.49,-29.54 5,16.532 4.49,20 4.49,15.968 5,-17.96 4.49,-30.508 4.54,-18.012 5,23.012 h 4.49 l 5,-29.492 4.49,-11.532 4.49,-13.008 5,-15.46 4.49,7.96 5,-31.48 4.54,-33.98 4.49,9.492 5,-9.032 4.49,-25 5,16.02 4.49,-23.98 4.49,-9.032 5,6.024 4.54,15 4.49,15.508 5,3.98 4.49,16.988 5,40.512 4.49,1.988 4.49,16.992 5,6.532 4.54,-10.512 5,-17.5 4.49,-30.512 4.49,-0.508 5,-30 4.49,8.52 4.49,-6.988 5,-18.012 4.54,4.488 5,-13.468 4.49,38.468 4.49,6.024 5,10.508 4.49,40 5,15.968 4.49,3.012 4.54,40.512 h 5 l 4.49,0.508 4.49,26.992 5,3.468 4.49,14.032 5,8.468 4.49,11.53 4.54,13.98 5,-13.98 4.49,-8.01 5,3.98 4.49,14.03 4.49,6.48 5,-1.48 4.49,39.49 5,12.5 4.54,-13.52 4.49,16.02 5,19.49 4.49,-7.5 4.49,-18.47 5,-9.03 4.49,-45.97 5,-11.02 4.54,6.02 4.49,0.97 5,-12.502 4.49,20.512 5,3.52 4.49,18.98 4.49,26.02 5,25.97 4.54,-3.98 4.49,8.47 5,12.5 4.49,-16.99 5,-38.47 4.49,-4.54 4.49,7.5 5,0.51 4.54,-18.47 5,16.48 4.49,-10 4.49,12.5 5,-26.48 4.49,5.97 5,-13.47 4.49,52.96 4.54,21.02 5,-20.51 4.49,-23.98 4.49,-3.01 5,-61.48 4.49,-9.032 5,-36.476 4.49,5 4.54,-1.532 5,9.032 4.49,13.468 5,-32.96 4.49,27.5 4.49,10.46 5,-8.98 4.49,-6.988 4.54,-14.032 5,36.02 4.49,31.02 5,-19.032 4.49,1.024 4.49,-11.992 5,-25.508 4.49,-2.5 5,15 4.54,26.476 4.49,14.492 5,73.01 4.49,-5 4.49,48.52 5,11.48 4.49,-25.51 5,10.51 4.54,12.5 4.49,-1.99 5,-12.5 4.49,-12.5 5,25 4.49,-17.5 4.49,-30 5,-7.5 4.54,5.51 5,12.5 4.49,1.99 4.49,33.01 5,3.98 4.49,20 4.49,45 5,-3.01 4.54,-13.98 5,-33.52 4.49,1.53 4.49,40.51 5,-36.53 4.49,-29.49 5,-12.5 4.49,1.48 4.54,-21.48 5,-7.5 4.49,1.48 4.49,3.01 5,-31.48 4.49,46.99 5,-12.5 4.49,-3.52 4.54,33.52 5,5.51 4.49,15.97 5,-27.5 4.49,-15.46 4.49,-9.54 5,-20 4.49,14.54 5,6.99 4.54,-18.52 4.49,-21.48 5,15.97 4.49,8.01 4.49,-5.97 5,41.48 4.49,9.49 5,-9.49 4.54,3.01 4.49,-18.52 5,-17.5 4.49,-40.51 5,-32.96 4.49,18.98 4.49,30.51 5,5.97 h 4.54 l 4.49,-0.46 5,-14.03 4.49,13.01 5,54.49 4.49,1.53 4.49,13.47 5,-6.99 4.54,6.02 5,-9.03 4.49,-6.48 4.49,-1.53 5,79.54 4.49,12.5 4.49,35.46 5,17.5 4.54,-0.97 5,-9.03 4.49,-1.48 4.49,-3.01 5,-5 h 4.49 l 5,-20.97 4.49,-37.5 4.54,-13.52 5,-4.49 4.49,18.47 5,14.54 4.49,7.5 4.49,-13.01 5,21.48 4.49,6.99 4.54,22.5 5,-5.46 4.49,19.49 5,21.48 4.49,-20 4.49,-1.99 5,-31.02 4.49,-31.99 5,-14.49 4.54,-0.51 4.49,-5.97 5,-9.03 4.49,-35 4.49,67.5 5,-7.5 4.49,-6.99 5,-23.01 4.54,47.5 4.49,19.49 5,99.03 4.49,-34.03 5,17.5 4.49,1.53 4.49,-43.01 5,74.49 4.54,-18.01 5,28.01 4.49,3.01 4.49,-6.02 5,-10.97 4.49,25.97 4.49,-12.96 5,-55.51 4.54,-1.53 5,-0.97 4.49,2.5 4.49,-41.53 5,-0.97 4.49,-30.51 5,4.49 h 4.49 l 4.54,39.03 5,9.49 4.49,10.51 h 4.49 l 5,-14.54 4.49,7.04 5,3.47 4.49,29.03 4.54,29.49 5,-22.5 4.49,37.5 5,13.47 4.49,-0.97 4.49,53.98 5,-3.98 4.49,-13.52 4.54,-30 5,11.99 h 4.49 l 5,4.03 4.49,10 h 4.49 l 5,48.01 4.49,-28.52 5,-11.99 4.54,-1.02 4.49,-5 5,13.01 4.49,-36.02 5,7.5 4.49,15.51 4.49,13.01 5,3.01 4.54,0.51 4.49,-4.54 5,-8.98 4.49,-43.98 5,-15.51 4.49,1.99 4.49,21.99 5,-48.47 4.54,-3.01 5,-5.51 4.49,15.51 4.49,14.49 5,-14.49 4.49,44.49 4.49,0.51 5,-20 4.54,-31.53 5,15.51 4.49,28.01 4.49,14.49 5,-0.51 4.49,18.52 5,21.48 4.49,29.03 4.54,-29.03 5,-21.99 4.49,42.5 5,-11.99 4.49,3.52 4.49,-3.01 5,-46.02 4.49,4.03 4.54,72.96 5,-6.99 4.49,20.51 h 5 l 4.49,-17.5 4.49,-21.99 5,-26.02 4.49,-8.47 5,-29.03 4.54,-6.99 4.49,-41.99 5,-9.03 4.49,12.5 4.49,26.53 5,18.47 4.49,42.5 5,-7.96 4.54,-10 4.49,3.47 5,-10.97 4.49,7.96 5,-16.99 4.49,-0.97 4.49,-34.03 h 5 l 4.54,25 4.49,49.03 5,26.99 4.49,-38.52 5,-38.47 h 4.49 l 4.49,2.5 5,67.96 4.54,34.54 h 5 l 4.49,13.47 4.49,-3.47 5,25.46 4.49,-14.49 5,-15.51 4.49,8.01 4.54,-6.99 5,53.01 4.49,-23.01 4.49,-18.98 5,-34.54 4.49,24.03 5,1.99 4.49,-0.51 4.54,15.51 5,13.52 4.49,0.97 5,25.51 4.49,-3.98 4.49,-8.01 5,-4.03 4.49,18.01 4.54,16.53 5,16.99 4.49,8.47 5,-52.96 4.49,-16.02 4.49,-16.48 5,-14.03 4.49,6.02 5,23.47 4.54,-3.98 4.49,-32.5 5,3.01 4.49,23.47 5,13.52 4.49,48.98 4.49,-15 5,-51.99 4.54,11.53 4.49,20.97 5,-5.51 4.49,-2.5 5,79.54 4.49,2.96 4.49,-21.99 5,-10 4.54,-10.97 5,15.46 4.49,-18.98 4.49,-19.49 5,-13.01 4.49,-6.48 4.49,-1.02 5,-8.52 4.54,-40.46 5,-9.54 4.49,5 4.49,-2.96 5,24.49 4.49,0.51 5,40 4.49,-8.01 4.54,-4.03 5,24.54 4.49,33.47 4.49,6.02 5,7.5 4.49,-9.49 5,0.97 4.49,5 4.54,6.99 5,5.51 4.49,11.99 5,-9.49 4.49,-1.99 4.49,18.01 5,-26.53 4.49,8.01 5,7.5 4.54,9.49 4.49,2.04 5,-1.53 4.49,43.01 4.49,-0.51 5,47.5 4.49,16.99 5,-22.5 4.54,5.51" /><g
             transform="scale(10)"
             id="g208"><text
               id="text212"
               style="font-variant:normal;font-size:9.33300972px;font-family:f-0;-inkscape-font-specification:f-0-0;writing-mode:lr-tb;fill:#000000;fill-opacity:1;fill-rule:nonzero;stroke:none"
               transform="matrix(1,0,0,-1,71.6367,174.661)"><tspan
                 id="tspan210"
                 y="0"
                 x="0 6.2251177 10.835549 13.430126 15.502054 23.276451 28.465605 30.910938 36.100094 41.289246 47.794537 53.497005">EstimatedRTT</tspan></text>
</g><path
             id="path214"
             style="fill:none;stroke:#00ff00;stroke-width:2.5;stroke-linecap:square;stroke-linejoin:miter;stroke-miterlimit:3.79999995;stroke-dasharray:none;stroke-opacity:1"
             d="m 1360.51,1797.5 h 260.97" /><path
             id="path216"
             style="fill:none;stroke:#00ff00;stroke-width:2.5;stroke-linecap:square;stroke-linejoin:miter;stroke-miterlimit:3.79999995;stroke-dasharray:none;stroke-opacity:1"
             d="m 632.5,619.488 4.488,8.012 5,10 4.492,6.02 5,3.468 4.54,-0.508 4.492,-2.96 5,-6.532 4.488,-6.476 4.488,-6.024 5,-6.476 4.492,-5 5,2.5 4.54,3.008 4.492,5.968 5,7.5 4.488,9.032 5,13.98 4.488,14.488 4.492,11.024 5,8.976 4.54,11.992 5,5 8.98,-10 5,-7.96 4.488,-4.032 4.492,-1.988 5,-3.98 4.54,-7.04 5,-8.98 4.492,-2.5 4.488,-6.02 5,-3.468 4.488,-4.492 5,-4.032 4.492,-5.508 4.54,-8.468 5,0.508 4.492,0.46 H 820 l 5,2.5 4.488,5.508 5,6.024 4.492,8.468 4.54,9.032 5,5.508 4.492,-0.508 5,-4.032 4.488,2.04 4.488,1.48 5,6.48 4.492,6.532 4.54,7.5 5,7.5 4.492,5.508 5,5.46 4.488,2.04 4.488,5 5,4.492 4.492,5 5,-4.032 4.54,-5.46 4.492,-9.54 5,-10.46 4.488,-7.5 5,-2.04 4.488,2.04 4.492,2.5 5,5.46 4.54,11.532 4.492,8.468 5,11.532 4.488,8.976 5,7.5 4.488,0.512 4.492,-1.48 5,-1.02 4.54,3.012 5,6.476 4.49,4.492 4.49,3.008 5,1.024 4.49,1.988 4.49,6.988 5,7.5 4.54,1.532 5,-1.02 4.49,-3.98 4.49,-3.008 5,-8.012 4.49,-10.512 5,-9.488 4.49,-8.012 4.54,-12.5 5,-8.008 4.49,-10.46 5,-10 4.49,-8.52 4.49,-3.52 5,1.532 4.49,5.968 4.54,6.532 5,5 4.49,7.5 5,10.968 4.49,6.02 4.49,-1.02 5,-1.48 4.49,-6.48 5,-5 4.54,-6.02 4.49,-5.512 5,-5.508 4.49,-2.5 4.49,-0.968 5,5.508 4.49,3.98 h 5 l 4.54,-6.02 4.49,-0.46 5,3.468 4.49,5.512 5,8.52 4.49,13.468 4.49,9.492 5,11.532 4.54,14.488 4.49,12.5 5,10 4.49,5.512 5,9.488 4.49,12.5 4.49,9.488 5,12.5 4.54,13.524 5,8.976 4.49,7.5 4.49,6.532 5,2.5 4.49,-2.5 5,0.46 4.49,4.032 4.54,3.976 5,3.524 4.49,2.5 4.49,6.476 5,7.5 4.49,11.532 5,8.98 4.49,5 4.54,5.512 5,4.488 4.49,0.512 5,2.5 4.49,4.488 4.49,6.48 5,3.008 4.49,-0.968 4.54,-3.52 h 9.49 l 5,-3.52 4.49,-4.492 4.49,-5.968 5,-6.532 4.49,-5 5,-8.468 4.54,-11.532 4.49,-8.976 5,-9.032 4.49,-10.968 5,-7.5 4.49,-9.492 4.49,-9.54 5,-7.5 4.54,-5 4.49,-2.5 5,-1.48 4.49,1.02 5,5.968 4.49,5 4.49,6.992 5,7.04 4.54,4.492 5,1.476 8.98,-3.976 5,-5.512 4.49,-3.98 4.49,-4.032 5,-5.968 4.54,-4.54 5,-5.46 4.49,-0.508 4.49,0.968 5,1.532 4.49,6.476 5,8.012 4.49,6.988 4.54,11.532 5,10 4.49,8.468 4.49,11.532 5,10 4.49,10.46 5,10.508 4.49,10 4.54,11.024 5,8.008 4.49,5.968 5,5.512 4.49,6.48 4.49,6.532 5,5.508 4.49,10 5,10 4.54,7.5 4.49,8.47 5,9.49 4.49,7.5 4.49,4.54 5,2.5 4.49,-3.52 5,-4.49 4.54,-3.01 4.49,-2.5 5,-3.98 4.49,-0.51 5,-0.51 4.49,2.5 4.49,5 5,7.5 4.54,6.48 4.49,6.53 5,7.5 4.49,3.98 5,-0.97 4.49,-1.53 4.49,-0.51 h 5 l 4.54,-2.5 5,-0.46 4.49,-1.02 h 4.49 l 5,-3.01 4.49,-1.99 5,-3.01 4.49,3.52 4.54,5.97 5,2.5 4.49,-0.46 4.49,-1.53 5,-8.47 4.49,-8.52 5,-11.99 4.49,-10 4.54,-9.03 5,-6.48 4.49,-4.488 5,-7.5 4.49,-3.524 4.49,-1.476 5,-2.5 4.49,-3.012 4.54,-4.488 5,0.508 4.49,4.492 5,0.968 4.49,1.532 h 4.49 l 5,-3.524 4.49,-3.468 5,-1.02 4.54,2.5 4.49,3.98 5,12.5 4.49,10.508 4.49,15.002 5,14.49 4.49,10 5,9.54 4.54,10 4.49,8.98 5,6.02 4.49,3.47 5,6.53 4.49,2.96 4.49,-0.46 5,-2.04 4.54,-0.46 5,0.97 4.49,1.02 4.49,5 5,4.49 4.49,6.99 4.49,11.53 5,10 4.54,6.48 5,1.99 4.49,1.53 4.49,6.48 5,1.48 4.49,-2.96 5,-3.52 4.49,-3.52 4.54,-5.46 5,-5.51 4.49,-5 4.49,-4.03 5,-7.5 4.49,-0.46 5,-2.04 4.49,-1.99 4.54,1.99 5,3.01 4.49,4.03 5,0.46 4.49,-1.48 4.49,-2.5 5,-5 4.49,-2.5 5,-1.02 4.54,-3.47 4.49,-5.51 5,-3.01 4.49,-1.48 4.49,-1.99 5,2.96 4.49,4.54 5,1.99 4.54,2.5 h 4.49 l 5,-2.5 4.49,-6.99 5,-10 4.49,-7.04 4.49,-1.99 5,-0.97 4.54,-1.02 4.49,-0.51 5,-2.5 4.49,-0.51 5,6.02 4.49,6.02 4.49,6.48 5,5 4.54,5 5,3.52 8.98,3.98 5,11.02 4.49,11.99 4.49,13.98 5,15 4.54,13.01 9.49,18.98 4.49,7.5 5,5.51 4.49,5 5,1.53 4.49,-3.01 4.54,-4.49 5,-4.54 4.49,-1.48 5,0.51 4.49,1.48 4.49,-0.51 5,2.04 4.49,2.96 4.54,5.51 5,3.52 4.49,5.97 5,8.01 4.49,4.49 4.49,3.52 5,-1.02 4.49,-4.49 5,-5.97 4.54,-5 4.49,-5.51 5,-5.51 4.49,-9.49 h 4.49 l 5,-0.51 4.49,-1.48 5,-4.54 4.54,2.5 4.49,4.54 5,15.97 4.49,10 5,11.02 4.49,9.49 4.49,3.01 5,12.5 4.54,8.01 5,10.97 4.49,9.49 4.49,8.01 5,5.51 4.49,8.01 4.49,5 5,-1.99 4.54,-2.04 5,-1.99 4.49,-1.48 4.49,-6.53 5,-5.46 4.49,-9.03 5,-6.99 4.49,-6.48 4.54,-0.51 5,0.51 4.49,1.99 4.49,1.48 5,-0.51 4.49,0.51 5,1.02 4.49,4.49 4.54,7.5 5,3.98 4.49,8.01 5,8.52 4.49,7.5 4.49,13.47 5,11.02 4.49,8.01 4.54,3.47 5,4.54 4.49,3.47 5,4.03 4.49,4.49 4.49,3.98 5,9.49 4.49,5 5,2.5 4.54,2.5 4.49,1.02 5,3.01 4.49,-1.99 5,-1.02 4.49,1.48 4.49,2.5 5,2.5 4.54,2.5 4.49,1.53 5,0.51 4.49,-5.51 5,-6.53 4.49,-5.46 4.49,-2.04 5,-7.96 4.54,-7.04 5,-6.99 4.49,-4.49 4.49,-1.99 5,-3.52 8.98,5 5,-0.51 4.54,-4.49 5,-1.99 4.49,1.99 4.49,3.52 5,3.01 4.49,5 5,6.48 4.49,10 4.54,5 5,1.48 4.49,6.53 5,4.49 4.49,3.98 4.49,3.52 5,-3.01 4.49,-1.99 4.54,7.5 5,5.51 4.49,7.5 5,6.48 4.49,3.52 4.49,0.51 5,-3.01 4.49,-4.03 5,-6.48 4.54,-6.99 4.49,-11.53 5,-10.97 4.49,-8.01 4.49,-3.52 5,-0.97 4.49,4.49 5,3.01 4.54,1.48 4.49,1.53 h 5 l 4.49,0.97 5,-1.48 4.49,-1.02 4.49,-5.51 5,-4.49 4.54,-0.97 4.49,5.46 5,8.01 4.49,1.99 5,-2.96 4.49,-2.5 4.49,-1.53 5,6.53 4.54,10.46 5,9.03 4.49,9.49 4.49,8.01 5,10 4.49,6.99 5,4.49 4.49,4.49 4.54,3.52 5,9.49 4.49,5 4.49,2.5 5,-1.99 4.49,1.02 5,0.97 4.49,1.02 4.54,2.5 5,3.98 4.49,4.03 5,6.48 4.49,5 4.49,3.52 5,2.5 4.49,4.49 4.54,5.97 5,7.5 4.49,7.5 h 5 l 4.49,-1.99 4.49,-3.98 5,-5 4.49,-4.03 h 5 l 4.54,-0.97 4.49,-4.49 5,-4.03 4.49,-0.51 5,1.53 4.49,7.5 4.49,4.49 5,-2.5 4.54,-1.02 4.49,2.04 5,0.97 4.49,0.51 5,10.51 4.49,9.49 4.49,5.51 5,3.47 4.54,2.04 5,3.47 4.49,0.51 4.49,-1.99 5,-3.01 4.49,-3.52 4.49,-3.47 5,-4.03 4.54,-8.47 5,-8.52 4.49,-6.99 4.49,-6.48 5,-2.5 4.49,-2.04 5,3.01 4.49,1.53 4.54,0.97 5,4.03 8.98,15 5,7.5 4.49,5.46 5,4.54 4.49,5 4.54,5 5,5 4.49,5.97 5,4.03 4.49,3.47 4.49,5 5,1.53 4.49,1.99 5,2.5 4.54,3.47 4.49,3.52 5,3.01 4.49,7.5 4.49,6.48 5,11.99 4.49,12.5 5,8.01 4.54,8.01" /><g
             transform="scale(10)"
             id="g218"><text
               id="text222"
               style="font-variant:normal;font-size:9.33300972px;font-family:f-0;-inkscape-font-specification:f-0-0;writing-mode:lr-tb;fill:#000000;fill-opacity:1;fill-rule:nonzero;stroke:none"
               transform="matrix(1,0,0,-1,97.1328,161.309)"><tspan
                 id="tspan220"
                 y="0"
                 x="0 5.7024689 7.7743974 15.548795 20.737947 25.927101 31.116255">Timeout</tspan></text>
</g><path
             id="path224"
             style="fill:none;stroke:#0000ff;stroke-width:2.5;stroke-linecap:square;stroke-linejoin:miter;stroke-miterlimit:3.79999995;stroke-dasharray:none;stroke-opacity:1"
             d="m 1360.51,1663.98 h 260.97" /><path
             id="path226"
             style="fill:none;stroke:#0000ff;stroke-width:2.5;stroke-linecap:square;stroke-linejoin:miter;stroke-miterlimit:3.79999995;stroke-dasharray:none;stroke-opacity:1"
             d="m 632.5,773.012 4.488,23.008 5,36.992 4.492,0.508 5,-18.008 4.54,-37.5 4.492,-16.024 5,9.032 4.488,5.968 h 9.488 l 4.492,-10.968 5,-20 4.54,-8.52 4.492,17.5 5,28.012 4.488,36.476 5,65.512 4.488,58.012 4.492,20.508 5,-1.02 4.54,28.98 5,-33.468 4.492,-34.492 4.488,-26.02 5,-2.5 4.488,-26.988 4.492,-31.992 5,-16.532 4.54,9.032 5,11.992 4.492,-26.532 4.488,-2.96 5,-19.54 9.488,-18.98 4.492,2.5 4.54,13.52 5,-37.04 4.492,-28.468 4.488,-21.024 5,1.024 4.488,24.488 5,27.5 4.492,37.5 4.54,36.48 5,2.5 4.492,-39.492 5,-5.508 4.488,-14.492 4.488,-13.976 5,26.988 4.492,24.488 4.54,29.032 5,19.492 4.492,3.468 5,2.04 4.488,-24.032 4.488,6.992 5,3.008 4.492,5.512 5,-11.02 4.54,0.508 4.492,24.032 5,21.992 4.488,-4.492 5,-40 4.488,-26.02 4.492,-13.98 5,15 4.54,59.492 4.492,22.5 5,45 4.488,16.476 5,1.532 4.488,-52.5 4.492,-34.032 5,-28.468 4.54,-2.5 5,25.46 4.49,3.52 4.49,-7.5 5,-21.02 4.49,-8.468 4.49,35 5,32.5 4.54,-21.992 5,-22.5 4.49,2.5 4.49,-7.04 5,23.008 4.49,31.532 5,17.96 4.49,-1.992 4.54,24.492 5,-10.968 4.49,3.976 5,-1.988 4.49,-11.988 4.49,-43.524 5,-42.5 4.49,5 4.54,11.024 5,-4.032 4.49,20.508 5,42.5 4.49,-3.468 4.49,-44.032 5,-28.976 4.49,7.5 5,-5 h 4.54 l 4.49,-5.512 5,-4.488 4.49,-22.5 4.49,-25 5,18.976 4.49,2.5 5,-28.008 4.54,13.52 4.49,-22.5 5,7.5 4.49,21.48 5,40 4.49,75 4.49,27.5 5,36.02 4.54,55 4.49,29.49 5,6.02 4.49,-29.03 5,10.51 4.49,35 4.49,4.49 5,27.5 4.54,37.5 5,-10.97 4.49,-13.52 4.49,-15.97 5,-46.53 4.49,-36.99 5,-35.512 4.49,-5.508 4.54,3.52 5,-3.98 4.49,-12.04 4.49,27.04 5,30.46 4.49,53.52 5,25.51 4.49,-10.51 4.54,-6.02 5,-6.48 4.49,-37.5 5,-12.5 4.49,8.98 4.49,19.03 5,-8.01 4.49,-23.52 4.54,-5 5,-23.47 4.49,-18.01 5,8.52 4.49,10.97 4.49,13.52 5,15.97 4.49,-0.97 5,18.01 4.54,30.46 4.49,4.54 5,0.97 4.49,10.51 5,-15 4.49,-1.02 4.49,-3.47 5,-16.53 4.54,-31.48 4.49,-40 5,-35 4.49,-28.98 5,18.468 4.49,11.532 4.49,21.48 5,16.99 4.54,-1.99 5,-22.5 4.49,-18.012 4.49,-15.508 5,9.032 4.49,-5 4.49,-2.5 5,7.5 4.54,-3.524 5,3.012 4.49,-32.5 4.49,-21.02 5,-5 4.49,34.54 5,36.992 4.49,24.488 4.54,53.98 5,31.53 4.49,16.99 4.49,33.52 5,20 4.49,21.48 5,16.48 4.49,16.53 4.54,18.01 5,-8.01 4.49,-20.51 5,-15.51 4.49,-1.48 h 4.49 l 5,-6.53 4.49,30.51 5,28.52 4.54,-0.51 4.49,10.51 5,20.97 4.49,1.02 4.49,-23.52 5,-29.49 4.49,-21.99 5,-11.99 4.54,-17.5 4.49,-16.99 5,-6.53 4.49,-23.47 5,-21.53 h 4.49 l 4.49,24.49 5,40.51 4.54,20.51 4.49,18.98 5,22.04 4.49,-6.02 5,-31.02 4.49,-20.97 4.49,-23.01 5,-18.01 h 4.54 l 5,-15 4.49,-3.47 4.49,-9.03 5,9.03 4.49,-1.02 5,7.5 4.49,14.49 4.54,29.03 5,-3.01 4.49,-17.5 4.49,-11.99 5,36.48 4.49,25.51 5,37.5 4.49,12.5 4.54,0.51 5,-15.51 4.49,-28.01 5,-1.02 4.49,-28.98 4.49,-33.01 5,-19.49 4.49,-11.99 4.54,-1.53 5,-23.98 4.49,12.5 5,-13.01 4.49,-10 4.49,-16.99 5,6.48 4.49,3.01 5,-11.99 4.54,3.52 4.49,15.46 5,81.53 4.49,46.99 4.49,76.02 5,56.99 4.49,6.48 5,7.5 4.54,11.53 4.49,-1.02 5,-19.49 4.49,-32.5 5,-1.53 4.49,-22.96 4.49,-38.52 5,-24.49 4.54,-23.52 5,-15.51 4.49,-10.46 4.49,24.49 5,18.47 4.49,30 4.49,63.01 5,35 4.54,5 5,-34.49 4.49,-26.02 4.49,20 5,-26.48 4.49,-13.52 5,-2.96 4.49,-7.04 4.54,7.5 5,5.51 4.49,-2.5 4.49,-9.49 5,13.01 4.49,-32.5 5,-16.02 4.49,-10.97 4.54,-4.03 5,0.51 4.49,14.49 5,-20 4.49,-8.01 4.49,-0.46 5,12.5 4.49,-7.04 5,-11.99 4.54,3.01 4.49,15 5,-6.02 4.49,-13.47 4.49,-7.5 5,8.01 4.49,12.96 5,-2.96 4.54,-1.02 4.49,-18.98 5,-1.02 4.49,26.99 5,37.5 4.49,4.03 4.49,-26.53 5,-25.97 4.54,-21.02 4.49,-16.02 5,-2.5 4.49,-13.98 5,36.99 4.49,24.03 4.49,26.99 5,8.47 4.54,9.03 5,-6.53 4.49,-13.98 4.49,-13.01 5,68.01 4.49,55 4.49,68.01 5,58.01 4.54,30.97 5,4.49 4.49,-5.46 4.49,-13.52 5,-21.02 4.49,-20 5,-39.49 4.49,-24.49 4.54,-11.48 5,-9.54 4.49,-25.46 5,-25.51 4.49,-11.99 4.49,-16.02 5,2.5 4.49,7.5 4.54,26.02 5,10 4.49,23.98 5,35 4.49,0.51 4.49,-4.49 5,-27.5 4.49,2.96 5,9.03 4.54,0.51 h 4.49 l 5,1.48 4.49,21.99 4.49,-41.48 5,-27.5 4.49,-16.53 5,3.52 4.54,-6.02 4.49,13.52 5,105.51 4.49,33.01 5,35 4.49,19.49 4.49,-35.51 5,45 4.54,6.99 5,26.99 4.49,15 4.49,-1.99 5,-18.01 4.49,8.01 4.49,-13.01 5,-37.96 4.54,-30 5,-23.52 4.49,-21.48 4.49,12.96 5,5 4.49,20 5,3.52 4.49,-5 4.54,-38.98 5,-28.01 4.49,-11.53 4.49,-9.49 5,-18.01 4.49,-10.97 5,-5.51 4.49,24.49 4.54,44.49 5,4.54 4.49,38.98 5,36.02 4.49,20 4.49,62.96 5,33.52 4.49,3.01 4.54,-33.01 5,-15.51 4.49,-15 5,-10.51 4.49,-0.97 4.49,-3.52 5,41.53 4.49,-4.03 5,-18.47 4.54,-17.04 4.49,-18.98 5,-3.01 4.49,-10.97 5,-16.02 4.49,-8.01 4.49,6.02 5,5.51 4.54,2.96 4.49,-4.49 5,-13.47 4.49,20 5,20.97 4.49,8.01 4.49,-16.02 5,22.04 4.54,10.97 5,5.51 4.49,-14.49 4.49,-26.53 5,-10.46 4.49,-10 4.49,-8.52 5,-21.02 4.54,7.5 5,-10 4.49,-5 4.49,9.54 5,3.47 4.49,20 5,31.99 4.49,48.01 h 4.54 l 5,-25.51 4.49,22.04 5,-1.02 h 4.49 l 4.49,-6.02 5,-13.47 4.49,-16.02 4.54,34.49 5,14.03 4.49,26.48 5,14.03 4.49,-11.53 4.49,-33.01 5,-10 4.49,-3.98 5,15 4.54,10 4.49,31.99 5,19.49 4.49,-5.46 4.49,-32.04 5,-41.99 4.49,-1.48 5,-11.99 4.54,-21.53 4.49,-13.47 5,-22.5 4.49,-9.03 5,-6.99 4.49,-5.51 4.49,20 5,10 4.54,-16.48 4.49,24.49 5,41.48 4.49,-13.47 5,-10 4.49,-10 4.49,-12.5 5,33.47 4.54,55 5,33.52 4.49,31.48 4.49,13.01 5,29.49 h 4.49 l 5,-20.97 4.49,-11.02 4.54,-18.01 5,36.53 4.49,-3.01 4.49,-25 5,-23.52 4.49,-23.47 5,-16.53 4.49,-13.47 4.54,5 5,14.49 4.49,8.98 5,29.54 4.49,13.47 4.49,-1.99 5,-8.01 4.49,10 4.54,20.51 5,28.01 4.49,23.98 5,-40 4.49,-18.01 4.49,-2.96 5,3.98 4.49,-6.02 5,-26.48 4.54,-16.48 4.49,10.97 5,1.02 4.49,-20.51 5,-6.99 4.49,43.01 4.49,11.48 5,-11.48 4.54,-19.03 4.49,-3.98 5,-10 4.49,-11.02 5,71.02 4.49,48.98 4.49,6.99 5,-8.98 4.54,-20 5,-1.48 4.49,-22.5 4.49,-11.02 5,-0.51 4.49,1.02 4.49,-1.99 5,1.99 4.54,28.01 5,18.98 4.49,2.5 4.49,-3.52 5,-26.99 4.49,-23.47 5,-6.53 4.49,-15.51 4.54,-16.48 5,11.48 4.49,39.03 4.49,29.49 5,23.98 4.49,3.52 5,-1.02 4.49,1.02 4.54,3.52 5,5 4.49,11.48 5,-5 4.49,-8.98 4.49,8.98 5,-23.98 4.49,-11.02 5,-1.48 4.54,5.97 4.49,3.52 5,-1.02 4.49,40 4.49,23.52 5,60 4.49,53.47 5,8.01 4.54,5.51" /><path
             id="path228"
             style="fill:none;stroke:#000000;stroke-width:2.5;stroke-linecap:square;stroke-linejoin:miter;stroke-miterlimit:3.79999995;stroke-dasharray:none;stroke-opacity:1"
             d="m 632.5,421.988 h 2816.02 v 1628.52 H 632.5 Z" /></g></g></g></g></svg>