<?xml version="1.0" encoding="UTF-8" standalone="no"?>
<svg
   xmlns:dc="http://purl.org/dc/elements/1.1/"
   xmlns:cc="http://creativecommons.org/ns#"
   xmlns:rdf="http://www.w3.org/1999/02/22-rdf-syntax-ns#"
   xmlns:svg="http://www.w3.org/2000/svg"
   xmlns="http://www.w3.org/2000/svg"
   viewBox="0 0 624 480"
   height="480"
   width="624"
   xml:space="preserve"
   id="svg2"
   version="1.1"><metadata
     id="metadata8"><rdf:RDF><cc:Work
         rdf:about=""><dc:format>image/svg+xml</dc:format><dc:type
           rdf:resource="http://purl.org/dc/dcmitype/StillImage" /></cc:Work></rdf:RDF></metadata><defs
     id="defs6" /><g
     transform="matrix(1.3333333,0,0,-1.3333333,0,480)"
     id="g10"><g
       id="g12"><g
         transform="matrix(1,0,0,-1,0,360)"
         id="g14"><path
           id="path16"
           style="fill:none;stroke:#000000;stroke-width:1.60000002;stroke-linecap:butt;stroke-linejoin:miter;stroke-miterlimit:4;stroke-dasharray:none;stroke-opacity:1"
           d="m 122.285,32.457 v 323.43" /></g><g
         transform="matrix(1,0,0,-1,0,360)"
         id="g18"><path
           id="path20"
           style="fill:none;stroke:#000000;stroke-width:1.60000002;stroke-linecap:butt;stroke-linejoin:miter;stroke-miterlimit:4;stroke-dasharray:none;stroke-opacity:1"
           d="m 321.145,32.457 v 323.43" /></g><text
         id="text24"
         style="font-variant:normal;font-weight:normal;font-size:16px;font-family:'LM Roman 10';-inkscape-font-specification:LMRoman10-Regular;writing-mode:lr-tb;fill:#000000;fill-opacity:1;fill-rule:nonzero;stroke:none"
         transform="matrix(1,0,0,-1,89.714288,344.11424)"><tspan
           id="tspan22"
           y="0"
           x="0 12 20 26.304001 32.528 37.855999 198.28799 210.28799 218.28799 224.592 230.81599 236.144">Host AHost B</tspan></text>
<g
         transform="matrix(1,0,0,-1,0,360)"
         id="g26"><path
           id="path28"
           style="fill:none;stroke:#0000b5;stroke-width:1.20000005;stroke-linecap:butt;stroke-linejoin:miter;stroke-miterlimit:10;stroke-dasharray:none;stroke-opacity:1"
           d="M 122.855,44.457 318.48,96.875" /></g><g
         transform="matrix(-1,0.267949,0.267949,1,0,360)"
         id="g30"><path
           id="path32"
           style="fill:#0000b5;fill-opacity:1;fill-rule:evenodd;stroke:#0000b5;stroke-width:1.15911102;stroke-linecap:butt;stroke-linejoin:miter;stroke-miterlimit:4;stroke-dasharray:none;stroke-opacity:1"
           d="m -309.775,-10.766 4.636,-4.636 -16.226,4.637 16.227,4.636 z" /></g><text
         id="text36"
         style="font-variant:normal;font-weight:normal;font-size:14px;font-family:'LM Roman 10';-inkscape-font-specification:LMRoman10-Regular;writing-mode:lr-tb;fill:#000000;fill-opacity:1;fill-rule:nonzero;stroke:none"
         transform="matrix(0.96576679,-0.25941186,-0.25941186,-0.96576679,141.26714,316.6618)"><tspan
           id="tspan34"
           y="0"
           x="0 7.7839999 14 21.392 25.284 29.945999 36.945999 43.945999 47.838001 52.5 59.5 66.5 71.162003 78.596001 85.987999 91.433998 97.650002 103.166 107.828 115.612 121.828 126.49 134.274 141.274 149.058 156.058">Seq. 16, 15 bytes de dados</tspan></text>
<g
         transform="matrix(1,0,0,-1,0,360)"
         id="g38"><path
           id="path40"
           style="fill:none;stroke:#0000b5;stroke-width:1.20000005;stroke-linecap:butt;stroke-linejoin:miter;stroke-miterlimit:10;stroke-dasharray:none;stroke-opacity:1"
           d="M 320.434,100.457 203.098,132.875" /></g><g
         transform="matrix(1,0.276272,0.276272,-1,0,360)"
         id="g42"><path
           id="path44"
           style="fill:#0000b5;fill-opacity:1;fill-rule:evenodd;stroke:#0000b5;stroke-width:1.15666902;stroke-linecap:butt;stroke-linejoin:miter;stroke-miterlimit:4;stroke-dasharray:none;stroke-opacity:1"
           d="m 166.155,175.584 4.626,-4.628 -16.192,4.628 16.194,4.626 z" /></g><g
         transform="matrix(1,0,0,-1,0,360)"
         id="g46"><path
           id="path48"
           style="fill:none;stroke:#0000b5;stroke-width:1.20000005;stroke-linecap:butt;stroke-linejoin:miter;stroke-miterlimit:10;stroke-dasharray:none;stroke-opacity:1"
           d="M 122.855,203.312 318.48,255.73" /></g><g
         transform="matrix(-1,0.267949,0.267949,1,0,360)"
         id="g50"><path
           id="path52"
           style="fill:#0000b5;fill-opacity:1;fill-rule:evenodd;stroke:#0000b5;stroke-width:1.15911102;stroke-linecap:butt;stroke-linejoin:miter;stroke-miterlimit:4;stroke-dasharray:none;stroke-opacity:1"
           d="m -349.489,-158.98 4.636,-4.637 -16.226,4.637 16.227,4.637 z" /></g><text
         id="text56"
         style="font-variant:normal;font-weight:normal;font-size:14px;font-family:'LM Roman 10';-inkscape-font-specification:LMRoman10-Regular;writing-mode:lr-tb;fill:#000000;fill-opacity:1;fill-rule:nonzero;stroke:none"
         transform="matrix(0.96576679,-0.25941186,-0.25941186,-0.96576679,141.26717,157.80466)"><tspan
           id="tspan54"
           y="0"
           x="0 7.7839999 14 21.392 25.284 29.945999 36.945999 43.945999 47.838001 52.5 59.5 66.5 71.162003 78.596001 85.987999 91.433998 97.650002 103.166 107.828 115.612 121.828 126.49 134.274 141.274 149.058 156.058">Seq. 16, 15 bytes de dados</tspan></text>
<g
         transform="matrix(1,0,0,-1,0,360)"
         id="g58"><path
           id="path60"
           style="fill:none;stroke:#0000b5;stroke-width:1.20000005;stroke-linecap:butt;stroke-linejoin:miter;stroke-miterlimit:10;stroke-dasharray:none;stroke-opacity:1"
           d="M 320.434,259.312 124.812,311.73" /></g><g
         transform="matrix(1,0.267949,0.267949,-1,0,360)"
         id="g62"><path
           id="path64"
           style="fill:#0000b5;fill-opacity:1;fill-rule:evenodd;stroke:#0000b5;stroke-width:1.15911102;stroke-linecap:butt;stroke-linejoin:miter;stroke-miterlimit:4;stroke-dasharray:none;stroke-opacity:1"
           d="m 50.109,322.052 4.637,-4.637 -16.227,4.637 16.226,4.636 z" /></g><text
         id="text70"
         style="font-variant:normal;font-weight:normal;font-size:14px;font-family:'LM Roman 10';-inkscape-font-specification:LMRoman10-Regular;writing-mode:lr-tb;fill:#000000;fill-opacity:1;fill-rule:nonzero;stroke:none"
         transform="matrix(0.96277248,0.27031307,0.27031307,-0.96277248,227.95605,238.34738)"><tspan
           id="tspan66"
           y="0"
           x="0 10.122001 15.946 23.338001 28 35">Ack 31</tspan><tspan
           id="tspan68"
           y="152.71915"
           x="-79.676994 -69.555 -63.730999 -56.338997 -51.676998 -44.676998">Ack 31</tspan></text>
<path
         id="path72"
         style="fill:#ff0016;fill-opacity:1;fill-rule:nonzero;stroke:none"
         d="m 210.785,239.707 3.336,-3.543 -15.191,-17.926 -3.336,3.539 z" /><path
         id="path74"
         style="fill:#ff0016;fill-opacity:1;fill-rule:nonzero;stroke:none"
         d="m 198.93,239.707 -3.336,-3.543 15.191,-17.926 3.336,3.539 z" /><g
         transform="matrix(1,0,0,-1,0,360)"
         id="g76"><path
           id="path78"
           style="fill:none;stroke:#000000;stroke-width:0.80000001;stroke-linecap:butt;stroke-linejoin:miter;stroke-miterlimit:4;stroke-dasharray:3.2, 3.2;stroke-dashoffset:0;stroke-opacity:1"
           d="m 213.715,140.457 c 12.976,20.027 36.797,34.816 54.285,26.285 28.98,-21.066 56.172,-22.953 74.285,-16.57" /></g><g
         transform="matrix(-1,0.352252,0.352252,1,0,360)"
         id="g80"><path
           id="path82"
           style="fill:#000000;fill-opacity:1;fill-rule:evenodd;stroke:#000000;stroke-width:0.75455499;stroke-linecap:butt;stroke-linejoin:miter;stroke-miterlimit:4;stroke-dasharray:none;stroke-opacity:1"
           d="m -344.014,-26.332 3.015,-3.019 -10.562,3.017 10.563,3.018 z" /></g><text
         id="text86"
         style="font-variant:normal;font-weight:normal;font-size:14px;font-family:'LM Roman 10';-inkscape-font-specification:LMRoman10-Regular;writing-mode:lr-tb;fill:#ff0000;fill-opacity:1;fill-rule:nonzero;stroke:none"
         transform="matrix(1,0,0,-1,348,203.54285)"><tspan
           id="tspan84"
           y="0"
           x="0 10.122 15.946 23.337999 28 34.216 38.877998 47.068001 53.284 58.771999 66.556 70.447998 78.232002 85.232002">Ack é perdido!</tspan></text>
<g
         transform="matrix(1,0,0,-1,0,360)"
         id="g88"><path
           id="path90"
           style="fill:none;stroke:#000000;stroke-width:0.80000001;stroke-linecap:butt;stroke-linejoin:miter;stroke-miterlimit:4;stroke-dasharray:none;stroke-opacity:1"
           d="m 113.109,44.641 h 6.664" /></g><g
         transform="matrix(1,0,0,-1,0,360)"
         id="g92"><path
           id="path94"
           style="fill:none;stroke:#000000;stroke-width:0.80000001;stroke-linecap:butt;stroke-linejoin:miter;stroke-miterlimit:4;stroke-dasharray:none;stroke-opacity:1"
           d="m 113.109,203.641 h 6.664" /></g><g
         transform="matrix(1,0,0,-1,0,360)"
         id="g96"><path
           id="path98"
           style="fill:none;stroke:#000000;stroke-width:1.20000005;stroke-linecap:butt;stroke-linejoin:miter;stroke-miterlimit:4;stroke-dasharray:none;stroke-opacity:1"
           d="m 116.57,201.938 v -32.02" /></g><g
         transform="matrix(0,1,1,0,0,360)"
         id="g100"><path
           id="path102"
           style="fill:#000000;fill-opacity:1;fill-rule:evenodd;stroke:#000000;stroke-width:0.44999999;stroke-linecap:butt;stroke-linejoin:round;stroke-miterlimit:4;stroke-dasharray:none;stroke-opacity:1"
           d="m -195.66,119.477 -7.867,-2.895 7.867,-2.891 c -1.258,1.707 -1.25,4.043 0,5.786 z" /></g><g
         transform="matrix(1,0,0,-1,0,360)"
         id="g104"><path
           id="path106"
           style="fill:none;stroke:#000000;stroke-width:1.20000005;stroke-linecap:butt;stroke-linejoin:miter;stroke-miterlimit:4;stroke-dasharray:none;stroke-opacity:1"
           d="M 116.57,74.113 V 46.539" /></g><g
         transform="matrix(0,-1,-1,0,0,360)"
         id="g108"><path
           id="path110"
           style="fill:#000000;fill-opacity:1;fill-rule:evenodd;stroke:#000000;stroke-width:0.60000002;stroke-linecap:butt;stroke-linejoin:miter;stroke-miterlimit:4;stroke-dasharray:none;stroke-opacity:1"
           d="m 51.34,-116.57 2.398,-2.403 -8.398,2.403 8.398,2.398 z" /></g><text
         id="text116"
         style="font-variant:normal;font-weight:normal;font-size:14px;font-family:'LM Roman 10';-inkscape-font-specification:LMRoman10-Regular;writing-mode:lr-tb;fill:#000000;fill-opacity:1;fill-rule:nonzero;stroke:none"
         transform="matrix(0,1,1,0,100.46642,204.11307)"><tspan
           id="tspan112"
           y="0"
           x="0 9.5340004 15.05 20.496 27.496 35.279999 40.768002 47.768002 52.472 60.256001 67.255997">Estouro do </tspan><tspan
           id="tspan114"
           y="17.5"
           x="-8.8183622 0.15563799 6.3716378 18.033638 26.209639 33.209637 38.697639 42.589638 48.805637 55.805637 63.589638 70.589638">Temporizador</tspan></text>
</g></g></svg>