<?xml version="1.0" encoding="UTF-8" standalone="no"?>
<!-- Created with Inkscape (http://www.inkscape.org/) -->

<svg
   xmlns:dc="http://purl.org/dc/elements/1.1/"
   xmlns:cc="http://creativecommons.org/ns#"
   xmlns:rdf="http://www.w3.org/1999/02/22-rdf-syntax-ns#"
   xmlns:svg="http://www.w3.org/2000/svg"
   xmlns="http://www.w3.org/2000/svg"
   xmlns:sodipodi="http://sodipodi.sourceforge.net/DTD/sodipodi-0.dtd"
   xmlns:inkscape="http://www.inkscape.org/namespaces/inkscape"
   id="svg4697"
   xml:space="preserve"
   height="108.42461"
   width="795.90253"
   version="1.1"
   inkscape:version="0.91 r13725"
   sodipodi:docname="CampoDuracao.svg"><sodipodi:namedview
     pagecolor="#ffffff"
     bordercolor="#666666"
     borderopacity="1"
     objecttolerance="10"
     gridtolerance="10"
     guidetolerance="10"
     inkscape:pageopacity="0"
     inkscape:pageshadow="2"
     inkscape:window-width="1366"
     inkscape:window-height="719"
     id="namedview274"
     showgrid="false"
     inkscape:zoom="1.3938508"
     inkscape:cx="314.19029"
     inkscape:cy="21.800516"
     inkscape:window-x="0"
     inkscape:window-y="25"
     inkscape:window-maximized="1"
     inkscape:current-layer="svg4697"
     fit-margin-top="0"
     fit-margin-left="0"
     fit-margin-right="0"
     fit-margin-bottom="0" /><metadata
     id="metadata4703"><rdf:RDF><cc:Work
         rdf:about=""><dc:format>image/svg+xml</dc:format><dc:type
           rdf:resource="http://purl.org/dc/dcmitype/StillImage" /><dc:title></dc:title></cc:Work></rdf:RDF></metadata><defs
     id="defs4701"><clipPath
       id="clipPath9546"
       clipPathUnits="userSpaceOnUse"><path
         id="path9548"
         d="M 1.0729e-5,0 720,0 720,540 0,540 0,0 Z"
         inkscape:connector-curvature="0"
         style="clip-rule:evenodd" /></clipPath><clipPath
       id="clipPath9534"
       clipPathUnits="userSpaceOnUse"><path
         id="path9536"
         d="M 1.0729e-5,0 720,0 720,540 0,540 0,0 Z"
         inkscape:connector-curvature="0"
         style="clip-rule:evenodd" /></clipPath><clipPath
       id="clipPath9522"
       clipPathUnits="userSpaceOnUse"><path
         id="path9524"
         d="M 1.0729e-5,0 720,0 720,540 0,540 0,0 Z"
         inkscape:connector-curvature="0"
         style="clip-rule:evenodd" /></clipPath><clipPath
       id="clipPath9510"
       clipPathUnits="userSpaceOnUse"><path
         id="path9512"
         d="M 1.0729e-5,0 720,0 720,540 0,540 0,0 Z"
         inkscape:connector-curvature="0"
         style="clip-rule:evenodd" /></clipPath><clipPath
       id="clipPath9498"
       clipPathUnits="userSpaceOnUse"><path
         id="path9500"
         d="M 1.0729e-5,0 720,0 720,540 0,540 0,0 Z"
         inkscape:connector-curvature="0"
         style="clip-rule:evenodd" /></clipPath><clipPath
       id="clipPath9486"
       clipPathUnits="userSpaceOnUse"><path
         id="path9488"
         d="M 1.0729e-5,0 720,0 720,540 0,540 0,0 Z"
         inkscape:connector-curvature="0"
         style="clip-rule:evenodd" /></clipPath><clipPath
       id="clipPath9474"
       clipPathUnits="userSpaceOnUse"><path
         id="path9476"
         d="M 1.0729e-5,0 720,0 720,540 0,540 0,0 Z"
         inkscape:connector-curvature="0"
         style="clip-rule:evenodd" /></clipPath><clipPath
       id="clipPath9460"
       clipPathUnits="userSpaceOnUse"><path
         id="path9462"
         d="M 1.0729e-5,0 720,0 720,540 0,540 0,0 Z"
         inkscape:connector-curvature="0"
         style="clip-rule:evenodd" /></clipPath><clipPath
       id="clipPath9448"
       clipPathUnits="userSpaceOnUse"><path
         id="path9450"
         d="M 1.0729e-5,0 720,0 720,540 0,540 0,0 Z"
         inkscape:connector-curvature="0"
         style="clip-rule:evenodd" /></clipPath><clipPath
       id="clipPath9436"
       clipPathUnits="userSpaceOnUse"><path
         id="path9438"
         d="M 1.0729e-5,0 720,0 720,540 0,540 0,0 Z"
         inkscape:connector-curvature="0"
         style="clip-rule:evenodd" /></clipPath><clipPath
       id="clipPath9424"
       clipPathUnits="userSpaceOnUse"><path
         id="path9426"
         d="M 1.0729e-5,0 720,0 720,540 0,540 0,0 Z"
         inkscape:connector-curvature="0"
         style="clip-rule:evenodd" /></clipPath><clipPath
       id="clipPath9408"
       clipPathUnits="userSpaceOnUse"><path
         id="path9410"
         d="M 1.0729e-5,0 720,0 720,540 0,540 0,0 Z"
         inkscape:connector-curvature="0"
         style="clip-rule:evenodd" /></clipPath><clipPath
       id="clipPath9396"
       clipPathUnits="userSpaceOnUse"><path
         id="path9398"
         d="M 1.0729e-5,0 720,0 720,540 0,540 0,0 Z"
         inkscape:connector-curvature="0"
         style="clip-rule:evenodd" /></clipPath><clipPath
       id="clipPath9384"
       clipPathUnits="userSpaceOnUse"><path
         id="path9386"
         d="M 1.0729e-5,0 720,0 720,540 0,540 0,0 Z"
         inkscape:connector-curvature="0"
         style="clip-rule:evenodd" /></clipPath><clipPath
       id="clipPath9372"
       clipPathUnits="userSpaceOnUse"><path
         id="path9374"
         d="M 1.0729e-5,0 720,0 720,540 0,540 0,0 Z"
         inkscape:connector-curvature="0"
         style="clip-rule:evenodd" /></clipPath><clipPath
       id="clipPath9336"
       clipPathUnits="userSpaceOnUse"><path
         id="path9338"
         d="M 1.0729e-5,0 720,0 720,540 0,540 0,0 Z"
         inkscape:connector-curvature="0"
         style="clip-rule:evenodd" /></clipPath><clipPath
       id="clipPath9324"
       clipPathUnits="userSpaceOnUse"><path
         id="path9326"
         d="M 1.0729e-5,0 720,0 720,540 0,540 0,0 Z"
         inkscape:connector-curvature="0"
         style="clip-rule:evenodd" /></clipPath><clipPath
       id="clipPath9312"
       clipPathUnits="userSpaceOnUse"><path
         id="path9314"
         d="M 1.0729e-5,0 720,0 720,540 0,540 0,0 Z"
         inkscape:connector-curvature="0"
         style="clip-rule:evenodd" /></clipPath><clipPath
       id="clipPath9300"
       clipPathUnits="userSpaceOnUse"><path
         id="path9302"
         d="M 1.0729e-5,0 720,0 720,540 0,540 0,0 Z"
         inkscape:connector-curvature="0"
         style="clip-rule:evenodd" /></clipPath><clipPath
       id="clipPath9288"
       clipPathUnits="userSpaceOnUse"><path
         id="path9290"
         d="M 1.0729e-5,0 720,0 720,540 0,540 0,0 Z"
         inkscape:connector-curvature="0"
         style="clip-rule:evenodd" /></clipPath><clipPath
       id="clipPath9276"
       clipPathUnits="userSpaceOnUse"><path
         id="path9278"
         d="M 1.0729e-5,0 720,0 720,540 0,540 0,0 Z"
         inkscape:connector-curvature="0"
         style="clip-rule:evenodd" /></clipPath><clipPath
       id="clipPath9264"
       clipPathUnits="userSpaceOnUse"><path
         id="path9266"
         d="M 1.0729e-5,0 720,0 720,540 0,540 0,0 Z"
         inkscape:connector-curvature="0"
         style="clip-rule:evenodd" /></clipPath><clipPath
       id="clipPath9252"
       clipPathUnits="userSpaceOnUse"><path
         id="path9254"
         d="M 1.0729e-5,0 720,0 720,540 0,540 0,0 Z"
         inkscape:connector-curvature="0"
         style="clip-rule:evenodd" /></clipPath><clipPath
       id="clipPath9240"
       clipPathUnits="userSpaceOnUse"><path
         id="path9242"
         d="M 1.0729e-5,0 720,0 720,540 0,540 0,0 Z"
         inkscape:connector-curvature="0"
         style="clip-rule:evenodd" /></clipPath><clipPath
       id="clipPath9228"
       clipPathUnits="userSpaceOnUse"><path
         id="path9230"
         d="M 1.0729e-5,0 720,0 720,540 0,540 0,0 Z"
         inkscape:connector-curvature="0"
         style="clip-rule:evenodd" /></clipPath><clipPath
       id="clipPath9216"
       clipPathUnits="userSpaceOnUse"><path
         id="path9218"
         d="M 1.0729e-5,0 720,0 720,540 0,540 0,0 Z"
         inkscape:connector-curvature="0"
         style="clip-rule:evenodd" /></clipPath><clipPath
       id="clipPath9204"
       clipPathUnits="userSpaceOnUse"><path
         id="path9206"
         d="M 1.0729e-5,0 720,0 720,540 0,540 0,0 Z"
         inkscape:connector-curvature="0"
         style="clip-rule:evenodd" /></clipPath><clipPath
       id="clipPath9192"
       clipPathUnits="userSpaceOnUse"><path
         id="path9194"
         d="M 1.0729e-5,0 720,0 720,540 0,540 0,0 Z"
         inkscape:connector-curvature="0"
         style="clip-rule:evenodd" /></clipPath><clipPath
       id="clipPath9180"
       clipPathUnits="userSpaceOnUse"><path
         id="path9182"
         d="M 1.0729e-5,0 720,0 720,540 0,540 0,0 Z"
         inkscape:connector-curvature="0"
         style="clip-rule:evenodd" /></clipPath><clipPath
       id="clipPath9164"
       clipPathUnits="userSpaceOnUse"><path
         id="path9166"
         d="M 1.0729e-5,0 720,0 720,540 0,540 0,0 Z"
         inkscape:connector-curvature="0"
         style="clip-rule:evenodd" /></clipPath><clipPath
       id="clipPath9144"
       clipPathUnits="userSpaceOnUse"><path
         id="path9146"
         d="M 1.0729e-5,0 720,0 720,540 0,540 0,0 Z"
         inkscape:connector-curvature="0"
         style="clip-rule:evenodd" /></clipPath><clipPath
       id="clipPath9132"
       clipPathUnits="userSpaceOnUse"><path
         id="path9134"
         d="M 1.0729e-5,0 720,0 720,540 0,540 0,0 Z"
         inkscape:connector-curvature="0"
         style="clip-rule:evenodd" /></clipPath><clipPath
       id="clipPath9116"
       clipPathUnits="userSpaceOnUse"><path
         id="path9118"
         d="M 1.0729e-5,0 720,0 720,540 0,540 0,0 Z"
         inkscape:connector-curvature="0"
         style="clip-rule:evenodd" /></clipPath><clipPath
       id="clipPath9104"
       clipPathUnits="userSpaceOnUse"><path
         id="path9106"
         d="M 1.0729e-5,0 720,0 720,540 0,540 0,0 Z"
         inkscape:connector-curvature="0"
         style="clip-rule:evenodd" /></clipPath><clipPath
       id="clipPath9088"
       clipPathUnits="userSpaceOnUse"><path
         id="path9090"
         d="M 1.0729e-5,0 720,0 720,540 0,540 0,0 Z"
         inkscape:connector-curvature="0"
         style="clip-rule:evenodd" /></clipPath><clipPath
       id="clipPath9076"
       clipPathUnits="userSpaceOnUse"><path
         id="path9078"
         d="M 1.0729e-5,0 720,0 720,540 0,540 0,0 Z"
         inkscape:connector-curvature="0"
         style="clip-rule:evenodd" /></clipPath><clipPath
       id="clipPath9060"
       clipPathUnits="userSpaceOnUse"><path
         id="path9062"
         d="M 1.0729e-5,0 720,0 720,540 0,540 0,0 Z"
         inkscape:connector-curvature="0"
         style="clip-rule:evenodd" /></clipPath><clipPath
       id="clipPath9048"
       clipPathUnits="userSpaceOnUse"><path
         id="path9050"
         d="M 1.0729e-5,0 720,0 720,540 0,540 0,0 Z"
         inkscape:connector-curvature="0"
         style="clip-rule:evenodd" /></clipPath><clipPath
       id="clipPath9032"
       clipPathUnits="userSpaceOnUse"><path
         id="path9034"
         d="M 1.0729e-5,0 720,0 720,540 0,540 0,0 Z"
         inkscape:connector-curvature="0"
         style="clip-rule:evenodd" /></clipPath><clipPath
       id="clipPath9016"
       clipPathUnits="userSpaceOnUse"><path
         id="path9018"
         d="M 1.0729e-5,0 720,0 720,540 0,540 0,0 Z"
         inkscape:connector-curvature="0"
         style="clip-rule:evenodd" /></clipPath><clipPath
       id="clipPath9004"
       clipPathUnits="userSpaceOnUse"><path
         id="path9006"
         d="M 1.0729e-5,0 720,0 720,540 0,540 0,0 Z"
         inkscape:connector-curvature="0"
         style="clip-rule:evenodd" /></clipPath></defs><path
     style="fill:#00cc99;fill-rule:evenodd"
     inkscape:connector-curvature="0"
     d="m 0.45000002,83.862135 82.49999998,0 0,-60 -82.49999998,0 0,60 z"
     id="path8996" /><path
     style="fill:none;stroke:#000000;stroke-width:0.90000004;stroke-linecap:butt;stroke-linejoin:miter;stroke-miterlimit:10;stroke-dasharray:none"
     inkscape:connector-curvature="0"
     stroke-miterlimit="10"
     d="m 0.45000002,83.862135 82.49999998,0 0,-60 -82.49999998,0 0,60 z"
     id="path8998" /><g
     transform="matrix(1.25,0,0,-1.25,-28.049927,486.46116)"
     id="g9000"><g
       clip-path="url(#clipPath9004)"
       id="g9002"><text
         transform="matrix(1,0,0,-1,35.28,349.68)"
         id="text9008"><tspan
           x="0 4.4368801 9.7515602 18.62532 31.92"
           y="0"
           font-variant="normal"
           font-size="15.96000004px"
           font-weight="normal"
           style="font-variant:normal;font-weight:normal;font-size:15.96000004px;font-family:Arial;writing-mode:lr-tb;fill:#000000;fill-rule:nonzero"
           id="tspan9010">frame</tspan></text>
</g></g><g
     transform="matrix(1.25,0,0,-1.25,-28.049927,486.46116)"
     id="g9012"><g
       clip-path="url(#clipPath9016)"
       id="g9014"><text
         transform="matrix(1,0,0,-1,31.68,330.48)"
         id="text9020"><tspan
           x="0 8.0278797 16.90164 25.7754 30.21228 35.526958 44.400719"
           y="0"
           font-variant="normal"
           font-size="15.96000004px"
           font-weight="normal"
           style="font-variant:normal;font-weight:normal;font-size:15.96000004px;font-family:Arial;writing-mode:lr-tb;fill:#000000;fill-rule:nonzero"
           id="tspan9022">control</tspan></text>
</g></g><path
     style="fill:#00cc99;fill-rule:evenodd"
     inkscape:connector-curvature="0"
     d="m 82.9525,83.862135 82.5,0 0,-60 -82.5,0 0,60 z"
     id="path9024" /><path
     style="fill:none;stroke:#000000;stroke-width:0.90000004;stroke-linecap:butt;stroke-linejoin:miter;stroke-miterlimit:10;stroke-dasharray:none"
     inkscape:connector-curvature="0"
     stroke-miterlimit="10"
     d="m 82.9525,83.862135 82.5,0 0,-60 -82.5,0 0,60 z"
     id="path9026" /><g
     transform="matrix(1.25,0,0,-1.25,-28.049927,486.46116)"
     id="g9028"><g
       clip-path="url(#clipPath9032)"
       id="g9030"><text
         transform="matrix(1,0,0,-1,92.904,340.08)"
         id="text9036"><tspan
           x="0 8.8737602 17.74752 23.062201 31.935961 36.372841 39.915958 48.82164"
           y="0"
           font-variant="normal"
           font-size="15.96000004px"
           font-weight="normal"
           style="font-variant:normal;font-weight:normal;font-size:15.96000004px;font-family:Arial;writing-mode:lr-tb;fill:#000000;fill-rule:nonzero"
           id="tspan9038">duration</tspan></text>
</g></g><path
     style="fill:#00cc99;fill-rule:evenodd"
     inkscape:connector-curvature="0"
     d="m 165.4525,83.862135 82.5,0 0,-60 -82.5,0 0,60 z"
     id="path9040" /><path
     style="fill:none;stroke:#000000;stroke-width:0.90000004;stroke-linecap:butt;stroke-linejoin:miter;stroke-miterlimit:10;stroke-dasharray:none"
     inkscape:connector-curvature="0"
     stroke-miterlimit="10"
     d="m 165.4525,83.862135 82.5,0 0,-60 -82.5,0 0,60 z"
     id="path9042" /><g
     transform="matrix(1.25,0,0,-1.25,-28.049927,486.46116)"
     id="g9044"><g
       clip-path="url(#clipPath9048)"
       id="g9046"><text
         transform="matrix(1,0,0,-1,159.38,349.68)"
         id="text9052"><tspan
           x="0 8.8737602 17.74752 26.621281 31.935961 40.809719 48.82164"
           y="0"
           font-variant="normal"
           font-size="15.96000004px"
           font-weight="normal"
           style="font-variant:normal;font-weight:normal;font-size:15.96000004px;font-family:Arial;writing-mode:lr-tb;fill:#000000;fill-rule:nonzero"
           id="tspan9054">address</tspan></text>
</g></g><g
     transform="matrix(1.25,0,0,-1.25,-28.049927,486.46116)"
     id="g9056"><g
       clip-path="url(#clipPath9060)"
       id="g9058"><text
         transform="matrix(1,0,0,-1,183.26,330.48)"
         id="text9064"><tspan
           x="0"
           y="0"
           font-variant="normal"
           font-size="15.96000004px"
           font-weight="normal"
           style="font-variant:normal;font-weight:normal;font-size:15.96000004px;font-family:Arial;writing-mode:lr-tb;fill:#000000;fill-rule:nonzero"
           id="tspan9066">1</tspan></text>
</g></g><path
     style="fill:#00cc99;fill-rule:evenodd"
     inkscape:connector-curvature="0"
     d="m 247.9525,83.862135 82.5,0 0,-60 -82.5,0 0,60 z"
     id="path9068" /><path
     style="fill:none;stroke:#000000;stroke-width:0.90000004;stroke-linecap:butt;stroke-linejoin:miter;stroke-miterlimit:10;stroke-dasharray:none"
     inkscape:connector-curvature="0"
     stroke-miterlimit="10"
     d="m 247.9525,83.862135 82.5,0 0,-60 -82.5,0 0,60 z"
     id="path9070" /><g
     transform="matrix(1.25,0,0,-1.25,-28.049927,486.46116)"
     id="g9072"><g
       clip-path="url(#clipPath9076)"
       id="g9074"><text
         transform="matrix(1,0,0,-1,225.41,349.68)"
         id="text9080"><tspan
           x="0 8.8737602 17.74752 26.621281 31.935961 40.809719 48.82164"
           y="0"
           font-variant="normal"
           font-size="15.96000004px"
           font-weight="normal"
           style="font-variant:normal;font-weight:normal;font-size:15.96000004px;font-family:Arial;writing-mode:lr-tb;fill:#000000;fill-rule:nonzero"
           id="tspan9082">address</tspan></text>
</g></g><g
     transform="matrix(1.25,0,0,-1.25,-28.049927,486.46116)"
     id="g9084"><g
       clip-path="url(#clipPath9088)"
       id="g9086"><text
         transform="matrix(1,0,0,-1,249.29,330.48)"
         id="text9092"><tspan
           x="0"
           y="0"
           font-variant="normal"
           font-size="15.96000004px"
           font-weight="normal"
           style="font-variant:normal;font-weight:normal;font-size:15.96000004px;font-family:Arial;writing-mode:lr-tb;fill:#000000;fill-rule:nonzero"
           id="tspan9094">2</tspan></text>
</g></g><path
     style="fill:#00cc99;fill-rule:evenodd"
     inkscape:connector-curvature="0"
     d="m 495.4525,83.862135 82.5,0 0,-60 -82.5,0 0,60 z"
     id="path9096" /><path
     style="fill:none;stroke:#000000;stroke-width:0.90000004;stroke-linecap:butt;stroke-linejoin:miter;stroke-miterlimit:10;stroke-dasharray:none"
     inkscape:connector-curvature="0"
     stroke-miterlimit="10"
     d="m 495.4525,83.862135 82.5,0 0,-60 -82.5,0 0,60 z"
     id="path9098" /><g
     transform="matrix(1.25,0,0,-1.25,-28.049927,486.46116)"
     id="g9100"><g
       clip-path="url(#clipPath9104)"
       id="g9102"><text
         transform="matrix(1,0,0,-1,423.43,349.68)"
         id="text9108"><tspan
           x="0 8.8737602 17.74752 26.621281 31.935961 40.809719 48.82164"
           y="0"
           font-variant="normal"
           font-size="15.96000004px"
           font-weight="normal"
           style="font-variant:normal;font-weight:normal;font-size:15.96000004px;font-family:Arial;writing-mode:lr-tb;fill:#000000;fill-rule:nonzero"
           id="tspan9110">address</tspan></text>
</g></g><g
     transform="matrix(1.25,0,0,-1.25,-28.049927,486.46116)"
     id="g9112"><g
       clip-path="url(#clipPath9116)"
       id="g9114"><text
         transform="matrix(1,0,0,-1,447.31,330.48)"
         id="text9120"><tspan
           x="0"
           y="0"
           font-variant="normal"
           font-size="15.96000004px"
           font-weight="normal"
           style="font-variant:normal;font-weight:normal;font-size:15.96000004px;font-family:Arial;writing-mode:lr-tb;fill:#000000;fill-rule:nonzero"
           id="tspan9122">4</tspan></text>
</g></g><path
     style="fill:#00cc99;fill-rule:evenodd"
     inkscape:connector-curvature="0"
     d="m 330.4525,83.862135 82.5,0 0,-60 -82.5,0 0,60 z"
     id="path9124" /><path
     style="fill:none;stroke:#000000;stroke-width:0.90000004;stroke-linecap:butt;stroke-linejoin:miter;stroke-miterlimit:10;stroke-dasharray:none"
     inkscape:connector-curvature="0"
     stroke-miterlimit="10"
     d="m 330.4525,83.862135 82.5,0 0,-60 -82.5,0 0,60 z"
     id="path9126" /><g
     transform="matrix(1.25,0,0,-1.25,-28.049927,486.46116)"
     id="g9128"><g
       clip-path="url(#clipPath9132)"
       id="g9130"><text
         transform="matrix(1,0,0,-1,291.41,349.68)"
         id="text9136"><tspan
           x="0 8.8737602 17.74752 26.621281 31.935961 40.809719 48.82164"
           y="0"
           font-variant="normal"
           font-size="15.96000004px"
           font-weight="normal"
           style="font-variant:normal;font-weight:normal;font-size:15.96000004px;font-family:Arial;writing-mode:lr-tb;fill:#000000;fill-rule:nonzero"
           id="tspan9138">address</tspan></text>
</g></g><g
     transform="matrix(1.25,0,0,-1.25,-28.049927,486.46116)"
     id="g9140"><g
       clip-path="url(#clipPath9144)"
       id="g9142"><text
         transform="matrix(1,0,0,-1,315.29,330.48)"
         id="text9148"><tspan
           x="0"
           y="0"
           font-variant="normal"
           font-size="15.96000004px"
           font-weight="normal"
           style="font-variant:normal;font-weight:normal;font-size:15.96000004px;font-family:Arial;writing-mode:lr-tb;fill:#000000;fill-rule:nonzero"
           id="tspan9150">3</tspan></text>
</g></g><path
     style="fill:#00cc99;fill-rule:evenodd"
     inkscape:connector-curvature="0"
     d="m 412.9525,83.862135 82.5,0 0,-60 -82.5,0 0,60 z"
     id="path9152" /><path
     style="fill:none;stroke:#000000;stroke-width:0.90000004;stroke-linecap:butt;stroke-linejoin:miter;stroke-miterlimit:10;stroke-dasharray:none"
     inkscape:connector-curvature="0"
     stroke-miterlimit="10"
     d="m 412.9525,83.862135 82.5,0 0,-60 -82.5,0 0,60 z"
     id="path9154" /><path
     style="fill:#ffff99;fill-rule:evenodd"
     inkscape:connector-curvature="0"
     d="m 577.9525,83.862135 135,0 0,-60 -135,0 0,60 z"
     id="path9156" /><path
     style="fill:none;stroke:#000000;stroke-width:0.90000004;stroke-linecap:butt;stroke-linejoin:miter;stroke-miterlimit:10;stroke-dasharray:none"
     inkscape:connector-curvature="0"
     stroke-miterlimit="10"
     d="m 577.9525,83.862135 135,0 0,-60 -135,0 0,60 z"
     id="path9158" /><g
     transform="matrix(1.25,0,0,-1.25,-28.049927,486.46116)"
     id="g9160"><g
       clip-path="url(#clipPath9164)"
       id="g9162"><text
         transform="matrix(1,0,0,-1,510.94,340.08)"
         id="text9168"><tspan
           x="0 8.8737602 17.74752 25.567921 29.15892 38.032681 46.906441"
           y="0"
           font-variant="normal"
           font-size="15.96000004px"
           font-weight="normal"
           style="font-variant:normal;font-weight:normal;font-size:15.96000004px;font-family:Arial;writing-mode:lr-tb;fill:#000000;fill-rule:nonzero"
           id="tspan9170">payload</tspan></text>
</g></g><path
     style="fill:#00cc99;fill-rule:evenodd"
     inkscape:connector-curvature="0"
     d="m 712.9525,83.862135 82.5,0 0,-60 -82.5,0 0,60 z"
     id="path9172" /><path
     style="fill:none;stroke:#000000;stroke-width:0.90000004;stroke-linecap:butt;stroke-linejoin:miter;stroke-miterlimit:10;stroke-dasharray:none"
     inkscape:connector-curvature="0"
     stroke-miterlimit="10"
     d="m 712.9525,83.862135 82.5,0 0,-60 -82.5,0 0,60 z"
     id="path9174" /><g
     transform="matrix(1.25,0,0,-1.25,-28.049927,486.46116)"
     id="g9176"><g
       clip-path="url(#clipPath9180)"
       id="g9178"><text
         transform="matrix(1,0,0,-1,608.5,340.08)"
         id="text9184"><tspan
           x="0 11.52 23.040001"
           y="0"
           font-variant="normal"
           font-size="15.96000004px"
           font-weight="normal"
           style="font-variant:normal;font-weight:normal;font-size:15.96000004px;font-family:Arial;writing-mode:lr-tb;fill:#000000;fill-rule:nonzero"
           id="tspan9186">CRC</tspan></text>
</g></g><g
     transform="matrix(1.25,0,0,-1.25,-28.049927,486.46116)"
     id="g9188"><g
       clip-path="url(#clipPath9192)"
       id="g9190"><text
         transform="matrix(1,0,0,-1,59.952,372.96)"
         id="text9196"><tspan
           x="0"
           y="0"
           font-variant="normal"
           font-size="18px"
           font-weight="normal"
           style="font-variant:normal;font-weight:normal;font-size:18px;font-family:Arial;writing-mode:lr-tb;fill:#000000;fill-rule:nonzero"
           id="tspan9198">2</tspan></text>
</g></g><g
     transform="matrix(1.25,0,0,-1.25,-28.049927,486.46116)"
     id="g9200"><g
       clip-path="url(#clipPath9204)"
       id="g9202"><text
         transform="matrix(1,0,0,-1,119.98,372.96)"
         id="text9208"><tspan
           x="0"
           y="0"
           font-variant="normal"
           font-size="18px"
           font-weight="normal"
           style="font-variant:normal;font-weight:normal;font-size:18px;font-family:Arial;writing-mode:lr-tb;fill:#000000;fill-rule:nonzero"
           id="tspan9210">2</tspan></text>
</g></g><g
     transform="matrix(1.25,0,0,-1.25,-28.049927,486.46116)"
     id="g9212"><g
       clip-path="url(#clipPath9216)"
       id="g9214"><text
         transform="matrix(1,0,0,-1,191.98,372.96)"
         id="text9220"><tspan
           x="0"
           y="0"
           font-variant="normal"
           font-size="18px"
           font-weight="normal"
           style="font-variant:normal;font-weight:normal;font-size:18px;font-family:Arial;writing-mode:lr-tb;fill:#000000;fill-rule:nonzero"
           id="tspan9222">6</tspan></text>
</g></g><g
     transform="matrix(1.25,0,0,-1.25,-28.049927,486.46116)"
     id="g9224"><g
       clip-path="url(#clipPath9228)"
       id="g9226"><text
         transform="matrix(1,0,0,-1,252,372.96)"
         id="text9232"><tspan
           x="0"
           y="0"
           font-variant="normal"
           font-size="18px"
           font-weight="normal"
           style="font-variant:normal;font-weight:normal;font-size:18px;font-family:Arial;writing-mode:lr-tb;fill:#000000;fill-rule:nonzero"
           id="tspan9234">6</tspan></text>
</g></g><g
     transform="matrix(1.25,0,0,-1.25,-28.049927,486.46116)"
     id="g9236"><g
       clip-path="url(#clipPath9240)"
       id="g9238"><text
         transform="matrix(1,0,0,-1,318,372.96)"
         id="text9244"><tspan
           x="0"
           y="0"
           font-variant="normal"
           font-size="18px"
           font-weight="normal"
           style="font-variant:normal;font-weight:normal;font-size:18px;font-family:Arial;writing-mode:lr-tb;fill:#000000;fill-rule:nonzero"
           id="tspan9246">6</tspan></text>
</g></g><g
     transform="matrix(1.25,0,0,-1.25,-28.049927,486.46116)"
     id="g9248"><g
       clip-path="url(#clipPath9252)"
       id="g9250"><text
         transform="matrix(1,0,0,-1,384.02,372.96)"
         id="text9256"><tspan
           x="0"
           y="0"
           font-variant="normal"
           font-size="18px"
           font-weight="normal"
           style="font-variant:normal;font-weight:normal;font-size:18px;font-family:Arial;writing-mode:lr-tb;fill:#000000;fill-rule:nonzero"
           id="tspan9258">2</tspan></text>
</g></g><g
     transform="matrix(1.25,0,0,-1.25,-28.049927,490.46116)"
     id="g9260"><g
       clip-path="url(#clipPath9264)"
       id="g9262"><text
         transform="matrix(1,0,0,-1,454.78,376.08)"
         id="text9268"><tspan
           x="0"
           y="0"
           font-variant="normal"
           font-size="18px"
           font-weight="normal"
           style="font-variant:normal;font-weight:normal;font-size:18px;font-family:Arial;writing-mode:lr-tb;fill:#000000;fill-rule:nonzero"
           id="tspan9270">6</tspan></text>
</g></g><g
     transform="matrix(1.25,0,0,-1.25,-28.049927,486.46116)"
     id="g9272"><g
       clip-path="url(#clipPath9276)"
       id="g9274"><text
         transform="matrix(1,0,0,-1,504.05,372.96)"
         id="text9280"><tspan
           x="0 9.96"
           y="0"
           font-variant="normal"
           font-size="18px"
           font-weight="normal"
           style="font-variant:normal;font-weight:normal;font-size:18px;font-family:Arial;writing-mode:lr-tb;fill:#000000;fill-rule:nonzero"
           id="tspan9282">0</tspan></text>
</g></g><g
     transform="matrix(1.25,0,0,-1.25,-28.049927,486.46116)"
     id="g9284"><g
       clip-path="url(#clipPath9288)"
       id="g9286"><text
         transform="matrix(1,0,0,-1,519.05,372.96)"
         id="text9292"><tspan
           x="0"
           y="0"
           font-variant="normal"
           font-size="18px"
           font-weight="normal"
           style="font-variant:normal;font-weight:normal;font-size:18px;font-family:Arial;writing-mode:lr-tb;fill:#000000;fill-rule:nonzero"
           id="tspan9294">-</tspan></text>
</g></g><g
     transform="matrix(1.25,0,0,-1.25,-28.049927,486.46116)"
     id="g9296"><g
       clip-path="url(#clipPath9300)"
       id="g9298"><text
         transform="matrix(1,0,0,-1,530.09,372.96)"
         id="text9304"><tspan
           x="0 9.96 19.92 29.879999"
           y="0"
           font-variant="normal"
           font-size="18px"
           font-weight="normal"
           style="font-variant:normal;font-weight:normal;font-size:18px;font-family:Arial;writing-mode:lr-tb;fill:#000000;fill-rule:nonzero"
           id="tspan9306">2312</tspan></text>
</g></g><g
     transform="matrix(1.25,0,0,-1.25,-28.049927,490.46116)"
     id="g9308"><g
       clip-path="url(#clipPath9312)"
       id="g9310"><text
         transform="matrix(1,0,0,-1,622.8,376.08)"
         id="text9316"><tspan
           x="0"
           y="0"
           font-variant="normal"
           font-size="18px"
           font-weight="normal"
           style="font-variant:normal;font-weight:normal;font-size:18px;font-family:Arial;writing-mode:lr-tb;fill:#000000;fill-rule:nonzero"
           id="tspan9318">4</tspan></text>
</g></g><g
     transform="matrix(1.25,0,0,-1.25,-28.049927,478.46116)"
     id="g9320"><g
       clip-path="url(#clipPath9324)"
       id="g9322"><text
         transform="matrix(1,0,0,-1,375.86,346.13)"
         id="text9328"><tspan
           x="0 8.0278797 16.90164"
           y="0"
           font-variant="normal"
           font-size="15.96000004px"
           font-weight="normal"
           style="font-variant:normal;font-weight:normal;font-size:15.96000004px;font-family:Arial;writing-mode:lr-tb;fill:#000000;fill-rule:nonzero"
           id="tspan9330">seq</tspan></text>
</g></g><g
     transform="matrix(1.25,0,0,-1.25,-28.049927,478.46116)"
     id="g9332"><g
       clip-path="url(#clipPath9336)"
       id="g9334"><text
         transform="matrix(1,0,0,-1,364.82,326.93)"
         id="text9340"><tspan
           x="0 8.0278797 16.90164 25.7754 30.21228 35.526958 44.400719"
           y="0"
           font-variant="normal"
           font-size="15.96000004px"
           font-weight="normal"
           style="font-variant:normal;font-weight:normal;font-size:15.96000004px;font-family:Arial;writing-mode:lr-tb;fill:#000000;fill-rule:nonzero"
           id="tspan9342">control</tspan></text>
</g></g><ellipse
     style="fill:none;fill-opacity:1;stroke:#ff0000;stroke-width:2.61383128;stroke-miterlimit:4;stroke-dasharray:none;stroke-dashoffset:0;stroke-opacity:1"
     id="path4376"
     cx="125.91112"
     cy="54.212303"
     rx="62.968815"
     ry="52.905388" /></svg>