<?xml version="1.0" encoding="UTF-8" standalone="no"?>
<!-- Created with Inkscape (http://www.inkscape.org/) -->

<svg
   xmlns:dc="http://purl.org/dc/elements/1.1/"
   xmlns:cc="http://creativecommons.org/ns#"
   xmlns:rdf="http://www.w3.org/1999/02/22-rdf-syntax-ns#"
   xmlns:svg="http://www.w3.org/2000/svg"
   xmlns="http://www.w3.org/2000/svg"
   xmlns:sodipodi="http://sodipodi.sourceforge.net/DTD/sodipodi-0.dtd"
   xmlns:inkscape="http://www.inkscape.org/namespaces/inkscape"
   width="228.64169mm"
   height="118.88302mm"
   viewBox="0 0 810.14772 421.23903"
   id="svg2"
   version="1.1"
   inkscape:version="0.48.5 r10040"
   sodipodi:docname="RedeMultiplosSaltosCobertura.svg">
  <defs
     id="defs4">
    <marker
       inkscape:stockid="Arrow1Lend"
       orient="auto"
       refY="0"
       refX="0"
       id="Arrow1Lend"
       style="overflow:visible"
       inkscape:isstock="true">
      <path
         id="path4267"
         d="M 0,0 5,-5 -12.5,0 5,5 0,0 Z"
         style="fill:#000000;fill-opacity:1;fill-rule:evenodd;stroke:#000000;stroke-width:1pt;stroke-opacity:1"
         transform="matrix(-0.8,0,0,-0.8,-10,0)"
         inkscape:connector-curvature="0" />
    </marker>
  </defs>
  <sodipodi:namedview
     id="base"
     pagecolor="#ffffff"
     bordercolor="#666666"
     borderopacity="1.0"
     inkscape:pageopacity="0.0"
     inkscape:pageshadow="2"
     inkscape:zoom="1.7614072"
     inkscape:cx="405.07385"
     inkscape:cy="210.61952"
     inkscape:document-units="px"
     inkscape:current-layer="layer1"
     showgrid="false"
     fit-margin-top="1"
     fit-margin-left="1"
     fit-margin-right="1"
     fit-margin-bottom="1"
     inkscape:window-width="1920"
     inkscape:window-height="1027"
     inkscape:window-x="0"
     inkscape:window-y="31"
     inkscape:window-maximized="1" />
  <metadata
     id="metadata7">
    <rdf:RDF>
      <cc:Work
         rdf:about="">
        <dc:format>image/svg+xml</dc:format>
        <dc:type
           rdf:resource="http://purl.org/dc/dcmitype/StillImage" />
        <dc:title></dc:title>
      </cc:Work>
    </rdf:RDF>
  </metadata>
  <g
     inkscape:label="Layer 1"
     inkscape:groupmode="layer"
     id="layer1"
     transform="translate(-253.50591,-189.07116)">
    <ellipse
       ry="29.098438"
       rx="29.877861"
       cy="323.92926"
       cx="732.82599"
       id="ellipse4240"
       style="opacity:0.97000002;fill:#008000;fill-opacity:1;stroke:#000000;stroke-width:1.54317784;stroke-miterlimit:4;stroke-opacity:1;stroke-dasharray:none;stroke-dashoffset:0"
       d="m 762.70385,323.92926 c 0,16.07062 -13.37677,29.09844 -29.87786,29.09844 -16.50109,0 -29.87786,-13.02782 -29.87786,-29.09844 0,-16.07062 13.37677,-29.09844 29.87786,-29.09844 16.50109,0 29.87786,13.02782 29.87786,29.09844 z"
       sodipodi:cx="732.82599"
       sodipodi:cy="323.92926"
       sodipodi:rx="29.877861"
       sodipodi:ry="29.098438"
       transform="translate(-378.80721,-71.720835)" />
    <ellipse
       transform="translate(-337.39095,42.426404)"
       sodipodi:ry="29.098438"
       sodipodi:rx="29.877861"
       sodipodi:cy="323.92926"
       sodipodi:cx="732.82599"
       d="m 762.70385,323.92926 c 0,16.07062 -13.37677,29.09844 -29.87786,29.09844 -16.50109,0 -29.87786,-13.02782 -29.87786,-29.09844 0,-16.07062 13.37677,-29.09844 29.87786,-29.09844 16.50109,0 29.87786,13.02782 29.87786,29.09844 z"
       style="opacity:0.97000002;fill:#008080;fill-opacity:1;stroke:#000000;stroke-width:1.54317784;stroke-miterlimit:4;stroke-opacity:1;stroke-dasharray:none;stroke-dashoffset:0"
       id="ellipse3024"
       cx="732.82599"
       cy="323.92926"
       rx="29.877861"
       ry="29.098438" />
    <ellipse
       ry="29.098438"
       rx="29.877861"
       cy="323.92926"
       cx="732.82599"
       id="ellipse3026"
       style="opacity:0.97000002;fill:#008000;fill-opacity:1;stroke:#000000;stroke-width:1.54317784;stroke-miterlimit:4;stroke-opacity:1;stroke-dasharray:none;stroke-dashoffset:0"
       d="m 762.70385,323.92926 c 0,16.07062 -13.37677,29.09844 -29.87786,29.09844 -16.50109,0 -29.87786,-13.02782 -29.87786,-29.09844 0,-16.07062 13.37677,-29.09844 29.87786,-29.09844 16.50109,0 29.87786,13.02782 29.87786,29.09844 z"
       sodipodi:cx="732.82599"
       sodipodi:cy="323.92926"
       sodipodi:rx="29.877861"
       sodipodi:ry="29.098438"
       transform="translate(-157.64471,81.700524)" />
    <ellipse
       ry="29.098438"
       rx="29.877861"
       cy="323.92926"
       cx="732.82599"
       id="ellipse3030"
       style="opacity:0.97000002;fill:#008000;fill-opacity:1;stroke:#000000;stroke-width:1.54317784;stroke-miterlimit:4;stroke-opacity:1;stroke-dasharray:none;stroke-dashoffset:0"
       d="m 762.70385,323.92926 c 0,16.07062 -13.37677,29.09844 -29.87786,29.09844 -16.50109,0 -29.87786,-13.02782 -29.87786,-29.09844 0,-16.07062 13.37677,-29.09844 29.87786,-29.09844 16.50109,0 29.87786,13.02782 29.87786,29.09844 z"
       sodipodi:cx="732.82599"
       sodipodi:cy="323.92926"
       sodipodi:rx="29.877861"
       sodipodi:ry="29.098438"
       transform="translate(-187.88837,233.34524)" />
    <ellipse
       transform="translate(5.0507665,72.73099)"
       sodipodi:ry="29.098438"
       sodipodi:rx="29.877861"
       sodipodi:cy="323.92926"
       sodipodi:cx="732.82599"
       d="m 762.70385,323.92926 c 0,16.07062 -13.37677,29.09844 -29.87786,29.09844 -16.50109,0 -29.87786,-13.02782 -29.87786,-29.09844 0,-16.07062 13.37677,-29.09844 29.87786,-29.09844 16.50109,0 29.87786,13.02782 29.87786,29.09844 z"
       style="opacity:0.97000002;fill:#008000;fill-opacity:1;stroke:#000000;stroke-width:1.54317784;stroke-miterlimit:4;stroke-opacity:1;stroke-dasharray:none;stroke-dashoffset:0"
       id="ellipse3032"
       cx="732.82599"
       cy="323.92926"
       rx="29.877861"
       ry="29.098438" />
    <ellipse
       transform="translate(205.06098,143.44167)"
       sodipodi:ry="29.098438"
       sodipodi:rx="29.877861"
       sodipodi:cy="323.92926"
       sodipodi:cx="732.82599"
       d="m 762.70385,323.92926 c 0,16.07062 -13.37677,29.09844 -29.87786,29.09844 -16.50109,0 -29.87786,-13.02782 -29.87786,-29.09844 0,-16.07062 13.37677,-29.09844 29.87786,-29.09844 16.50109,0 29.87786,13.02782 29.87786,29.09844 z"
       style="opacity:0.97000002;fill:#008000;fill-opacity:1;stroke:#000000;stroke-width:1.54317784;stroke-miterlimit:4;stroke-opacity:1;stroke-dasharray:none;stroke-dashoffset:0"
       id="ellipse3036"
       cx="732.82599"
       cy="323.92926"
       rx="29.877861"
       ry="29.098438" />
    <ellipse
       ry="29.098438"
       rx="29.877861"
       cy="323.92926"
       cx="732.82599"
       id="ellipse3038"
       style="opacity:0.97000002;fill:#008000;fill-opacity:1;stroke:#000000;stroke-width:1.54317784;stroke-miterlimit:4;stroke-opacity:1;stroke-dasharray:none;stroke-dashoffset:0"
       d="m 762.70385,323.92926 c 0,16.07062 -13.37677,29.09844 -29.87786,29.09844 -16.50109,0 -29.87786,-13.02782 -29.87786,-29.09844 0,-16.07062 13.37677,-29.09844 29.87786,-29.09844 16.50109,0 29.87786,13.02782 29.87786,29.09844 z"
       sodipodi:cx="732.82599"
       sodipodi:cy="323.92926"
       sodipodi:rx="29.877861"
       sodipodi:ry="29.098438"
       transform="translate(-411.13208,159.6041)" />
    <ellipse
       ry="29.098438"
       rx="29.877861"
       cy="323.92926"
       cx="732.82599"
       id="ellipse3042"
       style="opacity:0.97000002;fill:#008080;fill-opacity:1;stroke:#000000;stroke-width:1.54317784;stroke-miterlimit:4;stroke-opacity:1;stroke-dasharray:none;stroke-dashoffset:0"
       d="m 762.70385,323.92926 c 0,16.07062 -13.37677,29.09844 -29.87786,29.09844 -16.50109,0 -29.87786,-13.02782 -29.87786,-29.09844 0,-16.07062 13.37677,-29.09844 29.87786,-29.09844 16.50109,0 29.87786,13.02782 29.87786,29.09844 z"
       sodipodi:cx="732.82599"
       sodipodi:cy="323.92926"
       sodipodi:rx="29.877861"
       sodipodi:ry="29.098438"
       transform="translate(-265.67012,139.40105)" />
    <ellipse
       transform="translate(-77.781743,164.65486)"
       sodipodi:ry="29.098438"
       sodipodi:rx="29.877861"
       sodipodi:cy="323.92926"
       sodipodi:cx="732.82599"
       d="m 762.70385,323.92926 c 0,16.07062 -13.37677,29.09844 -29.87786,29.09844 -16.50109,0 -29.87786,-13.02782 -29.87786,-29.09844 0,-16.07062 13.37677,-29.09844 29.87786,-29.09844 16.50109,0 29.87786,13.02782 29.87786,29.09844 z"
       style="opacity:0.97000002;fill:#008080;fill-opacity:1;stroke:#000000;stroke-width:1.54317784;stroke-miterlimit:4;stroke-opacity:1;stroke-dasharray:none;stroke-dashoffset:0"
       id="ellipse3044"
       cx="732.82599"
       cy="323.92926"
       rx="29.877861"
       ry="29.098438" />
    <ellipse
       ry="29.098438"
       rx="29.877861"
       cy="323.92926"
       cx="732.82599"
       id="ellipse3046"
       style="opacity:0.97000002;fill:#008080;fill-opacity:1;stroke:#000000;stroke-width:1.54317784;stroke-miterlimit:4;stroke-opacity:1;stroke-dasharray:none;stroke-dashoffset:0"
       d="m 762.70385,323.92926 c 0,16.07062 -13.37677,29.09844 -29.87786,29.09844 -16.50109,0 -29.87786,-13.02782 -29.87786,-29.09844 0,-16.07062 13.37677,-29.09844 29.87786,-29.09844 16.50109,0 29.87786,13.02782 29.87786,29.09844 z"
       sodipodi:cx="732.82599"
       sodipodi:cy="323.92926"
       sodipodi:rx="29.877861"
       sodipodi:ry="29.098438"
       transform="translate(-124.24876,-25.253823)" />
    <ellipse
       transform="translate(105.05587,70.710676)"
       sodipodi:ry="29.098438"
       sodipodi:rx="29.877861"
       sodipodi:cy="323.92926"
       sodipodi:cx="732.82599"
       d="m 762.70385,323.92926 c 0,16.07062 -13.37677,29.09844 -29.87786,29.09844 -16.50109,0 -29.87786,-13.02782 -29.87786,-29.09844 0,-16.07062 13.37677,-29.09844 29.87786,-29.09844 16.50109,0 29.87786,13.02782 29.87786,29.09844 z"
       style="opacity:0.97000002;fill:#008080;fill-opacity:1;stroke:#000000;stroke-width:1.54317784;stroke-miterlimit:4;stroke-opacity:1;stroke-dasharray:none;stroke-dashoffset:0"
       id="ellipse3048"
       cx="732.82599"
       cy="323.92926"
       rx="29.877861"
       ry="29.098438" />
    <ellipse
       ry="29.098438"
       rx="29.877861"
       cy="323.92926"
       cx="732.82599"
       id="ellipse3050"
       style="opacity:0.97000002;fill:#008080;fill-opacity:1;stroke:#000000;stroke-width:1.54317784;stroke-miterlimit:4;stroke-opacity:1;stroke-dasharray:none;stroke-dashoffset:0"
       d="m 762.70385,323.92926 c 0,16.07062 -13.37677,29.09844 -29.87786,29.09844 -16.50109,0 -29.87786,-13.02782 -29.87786,-29.09844 0,-16.07062 13.37677,-29.09844 29.87786,-29.09844 16.50109,0 29.87786,13.02782 29.87786,29.09844 z"
       sodipodi:cx="732.82599"
       sodipodi:cy="323.92926"
       sodipodi:rx="29.877861"
       sodipodi:ry="29.098438"
       transform="translate(6.0609185,-43.436564)" />
    <ellipse
       transform="translate(-218.19295,-67.680225)"
       sodipodi:ry="29.098438"
       sodipodi:rx="29.877861"
       sodipodi:cy="323.92926"
       sodipodi:cx="732.82599"
       d="m 762.70385,323.92926 c 0,16.07062 -13.37677,29.09844 -29.87786,29.09844 -16.50109,0 -29.87786,-13.02782 -29.87786,-29.09844 0,-16.07062 13.37677,-29.09844 29.87786,-29.09844 16.50109,0 29.87786,13.02782 29.87786,29.09844 z"
       style="opacity:0.97000002;fill:#008000;fill-opacity:1;stroke:#000000;stroke-width:1.54317784;stroke-miterlimit:4;stroke-opacity:1;stroke-dasharray:none;stroke-dashoffset:0"
       id="ellipse3052"
       cx="732.82599"
       cy="323.92926"
       rx="29.877861"
       ry="29.098438" />
    <ellipse
       ry="29.098438"
       rx="29.877861"
       cy="323.92926"
       cx="732.82599"
       id="ellipse3054"
       style="opacity:0.97000002;fill:#008000;fill-opacity:1;stroke:#000000;stroke-width:1.54317784;stroke-miterlimit:4;stroke-opacity:1;stroke-dasharray:none;stroke-dashoffset:0"
       d="m 762.70385,323.92926 c 0,16.07062 -13.37677,29.09844 -29.87786,29.09844 -16.50109,0 -29.87786,-13.02782 -29.87786,-29.09844 0,-16.07062 13.37677,-29.09844 29.87786,-29.09844 16.50109,0 29.87786,13.02782 29.87786,29.09844 z"
       sodipodi:cx="732.82599"
       sodipodi:cy="323.92926"
       sodipodi:rx="29.877861"
       sodipodi:ry="29.098438"
       transform="translate(92.934036,199.00006)" />
    <g
       id="g3844"
       transform="translate(-227.28433,5.0507628)">
      <ellipse
         ry="29.098438"
         rx="29.877861"
         cy="323.92926"
         cx="732.82599"
         id="ellipse3056"
         style="opacity:0.97000002;fill:#008080;fill-opacity:1;stroke:#000000;stroke-width:1.54317784;stroke-miterlimit:4;stroke-opacity:1;stroke-dasharray:none;stroke-dashoffset:0"
         d="m 762.70385,323.92926 c 0,16.07062 -13.37677,29.09844 -29.87786,29.09844 -16.50109,0 -29.87786,-13.02782 -29.87786,-29.09844 0,-16.07062 13.37677,-29.09844 29.87786,-29.09844 16.50109,0 29.87786,13.02782 29.87786,29.09844 z"
         sodipodi:cx="732.82599"
         sodipodi:cy="323.92926"
         sodipodi:rx="29.877861"
         sodipodi:ry="29.098438"
         transform="translate(345.47218,-95.964493)" />
      <ellipse
         transform="translate(345.47218,-30.203049)"
         sodipodi:ry="29.098438"
         sodipodi:rx="29.877861"
         sodipodi:cy="323.92926"
         sodipodi:cx="732.82599"
         d="m 762.70385,323.92926 c 0,16.07062 -13.37677,29.09844 -29.87786,29.09844 -16.50109,0 -29.87786,-13.02782 -29.87786,-29.09844 0,-16.07062 13.37677,-29.09844 29.87786,-29.09844 16.50109,0 29.87786,13.02782 29.87786,29.09844 z"
         style="opacity:0.97000002;fill:#008000;fill-opacity:1;stroke:#000000;stroke-width:1.54317784;stroke-miterlimit:4;stroke-opacity:1;stroke-dasharray:none;stroke-dashoffset:0"
         id="ellipse3058"
         cx="732.82599"
         cy="323.92926"
         rx="29.877861"
         ry="29.098438" />
      <rect
         y="189.61371"
         x="1042.0157"
         height="139.26404"
         width="246.687"
         id="rect3060"
         style="fill:none;stroke:#000000;stroke-width:0.80448961" />
      <text
         sodipodi:linespacing="125%"
         id="text3836"
         y="236.55376"
         x="1122.6691"
         style="font-size:24px;font-style:normal;font-variant:normal;font-weight:normal;font-stretch:normal;text-align:start;line-height:125%;letter-spacing:0px;word-spacing:0px;writing-mode:lr-tb;text-anchor:start;fill:#000000;fill-opacity:1;stroke:none;font-family:Latin Modern Mono;-inkscape-font-specification:Latin Modern Mono"
         xml:space="preserve"><tspan
           style="font-family:Latin Modern Roman;-inkscape-font-specification:Latin Modern Roman"
           y="236.55376"
           x="1122.6691"
           id="tspan3838"
           sodipodi:role="line">Roteador mesh</tspan></text>
      <text
         sodipodi:linespacing="125%"
         id="text3840"
         y="302.21365"
         x="1122.2371"
         style="font-size:24px;font-style:normal;font-variant:normal;font-weight:normal;font-stretch:normal;text-align:start;line-height:125%;letter-spacing:0px;word-spacing:0px;writing-mode:lr-tb;text-anchor:start;fill:#000000;fill-opacity:1;stroke:none;font-family:Latin Modern Mono;-inkscape-font-specification:Latin Modern Mono"
         xml:space="preserve"><tspan
           style="font-family:Latin Modern Roman;-inkscape-font-specification:Latin Modern Roman"
           y="302.21365"
           x="1122.2371"
           id="tspan3842"
           sodipodi:role="line">Cliente mesh</tspan></text>
    </g>
    <path
       style="fill:none;stroke:#000000;stroke-width:2;stroke-linecap:butt;stroke-linejoin:miter;stroke-miterlimit:4;stroke-opacity:1;stroke-dasharray:none"
       d="M 565.09641,183.33829 504.66054,113.65204"
       id="path3853"
       inkscape:connector-type="polyline"
       inkscape:connector-curvature="0"
       inkscape:connection-start="#ellipse3048"
       inkscape:connection-start-point="d4"
       inkscape:connection-end="#ellipse3050"
       inkscape:connection-end-point="d4"
       transform="translate(253.50591,189.07115)" />
    <path
       style="fill:none;stroke:#000000;stroke-width:2;stroke-linecap:butt;stroke-linejoin:miter;stroke-miterlimit:4;stroke-opacity:1;stroke-dasharray:none"
       d="M 455.80139,95.548933 384.65093,105.4769"
       id="path3855"
       inkscape:connector-type="polyline"
       inkscape:connector-curvature="0"
       inkscape:connection-start="#ellipse3050"
       inkscape:connection-start-point="d4"
       inkscape:connection-end="#ellipse3046"
       inkscape:connection-end-point="d4"
       transform="translate(253.50591,189.07115)" />
    <path
       style="fill:none;stroke:#000000;stroke-width:2;stroke-linecap:butt;stroke-linejoin:miter;stroke-miterlimit:4;stroke-opacity:1;stroke-dasharray:none"
       d="M 326.65749,118.62669 170.34296,168.26211"
       id="path3857"
       inkscape:connector-type="polyline"
       inkscape:connector-curvature="0"
       inkscape:connection-start="#ellipse3046"
       inkscape:connection-start-point="d4"
       inkscape:connection-end="#ellipse3024"
       inkscape:connection-end-point="d4"
       transform="translate(253.50591,189.07115)" />
    <path
       style="fill:none;stroke:#000000;stroke-width:2;stroke-linecap:butt;stroke-linejoin:miter;stroke-miterlimit:4;stroke-opacity:1;stroke-dasharray:none"
       d="m 159.39282,200.8974 36.79344,49.74888"
       id="path3859"
       inkscape:connector-type="polyline"
       inkscape:connector-curvature="0"
       inkscape:connection-start="#ellipse3024"
       inkscape:connection-start-point="d4"
       inkscape:connection-end="#ellipse3042"
       inkscape:connection-end-point="d4"
       transform="translate(253.50591,189.07115)" />
    <path
       style="fill:none;stroke:#000000;stroke-width:2;stroke-linecap:butt;stroke-linejoin:miter;stroke-miterlimit:4;stroke-opacity:1;stroke-dasharray:none"
       d="m 243.25086,278.23777 128.68658,17.29659"
       id="path3861"
       inkscape:connector-type="polyline"
       inkscape:connector-curvature="0"
       inkscape:connection-start="#ellipse3042"
       inkscape:connection-start-point="d4"
       inkscape:connection-end="#ellipse3044"
       inkscape:connection-end-point="d4"
       transform="translate(253.50591,189.07115)" />
    <path
       style="fill:none;stroke:#000000;stroke-width:2;stroke-linecap:butt;stroke-linejoin:miter;stroke-miterlimit:4;stroke-opacity:1;stroke-dasharray:none"
       d="m 427.96938,285.93238 129.97552,-66.783"
       id="path3863"
       inkscape:connector-type="polyline"
       inkscape:connector-curvature="0"
       inkscape:connection-start="#ellipse3044"
       inkscape:connection-start-point="d4"
       inkscape:connection-end="#ellipse3048"
       inkscape:connection-end-point="d4"
       transform="translate(253.50591,189.07115)" />
    <path
       style="fill:none;stroke:#000000;stroke-width:2;stroke-linecap:butt;stroke-linejoin:miter;stroke-miterlimit:4;stroke-opacity:1;stroke-dasharray:none"
       d="M 474.46413,118.51641 412.4552,272.4181"
       id="path3865"
       inkscape:connector-type="polyline"
       inkscape:connector-curvature="0"
       inkscape:connection-start="#ellipse3050"
       inkscape:connection-start-point="d4"
       inkscape:connection-end="#ellipse3044"
       inkscape:connection-end-point="d4"
       transform="translate(253.50591,189.07115)" />
    <path
       style="fill:none;stroke:#000000;stroke-width:2;stroke-linecap:butt;stroke-linejoin:miter;stroke-miterlimit:4;stroke-opacity:1;stroke-dasharray:none"
       d="M 394.61086,271.20068 361.99879,137.91657"
       id="path3869"
       inkscape:connector-type="polyline"
       inkscape:connector-curvature="0"
       inkscape:connection-start="#ellipse3044"
       inkscape:connection-start-point="d4"
       inkscape:connection-end="#ellipse3046"
       inkscape:connection-end-point="d4"
       transform="translate(253.50591,189.07115)" />
    <path
       style="fill:none;stroke:#000000;stroke-width:2;stroke-linecap:butt;stroke-linejoin:miter;stroke-miterlimit:4;stroke-opacity:1;stroke-dasharray:none"
       d="M 335.90086,131.92418 232.82041,251.93927"
       id="path3871"
       inkscape:connector-type="polyline"
       inkscape:connector-curvature="0"
       inkscape:connection-start="#ellipse3046"
       inkscape:connection-start-point="d4"
       inkscape:connection-end="#ellipse3042"
       inkscape:connection-end-point="d4"
       transform="translate(253.50591,189.07115)" />
    <path
       style="fill:none;stroke:#000000;stroke-width:2.00000004;stroke-linecap:butt;stroke-linejoin:miter;stroke-opacity:1;stroke-miterlimit:4;stroke-dasharray:16.00000029,16.00000029;stroke-dashoffset:0"
       d="m 342.11152,237.78583 38.99067,40.49994"
       id="path3873"
       inkscape:connector-type="polyline"
       inkscape:connector-curvature="0"
       inkscape:connection-start="#ellipse3026"
       inkscape:connection-start-point="d4"
       inkscape:connection-end="#ellipse3044"
       inkscape:connection-end-point="d4"
       transform="translate(253.50591,189.07115)" />
    <path
       style="fill:none;stroke:#000000;stroke-width:2.00000004;stroke-linecap:butt;stroke-linejoin:miter;stroke-opacity:1;stroke-miterlimit:4;stroke-dasharray:16.00000029,16.00000029;stroke-dashoffset:0"
       d="m 316.59363,352.506 59.78279,-37.29568"
       id="path3875"
       inkscape:connector-type="polyline"
       inkscape:connector-curvature="0"
       inkscape:connection-start="#ellipse3030"
       inkscape:connection-start-point="d4"
       inkscape:connection-end="#ellipse3044"
       inkscape:connection-end-point="d4"
       transform="translate(253.50591,189.07115)" />
    <path
       style="fill:none;stroke:#000000;stroke-width:2.00000004;stroke-linecap:butt;stroke-linejoin:miter;stroke-opacity:1;stroke-miterlimit:4;stroke-dasharray:16.00000029,16.00000029;stroke-dashoffset:0"
       d="M 97.770333,290.35355 184.06762,278.36782"
       id="path3877"
       inkscape:connector-type="polyline"
       inkscape:connector-curvature="0"
       inkscape:connection-start="#ellipse3038"
       inkscape:connection-start-point="d4"
       inkscape:connection-end="#ellipse3042"
       inkscape:connection-end-point="d4"
       transform="translate(253.50591,189.07115)" />
    <path
       style="fill:none;stroke:#000000;stroke-width:2.00000004;stroke-linecap:butt;stroke-linejoin:miter;stroke-opacity:1;stroke-miterlimit:4;stroke-dasharray:16.00000029,16.00000029;stroke-dashoffset:0"
       d="M 110.47019,90.580632 131.9718,149.84116"
       id="path3879"
       inkscape:connector-type="polyline"
       inkscape:connector-curvature="0"
       inkscape:connection-start="#ellipse4240"
       inkscape:connection-start-point="d4"
       inkscape:connection-end="#ellipse3024"
       inkscape:connection-end-point="d4"
       transform="translate(253.50591,189.07115)" />
    <path
       style="fill:none;stroke:#000000;stroke-width:2.00000004;stroke-linecap:butt;stroke-linejoin:miter;stroke-opacity:1;stroke-miterlimit:4;stroke-dasharray:16.00000029,16.00000029;stroke-dashoffset:0"
       d="m 288.23908,79.42199 39.72029,17.938193"
       id="path3881"
       inkscape:connector-type="polyline"
       inkscape:connector-curvature="0"
       inkscape:connection-start="#ellipse3052"
       inkscape:connection-start-point="d4"
       inkscape:connection-end="#ellipse3046"
       inkscape:connection-end-point="d4"
       transform="translate(253.50591,189.07115)" />
    <path
       style="fill:none;stroke:#000000;stroke-width:2.00000004;stroke-linecap:butt;stroke-linejoin:miter;stroke-opacity:1;stroke-miterlimit:4;stroke-dasharray:16.00000029,16.00000029;stroke-dashoffset:0"
       d="m 484.62387,178.49168 0.50411,-57.97272"
       id="path3883"
       inkscape:connector-type="polyline"
       inkscape:connector-curvature="0"
       inkscape:connection-start="#ellipse3032"
       inkscape:connection-start-point="d4"
       inkscape:connection-end="#ellipse3050"
       inkscape:connection-end-point="d4"
       transform="translate(253.50591,189.07115)" />
    <path
       style="fill:none;stroke:#000000;stroke-width:2.00000004;stroke-linecap:butt;stroke-linejoin:miter;stroke-opacity:1;stroke-miterlimit:4;stroke-dasharray:16.00000029,16.00000029;stroke-dashoffset:0"
       d="m 581.63788,234.54667 -6.6457,70.33362"
       id="path3887"
       inkscape:connector-type="polyline"
       inkscape:connector-curvature="0"
       inkscape:connection-start="#ellipse3048"
       inkscape:connection-start-point="d4"
       inkscape:connection-end="#ellipse3054"
       inkscape:connection-end-point="d4"
       transform="translate(253.50591,189.07115)" />
    <path
       style="fill:none;stroke:#000000;stroke-width:2.00000004;stroke-linecap:butt;stroke-linejoin:miter;stroke-opacity:1;stroke-miterlimit:4;stroke-dasharray:16.00000029,16.00000029;stroke-dashoffset:0"
       d="M 660.44007,260.88815 608.31693,222.98041"
       id="path3889"
       inkscape:connector-type="polyline"
       inkscape:connector-curvature="0"
       inkscape:connection-start="#ellipse3036"
       inkscape:connection-start-point="d4"
       inkscape:connection-end="#ellipse3048"
       inkscape:connection-end-point="d4"
       transform="translate(253.50591,189.07115)" />
  </g>
</svg>
