<?xml version="1.0" encoding="UTF-8" standalone="no"?>
<svg
   xmlns:dc="http://purl.org/dc/elements/1.1/"
   xmlns:cc="http://creativecommons.org/ns#"
   xmlns:rdf="http://www.w3.org/1999/02/22-rdf-syntax-ns#"
   xmlns:svg="http://www.w3.org/2000/svg"
   xmlns="http://www.w3.org/2000/svg"
   viewBox="0 0 883.99996 422"
   height="422"
   width="884"
   xml:space="preserve"
   id="svg2"
   version="1.1"><metadata
     id="metadata8"><rdf:RDF><cc:Work
         rdf:about=""><dc:format>image/svg+xml</dc:format><dc:type
           rdf:resource="http://purl.org/dc/dcmitype/StillImage" /><dc:title></dc:title></cc:Work></rdf:RDF></metadata><defs
     id="defs6"><clipPath
       id="clipPath20"
       clipPathUnits="userSpaceOnUse"><path
         id="path18"
         d="M -2,-2 H 884 V 422 H -2 Z" /></clipPath></defs><g
     transform="matrix(1.3333333,0,0,-1.3333333,-119.33333,722.33332)"
     id="g10"><g
       transform="matrix(1,0,0,-1,0,595)"
       id="g12"><g
         transform="matrix(0.75,0,0,0.75,90.250002,54)"
         id="g14"><g
           clip-path="url(#clipPath20)"
           id="g16"><path
             id="path22"
             style="fill:#ffffff;fill-opacity:1;fill-rule:nonzero;stroke:none"
             d="m 388,400 h 495 v 21 H 388 Z" /><path
             id="path24"
             style="fill:#004f4c;fill-opacity:1;fill-rule:nonzero;stroke:none"
             d="M -1,-1 H 883 V 22 H -1 Z" /><path
             id="path26"
             style="fill:#ffffff;fill-opacity:1;fill-rule:nonzero;stroke:none"
             d="M -1,21 H 883 V 43 H -1 Z" /><path
             id="path28"
             style="fill:#f3f3f3;fill-opacity:1;fill-rule:nonzero;stroke:none"
             d="M -1,42 H 883 V 64 H -1 Z" /><path
             id="path30"
             style="fill:#ffffff;fill-opacity:1;fill-rule:nonzero;stroke:none"
             d="M -1,63 H 883 V 85 H -1 Z" /><path
             id="path32"
             style="fill:#f3f3f3;fill-opacity:1;fill-rule:nonzero;stroke:none"
             d="m -1,84 h 884 v 22 H -1 Z" /><path
             id="path34"
             style="fill:#ffffff;fill-opacity:1;fill-rule:nonzero;stroke:none"
             d="m -1,105 h 884 v 22 H -1 Z" /><path
             id="path36"
             style="fill:#f3f3f3;fill-opacity:1;fill-rule:nonzero;stroke:none"
             d="m -1,126 h 884 v 22 H -1 Z" /><path
             id="path38"
             style="fill:#ffffff;fill-opacity:1;fill-rule:nonzero;stroke:none"
             d="m -1,147 h 884 v 22 H -1 Z" /><path
             id="path40"
             style="fill:#f3f3f3;fill-opacity:1;fill-rule:nonzero;stroke:none"
             d="m -1,168 h 884 v 22 H -1 Z" /><path
             id="path42"
             style="fill:#ffffff;fill-opacity:1;fill-rule:nonzero;stroke:none"
             d="m -1,189 h 884 v 22 H -1 Z" /><path
             id="path44"
             style="fill:#f3f3f3;fill-opacity:1;fill-rule:nonzero;stroke:none"
             d="m -1,210 h 884 v 22 H -1 Z" /><path
             id="path46"
             style="fill:#ffffff;fill-opacity:1;fill-rule:nonzero;stroke:none"
             d="m -1,231 h 884 v 22 H -1 Z" /><path
             id="path48"
             style="fill:#f3f3f3;fill-opacity:1;fill-rule:nonzero;stroke:none"
             d="m -1,252 h 884 v 22 H -1 Z" /><path
             id="path50"
             style="fill:#ffffff;fill-opacity:1;fill-rule:nonzero;stroke:none"
             d="m -1,273 h 884 v 22 H -1 Z" /><path
             id="path52"
             style="fill:#f3f3f3;fill-opacity:1;fill-rule:nonzero;stroke:none"
             d="m -1,294 h 884 v 22 H -1 Z" /><path
             id="path54"
             style="fill:#ffffff;fill-opacity:1;fill-rule:nonzero;stroke:none"
             d="m -1,315 h 884 v 22 H -1 Z" /><path
             id="path56"
             style="fill:#f3f3f3;fill-opacity:1;fill-rule:nonzero;stroke:none"
             d="m -1,336 h 884 v 22 H -1 Z" /><path
             id="path58"
             style="fill:#ffffff;fill-opacity:1;fill-rule:nonzero;stroke:none"
             d="m -1,357 h 884 v 22 H -1 Z" /><path
             id="path60"
             style="fill:#f3f3f3;fill-opacity:1;fill-rule:nonzero;stroke:none"
             d="m -1,378 h 884 v 22 H -1 Z" /><path
             id="path62"
             style="fill:#ffffff;fill-opacity:1;fill-rule:nonzero;stroke:none"
             d="m -1,399 h 389 v 22 H -1 Z" /><g
             id="g64"><path
               id="path66"
               style="fill:#000000;fill-opacity:0.14901961;fill-rule:nonzero;stroke:none"
               d="M 0,0 V 0 21 H -1 V 0 Z M 52,0 V 0 21 H 51 V 0 Z m 0,22 v 0 20 H 51 V 22 Z m 0,21 v 0 20 H 51 V 43 Z m 0,21 v 0 20 H 51 V 64 Z m 0,21 v 0 20 H 51 V 85 Z m 0,21 v 0 20 h -1 v -20 z m 0,21 v 0 20 h -1 v -20 z m 0,21 v 0 20 h -1 v -20 z m 0,21 v 0 20 h -1 v -20 z m 0,21 v 0 20 h -1 v -20 z m 0,21 v 0 20 h -1 v -20 z m 0,21 v 0 20 h -1 v -20 z m 0,21 v 0 20 h -1 v -20 z m 0,21 v 0 20 h -1 v -20 z m 0,21 v 0 20 h -1 v -20 z m 0,21 v 0 20 h -1 v -20 z m 0,21 v 0 20 h -1 v -20 z m 0,21 v 0 20 h -1 v -20 z m 0,21 v 0 20 h -1 v -20 z m 0,21 v 0 20 H 51 V 400 Z M 388,0 v 0 21 h -1 V 0 Z M 0,42 v 0 h 387 v 1 H 0 Z m 0,21 v 0 h 387 v 1 H 0 Z m 0,21 v 0 h 387 v 1 H 0 Z m 0,21 v 0 h 387 v 1 H 0 Z m 0,21 v 0 h 387 v 1 H 0 Z m 0,21 v 0 h 387 v 1 H 0 Z m 0,21 v 0 h 387 v 1 H 0 Z m 0,21 v 0 h 387 v 1 H 0 Z m 0,21 v 0 h 387 v 1 H 0 Z m 0,21 v 0 h 387 v 1 H 0 Z m 0,21 v 0 h 387 v 1 H 0 Z m 0,21 v 0 h 387 v 1 H 0 Z m 0,21 v 0 h 387 v 1 H 0 Z m 0,21 v 0 h 387 v 1 H 0 Z m 0,21 v 0 h 387 v 1 H 0 Z m 0,21 v 0 h 387 v 1 H 0 Z m 0,21 v 0 h 387 v 1 H 0 Z m 0,21 v 0 h 387 v 1 H 0 Z M 444,0 v 0 21 h -1 V 0 Z m 0,22 v 0 20 h -1 V 22 Z m 0,21 v 0 20 h -1 V 43 Z m 0,21 v 0 20 h -1 V 64 Z m 0,21 v 0 20 h -1 V 85 Z m 0,21 v 0 20 h -1 v -20 z m 0,21 v 0 20 h -1 v -20 z m 0,21 v 0 20 h -1 v -20 z m 0,21 v 0 20 h -1 v -20 z m 0,21 v 0 20 h -1 v -20 z m 0,21 v 0 20 h -1 v -20 z m 0,21 v 0 20 h -1 v -20 z m 0,21 v 0 20 h -1 v -20 z m 0,21 v 0 20 h -1 v -20 z m 0,21 v 0 20 h -1 v -20 z m 0,21 v 0 20 h -1 v -20 z m 0,21 v 0 20 h -1 v -20 z m 0,21 v 0 20 h -1 v -20 z m 0,21 v 0 20 h -1 v -20 z m 0,21 v 0 20 h -1 V 400 Z M 883,0 v 0 21 h -1 V 0 Z M 388,42 v 0 h 494 v 1 H 388 Z m 0,21 v 0 h 494 v 1 H 388 Z m 0,21 v 0 h 494 v 1 H 388 Z m 0,21 v 0 h 494 v 1 H 388 Z m 0,21 v 0 h 494 v 1 H 388 Z m 0,21 v 0 h 494 v 1 H 388 Z m 0,21 v 0 h 494 v 1 H 388 Z m 0,21 v 0 h 494 v 1 H 388 Z m 0,21 v 0 h 494 v 1 H 388 Z m 0,21 v 0 h 494 v 1 H 388 Z m 0,21 v 0 h 494 v 1 H 388 Z m 0,21 v 0 h 494 v 1 H 388 Z m 0,21 v 0 h 494 v 1 H 388 Z m 0,21 v 0 h 494 v 1 H 388 Z m 0,21 v 0 h 494 v 1 H 388 Z m 0,21 v 0 h 494 v 1 H 388 Z m 0,21 v 0 h 494 v 1 H 388 Z m 0,21 v 0 h 494 v 1 H 388 Z M -1,-1 v 0 H 883 V 0 H -1 Z" /></g><path
             id="path68"
             style="fill:none;stroke:#000000;stroke-width:1;stroke-linecap:butt;stroke-linejoin:miter;stroke-miterlimit:10;stroke-dasharray:none;stroke-opacity:1"
             d="M -0.5,21 V 421 M 387.5,21 V 421 M -1,21.5 H 883 M -1,420.5 H 883 M 882.5,21 v 400" /><text
             id="text72"
             style="font-variant:normal;font-weight:normal;font-size:14.29999924px;font-family:Lato;-inkscape-font-specification:Lato-Regular;writing-mode:lr-tb;fill:#ffffff;fill-opacity:1;fill-rule:nonzero;stroke:none"
             transform="translate(9,15.111147)"><tspan
               id="tspan70"
               y="0"
               x="0 10.7679 18.018 23.351898">Data</tspan></text>
<text
             id="text76"
             style="font-variant:normal;font-weight:normal;font-size:14.29999924px;font-family:Lato;-inkscape-font-specification:Lato-Regular;writing-mode:lr-tb;fill:#ffffff;fill-opacity:1;fill-rule:nonzero;stroke:none"
             transform="translate(193,15.111147)"><tspan
               id="tspan74"
               y="0"
               x="0 9.723999 15.930199 22.136398 30.087198 38.037998 43.371899">Assunto</tspan></text>
<text
             id="text80"
             style="font-variant:normal;font-weight:normal;font-size:14.29999924px;font-family:Lato;-inkscape-font-specification:Lato-Regular;writing-mode:lr-tb;fill:#ffffff;fill-opacity:1;fill-rule:nonzero;stroke:none"
             transform="translate(399,15.111147)"><tspan
               id="tspan78"
               y="0"
               x="0 10.7679 18.018 23.351898">Data</tspan></text>
<text
             id="text84"
             style="font-variant:normal;font-weight:normal;font-size:14.29999924px;font-family:Lato;-inkscape-font-specification:Lato-Regular;writing-mode:lr-tb;fill:#ffffff;fill-opacity:1;fill-rule:nonzero;stroke:none"
             transform="translate(636,15.111147)"><tspan
               id="tspan82"
               y="0"
               x="0 9.723999 15.930199 22.136398 30.087198 38.037998 43.371899">Assunto</tspan></text>
<text
             id="text88"
             style="font-variant:normal;font-weight:normal;font-size:13px;font-family:Lato;-inkscape-font-specification:Lato-Regular;writing-mode:lr-tb;fill:#000000;fill-opacity:1;fill-rule:nonzero;stroke:none"
             transform="translate(7,37.231)"><tspan
               id="tspan86"
               y="0"
               x="0 7.54 15.08 19.929001 27.469">15/08</tspan></text>
<text
             id="text92"
             style="font-variant:normal;font-weight:normal;font-size:13px;font-family:Lato;-inkscape-font-specification:Lato-Regular;writing-mode:lr-tb;fill:#000000;fill-opacity:1;fill-rule:nonzero;stroke:none"
             transform="translate(55,37.231)"><tspan
               id="tspan90"
               y="0"
               x="0 8.8400002 16.016001 21.254999 28.066999 33.709 40.521 47.749001 52.598 59.188999 65.260002 71.850998 79.079002 81.587997 88.855003 95.445999 97.955002 107.744 111.072 116.714 122.785 126.113 133.289 136.617 139.94501 147.173">Apresentação da Disciplina</tspan></text>
<text
             id="text96"
             style="font-variant:normal;font-weight:normal;font-size:13px;font-family:Lato;-inkscape-font-specification:Lato-Regular;writing-mode:lr-tb;fill:#000000;fill-opacity:1;fill-rule:nonzero;stroke:none"
             transform="translate(397,37.231)"><tspan
               id="tspan94"
               y="0"
               x="0 7.54 15.08 19.929001 27.469">19/10</tspan></text>
<text
             id="text100"
             style="font-variant:normal;font-weight:normal;font-size:13px;font-family:Lato;-inkscape-font-specification:Lato-Regular;writing-mode:lr-tb;fill:#0000ff;fill-opacity:1;fill-rule:nonzero;stroke:none"
             transform="translate(447,37.231)"><tspan
               id="tspan98"
               y="0"
               x="0 9.8280001 16.419001 23.646999 26.156 33.383999 39.974998 46.631001 53.443001 58.681999 65.273003 67.781998 74.373001 81.600998 84.929001 91.519997 94.028999 98.540001 101.049 107.939 114.751 125.424 132.015 139.243 145.834 148.343 157.183 163.254 169.845 177.112 183.924 194.597 197.925 203.996">Não haverá aula - Semana Acadêmica</tspan></text>
<text
             id="text104"
             style="font-variant:normal;font-weight:normal;font-size:13px;font-family:Lato;-inkscape-font-specification:Lato-Regular;writing-mode:lr-tb;fill:#000000;fill-opacity:1;fill-rule:nonzero;stroke:none"
             transform="translate(7,58.231)"><tspan
               id="tspan102"
               y="0"
               x="0 7.54 15.08 19.929001 27.469">17/08</tspan></text>
<text
             id="text108"
             style="font-variant:normal;font-weight:normal;font-size:13px;font-family:Lato;-inkscape-font-specification:Lato-Regular;writing-mode:lr-tb;fill:#000000;fill-opacity:1;fill-rule:nonzero;stroke:none"
             transform="translate(55,58.231)"><tspan
               id="tspan106"
               y="0"
               x="0 8.9049997 15.496 26.169001 32.759998 40.027 46.618 49.126999 56.394001 63.206001 65.714996 73.267998 80.496002 83.823997 90.415001 96.486 103.298 106.574 109.083 113.074 120.302 125.151 130.39 137.618 144.88499 152.11301 158.18401 164.77499 172.00301 174.759 177.26801 186.173 193.401 198.64 203.879 210.69099 216.76199 223.353 230.58099 233.09 240.35699 247.16901 249.67799 257.23099 262.47 267.70901 274.93701">Camada de Enlace: Introdução, Correção de Erros</tspan></text>
<text
             id="text112"
             style="font-variant:normal;font-weight:normal;font-size:13px;font-family:Lato;-inkscape-font-specification:Lato-Regular;writing-mode:lr-tb;fill:#000000;fill-opacity:1;fill-rule:nonzero;stroke:none"
             transform="translate(397,58.231)"><tspan
               id="tspan110"
               y="0"
               x="0 7.54 15.08 19.929001 27.469">24/10</tspan></text>
<text
             id="text116"
             style="font-variant:normal;font-weight:normal;font-size:13px;font-family:Lato;-inkscape-font-specification:Lato-Regular;writing-mode:lr-tb;fill:#ff0000;fill-opacity:1;fill-rule:nonzero;stroke:none"
             transform="translate(447,58.231)"><tspan
               id="tspan114"
               y="0"
               x="0 7.9429998 15.483 17.992001 21.892 30.264 37.076 44.342999 51.154999 56.797001 59.306 66.195999 73.008003 83.681 86.190002 93.547997 96.875999 104.104 106.613 113.425 115.934 127.894 135.12199 142.38901 145.717 149.045 152.373 159.64 166.231 173.498 180.31">P2 (Redes Sem Fio e Mobilidade)</tspan></text>
<text
             id="text120"
             style="font-variant:normal;font-weight:normal;font-size:13px;font-family:Lato;-inkscape-font-specification:Lato-Regular;writing-mode:lr-tb;fill:#000000;fill-opacity:1;fill-rule:nonzero;stroke:none"
             transform="translate(7,79.230995)"><tspan
               id="tspan118"
               y="0"
               x="0 7.54 15.08 19.929001 27.469">22/08</tspan></text>
<text
             id="text124"
             style="font-variant:normal;font-weight:normal;font-size:13px;font-family:Lato;-inkscape-font-specification:Lato-Regular;writing-mode:lr-tb;fill:#000000;fill-opacity:1;fill-rule:nonzero;stroke:none"
             transform="translate(55,79.230995)"><tspan
               id="tspan122"
               y="0"
               x="0 8.9049997 15.496 26.169001 32.759998 40.027 46.618 49.126999 56.394001 63.206001 65.714996 73.267998 80.496002 83.823997 90.415001 96.486 103.298 106.574 109.083 117.923 123.994 130.806 136.448 142.09 149.31799 151.827 163.787 171.015 174.343 179.192 182.52 189.696 193.024">Camada de Enlace: Acesso Múltiplo</tspan></text>
<text
             id="text128"
             style="font-variant:normal;font-weight:normal;font-size:13px;font-family:Lato;-inkscape-font-specification:Lato-Regular;writing-mode:lr-tb;fill:#000000;fill-opacity:1;fill-rule:nonzero;stroke:none"
             transform="translate(397,79.230995)"><tspan
               id="tspan126"
               y="0"
               x="0 7.54 15.08 19.929001 27.469">26/10</tspan></text>
<text
             id="text132"
             style="font-variant:normal;font-weight:normal;font-size:13px;font-family:Lato;-inkscape-font-specification:Lato-Regular;writing-mode:lr-tb;fill:#000000;fill-opacity:1;fill-rule:nonzero;stroke:none"
             transform="translate(447,79.230995)"><tspan
               id="tspan130"
               y="0"
               x="0 11.96 19.188 22.516001 27.365 30.693001 41.366001 44.694 51.960999 55.289001 61.880001 65.155998 67.665001 76.57 86.359001 96.186996 98.943001 101.452 111.28 118.092 122.941 127.322 130.64999 133.978 140.53 143.286 145.795 154.63499 161.86301 165.854">Multimídia: CDN, Netflix, VoIP</tspan></text>
<text
             id="text136"
             style="font-variant:normal;font-weight:normal;font-size:13px;font-family:Lato;-inkscape-font-specification:Lato-Regular;writing-mode:lr-tb;fill:#000000;fill-opacity:1;fill-rule:nonzero;stroke:none"
             transform="translate(7,100.231)"><tspan
               id="tspan134"
               y="0"
               x="0 7.54 15.08 19.929001 27.469">24/08</tspan></text>
<text
             id="text140"
             style="font-variant:normal;font-weight:normal;font-size:13px;font-family:Lato;-inkscape-font-specification:Lato-Regular;writing-mode:lr-tb;fill:#000000;fill-opacity:1;fill-rule:nonzero;stroke:none"
             transform="translate(55,100.231)"><tspan
               id="tspan138"
               y="0"
               x="0 8.9049997 15.496 26.169001 32.759998 40.027 46.618 49.126999 56.394001 63.206001 65.714996 73.267998 80.496002 83.823997 90.415001 96.486 103.298 106.574 109.083 116.636 123.864 131.131 137.94299 143.18201 149.994 156.065 162.65601 173.32899 180.14101 187.369 192.218 199.446 202.202 204.711 213.55099 221.923 229.866 232.62199 235.131 242.68401 247.533 254.761 261.573 266.81201 274.04001 280.85199">Camada de Enlace: Endereçamento, ARP, Ethernet</tspan></text>
<text
             id="text144"
             style="font-variant:normal;font-weight:normal;font-size:13px;font-family:Lato;-inkscape-font-specification:Lato-Regular;writing-mode:lr-tb;fill:#000000;fill-opacity:1;fill-rule:nonzero;stroke:none"
             transform="translate(397,100.231)"><tspan
               id="tspan142"
               y="0"
               x="0 7.54 15.08 19.929001 27.469">31/10</tspan></text>
<text
             id="text148"
             style="font-variant:normal;font-weight:normal;font-size:13px;font-family:Lato;-inkscape-font-specification:Lato-Regular;writing-mode:lr-tb;fill:#000000;fill-opacity:1;fill-rule:nonzero;stroke:none"
             transform="translate(447,100.231)"><tspan
               id="tspan146"
               y="0"
               x="0 11.96 19.188 22.516001 27.365 30.693001 41.366001 44.694 51.960999 55.289001 61.880001 65.155998 67.665001 76.037003 83.707001 91.650002 94.405998 96.915001 105.287 112.957 121.862 129.80499 132.561 135.07001 141.96001 145.951">Multimídia: RTP, RTCP, SIP</tspan></text>
<text
             id="text152"
             style="font-variant:normal;font-weight:normal;font-size:13px;font-family:Lato;-inkscape-font-specification:Lato-Regular;writing-mode:lr-tb;fill:#000000;fill-opacity:1;fill-rule:nonzero;stroke:none"
             transform="translate(7,121.231)"><tspan
               id="tspan150"
               y="0"
               x="0 7.54 15.08 19.929001 27.469">29/08</tspan></text>
<text
             id="text156"
             style="font-variant:normal;font-weight:normal;font-size:13px;font-family:Lato;-inkscape-font-specification:Lato-Regular;writing-mode:lr-tb;fill:#000000;fill-opacity:1;fill-rule:nonzero;stroke:none"
             transform="translate(55,121.231)"><tspan
               id="tspan154"
               y="0"
               x="0 8.9049997 15.496 26.169001 32.759998 40.027 46.618 49.126999 56.394001 63.206001 65.714996 73.267998 80.496002 83.823997 90.415001 96.486 103.298 106.574 109.083 115.973 125.931 129.259 134.108 140.179 147.407 154.21899">Camada de Enlace: Switches</tspan></text>
<text
             id="text160"
             style="font-variant:normal;font-weight:normal;font-size:13px;font-family:Lato;-inkscape-font-specification:Lato-Regular;writing-mode:lr-tb;fill:#000000;fill-opacity:1;fill-rule:nonzero;stroke:none"
             transform="translate(397,121.231)"><tspan
               id="tspan158"
               y="0"
               x="0 7.54 15.08 19.929001 27.469">02/11</tspan></text>
<text
             id="text164"
             style="font-variant:normal;font-weight:normal;font-size:13px;font-family:Lato;-inkscape-font-specification:Lato-Regular;writing-mode:lr-tb;fill:#0000ff;fill-opacity:1;fill-rule:nonzero;stroke:none"
             transform="translate(447,121.231)"><tspan
               id="tspan162"
               y="0"
               x="0 7.3579998 14.17 19.409 22.737 29.327999 36.595001 43.823002 46.332001 50.842999 53.352001 60.709999 64.038002 71.265999 77.857002 85.124001 92.351997">Feriado - Finados</tspan></text>
<text
             id="text168"
             style="font-variant:normal;font-weight:normal;font-size:13px;font-family:Lato;-inkscape-font-specification:Lato-Regular;writing-mode:lr-tb;fill:#000000;fill-opacity:1;fill-rule:nonzero;stroke:none"
             transform="translate(7,142.231)"><tspan
               id="tspan166"
               y="0"
               x="0 7.54 15.08 19.929001 27.469">31/08</tspan></text>
<text
             id="text172"
             style="font-variant:normal;font-weight:normal;font-size:13px;font-family:Lato;-inkscape-font-specification:Lato-Regular;writing-mode:lr-tb;fill:#000000;fill-opacity:1;fill-rule:nonzero;stroke:none"
             transform="translate(55,142.231)"><tspan
               id="tspan170"
               y="0"
               x="0 8.9049997 15.496 26.169001 32.759998 40.027 46.618 49.126999 56.394001 63.206001 65.714996 73.267998 80.496002 83.823997 90.415001 96.486 103.298 106.574 109.083 117.923 124.605 133.44501 143.27299">Camada de Enlace: VLANs</tspan></text>
<text
             id="text176"
             style="font-variant:normal;font-weight:normal;font-size:13px;font-family:Lato;-inkscape-font-specification:Lato-Regular;writing-mode:lr-tb;fill:#000000;fill-opacity:1;fill-rule:nonzero;stroke:none"
             transform="translate(397,142.231)"><tspan
               id="tspan174"
               y="0"
               x="0 7.54 15.08 19.929001 27.469">07/11</tspan></text>
<text
             id="text180"
             style="font-variant:normal;font-weight:normal;font-size:13px;font-family:Lato;-inkscape-font-specification:Lato-Regular;writing-mode:lr-tb;fill:#000000;fill-opacity:1;fill-rule:nonzero;stroke:none"
             transform="translate(447,142.231)"><tspan
               id="tspan178"
               y="0"
               x="0 11.96 19.188 22.516001 27.365 30.693001 41.366001 44.694 51.960999 55.289001 61.880001 65.155998 67.665001 78.039001 85.266998 92.156998 94.913002 97.421997 107.211 110.539 114.92 119.301 126.191 133.00301 138.242">Multimídia: QoS, DiffServ</tspan></text>
<text
             id="text184"
             style="font-variant:normal;font-weight:normal;font-size:13px;font-family:Lato;-inkscape-font-specification:Lato-Regular;writing-mode:lr-tb;fill:#000000;fill-opacity:1;fill-rule:nonzero;stroke:none"
             transform="translate(7,163.231)"><tspan
               id="tspan182"
               y="0"
               x="0 7.54 15.08 19.929001 27.469">05/09</tspan></text>
<text
             id="text188"
             style="font-variant:normal;font-weight:normal;font-size:13px;font-family:Lato;-inkscape-font-specification:Lato-Regular;writing-mode:lr-tb;fill:#000000;fill-opacity:1;fill-rule:nonzero;stroke:none"
             transform="translate(55,163.231)"><tspan
               id="tspan186"
               y="0"
               x="0 8.9049997 15.496 26.169001 32.759998 40.027 46.618 49.126999 56.394001 63.206001 65.714996 73.267998 80.496002 83.823997 90.415001 96.486 103.298 106.574 109.083 121.043 128.98599 135.668">Camada de Enlace: MPLS</tspan></text>
<text
             id="text192"
             style="font-variant:normal;font-weight:normal;font-size:13px;font-family:Lato;-inkscape-font-specification:Lato-Regular;writing-mode:lr-tb;fill:#000000;fill-opacity:1;fill-rule:nonzero;stroke:none"
             transform="translate(397,163.231)"><tspan
               id="tspan190"
               y="0"
               x="0 7.54 15.08 19.929001 27.469">09/11</tspan></text>
<text
             id="text196"
             style="font-variant:normal;font-weight:normal;font-size:13px;font-family:Lato;-inkscape-font-specification:Lato-Regular;writing-mode:lr-tb;fill:#000000;fill-opacity:1;fill-rule:nonzero;stroke:none"
             transform="translate(447,163.231)"><tspan
               id="tspan194"
               y="0"
               x="0 9.5419998 16.354 21.593 28.405001 35.632999 41.703999 45.032001 51.623001 54.898998 57.408001 66.313004 73.541 80.768997 86.839996 93.652 96.980003 101.829 109.057 114.699 117.455 119.964 126.854 136.68201 148.642 156.58501 159.341 161.85001 173.81 177.80099 186.21201">Gerência: Conceitos, SNMP, MIBs</tspan></text>
<text
             id="text200"
             style="font-variant:normal;font-weight:normal;font-size:13px;font-family:Lato;-inkscape-font-specification:Lato-Regular;writing-mode:lr-tb;fill:#000000;fill-opacity:1;fill-rule:nonzero;stroke:none"
             transform="translate(7,184.231)"><tspan
               id="tspan198"
               y="0"
               x="0 7.54 15.08 19.929001 27.469">07/09</tspan></text>
<text
             id="text204"
             style="font-variant:normal;font-weight:normal;font-size:13px;font-family:Lato;-inkscape-font-specification:Lato-Regular;writing-mode:lr-tb;fill:#0000ff;fill-opacity:1;fill-rule:nonzero;stroke:none"
             transform="translate(55,184.231)"><tspan
               id="tspan202"
               y="0"
               x="0 7.3579998 14.17 19.409 22.737 29.327999 36.595001 43.823002 46.332001 50.842999 53.352001 57.342999 64.570999 71.837997 78.650002 85.825996 92.638 99.865997 107.133 113.945 121.173 127.244 130.57201">Feriado - Independência</tspan></text>
<text
             id="text208"
             style="font-variant:normal;font-weight:normal;font-size:13px;font-family:Lato;-inkscape-font-specification:Lato-Regular;writing-mode:lr-tb;fill:#000000;fill-opacity:1;fill-rule:nonzero;stroke:none"
             transform="translate(397,184.231)"><tspan
               id="tspan206"
               y="0"
               x="0 7.54 15.08 19.929001 27.469">14/11</tspan></text>
<text
             id="text212"
             style="font-variant:normal;font-weight:normal;font-size:13px;font-family:Lato;-inkscape-font-specification:Lato-Regular;writing-mode:lr-tb;fill:#ff0000;fill-opacity:1;fill-rule:nonzero;stroke:none"
             transform="translate(447,184.231)"><tspan
               id="tspan210"
               y="0"
               x="0 9.5419998 16.354 21.593 28.405001 35.632999 41.703999 45.032001 51.623001 54.898998 57.408001 66.248001 73.138 82.966003 85.722 93.262001 96.017998 98.527 106.08 112.632 119.444 130.117 137.293 140.621 147.849 153.491 156 163.94299 169.18201 175.77299 180.62199 183.95 190.021 197.24899 202.89101 205.39999 210.24899 212.758 220.701 225.94 232.53101 238.537 245.765 248.274 255.45 262.04099 267.28 273.871 276.38 283.93301 291.16101 296.01001 301.24899 308.061 314.70401 321.29501 323.80399 331.07101 338.29901 340.80801 348.478 353.71701 360.30801 367.57501 374.16599 377.49399 384.72198">Gerência: ASN.1, Exemplos Práticos / Prazo para Entrega do Trabalho</tspan></text>
<text
             id="text216"
             style="font-variant:normal;font-weight:normal;font-size:13px;font-family:Lato;-inkscape-font-specification:Lato-Regular;writing-mode:lr-tb;fill:#000000;fill-opacity:1;fill-rule:nonzero;stroke:none"
             transform="translate(7,205.231)"><tspan
               id="tspan214"
               y="0"
               x="0 7.54 15.08 19.929001 27.469">12/09</tspan></text>
<text
             id="text220"
             style="font-variant:normal;font-weight:normal;font-size:13px;font-family:Lato;-inkscape-font-specification:Lato-Regular;writing-mode:lr-tb;fill:#000000;fill-opacity:1;fill-rule:nonzero;stroke:none"
             transform="translate(55,205.231)"><tspan
               id="tspan218"
               y="0"
               x="0 8.9049997 15.496 26.169001 32.759998 40.027 46.618 49.126999 56.394001 63.206001 65.714996 73.267998 80.496002 83.823997 90.415001 96.486 103.298 106.574 109.083 117.988 125.216 132.444 138.515 141.843 149.071 154.713 161.304">Camada de Enlace: Conclusão</tspan></text>
<text
             id="text224"
             style="font-variant:normal;font-weight:normal;font-size:13px;font-family:Lato;-inkscape-font-specification:Lato-Regular;writing-mode:lr-tb;fill:#000000;fill-opacity:1;fill-rule:nonzero;stroke:none"
             transform="translate(397,205.231)"><tspan
               id="tspan222"
               y="0"
               x="0 7.54 15.08 19.929001 27.469">16/11</tspan></text>
<text
             id="text228"
             style="font-variant:normal;font-weight:normal;font-size:13px;font-family:Lato;-inkscape-font-specification:Lato-Regular;writing-mode:lr-tb;fill:#0000ff;fill-opacity:1;fill-rule:nonzero;stroke:none"
             transform="translate(447,205.231)"><tspan
               id="tspan226"
               y="0"
               x="0 8.3719997 15.184 21.254999 28.066999 33.709 39.351002 46.578999 49.088001 53.598999 56.108002 64.051003 69.290001 76.517998 82.588997 85.917 92.508003 103.181 109.772 115.843 122.434 129.662 132.17101 139.438 146.02901 148.53799 156.91 163.722 170.89799 178.12601 185.39301 188.72099 192.049 198.12">Recesso - Proclamação da República</tspan></text>
<text
             id="text232"
             style="font-variant:normal;font-weight:normal;font-size:13px;font-family:Lato;-inkscape-font-specification:Lato-Regular;writing-mode:lr-tb;fill:#000000;fill-opacity:1;fill-rule:nonzero;stroke:none"
             transform="translate(7,226.231)"><tspan
               id="tspan230"
               y="0"
               x="0 7.54 15.08 19.929001 27.469">14/09</tspan></text>
<text
             id="text236"
             style="font-variant:normal;font-weight:normal;font-size:13px;font-family:Lato;-inkscape-font-specification:Lato-Regular;writing-mode:lr-tb;fill:#000000;fill-opacity:1;fill-rule:nonzero;stroke:none"
             transform="translate(55,226.231)"><tspan
               id="tspan234"
               y="0"
               x="0 8.3719997 15.184 22.451 29.263 34.904999 37.414001 44.304001 51.116001 61.789001 64.297997 71.655998 74.984001 82.211998 85.487999 87.997002 96.902 104.13 111.358 117.429 124.241 127.569 132.418 139.646 145.28799 147.797 155.064 161.87601 164.38499 173.28999 179.881 190.554 197.145 204.412 211.00301 213.51199 220.87 224.198 229.84 233.168 239.239">Redes Sem Fio: Conceitos de Camada Física</tspan></text>
<text
             id="text240"
             style="font-variant:normal;font-weight:normal;font-size:13px;font-family:Lato;-inkscape-font-specification:Lato-Regular;writing-mode:lr-tb;fill:#000000;fill-opacity:1;fill-rule:nonzero;stroke:none"
             transform="translate(397,226.231)"><tspan
               id="tspan238"
               y="0"
               x="0 7.54 15.08 19.929001 27.469">21/11</tspan></text>
<text
             id="text244"
             style="font-variant:normal;font-weight:normal;font-size:13px;font-family:Lato;-inkscape-font-specification:Lato-Regular;writing-mode:lr-tb;fill:#ff0000;fill-opacity:1;fill-rule:nonzero;stroke:none"
             transform="translate(447,226.231)"><tspan
               id="tspan242"
               y="0"
               x="0 8.8400002 16.016001 21.254999 28.066999 33.709 40.521 47.749001 52.598 59.188999 65.260002 71.850998 79.079002 81.587997 88.855003 96.083 101.725 104.234 111.904 117.143 123.734 131.00101 137.592 140.92 148.14799 155.37601">Apresentação dos Trabalhos</tspan></text>
<text
             id="text248"
             style="font-variant:normal;font-weight:normal;font-size:13px;font-family:Lato;-inkscape-font-specification:Lato-Regular;writing-mode:lr-tb;fill:#000000;fill-opacity:1;fill-rule:nonzero;stroke:none"
             transform="translate(7,247.231)"><tspan
               id="tspan246"
               y="0"
               x="0 7.54 15.08 19.929001 27.469">19/09</tspan></text>
<text
             id="text252"
             style="font-variant:normal;font-weight:normal;font-size:13px;font-family:Lato;-inkscape-font-specification:Lato-Regular;writing-mode:lr-tb;fill:#ff0000;fill-opacity:1;fill-rule:nonzero;stroke:none"
             transform="translate(55,247.231)"><tspan
               id="tspan250"
               y="0"
               x="0 7.9429998 15.483 17.992001 21.892 30.797001 37.388 48.061001 54.652 61.918999 68.510002 71.018997 78.286003 85.098 87.607002 95.160004 102.388 105.716 112.307 118.378 125.19">P1 (Camada de Enlace)</tspan></text>
<text
             id="text256"
             style="font-variant:normal;font-weight:normal;font-size:13px;font-family:Lato;-inkscape-font-specification:Lato-Regular;writing-mode:lr-tb;fill:#000000;fill-opacity:1;fill-rule:nonzero;stroke:none"
             transform="translate(397,247.231)"><tspan
               id="tspan254"
               y="0"
               x="0 7.54 15.08 19.929001 27.469">23/11</tspan></text>
<text
             id="text260"
             style="font-variant:normal;font-weight:normal;font-size:13px;font-family:Lato;-inkscape-font-specification:Lato-Regular;writing-mode:lr-tb;fill:#ff0000;fill-opacity:1;fill-rule:nonzero;stroke:none"
             transform="translate(447,247.231)"><tspan
               id="tspan258"
               y="0"
               x="0 8.8400002 16.016001 21.254999 28.066999 33.709 40.521 47.749001 52.598 59.188999 65.260002 71.850998 79.079002 81.587997 88.855003 96.083 101.725 104.234 111.904 117.143 123.734 131.00101 137.592 140.92 148.14799 155.37601">Apresentação dos Trabalhos</tspan></text>
<text
             id="text264"
             style="font-variant:normal;font-weight:normal;font-size:13px;font-family:Lato;-inkscape-font-specification:Lato-Regular;writing-mode:lr-tb;fill:#000000;fill-opacity:1;fill-rule:nonzero;stroke:none"
             transform="translate(7,268.231)"><tspan
               id="tspan262"
               y="0"
               x="0 7.54 15.08 19.929001 27.469">21/09</tspan></text>
<text
             id="text268"
             style="font-variant:normal;font-weight:normal;font-size:13px;font-family:Lato;-inkscape-font-specification:Lato-Regular;writing-mode:lr-tb;fill:#000000;fill-opacity:1;fill-rule:nonzero;stroke:none"
             transform="translate(55,268.231)"><tspan
               id="tspan266"
               y="0"
               x="0 8.3719997 15.184 22.451 29.263 34.904999 37.414001 44.304001 51.116001 61.789001 64.297997 71.655998 74.984001 82.211998 85.487999 87.997002 95.550003 102.778 106.106 112.697 118.768 125.58 131.222 133.978 136.487 145.392 155.181 167.14101 175.981 178.737 181.246 194.493 201.175 210.015 219.843 222.599 225.108 238.355 246.298 255.138">Redes Sem Fio: Enlaces, CDMA, WLAN, WPAN</tspan></text>
<text
             id="text272"
             style="font-variant:normal;font-weight:normal;font-size:13px;font-family:Lato;-inkscape-font-specification:Lato-Regular;writing-mode:lr-tb;fill:#000000;fill-opacity:1;fill-rule:nonzero;stroke:none"
             transform="translate(397,268.231)"><tspan
               id="tspan270"
               y="0"
               x="0 7.54 15.08 19.929001 27.469">28/11</tspan></text>
<text
             id="text276"
             style="font-variant:normal;font-weight:normal;font-size:13px;font-family:Lato;-inkscape-font-specification:Lato-Regular;writing-mode:lr-tb;fill:#000000;fill-opacity:1;fill-rule:nonzero;stroke:none"
             transform="translate(447,268.231)"><tspan
               id="tspan274"
               y="0"
               x="0 8.8400002 16.068001 19.396 25.987 28.496 35.763 42.575001 45.084 54.873001 62.101002 68.757004 72.084999 79.351997 85.943001">Aula de Dúvidas</tspan></text>
<text
             id="text280"
             style="font-variant:normal;font-weight:normal;font-size:13px;font-family:Lato;-inkscape-font-specification:Lato-Regular;writing-mode:lr-tb;fill:#000000;fill-opacity:1;fill-rule:nonzero;stroke:none"
             transform="translate(7,289.231)"><tspan
               id="tspan278"
               y="0"
               x="0 7.54 15.08 19.929001 27.469">26/09</tspan></text>
<text
             id="text284"
             style="font-variant:normal;font-weight:normal;font-size:13px;font-family:Lato;-inkscape-font-specification:Lato-Regular;writing-mode:lr-tb;fill:#000000;fill-opacity:1;fill-rule:nonzero;stroke:none"
             transform="translate(55,289.231)"><tspan
               id="tspan282"
               y="0"
               x="0 8.3719997 15.184 22.451 29.263 34.904999 37.414001 44.304001 51.116001 61.789001 64.297997 71.655998 74.984001 82.211998 85.487999 87.997002 91.987999 99.541 107.094 114.647 117.156 124.696 132.23599 139.776 142.532 150.07201">Redes Sem Fio: IEEE 802.11</tspan></text>
<text
             id="text288"
             style="font-variant:normal;font-weight:normal;font-size:13px;font-family:Lato;-inkscape-font-specification:Lato-Regular;writing-mode:lr-tb;fill:#000000;fill-opacity:1;fill-rule:nonzero;stroke:none"
             transform="translate(397,289.231)"><tspan
               id="tspan286"
               y="0"
               x="0 7.54 15.08 19.929001 27.469">30/11</tspan></text>
<text
             id="text292"
             style="font-variant:normal;font-weight:normal;font-size:13px;font-family:Lato;-inkscape-font-specification:Lato-Regular;writing-mode:lr-tb;fill:#ff0000;fill-opacity:1;fill-rule:nonzero;stroke:none"
             transform="translate(447,289.231)"><tspan
               id="tspan290"
               y="0"
               x="0 7.9429998 15.483 17.992001 21.892 33.852001 41.080002 44.408001 49.257 52.584999 63.257999 66.585999 73.852997 77.181 83.772003 88.621002 98.163002 104.975 110.214 117.026 124.254 130.325 133.653 140.244">P3 (Multimídia/Gerência)</tspan></text>
<text
             id="text296"
             style="font-variant:normal;font-weight:normal;font-size:13px;font-family:Lato;-inkscape-font-specification:Lato-Regular;writing-mode:lr-tb;fill:#000000;fill-opacity:1;fill-rule:nonzero;stroke:none"
             transform="translate(7,310.231)"><tspan
               id="tspan294"
               y="0"
               x="0 7.54 15.08 19.929001 27.469">28/09</tspan></text>
<text
             id="text300"
             style="font-variant:normal;font-weight:normal;font-size:13px;font-family:Lato;-inkscape-font-specification:Lato-Regular;writing-mode:lr-tb;fill:#000000;fill-opacity:1;fill-rule:nonzero;stroke:none"
             transform="translate(55,310.231)"><tspan
               id="tspan298"
               y="0"
               x="0 8.3719997 15.184 22.451 29.263 34.904999 37.414001 44.304001 51.116001 61.789001 64.297997 71.655998 74.984001 82.211998 85.487999 87.997002 96.369003 103.181 110.448 117.26 122.902 125.411 132.67799 139.49001 141.99899 153.959 161.187 164.515 169.364 172.692 179.868 183.196 190.424 196.06599 198.575 205.465 212.056 215.384 220.233 227.461">Redes Sem Fio: Redes de Múltiplos Saltos</tspan></text>
<text
             id="text304"
             style="font-variant:normal;font-weight:normal;font-size:13px;font-family:Lato;-inkscape-font-specification:Lato-Regular;writing-mode:lr-tb;fill:#000000;fill-opacity:1;fill-rule:nonzero;stroke:none"
             transform="translate(397,310.231)"><tspan
               id="tspan302"
               y="0"
               x="0 7.54 15.08 19.929001 27.469">05/12</tspan></text>
<text
             id="text308"
             style="font-variant:normal;font-weight:normal;font-size:13px;font-family:Lato;-inkscape-font-specification:Lato-Regular;writing-mode:lr-tb;fill:#ff0000;fill-opacity:1;fill-rule:nonzero;stroke:none"
             transform="translate(447,310.231)"><tspan
               id="tspan306"
               y="0"
               x="0 8.8400002">VR</tspan></text>
<text
             id="text312"
             style="font-variant:normal;font-weight:normal;font-size:13px;font-family:Lato;-inkscape-font-specification:Lato-Regular;writing-mode:lr-tb;fill:#000000;fill-opacity:1;fill-rule:nonzero;stroke:none"
             transform="translate(7,331.231)"><tspan
               id="tspan310"
               y="0"
               x="0 7.54 15.08 19.929001 27.469">03/10</tspan></text>
<text
             id="text316"
             style="font-variant:normal;font-weight:normal;font-size:13px;font-family:Lato;-inkscape-font-specification:Lato-Regular;writing-mode:lr-tb;fill:#000000;fill-opacity:1;fill-rule:nonzero;stroke:none"
             transform="translate(55,331.231)"><tspan
               id="tspan314"
               y="0"
               x="0 8.3719997 15.184 22.451 29.263 34.904999 37.414001 44.304001 51.116001 61.789001 64.297997 71.655998 74.984001 82.211998 85.487999 87.997002 96.369003 103.181 110.448 117.26 119.769 128.674 135.48599 138.814 146.04201 149.37 155.961 161.2 166.049 178.009 185.237 192.504 195.832 199.16 202.48801 209.755 216.34599 223.61301 230.425 233.701 236.21001 240.201 247.429 252.278 257.517 264.745 272.01199 279.23999 285.311 291.90201">Redes Sem Fio: Rede Celular/Mobilidade: Introdução</tspan></text>
<text
             id="text320"
             style="font-variant:normal;font-weight:normal;font-size:13px;font-family:Lato;-inkscape-font-specification:Lato-Regular;writing-mode:lr-tb;fill:#000000;fill-opacity:1;fill-rule:nonzero;stroke:none"
             transform="translate(397,331.231)"><tspan
               id="tspan318"
               y="0"
               x="0 7.54 15.08 19.929001 27.469">07/12</tspan></text>
<text
             id="text324"
             style="font-variant:normal;font-weight:normal;font-size:13px;font-family:Lato;-inkscape-font-specification:Lato-Regular;writing-mode:lr-tb;fill:#000000;fill-opacity:1;fill-rule:nonzero;stroke:none"
             transform="translate(447,331.231)"><tspan
               id="tspan322"
               y="0"
               x="0 9.7889996 13.117 19.773001 27.000999 30.329 36.972 43.563 49.633999 56.224998 63.452999 65.961998 73.228996 79.82 85.461998 87.971001 97.799004 105.027 109.876 116.467 122.109 126.958 135.798 139.12601 144.76801 149.617 156.20799 158.717 165.98399 172.575 175.084 183.02699 190.567 195.416 204.256">Divulgação das Notas/Vista da P3/VR</tspan></text>
<text
             id="text328"
             style="font-variant:normal;font-weight:normal;font-size:13px;font-family:Lato;-inkscape-font-specification:Lato-Regular;writing-mode:lr-tb;fill:#000000;fill-opacity:1;fill-rule:nonzero;stroke:none"
             transform="translate(7,352.231)"><tspan
               id="tspan326"
               y="0"
               x="0 7.54 15.08 19.929001 27.469">05/10</tspan></text>
<text
             id="text332"
             style="font-variant:normal;font-weight:normal;font-size:13px;font-family:Lato;-inkscape-font-specification:Lato-Regular;writing-mode:lr-tb;fill:#000000;fill-opacity:1;fill-rule:nonzero;stroke:none"
             transform="translate(55,352.231)"><tspan
               id="tspan330"
               y="0"
               x="0 11.96 19.188 26.455 29.783001 33.111 36.438999 43.706001 50.297001 57.563999 64.375999 67.652 70.161003 74.152 82.095001 84.603996 96.564003 103.792 110.448 117.26 120.588 123.344 125.853 137.813 145.041 152.308 155.636 158.964 162.29201 169.55901 176.14999 183.41701 190.229 192.73801 201.64301 208.455 211.783 219.011 222.339 228.92999">Mobilidade: IP Móvel, Mobilidade Celular</tspan></text>
<text
             id="text336"
             style="font-variant:normal;font-weight:normal;font-size:13px;font-family:Lato;-inkscape-font-specification:Lato-Regular;writing-mode:lr-tb;fill:#000000;fill-opacity:1;fill-rule:nonzero;stroke:none"
             transform="translate(397,352.231)"><tspan
               id="tspan334"
               y="0"
               x="0 7.54 15.08 19.929001 27.469">12/12</tspan></text>
<text
             id="text340"
             style="font-variant:normal;font-weight:normal;font-size:13px;font-family:Lato;-inkscape-font-specification:Lato-Regular;writing-mode:lr-tb;fill:#0000ff;fill-opacity:1;fill-rule:nonzero;stroke:none"
             transform="translate(447,352.231)"><tspan
               id="tspan338"
               y="0"
               x="0 7.9429998 13.182 19.993999 27.17 33.761002 39 45.591 51.661999 58.252998 65.481003 67.989998 75.166 81.757004 86.996002 93.586998 96.096001 104.936 111.826 114.335 118.235 128.063 134.65401 141.882 144.39101 154.21899 160.81 167.466 174.278 179.517 186.108 188.617 197.457 204.685 208.013 214.604">Preparação para VS (Não Haverá Aula)</tspan></text>
<text
             id="text344"
             style="font-variant:normal;font-weight:normal;font-size:13px;font-family:Lato;-inkscape-font-specification:Lato-Regular;writing-mode:lr-tb;fill:#000000;fill-opacity:1;fill-rule:nonzero;stroke:none"
             transform="translate(7,373.231)"><tspan
               id="tspan342"
               y="0"
               x="0 7.54 15.08 19.929001 27.469">10/10</tspan></text>
<text
             id="text348"
             style="font-variant:normal;font-weight:normal;font-size:13px;font-family:Lato;-inkscape-font-specification:Lato-Regular;writing-mode:lr-tb;fill:#000000;fill-opacity:1;fill-rule:nonzero;stroke:none"
             transform="translate(55,373.231)"><tspan
               id="tspan346"
               y="0"
               x="0 11.96 19.188 22.516001 27.365 30.693001 41.366001 44.694 51.960999 55.289001 61.880001 65.155998 67.665001 76.57 83.797997 91.026001 97.097 103.909 107.237 112.086 119.314 124.956 127.465 134.27699 136.786 145.62601 152.802 156.13 159.45799 165.52901 172.12 178.19099 185.41901 192.231">Multimídia: Conceitos e Aplicações</tspan></text>
<text
             id="text352"
             style="font-variant:normal;font-weight:normal;font-size:13px;font-family:Lato;-inkscape-font-specification:Lato-Regular;writing-mode:lr-tb;fill:#000000;fill-opacity:1;fill-rule:nonzero;stroke:none"
             transform="translate(397,373.231)"><tspan
               id="tspan350"
               y="0"
               x="0 7.54 15.08 19.929001 27.469">14/12</tspan></text>
<text
             id="text356"
             style="font-variant:normal;font-weight:normal;font-size:13px;font-family:Lato;-inkscape-font-specification:Lato-Regular;writing-mode:lr-tb;fill:#ff0000;fill-opacity:1;fill-rule:nonzero;stroke:none"
             transform="translate(447,373.231)"><tspan
               id="tspan354"
               y="0"
               x="0 8.8400002 15.73 18.239 22.139 29.028999 35.841 38.349998 48.178001 54.990002 61.061001 67.873001 73.514999 79.156998 85.748001 90.987 94.315002 100.906">VS (Se Necessária)</tspan></text>
<text
             id="text360"
             style="font-variant:normal;font-weight:normal;font-size:13px;font-family:Lato;-inkscape-font-specification:Lato-Regular;writing-mode:lr-tb;fill:#000000;fill-opacity:1;fill-rule:nonzero;stroke:none"
             transform="translate(7,394.231)"><tspan
               id="tspan358"
               y="0"
               x="0 7.54 15.08 19.929001 27.469">12/10</tspan></text>
<text
             id="text364"
             style="font-variant:normal;font-weight:normal;font-size:13px;font-family:Lato;-inkscape-font-specification:Lato-Regular;writing-mode:lr-tb;fill:#0000ff;fill-opacity:1;fill-rule:nonzero;stroke:none"
             transform="translate(55,394.231)"><tspan
               id="tspan362"
               y="0"
               x="0 7.3579998 14.17 19.409 22.737 29.327999 36.595001 43.823002 46.332001 50.842999 53.352001 63.18 70.407997 76.050003 81.692001 88.282997 90.792 97.681999 104.494 111.722 118.95 126.178 131.41701 138.008 140.517 149.35699 156.533 163.12399 168.36301 175.175 181.246 184.57401 191.841">Feriado - Nossa Senhora Aparecida</tspan></text>
<text
             id="text368"
             style="font-variant:normal;font-weight:normal;font-size:13px;font-family:Lato;-inkscape-font-specification:Lato-Regular;writing-mode:lr-tb;fill:#000000;fill-opacity:1;fill-rule:nonzero;stroke:none"
             transform="translate(397,394.231)"><tspan
               id="tspan366"
               y="0"
               x="0 7.54 15.08 19.929001 27.469">19/12</tspan></text>
<text
             id="text372"
             style="font-variant:normal;font-weight:normal;font-size:13px;font-family:Lato;-inkscape-font-specification:Lato-Regular;writing-mode:lr-tb;fill:#000000;fill-opacity:1;fill-rule:nonzero;stroke:none"
             transform="translate(447,394.231)"><tspan
               id="tspan370"
               y="0"
               x="0 9.7889996 13.117 19.773001 27.000999 30.329 36.972 43.563 49.633999 56.224998 63.452999 65.961998 73.228996 79.82 85.461998 87.971001 97.799004 105.027 109.876 116.467 122.109 126.958 135.798 139.12601 144.76801 149.617 156.20799 158.717 162.617 171.457 178.347">Divulgação das Notas/Vista (VS)</tspan></text>
<text
             id="text376"
             style="font-variant:normal;font-weight:normal;font-size:13px;font-family:Lato;-inkscape-font-specification:Lato-Regular;writing-mode:lr-tb;fill:#000000;fill-opacity:1;fill-rule:nonzero;stroke:none"
             transform="translate(7,415.231)"><tspan
               id="tspan374"
               y="0"
               x="0 7.54 15.08 19.929001 27.469">17/10</tspan></text>
<text
             id="text380"
             style="font-variant:normal;font-weight:normal;font-size:13px;font-family:Lato;-inkscape-font-specification:Lato-Regular;writing-mode:lr-tb;fill:#0000ff;fill-opacity:1;fill-rule:nonzero;stroke:none"
             transform="translate(55,415.231)"><tspan
               id="tspan378"
               y="0"
               x="0 9.8280001 16.419001 23.646999 26.156 33.383999 39.974998 46.631001 53.443001 58.681999 65.273003 67.781998 74.373001 81.600998 84.929001 91.519997 94.028999 98.540001 101.049 107.939 114.751 125.424 132.015 139.243 145.834 148.343 157.183 163.254 169.845 177.112 183.924 194.597 197.925 203.996">Não haverá aula - Semana Acadêmica</tspan></text>
</g></g></g></g></svg>