<?xml version="1.0" encoding="UTF-8" standalone="no"?>
<!-- Created with Inkscape (http://www.inkscape.org/) -->

<svg
   xmlns:dc="http://purl.org/dc/elements/1.1/"
   xmlns:cc="http://creativecommons.org/ns#"
   xmlns:rdf="http://www.w3.org/1999/02/22-rdf-syntax-ns#"
   xmlns:svg="http://www.w3.org/2000/svg"
   xmlns="http://www.w3.org/2000/svg"
   xmlns:sodipodi="http://sodipodi.sourceforge.net/DTD/sodipodi-0.dtd"
   xmlns:inkscape="http://www.inkscape.org/namespaces/inkscape"
   width="233.84933mm"
   height="77.51931mm"
   viewBox="0 0 828.60001 274.67472"
   id="svg3469"
   version="1.1"
   inkscape:version="0.91 r13725"
   sodipodi:docname="AnalogiaVooCamadas.svg">
<defs><style type="text/css">@import url(https://fonts.googleapis.com/css?family=Lora:400,400italic,700,700italic)</style></defs>
  <defs
     id="defs3471">
    <mask
       maskUnits="userSpaceOnUse"
       x="0"
       y="0"
       width="1"
       height="1"
       id="mask3978">
      <g
         id="g3980">
        <g
           clip-path="url(#clipPath3968)"
           id="g3982">
          <path
             d="m 35.5,370.75 660.88,0 0,15.375 -660.88,0 0,-15.375 z"
             style="fill:url(#linearGradient3972);fill-opacity:1;fill-rule:evenodd;stroke:none"
             id="path3984"
             inkscape:connector-curvature="0" />
        </g>
      </g>
    </mask>
    <clipPath
       clipPathUnits="userSpaceOnUse"
       id="clipPath3968">
      <path
         d="m 35.5,370.75 660.87,0 0,15.37 -660.87,0 0,-15.37 z"
         id="path3970"
         inkscape:connector-curvature="0" />
    </clipPath>
    <linearGradient
       x1="365.94"
       y1="401.5"
       x2="365.94"
       y2="370.75"
       gradientUnits="userSpaceOnUse"
       spreadMethod="pad"
       id="linearGradient3972">
      <stop
         style="stop-opacity:0.52941176;stop-color:#ffffff"
         offset="0"
         id="stop3974" />
      <stop
         style="stop-opacity:0.52941176;stop-color:#ffffff"
         offset="1"
         id="stop3976" />
    </linearGradient>
    <linearGradient
       x1="365.94"
       y1="401.5"
       x2="365.94"
       y2="370.75"
       gradientUnits="userSpaceOnUse"
       spreadMethod="pad"
       id="linearGradient3988">
      <stop
         style="stop-opacity:1;stop-color:#00cc99"
         offset="0"
         id="stop3990" />
      <stop
         style="stop-opacity:1;stop-color:#00cc99"
         offset="1"
         id="stop3992" />
    </linearGradient>
    <mask
       maskUnits="userSpaceOnUse"
       x="0"
       y="0"
       width="1"
       height="1"
       id="mask3946">
      <g
         id="g3948">
        <g
           clip-path="url(#clipPath3936)"
           id="g3950">
          <path
             d="m 35.5,344.12 660.75,0 0,15.375 -660.75,0 0,-15.375 z"
             style="fill:url(#linearGradient3940);fill-opacity:1;fill-rule:evenodd;stroke:none"
             id="path3952"
             inkscape:connector-curvature="0" />
        </g>
      </g>
    </mask>
    <clipPath
       clipPathUnits="userSpaceOnUse"
       id="clipPath3936">
      <path
         d="m 35.5,344.12 660.75,0 0,15.38 -660.75,0 0,-15.38 z"
         id="path3938"
         inkscape:connector-curvature="0" />
    </clipPath>
    <linearGradient
       x1="365.87"
       y1="374.88"
       x2="365.87"
       y2="344.13"
       gradientUnits="userSpaceOnUse"
       spreadMethod="pad"
       id="linearGradient3940">
      <stop
         style="stop-opacity:0.52941176;stop-color:#ffffff"
         offset="0"
         id="stop3942" />
      <stop
         style="stop-opacity:0.52941176;stop-color:#ffffff"
         offset="1"
         id="stop3944" />
    </linearGradient>
    <linearGradient
       x1="365.87"
       y1="374.88"
       x2="365.87"
       y2="344.13"
       gradientUnits="userSpaceOnUse"
       spreadMethod="pad"
       id="linearGradient3956">
      <stop
         style="stop-opacity:1;stop-color:#00cc99"
         offset="0"
         id="stop3958" />
      <stop
         style="stop-opacity:1;stop-color:#00cc99"
         offset="1"
         id="stop3960" />
    </linearGradient>
    <mask
       maskUnits="userSpaceOnUse"
       x="0"
       y="0"
       width="1"
       height="1"
       id="mask3914">
      <g
         id="g3916">
        <g
           clip-path="url(#clipPath3904)"
           id="g3918">
          <path
             d="m 35.5,317.5 661.63,0 0,14.5 -661.63,0 0,-14.5 z"
             style="fill:url(#linearGradient3908);fill-opacity:1;fill-rule:evenodd;stroke:none"
             id="path3920"
             inkscape:connector-curvature="0" />
        </g>
      </g>
    </mask>
    <clipPath
       clipPathUnits="userSpaceOnUse"
       id="clipPath3904">
      <path
         d="m 35.5,317.5 661.62,0 0,14.5 -661.62,0 0,-14.5 z"
         id="path3906"
         inkscape:connector-curvature="0" />
    </clipPath>
    <linearGradient
       x1="366.31"
       y1="332"
       x2="366.31"
       y2="317.5"
       gradientUnits="userSpaceOnUse"
       spreadMethod="pad"
       id="linearGradient3908">
      <stop
         style="stop-opacity:0.50196078;stop-color:#ffffff"
         offset="0"
         id="stop3910" />
      <stop
         style="stop-opacity:0.52941176;stop-color:#ffffff"
         offset="1"
         id="stop3912" />
    </linearGradient>
    <linearGradient
       x1="366.31"
       y1="332"
       x2="366.31"
       y2="317.5"
       gradientUnits="userSpaceOnUse"
       spreadMethod="pad"
       id="linearGradient3924">
      <stop
         style="stop-opacity:1;stop-color:#00cc99"
         offset="0"
         id="stop3926" />
      <stop
         style="stop-opacity:1;stop-color:#00cc99"
         offset="1"
         id="stop3928" />
    </linearGradient>
    <mask
       maskUnits="userSpaceOnUse"
       x="0"
       y="0"
       width="1"
       height="1"
       id="mask3882">
      <g
         id="g3884">
        <g
           clip-path="url(#clipPath3872)"
           id="g3886">
          <path
             d="m 35.5,290.87 661.63,0 0,15.375 -661.63,0 0,-15.375 z"
             style="fill:url(#linearGradient3876);fill-opacity:1;fill-rule:evenodd;stroke:none"
             id="path3888"
             inkscape:connector-curvature="0" />
        </g>
      </g>
    </mask>
    <clipPath
       clipPathUnits="userSpaceOnUse"
       id="clipPath3872">
      <path
         d="m 35.5,290.87 661.62,0 0,15.38 -661.62,0 0,-15.38 z"
         id="path3874"
         inkscape:connector-curvature="0" />
    </clipPath>
    <linearGradient
       x1="366.31"
       y1="321.63"
       x2="366.31"
       y2="290.88"
       gradientUnits="userSpaceOnUse"
       spreadMethod="pad"
       id="linearGradient3876">
      <stop
         style="stop-opacity:0.52941176;stop-color:#ffffff"
         offset="0"
         id="stop3878" />
      <stop
         style="stop-opacity:0.52941176;stop-color:#ffffff"
         offset="1"
         id="stop3880" />
    </linearGradient>
    <linearGradient
       x1="366.31"
       y1="321.63"
       x2="366.31"
       y2="290.88"
       gradientUnits="userSpaceOnUse"
       spreadMethod="pad"
       id="linearGradient3892">
      <stop
         style="stop-opacity:1;stop-color:#00cc99"
         offset="0"
         id="stop3894" />
      <stop
         style="stop-opacity:1;stop-color:#00cc99"
         offset="1"
         id="stop3896" />
    </linearGradient>
    <mask
       maskUnits="userSpaceOnUse"
       x="0"
       y="0"
       width="1"
       height="1"
       id="mask3850">
      <g
         id="g3852">
        <g
           clip-path="url(#clipPath3840)"
           id="g3854">
          <path
             d="m 35.5,264.25 661.63,0 0,14.5 -661.63,0 0,-14.5 z"
             style="fill:url(#linearGradient3844);fill-opacity:1;fill-rule:evenodd;stroke:none"
             id="path3856"
             inkscape:connector-curvature="0" />
        </g>
      </g>
    </mask>
    <clipPath
       clipPathUnits="userSpaceOnUse"
       id="clipPath3840">
      <path
         d="m 35.5,264.25 661.62,0 0,14.5 -661.62,0 0,-14.5 z"
         id="path3842"
         inkscape:connector-curvature="0" />
    </clipPath>
    <linearGradient
       x1="366.31"
       y1="293.25"
       x2="366.31"
       y2="264.25"
       gradientUnits="userSpaceOnUse"
       spreadMethod="pad"
       id="linearGradient3844">
      <stop
         style="stop-opacity:0.52941176;stop-color:#ffffff"
         offset="0"
         id="stop3846" />
      <stop
         style="stop-opacity:0.52941176;stop-color:#ffffff"
         offset="1"
         id="stop3848" />
    </linearGradient>
    <linearGradient
       x1="366.31"
       y1="293.25"
       x2="366.31"
       y2="264.25"
       gradientUnits="userSpaceOnUse"
       spreadMethod="pad"
       id="linearGradient3860">
      <stop
         style="stop-opacity:1;stop-color:#00cc99"
         offset="0"
         id="stop3862" />
      <stop
         style="stop-opacity:1;stop-color:#00cc99"
         offset="1"
         id="stop3864" />
    </linearGradient>
    <clipPath
       clipPathUnits="userSpaceOnUse"
       id="clipPath3654">
      <path
         d="M -2.542e-6,1.8311e-4 720,1.8311e-4 720,540.00018 -2.542e-6,540.00018 l 0,-539.99999689 z"
         id="path3656"
         inkscape:connector-curvature="0"
         style="clip-rule:evenodd" />
    </clipPath>
    <clipPath
       clipPathUnits="userSpaceOnUse"
       id="clipPath3664">
      <path
         d="m 0,0 142.45,0 0,42.971 L 0,42.971 0,0 Z"
         id="path3666"
         inkscape:connector-curvature="0" />
    </clipPath>
  </defs>
  <sodipodi:namedview
     id="base"
     pagecolor="#ffffff"
     bordercolor="#666666"
     borderopacity="1.0"
     inkscape:pageopacity="0.0"
     inkscape:pageshadow="2"
     inkscape:zoom="0.98994949"
     inkscape:cx="423.30088"
     inkscape:cy="142.49851"
     inkscape:document-units="px"
     inkscape:current-layer="layer1"
     showgrid="false"
     fit-margin-top="0"
     fit-margin-left="0"
     fit-margin-right="0"
     fit-margin-bottom="0"
     inkscape:window-width="1360"
     inkscape:window-height="719"
     inkscape:window-x="0"
     inkscape:window-y="25"
     inkscape:window-maximized="1" />
  <metadata
     id="metadata3474">
    <rdf:RDF>
      <cc:Work
         rdf:about="">
        <dc:format>image/svg+xml</dc:format>
        <dc:type
           rdf:resource="http://purl.org/dc/dcmitype/StillImage" />
        <dc:title></dc:title>
      </cc:Work>
    </rdf:RDF>
  </metadata>
  <g
     inkscape:label="Layer 1"
     inkscape:groupmode="layer"
     id="layer1"
     transform="translate(98.664087,-454.74233)">
    <path
       d="m -97.726587,675.83608 160.625004,0 0,-169.0625 -160.625004,0 0,169.0625 z"
       style="fill:#ffffff;fill-opacity:1;fill-rule:evenodd;stroke:none"
       id="path3586"
       inkscape:connector-curvature="0" />
    <path
       d="m -97.726587,675.83608 160.625004,0 0,-169.0625 -160.625004,0 0,169.0625 z"
       style="fill:none;stroke:#000000;stroke-width:1.875;stroke-linecap:butt;stroke-linejoin:miter;stroke-miterlimit:10;stroke-dasharray:none;stroke-opacity:1"
       id="path3588"
       inkscape:connector-curvature="0" />
    <text
       y="532.39862"
       x="-79.601593"
       style="font-variant:normal;font-weight:normal;font-size:17.53125px;font-family:Arial;-inkscape-font-specification:Arial;writing-mode:lr-tb;fill:#000000;fill-opacity:1;fill-rule:nonzero;stroke:none"
       id="text3590">
      <tspan
         x="-79.601593 -74.850624 -70.871025 -62.105396 -53.339771 -43.592403 -38.876492 -34.125523 -28.375286 -18.627903 -8.8805208 -3.1302762 5.6353488 15.382724 25.1301 33.895725 43.643101"
         y="532.39862"
         sodipodi:role="line"
         id="tspan3592">ticket (purchase)</tspan>
    </text>
    <text
       y="566.14862"
       x="-79.851593"
       style="font-variant:normal;font-weight:normal;font-size:17.5px;font-family:Arial;-inkscape-font-specification:Arial;writing-mode:lr-tb;fill:#000000;fill-opacity:1;fill-rule:nonzero;stroke:none"
       id="text3594">
      <tspan
         x="-79.851593 -70.101593 -60.351589 -50.601589 -40.851589 -31.101589 -21.351589 -11.60159 -7.3465848 -1.6040921 7.1659122 16.915913 26.665897 35.435917 44.153416"
         y="566.14862"
         sodipodi:role="line"
         id="tspan3596">baggage (check)</tspan>
    </text>
    <text
       y="599.64862"
       x="-61.101589"
       style="font-variant:normal;font-weight:normal;font-size:17.5px;font-family:Arial;-inkscape-font-specification:Arial;writing-mode:lr-tb;fill:#000000;fill-opacity:1;fill-rule:nonzero;stroke:none"
       id="text3598">
      <tspan
         x="-61.101589 -51.371586 -41.64159 -36.846592 -27.116596 -18.366596 -13.85159 -8.0940828 -4.1040921 5.6259189 15.355914 25.120914"
         y="599.64862"
         sodipodi:role="line"
         id="tspan3600">gates (load)</tspan>
    </text>
    <text
       y="633.17358"
       x="-77.351593"
       style="font-variant:normal;font-weight:normal;font-size:17.5px;font-family:Arial;-inkscape-font-specification:Arial;writing-mode:lr-tb;fill:#000000;fill-opacity:1;fill-rule:nonzero;stroke:none"
       id="text3602">
      <tspan
         x="-77.351593 -71.594093 -61.864086 -52.13409 -39.849079 -30.119091 -21.841579 -16.609081 -10.85159 -6.1090817 3.620914 12.370914 22.10091 31.86591 36.608402 41.595905"
         y="633.17358"
         sodipodi:role="line"
         id="tspan3604">runway (takeoff)</tspan>
    </text>
    <text
       y="666.92358"
       x="-75.101593"
       style="font-variant:normal;font-weight:normal;font-size:17.5px;font-family:Arial;-inkscape-font-specification:Arial;writing-mode:lr-tb;fill:#000000;fill-opacity:1;fill-rule:nonzero;stroke:none"
       id="text3606">
      <tspan
         x="-75.101593 -65.37159 -61.364086 -55.606586 -45.876591 -41.869083 -32.139095 -22.409092 -12.644086 -8.3915834 -2.6340909 7.0959201 16.825916 21.620914 25.61092 35.3409"
         y="666.92358"
         sodipodi:role="line"
         id="tspan3608">airplane routing</tspan>
    </text>
    <path
       d="m -96.632837,542.08608 159.531254,0.1625"
       style="fill:none;stroke:#000000;stroke-width:1.875;stroke-linecap:butt;stroke-linejoin:round;stroke-miterlimit:10;stroke-dasharray:none;stroke-opacity:1"
       id="path3610"
       inkscape:connector-curvature="0" />
    <path
       d="m -96.007837,576.31108 159.531254,0.15"
       style="fill:none;stroke:#000000;stroke-width:1.875;stroke-linecap:butt;stroke-linejoin:round;stroke-miterlimit:10;stroke-dasharray:none;stroke-opacity:1"
       id="path3612"
       inkscape:connector-curvature="0" />
    <path
       d="m -96.632837,610.36108 159.531254,0.1625"
       style="fill:none;stroke:#000000;stroke-width:1.875;stroke-linecap:butt;stroke-linejoin:round;stroke-miterlimit:10;stroke-dasharray:none;stroke-opacity:1"
       id="path3614"
       inkscape:connector-curvature="0" />
    <path
       d="m -95.382837,644.58608 159.531254,0.15"
       style="fill:none;stroke:#000000;stroke-width:1.875;stroke-linecap:butt;stroke-linejoin:round;stroke-miterlimit:10;stroke-dasharray:none;stroke-opacity:1"
       id="path3616"
       inkscape:connector-curvature="0" />
    <text
       y="707.4986"
       x="-52.882839"
       style="font-variant:normal;font-weight:normal;font-size:15px;font-family:Arial;-inkscape-font-specification:Arial;writing-mode:lr-tb;fill:#000000;fill-opacity:1;fill-rule:nonzero;stroke:none"
       id="text3618">
      <tspan
         x="-52.882839 -44.632839 -36.382839 -28.132839 -19.882839 -14.88783 -10.642835 -2.3928342 2.6021609"
         y="707.4986"
         sodipodi:role="line"
         id="tspan3620">departure</tspan>
    </text>
    <text
       y="725.4986"
       x="-42.132839"
       style="font-variant:normal;font-weight:normal;font-size:15px;font-family:Arial;-inkscape-font-specification:Arial;writing-mode:lr-tb;fill:#000000;fill-opacity:1;fill-rule:nonzero;stroke:none"
       id="text3622">
      <tspan
         x="-42.132839 -33.882839 -30.627842 -25.632839 -17.382839 -9.1328402 -4.1378293"
         y="725.4986"
         sodipodi:role="line"
         id="tspan3624">airport</tspan>
    </text>
    <text
       y="708.4361"
       x="457.87341"
       style="font-variant:normal;font-weight:normal;font-size:15px;font-family:Arial;-inkscape-font-specification:Arial;writing-mode:lr-tb;fill:#000000;fill-opacity:1;fill-rule:nonzero;stroke:none"
       id="text3626">
      <tspan
         x="457.87341 466.12341 471.11841 476.11346 479.36841 487.10846 495.35846"
         y="708.4361"
         sodipodi:role="line"
         id="tspan3628">arrival</tspan>
    </text>
    <text
       y="726.4361"
       x="457.12341"
       style="font-variant:normal;font-weight:normal;font-size:15px;font-family:Arial;-inkscape-font-specification:Arial;writing-mode:lr-tb;fill:#000000;fill-opacity:1;fill-rule:nonzero;stroke:none"
       id="text3630">
      <tspan
         x="457.12341 465.37341 468.62842 473.62341 481.87341 490.12341 495.11841"
         y="726.4361"
         sodipodi:role="line"
         id="tspan3632">airport</tspan>
    </text>
    <text
       y="707.96112"
       x="160.89841"
       style="font-variant:normal;font-weight:normal;font-size:15px;font-family:Arial;-inkscape-font-specification:Arial;writing-mode:lr-tb;fill:#000000;fill-opacity:1;fill-rule:nonzero;stroke:none"
       id="text3634">
      <tspan
         x="160.89841 164.15341 172.40341 176.63339 184.88339 189.87842 202.13339 210.38342 218.63339 221.8884 230.1384 234.36841 242.61841 247.10339 255.35342 258.6084"
         y="707.96112"
         sodipodi:role="line"
         id="tspan3636">intermediate air</tspan>
    </text>
    <text
       y="707.96112"
       x="263.68591"
       style="font-variant:normal;font-weight:normal;font-size:15px;font-family:Arial;-inkscape-font-specification:Arial;writing-mode:lr-tb;fill:#000000;fill-opacity:1;fill-rule:nonzero;stroke:none"
       id="text3638">
      <tspan
         x="263.68591"
         y="707.96112"
         id="tspan3640">-</tspan>
    </text>
    <text
       y="707.96112"
       x="268.68591"
       style="font-variant:normal;font-weight:normal;font-size:15px;font-family:Arial;-inkscape-font-specification:Arial;writing-mode:lr-tb;fill:#000000;fill-opacity:1;fill-rule:nonzero;stroke:none"
       id="text3642">
      <tspan
         x="268.68591 272.91589 277.91092 286.16092 290.16589 294.3959 297.65091"
         y="707.96112"
         sodipodi:role="line"
         id="tspan3644">traffic</tspan>
    </text>
    <text
       y="725.96112"
       x="184.14841"
       style="font-variant:normal;font-weight:normal;font-size:15px;font-family:Arial;-inkscape-font-specification:Arial;writing-mode:lr-tb;fill:#000000;fill-opacity:1;fill-rule:nonzero;stroke:none"
       id="text3646">
      <tspan
         x="184.14841 191.64841 199.89841 208.14841 212.37842 217.37341 225.62341 228.87842 232.88339 240.38339 248.63342 256.88339 261.1134 269.3634 274.3584"
         y="725.96112"
         sodipodi:role="line"
         id="tspan3648">control centers</tspan>
    </text>
    <g
       transform="matrix(1.25,0,0,-1.25,-141.47659,1000.8361)"
       id="g3650">
      <g
         id="g3652"
         clip-path="url(#clipPath3654)">
        <g
           id="g3658"
           transform="matrix(-1.6719,0,0,0.50347,351.12,387.62)">
          <g
             id="g3660"
             transform="scale(0.50545,1.6756)">
            <g
               id="g3662"
               clip-path="url(#clipPath3664)">
              <g
                 id="g3668">
                <g
                   id="g3670">
                  <g
                     id="g3672" />
                </g>
                <path
                   d="m 105.9,32.331 0.07,0.144 0,0.144 0.08,0.144 0,0.144 0,0 0,0.072 0,0 0,0 -0.08,0.72 -0.28,0.648 -0.36,0.577 -0.58,0.576 -0.64,0.432 -0.72,0.36 -0.86,0.216 -0.86,0.144 -0.07,0 -0.08,0 -0.14,-0.072 -0.14,0 -0.43,0.576 -0.58,0.433 -0.642,0.432 -0.79,0.432 -0.789,0.288 -0.861,0.216 -0.933,0.144 -1.004,0.072 -1.077,0 -1.004,-0.072 -0.933,-0.216 -0.861,-0.288 -0.789,-0.36 -0.646,-0.432 -0.646,-0.433 -0.43,-0.576 -0.287,0.144 -0.359,0.144 -0.287,0.144 -0.359,0.072 -0.287,0.072 -0.359,0.072 -0.359,0.072 -0.358,0 -0.646,0 -0.574,-0.072 -0.574,-0.072 -0.502,-0.144 -0.574,-0.216 -0.503,-0.216 -0.43,-0.288 -0.431,-0.36 -0.359,-0.432 -0.358,-0.504 -0.216,-0.577 -0.071,-0.576 -0.287,0.072 -0.144,0 -0.143,0 -0.072,0 -0.933,0 -0.933,-0.072 -0.861,-0.144 -0.717,-0.216 -0.718,-0.288 -0.574,-0.288 -0.502,-0.36 -0.359,-0.36 0.861,-0.577 0.287,0.288 0.359,0.217 0.502,0.216 0.574,0.216 0.574,0.144 0.718,0.144 0.789,0.072 0.861,0 1.722,-0.144 -0.072,0.72 0,0.072 0.072,0.432 0.144,0.432 0.215,0.433 0.359,0.36 0.287,0.288 0.359,0.216 0.43,0.144 0.431,0.216 0.43,0.072 0.502,0.072 0.503,0.072 0.502,0 0.359,0 0.358,-0.072 0.359,-0.072 0.287,-0.072 0.359,-0.072 0.287,-0.144 0.359,-0.144 0.287,-0.144 0.43,-0.36 0.287,0.504 0.287,0.504 0.503,0.504 0.574,0.36 0.717,0.361 0.789,0.216 0.862,0.216 0.932,0.072 1.005,0 0.933,-0.072 0.861,-0.144 0.861,-0.216 0.717,-0.289 0.646,-0.288 0.574,-0.432 0.499,-0.36 0.36,-0.504 0.15,-0.288 0.86,0.072 0.71,-0.072 0.65,-0.216 0.65,-0.216 0.5,-0.361 0.43,-0.36 0.29,-0.504 0.21,-0.504 0.07,-0.504 -0.07,-0.216 -0.07,-0.216 -0.07,-0.216 -0.07,-0.217 -0.36,-0.648 0.79,-0.072 1.29,-0.072 1.29,-0.072 1.15,-0.072 1.15,-0.144 1.07,-0.072 1.01,-0.144 0.93,-0.216 0.86,-0.144 0.79,-0.144 0.72,-0.216 0.64,-0.216 0.58,-0.144 0.5,-0.217 0.43,-0.216 0.29,-0.144 0.21,-0.216 0.07,-0.144 -0.14,-0.216 -0.5,-0.288 -0.86,-0.288 -1.15,-0.216 -1.58,-0.288 -1.94,-0.216 -2.29,-0.144 -2.73,0 -0.57,0 0,-0.072 0.07,-0.144 0,-0.217 0.07,-0.216 -0.22,-0.144 -0.35,-0.144 -0.58,-0.144 -0.64,-0.144 -0.87,-0.144 -0.93,-0.144 -1.15,-0.144 -1.29,-0.072 L 99.229,25.2 97.65,25.128 96,25.056 l -1.794,0 -1.866,-0.072 -2.08,0.072 -2.153,0 -2.224,0.072 -0.861,0.072 -0.79,0 -0.861,0.072 -0.789,0.072 -0.789,0 -0.718,0.072 -0.789,0 -0.718,0.072 -0.574,-0.936 1.22,-0.072 1.148,-0.072 1.077,-0.072 0.932,-0.072 0.861,0 0.718,-0.072 0.574,0 0.359,0 1.722,-0.072 1.722,0 1.794,-0.073 1.722,0 1.722,0 1.65,0.073 1.65,0.072 1.507,0.072 1.438,0.072 1.36,0.144 1.29,0.144 1.08,0.216 0.93,0.144 0.79,0.288 0.65,0.216 0.43,0.288 0,0 0.07,0.144 0,0.072 0.07,0.072 0.57,0 0.72,0 0.79,0.072 0.93,0 0.94,0.072 0.93,0.072 1,0.072 1.01,0.144 0.93,0.144 0.93,0.145 0.79,0.216 0.72,0.288 0.65,0.288 0.43,0.36 0.28,0.36 0.15,0.432 -0.36,0.865 -0.36,0.288 -0.36,0.216 -0.57,0.288 -0.58,0.216 -0.71,0.216 -0.72,0.216 -0.86,0.216 -0.86,0.144 -0.94,0.216 -0.93,0.144 -1,0.144 -1.01,0.072 -1,0.144 -1.08,0.073 -1,0.072 -1.01,0.072 z"
                   style="fill:#93f7ff;fill-opacity:1;fill-rule:evenodd;stroke:none"
                   id="path3674"
                   inkscape:connector-curvature="0" />
                <path
                   d="m 65.433,27.865 0.287,0.144 0.574,0.216 0.861,0.216 1.148,0.216 1.435,0.144 1.722,0.144 2.081,0.144 2.368,0.072 1.65,0.072 -1.363,0.865 -0.287,0.216 -0.287,0.288 -0.287,0.288 -0.072,0.36 0,0 0,0 0,0 0,0 0,0.144 0.072,0.144 0.143,0.144 0.072,0.144 -0.861,0.577 -0.215,-0.289 -0.072,-0.216 -0.143,-0.288 0,-0.288 0,0 0,0 0,-0.072 0,0 0,-0.216 0.143,-0.288 0.072,-0.288 0.215,-0.288 -3.372,-0.216 -2.583,-0.288 -1.794,-0.289 -1.292,-0.36 -0.717,-0.288 -0.431,-0.36 -0.143,-0.288 0,-0.216 0,0 0,0 0,0 0,0 0.071,-0.36 0.287,-0.288 0.431,-0.288 0.574,-0.289 0.717,-0.288 0.862,-0.216 0.932,-0.216 1.077,-0.216 1.076,-0.216 1.148,-0.144 1.22,-0.144 1.291,-0.216 1.22,-0.072 1.292,-0.144 1.22,-0.144 1.219,-0.072 0.574,0.936 -1.506,0.144 -1.507,0.072 -1.364,0.144 -1.291,0.144 -1.22,0.144 -1.076,0.144 -1.077,0.216 -0.932,0.144 -0.861,0.145 -0.79,0.144 -0.645,0.216 -0.574,0.144 -0.503,0.144 -0.359,0.144 -0.287,0.144 -0.143,0.144 z"
                   style="fill:#93f7ff;fill-opacity:1;fill-rule:evenodd;stroke:none"
                   id="path3676"
                   inkscape:connector-curvature="0" />
                <path
                   d="m 64.141,36.796 -1.291,0 -1.148,0.072 -1.077,0 -1.004,0.072 -0.861,0.072 -0.789,0.072 -0.646,0.144 -0.574,0.072 0.287,0.072 0.287,0 0.287,0.072 0.43,0.072 0.431,0.073 0.43,0 0.574,0.072 0.574,0 1.651,0.144 -1.364,0.792 -0.143,0.072 -0.072,0.072 -0.072,0.072 0,0 0.144,0.144 0.287,0.144 0.574,0.144 0.718,0.072 0.861,-0.072 0,0.648 0,0.144 0.071,0.072 0.072,0.145 0.072,0.072 -0.789,0.504 -0.072,-0.144 -0.072,-0.072 -0.072,-0.144 -0.071,-0.144 0,0 0,0 0,0 0,0 -0.575,0 -0.502,-0.145 -0.502,-0.072 -0.359,-0.216 -0.359,-0.216 -0.215,-0.288 -0.143,-0.288 -0.072,-0.288 0,-0.072 0.072,0 0,-0.072 0,-0.072 -1.292,-0.144 -1.004,-0.144 -0.718,-0.216 -0.502,-0.144 -0.287,-0.144 -0.144,-0.216 -0.072,-0.145 0,-0.144 0.144,-0.36 0.43,-0.288 0.718,-0.288 1.005,-0.216 1.219,-0.144 1.579,-0.144 1.794,-0.072 2.152,0 0.718,0 0.717,0 0.718,0 0.646,0.072 0.646,0 0.645,0.072 0.574,0 0.503,0.072 -1.364,0.864 -0.43,0 -0.431,-0.072 -0.502,0 -0.431,0 -0.502,0 -0.502,0 -0.502,0 -0.503,0 z"
                   style="fill:#93f7ff;fill-opacity:1;fill-rule:evenodd;stroke:none"
                   id="path3678"
                   inkscape:connector-curvature="0" />
                <path
                   d="m 77.703,38.381 -0.144,0.432 -0.43,0.36 -0.646,0.288 -0.789,0.144 -0.861,0.144 -0.933,0.144 -0.861,0.072 -0.718,0 -0.215,0.649 -0.431,0.504 -0.645,0.36 -0.79,0.144 0,0 0,0 -0.071,0 0,0 -0.216,0.216 -0.287,0.144 -0.287,0.216 -0.287,0.144 -0.358,0.072 -0.359,0.072 -0.359,0.072 -0.43,0 -0.431,0 -0.359,-0.072 -0.43,-0.072 -0.287,-0.144 -0.359,-0.144 -0.287,-0.144 -0.215,-0.216 -0.216,-0.216 -0.215,0.072 -0.215,0.072 -0.287,0.072 -0.215,0 -0.646,-0.072 -0.574,-0.144 -0.431,-0.36 -0.358,-0.36 0.789,-0.504 0.215,0.216 0.287,0.144 0.359,0.072 0.359,0 0.215,0 0.215,-0.072 0.215,-0.072 0.216,-0.072 0.502,-0.288 0.143,0.504 0.287,0.288 0.431,0.288 0.574,0.144 0.718,0.072 0.717,-0.072 0.574,-0.144 0.359,-0.216 0.287,-0.288 0.143,-0.216 0.574,0 0.431,-0.072 0.359,-0.144 0.215,-0.217 0.072,-0.288 -0.216,-0.864 0.646,-0.072 0.861,0 0.79,-0.072 0.717,0 0.646,-0.072 0.502,-0.144 0.502,-0.072 0.359,-0.144 0.287,-0.072 -0.215,-0.072 -0.359,-0.072 -0.359,-0.072 -0.43,-0.072 -0.502,-0.072 -0.574,-0.072 -0.718,-0.072 -0.717,0 -0.503,0 0,0 0,-0.144 0,-0.072 0,-0.145 -0.215,-0.072 -0.287,-0.072 -0.359,-0.144 -0.502,-0.072 -0.574,-0.072 -0.646,-0.072 -0.717,-0.072 -0.79,-0.072 1.364,-0.864 0.645,0.072 0.646,0.072 0.502,0.072 0.503,0.144 0.43,0.072 0.287,0.144 0.287,0.144 0.216,0.144 0.861,0.072 0.861,0.072 0.861,0.072 0.717,0.144 0.646,0.216 0.502,0.289 0.287,0.288 0.144,0.36 z"
                   style="fill:#93f7ff;fill-opacity:1;fill-rule:evenodd;stroke:none"
                   id="path3680"
                   inkscape:connector-curvature="0" />
                <path
                   d="m 111.79,36.292 -5.39,-20.672 24.11,2.305 5.03,-0.36 -12.56,-3.241 -0.72,-1.585 -12.05,-2.161 -1.8,-1.8002 L 98.511,7.3373 72.967,2.6555 62.635,3.7359 31.063,6.2569 24.533,0.99891 23.457,0.13459 13.412,1.215 16.138,4.8163 15.923,5.8967 15.78,5.9688 15.349,6.0408 14.632,6.2569 13.77,6.545 12.694,6.9051 11.546,7.3373 10.255,7.8415 8.963,8.4897 7.5997,9.21 6.3799,9.9302 5.1601,10.795 4.012,11.731 l -0.9328,1.08 -0.7893,1.081 -0.5022,1.224 -0.287,1.297 0.0717,0.144 0.287,0.432 0.4305,0.648 0.5741,0.792 0.6458,0.865 0.7175,0.792 0.7175,0.72 0.7893,0.576 0.7893,0.577 0.7893,0.576 0.861,0.648 0.7893,0.648 0.7175,0.577 0.5745,0.504 0.358,0.288 0.144,0.144 0.215,0.072 0.502,0.144 0.79,0.144 1.004,0.216 1.22,0.216 1.363,0.072 1.435,-0.072 1.507,-0.144 0.861,-0.144 1.005,-0.144 1.22,-0.216 1.435,-0.144 1.435,-0.288 1.578,-0.216 1.651,-0.288 1.65,-0.216 1.579,-0.361 1.65,-0.288 1.578,-0.288 1.507,-0.288 1.364,-0.36 1.219,-0.36 1.005,-0.288 0.861,-0.36 47.142,-5.618 0.072,0.072 0.143,0.144 0.216,0.216 0.43,0.36 0.431,0.432 0.645,0.648 0.646,0.721 0.861,0.864 0.574,0.576 0.718,0.864 0.933,1.081 1.076,1.224 1.148,1.369 1.22,1.44 1.291,1.513 1.292,1.512 1.221,1.441 1.22,1.44 1.07,1.297 0.94,1.152 0.86,0.937 0.64,0.72 0.36,0.504 0.15,0.144 6.1,-0.504 z"
                   style="fill:#ffffff;fill-opacity:1;fill-rule:evenodd;stroke:none"
                   id="path3682"
                   inkscape:connector-curvature="0" />
                <path
                   d="m 1.7159,14.54 0.1435,-0.072 0.4305,-0.072 0.6458,-0.216 0.9328,-0.288 1.1481,-0.288 1.435,-0.361 1.5786,-0.432 1.7938,-0.36 2.009,-0.36 2.153,-0.432 2.296,-0.36 2.439,-0.288 2.584,-0.288 2.726,-0.217 2.799,-0.072 2.941,-0.072 2.727,0 2.296,-0.072 2.009,-0.072 1.579,-0.072 1.291,-0.072 1.077,-0.1438 0.789,-0.072 0.646,-0.1441 0.574,-0.144 0.359,-0.072 0.358,-0.1441 0.359,-0.144 0.359,-0.0721 0.43,-0.072 0.503,-0.072 0.646,-0.072 0.861,0 1.148,0 1.291,0.072 1.507,0.072 1.65,0.1441 1.651,0.072 1.793,0.144 1.723,0.1441 1.65,0.144 1.578,0.1441 1.507,0.1438 1.292,0.144 1.076,0.072 0.789,0.072 0.503,0.072 0.215,0 5.453,0.865 1.364,-0.504 L 68.662,9.4981 64.644,9.6421 64.428,9.5701 63.854,9.426 63.28,9.1379 62.85,8.5617 62.635,8.4177 62.132,8.2016 61.343,7.9855 60.41,7.8415 59.19,7.6254 57.899,7.4093 56.536,7.1932 55.1,6.9771 53.594,6.8331 52.087,6.689 50.652,6.545 49.288,6.4009 l -1.219,-0.072 -1.077,-0.072 -0.932,0 -0.646,0 -0.933,0 -1.579,0 -2.224,0 -2.727,0.072 -3.157,0.072 L 31.35,6.545 27.762,6.689 24.031,6.9771 20.228,7.4093 16.569,7.9135 13.053,8.5617 9.824,9.354 7.0257,10.362 4.6578,11.515 2.864,12.955 1.7159,14.54 Z"
                   style="fill:#d6ffff;fill-opacity:1;fill-rule:evenodd;stroke:none"
                   id="path3684"
                   inkscape:connector-curvature="0" />
                <path
                   d="M 75.335,4.0961 66.725,5.0324 66.366,7.8415 72.25,7.3373 73.756,8.9219 93.991,11.443 93.13,10.218 75.335,4.0961 Z"
                   style="fill:#d6ffff;fill-opacity:1;fill-rule:evenodd;stroke:none"
                   id="path3686"
                   inkscape:connector-curvature="0" />
                <path
                   d="m 131.59,17.925 -24.61,-4.321 8.25,-0.361 16.36,4.682 z"
                   style="fill:#d6ffff;fill-opacity:1;fill-rule:evenodd;stroke:none"
                   id="path3688"
                   inkscape:connector-curvature="0" />
                <path
                   d="m 87.82,15.62 0.287,-0.072 0.789,-0.144 1.077,-0.216 1.363,-0.288 1.291,-0.288 1.22,-0.288 1.005,-0.216 0.574,-0.144 0.717,0 1.364,0.072 1.722,0.144 1.941,0.216 1.93,0.144 1.58,0.216 1.15,0.072 0.43,0.072 5.02,20.888 L 96.143,16.845 87.82,15.62 Z"
                   style="fill:#d6ffff;fill-opacity:1;fill-rule:evenodd;stroke:none"
                   id="path3690"
                   inkscape:connector-curvature="0" />
                <path
                   d="m 3.5098,12.379 0.1435,-0.072 0.574,-0.144 0.7893,-0.216 1.148,-0.288 1.5068,-0.36 1.7221,-0.432 2.0805,-0.361 2.296,-0.432 2.584,-0.3599 2.87,-0.3601 3.013,-0.2881 3.373,-0.2881 3.516,-0.1441 3.731,-0.072 3.946,0.072 4.09,0.1441 0.072,0 0.144,-0.072 0.215,-0.0721 0.359,-0.072 0.43,-0.144 0.502,-0.1441 0.646,-0.072 0.718,-0.1441 0.789,-0.072 0.861,-0.144 1.005,0 1.004,-0.0721 1.148,0 1.148,0.0721 1.292,0.072 1.363,0.144 2.583,0.2881 2.153,0.1441 1.794,0.072 1.363,0.072 1.076,0 0.718,0 0.43,-0.072 0.144,0 -0.215,-2.3048 0.143,-0.3602 0.431,-0.7202 0.574,-0.7923 0.861,-0.5042 0.645,0.2161 0.431,0.7202 0.215,0.7203 0.072,0.3601 0.359,-0.072 0.933,-0.2161 1.363,-0.2881 1.578,-0.2881 1.651,-0.2161 1.507,-0.2161 1.148,-0.072 0.645,0.072 0.359,0.4322 0,0.5042 -0.215,0.3601 -0.144,0.1441 -0.717,1.6566 3.588,1.4405 11.48,1.0801 4.808,0.505 -0.144,-0.289 -0.143,-0.7919 0,-0.8643 0.502,-0.7203 0.359,-0.216 0.358,-0.1441 0.287,0 0.287,0 0.287,0 0.359,0.072 0.287,0 0.359,0 0.646,0.2161 0.502,0.5042 0.359,0.5762 0.072,0.2161 8.683,0.072 -0.43,3.025 26.4,5.402 3.45,-0.576 -12.27,-2.521 1.43,-0.864 -0.86,-0.721 -11.55,-1.8 0.21,-1.297 -5.38,-1.2242 -0.07,-0.072 -0.07,-0.2161 -0.29,-0.3601 -0.36,-0.4322 -0.5,-0.4322 -0.64,-0.4321 -0.94,-0.2881 -1.07,-0.2881 -1.22,-0.2161 -1.15,-0.2161 -1.08,-0.1441 -1,-0.144 -0.863,-0.1441 -0.861,-0.072 -0.646,0 -0.574,0 -1.65,-0.144 -15.571,-3.9615 -0.143,0 -0.431,0 -0.645,0 -0.79,0.072 -1.004,0 -1.077,0.072 -1.219,0 -1.292,0.0721 -1.291,0 -1.22,0 -1.22,0.072 -1.076,0 -1.005,0.072 -0.861,0 -0.646,0 -0.43,0 -0.574,0 -1.005,0.072 -1.507,0.0721 -1.794,0.144 -2.08,0.0721 -2.368,0.144 -2.44,0.1441 -2.511,0.216 -2.512,0.1441 -2.439,0.1441 -2.296,0.216 -2.081,0.1441 -1.866,0.144 -1.435,0.0721 -1.076,0.144 -0.574,0.072 L 36.301,3.6639 35.44,3.808 34.651,3.952 33.79,4.0961 33,4.2401 l -0.645,0.1441 -0.431,0.072 -0.143,0 L 29.054,3.88 28.982,3.808 28.91,3.5919 28.839,3.3038 28.91,2.7996 28.982,2.5115 28.91,2.2234 28.839,1.9353 28.695,1.6471 28.48,1.4311 28.049,1.287 27.547,1.215 26.901,1.215 24.246,1.7192 23.816,0.85485 20.444,1.5751 20.3,1.5031 20.013,1.359 19.583,1.215 19.008,1.0709 18.291,0.99891 17.573,1.0709 16.856,1.287 16.21,1.6471 16.138,2.7996 16.856,5.6806 16.712,5.7527 16.354,5.8247 15.78,6.0408 15.062,6.3289 14.201,6.689 13.196,7.0492 12.048,7.4813 10.972,7.9855 9.7523,8.4897 8.6042,8.9939 7.5279,9.5701 6.4516,10.146 5.5188,10.723 4.6578,11.299 4.012,11.803 3.5098,12.379 Z"
                   style="fill:#bcd3ff;fill-opacity:1;fill-rule:evenodd;stroke:none"
                   id="path3692"
                   inkscape:connector-curvature="0" />
                <path
                   d="m 15.78,7.4813 0.358,0 0.933,0 1.435,-0.072 1.722,-0.072 1.866,-0.0721 1.794,-0.144 1.722,-0.1441 1.435,-0.216 1.148,-0.2161 0.861,-0.1441 0.789,-0.2161 0.503,-0.144 0.43,-0.1441 0.215,-0.144 0.144,-0.0721 0.072,0 -5.023,-2.1608 -4.664,0.5763 0,0.072 -0.144,0.144 -0.143,0.2161 -0.215,0.2881 -0.287,0.2881 -0.359,0.2161 -0.431,0.1441 -0.574,0.072 -0.646,0.072 -0.645,0.2161 -0.574,0.3601 -0.574,0.3602 -0.431,0.2881 -0.359,0.3601 -0.287,0.2161 -0.071,0.072 z"
                   style="fill:#87b2ff;fill-opacity:1;fill-rule:evenodd;stroke:none"
                   id="path3694"
                   inkscape:connector-curvature="0" />
                <path
                   d="m 106.98,12.379 0.5,-2.5208 16.86,3.4568 -3.73,1.225 -13.63,-2.161 z"
                   style="fill:#87b2ff;fill-opacity:1;fill-rule:evenodd;stroke:none"
                   id="path3696"
                   inkscape:connector-curvature="0" />
                <path
                   d="m 75.191,6.0408 0.144,0 0.359,0.072 0.574,0.1441 0.789,0.072 0.861,0.2161 1.005,0.144 1.076,0.2161 1.148,0.1441 1.076,0.216 1.148,0.2161 1.077,0.1441 0.932,0.144 0.861,0.1441 0.718,0.144 0.502,0.0721 0.287,0.072 0.503,0.072 0.861,0.1441 1.004,0.072 1.076,0.144 1.077,0.1441 0.861,0.072 0.646,0.0721 0.215,0 2.152,-2.1608 -18.081,-4.3217 -3.588,1.0804 0.215,0.0721 0.359,0.3601 0.215,0.7923 -0.072,1.2965 z"
                   style="fill:#87b2ff;fill-opacity:1;fill-rule:evenodd;stroke:none"
                   id="path3698"
                   inkscape:connector-curvature="0" />
                <path
                   d="M 42.902,7.8415 42.831,7.7694 42.615,7.4813 42.328,7.1212 41.898,6.689 41.396,6.2569 40.75,5.8247 40.104,5.4646 39.315,5.1765 39.243,5.0324 l 0.502,-0.072 1.005,-0.1441 1.435,-0.144 1.722,-0.1441 2.081,-0.144 2.224,-0.1441 2.296,-0.072 2.368,-0.1441 2.296,-0.144 2.153,-0.072 1.937,-0.1441 1.722,-0.072 1.22,0 0.861,-0.0721 0.287,0 1.292,0.3602 -0.144,0.144 -0.43,0.2881 -0.503,0.6483 -0.43,0.8643 -0.215,0 -0.574,0 -0.862,0 -1.219,0 -1.364,0 -1.578,0 -1.651,0.072 -1.793,0.0721 -1.794,0.072 -1.794,0.144 -1.65,0.1441 -1.579,0.2161 -1.435,0.2881 -1.22,0.2881 -0.933,0.2881 -0.574,0.4322 z"
                   style="fill:#87b2ff;fill-opacity:1;fill-rule:evenodd;stroke:none"
                   id="path3700"
                   inkscape:connector-curvature="0" />
                <path
                   d="m 66.366,6.617 -0.144,-0.9364 -0.43,-0.7202 -0.574,-0.5042 -0.79,-0.1441 -0.789,0.1441 -0.574,0.5042 -0.43,0.7202 -0.144,0.9364 0.144,0.8643 0.43,0.7203 0.574,0.5042 0.789,0.144 0.79,-0.144 0.574,-0.5042 0.43,-0.7203 0.144,-0.8643 z"
                   style="fill:#0002bf;fill-opacity:1;fill-rule:evenodd;stroke:none"
                   id="path3702"
                   inkscape:connector-curvature="0" />
                <path
                   d="m 10.039,24.84 -0.0714,0 L 9.824,24.768 9.537,24.624 9.25,24.48 8.8913,24.336 8.5325,24.047 8.1737,23.831 l -0.287,-0.36 0.5023,-0.288 0.287,0 0.6458,0 1.0042,0 1.148,-0.072 1.148,0 1.077,-0.072 0.861,-0.072 0.502,-0.144 0,1.657 -0.143,0 -0.431,0.072 -0.646,0.072 -0.717,0.072 -0.861,0.072 -0.861,0.072 -0.718,0 -0.646,0 z"
                   style="fill:#60a0ff;fill-opacity:1;fill-rule:evenodd;stroke:none"
                   id="path3704"
                   inkscape:connector-curvature="0" />
                <path
                   d="m 5.6624,18.285 -0.5741,-2.377 0.2153,0 0.5023,-0.072 0.861,-0.072 1.1481,-0.072 1.435,-0.072 1.65,-0.144 1.938,-0.144 2.152,-0.144 2.368,-0.144 2.44,-0.144 2.655,-0.216 2.798,-0.216 2.87,-0.216 2.942,-0.216 3.014,-0.216 3.085,-0.216 3.085,-0.216 3.014,-0.217 3.014,-0.216 3.013,-0.216 2.871,-0.216 2.798,-0.216 2.727,-0.216 2.511,-0.216 2.368,-0.216 2.224,-0.144 2.009,-0.216 1.722,-0.144 1.507,-0.144 1.22,-0.072 0.933,-0.144 0.646,-0.072 4.377,0.936 -0.144,0 -0.431,0.072 -0.717,0.072 -0.933,0.144 -1.22,0.144 -1.435,0.144 -1.65,0.216 -1.866,0.216 -2.009,0.288 -2.152,0.216 -2.368,0.289 -2.44,0.288 -2.583,0.288 -2.655,0.288 -2.798,0.36 -2.87,0.288 -2.87,0.288 -3.014,0.36 -2.942,0.288 -3.014,0.289 -3.013,0.288 -2.942,0.288 -2.942,0.216 -2.942,0.288 -2.798,0.216 -2.727,0.216 -2.655,0.144 -2.583,0.144 -2.44,0.144 -2.2957,0.072 -2.1526,0.072 -1.9373,0 z"
                   style="fill:#ea0000;fill-opacity:1;fill-rule:evenodd;stroke:none"
                   id="path3706"
                   inkscape:connector-curvature="0" />
                <path
                   d="M 3.8685,19.942 4.0838,19.726 4.5143,19.15 5.0166,18.285 5.3753,17.277 5.4471,16.269 5.0166,15.26 3.8685,14.54 1.7877,14.036 l -0.1435,0.216 -0.2871,0.72 -0.35872,0.864 -0.14351,1.081 0.07176,0.576 0.21527,0.576 0.3588,0.504 0.5022,0.433 1.8656,0.936 z"
                   style="fill:#ea0000;fill-opacity:1;fill-rule:evenodd;stroke:none"
                   id="path3708"
                   inkscape:connector-curvature="0" />
                <path
                   d="M 98.511,9.426 98.368,8.4897 97.937,7.7694 97.291,7.2652 l -0.789,-0.144 -0.789,0.144 -0.574,0.5042 -0.431,0.7203 -0.143,0.9363 0.143,0.864 0.431,0.721 0.574,0.504 0.789,0.144 0.789,-0.144 0.646,-0.504 0.431,-0.721 0.143,-0.864 z"
                   style="fill:#0002bf;fill-opacity:1;fill-rule:evenodd;stroke:none"
                   id="path3710"
                   inkscape:connector-curvature="0" />
                <path
                   d="m 105.33,37.156 -0.22,-0.288 -0.57,-0.648 -0.72,-0.864 -0.93,-1.081 -1.08,-1.296 -1.22,-1.441 -1.218,-1.512 -1.363,-1.585 -1.292,-1.584 -1.363,-1.585 -1.22,-1.513 -1.148,-1.368 -1.004,-1.225 -0.861,-1.008 -0.646,-0.72 -0.359,-0.504 -0.359,-0.433 -0.358,-0.432 -0.359,-0.36 -0.359,-0.288 -0.287,-0.216 -0.287,-0.216 -0.215,-0.144 -0.144,-0.072 -1.004,0.072 -1.148,0.144 -1.22,0.144 -1.435,0.144 -1.435,0.144 -1.579,0.144 -1.722,0.216 -1.722,0.144 -1.794,0.216 -1.865,0.216 -1.866,0.216 -1.937,0.217 -1.938,0.216 -1.937,0.216 -2.009,0.216 -1.938,0.216 -1.865,0.216 -1.866,0.216 -1.865,0.216 -1.794,0.216 -1.65,0.216 -1.651,0.216 -1.507,0.144 -1.435,0.144 -1.291,0.217 -1.22,0.144 -1.076,0.072 -0.933,0.144 -0.718,0.072 -0.574,0.072 -0.43,0.072 -0.215,0 -1.579,0.504 -1.65,0.504 -1.651,0.432 -1.794,0.504 -1.722,0.361 -1.793,0.432 -1.794,0.36 -1.722,0.288 -1.722,0.36 -1.651,0.216 -1.65,0.216 -1.507,0.216 -1.363,0.144 -1.292,0.144 -1.22,0.073 -1.004,0.072 -0.215,0 -0.216,0 -0.215,0 -0.215,0 -0.789,-0.072 -0.718,-0.073 -0.718,-0.144 -0.717,-0.144 -0.646,-0.216 -0.574,-0.216 -0.574,-0.288 -0.574,-0.36 -1.148,-0.792 2.368,-0.432 0.072,0 0.574,0.072 0.574,0 0.502,0 0.43,0 0.359,-0.072 0.359,0 0.287,-0.073 0.215,-0.072 0.072,-0.144 0,-0.144 0,-0.072 0.072,-0.216 -0.431,0.072 -0.502,0.072 -0.431,0 -0.43,0.072 -0.502,0 -0.431,0 -0.502,0 -0.431,0 -1.0042,0 L 7.8867,23.471 7.7432,23.327 7.4562,23.039 7.0257,22.751 6.4516,22.391 5.8059,21.959 5.5188,21.743 5.2318,21.527 4.8731,21.31 4.5861,21.094 4.2273,20.878 3.9403,20.662 3.5815,20.446 3.2945,20.23 2.864,19.87 2.4334,19.582 2.0747,19.294 1.6442,19.006 1.2854,18.645 0.92663,18.285 0.71137,17.853 0.49611,17.421 0.3526,16.917 l 0,-0.144 0,-0.144 0,-0.072 0,-0.144 0.07175,-0.865 0.35877,-0.936 0.50228,-0.936 0.7175,-1.081 0.6458,-0.72 0.7175,-0.72 L 4.1555,10.506 5.0883,9.9302 6.0211,9.354 7.0257,8.7778 8.0302,8.2736 9.0348,7.8415 10.039,7.4093 11.044,6.9771 11.977,6.689 l 0.861,-0.3601 0.789,-0.2161 0.646,-0.2161 0.574,-0.144 0.43,-0.1441 0.072,-0.144 0,-0.0721 0,-0.144 0,-0.1441 L 15.134,4.8163 14.775,4.2401 14.201,3.4478 13.627,2.5835 13.053,1.7192 12.551,0.99891 12.192,0.49472 12.048,0.27864 17.502,0.20661 17.43,0.85485 17.358,1.5751 l 0.072,1.0084 0.215,1.0084 0.502,0.7923 0.216,0.216 0.215,0.0721 0.359,0.072 0.287,0 0.646,-0.2161 0.358,-0.5042 0.144,-0.5762 0,-0.3601 L 20.3,2.3674 20.013,1.7912 19.583,1.287 19.08,1.0709 l -0.574,0 0,-0.57618 0.072,-0.28811 0.215,-0.2160781 0.359,-0.0720249 0.431,-0.072027 1.363,-0.14406 1.937,-0.14405 0,0 0.718,0.14405 0.502,0.216087 0.43,0.288103 0.288,0.28811 0.287,0 0.358,0 0.431,0 0.43,0 0.431,0 0.359,0 0.287,0 0.071,0 0.503,0.07203 0.502,0.07202 0.359,0.21608 0.358,0.28815 0.287,0.4321 0.144,0.3602 0.072,0.3601 0,0.2161 0,0 0,0.072 0,0 0,0 0,0.072 0,0.0721 -0.072,0.072 -0.072,0.2161 -0.072,0.144 0.575,0.2161 0.574,0.2161 0.502,0.144 0.287,0.1441 2.511,-0.3602 2.727,-0.3601 2.87,-0.3601 2.942,-0.2881 3.013,-0.2881 3.014,-0.2161 2.942,-0.2161 2.798,-0.1441 2.727,-0.144 2.511,-0.1441 2.225,-0.144 1.937,-0.072 1.65,-0.0721 1.22,-0.07199 0.79,0 0.287,0 0.932,0 -1.004,2.30489 -0.144,0 -0.502,0.144 -0.574,0.072 -0.574,0.0721 0.287,0.2881 0.215,0.3601 0.287,0.3601 0.216,0.4322 0.071,0.3601 0.072,0.2881 0.072,0.3602 0,0.3601 -0.072,0.5762 -0.072,0.6483 -0.215,0.6482 -0.359,0.7203 -0.072,0.144 -0.143,0.0721 -0.072,0.072 -0.143,0.072 -0.287,0.1441 -0.359,0.144 -0.359,0.072 -0.43,0 -0.503,-0.072 -0.43,-0.144 L 62.922,9.0659 62.491,8.5617 62.204,7.7694 62.061,6.9051 61.63,6.8331 60.912,6.7611 60.051,6.689 59.19,6.617 58.329,6.545 57.54,6.4729 l -0.502,-0.072 -0.215,0 -0.144,0 -0.43,0 -0.575,0 -0.717,0.072 -0.861,0 -1.005,0.0721 -1.076,0.072 -1.076,0.072 -1.22,0.1441 -1.148,0.144 -1.22,0.1441 -1.148,0.2161 -1.076,0.216 -1.005,0.2882 -0.861,0.3601 -0.789,0.3601 -0.359,0.2161 -0.287,0.1441 -0.143,0.144 -0.072,0.072 0.287,0.1441 0.43,0.144 0.574,0.1441 0.718,0.144 0.789,0.1441 0.861,0.072 0.861,0.0718 0.933,0 0.502,0 0.79,0.072 1.076,0.072 1.22,0.072 1.507,0.072 1.578,0.072 1.65,0.144 1.651,0.144 1.722,0.073 1.65,0.144 1.507,0.072 1.363,0.144 1.148,0.072 1.005,0.072 0.646,0.072 0.287,0 0.574,0.072 0,2.017 -33.15,3.745 -1.077,0.072 -1.363,0.144 -1.722,0.144 -1.937,0.144 -2.153,0.144 -2.224,0.144 -2.368,0.144 -2.368,0.216 -2.368,0.144 -2.224,0.144 -2.081,0.072 -1.9374,0.145 -1.6504,0.072 -1.435,0.072 -1.0046,0.072 -0.574,0 -1.0046,0 0.5023,-0.937 0.0718,-0.216 0.1435,-0.432 -0.0718,-0.648 -0.4305,-0.72 -0.7893,-0.937 1.2198,0 0.4305,0 1.0763,-0.072 1.6504,-0.144 2.153,-0.144 2.654,-0.144 2.942,-0.216 3.229,-0.216 3.516,-0.216 3.588,-0.288 3.731,-0.216 3.659,-0.289 3.588,-0.288 3.444,-0.216 3.157,-0.288 2.942,-0.288 2.512,-0.216 0.143,1.152 -2.726,0.288 -2.871,0.217 -3.013,0.288 -3.157,0.216 -3.229,0.288 -3.229,0.216 -3.229,0.216 -3.229,0.288 -3.085,0.216 -2.942,0.144 -2.799,0.216 -2.583,0.144 -2.296,0.144 -2.009,0.145 -1.7221,0.072 -1.2915,0.072 0.1435,0.288 0.0717,0.288 0,0.216 0,0.288 0,0.144 0,0.144 0,0.072 0,0.144 1.0046,-0.072 1.2915,-0.072 1.5783,-0.072 1.722,-0.072 1.938,-0.144 2.081,-0.144 2.08,-0.144 2.225,-0.072 2.152,-0.144 2.153,-0.144 2.009,-0.144 1.866,-0.144 1.722,-0.144 1.507,-0.144 1.219,-0.145 0.933,-0.072 0.359,-0.072 0.933,-0.072 1.507,-0.144 2.009,-0.216 2.296,-0.288 2.583,-0.288 2.798,-0.288 2.942,-0.288 2.87,-0.36 2.87,-0.288 2.655,-0.289 2.44,-0.288 2.153,-0.216 1.65,-0.216 1.22,-0.144 0.574,-0.072 -0.718,-0.072 -1.004,-0.072 -1.077,-0.072 -1.291,-0.072 -1.364,-0.072 -1.506,-0.144 -1.507,-0.072 -1.507,-0.144 -1.435,-0.072 -1.435,-0.072 -1.363,-0.144 -1.22,-0.072 -1.077,-0.072 -0.861,0 -0.645,-0.072 -0.431,0 -0.789,0 -0.933,-0.072 -1.076,-0.072 -1.005,-0.144 -1.004,-0.217 -0.861,-0.288 -0.574,-0.4318 -0.359,-0.5042 0,-0.072 0,0 -0.072,-0.072 0,-0.072 0.144,-0.5763 0.43,-0.5041 0.502,-0.3602 0.431,-0.2161 0.789,-0.4321 0.933,-0.3601 1.076,-0.2882 1.148,-0.216 1.148,-0.2881 1.22,-0.1441 1.292,-0.1441 1.148,-0.144 1.22,-0.072 1.076,-0.0721 1.004,-0.072 0.933,0 0.718,-0.072 0.646,0 0.358,0 0.216,0 0.071,0 6.243,0.5762 0.072,0.5042 0.071,0.7923 0.144,0.5762 0.215,0.4322 0.287,0.2881 0.359,0.144 0.359,0 0.43,-0.144 0.287,-0.1441 0.144,-0.5042 0.143,-0.4321 0.072,-0.5042 0.072,-0.4322 0,-0.2881 L 65.72,5.8967 65.648,5.6806 65.576,5.4646 65.218,4.7443 64.715,4.2401 64.285,3.88 64.07,3.808 62.132,3.0877 l 2.081,-0.3601 0.072,0 0.215,-0.0721 0.359,-0.072 0.359,-0.072 0.43,-0.0721 0.431,-0.072 0.358,0 0.216,-0.072 0,-0.072 0.072,0 0,0 0,0 -1.005,0 -1.292,0.072 -1.578,0.072 -1.866,0.072 -2.081,0.1441 -2.296,0.072 -2.368,0.1441 -2.511,0.2161 -2.655,0.144 -2.655,0.2161 -2.655,0.2161 -2.654,0.2161 -2.584,0.2881 -2.511,0.2881 -2.368,0.2881 -2.224,0.3601 -0.144,0.072 -3.444,-1.2964 0.072,-0.2161 0.215,-0.4322 0.287,-0.5042 0.144,-0.2881 -0.072,-0.072 0,-0.1441 -0.072,-0.072 -0.072,-0.144 -0.143,-0.1441 -0.215,-0.072 -0.216,-0.0721 -0.287,0 L 24.246,1.7192 24.031,1.4311 23.959,1.287 23.744,1.0709 23.385,0.85485 22.811,0.7108 l -0.502,0.07203 -0.502,0.07202 -0.502,0 -0.431,0.07203 0.287,0.50422 0.215,0.5042 0.072,0.5762 0.072,0.5762 0,0 0,0 0,0 0,0.072 -0.072,0.5762 -0.072,0.5042 -0.215,0.4322 -0.215,0.4321 -0.359,0.3602 -0.359,0.216 -0.43,0.2161 L 19.367,5.9688 18.721,5.8967 18.219,5.8247 17.717,5.5366 17.286,5.1765 16.712,4.3842 16.425,3.4478 16.282,2.5115 16.21,1.6471 l 0,-0.072 0,-0.072 0,-0.072 0,-0.0721 -0.43,0 -0.431,0.0721 -0.574,0 -0.574,0 0.359,0.4321 0.359,0.5762 0.358,0.5042 0.431,0.5762 0.287,0.5042 0.287,0.4322 0.215,0.2881 0.072,0.072 L 16.354,6.545 15.995,6.617 15.851,6.689 15.493,6.7611 14.99,6.9051 14.345,7.1212 13.483,7.4093 12.622,7.6974 11.618,8.0575 10.542,8.4897 9.4653,8.9219 8.389,9.426 l -1.1481,0.576 -1.0045,0.576 -1.0046,0.649 -0.861,0.648 -0.7893,0.72 -0.6458,0.72 -0.6458,0.865 -0.4305,0.864 -0.287,0.72 -0.0717,0.649 0,0.072 0,0.072 0,0.072 0,0.072 0.2152,0.648 0.5023,0.576 0.574,0.504 0.7176,0.505 0.5022,0.36 0.287,0.216 0.2871,0.216 0.3587,0.216 0.287,0.216 0.287,0.216 0.3588,0.216 0.287,0.144 0.287,0.216 0.5741,0.432 0.574,0.361 0.4305,0.36 0.3588,0.216 0.3587,0 0.5023,0.072 0.5023,0.072 0.2153,0 0.1434,0 0.359,0 0.287,0 0.143,0 0.574,0 0.574,0 0.503,0 0.574,-0.072 0.502,0 0.502,-0.144 0.574,-0.072 0.503,-0.144 0.932,-0.288 -0.717,3.097 -0.287,0.144 -0.072,0 -0.143,0.072 -0.216,0.072 -0.287,0.072 -0.358,0 -0.431,0.072 -0.502,0.072 -0.574,0 0.358,0.144 0.431,0.072 0.43,0.072 0.359,0.072 0.431,0.072 0.43,0 0.503,0 0.43,0 1.005,-0.072 1.148,-0.072 1.291,-0.144 1.435,-0.144 1.507,-0.216 1.579,-0.216 1.65,-0.288 1.722,-0.288 1.722,-0.361 1.722,-0.36 1.794,-0.36 1.722,-0.432 1.722,-0.432 1.651,-0.504 1.65,-0.505 1.507,-0.504 0.072,0 0.071,0 0.144,0 0.359,-0.072 0.502,-0.072 0.717,-0.072 0.861,-0.072 1.077,-0.144 1.148,-0.144 1.291,-0.144 1.435,-0.216 1.579,-0.144 1.65,-0.216 1.722,-0.216 1.794,-0.216 1.794,-0.216 1.937,-0.216 1.938,-0.217 2.009,-0.216 2.009,-0.216 1.937,-0.216 2.009,-0.216 1.938,-0.216 2.009,-0.216 1.865,-0.216 1.866,-0.216 1.722,-0.216 1.722,-0.144 1.579,-0.216 1.507,-0.144 1.435,-0.145 1.219,-0.072 1.148,-0.144 1.005,-0.072 0.144,0 0.143,0.072 0.072,0 0.215,0.144 0.287,0.144 0.359,0.289 0.502,0.36 0.431,0.432 0.574,0.504 0.502,0.648 0.359,0.432 0.574,0.721 0.789,0.864 0.861,1.152 1.076,1.297 1.148,1.368 1.22,1.441 1.292,1.513 1.291,1.512 1.221,1.513 1.15,1.44 1.15,1.297 0.93,1.152 0.86,1.009 0.64,0.792 0.44,0.504 0.28,-0.072 0.58,0 0.71,-0.072 0.79,-0.072 0.86,-0.072 0.79,-0.072 0.72,0 0.5,-0.072 -0.36,-1.297 -0.71,-2.521 -0.94,-3.457 -1,-3.745 -1.08,-3.746 -0.86,-3.241 -0.64,-2.233 -0.22,-0.864 0.29,0 0.79,0.144 1.29,0.072 1.65,0.216 1.94,0.144 2.22,0.216 2.3,0.288 2.44,0.216 2.36,0.217 2.37,0.288 2.16,0.216 1.93,0.144 1.65,0.216 1.29,0.072 0.87,0.144 0.28,0 0.15,0 0.35,0 0.58,0 0.64,0 0.87,0 0.93,0 1,-0.072 1.01,0 -1.08,-0.216 -1,-0.216 -0.94,-0.216 -0.86,-0.144 -0.71,-0.144 -0.58,-0.144 -0.36,-0.072 -0.14,0 -0.43,-0.073 -1.01,-0.144 -1.5,-0.216 -1.65,-0.216 -1.73,-0.216 -1.5,-0.216 -1.01,-0.144 -0.43,-0.072 0,-1.224 0.07,0 0.15,0 0.29,0 0.28,-0.072 0.43,0 0.36,-0.072 0.43,0 0.43,-0.073 -0.93,-0.144 -0.93,-0.144 -0.94,-0.144 -1,-0.144 -1,-0.144 -0.94,-0.144 -1,-0.072 -0.86,-0.144 -0.86,-0.144 -0.79,-0.144 -0.72,-0.072 -0.65,-0.144 -0.43,-0.072 -0.43,0 -0.21,-0.072 -0.08,0 0.08,-0.144 0.14,-0.36 0.14,-0.433 0.15,-0.288 -0.58,-0.072 -0.79,-0.144 -0.93,-0.2158 -0.93,-0.144 -0.93,-0.1441 -0.79,-0.144 -0.51,-0.1441 -0.21,0 0.14,-0.6482 0,0 0.07,-0.0721 0,-0.144 0,-0.072 0,-0.1441 -0.07,-0.144 -0.07,-0.2161 -0.07,-0.1441 -0.29,-0.2881 -0.43,-0.2161 -0.5,-0.216 -0.65,-0.1441 -3.3,-0.3601 -0.07,0 -0.14,-0.0721 -0.36,-0.144 -0.58,-0.1441 -0.71,-0.216 -0.792,-0.1441 -0.933,-0.072 -0.861,0 -0.79,0.144 L 96.861,5.9688 96.646,5.8967 96.43,5.8247 96,5.7527 95.282,5.5366 94.35,5.3205 93.273,5.0324 92.053,4.7443 90.762,4.3842 89.327,4.0961 87.964,3.7359 86.528,3.3758 85.237,3.0877 83.945,2.7276 82.869,2.5115 81.936,2.2954 81.147,2.0793 80.645,2.0073 79.927,1.9353 78.994,1.7912 77.918,1.7192 76.77,1.6471 l -1.076,0 -1.005,-0.072 -0.861,-0.072 -0.574,0 -0.143,0.144 -0.144,0.2882 -0.215,0.216 -0.287,0.3602 0.43,0 0.431,0.072 0.43,0.072 0.431,0.0721 0.359,0.144 0.358,0.1441 0.359,0.216 0.215,0.2161 0.287,0.4322 0.144,0.4321 0.143,0.3602 0,0.4321 0,0.2881 -0.071,0.2161 0,0.2161 -0.072,0.1441 -0.144,0.3601 -0.215,0.2881 -0.287,0.2161 -0.287,0.072 -0.215,0.072 -0.359,0.1441 -0.359,0.144 -0.502,0.2161 -0.43,0.2161 -0.503,0.2161 -0.502,0.2161 -0.431,0.216 -0.143,0.2161 -0.287,0.2161 -0.215,0.2881 -0.072,0.072 -0.072,0 -0.143,0.0721 -0.144,0.072 -0.072,0.072 0.718,0.1441 0.789,0.216 0.79,0.2161 0.717,0.2158 0.718,0.144 0.502,0.144 0.359,0.144 0.143,0 0.359,0 0.861,0.145 1.363,0.144 1.794,0.216 2.153,0.216 2.296,0.288 2.511,0.288 2.655,0.288 2.583,0.288 2.512,0.288 2.367,0.216 2.081,0.288 1.792,0.217 1.37,0.144 0.93,0.072 0.36,0.072 0.14,-0.072 0.43,-0.072 0.5,-0.144 0.58,-0.072 0.57,-0.145 0.43,-0.144 0.36,-0.072 0.14,0 0.15,0 0.28,0 0.51,0.072 0.64,0 0.72,0.072 0.86,0 0.86,0.072 0.86,0 -0.71,-0.288 -0.65,-0.288 -0.65,-0.288 -0.5,-0.216 -0.5,-0.144 -0.43,-0.216 -0.22,-0.072 -0.14,-0.072 -0.29,0 -0.57,0 -0.72,0 -0.86,0 -0.86,0 -0.72,0 -0.5,0 -0.22,0 -0.21,0 -0.65,0 -0.79,0.072 -1,0.072 -1.005,0 -0.789,0.072 -0.646,0 -0.215,0 0.359,-0.864 0.143,-0.505 0.215,-0.6478 0,-0.7923 L 98.009,8.4177 97.865,8.2016 97.65,7.9855 97.435,7.8415 97.148,7.7694 l -0.574,-0.144 -0.502,0.072 -0.431,0.1441 -0.359,0.3601 -0.287,0.5762 -0.071,0.7203 0,0.6479 0.215,0.504 0.646,1.009 -19.159,-2.1609 0.144,-1.1525 0.143,0 0.503,0.0721 0.789,0.072 1.005,0.144 1.148,0.1441 1.363,0.1441 1.435,0.144 1.507,0.1441 1.507,0.216 1.506,0.1441 1.436,0.144 1.291,0.1441 1.22,0.1438 0.933,0.072 0.789,0.072 0.431,0.072 0,-0.144 0,-0.1438 -0.072,-0.2161 0,-0.144 0.072,-0.5762 0.071,-0.5042 0.216,-0.5042 0.287,-0.5042 0.215,-0.2161 0.215,-0.216 0.287,-0.2161 0.359,-0.1441 0.43,-0.144 0.431,-0.0721 0.574,0 0.646,0.1441 0.502,0.2161 0.431,0.2881 0.287,0.3601 0.287,0.4322 0.143,0.3601 0.072,0.3601 0.072,0.2882 0,0.3601 0,0.3601 -0.072,0.3599 0,0.36 -0.072,0.288 0.431,0 0.572,-0.072 0.58,0 0.64,0 0.5,-0.072 0.43,0 0.29,0 0.14,0 5.03,0 7.03,2.954 -0.29,1.08 -0.36,0 -0.86,-0.072 -1.29,0 -1.43,-0.072 -1.51,-0.072 -1.29,0 -0.94,-0.072 -0.35,0 -0.22,0 -0.36,0.072 -0.5,0.144 -0.57,0.144 -0.58,0.072 -0.5,0.144 -0.36,0.072 -0.14,0 -28.202,-3.169 -8.036,-2.1609 0.143,-0.072 0.359,-0.1441 0.502,-0.2161 0.574,-0.216 0.574,-0.2882 0.502,-0.216 0.359,-0.1441 0.215,-0.072 0.144,-0.2161 0.287,-0.2161 0.215,-0.2881 0.072,-0.072 0.072,-0.072 0.215,-0.0721 0.43,-0.216 0.503,-0.2161 0.574,-0.2881 0.574,-0.2161 0.574,-0.2881 0.43,-0.1441 0.359,-0.144 0,0 0.072,-0.0721 0.072,-0.144 0,-0.1441 0,-0.072 0.071,0 0,-0.072 0,-0.072 0,-0.2881 L 74.833,4.6723 74.689,4.3842 74.546,4.1681 74.402,4.024 74.115,3.952 73.756,3.88 73.326,3.808 72.824,3.7359 l -0.503,0 -0.502,0 -0.502,0 -1.22,0.0721 2.655,-3.45733 0.287,0 0.287,0 0.717,0 1.005,0.07202 1.22,0.07203 1.291,0.07203 1.292,0.07202 1.076,0.07203 0.933,0.14405 0.502,0.07203 0.646,0.21612 0.933,0.144 1.004,0.2881 1.148,0.2881 1.292,0.2881 1.291,0.2881 1.364,0.3602 1.291,0.3601 1.292,0.2881 1.22,0.2881 1.148,0.2881 1.004,0.2881 0.79,0.1441 0.645,0.2161 0.431,0.072 0.861,-0.1441 0.933,0 0.861,0.0721 0.864,0.144 0.71,0.1441 0.65,0.2161 0.5,0.144 0.29,0.1441 0.14,0 0.43,0.072 0.51,0 0.57,0.072 0.57,0.072 0.43,0 0.36,0.0721 0.15,0 0.5,0.072 0.43,0.072 0.36,0.1441 0.36,0.144 0.36,0.2161 0.28,0.2161 0.22,0.2161 0.21,0.2881 0.15,0.3601 0.14,0.2881 0.07,0.3602 0,0.2881 0.5,0.072 0.79,0.144 1.01,0.1441 1,0.2161 1.01,0.144 0.86,0.1441 0.57,0.072 0.22,0.072 -0.07,0.1441 -0.15,0.3601 -0.14,0.4318 -0.14,0.288 0.35,0.073 0.65,0.072 0.86,0.144 1.08,0.144 1.15,0.216 1.22,0.144 1.29,0.216 1.36,0.216 1.36,0.144 1.22,0.216 1.22,0.144 1.01,0.216 0.86,0.072 0.72,0.144 0.43,0.072 0.14,0 0,1.153 -0.07,0 -0.15,0 -0.21,0.072 -0.36,0 -0.36,0.072 -0.36,0 -0.43,0.072 -0.36,0 0.86,0.144 0.79,0.144 0.79,0.072 0.65,0.072 0.57,0.072 0.51,0.072 0.28,0.072 0.07,0 0.51,0.072 1.22,0.288 1.72,0.36 2.08,0.433 2.01,0.36 1.72,0.36 1.22,0.288 0.5,0.072 -0.07,1.152 -11.05,0.144 -0.29,0 -0.71,-0.072 -1.08,-0.144 -1.51,-0.144 -1.72,-0.144 -1.94,-0.216 -2.08,-0.216 -2.15,-0.216 -2.22,-0.216 -2.16,-0.216 -2.01,-0.216 -1.86,-0.144 -1.65,-0.216 -1.29,-0.144 -1.01,-0.072 -0.5,-0.073 0.36,1.297 0.72,2.593 0.93,3.385 1,3.674 1.01,3.673 0.86,3.169 0.64,2.161 0.22,0.864 -7.25,0.576 -0.21,-0.216 z"
                   style="fill:#000000;fill-opacity:1;fill-rule:evenodd;stroke:none"
                   id="path3712"
                   inkscape:connector-curvature="0" />
                <path
                   d="m 103.82,22.175 -8.107,-6.267 8.107,0 5.31,18.511 -0.72,0.216 -4.59,-12.46 z"
                   style="fill:#ea0000;fill-opacity:1;fill-rule:evenodd;stroke:none"
                   id="path3714"
                   inkscape:connector-curvature="0" />
                <path
                   d="m 29.7,15.62 0,-0.144 -0.072,-0.144 -0.144,-0.072 -0.143,-0.072 -0.072,0.072 -0.143,0.072 -0.072,0.144 0,0.144 0,0.144 0.072,0.144 0.143,0.072 0.072,0 0.143,0 0.144,-0.072 0.072,-0.144 0,-0.144 z"
                   style="fill:#000000;fill-opacity:1;fill-rule:evenodd;stroke:none"
                   id="path3716"
                   inkscape:connector-curvature="0" />
                <path
                   d="m 30.92,15.476 -0.072,-0.144 -0.072,-0.144 -0.143,-0.072 -0.072,0 -0.144,0 -0.071,0.072 -0.072,0.144 0,0.144 0,0.144 0.072,0.144 0.143,0.072 0.072,0 0.143,0 0.144,-0.072 0.072,-0.144 0,-0.144 z"
                   style="fill:#000000;fill-opacity:1;fill-rule:evenodd;stroke:none"
                   id="path3718"
                   inkscape:connector-curvature="0" />
                <path
                   d="m 32.068,15.332 0,-0.144 -0.072,-0.144 -0.144,-0.072 -0.143,0 -0.072,0.072 -0.143,0.072 -0.072,0.144 0,0.144 0,0.144 0.072,0.144 0.143,0.072 0.144,0 0.071,-0.072 0.144,-0.072 0.072,-0.144 0,-0.144 z"
                   style="fill:#000000;fill-opacity:1;fill-rule:evenodd;stroke:none"
                   id="path3720"
                   inkscape:connector-curvature="0" />
                <path
                   d="m 33.216,15.26 0,-0.144 L 33.144,14.972 33,14.9 l -0.071,0 -0.144,0 -0.143,0.072 -0.072,0.144 0,0.144 0,0.144 0.072,0.144 0.143,0.072 0.144,0 0.071,0 0.144,-0.072 0.072,-0.144 0,-0.144 z"
                   style="fill:#000000;fill-opacity:1;fill-rule:evenodd;stroke:none"
                   id="path3722"
                   inkscape:connector-curvature="0" />
                <path
                   d="m 34.435,15.116 -0.071,-0.144 -0.072,-0.144 -0.144,-0.072 -0.071,0 -0.144,0.072 -0.072,0.072 -0.071,0.144 0,0.144 0,0.144 0.071,0.072 0.144,0.144 0.072,0 0.143,-0.072 0.144,-0.072 0.071,-0.144 0,-0.144 z"
                   style="fill:#000000;fill-opacity:1;fill-rule:evenodd;stroke:none"
                   id="path3724"
                   inkscape:connector-curvature="0" />
                <path
                   d="m 35.584,15.044 0,-0.144 -0.072,-0.144 -0.144,-0.072 -0.143,-0.072 -0.072,0.072 -0.144,0.072 -0.071,0.144 0,0.144 0,0.144 0.071,0.144 0.144,0.072 0.144,0 0.071,0 0.144,-0.072 0.072,-0.144 0,-0.144 z"
                   style="fill:#000000;fill-opacity:1;fill-rule:evenodd;stroke:none"
                   id="path3726"
                   inkscape:connector-curvature="0" />
                <path
                   d="m 36.66,14.972 0,-0.144 -0.144,-0.144 -0.071,-0.072 -0.144,-0.072 -0.072,0.072 -0.143,0.072 -0.072,0.144 0,0.144 0,0.144 0.072,0.144 0.143,0.072 0.072,0 0.144,0 0.143,-0.072 0.072,-0.144 0,-0.144 z"
                   style="fill:#000000;fill-opacity:1;fill-rule:evenodd;stroke:none"
                   id="path3728"
                   inkscape:connector-curvature="0" />
                <path
                   d="m 37.808,14.828 0,-0.144 -0.072,-0.144 -0.143,-0.072 -0.144,0 -0.072,0 -0.143,0.072 -0.072,0.144 0,0.144 0,0.144 0.072,0.144 0.143,0.072 0.144,0.072 0.072,-0.072 0.143,-0.072 0.072,-0.144 0,-0.144 z"
                   style="fill:#000000;fill-opacity:1;fill-rule:evenodd;stroke:none"
                   id="path3730"
                   inkscape:connector-curvature="0" />
                <path
                   d="m 38.956,14.684 0,-0.144 -0.072,-0.144 -0.143,-0.072 -0.072,0 -0.144,0.072 -0.143,0.072 -0.072,0.144 0,0.144 0.072,0.144 0.072,0.144 0.143,0.072 0.072,0 0.143,-0.072 0.144,-0.072 0,-0.144 0,-0.144 z"
                   style="fill:#000000;fill-opacity:1;fill-rule:evenodd;stroke:none"
                   id="path3732"
                   inkscape:connector-curvature="0" />
                <path
                   d="m 40.176,14.612 0,-0.144 -0.072,-0.144 -0.144,-0.072 -0.143,0 -0.072,0 -0.143,0.072 -0.072,0.144 0,0.144 0,0.144 0.072,0.144 0.143,0.072 0.072,0 0.143,0 0.144,-0.072 0.072,-0.144 0,-0.144 z"
                   style="fill:#000000;fill-opacity:1;fill-rule:evenodd;stroke:none"
                   id="path3734"
                   inkscape:connector-curvature="0" />
                <path
                   d="m 41.324,14.468 0,-0.144 -0.072,-0.144 -0.143,-0.072 -0.144,0 -0.072,0.072 -0.143,0.072 -0.072,0.144 0,0.144 0,0.144 0.072,0.144 0.143,0.072 0.144,0 0.072,-0.072 0.143,-0.072 0.072,-0.144 0,-0.144 z"
                   style="fill:#000000;fill-opacity:1;fill-rule:evenodd;stroke:none"
                   id="path3736"
                   inkscape:connector-curvature="0" />
                <path
                   d="m 42.4,14.396 0,-0.144 -0.072,-0.144 -0.143,-0.072 -0.144,-0.072 -0.071,0.072 -0.144,0.072 -0.072,0.144 0,0.144 0,0.144 0.072,0.144 0.144,0.072 0.143,0 0.072,0 0.143,-0.144 0.072,-0.072 0,-0.144 z"
                   style="fill:#000000;fill-opacity:1;fill-rule:evenodd;stroke:none"
                   id="path3738"
                   inkscape:connector-curvature="0" />
                <path
                   d="m 43.548,14.252 0,-0.144 -0.072,-0.144 -0.143,-0.072 -0.072,0 -0.143,0 -0.144,0.072 -0.072,0.144 0,0.144 0.072,0.144 0.072,0.144 0.072,0.072 0.143,0 0.072,0 0.143,-0.072 0.072,-0.144 0,-0.144 z"
                   style="fill:#000000;fill-opacity:1;fill-rule:evenodd;stroke:none"
                   id="path3740"
                   inkscape:connector-curvature="0" />
                <path
                   d="m 44.768,14.108 -0.072,-0.144 -0.072,-0.144 -0.143,-0.072 -0.072,0 -0.143,0.072 -0.072,0.072 -0.072,0.144 0,0.144 0,0.144 0.072,0.144 0.143,0.072 0.072,0 0.144,-0.072 0.143,-0.072 0.072,-0.144 0,-0.144 z"
                   style="fill:#000000;fill-opacity:1;fill-rule:evenodd;stroke:none"
                   id="path3742"
                   inkscape:connector-curvature="0" />
                <path
                   d="m 45.916,14.036 0,-0.144 -0.072,-0.144 -0.143,-0.072 -0.144,0 -0.072,0 -0.143,0.072 -0.072,0.144 0,0.144 0,0.144 0.072,0.144 0.143,0.072 0.144,0 0.072,0 0.143,-0.072 0.072,-0.144 0,-0.144 z"
                   style="fill:#000000;fill-opacity:1;fill-rule:evenodd;stroke:none"
                   id="path3744"
                   inkscape:connector-curvature="0" />
                <path
                   d="m 47.064,13.892 -0.072,-0.144 -0.071,-0.144 -0.144,-0.072 -0.072,0 -0.143,0.072 -0.072,0.072 -0.072,0.144 0,0.144 0,0.144 0.072,0.144 0.144,0.072 0.143,0 0.072,-0.072 0.143,-0.072 0.072,-0.144 0,-0.144 z"
                   style="fill:#000000;fill-opacity:1;fill-rule:evenodd;stroke:none"
                   id="path3746"
                   inkscape:connector-curvature="0" />
                <path
                   d="m 48.212,13.748 0,-0.144 -0.072,-0.144 -0.143,-0.072 -0.144,0 -0.071,0.072 -0.144,0.072 -0.072,0.144 0,0.144 0,0.144 0.072,0.144 0.144,0.072 0.143,0 0.072,-0.072 0.143,-0.072 0.072,-0.144 0,-0.144 z"
                   style="fill:#000000;fill-opacity:1;fill-rule:evenodd;stroke:none"
                   id="path3748"
                   inkscape:connector-curvature="0" />
                <path
                   d="m 49.36,13.604 0,-0.144 -0.072,-0.145 -0.143,-0.072 -0.144,0 -0.071,0.072 -0.144,0.073 -0.072,0.144 0,0.144 0.072,0.144 0.072,0.144 0.143,0.072 0.072,0 0.144,-0.072 0.071,-0.072 0.072,-0.144 0,-0.144 z"
                   style="fill:#000000;fill-opacity:1;fill-rule:evenodd;stroke:none"
                   id="path3750"
                   inkscape:connector-curvature="0" />
                <path
                   d="m 50.58,13.46 -0.072,-0.145 -0.072,-0.072 -0.143,-0.072 -0.072,-0.072 -0.143,0.072 -0.072,0.072 -0.072,0.145 0,0.144 0,0.144 0.072,0.144 0.143,0.072 0.072,0 0.144,-0.072 0.143,-0.072 0.072,-0.144 0,-0.144 z"
                   style="fill:#000000;fill-opacity:1;fill-rule:evenodd;stroke:none"
                   id="path3752"
                   inkscape:connector-curvature="0" />
                <path
                   d="m 51.585,13.388 0,-0.145 -0.072,-0.144 -0.144,-0.072 -0.071,0 -0.144,0 -0.143,0.072 -0.072,0.144 0,0.145 0.072,0.144 0.071,0.144 0.144,0.072 0.072,0 0.143,0 0.144,-0.072 0,-0.144 0,-0.144 z"
                   style="fill:#000000;fill-opacity:1;fill-rule:evenodd;stroke:none"
                   id="path3754"
                   inkscape:connector-curvature="0" />
                <path
                   d="m 52.804,13.243 0,-0.144 -0.143,-0.144 -0.072,-0.072 -0.143,0 -0.144,0 -0.072,0.072 -0.071,0.144 0,0.144 0,0.145 0.071,0.144 0.144,0.072 0.143,0 0.072,0 0.144,-0.072 0.071,-0.144 0,-0.145 z"
                   style="fill:#000000;fill-opacity:1;fill-rule:evenodd;stroke:none"
                   id="path3756"
                   inkscape:connector-curvature="0" />
                <path
                   d="m 53.952,13.099 0,-0.144 -0.071,-0.144 -0.144,-0.072 -0.143,0 -0.072,0 -0.144,0.072 -0.071,0.144 0,0.144 0,0.144 0.071,0.145 0.144,0.072 0.143,0 0.072,0 0.144,-0.072 0.071,-0.145 0,-0.144 z"
                   style="fill:#000000;fill-opacity:1;fill-rule:evenodd;stroke:none"
                   id="path3758"
                   inkscape:connector-curvature="0" />
                <path
                   d="m 55.1,12.955 0,-0.144 -0.071,-0.144 -0.144,-0.072 -0.072,0 -0.143,0.072 -0.144,0.072 -0.071,0.072 0,0.144 0.071,0.144 0.072,0.144 0.144,0.072 0.071,0.073 0.144,-0.073 0.143,-0.072 0,-0.144 0,-0.144 z"
                   style="fill:#000000;fill-opacity:1;fill-rule:evenodd;stroke:none"
                   id="path3760"
                   inkscape:connector-curvature="0" />
                <path
                   d="m 56.177,12.811 0,-0.144 -0.072,-0.144 -0.144,-0.072 -0.143,0 -0.072,0.072 -0.143,0.072 -0.072,0.144 0,0.144 0.072,0.144 0.071,0.144 0.072,0.072 0.144,0 0.071,-0.072 0.144,-0.072 0.072,-0.144 0,-0.144 z"
                   style="fill:#000000;fill-opacity:1;fill-rule:evenodd;stroke:none"
                   id="path3762"
                   inkscape:connector-curvature="0" />
                <path
                   d="m 57.325,12.667 0,-0.144 -0.072,-0.144 -0.143,-0.072 -0.072,0 -0.144,0.072 -0.143,0.072 -0.072,0.144 0,0.144 0.072,0.144 0.072,0.144 0.143,0.072 0.072,0 0.143,-0.072 0.144,-0.072 0,-0.144 0,-0.144 z"
                   style="fill:#000000;fill-opacity:1;fill-rule:evenodd;stroke:none"
                   id="path3764"
                   inkscape:connector-curvature="0" />
                <path
                   d="m 58.545,12.523 0,-0.144 -0.144,-0.144 -0.072,-0.072 -0.143,0 -0.144,0.072 -0.071,0.072 -0.072,0.144 0,0.144 0,0.144 0.072,0.144 0.143,0.072 0.144,0 0.071,-0.072 0.144,-0.072 0.072,-0.144 0,-0.144 z"
                   style="fill:#000000;fill-opacity:1;fill-rule:evenodd;stroke:none"
                   id="path3766"
                   inkscape:connector-curvature="0" />
                <path
                   d="m 59.693,12.379 0,-0.144 -0.072,-0.144 -0.144,-0.072 -0.143,0 -0.072,0.072 -0.143,0.072 -0.072,0.144 0,0.144 0,0.144 0.072,0.144 0.143,0.072 0.144,0 0.071,-0.072 0.144,-0.072 0.072,-0.144 0,-0.144 z"
                   style="fill:#000000;fill-opacity:1;fill-rule:evenodd;stroke:none"
                   id="path3768"
                   inkscape:connector-curvature="0" />
                <path
                   d="m 68.303,12.019 -0.072,-0.144 -0.071,-0.144 -0.144,-0.072 -0.072,0 -0.143,0.072 -0.072,0.072 -0.072,0.144 0,0.144 0,0.144 0.072,0.144 0.144,0.072 0.071,0 0.144,-0.072 0.143,-0.072 0.072,-0.144 0,-0.144 z"
                   style="fill:#000000;fill-opacity:1;fill-rule:evenodd;stroke:none"
                   id="path3770"
                   inkscape:connector-curvature="0" />
                <path
                   d="m 69.451,11.875 0,-0.144 -0.072,-0.144 -0.143,-0.072 -0.144,0 -0.071,0.072 -0.144,0.072 -0.072,0.144 0,0.144 0,0.144 0.072,0.144 0.144,0.072 0.143,0 0.072,-0.072 0.143,-0.072 0.072,-0.144 0,-0.144 z"
                   style="fill:#000000;fill-opacity:1;fill-rule:evenodd;stroke:none"
                   id="path3772"
                   inkscape:connector-curvature="0" />
                <path
                   d="m 70.599,11.731 0,-0.144 -0.072,-0.144 -0.143,-0.072 -0.144,0 -0.071,0.072 -0.144,0.072 -0.072,0.144 0,0.144 0.072,0.144 0.072,0.144 0.072,0.072 0.143,0 0.144,-0.072 0.071,-0.072 0.072,-0.144 0,-0.144 z"
                   style="fill:#000000;fill-opacity:1;fill-rule:evenodd;stroke:none"
                   id="path3774"
                   inkscape:connector-curvature="0" />
                <path
                   d="m 71.819,11.587 -0.072,-0.144 -0.072,-0.144 -0.143,-0.072 -0.072,0 -0.143,0.072 -0.072,0.072 -0.072,0.144 0,0.144 0,0.144 0.072,0.144 0.143,0.072 0.072,0 0.144,-0.072 0.143,-0.072 0.072,-0.144 0,-0.144 z"
                   style="fill:#000000;fill-opacity:1;fill-rule:evenodd;stroke:none"
                   id="path3776"
                   inkscape:connector-curvature="0" />
                <path
                   d="m 22.022,23.183 0.215,0 0.574,-0.144 0.933,-0.072 1.22,-0.216 1.507,-0.216 1.722,-0.36 1.866,-0.36 2.08,-0.36 2.225,-0.505 2.296,-0.504 2.368,-0.576 2.368,-0.648 2.296,-0.649 2.296,-0.792 2.152,-0.792 2.081,-0.864 -0.287,0.072 -0.717,0.072 -1.22,0.216 -1.507,0.288 -1.866,0.288 -2.08,0.36 -2.225,0.432 -2.368,0.36 -2.367,0.36 -2.368,0.433 -2.225,0.36 -2.081,0.288 -1.937,0.288 -1.578,0.216 -1.22,0.072 -0.861,0.072 -1.292,2.881 z"
                   style="fill:#d6ffff;fill-opacity:1;fill-rule:evenodd;stroke:none"
                   id="path3778"
                   inkscape:connector-curvature="0" />
                <path
                   d="M 20.587,2.7996 20.444,1.9353 20.013,1.215 19.439,0.7108 18.65,0.56675 17.86,0.7108 17.215,1.215 l -0.431,0.7203 -0.143,0.8643 0.143,0.8643 0.431,0.7203 0.645,0.5042 0.79,0.144 0.789,-0.144 0.574,-0.5042 0.431,-0.7203 0.143,-0.8643 z"
                   style="fill:#0002bf;fill-opacity:1;fill-rule:evenodd;stroke:none"
                   id="path3780"
                   inkscape:connector-curvature="0" />
              </g>
            </g>
          </g>
        </g>
      </g>
    </g>
    <path
       d="m 194.31092,455.21108 44.375,0.1625"
       style="fill:none;stroke:#000000;stroke-width:0.9375;stroke-linecap:butt;stroke-linejoin:round;stroke-miterlimit:10;stroke-dasharray:none;stroke-opacity:1"
       id="path3782"
       inkscape:connector-curvature="0" />
    <path
       d="m 209.31092,470.21108 44.375,0.1625"
       style="fill:none;stroke:#000000;stroke-width:0.9375;stroke-linecap:butt;stroke-linejoin:round;stroke-miterlimit:10;stroke-dasharray:none;stroke-opacity:1"
       id="path3784"
       inkscape:connector-curvature="0" />
    <path
       d="m 224.31092,485.21108 44.375,0.1625"
       style="fill:none;stroke:#000000;stroke-width:0.9375;stroke-linecap:butt;stroke-linejoin:round;stroke-miterlimit:10;stroke-dasharray:none;stroke-opacity:1"
       id="path3786"
       inkscape:connector-curvature="0" />
    <path
       d="m 86.023417,675.99858 136.100003,0 0,-29.0625 -136.100003,0 0,29.0625 z"
       style="fill:#ffffff;fill-opacity:1;fill-rule:evenodd;stroke:none"
       id="path3788"
       inkscape:connector-curvature="0" />
    <path
       d="m 86.023417,675.99858 136.100003,0 0,-29.0625 -136.100003,0 0,29.0625 z"
       style="fill:none;stroke:#000000;stroke-width:0.9375;stroke-linecap:butt;stroke-linejoin:miter;stroke-miterlimit:8;stroke-dasharray:none;stroke-opacity:1"
       id="path3790"
       inkscape:connector-curvature="0" />
    <text
       y="666.33612"
       x="94.460907"
       style="font-variant:normal;font-weight:normal;font-size:17.5px;font-family:Arial;-inkscape-font-specification:Arial;writing-mode:lr-tb;fill:#000000;fill-opacity:1;fill-rule:nonzero;stroke:none"
       id="text3792">
      <tspan
         x="94.460907 104.1909 108.19841 113.9559 123.68591 127.69342 137.4234 147.15341 156.91843 161.1709 166.92841 176.65842 186.3884 191.18341 195.1734 204.90341"
         y="666.33612"
         sodipodi:role="line"
         id="tspan3794">airplane routing</tspan>
    </text>
    <path
       d="m 239.31092,675.99858 136.1,0 0,-29.0625 -136.1,0 0,29.0625 z"
       style="fill:#ffffff;fill-opacity:1;fill-rule:evenodd;stroke:none"
       id="path3796"
       inkscape:connector-curvature="0" />
    <path
       d="m 239.31092,675.99858 136.1,0 0,-29.0625 -136.1,0 0,29.0625 z"
       style="fill:none;stroke:#000000;stroke-width:0.9375;stroke-linecap:butt;stroke-linejoin:miter;stroke-miterlimit:8;stroke-dasharray:none;stroke-opacity:1"
       id="path3798"
       inkscape:connector-curvature="0" />
    <text
       y="666.33612"
       x="247.7984"
       style="font-variant:normal;font-weight:normal;font-size:17.5px;font-family:Arial;-inkscape-font-specification:Arial;writing-mode:lr-tb;fill:#000000;fill-opacity:1;fill-rule:nonzero;stroke:none"
       id="text3800">
      <tspan
         x="247.7984 257.52841 261.53592 267.2934 277.02341 281.03091 290.76089 300.49091 310.25592 314.50839 320.2659 329.99591 339.72592 344.5209 348.51089 358.24091"
         y="666.33612"
         sodipodi:role="line"
         id="tspan3802">airplane routing</tspan>
    </text>
    <path
       d="m 399.46092,676.93608 160.625,0 0,-169.0625 -160.625,0 0,169.0625 z"
       style="fill:#ffffff;fill-opacity:1;fill-rule:evenodd;stroke:none"
       id="path3804"
       inkscape:connector-curvature="0" />
    <path
       d="m 399.46092,676.93608 160.625,0 0,-169.0625 -160.625,0 0,169.0625 z"
       style="fill:none;stroke:#000000;stroke-width:1.875;stroke-linecap:butt;stroke-linejoin:miter;stroke-miterlimit:8;stroke-dasharray:none;stroke-opacity:1"
       id="path3806"
       inkscape:connector-curvature="0" />
    <text
       y="532.54858"
       x="414.12341"
       style="font-variant:normal;font-weight:normal;font-size:17.53125px;font-family:Arial;-inkscape-font-specification:Arial;writing-mode:lr-tb;fill:#000000;fill-opacity:1;fill-rule:nonzero;stroke:none"
       id="text3808">
      <tspan
         x="414.12341 418.87439 422.854 431.61963 440.38525 450.13263 454.84851 459.59949 465.34973 474.11536 483.86273 498.58899 508.33636 512.31598 522.06335 526.04291 535.79034"
         y="532.54858"
         sodipodi:role="line"
         id="tspan3810">ticket (complain)</tspan>
    </text>
    <text
       y="566.29858"
       x="418.11096"
       style="font-variant:normal;font-weight:normal;font-size:17.5px;font-family:Arial;-inkscape-font-specification:Arial;writing-mode:lr-tb;fill:#000000;fill-opacity:1;fill-rule:nonzero;stroke:none"
       id="text3812">
      <tspan
         x="418.11096 427.86096 437.61096 447.36096 457.11096 466.86096 476.61096 486.36096 490.61597 496.35846 505.12842 509.08594 518.83594 522.81091"
         y="566.29858"
         sodipodi:role="line"
         id="tspan3814">baggage (claim</tspan>
    </text>
    <text
       y="599.79858"
       x="422.12341"
       style="font-variant:normal;font-weight:normal;font-size:17.5px;font-family:Arial;-inkscape-font-specification:Arial;writing-mode:lr-tb;fill:#000000;fill-opacity:1;fill-rule:nonzero;stroke:none"
       id="text3816">
      <tspan
         x="422.12341 431.85345 441.58344 446.37842 456.10846 464.85846 469.37341 475.13092 484.86096 494.59094 498.61597 508.34595 518.07593 527.84094"
         y="599.79858"
         sodipodi:role="line"
         id="tspan3818">gates (unload)</tspan>
    </text>
    <text
       y="633.33612"
       x="425.11096"
       style="font-variant:normal;font-weight:normal;font-size:17.5px;font-family:Arial;-inkscape-font-specification:Arial;writing-mode:lr-tb;fill:#000000;fill-opacity:1;fill-rule:nonzero;stroke:none"
       id="text3820">
      <tspan
         x="425.11096 430.86841 440.59845 450.32843 462.61346 472.34344 480.62091 485.85345 491.61096 495.60095 505.33093 515.06091 524.82593"
         y="633.33612"
         sodipodi:role="line"
         id="tspan3822">runway (land)</tspan>
    </text>
    <text
       y="667.08612"
       x="417.87341"
       style="font-variant:normal;font-weight:normal;font-size:17.5px;font-family:Arial;-inkscape-font-specification:Arial;writing-mode:lr-tb;fill:#000000;fill-opacity:1;fill-rule:nonzero;stroke:none"
       id="text3824">
      <tspan
         x="417.87341 427.60345 431.61096 437.36841 447.09845 451.10596 460.83594 470.56592 480.33093 484.58344 490.34094 500.07092 509.80096 514.59595 518.58594 528.31592"
         y="667.08612"
         sodipodi:role="line"
         id="tspan3826">airplane routing</tspan>
    </text>
    <path
       d="m 400.56092,543.18608 159.525,0.15"
       style="fill:none;stroke:#000000;stroke-width:1.875;stroke-linecap:butt;stroke-linejoin:round;stroke-miterlimit:8;stroke-dasharray:none;stroke-opacity:1"
       id="path3828"
       inkscape:connector-curvature="0" />
    <path
       d="m 401.18592,577.39858 159.525,0.1625"
       style="fill:none;stroke:#000000;stroke-width:1.875;stroke-linecap:butt;stroke-linejoin:round;stroke-miterlimit:8;stroke-dasharray:none;stroke-opacity:1"
       id="path3830"
       inkscape:connector-curvature="0" />
    <path
       d="m 400.56092,611.46108 159.525,0.15"
       style="fill:none;stroke:#000000;stroke-width:1.875;stroke-linecap:butt;stroke-linejoin:round;stroke-miterlimit:8;stroke-dasharray:none;stroke-opacity:1"
       id="path3832"
       inkscape:connector-curvature="0" />
    <path
       d="m 401.81092,645.67358 159.525,0.1625"
       style="fill:none;stroke:#000000;stroke-width:1.875;stroke-linecap:butt;stroke-linejoin:round;stroke-miterlimit:8;stroke-dasharray:none;stroke-opacity:1"
       id="path3834"
       inkscape:connector-curvature="0" />
    <g
       transform="matrix(1.25,0,0,-1.25,-141.47659,1000.8361)"
       id="g3836">
      <g
         id="g3838" />
      <g
         id="g3858"
         mask="url(#mask3850)">
        <path
           d="m 35.5,264.25 661.63,0 0,14.5 -661.63,0 0,-14.5 z"
           style="fill:url(#linearGradient3860);fill-opacity:1;fill-rule:evenodd;stroke:none"
           id="path3866"
           inkscape:connector-curvature="0" />
      </g>
    </g>
    <g
       transform="matrix(1.25,0,0,-1.25,-141.47659,1000.8361)"
       id="g3868">
      <g
         id="g3870" />
      <g
         id="g3890"
         mask="url(#mask3882)">
        <path
           d="m 35.5,290.87 661.63,0 0,15.375 -661.63,0 0,-15.375 z"
           style="fill:url(#linearGradient3892);fill-opacity:1;fill-rule:evenodd;stroke:none"
           id="path3898"
           inkscape:connector-curvature="0" />
      </g>
    </g>
    <g
       transform="matrix(1.25,0,0,-1.25,-141.47659,1000.8361)"
       id="g3900">
      <g
         id="g3902" />
      <g
         id="g3922"
         mask="url(#mask3914)">
        <path
           d="m 35.5,317.5 661.63,0 0,14.5 -661.63,0 0,-14.5 z"
           style="fill:url(#linearGradient3924);fill-opacity:1;fill-rule:evenodd;stroke:none"
           id="path3930"
           inkscape:connector-curvature="0" />
      </g>
    </g>
    <g
       transform="matrix(1.25,0,0,-1.25,-141.47659,1000.8361)"
       id="g3932">
      <g
         id="g3934" />
      <g
         id="g3954"
         mask="url(#mask3946)">
        <path
           d="m 35.5,344.12 660.75,0 0,15.375 -660.75,0 0,-15.375 z"
           style="fill:url(#linearGradient3956);fill-opacity:1;fill-rule:evenodd;stroke:none"
           id="path3962"
           inkscape:connector-curvature="0" />
      </g>
    </g>
    <g
       transform="matrix(1.25,0,0,-1.25,-141.47659,1000.8361)"
       id="g3964">
      <g
         id="g3966" />
      <g
         id="g3986"
         mask="url(#mask3978)">
        <path
           d="m 35.5,370.75 660.88,0 0,15.375 -660.88,0 0,-15.375 z"
           style="fill:url(#linearGradient3988);fill-opacity:1;fill-rule:evenodd;stroke:none"
           id="path3994"
           inkscape:connector-curvature="0" />
      </g>
    </g>
    <text
       y="532.73608"
       x="616.54846"
       style="font-variant:normal;font-weight:normal;font-size:15.03125px;font-family:Arial;-inkscape-font-specification:Arial;writing-mode:lr-tb;fill:#000000;fill-opacity:1;fill-rule:nonzero;stroke:none"
       id="text3996">
      <tspan
         x="616.54846 620.78723 624.034 631.54962 639.2757 647.52783"
         y="532.73608"
         sodipodi:role="line"
         id="tspan3998">ticket</tspan>
    </text>
    <text
       y="566.02362"
       x="616.21094"
       style="font-variant:normal;font-weight:normal;font-size:15px;font-family:Arial;-inkscape-font-specification:Arial;writing-mode:lr-tb;fill:#000000;fill-opacity:1;fill-rule:nonzero;stroke:none"
       id="text4000">
      <tspan
         x="616.21094 624.49219 632.77344 641.05469 649.33594 657.61719 665.89844"
         y="566.02362"
         sodipodi:role="line"
         id="tspan4002">baggage</tspan>
    </text>
    <text
       y="599.14862"
       x="615.92346"
       style="font-variant:normal;font-weight:normal;font-size:15px;font-family:Arial;-inkscape-font-specification:Arial;writing-mode:lr-tb;fill:#000000;fill-opacity:1;fill-rule:nonzero;stroke:none"
       id="text4004">
      <tspan
         x="615.92346 624.17346 632.42346 636.65344"
         y="599.14862"
         sodipodi:role="line"
         id="tspan4006">gate</tspan>
    </text>
    <text
       y="632.29858"
       x="615.14844"
       style="font-variant:normal;font-weight:normal;font-size:15px;font-family:Arial;-inkscape-font-specification:Arial;writing-mode:lr-tb;fill:#000000;fill-opacity:1;fill-rule:nonzero;stroke:none"
       id="text4008">
      <tspan
         x="615.14844 619.37842 627.62842 635.36841 643.61841 651.86841 655.87341 660.10345 664.33344 667.58844 675.83844 684.08844 692.33844 695.59344 703.84344"
         y="632.29858"
         sodipodi:role="line"
         id="tspan4010">takeoff/landing</tspan>
    </text>
    <text
       y="666.52362"
       x="615.46094"
       style="font-variant:normal;font-weight:normal;font-size:15px;font-family:Arial;-inkscape-font-specification:Arial;writing-mode:lr-tb;fill:#000000;fill-opacity:1;fill-rule:nonzero;stroke:none"
       id="text4012">
      <tspan
         x="615.46094 623.71094 626.96594 631.96094 640.21094 643.46594 651.71594 659.96594 668.21594 672.44592 677.44092 685.69092 693.94092 698.17096 701.42596 709.67596"
         y="666.52362"
         sodipodi:role="line"
         id="tspan4014">airplane routing</tspan>
    </text>
  </g>
</svg>
