<?xml version="1.0" encoding="UTF-8" standalone="no"?>
<!-- Created with Inkscape (http://www.inkscape.org/) -->

<svg
   xmlns:dc="http://purl.org/dc/elements/1.1/"
   xmlns:cc="http://creativecommons.org/ns#"
   xmlns:rdf="http://www.w3.org/1999/02/22-rdf-syntax-ns#"
   xmlns:svg="http://www.w3.org/2000/svg"
   xmlns="http://www.w3.org/2000/svg"
   xmlns:sodipodi="http://sodipodi.sourceforge.net/DTD/sodipodi-0.dtd"
   xmlns:inkscape="http://www.inkscape.org/namespaces/inkscape"
   width="182.91528mm"
   height="91.898613mm"
   viewBox="0 0 648.12502 325.62501"
   id="svg3469"
   version="1.1"
   inkscape:version="0.91 r13725"
   sodipodi:docname="AnalogiaVoo.svg">
<defs><style type="text/css">@import url(https://fonts.googleapis.com/css?family=Lora:400,400italic,700,700italic)</style></defs>
  <defs
     id="defs3471" />
  <sodipodi:namedview
     id="base"
     pagecolor="#ffffff"
     bordercolor="#666666"
     borderopacity="1.0"
     inkscape:pageopacity="0.0"
     inkscape:pageshadow="2"
     inkscape:zoom="0.98994949"
     inkscape:cx="277.70145"
     inkscape:cy="122.33884"
     inkscape:document-units="px"
     inkscape:current-layer="layer1"
     showgrid="false"
     fit-margin-top="0"
     fit-margin-left="0"
     fit-margin-right="0"
     fit-margin-bottom="0"
     inkscape:window-width="1360"
     inkscape:window-height="719"
     inkscape:window-x="0"
     inkscape:window-y="25"
     inkscape:window-maximized="1" />
  <metadata
     id="metadata3474">
    <rdf:RDF>
      <cc:Work
         rdf:about="">
        <dc:format>image/svg+xml</dc:format>
        <dc:type
           rdf:resource="http://purl.org/dc/dcmitype/StillImage" />
        <dc:title></dc:title>
      </cc:Work>
    </rdf:RDF>
  </metadata>
  <g
     inkscape:label="Layer 1"
     inkscape:groupmode="layer"
     id="layer1"
     transform="translate(-46.935336,-383.63237)">
    <text
       y="413.53235"
       x="80.647842"
       style="font-variant:normal;font-weight:normal;font-size:25px;font-family:Arial;-inkscape-font-specification:Arial;writing-mode:lr-tb;fill:#000099;fill-opacity:1;fill-rule:nonzero;stroke:none"
       id="text54">
      <tspan
         x="80.647842 87.597839 93.147842 105.64784 118.14783 132.12283 139.07285 145.62283 153.87283 167.84785 181.82283 190.07283 202.57283 216.54784 230.52284 243.02283 256.99783"
         y="413.53235"
         sodipodi:role="line"
         id="tspan56">ticket (purchase)</tspan>
    </text>
    <text
       y="473.56985"
       x="80.647842"
       style="font-variant:normal;font-weight:normal;font-size:25px;font-family:Arial;-inkscape-font-specification:Arial;writing-mode:lr-tb;fill:#000099;fill-opacity:1;fill-rule:nonzero;stroke:none"
       id="text58">
      <tspan
         x="80.647842 94.622841 108.59784 122.34783 136.09784 150.07283 163.82283 177.79784 184.54784 192.79784 205.29784 219.27284 233.24783 245.74783 258.24783"
         y="473.56985"
         sodipodi:role="line"
         id="tspan60">baggage (check)</tspan>
    </text>
    <text
       y="533.60736"
       x="80.647842"
       style="font-variant:normal;font-weight:normal;font-size:25.03125px;font-family:Arial;-inkscape-font-specification:Arial;writing-mode:lr-tb;fill:#000099;fill-opacity:1;fill-rule:nonzero;stroke:none"
       id="text62">
      <tspan
         x="80.647842 94.389992 108.35743 115.31612 129.33362 141.84924 148.33234 156.59265 162.1496 176.06696 190.05943 204.02687"
         y="533.60736"
         sodipodi:role="line"
         id="tspan64">gates (load)</tspan>
    </text>
    <text
       y="593.60736"
       x="80.647842"
       style="font-variant:normal;font-weight:normal;font-size:25px;font-family:Arial;-inkscape-font-specification:Arial;writing-mode:lr-tb;fill:#000099;fill-opacity:1;fill-rule:nonzero;stroke:none"
       id="text66">
      <tspan
         x="80.647842 88.897842 102.87284 116.84783 134.59784 148.57283 160.82283 167.77283 174.79784 188.77283 201.27283 215.24783 229.22284 235.97284"
         y="593.60736"
         sodipodi:role="line"
         id="tspan68">runway takeoff</tspan>
    </text>
    <text
       y="653.63239"
       x="80.647842"
       style="font-variant:normal;font-weight:normal;font-size:25px;font-family:Arial;-inkscape-font-specification:Arial;writing-mode:lr-tb;fill:#000099;fill-opacity:1;fill-rule:nonzero;stroke:none"
       id="text70">
      <tspan
         x="80.647842 94.622841 100.17284 108.37283 122.34783 127.89783 141.79784 155.82283 169.79784 176.29784 184.54784 198.52284 212.49783 219.44783 224.99783 238.97284"
         y="653.63239"
         sodipodi:role="line"
         id="tspan72">airplane routing</tspan>
    </text>
    <text
       y="412.59485"
       x="455.16037"
       style="font-variant:normal;font-weight:normal;font-size:25px;font-family:Arial;-inkscape-font-specification:Arial;writing-mode:lr-tb;fill:#000099;fill-opacity:1;fill-rule:nonzero;stroke:none"
       id="text74">
      <tspan
         x="455.16037 462.11035 467.66037 480.16037 492.66037 506.63538 513.58533 520.13538 528.38538 540.88538 554.86029 575.83533 589.8103 595.36029 609.26031 614.8103 628.78528"
         y="412.59485"
         sodipodi:role="line"
         id="tspan76">ticket (complain)</tspan>
    </text>
    <text
       y="472.63235"
       x="455.16037"
       style="font-variant:normal;font-weight:normal;font-size:25px;font-family:Arial;-inkscape-font-specification:Arial;writing-mode:lr-tb;fill:#000099;fill-opacity:1;fill-rule:nonzero;stroke:none"
       id="text78">
      <tspan
         x="455.16037 469.13538 483.11035 496.86035 510.61035 524.58533 538.33533 552.31036 559.0603 567.3103 579.8103 585.36029 599.26031 604.8103 625.78528"
         y="472.63235"
         sodipodi:role="line"
         id="tspan80">baggage (claim)</tspan>
    </text>
    <text
       y="532.66986"
       x="455.16037"
       style="font-variant:normal;font-weight:normal;font-size:25.03125px;font-family:Arial;-inkscape-font-specification:Arial;writing-mode:lr-tb;fill:#000099;fill-opacity:1;fill-rule:nonzero;stroke:none"
       id="text82">
      <tspan
         x="455.16037 468.90253 482.86996 489.82864 503.84613 516.36176 522.84485 531.10516 545.07257 559.03998 564.59692 578.51428 592.50677 606.47418"
         y="532.66986"
         sodipodi:role="line"
         id="tspan84">gates (unload)</tspan>
    </text>
    <text
       y="592.66986"
       x="455.16037"
       style="font-variant:normal;font-weight:normal;font-size:25px;font-family:Arial;-inkscape-font-specification:Arial;writing-mode:lr-tb;fill:#000099;fill-opacity:1;fill-rule:nonzero;stroke:none"
       id="text86">
      <tspan
         x="455.16037 463.41037 477.38538 491.36035 509.11035 523.08533 535.33533 542.28534 547.83533 561.8103 575.78528 589.76031 595.3103 609.21033"
         y="592.66986"
         sodipodi:role="line"
         id="tspan88">runway landing</tspan>
    </text>
    <text
       y="652.69489"
       x="455.16037"
       style="font-variant:normal;font-weight:normal;font-size:25px;font-family:Arial;-inkscape-font-specification:Arial;writing-mode:lr-tb;fill:#000099;fill-opacity:1;fill-rule:nonzero;stroke:none"
       id="text90">
      <tspan
         x="455.16037 469.13538 474.68536 482.88538 496.86035 502.41037 516.31036 530.33533 544.31036 550.81036 559.0603 573.03528 587.01031 593.96033 599.51031 613.48529"
         y="652.69489"
         sodipodi:role="line"
         id="tspan92">airplane routing</tspan>
    </text>
    <text
       y="697.71985"
       x="272.58533"
       style="font-variant:normal;font-weight:normal;font-size:25.03125px;font-family:Arial;-inkscape-font-specification:Arial;writing-mode:lr-tb;fill:#000099;fill-opacity:1;fill-rule:nonzero;stroke:none"
       id="text94">
      <tspan
         x="272.58533 286.55276 292.10971 300.29495 314.26239 319.81934 333.73669 347.72919 361.69662 368.20474 376.46506 390.4325 404.39993 411.35861 416.91556 430.83292"
         y="697.71985"
         sodipodi:role="line"
         id="tspan96">airplane routing</tspan>
    </text>
    <path
       d="m 50.685336,383.63237 0.625,271.25 -1.16375,-1.7375 125.001254,51.25 -0.7125,-0.1375 416.25,1.25 -0.875,0.225 98.75,-52.5 -1,1.65 0,-246.875 3.75,0 0,246.875 c 0,0.6875 -0.3875,1.325 -1,1.65 l -98.75,52.5 c -0.2625,0.15 -0.575,0.225 -0.875,0.225 l -416.25,-1.25 c -0.25,0 -0.4875,-0.05 -0.7125,-0.1375 l -124.998754,-51.25 c -0.7025,-0.2875 -1.1625,-0.975 -1.16375,-1.7375 l -0.625,-271.25 3.75,0 z m 633.125004,26.25 5.625,-11.25 5.625,11.25 -11.25,0 z"
       style="fill:#3333cc;fill-opacity:1;fill-rule:nonzero;stroke:none"
       id="path98"
       inkscape:connector-curvature="0" />
  </g>
</svg>
