<!-- Created with Inkscape (http://www.inkscape.org/) -->
<svg id="svg3671" xmlns:rdf="http://www.w3.org/1999/02/22-rdf-syntax-ns#" xmlns="http://www.w3.org/2000/svg" height="189.3" width="771.08" version="1.1" xmlns:cc="http://creativecommons.org/ns#" xmlns:xlink="http://www.w3.org/1999/xlink" xmlns:dc="http://purl.org/dc/elements/1.1/">
<defs id="defs3673">
<clipPath id="clipPath12488" clipPathUnits="userSpaceOnUse">
<path id="path12490" clip-rule="evenodd" d="M0.000010729,0,720,0v540h-720v-540z"/>
</clipPath>
<clipPath id="clipPath12472" clipPathUnits="userSpaceOnUse">
<path id="path12474" clip-rule="evenodd" d="M0.000010729,0,720,0v540h-720v-540z"/>
</clipPath>
<clipPath id="clipPath12460" clipPathUnits="userSpaceOnUse">
<path id="path12462" clip-rule="evenodd" d="M0.000010729,0,720,0v540h-720v-540z"/>
</clipPath>
<clipPath id="clipPath12446" clipPathUnits="userSpaceOnUse">
<path id="path12448" clip-rule="evenodd" d="M0.000010729,0,720,0v540h-720v-540z"/>
</clipPath>
<clipPath id="clipPath12434" clipPathUnits="userSpaceOnUse">
<path id="path12436" clip-rule="evenodd" d="M0.000010729,0,720,0v540h-720v-540z"/>
</clipPath>
<clipPath id="clipPath12422" clipPathUnits="userSpaceOnUse">
<path id="path12424" clip-rule="evenodd" d="M0.000010729,0,720,0v540h-720v-540z"/>
</clipPath>
<clipPath id="clipPath12404" clipPathUnits="userSpaceOnUse">
<path id="path12406" clip-rule="evenodd" d="M0.000010729,0,720,0v540h-720v-540z"/>
</clipPath>
<clipPath id="clipPath12392" clipPathUnits="userSpaceOnUse">
<path id="path12394" clip-rule="evenodd" d="M0.000010729,0,720,0v540h-720v-540z"/>
</clipPath>
<clipPath id="clipPath12380" clipPathUnits="userSpaceOnUse">
<path id="path12382" clip-rule="evenodd" d="M0.000010729,0,720,0v540h-720v-540z"/>
</clipPath>
<clipPath id="clipPath12368" clipPathUnits="userSpaceOnUse">
<path id="path12370" clip-rule="evenodd" d="M0.000010729,0,720,0v540h-720v-540z"/>
</clipPath>
<clipPath id="clipPath12356" clipPathUnits="userSpaceOnUse">
<path id="path12358" clip-rule="evenodd" d="M0.000010729,0,720,0v540h-720v-540z"/>
</clipPath>
<linearGradient id="linearGradient12324" y2="301.14" gradientUnits="userSpaceOnUse" x2="90.6" gradientTransform="translate(25.765525,-118.00648)" y1="301.14" x1="24.12">
<stop id="stop12326" stop-color="#808080" offset="0"/>
<stop id="stop12328" stop-color="#808080" offset="1"/>
</linearGradient>
<linearGradient id="linearGradient12306" y2="367.68" gradientUnits="userSpaceOnUse" x2="99.48" gradientTransform="translate(25.765525,-118.00648)" y1="367.68" x1="84.36">
<stop id="stop12308" stop-color="#808080" offset="0"/>
<stop id="stop12310" stop-color="#808080" offset="1"/>
</linearGradient>
<linearGradient id="linearGradient12296" y2="357" gradientUnits="userSpaceOnUse" x2="99.12" gradientTransform="translate(25.765525,-118.00648)" y1="357" x1="84.48">
<stop id="stop12298" stop-color="#808080" offset="0"/>
<stop id="stop12300" stop-color="#808080" offset="1"/>
</linearGradient>
<linearGradient id="linearGradient12284" y2="341.28" gradientUnits="userSpaceOnUse" x2="92.04" gradientTransform="translate(25.765525,-118.00648)" y1="341.28" x1="87.72">
<stop id="stop12286" stop-color="#333" offset="0"/>
<stop id="stop12288" stop-color="#333" offset="1"/>
</linearGradient>
<linearGradient id="linearGradient12274" y2="347.28" gradientUnits="userSpaceOnUse" x2="91.44" gradientTransform="translate(25.765525,-118.00648)" y1="347.28" x1="57.36">
<stop id="stop12276" stop-color="#00F" offset="0"/>
<stop id="stop12278" stop-color="#00F" offset="1"/>
</linearGradient>
<linearGradient id="linearGradient12262" y2="345.6" gradientUnits="userSpaceOnUse" x2="99.24" gradientTransform="translate(25.765525,-118.00648)" y1="345.6" x1="82.92">
<stop id="stop12264" stop-color="#808080" offset="0"/>
<stop id="stop12266" stop-color="#808080" offset="1"/>
</linearGradient>
<linearGradient id="linearGradient12252" y2="337.02" gradientUnits="userSpaceOnUse" x2="91.2" gradientTransform="translate(25.765525,-118.00648)" y1="337.02" x1="57.36">
<stop id="stop12254" stop-color="#00F" offset="0"/>
<stop id="stop12256" stop-color="#00F" offset="1"/>
</linearGradient>
<linearGradient id="linearGradient12232" y2="358.74" gradientUnits="userSpaceOnUse" x2="91.8" gradientTransform="translate(25.765525,-118.00648)" y1="358.74" x1="57.48">
<stop id="stop12234" stop-color="#00F" offset="0"/>
<stop id="stop12236" stop-color="#00F" offset="1"/>
</linearGradient>
<linearGradient id="linearGradient12216" y2="369.84" gradientUnits="userSpaceOnUse" x2="91.92" gradientTransform="translate(25.765525,-118.00648)" y1="369.84" x1="57.36">
<stop id="stop12218" stop-color="#00F" offset="0"/>
<stop id="stop12220" stop-color="#00F" offset="1"/>
</linearGradient>
<linearGradient id="linearGradient12200" y2="335.82" gradientUnits="userSpaceOnUse" x2="99.12" gradientTransform="translate(25.765525,-118.00648)" y1="335.82" x1="82.56">
<stop id="stop12202" stop-color="#808080" offset="0"/>
<stop id="stop12204" stop-color="#808080" offset="1"/>
</linearGradient>
<linearGradient id="linearGradient12190" y2="339.98" gradientUnits="userSpaceOnUse" x2="97.32" gradientTransform="translate(25.765525,-118.00648)" y1="339.98" x1="87.11">
<stop id="stop12192" stop-color="#f8f8f8" offset="0"/>
<stop id="stop12194" stop-color="#f8f8f8" offset="1"/>
</linearGradient>
<linearGradient id="linearGradient12180" y2="341.4" gradientUnits="userSpaceOnUse" x2="89.88" gradientTransform="translate(25.765525,-118.00648)" y1="341.4" x1="24.84">
<stop id="stop12182" stop-color="#808080" offset="0"/>
<stop id="stop12184" stop-color="#808080" offset="1"/>
</linearGradient>
<linearGradient id="linearGradient12740" y2="341.28" gradientUnits="userSpaceOnUse" y1="341.28" gradientTransform="translate(25.765525,-118.00648)" x2="99.24" x1="81.48">
<stop id="stop12172" stop-color="#333" offset="0"/>
<stop id="stop12174" stop-color="#333" offset="1"/>
</linearGradient>
</defs>
<metadata id="metadata3676">
<rdf:RDF>
<cc:Work rdf:about="">
<dc:format>image/svg+xml</dc:format>
<dc:type rdf:resource="http://purl.org/dc/dcmitype/StillImage"/>
<dc:title/>
</cc:Work>
</rdf:RDF>
</metadata>
<g id="layer1" transform="translate(108.13777,-288.8284)">
<g id="g12168" transform="matrix(1.25,0,0,-1.25,-140.34467,816.32029)">
<path id="path12176" d="m91.94,380.28,7.3-9.64-0.201-65-8.679-3.36,1.58,78z" fill-rule="evenodd" fill="url(#linearGradient12740)"/>
</g>
<g id="g12178" transform="matrix(1.25,0,0,-1.25,-140.34467,816.32029)">
<path id="path12186" d="m57.36,302.4,32.52,0,0,78-32.52,0,0-78z" fill-rule="evenodd" fill="url(#linearGradient12180)"/>
</g>
<g id="g12188" transform="matrix(1.25,0,0,-1.25,-140.34467,816.32029)">
<path id="path12196" d="m92.215,375.6s1.251-0.8,5.105-6.21c-5.28-28.79-4.254-66.03-5.105-65v71.21z" fill-rule="evenodd" fill="url(#linearGradient12190)"/>
</g>
<g id="g12198" transform="matrix(1.25,0,0,-1.25,-140.34467,816.32029)">
<path id="path12206" d="m90.941,339c1.414-0.28,4.493-2.08,8.179-3.6-0.05-0.96-0.05-0.85-0.05-2.76,0,0-3.964,2-8.23,3.55,0,1.46,0.101,2.33,0.101,2.81z" fill-rule="evenodd" fill="url(#linearGradient12200)"/>
</g>
<path id="path12208" d="m-68.345,354.17,23.1,0,0-2.1-23.1,0,0,2.1z" fill-rule="evenodd" fill="#000"/>
<path id="path12210" stroke-linejoin="miter" d="m-68.345,354.17,23.1,0,0-2.1-23.1,0,0,2.1z" stroke="#000" stroke-linecap="butt" stroke-miterlimit="10" stroke-dasharray="none" stroke-width="0.90000004" fill="none"/>
<path id="path12212" d="m-47.495,354.1c0-1.7,1.3762-3.075,3.075-3.075h16.5c1.6988,0,3.075,1.375,3.075,3.075s-1.3762,3.075-3.075,3.075h-16.5c-1.6988,0-3.075-1.375-3.075-3.075z" fill-rule="evenodd" fill="#000"/>
<g id="g12214" transform="matrix(1.25,0,0,-1.25,-140.34467,816.32029)">
<path id="path12222" d="m74.64,369.84c0,1.06,0.86,1.92,1.92,1.92h13.44c1.06,0,1.92-0.86,1.92-1.92s-0.86-1.92-1.92-1.92h-13.44c-1.06,0-1.92,0.86-1.92,1.92z" fill-rule="evenodd" fill="url(#linearGradient12216)"/>
</g>
<path id="path12224" d="m-67.895,368.12,23.25,0,0-2.1-23.25,0,0,2.1z" fill-rule="evenodd" fill="#000"/>
<path id="path12226" stroke-linejoin="miter" d="m-67.895,368.12,23.25,0,0-2.1-23.25,0,0,2.1z" stroke="#000" stroke-linecap="butt" stroke-miterlimit="10" stroke-dasharray="none" stroke-width="0.90000004" fill="none"/>
<path id="path12228" d="m-47.495,367.82c0-1.575,1.2762-2.85,2.85-2.85h16.8c1.5738,0,2.85,1.275,2.85,2.85s-1.2762,2.85-2.85,2.85h-16.8c-1.5738,0-2.85-1.275-2.85-2.85z" fill-rule="evenodd" fill="#000"/>
<g id="g12230" transform="matrix(1.25,0,0,-1.25,-140.34467,816.32029)">
<path id="path12238" d="m74.64,358.74c0,0.96,0.779,1.74,1.74,1.74h13.68c0.961,0,1.74-0.78,1.74-1.74s-0.779-1.74-1.74-1.74h-13.68c-0.961,0-1.74,0.78-1.74,1.74z" fill-rule="evenodd" fill="url(#linearGradient12232)"/>
</g>
<path id="path12240" d="m-68.195,382.37,23.1,0,0-1.8-23.1,0,0,1.8z" fill-rule="evenodd" fill="#000"/>
<path id="path12242" stroke-linejoin="miter" d="m-68.195,382.37,23.1,0,0-1.8-23.1,0,0,1.8z" stroke="#000" stroke-linecap="butt" stroke-miterlimit="10" stroke-dasharray="none" stroke-width="0.90000004" fill="none"/>
<path id="path12244" d="m-67.745,395.12,23.25,0,0-1.95-23.25,0,0,1.95z" fill-rule="evenodd" fill="#000"/>
<path id="path12246" stroke-linejoin="miter" d="m-67.745,395.12,23.25,0,0-1.95-23.25,0,0,1.95z" stroke="#000" stroke-linecap="butt" stroke-miterlimit="10" stroke-dasharray="none" stroke-width="0.90000004" fill="none"/>
<path id="path12248" d="m-47.945,395.12c0-1.7375,1.41-3.15,3.15-3.15h16.05c1.74,0,3.15,1.4125,3.15,3.15s-1.41,3.15-3.15,3.15h-16.05c-1.74,0-3.15-1.4125-3.15-3.15z" fill-rule="evenodd" fill="#000"/>
<g id="g12250" transform="matrix(1.25,0,0,-1.25,-140.34467,816.32029)">
<path id="path12258" d="m74.28,337.02c0,1.09,0.886,1.98,1.98,1.98h12.96c1.094,0,1.98-0.89,1.98-1.98s-0.886-1.98-1.98-1.98h-12.96c-1.094,0-1.98,0.89-1.98,1.98z" fill-rule="evenodd" fill="url(#linearGradient12252)"/>
</g>
<g id="g12260" transform="matrix(1.25,0,0,-1.25,-140.34467,816.32029)">
<path id="path12268" d="m91.18,348.84c1.393-0.29,4.428-2.12,8.06-3.67-0.05-0.97-0.05-0.86-0.05-2.81,0,0-3.906,2.04-8.11,3.61,0,1.49,0.1,2.38,0.1,2.87z" fill-rule="evenodd" fill="url(#linearGradient12262)"/>
</g>
<path id="path12270" d="m-47.795,382.15c0-1.6125,1.31-2.925,2.925-2.925h16.65c1.615,0,2.925,1.3125,2.925,2.925s-1.31,2.925-2.925,2.925h-16.65c-1.615,0-2.925-1.3125-2.925-2.925z" fill-rule="evenodd" fill="#000"/>
<g id="g12272" transform="matrix(1.25,0,0,-1.25,-140.34467,816.32029)">
<path id="path12280" d="m74.4,347.28c0,0.99,0.806,1.8,1.8,1.8h13.44c0.994,0,1.8-0.81,1.8-1.8s-0.806-1.8-1.8-1.8h-13.44c-0.994,0-1.8,0.81-1.8,1.8z" fill-rule="evenodd" fill="url(#linearGradient12274)"/>
</g>
<g id="g12282" transform="matrix(1.25,0,0,-1.25,-140.34467,816.32029)">
<path id="path12290" d="m89.88,302.28,2.16,0,0,78-2.16,0,0-78z" fill-rule="evenodd" fill="url(#linearGradient12284)"/>
</g>
<path id="path12292" stroke-linejoin="miter" d="m-27.995,438.47,2.7,0,0-97.5-2.7,0,0,97.5z" stroke="#000" stroke-linecap="butt" stroke-miterlimit="10" stroke-dasharray="none" stroke-width="0.90000004" fill="none"/>
<g id="g12294" transform="matrix(1.25,0,0,-1.25,-140.34467,816.32029)">
<path id="path12302" d="m91.899,360.6c1.261-0.28,3.462-1.91,7.122-4.05-0.049-0.96,0.099-1.24,0.099-3.15,0,0-3.363,2.25-7.32,4.39,0,1.46,0.099,2.33,0.099,2.81z" fill-rule="evenodd" fill="url(#linearGradient12296)"/>
</g>
<g id="g12304" transform="matrix(1.25,0,0,-1.25,-140.34467,816.32029)">
<path id="path12312" d="m91.92,371.76c1.268-0.28,3.681-2.15,7.56-4.65-0.05-0.96-0.497-1.58-0.497-3.51,0,0-3.009,3.09-6.864,4.65,0,1.47-0.199,3.03-0.199,3.51z" fill-rule="evenodd" fill="url(#linearGradient12306)"/>
</g>
<path id="path12314" d="m-17.645,436c0-1.1125,0.4025-2.025,0.9-2.025s0.9,0.9125,0.9,2.025-0.4025,2.025-0.9,2.025-0.9-0.9125-0.9-2.025z" fill-rule="evenodd" fill="#333"/>
<path id="path12316" d="m-26.045,437.75,0.0625,4.775,9.5375-4.6375-0.18875-3.9125-9.4112,3.775z" fill-rule="evenodd" fill="#333"/>
<path id="path12318" d="m-71.195,439.9c0-1.7,1.3762-3.075,3.075-3.075h40.5c1.6988,0,3.075,1.375,3.075,3.075s-1.3762,3.075-3.075,3.075h-40.5c-1.6988,0-3.075-1.375-3.075-3.075z" fill-rule="evenodd" fill="#DDD"/>
<path id="path12320" stroke-linejoin="round" d="m-71.195,439.9c0-1.7,1.3762-3.075,3.075-3.075h40.5c1.6988,0,3.075,1.375,3.075,3.075s-1.3762,3.075-3.075,3.075h-40.5c-1.6988,0-3.075-1.375-3.075-3.075z" stroke="#000" stroke-linecap="butt" stroke-miterlimit="10" stroke-dasharray="none" stroke-width="0.90000004" fill="none"/>
<g id="g12322" transform="matrix(1.25,0,0,-1.25,-140.34467,816.32029)">
<path id="path12330" d="m57.36,301.14c0,0.76,0.618,1.38,1.38,1.38h30.48c0.762,0,1.38-0.62,1.38-1.38s-0.618-1.38-1.38-1.38h-30.48c-0.762,0-1.38,0.62-1.38,1.38z" fill-rule="evenodd" fill="url(#linearGradient12324)"/>
</g>
<path id="path12332" stroke-linejoin="round" d="m-68.645,439.9c0-0.95,0.7725-1.725,1.725-1.725h38.1c0.9525,0,1.725,0.775,1.725,1.725s-0.7725,1.725-1.725,1.725h-38.1c-0.9525,0-1.725-0.775-1.725-1.725z" stroke="#000" stroke-linecap="butt" stroke-miterlimit="10" stroke-dasharray="none" stroke-width="0.90000004" fill="none"/>
<path id="path12334" d="m-64.745,427.22c0-1.6625,1.41-3,3.15-3s3.15,1.3375,3.15,3-1.41,3-3.15,3-3.15-1.3375-3.15-3z" fill-rule="evenodd" fill="#3C3"/>
<path id="path12336" d="m-57.695,427.22c0-1.6625,1.41-3,3.15-3s3.15,1.3375,3.15,3-1.41,3-3.15,3-3.15-1.3375-3.15-3z" fill-rule="evenodd" fill="#F00"/>
<path id="path12338" d="m-50.795,427.15c0-1.6125,1.3438-2.925,3-2.925s3,1.3125,3,2.925-1.3438,2.925-3,2.925-3-1.3125-3-2.925z" fill-rule="evenodd" fill="#3C3"/>
<path id="path12340" d="m-35.345,433.22,3.3,0,0-32.4-3.3,0,0,32.4z" fill-rule="evenodd" fill="#292929"/>
<path id="path12342" stroke-linejoin="miter" d="m-35.345,433.22,3.3,0,0-32.4-3.3,0,0,32.4z" stroke="#000" stroke-linecap="butt" stroke-miterlimit="8" stroke-dasharray="none" stroke-width="0.90000004" fill="none"/>
<path id="path12344" d="m168.29,336.05c-14.112,1.4375-40.575,3.9375-56.888,7.525-16.312,3.5875-31.75,8.4375-40.575,13.638-8.825,5.2-5.075,12.912-11.912,17.925-6.825,5.025-23.812,5.3875-28.662,12.2s-4.85,23.312-0.875,29.05c3.9625,5.7375,9.0375,4.4875,25.138,5.3875,16.088,0.8875,54.687-1.975,71.887,0,17.2,1.9625,20.062,6.8125,30.862,11.825,10.812,5.025,24.038,15.075,33.962,18.3,9.925,3.225,18.738,2.325,26.025,0.7125,7.275-1.6125,13.662-3.9375,18.075-10.4,4.4125-6.45,6.4-19.012,8.825-28.338,2.425-9.325,4.625-17.575,5.725-27.612,1.1125-10.05,3.975-24.75,0.8875-33s-10.362-13.088-19.4-16.138c-9.05-3.05-24.262-2.3375-34.85-2.5125-10.575-0.175-14.112,0-28.225,1.4375z" fill-rule="evenodd" fill="#0CF"/>
<path id="path12346" stroke-linejoin="miter" d="m367.86,432.02,157.8,0,0-85.65-157.8,0,0,85.65z" stroke="#000" stroke-linecap="butt" stroke-miterlimit="8" stroke-dasharray="none" stroke-width="1.5" fill="none"/>
<path id="path12348" d="m-9.7697,388.22,114.31,0,0,3.15-114.31,0,0-3.15zm112.74-3.15,9.45,4.725-9.45,4.725,0-9.45z" fill-rule="nonzero" fill="#C00"/>
<path id="path12350" d="m241.63,389.72,142.9,0,0,3.15-142.9,0,0-3.15zm141.32-3.15,9.45,4.725-9.45,4.725,0-9.45z" fill-rule="nonzero" fill="#C00"/>
<g id="g12352" transform="matrix(1.25,0,0,-1.25,-140.34467,816.32029)">
<g id="g12354" clip-path="url(#clipPath12356)">
<text id="text12360" transform="matrix(1,0,0,-1,319.25,370.08)">
<tspan id="tspan12362" style="writing-mode:lr-tb;" font-weight="normal" fill-rule="nonzero" font-size="18px" font-variant="normal" y="0" x="0 9 19.007999 25.002001 28.926001 38.933998 48.852001 52.848 62.765999 68.022003 73.026001 77.022003 81.017998 84.942001" font-family="Arial" fill="#000000">variable fill</tspan>
</text>
</g>
</g>
<g id="g12364" transform="matrix(1.25,0,0,-1.25,-140.34467,816.32029)">
<g id="g12366" clip-path="url(#clipPath12368)">
<text id="text12372" transform="matrix(1,0,0,-1,319.25,348.48)">
<tspan id="tspan12374" style="writing-mode:lr-tb;" font-weight="normal" fill-rule="nonzero" font-size="18px" font-variant="normal" y="0" x="0 5.994 16.002001 21.006001 30.959999 35.964001" font-family="Arial" fill="#000000">rate,</tspan>
</text>
</g>
</g>
<g id="g12376" transform="matrix(1.25,0,0,-1.25,-140.34467,816.32029)">
<g id="g12378" clip-path="url(#clipPath12380)">
<text id="text12384" transform="matrix(1,0,0,-1,360.31,348.48)">
<tspan id="tspan12386" style="writing-mode:lr-tb;" font-weight="normal" fill-rule="nonzero" font-size="18px" font-variant="normal" y="0" x="0 8.8739996 14.868 19.872" font-family="Arial" fill="#cc0000">x(t)</tspan>
</text>
</g>
</g>
<g id="g12388" transform="matrix(1.25,0,0,-1.25,-140.34467,816.32029)">
<g id="g12390" clip-path="url(#clipPath12392)">
<text id="text12396" transform="matrix(1,0,0,-1,416.9,289.15)">
<tspan id="tspan12398" style="writing-mode:lr-tb;" font-weight="normal" fill-rule="nonzero" font-size="14.03999996px" font-variant="normal" y="0" x="0 7.06212 10.179 13.29588 21.102119 28.90836 32.8536 40.393082 48.199322 56.005562 63.811798 66.92868 70.045563 77.093643 84.899879 88.732803 91.849678 99.655922 107.46216" font-family="Arial" fill="#000000">client application</tspan>
</text>
</g>
</g>
<g id="g12400" transform="matrix(1.25,0,0,-1.25,-140.34467,816.32029)">
<g id="g12402" clip-path="url(#clipPath12404)">
<text id="text12408" transform="matrix(1,0,0,-1,430.46,272.35)">
<tspan id="tspan12410" style="writing-mode:lr-tb;" font-weight="normal" fill-rule="nonzero" font-size="14.03999996px" font-variant="normal" y="0" x="0 7.8062401 15.61248 19.31904 23.26428 31.07052 34.903439 38.848679 42.330601 49.392719 52.509602 59.57172 67.37796 70.972198" font-family="Arial" fill="#000000">buffer, size B</tspan>
</text>
</g>
</g>
<path id="path12412" d="m501.66,469.52,21.4,0,0,1.5-21.4,0,0-1.5zm20.15-3,7.5,3.75-7.5,3.75,0-7.5z" fill-rule="nonzero" fill="#000"/>
<path id="path12414" d="m395.07,468.77-21.412,0,0,1.5,21.412,0,0-1.5zm-20.162-3-7.5,3.75,7.5,3.75,0-7.5z" fill-rule="nonzero" fill="#000"/>
<path id="path12416" d="m516.58,390.02,56.338,0,0,3.15-56.338,0,0-3.15zm54.762-3.15,9.45,4.725-9.45,4.725,0-9.45z" fill-rule="nonzero" fill="#C00"/>
<g id="g12418" transform="matrix(1.25,0,0,-1.25,-140.34467,816.32029)">
<g id="g12420" clip-path="url(#clipPath12422)">
<text id="text12426" transform="matrix(1,0,0,-1,545.3,370.58)">
<tspan id="tspan12428" style="writing-mode:lr-tb;" font-weight="normal" fill-rule="nonzero" font-size="18px" font-variant="normal" y="0" x="0 10.008 13.914 23.922001 32.633999 42.641998 52.560001 57.563999 62.981998 68.975998 78.984001 83.987999 93.942001" font-family="Arial" fill="#000000">playout rate,</tspan>
</text>
</g>
</g>
<g id="g12430" transform="matrix(1.25,0,0,-1.25,-140.34467,816.32029)">
<g id="g12432" clip-path="url(#clipPath12434)">
<text id="text12438" transform="matrix(1,0,0,-1,545.3,348.98)">
<tspan id="tspan12440" style="writing-mode:lr-tb;" font-weight="normal" fill-rule="nonzero" font-size="18px" font-variant="normal" y="0" x="0 10.008 15.012 24.966 29.969999 35.028 39.942001 52.938 64.944 77.867996" font-family="Arial" fill="#000000">e.g., CBR</tspan>
</text>
</g>
</g>
<g id="g12442" transform="matrix(1.25,0,0,-1.25,-140.34467,816.32029)">
<g id="g12444" clip-path="url(#clipPath12446)">
<text id="text12450" transform="matrix(1,0,0,-1,628.34,348.98)">
<tspan id="tspan12452" style="writing-mode:lr-tb;" font-weight="normal" fill-rule="nonzero" font-size="18px" font-style="italic" font-variant="normal" y="0" x="0" font-family="Arial" fill="#cc0000">r</tspan>
</text>
</g>
</g>
<path id="path12454" d="m444.66,430.67,80.25,0,0-83.1-80.25,0,0,83.1z" fill-rule="evenodd" fill="#009"/>
<g id="g12456" transform="matrix(1.25,0,0,-1.25,-140.34467,816.32029)">
<g id="g12458" clip-path="url(#clipPath12460)">
<text id="text12464" transform="matrix(1,0,0,-1,457.78,411.82)">
<tspan id="tspan12466" style="writing-mode:lr-tb;" font-weight="normal" fill-rule="nonzero" font-size="14.03999996px" font-variant="normal" y="0" x="0 7.8062401 15.61248 19.31904 23.26428 31.07052 35.745838 39.22776 43.173 46.289879 49.406761 52.52364 56.370602 59.48748 67.293716 74.131203 81.937439 85.054321 88.999557" font-family="Arial" fill="#000000">buffer fill level,</tspan>
</text>
</g>
</g>
<g id="g12468" transform="matrix(1.25,0,0,-1.25,-140.34467,816.32029)">
<g id="g12470" clip-path="url(#clipPath12472)">
<text id="text12476" transform="matrix(1,0,0,-1,490.18,394.99)">
<tspan id="tspan12478" style="writing-mode:lr-tb;" font-weight="normal" fill-rule="nonzero" font-size="14.03999996px" font-style="italic" font-variant="normal" y="0" x="0 10.92312 15.59844 19.54368" font-family="Arial" fill="#cc0000">Q(t)</tspan>
</text>
</g>
</g>
<path id="path12480" d="m464.67,315.92-10.312,0,0,1.5,10.312,0,0-1.5zm-9.0625-3-7.5,3.75,7.5,3.75,0-7.5z" fill-rule="nonzero" fill="#000"/>
<path id="path12482" d="m508.26,316.82,10.312,0,0-1.5-10.312,0,0,1.5zm9.0625,3,7.5-3.75-7.5-3.75,0,7.5z" fill-rule="nonzero" fill="#000"/>
<g id="g12484" transform="matrix(1.25,0,0,-1.25,-140.34467,816.32029)">
<g id="g12486" clip-path="url(#clipPath12488)">
<text id="text12492" transform="matrix(1,0,0,-1,25.704,279.19)">
<tspan id="tspan12494" style="writing-mode:lr-tb;" font-weight="normal" fill-rule="nonzero" font-size="18px" font-variant="normal" y="0" x="0 9 12.996 22.914 32.922001 42.84 47.987999 56.987999 66.996002 72.989998 81.989998 91.907997" font-family="Arial" fill="#000000">video server</tspan>
</text>
</g>
</g>
</g>
</svg>
