<!-- Created with Inkscape (http://www.inkscape.org/) -->
<svg id="svg2" xmlns:rdf="http://www.w3.org/1999/02/22-rdf-syntax-ns#" xmlns="http://www.w3.org/2000/svg" xml:space="preserve" height="189.21" width="741.06" version="1.1" xmlns:cc="http://creativecommons.org/ns#" xmlns:xlink="http://www.w3.org/1999/xlink" xmlns:dc="http://purl.org/dc/elements/1.1/"><metadata id="metadata8"><rdf:RDF><cc:Work rdf:about=""><dc:format>image/svg+xml</dc:format><dc:type rdf:resource="http://purl.org/dc/dcmitype/StillImage"/><dc:title/></cc:Work></rdf:RDF></metadata><defs id="defs6"><clipPath id="clipPath9859" clipPathUnits="userSpaceOnUse"><path id="path9861" clip-rule="evenodd" d="M0.000010729,0,720,0v540h-720v-540z"/></clipPath><clipPath id="clipPath9847" clipPathUnits="userSpaceOnUse"><path id="path9849" clip-rule="evenodd" d="M0.000010729,0,720,0v540h-720v-540z"/></clipPath><clipPath id="clipPath9835" clipPathUnits="userSpaceOnUse"><path id="path9837" clip-rule="evenodd" d="M0.000010729,0,720,0v540h-720v-540z"/></clipPath><clipPath id="clipPath9823" clipPathUnits="userSpaceOnUse"><path id="path9825" clip-rule="evenodd" d="M0.000010729,0,720,0v540h-720v-540z"/></clipPath><clipPath id="clipPath9811" clipPathUnits="userSpaceOnUse"><path id="path9813" clip-rule="evenodd" d="M0.000010729,0,720,0v540h-720v-540z"/></clipPath><clipPath id="clipPath9799" clipPathUnits="userSpaceOnUse"><path id="path9801" clip-rule="evenodd" d="M0.000010729,0,720,0v540h-720v-540z"/></clipPath><clipPath id="clipPath9781" clipPathUnits="userSpaceOnUse"><path id="path9783" clip-rule="evenodd" d="M0.000010729,0,720,0v540h-720v-540z"/></clipPath><clipPath id="clipPath9769" clipPathUnits="userSpaceOnUse"><path id="path9771" clip-rule="evenodd" d="M0.000010729,0,720,0v540h-720v-540z"/></clipPath><clipPath id="clipPath9757" clipPathUnits="userSpaceOnUse"><path id="path9759" clip-rule="evenodd" d="M0.000010729,0,720,0v540h-720v-540z"/></clipPath><clipPath id="clipPath9735" clipPathUnits="userSpaceOnUse"><path id="path9737" clip-rule="evenodd" d="M0.000010729,0,720,0v540h-720v-540z"/></clipPath><clipPath id="clipPath9723" clipPathUnits="userSpaceOnUse"><path id="path9725" clip-rule="evenodd" d="M0.000010729,0,720,0v540h-720v-540z"/></clipPath><clipPath id="clipPath9711" clipPathUnits="userSpaceOnUse"><path id="path9713" clip-rule="evenodd" d="M0.000010729,0,720,0v540h-720v-540z"/></clipPath><clipPath id="clipPath9695" clipPathUnits="userSpaceOnUse"><path id="path9697" clip-rule="evenodd" d="M0.000010729,0,720,0v540h-720v-540z"/></clipPath><clipPath id="clipPath9683" clipPathUnits="userSpaceOnUse"><path id="path9685" clip-rule="evenodd" d="M0.000010729,0,720,0v540h-720v-540z"/></clipPath><clipPath id="clipPath9671" clipPathUnits="userSpaceOnUse"><path id="path9673" clip-rule="evenodd" d="M0.000010729,0,720,0v540h-720v-540z"/></clipPath><clipPath id="clipPath9659" clipPathUnits="userSpaceOnUse"><path id="path9661" clip-rule="evenodd" d="M0.000010729,0,720,0v540h-720v-540z"/></clipPath><clipPath id="clipPath9647" clipPathUnits="userSpaceOnUse"><path id="path9649" clip-rule="evenodd" d="M0.000010729,0,720,0v540h-720v-540z"/></clipPath><clipPath id="clipPath9635" clipPathUnits="userSpaceOnUse"><path id="path9637" clip-rule="evenodd" d="M0.000010729,0,720,0v540h-720v-540z"/></clipPath><clipPath id="clipPath9623" clipPathUnits="userSpaceOnUse"><path id="path9625" clip-rule="evenodd" d="M0.000010729,0,720,0v540h-720v-540z"/></clipPath><clipPath id="clipPath9611" clipPathUnits="userSpaceOnUse"><path id="path9613" clip-rule="evenodd" d="M0.000010729,0,720,0v540h-720v-540z"/></clipPath><clipPath id="clipPath9599" clipPathUnits="userSpaceOnUse"><path id="path9601" clip-rule="evenodd" d="M0.000010729,0,720,0v540h-720v-540z"/></clipPath></defs><g id="g10" transform="matrix(1.25,0,0,-1.25,846.58925,542.42187)"><g id="g9595" transform="translate(-749.52674,147.02692)"><g id="g9597" clip-path="url(#clipPath9599)"><text id="text9603" transform="matrix(1,0,0,-1,71.952,267.77)"><tspan id="tspan9605" style="writing-mode:lr-tb;" font-weight="normal" fill-rule="nonzero" font-size="20.04000092px" font-variant="normal" y="0" x="0 10.08012 15.65124 22.32456 33.466801 43.587002 49.158119 54.268318" font-family="Arial" fill="#000000">struct {</tspan></text>
</g></g><g id="g9607" transform="translate(-749.52674,147.02692)"><g id="g9609" clip-path="url(#clipPath9611)"><text id="text9615" transform="matrix(1,0,0,-1,88.416,243.77)"><tspan id="tspan9617" style="writing-mode:lr-tb;" font-weight="normal" fill-rule="nonzero" font-size="20.04000092px" font-variant="normal" y="0" x="0 10.02 21.222361 32.364601 39.077999 44.348518 54.368519 65.570877 76.71312 87.855362" font-family="Arial" fill="#000000">char code;</tspan></text>
</g></g><g id="g9619" transform="translate(-749.52674,147.02692)"><g id="g9621" clip-path="url(#clipPath9623)"><text id="text9627" transform="matrix(1,0,0,-1,93.936,219.74)"><tspan id="tspan9629" style="writing-mode:lr-tb;" font-weight="normal" fill-rule="nonzero" font-size="20.04000092px" font-variant="normal" y="0" x="0 4.4488802 15.59112 21.162239 26.63316 36.65316" font-family="Arial" fill="#000000">int x;</tspan></text>
</g></g><g id="g9631" transform="translate(-749.52674,147.02692)"><g id="g9633" clip-path="url(#clipPath9635)"><text id="text9639" transform="matrix(1,0,0,-1,93.936,195.74)"><tspan id="tspan9641" style="writing-mode:lr-tb;" font-weight="normal" fill-rule="nonzero" font-size="20.04000092px" font-variant="normal" y="0" x="0 6.6933599 12.1242 17.69532 28.837561 38.857559 44.42868" font-family="Arial" fill="#000000">} test;</tspan></text>
</g></g><g id="g9643" transform="translate(-749.52674,147.02692)"><g id="g9645" clip-path="url(#clipPath9647)"><text id="text9651" transform="matrix(1,0,0,-1,71.952,171.74)"><tspan id="tspan9653" style="writing-mode:lr-tb;" font-weight="normal" fill-rule="nonzero" font-size="20.04000092px" font-variant="normal" y="0" x="0 5.5711198 16.71336 26.79348 32.364601 37.835522 47.855518 53.226238 64.989723 70.260239 81.402481 92.604843 103.74708" font-family="Arial" fill="#000000">test.x = 256;</tspan></text>
</g></g><g id="g9655" transform="translate(-749.52674,147.02692)"><g id="g9657" clip-path="url(#clipPath9659)"><text id="text9663" transform="matrix(1,0,0,-1,71.952,147.5)"><tspan id="tspan9665" style="writing-mode:lr-tb;" font-weight="normal" fill-rule="nonzero" font-size="20.04000092px" font-variant="normal" y="0" x="0 5.5711198 16.71336 26.79348 32.364601 37.835522 47.915642 59.05788 70.260239 81.402481" font-family="Arial" fill="#000000">test.code=</tspan></text>
</g></g><g id="g9667" transform="translate(-749.52674,147.02692)"><g id="g9669" clip-path="url(#clipPath9671)"><text id="text9675" transform="matrix(1,0,0,-1,164.98,147.5)"><tspan id="tspan9677" style="writing-mode:lr-tb;" font-weight="normal" fill-rule="nonzero" font-size="20.04000092px" font-variant="normal" y="0" x="0" font-family="MS PGothic" fill="#000000">‘</tspan></text>
</g></g><g id="g9679" transform="translate(-749.52674,147.02692)"><g id="g9681" clip-path="url(#clipPath9683)"><text id="text9687" transform="matrix(1,0,0,-1,174.94,147.5)"><tspan id="tspan9689" style="writing-mode:lr-tb;" font-weight="normal" fill-rule="nonzero" font-size="20.04000092px" font-variant="normal" y="0" x="0" font-family="Arial" fill="#000000">a</tspan></text>
</g></g><g id="g9691" transform="translate(-749.52674,147.02692)"><g id="g9693" clip-path="url(#clipPath9695)"><text id="text9699" transform="matrix(1,0,0,-1,186.1,147.5)"><tspan id="tspan9701" style="writing-mode:lr-tb;" font-weight="normal" fill-rule="nonzero" font-size="20.04000092px" font-variant="normal" y="0" x="0" font-family="MS PGothic" fill="#000000">’</tspan></text>
</g></g><path id="path9703" d="m-442.99,321.09,108,0,0,111-108,0,0-111z" fill-rule="evenodd" fill="#FFF"/><path id="path9705" stroke-linejoin="miter" d="m-442.99,321.09,108,0,0,111-108,0,0-111z" stroke="#000" stroke-linecap="butt" stroke-miterlimit="10" stroke-dasharray="none" stroke-width="1.55999994" fill="none"/><g id="g9707" transform="translate(-749.52674,147.02692)"><g id="g9709" clip-path="url(#clipPath9711)"><text id="text9715" transform="matrix(1,0,0,-1,356.06,258.72)"><tspan id="tspan9717" style="writing-mode:lr-tb;" font-weight="normal" fill-rule="nonzero" font-size="20.04000092px" font-variant="normal" y="0" x="0" font-family="Arial" fill="#000000">a</tspan></text>
</g></g><g id="g9719" transform="translate(-749.52674,147.02692)"><g id="g9721" clip-path="url(#clipPath9723)"><text id="text9727" transform="matrix(1,0,0,-1,317.06,234.72)"><tspan id="tspan9729" style="writing-mode:lr-tb;" font-weight="normal" fill-rule="nonzero" font-size="20.04000092px" font-variant="normal" y="0" x="0 11.16004 22.32008 33.480122 44.64016 55.800201 66.960243 78.120277" font-family="Arial" fill="#000000">00000001</tspan></text>
</g></g><g id="g9731" transform="translate(-749.52674,147.02692)"><g id="g9733" clip-path="url(#clipPath9735)"><text id="text9739" transform="matrix(1,0,0,-1,317.78,210.72)"><tspan id="tspan9741" style="writing-mode:lr-tb;" font-weight="normal" fill-rule="nonzero" font-size="20.04000092px" font-variant="normal" y="0" x="0 11.14224 22.284479 33.42672 44.629082 55.77132 66.913559 76.673042" font-family="Arial" fill="#000000">00000011</tspan></text>
</g></g><path id="path9743" stroke-linejoin="round" d="m-442.63,402.93,108.36-0.36" stroke="#000" stroke-linecap="butt" stroke-miterlimit="10" stroke-dasharray="none" stroke-width="1.55999994" fill="none"/><path id="path9745" stroke-linejoin="round" d="m-442.63,376.05,108.36-0.36" stroke="#000" stroke-linecap="butt" stroke-miterlimit="10" stroke-dasharray="none" stroke-width="1.55999994" fill="none"/><path id="path9747" stroke-linejoin="round" d="m-442.27,348.81,108.48-0.48" stroke="#000" stroke-linecap="butt" stroke-miterlimit="10" stroke-dasharray="none" stroke-width="1.55999994" fill="none"/><path id="path9749" d="m-193.27,323.37,108,0,0,109.8-108,0,0-109.8z" fill-rule="evenodd" fill="#FFF"/><path id="path9751" stroke-linejoin="miter" d="m-193.27,323.37,108,0,0,109.8-108,0,0-109.8z" stroke="#000" stroke-linecap="butt" stroke-miterlimit="8" stroke-dasharray="none" stroke-width="1.55999994" fill="none"/><g id="g9753" transform="translate(-749.52674,147.02692)"><g id="g9755" clip-path="url(#clipPath9757)"><text id="text9761" transform="matrix(1,0,0,-1,605.86,259.9)"><tspan id="tspan9763" style="writing-mode:lr-tb;" font-weight="normal" fill-rule="nonzero" font-size="20.04000092px" font-variant="normal" y="0" x="0" font-family="Arial" fill="#000000">a</tspan></text>
</g></g><g id="g9765" transform="translate(-749.52674,147.02692)"><g id="g9767" clip-path="url(#clipPath9769)"><text id="text9773" transform="matrix(1,0,0,-1,567.58,211.87)"><tspan id="tspan9775" style="writing-mode:lr-tb;" font-weight="normal" fill-rule="nonzero" font-size="20.04000092px" font-variant="normal" y="0" x="0 11.14224 22.284479 33.42672 44.629082 55.77132 66.913559 76.673042" font-family="Arial" fill="#000000">00000011</tspan></text>
</g></g><g id="g9777" transform="translate(-749.52674,147.02692)"><g id="g9779" clip-path="url(#clipPath9781)"><text id="text9785" transform="matrix(1,0,0,-1,566.86,187.87)"><tspan id="tspan9787" style="writing-mode:lr-tb;" font-weight="normal" fill-rule="nonzero" font-size="20.04000092px" font-variant="normal" y="0" x="0 11.16004 22.32008 33.480122 44.64016 55.800201 66.960243 78.120277" font-family="Arial" fill="#000000">00000001</tspan></text>
</g></g><path id="path9789" stroke-linejoin="round" d="m-192.79,404.37,108.36-0.36" stroke="#000" stroke-linecap="butt" stroke-miterlimit="8" stroke-dasharray="none" stroke-width="1.55999994" fill="none"/><path id="path9791" stroke-linejoin="round" d="m-192.79,377.73,108.36-0.36" stroke="#000" stroke-linecap="butt" stroke-miterlimit="8" stroke-dasharray="none" stroke-width="1.55999994" fill="none"/><path id="path9793" stroke-linejoin="round" d="m-193.27,353.01,108.48-0.36" stroke="#000" stroke-linecap="butt" stroke-miterlimit="8" stroke-dasharray="none" stroke-width="1.55999994" fill="none"/><g id="g9795" transform="translate(-749.52674,147.02692)"><g id="g9797" clip-path="url(#clipPath9799)"><text id="text9803" transform="matrix(1,0,0,-1,215.14,260.4)"><tspan id="tspan9805" style="writing-mode:lr-tb;" font-weight="normal" fill-rule="nonzero" font-size="20.06399918px" font-variant="normal" y="0" x="0 5.5777922 16.733376 26.765375 32.282974 37.860767 47.892769 59.048351 70.203934" font-family="Arial" fill="#000000">test.code</tspan></text>
</g></g><g id="g9807" transform="translate(-749.52674,147.02692)"><g id="g9809" clip-path="url(#clipPath9811)"><text id="text9815" transform="matrix(1,0,0,-1,248.74,236.38)"><tspan id="tspan9817" style="writing-mode:lr-tb;" font-weight="normal" fill-rule="nonzero" font-size="20.04000092px" font-variant="normal" y="0" x="0 5.5711198 16.71336 26.73336 32.304482 37.795441" font-family="Arial" fill="#000000">test.x</tspan></text>
</g></g><g id="g9819" transform="translate(-749.52674,147.02692)"><g id="g9821" clip-path="url(#clipPath9823)"><text id="text9827" transform="matrix(1,0,0,-1,460.54,260.4)"><tspan id="tspan9829" style="writing-mode:lr-tb;" font-weight="normal" fill-rule="nonzero" font-size="20.06399918px" font-variant="normal" y="0" x="0 5.5777922 16.733376 26.765375 32.282974 37.860767 47.892769 59.048351 70.203934" font-family="Arial" fill="#000000">test.code</tspan></text>
</g></g><g id="g9831" transform="translate(-749.52674,147.02692)"><g id="g9833" clip-path="url(#clipPath9835)"><text id="text9839" transform="matrix(1,0,0,-1,494.16,212.38)"><tspan id="tspan9841" style="writing-mode:lr-tb;" font-weight="normal" fill-rule="nonzero" font-size="20.04000092px" font-variant="normal" y="0" x="0 5.5711198 16.71336 26.73336 32.304482 37.795441" font-family="Arial" fill="#000000">test.x</tspan></text>
</g></g><g id="g9843" transform="translate(-749.52674,147.02692)"><g id="g9845" clip-path="url(#clipPath9847)"><text id="text9851" transform="matrix(1,0,0,-1,298.32,135.74)"><tspan id="tspan9853" style="writing-mode:lr-tb;" font-weight="normal" fill-rule="nonzero" font-size="20.06399918px" font-variant="normal" y="0" x="0 11.155584 22.311169 32.343166 37.920959 43.197792 54.353374 59.931168 65.388573 76.544159 83.225471 99.938782 111.09437" font-family="Arial" fill="#3333cc">host 1 format</tspan></text>
</g></g><g id="g9855" transform="translate(-749.52674,147.02692)"><g id="g9857" clip-path="url(#clipPath9859)"><text id="text9863" transform="matrix(1,0,0,-1,543.62,138.6)"><tspan id="tspan9865" style="writing-mode:lr-tb;" font-weight="normal" fill-rule="nonzero" font-size="20.04000092px" font-variant="normal" y="0" x="0 11.14224 22.284479 32.38464 37.955761 43.186199 54.328442 59.899559 65.390518 76.532761 83.246162 99.939484 111.08172" font-family="Arial" fill="#3333cc">host 2 format</tspan></text>
</g></g></g></svg>
