<?xml version="1.0" encoding="UTF-8" standalone="no"?>
<svg
   xmlns:dc="http://purl.org/dc/elements/1.1/"
   xmlns:cc="http://creativecommons.org/ns#"
   xmlns:rdf="http://www.w3.org/1999/02/22-rdf-syntax-ns#"
   xmlns:svg="http://www.w3.org/2000/svg"
   xmlns="http://www.w3.org/2000/svg"
   xmlns:sodipodi="http://sodipodi.sourceforge.net/DTD/sodipodi-0.dtd"
   xmlns:inkscape="http://www.inkscape.org/namespaces/inkscape"
   width="718.5"
   height="527"
   version="1.2"
   id="svg2"
   inkscape:version="0.48.5 r10040"
   sodipodi:docname="RepeticaoIVs.svg">
  <metadata
     id="metadata350">
    <rdf:RDF>
      <cc:Work
         rdf:about="">
        <dc:format>image/svg+xml</dc:format>
        <dc:type
           rdf:resource="http://purl.org/dc/dcmitype/StillImage" />
      </cc:Work>
    </rdf:RDF>
  </metadata>
  <sodipodi:namedview
     pagecolor="#ffffff"
     bordercolor="#666666"
     borderopacity="1"
     objecttolerance="10"
     gridtolerance="10"
     guidetolerance="10"
     inkscape:pageopacity="0"
     inkscape:pageshadow="2"
     inkscape:window-width="1366"
     inkscape:window-height="702"
     id="namedview348"
     showgrid="false"
     fit-margin-top="0"
     fit-margin-left="0"
     fit-margin-right="0"
     fit-margin-bottom="0"
     inkscape:zoom="0.31468994"
     inkscape:cx="623.31281"
     inkscape:cy="262.59329"
     inkscape:window-x="0"
     inkscape:window-y="27"
     inkscape:window-maximized="1"
     inkscape:current-layer="svg2" />
  <title
     id="title4">Qt Svg Document</title>
  <desc
     id="desc6">Generated with Qt</desc>
  <defs
     id="defs8" />
  <g
     style="font-size:14.66670036px;font-style:normal;font-weight:400;fill:#ffffff;fill-opacity:0;fill-rule:evenodd;stroke:none;font-family:Cantarell"
     id="g12"
     font-style="normal"
     font-weight="400"
     font-size="14.6667"
     transform="translate(-17,-7)">
    <path
       style="fill-rule:evenodd"
       inkscape:connector-curvature="0"
       id="path14"
       d="M 17,7 731,7 731,534 17,534 17,7"
       vector-effect="non-scaling-stroke" />
  </g>
  <g
     style="font-size:14.66670036px;font-style:normal;font-weight:400;fill:none;stroke:none;font-family:Cantarell"
     id="g16"
     font-style="normal"
     font-weight="400"
     font-size="14.6667"
     transform="translate(-17,-7)">
    <path
       inkscape:connector-curvature="0"
       id="path18"
       d="M 17,7 731,7 731,534 17,534 17,7"
       vector-effect="non-scaling-stroke" />
  </g>
  <g
     style="font-size:14.66670036px;font-style:normal;font-weight:400;fill:#ffffff;fill-opacity:0;fill-rule:evenodd;stroke:none;font-family:Cantarell"
     id="g22"
     font-style="normal"
     font-weight="400"
     font-size="14.6667"
     transform="translate(-17,-7)">
    <path
       style="fill-rule:evenodd"
       inkscape:connector-curvature="0"
       id="path24"
       d="m 96,56 599,0 0,399 -599,0 0,-399"
       vector-effect="non-scaling-stroke" />
  </g>
  <g
     style="font-size:14.66670036px;font-style:normal;font-weight:400;fill:none;stroke:#0000ff;stroke-width:2;stroke-linecap:square;stroke-linejoin:miter;stroke-miterlimit:2;stroke-opacity:1;font-family:Cantarell"
     id="g34"
     font-style="normal"
     font-weight="400"
     font-size="14.6667"
     stroke-miterlimit="2"
     transform="translate(-17,-7)">
    <polyline
       style="fill:none"
       id="polyline36"
       points="96.0461,455 96.6456,454.998 97.2452,454.991 97.8447,454.981 98.4443,454.967 99.0438,454.948 99.6434,454.926 100.243,454.899 100.843,454.869 101.442,454.834 102.042,454.796 102.641,454.753 103.241,454.706 103.84,454.656 104.44,454.601 105.039,454.543 105.639,454.48 106.238,454.413 106.838,454.343 107.438,454.268 108.037,454.189 108.637,454.107 109.236,454.02 109.836,453.929 110.435,453.835 111.035,453.736 111.634,453.633 112.234,453.527 112.834,453.416 113.433,453.301 114.033,453.183 114.632,453.06 115.232,452.934 115.831,452.803 116.431,452.669 117.03,452.531 117.63,452.388 118.23,452.242 118.829,452.092 119.429,451.937 120.028,451.779 120.628,451.617 121.227,451.451 121.827,451.281 122.426,451.108 123.026,450.93 123.626,450.748 124.225,450.563 124.825,450.373 125.424,450.18 126.024,449.983 126.623,449.782 127.223,449.577 127.822,449.368 128.422,449.156 129.022,448.939 129.621,448.719 130.221,448.495 130.82,448.267 131.42,448.035 132.019,447.799 132.619,447.56 133.218,447.317 133.818,447.07 134.417,446.819 135.017,446.564 135.617,446.306 136.216,446.044 136.816,445.778 137.415,445.508 138.015,445.235 138.614,444.957 139.214,444.677 139.813,444.392 140.413,444.104 141.013,443.812 141.612,443.516 142.212,443.217 142.811,442.914 143.411,442.607 144.01,442.297 144.61,441.983 145.209,441.665 145.809,441.344 146.409,441.019 147.008,440.69 147.608,440.358 148.207,440.023 148.807,439.683 149.406,439.341 150.006,438.994 150.605,438.644 151.205,438.291 151.805,437.934 152.404,437.573 153.004,437.209 153.603,436.842 154.203,436.471 154.802,436.096 155.402,435.718 156.001,435.337 156.601,434.952 157.201,434.564 157.8,434.172 158.4,433.777 158.999,433.379 159.599,432.977 160.198,432.571 160.798,432.163 161.397,431.751 161.997,431.336 162.597,430.917 163.196,430.495 163.796,430.07 164.395,429.641 164.995,429.21 165.594,428.775 166.194,428.336 166.793,427.895 167.393,427.45 167.992,427.002 168.592,426.551 169.192,426.096 169.791,425.639 170.391,425.178 170.99,424.714 171.59,424.247 172.189,423.777 172.789,423.304 173.388,422.828 173.988,422.348 174.588,421.866 175.187,421.38 175.787,420.892 176.386,420.4 176.986,419.906 177.585,419.408 178.185,418.908 178.784,418.404 179.384,417.898 179.984,417.388 180.583,416.876 181.183,416.361 181.782,415.843 182.382,415.322 182.981,414.798 183.581,414.271 184.18,413.741 184.78,413.209 185.38,412.674 185.979,412.136 186.579,411.595 187.178,411.052 187.778,410.505 188.377,409.956 188.977,409.405 189.576,408.85 190.176,408.293 190.776,407.733 191.375,407.171 191.975,406.606 192.574,406.038 193.174,405.468 193.773,404.895 194.373,404.319 194.972,403.741 195.572,403.161 196.172,402.578 196.771,401.992 197.371,401.404 197.97,400.813 198.57,400.22 199.169,399.625 199.769,399.027 200.368,398.426 200.968,397.824 201.567,397.218 202.167,396.611 202.767,396.001 203.366,395.389 203.966,394.774 204.565,394.158 205.165,393.539 205.764,392.917 206.364,392.294 206.963,391.668 207.563,391.04 208.163,390.409 208.762,389.777 209.362,389.142 209.961,388.506 210.561,387.867 211.16,387.226 211.76,386.583 212.359,385.938 212.959,385.29 213.559,384.641 214.158,383.99 214.758,383.336 215.357,382.681 215.957,382.024 216.556,381.364 217.156,380.703 217.755,380.04 218.355,379.375 218.955,378.708 219.554,378.039 220.154,377.369 220.753,376.696 221.353,376.022 221.952,375.346 222.552,374.668 223.151,373.988 223.751,373.307 224.351,372.623 224.95,371.939 225.55,371.252 226.149,370.564 226.749,369.874 227.348,369.182 227.948,368.489 228.547,367.794 229.147,367.098 229.747,366.4 230.346,365.7 230.946,364.999 231.545,364.296 232.145,363.592 232.744,362.887 233.344,362.179 233.943,361.471 234.543,360.761 235.142,360.05 235.742,359.337 236.342,358.623 236.941,357.907 237.541,357.19 238.14,356.472 238.74,355.752 239.339,355.031 239.939,354.309 240.538,353.586 241.138,352.861 241.738,352.136 242.337,351.409 242.937,350.68 243.536,349.951 244.136,349.22 244.735,348.489 245.335,347.756 245.934,347.022 246.534,346.287 247.134,345.551 247.733,344.814 248.333,344.076 248.932,343.336 249.532,342.596 250.131,341.855 250.731,341.113 251.33,340.37 251.93,339.626 252.53,338.881 253.129,338.135 253.729,337.389 254.328,336.641 254.928,335.893 255.527,335.144 256.127,334.394 256.726,333.643 257.326,332.892 257.926,332.139 258.525,331.386 259.125,330.633 259.724,329.878 260.324,329.123 260.923,328.367 261.523,327.611 262.122,326.854 262.722,326.096 263.321,325.338 263.921,324.579 264.521,323.82 265.12,323.06 265.72,322.299 266.319,321.538 266.919,320.777 267.518,320.015 268.118,319.252 268.717,318.489 269.317,317.726 269.917,316.962 270.516,316.198 271.116,315.434 271.715,314.669 272.315,313.904 272.914,313.138 273.514,312.372 274.113,311.606 274.713,310.839 275.313,310.073 275.912,309.306 276.512,308.539 277.111,307.771 277.711,307.004 278.31,306.236 278.91,305.468 279.509,304.7 280.109,303.931 280.709,303.163 281.308,302.394 281.908,301.626 282.507,300.857 283.107,300.089 283.706,299.32 284.306,298.551 284.905,297.782 285.505,297.013 286.105,296.245 286.704,295.476 287.304,294.707 287.903,293.939 288.503,293.17 289.102,292.402 289.702,291.633 290.301,290.865 290.901,290.097 291.501,289.329 292.1,288.561 292.7,287.794 293.299,287.027 293.899,286.259 294.498,285.492 295.098,284.726 295.697,283.959 296.297,283.193 296.896,282.428 297.496,281.662 298.096,280.897 298.695,280.132 299.295,279.367 299.894,278.603 300.494,277.839 301.093,277.076 301.693,276.313 302.292,275.551 302.892,274.788 303.492,274.027 304.091,273.265 304.691,272.505 305.29,271.744 305.89,270.985 306.489,270.225 307.089,269.467 307.688,268.708 308.288,267.951 308.888,267.194 309.487,266.437 310.087,265.681 310.686,264.926 311.286,264.171 311.885,263.417 312.485,262.664 313.084,261.911 313.684,261.159 314.284,260.408 314.883,259.657 315.483,258.907 316.082,258.158 316.682,257.409 317.281,256.662 317.881,255.915 318.48,255.168 319.08,254.423 319.68,253.678 320.279,252.934 320.879,252.191 321.478,251.449 322.078,250.708 322.677,249.967 323.277,249.228 323.876,248.489 324.476,247.751 325.076,247.014 325.675,246.278 326.275,245.543 326.874,244.809 327.474,244.075 328.073,243.343 328.673,242.612 329.272,241.881 329.872,241.152 330.471,240.424 331.071,239.696 331.671,238.97 332.27,238.245 332.87,237.52 333.469,236.797 334.069,236.075 334.668,235.354 335.268,234.634 335.867,233.915 336.467,233.197 337.067,232.481 337.666,231.765 338.266,231.051 338.865,230.337 339.465,229.625 340.064,228.914 340.664,228.205 341.263,227.496 341.863,226.789 342.463,226.082 343.062,225.377 343.662,224.674 344.261,223.971 344.861,223.27 345.46,222.57 346.06,221.871 346.659,221.174 347.259,220.477 347.859,219.782 348.458,219.089 349.058,218.396 349.657,217.705 350.257,217.015 350.856,216.327 351.456,215.64 352.055,214.954 352.655,214.27 353.255,213.587 353.854,212.905 354.454,212.225 355.053,211.546 355.653,210.868 356.252,210.192 356.852,209.517 357.451,208.844 358.051,208.172 358.65,207.501 359.25,206.832 359.85,206.165 360.449,205.499 361.049,204.834 361.648,204.171 362.248,203.509 362.847,202.848 363.447,202.19 364.046,201.532 364.646,200.876 365.246,200.222 365.845,199.569 366.445,198.918 367.044,198.268 367.644,197.62 368.243,196.973 368.843,196.328 369.442,195.684 370.042,195.042 370.642,194.401 371.241,193.762 371.841,193.125 372.44,192.489 373.04,191.855 373.639,191.222 374.239,190.591 374.838,189.961 375.438,189.333 376.038,188.707 376.637,188.082 377.237,187.459 377.836,186.838 378.436,186.218 379.035,185.599 379.635,184.983 380.234,184.368 380.834,183.755 381.434,183.143 382.033,182.533 382.633,181.924 383.232,181.318 383.832,180.713 384.431,180.109 385.031,179.508 385.63,178.908 386.23,178.309 386.83,177.713 387.429,177.118 388.029,176.524 388.628,175.933 389.228,175.343 389.827,174.755 390.427,174.168 391.026,173.583 391.626,173 392.225,172.419 392.825,171.839 393.425,171.262 394.024,170.685 394.624,170.111 395.223,169.538 395.823,168.967 396.422,168.398 397.022,167.83 397.621,167.265 398.221,166.701 398.821,166.138 399.42,165.578 400.02,165.019 400.619,164.462 401.219,163.907 401.818,163.353 402.418,162.802 403.017,162.252 403.617,161.703 404.217,161.157 404.816,160.612 405.416,160.069 406.015,159.528 406.615,158.989 407.214,158.451 407.814,157.916 408.413,157.382 409.013,156.849 409.613,156.319 410.212,155.79 410.812,155.263 411.411,154.738 412.011,154.215 412.61,153.693 413.21,153.174 413.809,152.656 414.409,152.14 415.009,151.625 415.608,151.113 416.208,150.602 416.807,150.093 417.407,149.586 418.006,149.08 418.606,148.577 419.205,148.075 419.805,147.575 420.405,147.077 421.004,146.58 421.604,146.086 422.203,145.593 422.803,145.102 423.402,144.613 424.002,144.125 424.601,143.639 425.201,143.156 425.8,142.674 426.4,142.193 427,141.715 427.599,141.238 428.199,140.763 428.798,140.29 429.398,139.819 429.997,139.349 430.597,138.882 431.196,138.416 431.796,137.952 432.396,137.49 432.995,137.029 433.595,136.57 434.194,136.113 434.794,135.658 435.393,135.205 435.993,134.753 436.592,134.303 437.192,133.855 437.792,133.409 438.391,132.965 438.991,132.522 439.59,132.081 440.19,131.642 440.789,131.205 441.389,130.769 441.988,130.335 442.588,129.903 443.188,129.473 443.787,129.045 444.387,128.618 444.986,128.193 445.586,127.77 446.185,127.348 446.785,126.929 447.384,126.511 447.984,126.094 448.584,125.68 449.183,125.267 449.783,124.856 450.382,124.447 450.982,124.04 451.581,123.634 452.181,123.23 452.78,122.828 453.38,122.428 453.98,122.029 454.579,121.632 455.179,121.237 455.778,120.843 456.378,120.451 456.977,120.061 457.577,119.673 458.176,119.286 458.776,118.901 459.375,118.518 459.975,118.136 460.575,117.757 461.174,117.378 461.774,117.002 462.373,116.627 462.973,116.254 463.572,115.883 464.172,115.513 464.771,115.145 465.371,114.779 465.971,114.414 466.57,114.051 467.17,113.69 467.769,113.331 468.369,112.973 468.968,112.616 469.568,112.262 470.167,111.909 470.767,111.558 471.367,111.208 471.966,110.86 472.566,110.514 473.165,110.169 473.765,109.826 474.364,109.484 474.964,109.145 475.563,108.806 476.163,108.47 476.763,108.135 477.362,107.802 477.962,107.47 478.561,107.14 479.161,106.811 479.76,106.484 480.36,106.159 480.959,105.835 481.559,105.513 482.159,105.193 482.758,104.874 483.358,104.556 483.957,104.24 484.557,103.926 485.156,103.614 485.756,103.302 486.355,102.993 486.955,102.685 487.554,102.378 488.154,102.074 488.754,101.77 489.353,101.468 489.953,101.168 490.552,100.869 491.152,100.572 491.751,100.276 492.351,99.9823 492.95,99.6896 493.55,99.3985 494.15,99.1088 494.749,98.8207 495.349,98.534 495.948,98.2488 496.548,97.9652 497.147,97.683 497.747,97.4023 498.346,97.123 498.946,96.8452 499.546,96.5689 500.145,96.2941 500.745,96.0207 501.344,95.7488 501.944,95.4783 502.543,95.2093 503.143,94.9417 503.742,94.6756 504.342,94.4108 504.942,94.1475 505.541,93.8857 506.141,93.6252 506.74,93.3662 507.34,93.1085 507.939,92.8523 508.539,92.5975 509.138,92.344 509.738,92.092 510.338,91.8413 510.937,91.5921 511.537,91.3442 512.136,91.0976 512.736,90.8525 513.335,90.6087 513.935,90.3663 514.534,90.1252 515.134,89.8854 515.734,89.647 516.333,89.41 516.933,89.1743 517.532,88.9399 518.132,88.7068 518.731,88.4751 519.331,88.2447 519.93,88.0156 520.53,87.7878 521.129,87.5613 521.729,87.3361 522.329,87.1122 522.928,86.8896 523.528,86.6682 524.127,86.4482 524.727,86.2294 525.326,86.0119 525.926,85.7956 526.525,85.5806 527.125,85.3669 527.725,85.1544 528.324,84.9432 528.924,84.7332 529.523,84.5244 530.123,84.3169 530.722,84.1106 531.322,83.9055 531.921,83.7016 532.521,83.499 533.121,83.2975 533.72,83.0973 534.32,82.8982 534.919,82.7004 535.519,82.5037 536.118,82.3082 536.718,82.1139 537.317,81.9208 537.917,81.7288 538.517,81.538 539.116,81.3484 539.716,81.1599 540.315,80.9725 540.915,80.7863 541.514,80.6013 542.114,80.4174 542.713,80.2346 543.313,80.0529 543.913,79.8724 544.512,79.693 545.112,79.5146 545.711,79.3374 546.311,79.1613 546.91,78.9863 547.51,78.8124 548.109,78.6396 548.709,78.4678 549.309,78.2972 549.908,78.1276 550.508,77.959 551.107,77.7916 551.707,77.6252 552.306,77.4598 552.906,77.2955 553.505,77.1323 554.105,76.97 554.704,76.8089 555.304,76.6487 555.904,76.4896 556.503,76.3315 557.103,76.1744 557.702,76.0183 558.302,75.8632 558.901,75.7092 559.501,75.5561 560.1,75.404 560.7,75.2529 561.3,75.1028 561.899,74.9537 562.499,74.8056 563.098,74.6584 563.698,74.5122 564.297,74.3669 564.897,74.2226 565.496,74.0793 566.096,73.9369 566.696,73.7954 567.295,73.6549 567.895,73.5153 568.494,73.3766 569.094,73.2389 569.693,73.1021 570.293,72.9662 570.892,72.8312 571.492,72.6971 572.092,72.5639 572.691,72.4316 573.291,72.3002 573.89,72.1697 574.49,72.0401 575.089,71.9113 575.689,71.7835 576.288,71.6564 576.888,71.5303 577.488,71.405 578.087,71.2806 578.687,71.157 579.286,71.0343 579.886,70.9124 580.485,70.7914 581.085,70.6712 581.684,70.5518 582.284,70.4333 582.883,70.3155 583.483,70.1986 584.083,70.0825 584.682,69.9672 585.282,69.8527 585.881,69.739 586.481,69.6262 587.08,69.5141 587.68,69.4027 588.279,69.2922 588.879,69.1825 589.479,69.0735 590.078,68.9653 590.678,68.8578 591.277,68.7511 591.877,68.6452 592.476,68.5401 593.076,68.4356 593.675,68.332 594.275,68.229 594.875,68.1268 595.474,68.0254 596.074,67.9246 596.673,67.8246 597.273,67.7253 597.872,67.6267 598.472,67.5289 599.071,67.4317 599.671,67.3353 600.271,67.2395 600.87,67.1445 601.47,67.0501 602.069,66.9564 602.669,66.8635 603.268,66.7711 603.868,66.6795 604.467,66.5886 605.067,66.4983 605.667,66.4086 606.266,66.3197 606.866,66.2314 607.465,66.1437 608.065,66.0567 608.664,65.9704 609.264,65.8846 609.863,65.7996 610.463,65.7151 611.063,65.6313 611.662,65.5481 612.262,65.4655 612.861,65.3836 613.461,65.3023 614.06,65.2216 614.66,65.1414 615.259,65.0619 615.859,64.983 616.458,64.9047 617.058,64.827 617.658,64.7499 618.257,64.6734 618.857,64.5974 619.456,64.522 620.056,64.4472 620.655,64.373 621.255,64.2993 621.854,64.2262 622.454,64.1537 623.054,64.0817 623.653,64.0103 624.253,63.9394 624.852,63.8691 625.452,63.7993 626.051,63.7301 626.651,63.6614 627.25,63.5932 627.85,63.5256 628.45,63.4585 629.049,63.3919 629.649,63.3259 630.248,63.2603 630.848,63.1953 631.447,63.1308 632.047,63.0667 632.646,63.0032 633.246,62.9402 633.846,62.8777 634.445,62.8157 635.045,62.7542 635.644,62.6931 636.244,62.6326 636.843,62.5725 637.443,62.5129 638.042,62.4538 638.642,62.3951 639.242,62.337 639.841,62.2792 640.441,62.222 641.04,62.1652 641.64,62.1089 642.239,62.053 642.839,61.9976 643.438,61.9426 644.038,61.888 644.638,61.834 645.237,61.7803 645.837,61.7271 646.436,61.6743 647.036,61.6219 647.635,61.57 648.235,61.5185 648.834,61.4674 649.434,61.4167 650.033,61.3665 650.633,61.3166 651.233,61.2672 651.832,61.2182 652.432,61.1696 653.031,61.1214 653.631,61.0735 654.23,61.0261 654.83,60.9791 655.429,60.9324 656.029,60.8862 656.629,60.8403 657.228,60.7948 657.828,60.7497 658.427,60.705 659.027,60.6606 659.626,60.6167 660.226,60.573 660.825,60.5298 661.425,60.4869 662.025,60.4444 662.624,60.4022 663.224,60.3604 663.823,60.319 664.423,60.2779 665.022,60.2371 665.622,60.1967 666.221,60.1566 666.821,60.1169 667.421,60.0775 668.02,60.0385 668.62,59.9997 669.219,59.9614 669.819,59.9233 670.418,59.8856 671.018,59.8482 671.617,59.8111 672.217,59.7743 672.817,59.7379 673.416,59.7017 674.016,59.6659 674.615,59.6304 675.215,59.5952 675.814,59.5603 676.414,59.5257 677.013,59.4914 677.613,59.4574 678.213,59.4237 678.812,59.3903 679.412,59.3572 680.011,59.3244 680.611,59.2918 681.21,59.2596 681.81,59.2276 682.409,59.1959 683.009,59.1645 683.608,59.1334 684.208,59.1025 684.808,59.072 685.407,59.0416 686.007,59.0116 686.606,58.9818 687.206,58.9523 687.805,58.9231 688.405,58.8941 689.004,58.8653 689.604,58.8369 690.204,58.8087 690.803,58.7807 691.403,58.753 692.002,58.7255 692.602,58.6983 693.201,58.6713 693.801,58.6446 694.4,58.6181 695,58.5918 "
       vector-effect="non-scaling-stroke" />
  </g>
  <g
     style="font-size:14.66670036px;font-style:normal;font-weight:400;fill:none;stroke:#0000ff;stroke-width:3;stroke-linecap:butt;stroke-linejoin:miter;stroke-miterlimit:2;stroke-opacity:1;font-family:Cantarell"
     id="g44"
     font-style="normal"
     font-weight="400"
     font-size="14.6667"
     stroke-miterlimit="2"
     transform="translate(-17,-7)">
    <polyline
       style="fill:none"
       id="polyline46"
       points="665,119 665,63 "
       vector-effect="none" />
  </g>
  <g
     style="font-size:14.66670036px;font-style:normal;font-weight:400;fill:#0000ff;fill-opacity:1;fill-rule:evenodd;stroke:#0000ff;stroke-width:3;stroke-linecap:butt;stroke-linejoin:miter;stroke-miterlimit:2;stroke-opacity:1;font-family:Cantarell"
     id="g52"
     font-style="normal"
     font-weight="400"
     font-size="14.6667"
     transform="matrix(0,-1,1,0,648,56)"
     stroke-miterlimit="2">
    <path
       style="fill-rule:evenodd"
       inkscape:connector-curvature="0"
       id="path54"
       d="m 0,0 -4,3 0,-6 4,3"
       vector-effect="none" />
  </g>
  <g
     style="font-size:14.66670036px;font-style:normal;font-weight:400;fill:none;stroke:#0000ff;stroke-width:3;stroke-linecap:butt;stroke-linejoin:miter;stroke-miterlimit:2;stroke-opacity:1;font-family:Cantarell"
     id="g62"
     font-style="normal"
     font-weight="400"
     font-size="14.6667"
     stroke-miterlimit="2"
     transform="translate(-17,-7)">
    <polyline
       style="fill:none"
       id="polyline64"
       points="313,364 313,268 "
       vector-effect="none" />
  </g>
  <g
     style="font-size:14.66670036px;font-style:normal;font-weight:400;fill:#0000ff;fill-opacity:1;fill-rule:evenodd;stroke:#0000ff;stroke-width:3;stroke-linecap:butt;stroke-linejoin:miter;stroke-miterlimit:2;stroke-opacity:1;font-family:Cantarell"
     id="g70"
     font-style="normal"
     font-weight="400"
     font-size="14.6667"
     transform="matrix(0,-1,1,0,296,261)"
     stroke-miterlimit="2">
    <path
       style="fill-rule:evenodd"
       inkscape:connector-curvature="0"
       id="path72"
       d="m 0,0 -4,3 0,-6 4,3"
       vector-effect="none" />
  </g>
  <g
     style="font-size:26.66670036px;font-style:normal;font-weight:400;fill:none;stroke:#000000;stroke-width:1;stroke-linecap:square;stroke-linejoin:bevel;stroke-opacity:1;font-family:Gentium"
     id="g90"
     font-style="normal"
     font-weight="400"
     font-size="26.6667"
     transform="matrix(0,-1,1,0,0,463)">
    <text
       style="font-size:26.66670036px;font-style:normal;font-weight:400;fill:#000000;fill-opacity:1;stroke:none;font-family:Gentium"
       id="text92"
       font-style="normal"
       font-weight="400"
       font-size="26.6667"
       y="23"
       x="34.5"
       xml:space="preserve">Probabilidade de Repetição de IV</text>
  </g>
  <g
     style="font-size:26.66670036px;font-style:normal;font-weight:400;fill:none;stroke:#313739;stroke-width:1;stroke-linecap:square;stroke-linejoin:bevel;stroke-opacity:1;font-family:Gentium"
     id="g102"
     font-style="normal"
     font-weight="400"
     font-size="26.6667"
     transform="translate(53,432)">
    <text
       style="font-size:26.66670036px;font-style:normal;font-weight:400;fill:#313739;fill-opacity:1;stroke:none;font-family:Gentium"
       id="text104"
       font-style="normal"
       font-weight="400"
       font-size="26.6667"
       y="23"
       x="0"
       xml:space="preserve">0</text>
  </g>
  <g
     style="font-size:26.66670036px;font-style:normal;font-weight:400;fill:none;stroke:#313739;stroke-width:1;stroke-linecap:square;stroke-linejoin:bevel;stroke-opacity:1;font-family:Gentium"
     id="g110"
     font-style="normal"
     font-weight="400"
     font-size="26.6667"
     transform="translate(34,352)">
    <text
       style="font-size:26.66670036px;font-style:normal;font-weight:400;fill:#313739;fill-opacity:1;stroke:none;font-family:Gentium"
       id="text112"
       font-style="normal"
       font-weight="400"
       font-size="26.6667"
       y="23"
       x="0"
       xml:space="preserve">0,2</text>
  </g>
  <g
     style="font-size:26.66670036px;font-style:normal;font-weight:400;fill:none;stroke:#313739;stroke-width:1;stroke-linecap:square;stroke-linejoin:bevel;stroke-opacity:1;font-family:Gentium"
     id="g118"
     font-style="normal"
     font-weight="400"
     font-size="26.6667"
     transform="translate(34,272)">
    <text
       style="font-size:26.66670036px;font-style:normal;font-weight:400;fill:#313739;fill-opacity:1;stroke:none;font-family:Gentium"
       id="text120"
       font-style="normal"
       font-weight="400"
       font-size="26.6667"
       y="23"
       x="0"
       xml:space="preserve">0,4</text>
  </g>
  <g
     style="font-size:26.66670036px;font-style:normal;font-weight:400;fill:none;stroke:#313739;stroke-width:1;stroke-linecap:square;stroke-linejoin:bevel;stroke-opacity:1;font-family:Gentium"
     id="g126"
     font-style="normal"
     font-weight="400"
     font-size="26.6667"
     transform="translate(34,193)">
    <text
       style="font-size:26.66670036px;font-style:normal;font-weight:400;fill:#313739;fill-opacity:1;stroke:none;font-family:Gentium"
       id="text128"
       font-style="normal"
       font-weight="400"
       font-size="26.6667"
       y="23"
       x="0"
       xml:space="preserve">0,6</text>
  </g>
  <g
     style="font-size:26.66670036px;font-style:normal;font-weight:400;fill:none;stroke:#313739;stroke-width:1;stroke-linecap:square;stroke-linejoin:bevel;stroke-opacity:1;font-family:Gentium"
     id="g134"
     font-style="normal"
     font-weight="400"
     font-size="26.6667"
     transform="translate(34,113)">
    <text
       style="font-size:26.66670036px;font-style:normal;font-weight:400;fill:#313739;fill-opacity:1;stroke:none;font-family:Gentium"
       id="text136"
       font-style="normal"
       font-weight="400"
       font-size="26.6667"
       y="23"
       x="0"
       xml:space="preserve">0,8</text>
  </g>
  <g
     style="font-size:26.66670036px;font-style:normal;font-weight:400;fill:none;stroke:#313739;stroke-width:1;stroke-linecap:square;stroke-linejoin:bevel;stroke-opacity:1;font-family:Gentium"
     id="g142"
     font-style="normal"
     font-weight="400"
     font-size="26.6667"
     transform="translate(53,33)">
    <text
       style="font-size:26.66670036px;font-style:normal;font-weight:400;fill:#313739;fill-opacity:1;stroke:none;font-family:Gentium"
       id="text144"
       font-style="normal"
       font-weight="400"
       font-size="26.6667"
       y="23"
       x="0"
       xml:space="preserve">1</text>
  </g>
  <g
     style="font-size:26.66670036px;font-style:normal;font-weight:400;fill:none;stroke:#000000;stroke-width:1;stroke-linecap:square;stroke-linejoin:bevel;stroke-opacity:1;font-family:Gentium"
     id="g152"
     font-style="normal"
     font-weight="400"
     font-size="26.6667"
     transform="translate(-17,-7)">
    <polyline
       style="fill:none"
       id="polyline154"
       points="96,435 91,435 "
       vector-effect="none" />
    <polyline
       style="fill:none"
       id="polyline156"
       points="96,395 91,395 "
       vector-effect="none" />
    <polyline
       style="fill:none"
       id="polyline158"
       points="96,355 91,355 "
       vector-effect="none" />
    <polyline
       style="fill:none"
       id="polyline160"
       points="96,315 91,315 "
       vector-effect="none" />
    <polyline
       style="fill:none"
       id="polyline162"
       points="96,275 91,275 "
       vector-effect="none" />
    <polyline
       style="fill:none"
       id="polyline164"
       points="96,236 91,236 "
       vector-effect="none" />
    <polyline
       style="fill:none"
       id="polyline166"
       points="96,196 91,196 "
       vector-effect="none" />
    <polyline
       style="fill:none"
       id="polyline168"
       points="96,156 91,156 "
       vector-effect="none" />
    <polyline
       style="fill:none"
       id="polyline170"
       points="96,116 91,116 "
       vector-effect="none" />
    <polyline
       style="fill:none"
       id="polyline172"
       points="96,76 91,76 "
       vector-effect="none" />
    <polyline
       style="fill:none"
       id="polyline174"
       points="96,415 91,415 "
       vector-effect="none" />
    <polyline
       style="fill:none"
       id="polyline176"
       points="96,335 91,335 "
       vector-effect="none" />
    <polyline
       style="fill:none"
       id="polyline178"
       points="96,256 91,256 "
       vector-effect="none" />
    <polyline
       style="fill:none"
       id="polyline180"
       points="96,176 91,176 "
       vector-effect="none" />
    <polyline
       style="fill:none"
       id="polyline182"
       points="96,96 91,96 "
       vector-effect="none" />
    <polyline
       style="fill:none"
       id="polyline184"
       points="96,455 87,455 "
       vector-effect="none" />
    <polyline
       style="fill:none"
       id="polyline186"
       points="96,375 87,375 "
       vector-effect="none" />
    <polyline
       style="fill:none"
       id="polyline188"
       points="96,295 87,295 "
       vector-effect="none" />
    <polyline
       style="fill:none"
       id="polyline190"
       points="96,216 87,216 "
       vector-effect="none" />
    <polyline
       style="fill:none"
       id="polyline192"
       points="96,136 87,136 "
       vector-effect="none" />
    <polyline
       style="fill:none"
       id="polyline194"
       points="96,56 87,56 "
       vector-effect="none" />
  </g>
  <g
     style="font-size:26.66670036px;font-style:normal;font-weight:400;fill:none;stroke:#000000;stroke-width:1;stroke-linecap:square;stroke-linejoin:bevel;stroke-opacity:1;font-family:Gentium"
     id="g198"
     font-style="normal"
     font-weight="400"
     font-size="26.6667"
     transform="translate(-17,-7)">
    <polyline
       style="fill:none"
       id="polyline200"
       points="96,56 96,455 "
       vector-effect="none" />
  </g>
  <g
     style="font-size:26.66670036px;font-style:normal;font-weight:400;fill:none;stroke:#000000;stroke-width:1;stroke-linecap:square;stroke-linejoin:bevel;stroke-opacity:1;font-family:Gentium"
     id="g210"
     font-style="normal"
     font-weight="400"
     font-size="26.6667"
     transform="translate(73,495)">
    <text
       style="font-size:26.66670036px;font-style:normal;font-weight:400;fill:#000000;fill-opacity:1;stroke:none;font-family:Gentium"
       id="text212"
       font-style="normal"
       font-weight="400"
       font-size="26.6667"
       y="24"
       x="199.5"
       xml:space="preserve">Quadros Transmitidos</text>
  </g>
  <g
     style="font-size:26.66670036px;font-style:normal;font-weight:400;fill:none;stroke:#313739;stroke-width:1;stroke-linecap:square;stroke-linejoin:bevel;stroke-opacity:1;font-family:Gentium"
     id="g222"
     font-style="normal"
     font-weight="400"
     font-size="26.6667"
     transform="translate(73,462)">
    <text
       style="font-size:26.66670036px;font-style:normal;font-weight:400;fill:#313739;fill-opacity:1;stroke:none;font-family:Gentium"
       id="text224"
       font-style="normal"
       font-weight="400"
       font-size="26.6667"
       y="24"
       x="0"
       xml:space="preserve">0</text>
  </g>
  <g
     style="font-size:26.66670036px;font-style:normal;font-weight:400;fill:none;stroke:#313739;stroke-width:1;stroke-linecap:square;stroke-linejoin:bevel;stroke-opacity:1;font-family:Gentium"
     id="g230"
     font-style="normal"
     font-weight="400"
     font-size="26.6667"
     transform="translate(280,462)">
    <text
       style="font-size:26.66670036px;font-style:normal;font-weight:400;fill:#313739;fill-opacity:1;stroke:none;font-family:Gentium"
       id="text232"
       font-style="normal"
       font-weight="400"
       font-size="26.6667"
       y="24"
       x="0"
       xml:space="preserve">5.000</text>
  </g>
  <g
     style="font-size:26.66670036px;font-style:normal;font-weight:400;fill:none;stroke:#313739;stroke-width:1;stroke-linecap:square;stroke-linejoin:bevel;stroke-opacity:1;font-family:Gentium"
     id="g238"
     font-style="normal"
     font-weight="400"
     font-size="26.6667"
     transform="translate(505,462)">
    <text
       style="font-size:26.66670036px;font-style:normal;font-weight:400;fill:#313739;fill-opacity:1;stroke:none;font-family:Gentium"
       id="text240"
       font-style="normal"
       font-weight="400"
       font-size="26.6667"
       y="24"
       x="0"
       xml:space="preserve">10.000</text>
  </g>
  <g
     style="font-size:26.66670036px;font-style:normal;font-weight:400;fill:none;stroke:#000000;stroke-width:1;stroke-linecap:square;stroke-linejoin:bevel;stroke-opacity:1;font-family:Gentium"
     id="g248"
     font-style="normal"
     font-weight="400"
     font-size="26.6667"
     transform="translate(-17,-7)">
    <polyline
       style="fill:none"
       id="polyline250"
       points="142,455 142,460 "
       vector-effect="none" />
    <polyline
       style="fill:none"
       id="polyline252"
       points="188,455 188,460 "
       vector-effect="none" />
    <polyline
       style="fill:none"
       id="polyline254"
       points="234,455 234,460 "
       vector-effect="none" />
    <polyline
       style="fill:none"
       id="polyline256"
       points="280,455 280,460 "
       vector-effect="none" />
    <polyline
       style="fill:none"
       id="polyline258"
       points="372,455 372,460 "
       vector-effect="none" />
    <polyline
       style="fill:none"
       id="polyline260"
       points="419,455 419,460 "
       vector-effect="none" />
    <polyline
       style="fill:none"
       id="polyline262"
       points="465,455 465,460 "
       vector-effect="none" />
    <polyline
       style="fill:none"
       id="polyline264"
       points="511,455 511,460 "
       vector-effect="none" />
    <polyline
       style="fill:none"
       id="polyline266"
       points="603,455 603,460 "
       vector-effect="none" />
    <polyline
       style="fill:none"
       id="polyline268"
       points="649,455 649,460 "
       vector-effect="none" />
    <polyline
       style="fill:none"
       id="polyline270"
       points="695,455 695,460 "
       vector-effect="none" />
    <polyline
       style="fill:none"
       id="polyline272"
       points="96,455 96,464 "
       vector-effect="none" />
    <polyline
       style="fill:none"
       id="polyline274"
       points="326,455 326,464 "
       vector-effect="none" />
    <polyline
       style="fill:none"
       id="polyline276"
       points="557,455 557,464 "
       vector-effect="none" />
  </g>
  <g
     style="font-size:26.66670036px;font-style:normal;font-weight:400;fill:none;stroke:#000000;stroke-width:1;stroke-linecap:square;stroke-linejoin:bevel;stroke-opacity:1;font-family:Gentium"
     id="g280"
     font-style="normal"
     font-weight="400"
     font-size="26.6667"
     transform="translate(-17,-7)">
    <polyline
       style="fill:none"
       id="polyline282"
       points="96,455 695,455 "
       vector-effect="none" />
  </g>
  <g
     style="font-size:18.66670036px;font-style:normal;font-weight:700;fill:none;stroke:#0000ff;stroke-width:1;stroke-linecap:square;stroke-linejoin:miter;stroke-miterlimit:2;stroke-opacity:1;font-family:Cantarell"
     id="g314"
     font-style="normal"
     font-weight="700"
     font-size="18.6667"
     stroke-miterlimit="2"
     transform="translate(-17,-7)">
    <path
       inkscape:connector-curvature="0"
       id="path316"
       d="m 513,125 222,0 0,42 -222,0 0,-42"
       vector-effect="non-scaling-stroke" />
  </g>
  <g
     style="font-size:26.66670036px;font-style:italic;font-weight:400;fill:none;stroke:#000000;stroke-width:1;stroke-linecap:square;stroke-linejoin:bevel;stroke-opacity:1;font-family:Gentium"
     id="g322"
     font-style="italic"
     font-weight="400"
     font-size="26.6667"
     transform="translate(496,118)">
    <text
       style="font-size:26.66670036px;font-style:italic;font-weight:400;fill:#000000;fill-opacity:1;stroke:none;font-family:Gentium"
       id="text324"
       font-style="italic"
       font-weight="400"
       font-size="26.6667"
       y="29"
       x="11"
       xml:space="preserve">12000 quadros &gt; 99%</text>
  </g>
  <g
     style="font-size:18.66670036px;font-style:normal;font-weight:700;fill:none;stroke:#0000ff;stroke-width:1;stroke-linecap:square;stroke-linejoin:miter;stroke-miterlimit:2;stroke-opacity:1;font-family:Cantarell"
     id="g330"
     font-style="normal"
     font-weight="700"
     font-size="18.6667"
     stroke-miterlimit="2"
     transform="translate(-17,-7)">
    <path
       inkscape:connector-curvature="0"
       id="path332"
       d="m 257,364 212,0 0,42 -212,0 0,-42"
       vector-effect="non-scaling-stroke" />
  </g>
  <g
     style="font-size:26.66670036px;font-style:italic;font-weight:400;fill:none;stroke:#000000;stroke-width:1;stroke-linecap:square;stroke-linejoin:bevel;stroke-opacity:1;font-family:Gentium"
     id="g338"
     font-style="italic"
     font-weight="400"
     font-size="26.6667"
     transform="translate(240,357)">
    <text
       style="font-size:26.66670036px;font-style:italic;font-weight:400;fill:#000000;fill-opacity:1;stroke:none;font-family:Gentium"
       id="text340"
       font-style="italic"
       font-weight="400"
       font-size="26.6667"
       y="29"
       x="11"
       xml:space="preserve">4825 quadros &gt; 50%</text>
  </g>
</svg>
