<!-- Created with Inkscape (http://www.inkscape.org/) -->
<svg id="svg4697" xmlns:rdf="http://www.w3.org/1999/02/22-rdf-syntax-ns#" xmlns="http://www.w3.org/2000/svg" xml:space="preserve" height="312.31" width="764.43" version="1.1" xmlns:cc="http://creativecommons.org/ns#" xmlns:xlink="http://www.w3.org/1999/xlink" xmlns:dc="http://purl.org/dc/elements/1.1/"><metadata id="metadata4703"><rdf:RDF><cc:Work rdf:about=""><dc:format>image/svg+xml</dc:format><dc:type rdf:resource="http://purl.org/dc/dcmitype/StillImage"/><dc:title/></cc:Work></rdf:RDF></metadata><defs id="defs4701"><clipPath id="clipPath31890" clipPathUnits="userSpaceOnUse"><path id="path31892" clip-rule="evenodd" d="M0.000010729,0,720,0v540h-720v-540z"/></clipPath><clipPath id="clipPath31878" clipPathUnits="userSpaceOnUse"><path id="path31880" clip-rule="evenodd" d="M0.000010729,0,720,0v540h-720v-540z"/></clipPath><clipPath id="clipPath31866" clipPathUnits="userSpaceOnUse"><path id="path31868" clip-rule="evenodd" d="M0.000010729,0,720,0v540h-720v-540z"/></clipPath><clipPath id="clipPath31854" clipPathUnits="userSpaceOnUse"><path id="path31856" clip-rule="evenodd" d="M0.000010729,0,720,0v540h-720v-540z"/></clipPath><clipPath id="clipPath31842" clipPathUnits="userSpaceOnUse"><path id="path31844" clip-rule="evenodd" d="M0.000010729,0,720,0v540h-720v-540z"/></clipPath><clipPath id="clipPath31830" clipPathUnits="userSpaceOnUse"><path id="path31832" clip-rule="evenodd" d="M0.000010729,0,720,0v540h-720v-540z"/></clipPath><clipPath id="clipPath31818" clipPathUnits="userSpaceOnUse"><path id="path31820" clip-rule="evenodd" d="M0.000010729,0,720,0v540h-720v-540z"/></clipPath><clipPath id="clipPath31806" clipPathUnits="userSpaceOnUse"><path id="path31808" clip-rule="evenodd" d="M0.000010729,0,720,0v540h-720v-540z"/></clipPath><clipPath id="clipPath31794" clipPathUnits="userSpaceOnUse"><path id="path31796" clip-rule="evenodd" d="M0.000010729,0,720,0v540h-720v-540z"/></clipPath><clipPath id="clipPath31782" clipPathUnits="userSpaceOnUse"><path id="path31784" clip-rule="evenodd" d="M0.000010729,0,720,0v540h-720v-540z"/></clipPath><clipPath id="clipPath31770" clipPathUnits="userSpaceOnUse"><path id="path31772" clip-rule="evenodd" d="M0.000010729,0,720,0v540h-720v-540z"/></clipPath><clipPath id="clipPath31758" clipPathUnits="userSpaceOnUse"><path id="path31760" clip-rule="evenodd" d="M0.000010729,0,720,0v540h-720v-540z"/></clipPath><clipPath id="clipPath31746" clipPathUnits="userSpaceOnUse"><path id="path31748" clip-rule="evenodd" d="M0.000010729,0,720,0v540h-720v-540z"/></clipPath><clipPath id="clipPath31734" clipPathUnits="userSpaceOnUse"><path id="path31736" clip-rule="evenodd" d="M0.000010729,0,720,0v540h-720v-540z"/></clipPath><clipPath id="clipPath31722" clipPathUnits="userSpaceOnUse"><path id="path31724" clip-rule="evenodd" d="M0.000010729,0,720,0v540h-720v-540z"/></clipPath><clipPath id="clipPath31710" clipPathUnits="userSpaceOnUse"><path id="path31712" clip-rule="evenodd" d="M0.000010729,0,720,0v540h-720v-540z"/></clipPath><clipPath id="clipPath31698" clipPathUnits="userSpaceOnUse"><path id="path31700" clip-rule="evenodd" d="M0.000010729,0,720,0v540h-720v-540z"/></clipPath><linearGradient id="linearGradient32288" y2="381.64" gradientUnits="userSpaceOnUse" x2="34.923" gradientTransform="translate(29.906264,-58.419132)" y1="383.83" x1="523.08"><stop id="stop32284" stop-color="#3247f7" offset="0"/><stop id="stop32286" stop-color="#fefef4" offset="1"/></linearGradient></defs><g id="g4705" transform="matrix(1.25,0,0,-1.25,5.3515454,526.24867)"><path id="path31692" stroke-linejoin="miter" d="m-3.9212,368.38,600,0,0,32.04-600,0,0-32.04z" stroke="#000" stroke-linecap="butt" stroke-miterlimit="10" stroke-dasharray="none" stroke-width="0.72000003" fill="url(#linearGradient32288)"/><g id="g31694" transform="translate(-54.921233,98.375971)"><g id="g31696" clip-path="url(#clipPath31698)"><text id="text31702" transform="matrix(1,0,0,-1,57.96,309.58)"><tspan id="tspan31704" style="writing-mode:lr-tb;" font-weight="normal" fill-rule="nonzero" font-size="18px" font-variant="normal" y="0" x="0 10.008 19.926001 24.93 39.924 49.931999 59.886002 63.882 67.806 71.802002 76.806" font-family="Arial" fill="#000000">no mobility</tspan></text>
</g></g><g id="g31706" transform="translate(-54.921233,98.375971)"><g id="g31708" clip-path="url(#clipPath31710)"><text id="text31714" transform="matrix(1,0,0,-1,540.05,308.57)"><tspan id="tspan31716" style="writing-mode:lr-tb;" font-weight="normal" fill-rule="nonzero" font-size="18px" font-variant="normal" y="0" x="0 10.008 13.914 23.922001 33.84 38.987999 53.981998 63.990002 73.907997 77.903999 81.828003 85.823997 90.828003" font-family="Arial" fill="#000000">high mobility</tspan></text>
</g></g><g id="g31718" transform="translate(-54.921233,98.375971)"><g id="g31720" clip-path="url(#clipPath31722)"><text id="text31726" transform="matrix(1,0,0,-1,51.96,195.5)"><tspan id="tspan31728" style="writing-mode:lr-tb;" font-weight="normal" fill-rule="nonzero" font-size="20.04000092px" font-variant="normal" y="0" x="0 16.693319 27.83556 38.977798 43.426682 47.875561 59.017799 64.448639 78.917519 83.366402 90.099838 101.24208 105.69096 116.8332 126.91332 136.93332 142.26396 153.4062 163.48631 174.62856 180.27985 185.85097" font-family="Arial" fill="#000000">mobile wireless user,</tspan></text>
</g></g><g id="g31730" transform="translate(-54.921233,98.375971)"><g id="g31732" clip-path="url(#clipPath31734)"><text id="text31738" transform="matrix(1,0,0,-1,51.96,171.5)"><tspan id="tspan31740" style="writing-mode:lr-tb;" font-weight="normal" fill-rule="nonzero" font-size="20.06399918px" font-variant="normal" y="0" x="0 11.155584 21.187584 25.641792 36.797375 47.952961 53.390305 63.422302 74.577888 91.291199 102.44678 107.74368 118.89926 128.93126 139.04352 150.1991 160.23111 170.34335" font-family="Arial" fill="#000000">using same access</tspan></text>
</g></g><g id="g31742" transform="translate(-54.921233,98.375971)"><g id="g31744" clip-path="url(#clipPath31746)"><text id="text31750" transform="matrix(1,0,0,-1,51.96,147.48)"><tspan id="tspan31752" style="writing-mode:lr-tb;" font-weight="normal" fill-rule="nonzero" font-size="20.04000092px" font-variant="normal" y="0" x="0 11.14224 22.284479 26.73336 37.875599" font-family="Arial" fill="#000000">point</tspan></text>
</g></g><g id="g31754" transform="translate(-54.921233,98.375971)"><g id="g31756" clip-path="url(#clipPath31758)"><text id="text31762" transform="matrix(1,0,0,-1,481.03,194.62)"><tspan id="tspan31764" style="writing-mode:lr-tb;" font-weight="normal" fill-rule="nonzero" font-size="20.04000092px" font-variant="normal" y="0" x="0 16.693319 27.83556 38.977798 43.426682 47.875561 59.017799 64.448639 75.590881 85.670998 96.81324 102.46452 108.03564 113.26608 124.40832 135.55057 145.65073 155.67072 160.1196 171.30193 182.44415" font-family="Arial" fill="#000000">mobile user, passing</tspan></text>
</g></g><g id="g31766" transform="translate(-54.921233,98.375971)"><g id="g31768" clip-path="url(#clipPath31770)"><text id="text31774" transform="matrix(1,0,0,-1,481.03,170.62)"><tspan id="tspan31776" style="writing-mode:lr-tb;" font-weight="normal" fill-rule="nonzero" font-size="20.04000092px" font-variant="normal" y="0" x="0 5.5711198 16.71336 23.386681 34.528919 45.671162 56.853481 67.99572 73.166039 89.85936 101.0016 105.45048 111.0216 115.41036 126.5526 131.00148 142.14372" font-family="Arial" fill="#000000">through multiple</tspan></text>
</g></g><g id="g31778" transform="translate(-54.921233,98.375971)"><g id="g31780" clip-path="url(#clipPath31782)"><text id="text31786" transform="matrix(1,0,0,-1,481.03,146.62)"><tspan id="tspan31788" style="writing-mode:lr-tb;" font-weight="normal" fill-rule="nonzero" font-size="20.04000092px" font-variant="normal" y="0" x="0 11.14224 21.222361 31.242359 42.444721 52.464722 62.584919 67.735199 78.877441 90.019676 94.468559 105.6108 111.18192 116.57268 131.04156 142.22388 146.67276 151.12164 162.26389" font-family="Arial" fill="#000000">access point while</tspan></text>
</g></g><g id="g31790" transform="translate(-54.921233,98.375971)"><g id="g31792" clip-path="url(#clipPath31794)"><text id="text31798" transform="matrix(1,0,0,-1,481.03,122.62)"><tspan id="tspan31800" style="writing-mode:lr-tb;" font-weight="normal" fill-rule="nonzero" font-size="20.06399918px" font-variant="normal" y="0" x="0 16.713312 27.868896 32.323105 43.478687 48.956161 60.111744 64.565948 75.721535 80.175743 91.331329 102.48692 107.88412 119.03971 130.1953 141.35088 152.50647 156.96068 168.11626 179.27184" font-family="Arial" fill="#000000">maintaining ongoing</tspan></text>
</g></g><g id="g31802" transform="translate(-54.921233,98.375971)"><g id="g31804" clip-path="url(#clipPath31806)"><text id="text31810" transform="matrix(1,0,0,-1,481.03,98.592)"><tspan id="tspan31812" style="writing-mode:lr-tb;" font-weight="normal" fill-rule="nonzero" font-size="20.04000092px" font-variant="normal" y="0" x="0 10.02 21.222361 32.364601 43.50684 54.649078 64.769279 70.340401 74.789284 85.931519 97.073761 107.09376 112.16388" font-family="Arial" fill="#000000">connections (</tspan></text>
</g></g><g id="g31814" transform="translate(-54.921233,98.375971)"><g id="g31816" clip-path="url(#clipPath31818)"><text id="text31822" transform="matrix(1,0,0,-1,599.98,98.592)"><tspan id="tspan31824" style="writing-mode:lr-tb;" font-weight="normal" fill-rule="nonzero" font-size="18px" font-variant="normal" y="0" x="0 3.9960001 7.9200001 16.92 26.927999 31.931999 40.931999 50.886002 54.882 58.806" font-family="Arial" fill="#000000">like cell</tspan></text>
</g></g><g id="g31826" transform="translate(-54.921233,98.375971)"><g id="g31828" clip-path="url(#clipPath31830)"><text id="text31834" transform="matrix(1,0,0,-1,481.03,76.512)"><tspan id="tspan31836" style="writing-mode:lr-tb;" font-weight="normal" fill-rule="nonzero" font-size="18px" font-variant="normal" y="0" x="0 9.96 19.92 29.879999 39.84 49.799999" font-family="Arial" fill="#000000">phone)</tspan></text>
</g></g><g id="g31838" transform="translate(-54.921233,98.375971)"><g id="g31840" clip-path="url(#clipPath31842)"><text id="text31846" transform="matrix(1,0,0,-1,262.99,194.5)"><tspan id="tspan31848" style="writing-mode:lr-tb;" font-weight="normal" fill-rule="nonzero" font-size="20.04000092px" font-variant="normal" y="0" x="0 16.693319 27.83556 38.977798 43.426682 47.875561 59.017799 64.448639 75.590881 85.670998 96.81324 102.46452 108.03564" font-family="Arial" fill="#000000">mobile user,</tspan></text>
</g></g><g id="g31850" transform="translate(-54.921233,98.375971)"><g id="g31852" clip-path="url(#clipPath31854)"><text id="text31858" transform="matrix(1,0,0,-1,262.99,170.5)"><tspan id="tspan31860" style="writing-mode:lr-tb;" font-weight="normal" fill-rule="nonzero" font-size="20.04000092px" font-variant="normal" y="0" x="0 10.02 21.222361 32.364601 43.50684 54.649078 64.769279 70.340401 74.789284 85.931519 97.073761 102.56472" font-family="Arial" fill="#000000">connecting/</tspan></text>
</g></g><g id="g31862" transform="translate(-54.921233,98.375971)"><g id="g31864" clip-path="url(#clipPath31866)"><text id="text31870" transform="matrix(1,0,0,-1,262.99,146.5)"><tspan id="tspan31872" style="writing-mode:lr-tb;" font-weight="normal" fill-rule="nonzero" font-size="20.06399918px" font-variant="normal" y="0" x="0 11.155584 15.609792 25.641792 35.733986 46.889568 58.045151 69.200737 80.356323 90.428452 96.006241 100.3802 111.53577 122.69136 127.86787 133.44566 140.12697 151.28256 167.99586" font-family="Arial" fill="#000000">disconnecting from</tspan></text>
</g></g><g id="g31874" transform="translate(-54.921233,98.375971)"><g id="g31876" clip-path="url(#clipPath31878)"><text id="text31882" transform="matrix(1,0,0,-1,262.99,122.47)"><tspan id="tspan31884" style="writing-mode:lr-tb;" font-weight="normal" fill-rule="nonzero" font-size="20.04000092px" font-variant="normal" y="0" x="0 11.14224 22.284479 27.8556 42.324478 53.466721 60.2202 70.240196 75.4506 86.592842 96.672958 101.12184 112.26408 123.40632" font-family="Arial" fill="#000000">network using</tspan></text>
</g></g><g id="g31886" transform="translate(-54.921233,98.375971)"><g id="g31888" clip-path="url(#clipPath31890)"><text id="text31894" transform="matrix(1,0,0,-1,262.99,98.472)"><tspan id="tspan31896" style="writing-mode:lr-tb;" font-weight="normal" fill-rule="nonzero" font-size="20.04000092px" font-variant="normal" y="0" x="0 14.46888 29.01792 43.486801 54.328442 59.899559" font-family="Arial" fill="#000000">DHCP.</tspan></text>
</g></g><path id="path31898" stroke-linejoin="round" d="m41.139,316.36-17.04,67.92" stroke="#c00000" stroke-linecap="butt" stroke-miterlimit="10" stroke-dasharray="none" stroke-width="2.03999996" fill="none"/><path id="path31900" stroke-linejoin="round" d="m257.14,315.4,0,69.12" stroke="#c00000" stroke-linecap="butt" stroke-miterlimit="10" stroke-dasharray="none" stroke-width="2.03999996" fill="none"/><path id="path31902" stroke-linejoin="round" d="m490.18,315.64,12.96,69.84" stroke="#c00000" stroke-linecap="butt" stroke-miterlimit="10" stroke-dasharray="none" stroke-width="2.03999996" fill="none"/></g></svg>
