<!-- Created with Inkscape (http://www.inkscape.org/) -->
<svg id="svg4697" xmlns:rdf="http://www.w3.org/1999/02/22-rdf-syntax-ns#" xmlns="http://www.w3.org/2000/svg" xml:space="preserve" height="158" width="158" version="1.1" xmlns:cc="http://creativecommons.org/ns#" xmlns:xlink="http://www.w3.org/1999/xlink" xmlns:dc="http://purl.org/dc/elements/1.1/"><metadata id="metadata4703"><rdf:RDF><cc:Work rdf:about=""><dc:format>image/svg+xml</dc:format><dc:type rdf:resource="http://purl.org/dc/dcmitype/StillImage"/><dc:title/></cc:Work></rdf:RDF></metadata><defs id="defs4701"/><g id="g4705" transform="matrix(1.25,0,0,-1.25,-259.72569,519.68894)"><path id="path35257" stroke-linejoin="miter" d="m298.93,181.58c0,40.516-33.459,73.361-74.732,73.361-41.274,0-74.732-32.845-74.732-73.361s33.459-73.361,74.732-73.361c41.274,0,74.732,32.845,74.732,73.361z" transform="matrix(0.79215904,0,0,-0.80696576,93.380556,499.08147)" stroke-dashoffset="0" stroke="#F00" stroke-miterlimit="4" stroke-dasharray="none" stroke-width="10.00590229" fill="#fefef4"/><path id="path35259" stroke-linejoin="miter" d="m180.32,118.85,84.331,122.38" transform="matrix(0.8,0,0,-0.8,92.208608,497.3056)" stroke="#F00" stroke-linecap="butt" stroke-miterlimit="4" stroke-dasharray="none" stroke-width="10" fill="none"/><text id="text35261" style="letter-spacing:0px;text-anchor:middle;word-spacing:0px;text-align:center;" font-weight="normal" xml:space="preserve" transform="scale(1,-1)" font-style="normal" font-stretch="normal" font-size="16px" font-variant="normal" y="-374.52844" x="270.74377" font-family="Gentium" line-height="125%" fill="#000000"><tspan id="tspan35263" y="-374.52844" x="270.74377">Não Escalável</tspan><tspan id="tspan35265" y="-354.52844" x="270.74377">para Milhões</tspan><tspan id="tspan35267" y="-334.52844" x="270.74377">de Usuários</tspan><tspan id="tspan35269" y="-314.52844" x="270.74377">Móveis</tspan></text>
</g></svg>
