<?xml version="1.0" encoding="UTF-8" standalone="no"?>
<!-- Created with Inkscape (http://www.inkscape.org/) -->
<svg id="svg6424" xmlns:rdf="http://www.w3.org/1999/02/22-rdf-syntax-ns#" xmlns="http://www.w3.org/2000/svg" height="210.98" width="777.47" version="1.1" xmlns:cc="http://creativecommons.org/ns#" xmlns:xlink="http://www.w3.org/1999/xlink" xmlns:dc="http://purl.org/dc/elements/1.1/">
 <defs id="defs6426"></defs>
 <metadata id="metadata6429">
  <rdf:RDF>
   <cc:Work rdf:about="">
    <dc:format>image/svg+xml</dc:format>
    <dc:type rdf:resource="http://purl.org/dc/dcmitype/StillImage"/>
    <dc:title/>
   </cc:Work>
  </rdf:RDF>
 </metadata>
 <g id="layer1" transform="translate(453.21576,-289.16617)">
  <text id="text15632" y="307.72086" x="-296.70306" font-size="15px">
   <tspan id="tspan15634" style="writing-mode:lr-tb;" font-weight="bold" fill-rule="nonzero" font-size="25px" font-variant="normal" y="307.72086" x="-296.70306" font-family="Comic Sans MS" fill="#ffffff">1</tspan>
  </text>
  <text id="text15636" y="307.72086" x="-259.95306" font-size="15px">
   <tspan id="tspan15638" style="writing-mode:lr-tb;" font-weight="bold" fill-rule="nonzero" font-size="25px" font-variant="normal" y="307.72086" x="-259.95306 -244.70306 -223.20306 -207.95306 -186.22806 -170.97806 -149.47806 -134.22806 -112.50305 -97.253052 -75.753052 -60.503052 -38.778076 -23.528078 -2.0280774 13.221923 34.94693 50.19693 71.69696 86.946899 108.67194 123.92194 145.42194 160.67194 182.39691 197.64691 219.14691 234.39697 256.12189 271.37195 292.87195" font-family="Comic Sans MS" fill="#000000">1 1 1 0 0 1 1 0 0 1 1 0 0 1 1 0</tspan>
  </text>
  <text id="text15640" y="337.72086" x="-296.70306" font-size="15px">
   <tspan id="tspan15642" style="writing-mode:lr-tb;" font-weight="bold" fill-rule="nonzero" font-size="25px" font-variant="normal" y="337.72086" x="-296.70306" font-family="Comic Sans MS" fill="#ffffff">1</tspan>
  </text>
  <text id="text15644" y="337.72086" x="-259.95306" font-size="15px">
   <tspan id="tspan15646" style="writing-mode:lr-tb;" font-weight="bold" fill-rule="nonzero" font-size="25px" font-variant="normal" y="337.72086" x="-259.95306 -244.70306 -223.20306 -207.95306 -186.22806 -170.97806 -149.47806 -134.22806 -112.50305 -97.253052 -75.753052 -60.503052 -38.778076 -23.528078 -2.0280774 13.221923 34.94693 50.19693 71.69696 86.946899 108.67194 123.92194 145.42194 160.67194 182.39691 197.64691 219.14691 234.39697 256.12189 271.37195 292.87195" font-family="Comic Sans MS" fill="#000000">1 1 0 1 0 1 0 1 0 1 0 1 0 1 0 1</tspan>
  </text>
  <text id="text15648" y="403.75836" x="-296.70306" font-size="15px">
   <tspan id="tspan15650" style="writing-mode:lr-tb;" font-weight="bold" fill-rule="nonzero" font-size="25px" font-variant="normal" y="403.75836" x="-296.70306 -281.45306 -259.97806 -244.72806 -223.22806 -207.97806 -186.25305 -171.00305 -149.50305 -134.25305 -112.52808 -97.278076 -75.778046 -60.528076 -38.80304 -23.553072 -2.0530713 13.196929 34.921936 50.171936 71.671936 86.921936 108.64691 123.89697 145.39691 160.64691 182.37195 197.62195 219.12195 234.37189 256.09692 271.34692 292.84698" font-family="Comic Sans MS" fill="#000000">1 1 0 1 1 1 0 1 1 1 0 1 1 1 0 1 1</tspan>
  </text>
  <text id="text15652" y="469.79584" x="-296.70306" font-size="15px">
   <tspan id="tspan15654" style="writing-mode:lr-tb;" font-weight="bold" fill-rule="nonzero" font-size="25px" font-variant="normal" y="469.79584" x="-296.70306" font-family="Comic Sans MS" fill="#ffffff">1</tspan>
  </text>
  <text id="text15656" y="469.79584" x="-259.95306" font-size="15px">
   <tspan id="tspan15658" style="writing-mode:lr-tb;" font-weight="bold" fill-rule="nonzero" font-size="25px" font-variant="normal" y="469.79584" x="-259.95306 -244.70306 -223.20306 -207.95306 -186.22806 -170.97806 -149.47806 -134.22806 -112.50305 -97.253052 -75.753052 -60.503052 -38.778076 -23.528078 -2.0280774 13.221923 34.94693 50.19693 71.69696 86.946899 108.67194 123.92194 145.42194 160.67194 182.39691 197.64691 219.14691 234.39697 256.12189 271.37195 292.87195" font-family="Comic Sans MS" fill="#000000">1 0 1 1 1 0 1 1 1 0 1 1 1 1 0 0</tspan>
  </text>
  <text id="text15660" y="499.79584" x="-296.70306" font-size="15px">
   <tspan id="tspan15662" style="writing-mode:lr-tb;" font-weight="bold" fill-rule="nonzero" font-size="25px" font-variant="normal" y="499.79584" x="-296.70306" font-family="Comic Sans MS" fill="#ffffff">1</tspan>
  </text>
  <text id="text15664" y="499.79584" x="-259.95306" font-size="15px">
   <tspan id="tspan15666" style="writing-mode:lr-tb;" font-weight="bold" fill-rule="nonzero" font-size="25px" font-variant="normal" y="499.79584" x="-259.95306 -244.70306 -223.20306 -207.95306 -186.22806 -170.97806 -149.47806 -134.22806 -112.50305 -97.253052 -75.753052 -60.503052 -38.778076 -23.528078 -2.0280774 13.221923 34.94693 50.19693 71.69696 86.946899 108.67194 123.92194 145.42194 160.67194 182.39691 197.64691 219.14691 234.39697 256.12189 271.37195 292.87195" font-family="Comic Sans MS" fill="#000000">0 1 0 0 0 1 0 0 0 1 0 0 0 0 1 1</tspan>
  </text>
  <path id="path15668" stroke-linejoin="round" d="m324.23,360.78-637.5,0" stroke="#000" stroke-linecap="butt" stroke-miterlimit="10" stroke-dasharray="none" stroke-width="1.25" fill="none"/>
  <path id="path15670" stroke-linejoin="round" d="m-305.77,393.13c0-8.2875,6.7125-15,15-15s15,6.7125,15,15-6.7125,15-15,15-15-6.7125-15-15z" stroke="#F00" stroke-linecap="butt" stroke-miterlimit="10" stroke-dasharray="none" stroke-width="0.9375" fill="none"/>
  <text id="text15672" y="402.13336" x="-454.26556" font-size="15px">
   <tspan id="tspan15674" style="writing-mode:lr-tb;" font-weight="normal" fill-rule="nonzero" font-size="25px" font-variant="normal" y="402.13336" x="-454.26556 -437.04056 -424.81558 -412.01556 -398.81558 -386.01556 -373.84058 -360.61557 -347.61557 -334.61557" font-family="Comic Sans MS" fill="#000000">wraparound</tspan>
  </text>
  <text id="text15676" y="462.00836" x="-364.70306" font-size="15px">
   <tspan id="tspan15678" style="writing-mode:lr-tb;" font-weight="normal" fill-rule="nonzero" font-size="25px" font-variant="normal" y="462.00836" x="-364.70306 -352.47806 -339.47806" font-family="Comic Sans MS" fill="#000000">sum</tspan>
  </text>
  <text id="text15680" y="496.69586" x="-431.89056" font-size="15px">
   <tspan id="tspan15682" style="writing-mode:lr-tb;" font-weight="normal" fill-rule="nonzero" font-size="25px" font-variant="normal" y="496.69586" x="-431.89056 -419.14056 -404.69058 -390.91556 -378.16556 -364.44058 -352.21558 -339.21558" font-family="Comic Sans MS" fill="#000000">checksum</tspan>
  </text>
  <path id="path15684" stroke-linejoin="round" d="m324.23,431.57-637.5,0" stroke="#000" stroke-linecap="butt" stroke-miterlimit="10" stroke-dasharray="none" stroke-width="1.25" fill="none"/>
  <path id="path15686" d="m-289.2,408.28,0,9.0625-0.625-0.625,586.88,0,0,1.25-586.88,0c-0.35,0-0.625-0.275-0.625-0.625v-9.0625h1.25zm586.25,9.0625-2.5-3.75,7.5,3.75-7.5,3.75,2.5-3.75z" fill-rule="nonzero" fill="#F00"/>
 </g>
</svg>
