<!-- Created with Inkscape (http://www.inkscape.org/) -->
<svg id="svg2" xmlns:rdf="http://www.w3.org/1999/02/22-rdf-syntax-ns#" xmlns="http://www.w3.org/2000/svg" xml:space="preserve" height="178.41" width="641.55" version="1.1" xmlns:cc="http://creativecommons.org/ns#" xmlns:xlink="http://www.w3.org/1999/xlink" xmlns:dc="http://purl.org/dc/elements/1.1/"><metadata id="metadata8"><rdf:RDF><cc:Work rdf:about=""><dc:format>image/svg+xml</dc:format><dc:type rdf:resource="http://purl.org/dc/dcmitype/StillImage"/><dc:title/></cc:Work></rdf:RDF></metadata><defs id="defs6"><clipPath id="clipPath5004" clipPathUnits="userSpaceOnUse"><path id="path5006" clip-rule="evenodd" d="M0.000010729,0,720,0v540h-720v-540z"/></clipPath><clipPath id="clipPath4992" clipPathUnits="userSpaceOnUse"><path id="path4994" clip-rule="evenodd" d="M0.000010729,0,720,0v540h-720v-540z"/></clipPath><clipPath id="clipPath4980" clipPathUnits="userSpaceOnUse"><path id="path4982" clip-rule="evenodd" d="M0.000010729,0,720,0v540h-720v-540z"/></clipPath><clipPath id="clipPath4968" clipPathUnits="userSpaceOnUse"><path id="path4970" clip-rule="evenodd" d="M0.000010729,0,720,0v540h-720v-540z"/></clipPath><clipPath id="clipPath4940" clipPathUnits="userSpaceOnUse"><path id="path4942" clip-rule="evenodd" d="M0.000010729,0,720,0v540h-720v-540z"/></clipPath><clipPath id="clipPath4928" clipPathUnits="userSpaceOnUse"><path id="path4930" clip-rule="evenodd" d="M0.000010729,0,720,0v540h-720v-540z"/></clipPath><clipPath id="clipPath4916" clipPathUnits="userSpaceOnUse"><path id="path4918" clip-rule="evenodd" d="M0.000010729,0,720,0v540h-720v-540z"/></clipPath><clipPath id="clipPath4904" clipPathUnits="userSpaceOnUse"><path id="path4906" clip-rule="evenodd" d="M0.000010729,0,720,0v540h-720v-540z"/></clipPath><clipPath id="clipPath4892" clipPathUnits="userSpaceOnUse"><path id="path4894" clip-rule="evenodd" d="M0.000010729,0,720,0v540h-720v-540z"/></clipPath><clipPath id="clipPath4880" clipPathUnits="userSpaceOnUse"><path id="path4882" clip-rule="evenodd" d="M0.000010729,0,720,0v540h-720v-540z"/></clipPath><clipPath id="clipPath4868" clipPathUnits="userSpaceOnUse"><path id="path4870" clip-rule="evenodd" d="M0.000010729,0,720,0v540h-720v-540z"/></clipPath></defs><g id="g10" transform="matrix(1.25,0,0,-1.25,706.06734,524.23426)"><g id="g4864" transform="translate(-654.06327,242.82284)"><g id="g4866" clip-path="url(#clipPath4868)"><text id="text4872" transform="matrix(1,0,0,-1,261.14,159.79)"><tspan id="tspan4874" style="writing-mode:lr-tb;" font-weight="normal" fill-rule="nonzero" font-size="24.02400017px" font-variant="normal" y="0" x="0 13.357344 20.036016 33.39336 40.072033 53.429375 60.108047 73.465393 80.144066 93.501411 100.18008 113.53742 120.21609 133.57344 140.25211" font-family="Arial" fill="#cc0000">1.3.6.1.2.1.7.1</tspan></text>
</g></g><g id="g4876" transform="translate(-654.06327,242.82284)"><g id="g4878" clip-path="url(#clipPath4880)"><text id="text4884" transform="matrix(1,0,0,-1,187.32,118.99)"><tspan id="tspan4886" style="writing-mode:lr-tb;" font-weight="normal" fill-rule="nonzero" font-size="20.06399918px" font-variant="normal" y="0" x="0 5.5199919 18.844879" font-family="Arial" fill="#000000">ISO</tspan></text>
</g></g><g id="g4888" transform="translate(-654.06327,242.82284)"><g id="g4890" clip-path="url(#clipPath4892)"><text id="text4896" transform="matrix(1,0,0,-1,87.36,94.968)"><tspan id="tspan4898" style="writing-mode:lr-tb;" font-weight="normal" fill-rule="nonzero" font-size="20.04000092px" font-variant="normal" y="0" x="0 5.52002 18.8356" font-family="Arial" fill="#000000">ISO</tspan></text>
</g></g><g id="g4900" transform="translate(-654.06327,242.82284)"><g id="g4902" clip-path="url(#clipPath4904)"><text id="text4908" transform="matrix(1,0,0,-1,121.8,94.968)"><tspan id="tspan4910" style="writing-mode:lr-tb;" font-weight="normal" fill-rule="nonzero" font-size="20.04000092px" font-variant="normal" y="0" x="0" font-family="Arial" fill="#000000">-</tspan></text>
</g></g><g id="g4912" transform="translate(-654.06327,242.82284)"><g id="g4914" clip-path="url(#clipPath4916)"><text id="text4920" transform="matrix(1,0,0,-1,128.52,94.968)"><tspan id="tspan4922" style="writing-mode:lr-tb;" font-weight="normal" fill-rule="nonzero" font-size="20.04000092px" font-variant="normal" y="0" x="0 4.4488802 15.59112 26.73336 37.875599 43.44672 49.017841 54.24828 69.839401 76.512718 87.71508" font-family="Arial" fill="#000000">ident. Org.</tspan></text>
</g></g><g id="g4924" transform="translate(-654.06327,242.82284)"><g id="g4926" clip-path="url(#clipPath4928)"><text id="text4932" transform="matrix(1,0,0,-1,148.2,70.968)"><tspan id="tspan4934" style="writing-mode:lr-tb;" font-weight="normal" fill-rule="nonzero" font-size="20.04000092px" font-variant="normal" y="0" x="0 14.46888 27.83556 33.406681 47.875561 59.017799" font-family="Arial" fill="#000000">US DoD</tspan></text>
</g></g><g id="g4936" transform="translate(-654.06327,242.82284)"><g id="g4938" clip-path="url(#clipPath4940)"><text id="text4944" transform="matrix(1,0,0,-1,153.84,46.968)"><tspan id="tspan4946" style="writing-mode:lr-tb;" font-weight="normal" fill-rule="nonzero" font-size="20.04000092px" font-variant="normal" y="0" x="0 5.5711198 16.71336 22.204321 33.346561 40.059959 51.202202 62.34444" font-family="Arial" fill="#000000">Internet</tspan></text>
</g></g><path id="path4948" d="m-423,368.7,12.52,0-0.7-0.43,11.25,22.07,1.39-0.71-11.25-22.06c-0.13-0.27-0.4-0.43-0.69-0.43h-12.52v1.56zm20.64,21.76,5.4,3.98-0.05-6.71-5.35,2.73z" fill-rule="nonzero" fill="#000"/><path id="path4950" d="m-424.44,336.18,20,0-0.7-0.433,28.78,58.043,1.4-0.7-28.78-58.036c-0.13-0.266-0.4-0.434-0.7-0.434h-20v1.56zm45.65,57.7,5.35,4.04,0.02-6.71-5.37,2.67z" fill-rule="nonzero" fill="#000"/><path id="path4952" d="m-423,308.7,24.99,0-0.69-0.421,42.19,81.481,1.38-0.72-42.18-81.478c-0.14-0.259-0.41-0.422-0.7-0.422h-24.99v1.56zm64.06,81.19,5.42,3.95-0.09-6.71-5.33,2.76z" fill-rule="nonzero" fill="#000"/><path id="path4954" d="m-423.96,280.14,32.47,0-0.67-0.39,62.95,109.19,1.35-0.78-62.95-109.19c-0.14-0.242-0.4-0.391-0.68-0.391h-32.47v1.56zm92.32,109.04,5.6,3.7-0.4-6.7-5.2,3z" fill-rule="nonzero" fill="#000"/><path id="path4956" d="m-208.44,366.66-12.52,0,0.7-0.43-11.25,22.07-1.39-0.71,11.25-22.06c0.13-0.27,0.4-0.43,0.69-0.43h12.52v1.56zm-20.64,21.76-5.4,3.98,0.05-6.71,5.35,2.73z" fill-rule="nonzero" fill="#000"/><path id="path4958" d="m-207,334.14-20,0,0.7-0.433-28.78,58.043-1.4-0.7,28.78-58.036c0.13-0.266,0.4-0.434,0.7-0.434h20v1.56zm-45.65,57.7-5.35,4.04-0.02-6.71,5.37,2.67z" fill-rule="nonzero" fill="#000"/><path id="path4960" d="m-208.44,306.66-25.04,0,0.7-0.421-42.27,81.601-1.38-0.72,42.26-81.599c0.14-0.258,0.4-0.421,0.69-0.421h25.04v1.56zm-64.18,81.31-5.42,3.95,0.1-6.71,5.32,2.76z" fill-rule="nonzero" fill="#000"/><path id="path4962" d="m-207.48,278.22-32.51,0,0.67-0.39-63.02,109.07-1.35-0.78,63.02-109.07c0.14-0.241,0.4-0.39,0.68-0.39h32.51v1.56zm-92.44,108.93-5.6,3.69,0.4-6.7,5.2,3.01z" fill-rule="nonzero" fill="#000"/><g id="g4964" transform="translate(-654.06327,242.82284)"><g id="g4966" clip-path="url(#clipPath4968)"><text id="text4972" transform="matrix(1,0,0,-1,455.04,120.48)"><tspan id="tspan4974" style="writing-mode:lr-tb;" font-weight="normal" fill-rule="nonzero" font-size="20.04000092px" font-variant="normal" y="0" x="0 11.14224 22.284479 33.42672 38.997841 50.140079 64.669083 75.811317 81.382439 92.524681 103.66692 110.34024 121.48248 138.11568" font-family="Arial" fill="#000000">udpInDatagrams</tspan></text>
</g></g><g id="g4976" transform="translate(-654.06327,242.82284)"><g id="g4978" clip-path="url(#clipPath4980)"><text id="text4984" transform="matrix(1,0,0,-1,455.04,96.48)"><tspan id="tspan4986" style="writing-mode:lr-tb;" font-weight="normal" fill-rule="nonzero" font-size="20.04000092px" font-variant="normal" y="0" x="0 14.51998 29.039961" font-family="Arial" fill="#000000">UDP</tspan></text>
</g></g><g id="g4988" transform="translate(-654.06327,242.82284)"><g id="g4990" clip-path="url(#clipPath4992)"><text id="text4996" transform="matrix(1,0,0,-1,455.04,72.48)"><tspan id="tspan4998" style="writing-mode:lr-tb;" font-weight="normal" fill-rule="nonzero" font-size="20.06399918px" font-variant="normal" y="0" x="0 16.713312 22.190784 35.513279" font-family="Arial" fill="#000000">MIB2</tspan></text>
</g></g><g id="g5000" transform="translate(-654.06327,242.82284)"><g id="g5002" clip-path="url(#clipPath5004)"><text id="text5008" transform="matrix(1,0,0,-1,455.04,48.456)"><tspan id="tspan5010" style="writing-mode:lr-tb;" font-weight="normal" fill-rule="nonzero" font-size="20.04000092px" font-variant="normal" y="0" x="0 16.693319 27.83556 38.977798 50.120041 61.26228 72.464638 89.157959 100.3002 111.44244" font-family="Arial" fill="#000000">management</tspan></text>
</g></g></g></svg>
