<!-- Created with Inkscape (http://www.inkscape.org/) -->
<svg id="svg2" xmlns:rdf="http://www.w3.org/1999/02/22-rdf-syntax-ns#" xmlns="http://www.w3.org/2000/svg" height="171.13" width="800.2" version="1.1" xmlns:cc="http://creativecommons.org/ns#" xmlns:xlink="http://www.w3.org/1999/xlink" xmlns:dc="http://purl.org/dc/elements/1.1/">
<defs id="defs42">
<linearGradient id="linearGradient3862">
<stop id="stop3864" stop-color="#1a1a1a" offset="0"/>
<stop id="stop3866" stop-color="#808080" offset="1"/>
</linearGradient>
<linearGradient id="linearGradient3856">
<stop id="stop3858" stop-color="#1a1a1a" offset="0"/>
<stop id="stop3860" stop-color="#1a1a1a" stop-opacity="0" offset="1"/>
</linearGradient>
<radialGradient id="radialGradient3887" xlink:href="#linearGradient3862" gradientUnits="userSpaceOnUse" cy="-1639.8" cx="-1907.4" gradientTransform="matrix(-13.412834,21.167092,49.19754,31.174581,59976.214,103054.26)" r="70.504"/>
<radialGradient id="radialGradient3889" xlink:href="#linearGradient3856" gradientUnits="userSpaceOnUse" cy="-650.14" cx="-2157.4" gradientTransform="matrix(-97.289409,-171.1979,-77.293382,43.924914,-254406.17,-330179.33)" r="19.592"/>
<linearGradient id="linearGradient4140" y2="26.719" gradientUnits="userSpaceOnUse" y1="26.719" gradientTransform="matrix(1,0,0,-1,-38.160667,169.20117)" x2="38.826" x1="9.3031">
<stop id="stop4136" stop-color="#7e807a" offset="0"/>
<stop id="stop4148" stop-color="#babbb8" offset="0.25"/>
<stop id="stop4142" stop-color="#a5a6a3" offset="0.5"/>
<stop id="stop4138" stop-color="#333432" offset="1"/>
</linearGradient>
<linearGradient id="linearGradient4198" y2="25.429" gradientUnits="userSpaceOnUse" y1="21.857" gradientTransform="matrix(1,0,0,-1,-38.160667,169.20117)" x2="25.208" x1="25.065">
<stop id="stop4208" stop-color="#7d4b01" offset="0"/>
<stop id="stop4210" stop-color="#535353" offset="1"/>
</linearGradient>
<linearGradient id="linearGradient4168" y2="17.512" gradientUnits="userSpaceOnUse" y1="17.512" gradientTransform="matrix(1,0,0,-1,-38.160667,169.20117)" x2="38.013" x1="10.116">
<stop id="stop4164" stop-color="#f79403" offset="0"/>
<stop id="stop4170" stop-color="#fdb343" offset="0.18692"/>
<stop id="stop4172" stop-color="#fdb74f" offset="0.43008"/>
<stop id="stop4166" stop-color="#8f5601" offset="1"/>
</linearGradient>
<linearGradient id="linearGradient4182" y2="56.576" gradientUnits="userSpaceOnUse" y1="14.004" gradientTransform="matrix(1,0,0,-1,-38.160667,169.20117)" x2="37.969" x1="17.16">
<stop id="stop4178" stop-color="#FFF" offset="0"/>
<stop id="stop4180" stop-color="#FFF" stop-opacity="0" offset="1"/>
</linearGradient>
<linearGradient id="linearGradient4160" y2="13.285" xlink:href="#linearGradient6932" gradientUnits="userSpaceOnUse" y1="16.525" gradientTransform="matrix(1,0,0,-1,-36.788776,175.60757)" x2="24" x1="24"/>
<linearGradient id="linearGradient6932">
<stop id="stop6934" stop-color="#FFF" offset="0"/>
<stop id="stop6936" stop-color="#e7e6ae" offset="1"/>
</linearGradient>
<radialGradient id="radialGradient6946" gradientUnits="userSpaceOnUse" cx="23.857" cy="40" r="17.143" gradientTransform="matrix(1,0,0,-0.5,-105.00142,463.51552)">
<stop id="stop4128" stop-color="#000" offset="0"/>
<stop id="stop4130" stop-color="#000" stop-opacity="0" offset="1"/>
</radialGradient>
<linearGradient id="linearGradient6930" y2="30" gradientUnits="userSpaceOnUse" y1="19.5" gradientTransform="matrix(1,0,0,-1,-38.303523,166.55831)" x2="15.786" x1="16.071">
<stop id="stop6926" stop-color="#FFF" offset="0"/>
<stop id="stop6928" stop-color="#FFF" stop-opacity="0" offset="1"/>
</linearGradient>
<linearGradient id="linearGradient4786" y2="13.285" xlink:href="#linearGradient6932" gradientUnits="userSpaceOnUse" y1="16.525" gradientTransform="matrix(1,0,0,-1,-140.3074,723.23945)" x2="24" x1="24"/>
<radialGradient id="radialGradient5019" xlink:href="#linearGradient3862" gradientUnits="userSpaceOnUse" cy="-1639.8" cx="-1907.4" gradientTransform="matrix(-13.412834,-21.167092,49.19754,-31.174581,59982.347,-104599.51)" r="70.504"/>
<radialGradient id="radialGradient5021" xlink:href="#linearGradient3856" gradientUnits="userSpaceOnUse" cy="-650.14" cx="-2157.4" gradientTransform="matrix(-97.289409,171.1979,-77.293382,-43.924914,-254400.04,328634.08)" r="19.592"/>
</defs>
<metadata id="metadata7">
<rdf:RDF>
<cc:Work rdf:about="">
<dc:format>image/svg+xml</dc:format>
<dc:type rdf:resource="http://purl.org/dc/dcmitype/StillImage"/>
<dc:title/>
</cc:Work>
</rdf:RDF>
</metadata>
<g id="layer1" transform="translate(-150.26946,-95.141627)">
<path id="path3074" stroke-linejoin="miter" d="m79.036,77.009,55.176,0,0,56.667,381.76,0,0-49.211,62.632,0" transform="translate(133.33136,61.465837)" stroke="#00F" stroke-linecap="butt" stroke-width="1px" fill="none"/>
<path id="path3074-7" stroke-linejoin="miter" d="m213.18,265.23,55.176,0,0-56.667,381.76,0,0,49.211,62.632,0" stroke="#F00" stroke-linecap="butt" stroke-width="1px" fill="none"/>
<path id="path3862" stroke-linejoin="miter" d="m79.085,203.97,0-31.634" transform="translate(133.33136,61.465837)" stroke="#000" stroke-linecap="butt" stroke-width="1px" fill="none"/>
<path id="path3864" stroke-linejoin="miter" d="m74.472,171.81,8.304,0" transform="translate(133.33136,61.465837)" stroke="#000" stroke-linecap="butt" stroke-width="1px" fill="none"/>
<path id="path3866" stroke-linejoin="miter" d="m70.65,168.65,15.553,0" transform="translate(133.33136,61.465837)" stroke="#000" stroke-linecap="butt" stroke-width="1px" fill="none"/>
<path id="path3868" stroke-linejoin="miter" d="m79.223,168.35,0-43.619-10.439-10.439" transform="translate(133.33136,61.465837)" stroke="#000" stroke-linecap="butt" stroke-width="1px" fill="none"/>
<path id="path3870" stroke-linejoin="miter" d="m78.85,113.73,0-36.536" transform="translate(133.33136,61.465837)" stroke="#000" stroke-linecap="butt" stroke-width="1px" fill="none"/>
<text id="text3872" style="word-spacing:0px;letter-spacing:0px;writing-mode:lr-tb;text-anchor:start;text-align:start;" font-family="LMRoman10" xml:space="preserve" font-size="40px" font-style="normal" font-stretch="normal" line-height="125%" font-variant="normal" y="211.54611" x="148.98946" font-weight="normal" fill="#000000"><tspan id="tspan3874" y="211.54611" x="148.98946">A</tspan></text>
<text id="text3872-6" style="word-spacing:0px;letter-spacing:0px;writing-mode:lr-tb;text-anchor:start;text-align:start;" font-family="LMRoman10" xml:space="preserve" font-size="40px" font-style="normal" font-stretch="normal" line-height="125%" font-variant="normal" y="210.95366" x="756.60522" font-weight="normal" fill="#000000"><tspan id="tspan3874-7" y="210.95366" x="756.60522">B</tspan></text>
<rect id="rect3916" fill-opacity="0.99608" stroke-dashoffset="0" ry="28.673" height="170.13" width="122.03" stroke="#000" stroke-dasharray="none" x="827.93" y="95.642" stroke-miterlimit="4" stroke-width="1" fill="#FF0"/>
<rect id="rect3918" fill-opacity="0.99608" stroke-dashoffset="0" ry="15.556" height="31.113" width="85.346" stroke="#000" stroke-dasharray="none" x="847.63" y="114.55" stroke-miterlimit="4" stroke-width="1" fill="#4d4d4d"/>
<g id="g3930" stroke="#000" transform="matrix(2.071721,0,0,2.1127547,-710.62333,-78.7731)">
<path id="path3920" d="m655.03,74.493c0,8.1845-7.1356,14.819-15.938,14.819-8.8022,0-15.938-6.6348-15.938-14.819,0-8.1845,7.1356-14.819,15.938-14.819,8.8022,0,15.938,6.6348,15.938,14.819z" fill-opacity="0.99607843" stroke-dashoffset="0" transform="translate(133.33136,61.465837)" stroke-miterlimit="4" stroke-dasharray="none" stroke-width="0.47798011" fill="#ffff52"/>
<g id="g3926" transform="matrix(0.77236881,0.63517432,-0.63517432,0.77236881,300.33362,-388.41245)">
<rect id="rect3922" stroke-width="0.19119" transform="translate(133.33136,61.465837)" fill-opacity="0.99608" rx="5.5922" stroke-dashoffset="0" ry="3.1689" width="25.538" stroke-dasharray="none" x="551.39" y="41.219" stroke-miterlimit="4" height="6.3378" fill="#ffff52"/>
<path id="path3924" stroke-linejoin="miter" d="m684.6,105.87,5.6854,0" stroke-linecap="butt" stroke-width="0.47798011px" fill="none"/>
</g>
</g>
<text id="text3936" style="word-spacing:0px;letter-spacing:0px;writing-mode:lr-tb;text-anchor:start;text-align:start;" font-family="LMRoman10" xml:space="preserve" transform="scale(0.99024146,1.0098547)" font-stretch="normal" line-height="125%" font-size="83.68548584px" font-variant="normal" y="183.92212" x="857.95917" font-weight="normal" font-style="normal" fill="#000000"><tspan id="tspan3938" y="183.92212" x="857.95917" font-size="12.55282402px">V</tspan></text>
<text id="text3936-5" style="word-spacing:0px;letter-spacing:0px;writing-mode:lr-tb;text-anchor:start;text-align:start;" font-family="LMRoman10" xml:space="preserve" transform="scale(0.99024146,1.0098547)" font-stretch="normal" line-height="125%" font-size="83.68548584px" font-variant="normal" y="237.70804" x="857.95917" font-weight="normal" font-style="normal" fill="#000000"><tspan id="tspan3985" y="237.70804" x="857.95917" font-size="12.55282402px">Ω</tspan></text>
<text id="text3936-4" style="word-spacing:0px;letter-spacing:0px;writing-mode:lr-tb;text-anchor:start;text-align:start;" font-family="LMRoman10" xml:space="preserve" transform="scale(0.99024146,1.0098547)" font-stretch="normal" line-height="125%" font-size="83.68548584px" font-variant="normal" y="237.70804" x="925.24524" font-weight="normal" font-style="normal" fill="#000000"><tspan id="tspan3938-0" y="237.70804" x="925.24524" font-size="12.55282402px">A</tspan></text>
<text id="text3936-8" style="word-spacing:0px;letter-spacing:0px;writing-mode:lr-tb;text-anchor:start;text-align:start;" font-family="LMRoman10" xml:space="preserve" transform="scale(0.99024146,1.0098547)" font-stretch="normal" line-height="125%" font-size="83.68548584px" font-variant="normal" y="183.92212" x="925.24524" font-weight="normal" font-style="normal" fill="#000000"><tspan id="tspan3938-3" y="183.92212" x="925.24524" font-size="12.55282402px">V</tspan></text>
<path id="path3979" stroke-linejoin="miter" d="m859.16,179.6,6.9633,0" stroke="#000" stroke-linecap="butt" stroke-miterlimit="4" stroke-dasharray="none" stroke-width="0.69999999" fill="none"/>
<path id="path3981" stroke-linejoin="miter" d="m859.16,183.4,6.9633,0" stroke="#000" stroke-linecap="butt" stroke-miterlimit="4" stroke-dasharray="none" stroke-width="0.30000001" fill="none"/>
<path id="path3983" stroke-linejoin="miter" d="m927.03,181.6c3.7653,4.1352,6.3478,0,6.3478,0s2.5031-3.6899,6.5651,0" stroke="#000" stroke-linecap="butt" stroke-miterlimit="4" stroke-dasharray="none" stroke-width="0.30000001" fill="none"/>
<text id="LeituraT" style="word-spacing:0px;letter-spacing:0px;writing-mode:lr-tb;text-anchor:start;text-align:start;" font-family="LMRoman10" xml:space="preserve" transform="scale(0.99024146,1.0098547)" font-stretch="normal" line-height="125%" font-size="83.68548584px" font-variant="normal" y="140.35172" x="858.98596" font-weight="normal" font-style="normal" fill="#000000"><tspan id="Leitura" font-size="33.47419739px" font-family="Andale Mono" font-style="normal" font-stretch="normal" font-variant="normal" y="140.35172" x="858.98596" font-weight="bold">0000</tspan></text>
<path id="path3991" d="m647.28,96.583a2.3231,2.076,0,1,1,-4.6463,0,2.3231,2.076,0,1,1,4.6463,0z" fill-opacity="0.99607843" stroke-dashoffset="0" transform="matrix(2.071721,0,0,2.1127547,-434.10824,51.089138)" stroke="#000" stroke-miterlimit="4" stroke-dasharray="none" stroke-width="0.14339404" fill="#F00"/>
<path id="path3993" d="m647.28,96.583a2.3231,2.076,0,1,1,-4.6463,0,2.3231,2.076,0,1,1,4.6463,0z" fill-opacity="0.99607843" stroke-dashoffset="0" transform="matrix(2.071721,0,0,2.1127547,-417.53448,51.089138)" stroke="#000" stroke-miterlimit="4" stroke-dasharray="none" stroke-width="0.14339404" fill="#1a1a1a"/>
<path id="path3997" stroke-linejoin="miter" d="m766.75,193.69c-81.298-45.4-110.19-12.798-110.19-12.798-29.53,15.652-52.639-19.996-52.639-19.996-16.579-19.041-27.185,9.3203-23.83,34.672" transform="translate(133.33136,61.465837)" stroke="#F00" stroke-linecap="butt" stroke-width="1px" fill="none"/>
<path id="path3999" stroke-linejoin="miter" d="M785.35,193.6c-117.4-48.24-98.82-86.01-98.82-86.01-17.21-55.902-73.58-43.154-73.58-43.154s-30.994,6.9806-34.349,20.029" transform="translate(133.33136,61.465837)" stroke="#000" stroke-linecap="butt" stroke-width="1px" fill="none"/>
</g>
<g id="g3819" transform="matrix(1.6831075,0,0,1.6831075,37.525344,44.218942)">
<rect id="rect3019" height="33.503" width="22.674" stroke="#000" y="7.3954" x="3.0798" stroke-width="0.59414" fill="#b3b3b3"/>
<path id="path3809" d="m0.77729,5.0167,2.3002,2.3742,0,33.505-2.3689,2.0279z" fill="#000"/>
<path id="path3813" d="m0.77339,5.0142,2.3068,2.3834,22.67,0.0000038,2.3215-2.3799z" fill="#4d4d4d"/>
<path id="path3815" fill="#000" d="m28.071,5.0167-2.3002,2.3742-0.02344,33.517,2.3923,2.0162z"/>
<path id="path3817" fill="#4d4d4d" d="m0.70009,42.932,2.3654-2.0318,22.686-0.0039,2.3918,2.0323z"/>
</g>
<path id="path3828" d="m-1400-1258.9a74,74,0,1,1,-148,0,74,74,0,1,1,148,0z" transform="matrix(0.03475373,0,0,0.03475373,113.02926,108.94102)" fill="#000"/>
<path id="path3832" d="m-1400-1258.9a74,74,0,1,1,-148,0,74,74,0,1,1,148,0z" transform="matrix(0.03475373,0,0,0.03475373,112.75854,147.92374)" fill="#000"/>
<rect id="rect3834" height="18.408" width="9.475" y="75.342" x="57.065" fill="#000"/>
<g id="Chave" onclick="parent.exemploMultimetroChaveia();" transform="matrix(0.06767831,0,0,-0.06767831,36.355222,32.445864)">
<rect id="rect3836" height="108" width="104" y="-717.11" x="316.33" fill="#4d4d4d"/>
<path id="path3844" stroke-linejoin="miter" d="m316.3-717.64,0.227-76.456,122.51-0.5-18.966,77.133z" stroke="#000" stroke-linecap="butt" stroke-width="14.77578259px" fill="url(#radialGradient3887)"/>
<path id="path3846" stroke-linejoin="miter" d="m419.01-610.33,21.184-56.983-0.6568-127.78-19.643,78.34z" stroke="#000" stroke-linecap="butt" stroke-width="14.77578259px" fill="url(#radialGradient3889)"/>
</g>
<g id="g4718" transform="matrix(1,0,0,-1,38.160666,167.48689)">
<path id="path3068" stroke-linejoin="miter" style="color:#000000;" d="m23.937,7.192c-7.8594,0-14.25,2.8025-14.25,6.25v23.125c0,3.4475,6.3906,6.25,14.25,6.25s14.504-2.8025,14.504-6.25v-23.125c0-3.4475-6.645-6.25-14.504-6.25z" fill-rule="nonzero" stroke-dashoffset="0" display="block" stroke="url(#linearGradient4198)" stroke-linecap="butt" stroke-miterlimit="10" stroke-dasharray="none" stroke-width="1" fill="url(#linearGradient4140)"/>
<path id="path4152" style="color:#000000;" d="m23.941,7.4485c-7.6251,0-13.825,2.719-13.825,6.0637v6.5578c0,3.3447,6.2001,5.6479,13.825,5.6479,7.6251,0,14.072-2.3032,14.072-5.6479v-6.5578c0-3.3447-6.447-6.0637-14.072-6.0637z" fill-rule="nonzero" display="block" fill="url(#linearGradient4168)"/>
<path id="path4174" opacity="0.5443038" stroke-linejoin="miter" style="color:#000000;" d="m23.946,7.9713c-7.3278,0-13.286,2.6129-13.286,5.8272v22.126c0,3.2143,5.9583,5.8272,13.286,5.8272,7.3278,0,13.523-2.6129,13.523-5.8272v-22.126c0-3.2143-6.1955-5.8272-13.523-5.8272z" stroke-dashoffset="0" display="block" stroke="url(#linearGradient4182)" stroke-linecap="butt" stroke-miterlimit="10" stroke-dasharray="none" stroke-width="1" fill="none"/>
<path id="path3364" stroke-linejoin="miter" style="color:#000000;" d="m36.857,14.071c0,3.0376-5.7563,5.5-12.857,5.5-7.1008,0-12.857-2.4624-12.857-5.5s5.7563-5.5,12.857-5.5c7.1008,0,12.857,2.4624,12.857,5.5z" fill-rule="nonzero" display="block" transform="matrix(1.037291,0,0,0.954619,-0.894979,-0.07572056)" stroke-dashoffset="0" stroke="url(#linearGradient4160)" stroke-linecap="butt" stroke-miterlimit="10" stroke-dasharray="none" stroke-width="1.00492704" fill="#fed496"/>
<path id="path6944" opacity="0.65822784" style="color:#000000;" d="m41,40c0,4.7339-7.6751,8.5714-17.143,8.5714-9.4677,0-17.143-3.8376-17.143-8.5714,0-4.7339,7.6751-8.5714,17.143-8.5714,9.468,0,17.143,3.837,17.143,8.571z" fill-rule="nonzero" transform="matrix(0.36343,0,0,0.36343,15.47247,-4.118577)" display="block" fill="url(#radialGradient6946)"/>
<path id="path3362" stroke-linejoin="miter" style="color:#000000;" d="m23.889,6.4653c-2.0028,0-4.6313,0.71415-4.6313,1.5927v2.6297c0,0.87852,2.6285,1.5927,4.6313,1.5927s4.4104-0.71415,4.4104-1.5927v-2.6297c0-0.87852-2.4076-1.5927-4.4104-1.5927z" fill-rule="nonzero" stroke-dashoffset="0" display="block" stroke="#b46c02" stroke-linecap="butt" stroke-miterlimit="10" stroke-dasharray="none" stroke-width="1" fill="#fcaf3e"/>
<path id="path6922" opacity="0.49367089" style="color:#000000;" d="M13.643,18,14,34.786,18.571,36.071,18.429,19.357l5.4286-0.21429c-5.2157-0.23307-11.183-2.4747-13.214-3.9286,1.4169,2.0922,3,2.7857,3,2.7857z" fill-rule="nonzero" display="block" fill="url(#linearGradient6930)"/>
<path id="path6940" stroke-linejoin="miter" style="color:#000000;" d="m36.857,14.071c0,3.0376-5.7563,5.5-12.857,5.5-7.1008,0-12.857-2.4624-12.857-5.5s5.7563-5.5,12.857-5.5c7.1008,0,12.857,2.4624,12.857,5.5z" fill-rule="nonzero" display="block" transform="matrix(0.271979,0,0,0.216619,17.27048,5.409742)" stroke-dashoffset="0" stroke="url(#linearGradient4786)" stroke-linecap="butt" stroke-miterlimit="10" stroke-dasharray="none" stroke-width="4.11986637" fill="#fed496"/>
</g>
<g id="ChaveOff" onclick="parent.exemploMultimetroChaveia();" display="none" transform="matrix(0.06767831,0,0,0.06767831,35.94018,137.0258)">
<rect id="rect5013" height="108" width="104" y="-717.11" x="316.33" fill="#4d4d4d"/>
<path id="path5015" stroke-linejoin="miter" d="m316.3-717.64,0.227-76.456,122.51-0.5-18.966,77.133z" stroke="#000" stroke-linecap="butt" stroke-width="14.77578259px" fill="url(#radialGradient5019)"/>
<path id="path5017" stroke-linejoin="miter" d="m419.01-610.33,21.184-56.983-0.6568-127.78-19.643,78.34z" stroke="#000" stroke-linecap="butt" stroke-width="14.77578259px" fill="url(#radialGradient5021)"/>
</g>
</svg>
