<!-- Created with Inkscape (http://www.inkscape.org/) -->
<svg id="svg4697" xmlns:rdf="http://www.w3.org/1999/02/22-rdf-syntax-ns#" xmlns="http://www.w3.org/2000/svg" xml:space="preserve" height="354.1" width="293.68" version="1.1" xmlns:cc="http://creativecommons.org/ns#" xmlns:xlink="http://www.w3.org/1999/xlink" xmlns:dc="http://purl.org/dc/elements/1.1/"><metadata id="metadata4703"><rdf:RDF><cc:Work rdf:about=""><dc:format>image/svg+xml</dc:format><dc:type rdf:resource="http://purl.org/dc/dcmitype/StillImage"/><dc:title/></cc:Work></rdf:RDF></metadata><defs id="defs4701"><clipPath id="clipPath6148" clipPathUnits="userSpaceOnUse"><path id="path6150" clip-rule="evenodd" d="M0.000010729,0,720,0v540h-720v-540z"/></clipPath><clipPath id="clipPath6132" clipPathUnits="userSpaceOnUse"><path id="path6134" clip-rule="evenodd" d="M0.000010729,0,720,0v540h-720v-540z"/></clipPath><clipPath id="clipPath6120" clipPathUnits="userSpaceOnUse"><path id="path6122" clip-rule="evenodd" d="M0.000010729,0,720,0v540h-720v-540z"/></clipPath><clipPath id="clipPath6106" clipPathUnits="userSpaceOnUse"><path id="path6108" clip-rule="evenodd" d="M0.000010729,0,720,0v540h-720v-540z"/></clipPath><clipPath id="clipPath6092" clipPathUnits="userSpaceOnUse"><path id="path6094" clip-rule="evenodd" d="M0.000010729,0,720,0v540h-720v-540z"/></clipPath><clipPath id="clipPath6080" clipPathUnits="userSpaceOnUse"><path id="path6082" clip-rule="evenodd" d="M0.000010729,0,720,0v540h-720v-540z"/></clipPath></defs><g id="g4705" transform="matrix(1.25,0,0,-1.25,-519.08901,603.01092)"><path id="path6072" stroke-linejoin="round" d="m461.62,461.91,0-262.8" stroke="#000" stroke-linecap="butt" stroke-miterlimit="10" stroke-dasharray="none" stroke-width="0.72000003" fill="none"/><path id="path6074" stroke-linejoin="round" d="m612.7,462.99,0-262.92" stroke="#000" stroke-linecap="butt" stroke-miterlimit="10" stroke-dasharray="none" stroke-width="0.72000003" fill="none"/><g id="g6076" transform="translate(-44.900511,100.71397)"><g id="g6078" clip-path="url(#clipPath6080)"><text id="text6084" transform="matrix(1,0,0,-1,481.54,370.13)"><tspan id="tspan6086" style="writing-mode:lr-tb;" font-weight="normal" fill-rule="nonzero" font-size="15.96000004px" font-variant="normal" y="0" x="0 8.0278797 16.90164 25.7754 34.649158 43.522919" font-family="Arial" fill="#000000">sender</tspan></text>
</g></g><g id="g6088" transform="translate(-44.900511,100.71397)"><g id="g6090" clip-path="url(#clipPath6092)"><text id="text6096" transform="matrix(1,0,0,-1,626.3,369.38)"><tspan id="tspan6098" style="writing-mode:lr-tb;" font-weight="normal" fill-rule="nonzero" font-size="15.96000004px" font-variant="normal" y="0" x="0 5.3146801 14.18844 22.16844 31.0422 34.665119 42.693001 51.566761" font-family="Arial" fill="#000000">receiver</tspan></text>
</g></g><path id="path6100" stroke-linejoin="round" d="m459.82,417.99c-1.86,0-3.36,0.75-3.36,1.68v6.72c0,0.93-1.5,1.68-3.36,1.68,1.86,0,3.36,0.75,3.36,1.68v6.72c0,0.93,1.5,1.68,3.36,1.68" stroke="#000" stroke-linecap="butt" stroke-miterlimit="10" stroke-dasharray="none" stroke-width="0.72000003" fill="none"/><g id="g6102" transform="translate(-44.900511,100.71397)"><g id="g6104" clip-path="url(#clipPath6106)"><text id="text6110" transform="matrix(1,0,0,-1,459.02,320.66)"><tspan id="tspan6112" style="writing-mode:lr-tb;" font-weight="normal" fill-rule="nonzero" font-size="14.03999996px" font-variant="normal" y="0" x="0 10.08072 14.02596 22.548241" font-family="Arial" fill="#000000">DIFS</tspan></text>
</g></g><path id="path6114" d="m462.13,417.99,150.69-28.52,0-84.04-151.44,30.02,0.75,82.54z" fill-rule="evenodd" fill="#0C9"/><g id="g6116" transform="translate(-44.900511,100.71397)"><g id="g6118" clip-path="url(#clipPath6120)"><text id="text6124" transform="matrix(1,0,0,-1,556.54,255.31)"><tspan id="tspan6126" style="writing-mode:lr-tb;" font-weight="normal" fill-rule="nonzero" font-size="18px" font-variant="normal" y="0" x="0 10.008 19.926001 24.93" font-family="Arial" fill="#ffffff">data</tspan></text>
</g></g><g id="g6128" transform="translate(-44.900511,100.71397)"><g id="g6130" clip-path="url(#clipPath6132)"><text id="text6136" transform="matrix(1,0,0,-1,664.56,185.62)"><tspan id="tspan6138" style="writing-mode:lr-tb;" font-weight="normal" fill-rule="nonzero" font-size="14.03999996px" font-variant="normal" y="0" x="0 9.3646803 13.30992 21.832199" font-family="Arial" fill="#000000">SIFS</tspan></text>
</g></g><path id="path6140" stroke-linejoin="round" d="m612.82,284.43c1.89,0,3.42,0.77,3.42,1.71v6.72c0,0.94,1.53,1.71,3.42,1.71-1.89,0-3.42,0.77-3.42,1.71v6.72c0,0.94-1.53,1.71-3.42,1.71" stroke="#000" stroke-linecap="butt" stroke-miterlimit="10" stroke-dasharray="none" stroke-width="0.72000003" fill="none"/><path id="path6142" d="m460.66,231.99,151.44,30.73,0,20.99-150.69-29.98-0.75-21.74z" fill-rule="evenodd" fill="#33C"/><g id="g6144" transform="translate(-44.900511,100.71397)"><g id="g6146" clip-path="url(#clipPath6148)"><text id="text6152" transform="matrix(1,0,0,-1,561.79,149.54)"><tspan id="tspan6154" style="writing-mode:lr-tb;" font-weight="normal" fill-rule="nonzero" font-size="18.02400017px" font-variant="normal" y="0" x="0 12.022008 24.96324" font-family="Arial" fill="#ffffff">ACK</tspan></text>
</g></g></g></svg>
